<?xml version="1.0" encoding="UTF-8"?>
<svg xmlns="http://www.w3.org/2000/svg">
   <g transform="translate(20)">
      <g transform="translate(0, 29)">
         <rect x="-8"
               y="-5"
               width="300"
               height="29"
               fill="none"
               stroke="lightgray"
               stroke-width="1"/>
         <text x="10" y="14" text-anchor="end">1</text>
         <polyline points="20,14.411871026200787 40,0 60,14.058591059659232 80,14.262048705611452 100,17.877031556448 120,11.511306980666157 140,16.218232785840094 160,20 180,7.073504611370694 200,11.574406430146473"
                   stroke="black"
                   stroke-width="1"
                   fill="none"/>
         <text x="270" y="14" text-anchor="end">6.42%</text>
      </g>
      <g transform="translate(0, 58)">
         <rect x="-8"
               y="-5"
               width="300"
               height="29"
               fill="none"
               stroke="lightgray"
               stroke-width="1"/>
         <text x="10" y="14" text-anchor="end">2</text>
         <polyline points="20,4.276923209868709 40,16.911338727654293 60,20 80,0 100,7.004587550021261 120,6.141614623569065 140,5.328092627733872 160,16.030795142137624 180,3.4399535885942143 200,9.289106569564439"
                   stroke="black"
                   stroke-width="1"
                   fill="none"/>
         <text x="270" y="14" text-anchor="end">9.78%</text>
      </g>
      <g transform="translate(0, 87)">
         <rect x="-8"
               y="-5"
               width="300"
               height="29"
               fill="none"
               stroke="lightgray"
               stroke-width="1"/>
         <text x="10" y="14" text-anchor="end">3</text>
         <polyline points="20,20 40,8.179703246378908 60,0 80,3.1743577275842263 100,7.76110336021153 120,6.323714771456203 140,4.891458117429044 160,16.88321740379272 180,15.905923181422446 200,18.734986965211665"
                   stroke="black"
                   stroke-width="1"
                   fill="none"/>
         <text x="270" y="14" text-anchor="end">3.12%</text>
      </g>
      <g transform="translate(0, 116)">
         <rect x="-8"
               y="-5"
               width="300"
               height="29"
               fill="none"
               stroke="lightgray"
               stroke-width="1"/>
         <text x="10" y="14" text-anchor="end">4</text>
         <polyline points="20,18.231456178816792 40,15.616499812726016 60,6.476727456484207 80,6.665789594812674 100,17.754679766483786 120,20 140,9.608696886284232 160,0 180,7.986414147792175 200,12.343055488204946"
                   stroke="black"
                   stroke-width="1"
                   fill="none"/>
         <text x="270" y="14" text-anchor="end">3.26%</text>
      </g>
      <g transform="translate(0, 145)">
         <rect x="-8"
               y="-5"
               width="300"
               height="29"
               fill="none"
               stroke="lightgray"
               stroke-width="1"/>
         <text x="10" y="14" text-anchor="end">5</text>
         <polyline points="20,17.824985052876503 40,12.573771215952737 60,7.645809843827168 80,16.742975417811284 100,11.35100932572018 120,11.117674748527023 140,20 160,0 180,18.815586898087638 200,8.076911085577752"
                   stroke="black"
                   stroke-width="1"
                   fill="none"/>
         <text x="270" y="14" text-anchor="end">2.58%</text>
      </g>
      <g transform="translate(300, 29)">
         <rect x="-8"
               y="-5"
               width="300"
               height="29"
               fill="none"
               stroke="lightgray"
               stroke-width="1"/>
         <text x="10" y="14" text-anchor="end">6</text>
         <polyline points="20,16.23621666947291 40,20 60,15.111698322085868 80,8.001599596524056 100,12.690260376889638 120,17.61215676147306 140,0 160,3.4740124809754818 180,15.124499309519916 200,10.03666955374833"
                   stroke="black"
                   stroke-width="1"
                   fill="none"/>
         <text x="270" y="14" text-anchor="end">3.33%</text>
      </g>
      <g transform="translate(300, 58)">
         <rect x="-8"
               y="-5"
               width="300"
               height="29"
               fill="none"
               stroke="lightgray"
               stroke-width="1"/>
         <text x="10" y="14" text-anchor="end">7</text>
         <polyline points="20,0 40,10.681352430492435 60,12.383400397112698 80,14.924782953749194 100,9.816007305793343 120,20 140,19.300124913886222 160,19.615461918318793 180,12.095161643769977 200,18.448135844717513"
                   stroke="black"
                   stroke-width="1"
                   fill="none"/>
         <text x="270" y="14" text-anchor="end">2.03%</text>
      </g>
      <g transform="translate(300, 87)">
         <rect x="-8"
               y="-5"
               width="300"
               height="29"
               fill="none"
               stroke="lightgray"
               stroke-width="1"/>
         <text x="10" y="14" text-anchor="end">8</text>
         <polyline points="20,19.554195660999813 40,10.844255959017433 60,7.269645304884426 80,10.953124146585434 100,20 120,8.264932922478703 140,2.9138536544411124 160,2.609267792124321 180,16.38813429491291 200,0"
                   stroke="black"
                   stroke-width="1"
                   fill="none"/>
         <text x="270" y="14" text-anchor="end">3.07%</text>
      </g>
      <g transform="translate(300, 116)">
         <rect x="-8"
               y="-5"
               width="300"
               height="29"
               fill="none"
               stroke="lightgray"
               stroke-width="1"/>
         <text x="10" y="14" text-anchor="end">9</text>
         <polyline points="20,2.3304226337326703 40,1.392310004216565 60,2.2290622015332424 80,0.3556560943935807 100,0 120,1.871145329921653 140,1.9961927131538175 160,4.884769527422105 180,3.941056782577302 200,20"
                   stroke="black"
                   stroke-width="1"
                   fill="none"/>
         <text x="270" y="14" text-anchor="end">10.26%</text>
      </g>
      <g transform="translate(300, 145)">
         <rect x="-8"
               y="-5"
               width="300"
               height="29"
               fill="none"
               stroke="lightgray"
               stroke-width="1"/>
         <text x="10" y="14" text-anchor="end">10</text>
         <polyline points="20,3.8211541707791135 40,8.054821414560614 60,4.012306065693696 80,10.62231580418607 100,20 120,4.307221098155852 140,0 160,13.505800313714815 180,17.504979395753352 200,5.83381642125855"
                   stroke="black"
                   stroke-width="1"
                   fill="none"/>
         <text x="270" y="14" text-anchor="end">1.47%</text>
      </g>
      <g transform="translate(600, 29)">
         <rect x="-8"
               y="-5"
               width="300"
               height="29"
               fill="none"
               stroke="lightgray"
               stroke-width="1"/>
         <text x="10" y="14" text-anchor="end">11</text>
         <polyline points="20,18.46931874639083 40,17.629662958921692 60,20 80,17.594878112787622 100,16.150832232644767 120,19.1930933249934 140,0 160,7.838798069220115 180,6.768999233699372 200,4.362768143908053"
                   stroke="black"
                   stroke-width="1"
                   fill="none"/>
         <text x="270" y="14" text-anchor="end">3.94%</text>
      </g>
      <g transform="translate(600, 58)">
         <rect x="-8"
               y="-5"
               width="300"
               height="29"
               fill="none"
               stroke="lightgray"
               stroke-width="1"/>
         <text x="10" y="14" text-anchor="end">12</text>
         <polyline points="20,10.050247695232814 40,8.749483695243296 60,20 80,19.479386929717453 100,11.27045472857167 120,10.418202544168064 140,14.47284989354974 160,0 180,13.745969198364513 200,16.01831401695566"
                   stroke="black"
                   stroke-width="1"
                   fill="none"/>
         <text x="270" y="14" text-anchor="end">1.90%</text>
      </g>
      <g transform="translate(600, 87)">
         <rect x="-8"
               y="-5"
               width="300"
               height="29"
               fill="none"
               stroke="lightgray"
               stroke-width="1"/>
         <text x="10" y="14" text-anchor="end">13</text>
         <polyline points="20,17.079979488045392 40,0 60,20 80,14.089782844723771 100,16.58630467243138 120,16.913507795837532 140,18.54891502424131 160,13.55439529065026 180,11.174400580081223 200,8.428984329164795"
                   stroke="black"
                   stroke-width="1"
                   fill="none"/>
         <text x="270" y="14" text-anchor="end">2.67%</text>
      </g>
      <g transform="translate(600, 116)">
         <rect x="-8"
               y="-5"
               width="300"
               height="29"
               fill="none"
               stroke="lightgray"
               stroke-width="1"/>
         <text x="10" y="14" text-anchor="end">14</text>
         <polyline points="20,6.653324535608702 40,5.819500650114408 60,20 80,9.191166871965553 100,2.998411572712115 120,19.080945592431412 140,0 160,18.09778300984282 180,8.16213643065074 200,13.88797188606306"
                   stroke="black"
                   stroke-width="1"
                   fill="none"/>
         <text x="270" y="14" text-anchor="end">2.06%</text>
      </g>
      <g transform="translate(600, 145)">
         <rect x="-8"
               y="-5"
               width="300"
               height="29"
               fill="none"
               stroke="lightgray"
               stroke-width="1"/>
         <text x="10" y="14" text-anchor="end">15</text>
         <polyline points="20,16.01771579784131 40,19.13577367944176 60,18.047817222757175 80,12.396929619626924 100,14.18418305163567 120,14.938038982994295 140,15.703550626135206 160,17.499652219298248 180,20 200,0"
                   stroke="black"
                   stroke-width="1"
                   fill="none"/>
         <text x="270" y="14" text-anchor="end">2.04%</text>
      </g>
   </g>
</svg>
