<?xml version="1.0" encoding="UTF-8"?>
<svg xmlns="http://www.w3.org/2000/svg" xmlns:saxon="http://saxon.sf.net/">
   <g transform="translate(80, 610)">
      <line x1="40"
            y1="0"
            x2="840"
            y2="0"
            stroke="black"
            stroke-width="2"
            stroke-linecap="square"/>
      <line x1="40"
            y1="0"
            x2="40"
            y2="-600"
            stroke="black"
            stroke-width="2"
            stroke-linecap="square"/>
      <text x="400" y="35" text-anchor="middle">Threads</text>
      <text x="-40" y="-300" text-anchor="middle" writing-mode="tb">Milliseconds</text>
      <line x1="80"
            y1="0"
            x2="80"
            y2="-600"
            stroke="lightgray"
            stroke-width="1"/>
      <text x="80" y="15" text-anchor="middle">1</text>
      <line x1="160"
            y1="0"
            x2="160"
            y2="-600"
            stroke="lightgray"
            stroke-width="1"/>
      <text x="160" y="15" text-anchor="middle">2</text>
      <line x1="240"
            y1="0"
            x2="240"
            y2="-600"
            stroke="lightgray"
            stroke-width="1"/>
      <text x="240" y="15" text-anchor="middle">3</text>
      <line x1="320"
            y1="0"
            x2="320"
            y2="-600"
            stroke="lightgray"
            stroke-width="1"/>
      <text x="320" y="15" text-anchor="middle">4</text>
      <line x1="400"
            y1="0"
            x2="400"
            y2="-600"
            stroke="lightgray"
            stroke-width="1"/>
      <text x="400" y="15" text-anchor="middle">5</text>
      <line x1="480"
            y1="0"
            x2="480"
            y2="-600"
            stroke="lightgray"
            stroke-width="1"/>
      <text x="480" y="15" text-anchor="middle">6</text>
      <line x1="560"
            y1="0"
            x2="560"
            y2="-600"
            stroke="lightgray"
            stroke-width="1"/>
      <text x="560" y="15" text-anchor="middle">7</text>
      <line x1="640"
            y1="0"
            x2="640"
            y2="-600"
            stroke="lightgray"
            stroke-width="1"/>
      <text x="640" y="15" text-anchor="middle">8</text>
      <line x1="720"
            y1="0"
            x2="720"
            y2="-600"
            stroke="lightgray"
            stroke-width="1"/>
      <text x="720" y="15" text-anchor="middle">9</text>
      <line x1="800"
            y1="0"
            x2="800"
            y2="-600"
            stroke="lightgray"
            stroke-width="1"/>
      <text x="800" y="15" text-anchor="middle">10</text>
      <line x1="40"
            y1="-44.94718705521012"
            x2="800"
            y2="-44.94718705521012"
            stroke="lightgray"
            stroke-width="1"/>
      <text x="32" y="-44.94718705521012" text-anchor="end" dy="0.3em">1000</text>
      <line x1="40"
            y1="-89.89437411042024"
            x2="800"
            y2="-89.89437411042024"
            stroke="lightgray"
            stroke-width="1"/>
      <text x="32" y="-89.89437411042024" text-anchor="end" dy="0.3em">2000</text>
      <line x1="40"
            y1="-134.84156116563037"
            x2="800"
            y2="-134.84156116563037"
            stroke="lightgray"
            stroke-width="1"/>
      <text x="32" y="-134.84156116563037" text-anchor="end" dy="0.3em">3000</text>
      <line x1="40"
            y1="-179.7887482208405"
            x2="800"
            y2="-179.7887482208405"
            stroke="lightgray"
            stroke-width="1"/>
      <text x="32" y="-179.7887482208405" text-anchor="end" dy="0.3em">4000</text>
      <line x1="40"
            y1="-224.7359352760506"
            x2="800"
            y2="-224.7359352760506"
            stroke="lightgray"
            stroke-width="1"/>
      <text x="32" y="-224.7359352760506" text-anchor="end" dy="0.3em">5000</text>
      <line x1="40"
            y1="-269.68312233126073"
            x2="800"
            y2="-269.68312233126073"
            stroke="lightgray"
            stroke-width="1"/>
      <text x="32" y="-269.68312233126073" text-anchor="end" dy="0.3em">6000</text>
      <line x1="40"
            y1="-314.63030938647086"
            x2="800"
            y2="-314.63030938647086"
            stroke="lightgray"
            stroke-width="1"/>
      <text x="32" y="-314.63030938647086" text-anchor="end" dy="0.3em">7000</text>
      <line x1="40"
            y1="-359.577496441681"
            x2="800"
            y2="-359.577496441681"
            stroke="lightgray"
            stroke-width="1"/>
      <text x="32" y="-359.577496441681" text-anchor="end" dy="0.3em">8000</text>
      <line x1="40"
            y1="-404.5246834968911"
            x2="800"
            y2="-404.5246834968911"
            stroke="lightgray"
            stroke-width="1"/>
      <text x="32" y="-404.5246834968911" text-anchor="end" dy="0.3em">9000</text>
      <line x1="40"
            y1="-449.4718705521012"
            x2="800"
            y2="-449.4718705521012"
            stroke="lightgray"
            stroke-width="1"/>
      <text x="32" y="-449.4718705521012" text-anchor="end" dy="0.3em">10000</text>
      <line x1="40"
            y1="-494.4190576073114"
            x2="800"
            y2="-494.4190576073114"
            stroke="lightgray"
            stroke-width="1"/>
      <text x="32" y="-494.4190576073114" text-anchor="end" dy="0.3em">11000</text>
      <line x1="40"
            y1="-539.3662446625215"
            x2="800"
            y2="-539.3662446625215"
            stroke="lightgray"
            stroke-width="1"/>
      <text x="32" y="-539.3662446625215" text-anchor="end" dy="0.3em">12000</text>
      <line x1="40"
            y1="-584.3134317177316"
            x2="800"
            y2="-584.3134317177316"
            stroke="lightgray"
            stroke-width="1"/>
      <text x="32" y="-584.3134317177316" text-anchor="end" dy="0.3em">13000</text>
      <polyline fill-opacity="0"
                points="80,-39.73331335680575 160,-41.21657052962768 240,-40.901940220241215 320,-41.08172896846205 400,-39.01415836392239 480,-40.767098659075586 560,-41.171623342572474 640,-41.036781781406845 720,-40.04794366619222 800,-40.58730991085474"
                stroke="blue"
                stroke-width="2"/>
      <polyline fill-opacity="0"
                points="80,-59.060603790546104 160,-53.89167727919694 240,-58.83586785527005 320,-60.90343845980972 400,-56.45366694134392 480,-60.54386096336804 560,-61.17312158214098 640,-58.566184732938794 720,-59.68986440931904 800,-57.84702974005543"
                stroke="green"
                stroke-width="2"/>
      <polyline fill-opacity="0"
                points="80,-390.18653082627907 160,-396.4341898269533 240,-385.7367593078133 320,-396.793767323395 400,-397.647763877444 480,-397.2881863810023 560,-386.45591430069663 640,-385.6918121207581 720,-416.16600494419055 800,-374.81459285339724"
                stroke="red"
                stroke-width="2"/>
      <polyline fill-opacity="0"
                points="80,-481.96868679301815 160,-522.8256798262041 240,-506.24016780283165 320,-506.77953404749417 400,-508.3077384073713 480,-515.9038130197018 560,-526.6012435388418 640,-532.5342722301295 720,-535.7704696981046 800,-544.9846430444228"
                stroke="brown"
                stroke-width="2"/>
      <polyline fill-opacity="0"
                points="80,-600 160,-599.1010562588957 240,-599.2808450071166 320,-592.8084500711664 400,-586.6506854446026 480,-590.5161435313506 560,-584.3134317177316 640,-570.2449621694509 720,-554.5583938871825 800,-541.5237096411715"
                stroke="darkviolet"
                stroke-width="2"/>
      <rect x="240"
            y="-300"
            width="110"
            height="140"
            fill="seashell"
            stroke="black"
            stroke-width="2"/>
      <text x="248" y="-175" fill="blue">1 paragraph</text>
      <text x="248" y="-200" fill="green">2 paragraphs</text>
      <text x="248" y="-225" fill="red">3 paragraphs</text>
      <text x="248" y="-250" fill="brown">4 paragraphs</text>
      <text x="248" y="-275" fill="darkviolet">5 paragraphs</text>
   </g>
</svg>
