<?xml version="1.0" encoding="utf-8"?>
<!-- Generator: Adobe Illustrator 16.0.0, SVG Export Plug-In . SVG Version: 6.00 Build 0)  -->
<!DOCTYPE svg PUBLIC "-//W3C//DTD SVG 1.1//EN" "http://www.w3.org/Graphics/SVG/1.1/DTD/svg11.dtd">
<svg version="1.1" id="Layer_1" xmlns="http://www.w3.org/2000/svg" xmlns:xlink="http://www.w3.org/1999/xlink" x="0px" y="0px"
	 width="367.309px" height="354.488px" viewBox="0 0 367.309 354.488" enable-background="new 0 0 367.309 354.488"
	 xml:space="preserve">
<rect x="32.987" y="32.987" fill="#FFFFFF" stroke="#000000" stroke-miterlimit="10" width="36" height="28"/>
<rect x="68.987" y="32.987" fill="#FFFFFF" stroke="#000000" stroke-miterlimit="10" width="35" height="28"/>
<rect x="103.987" y="32.987" fill="#FFFFFF" stroke="#000000" stroke-miterlimit="10" width="36" height="28"/>
<rect x="139.987" y="32.987" fill="#FFFFFF" stroke="#000000" stroke-miterlimit="10" width="35" height="28"/>
<rect x="174.987" y="32.987" fill="#FFFFFF" stroke="#000000" stroke-miterlimit="10" width="36" height="28"/>
<rect x="210.987" y="32.987" fill="#FFFFFF" stroke="#000000" stroke-miterlimit="10" width="35" height="28"/>
<rect x="245.987" y="32.987" fill="#FFFFFF" stroke="#000000" stroke-miterlimit="10" width="36" height="28"/>
<rect x="281.987" y="32.987" fill="#FFFFFF" stroke="#000000" stroke-miterlimit="10" width="35" height="28"/>
<rect x="316.987" y="32.987" fill="#FFFFFF" stroke="#000000" stroke-miterlimit="10" width="36" height="28"/>
<rect x="32.987" y="60.987" fill="#FFFFFF" stroke="#000000" stroke-miterlimit="10" width="36" height="29"/>
<rect x="68.987" y="60.987" fill="#FFFFFF" stroke="#000000" stroke-miterlimit="10" width="35" height="29"/>
<rect x="103.987" y="60.987" fill="#FFFFFF" stroke="#000000" stroke-miterlimit="10" width="36" height="29"/>
<rect x="139.987" y="60.987" fill="#FFFFFF" stroke="#000000" stroke-miterlimit="10" width="35" height="29"/>
<rect x="174.987" y="60.987" fill="#FFFFFF" stroke="#000000" stroke-miterlimit="10" width="36" height="29"/>
<rect x="210.987" y="60.987" fill="#FFFFFF" stroke="#000000" stroke-miterlimit="10" width="35" height="29"/>
<rect x="245.987" y="60.987" fill="#FFFFFF" stroke="#000000" stroke-miterlimit="10" width="36" height="29"/>
<rect x="281.987" y="60.987" fill="#FFFFFF" stroke="#000000" stroke-miterlimit="10" width="35" height="29"/>
<rect x="316.987" y="60.987" fill="#FFFFFF" stroke="#000000" stroke-miterlimit="10" width="36" height="29"/>
<rect x="32.987" y="89.987" fill="#FFFFFF" stroke="#000000" stroke-miterlimit="10" width="36" height="28"/>
<rect x="68.987" y="89.987" fill="none" stroke="#000000" stroke-miterlimit="10" width="35" height="28"/>
<rect x="103.987" y="89.987" fill="#FFFFFF" stroke="#000000" stroke-miterlimit="10" width="36" height="28"/>
<rect x="139.987" y="89.987" fill="#FFFFFF" stroke="#000000" stroke-miterlimit="10" width="35" height="28"/>
<rect x="174.987" y="89.987" fill="#FFFFFF" stroke="#000000" stroke-miterlimit="10" width="36" height="28"/>
<rect x="210.987" y="89.987" fill="#FFFFFF" stroke="#000000" stroke-miterlimit="10" width="35" height="28"/>
<rect x="245.987" y="89.987" fill="none" stroke="#000000" stroke-miterlimit="10" width="36" height="28"/>
<rect x="281.987" y="89.987" fill="#FFFFFF" stroke="#000000" stroke-miterlimit="10" width="35" height="28"/>
<rect x="316.987" y="89.987" fill="#FFFFFF" stroke="#000000" stroke-miterlimit="10" width="36" height="28"/>
<rect x="32.987" y="117.987" fill="#FFFFFF" stroke="#000000" stroke-miterlimit="10" width="36" height="28"/>
<rect x="68.987" y="117.987" fill="#FFFFFF" stroke="#000000" stroke-miterlimit="10" width="35" height="28"/>
<rect x="103.987" y="117.987" fill="#FFFFFF" stroke="#000000" stroke-miterlimit="10" width="36" height="28"/>
<rect x="139.987" y="117.987" fill="#FFFFFF" stroke="#000000" stroke-miterlimit="10" width="35" height="28"/>
<rect x="174.987" y="117.987" fill="#FFFFFF" stroke="#000000" stroke-miterlimit="10" width="36" height="28"/>
<rect x="210.987" y="117.987" fill="#FFFFFF" stroke="#000000" stroke-miterlimit="10" width="35" height="28"/>
<rect x="245.987" y="117.987" fill="#FFFFFF" stroke="#000000" stroke-miterlimit="10" width="36" height="28"/>
<rect x="281.987" y="117.987" fill="#FFFFFF" stroke="#000000" stroke-miterlimit="10" width="35" height="28"/>
<rect x="316.987" y="117.987" fill="#FFFFFF" stroke="#000000" stroke-miterlimit="10" width="36" height="28"/>
<rect x="32.987" y="145.987" fill="#FFFFFF" stroke="#000000" stroke-miterlimit="10" width="36" height="29"/>
<rect x="68.987" y="145.987" fill="none" stroke="#000000" stroke-miterlimit="10" width="35" height="29"/>
<rect x="103.987" y="145.987" fill="#FFFFFF" stroke="#000000" stroke-miterlimit="10" width="36" height="29"/>
<rect x="139.987" y="145.987" fill="#FFFFFF" stroke="#000000" stroke-miterlimit="10" width="35" height="29"/>
<rect x="174.987" y="145.987" fill="#FFFFFF" stroke="#000000" stroke-miterlimit="10" width="36" height="29"/>
<rect x="210.987" y="145.987" fill="#FFFFFF" stroke="#000000" stroke-miterlimit="10" width="35" height="29"/>
<rect x="245.987" y="145.987" fill="none" stroke="#000000" stroke-miterlimit="10" width="36" height="29"/>
<rect x="281.987" y="145.987" fill="#FFFFFF" stroke="#000000" stroke-miterlimit="10" width="35" height="29"/>
<rect x="316.987" y="145.987" fill="#FFFFFF" stroke="#000000" stroke-miterlimit="10" width="36" height="29"/>
<rect x="32.987" y="174.987" fill="#FFFFFF" stroke="#000000" stroke-miterlimit="10" width="36" height="28"/>
<rect x="68.987" y="174.987" fill="#FFFFFF" stroke="#000000" stroke-miterlimit="10" width="35" height="28"/>
<rect x="103.987" y="174.987" fill="#FFFFFF" stroke="#000000" stroke-miterlimit="10" width="36" height="28"/>
<rect x="139.987" y="174.987" fill="#FFFFFF" stroke="#000000" stroke-miterlimit="10" width="35" height="28"/>
<rect x="174.987" y="174.987" fill="#FFFFFF" stroke="#000000" stroke-miterlimit="10" width="36" height="28"/>
<rect x="210.987" y="174.987" fill="#FFFFFF" stroke="#000000" stroke-miterlimit="10" width="35" height="28"/>
<rect x="245.987" y="174.987" fill="#FFFFFF" stroke="#000000" stroke-miterlimit="10" width="36" height="28"/>
<rect x="281.987" y="174.987" fill="#FFFFFF" stroke="#000000" stroke-miterlimit="10" width="35" height="28"/>
<rect x="316.987" y="174.987" fill="#FFFFFF" stroke="#000000" stroke-miterlimit="10" width="36" height="28"/>
<rect x="32.987" y="202.987" fill="#FFFFFF" stroke="#000000" stroke-miterlimit="10" width="36" height="28"/>
<rect x="68.987" y="202.987" fill="#FFFFFF" stroke="#000000" stroke-miterlimit="10" width="35" height="28"/>
<rect x="103.987" y="202.987" fill="#FFFFFF" stroke="#000000" stroke-miterlimit="10" width="36" height="28"/>
<rect x="139.987" y="202.987" fill="#FFFFFF" stroke="#000000" stroke-miterlimit="10" width="35" height="28"/>
<rect x="174.987" y="202.987" fill="#FFFFFF" stroke="#000000" stroke-miterlimit="10" width="36" height="28"/>
<rect x="210.987" y="202.987" fill="#FFFFFF" stroke="#000000" stroke-miterlimit="10" width="35" height="28"/>
<rect x="245.987" y="202.987" fill="#FFFFFF" stroke="#000000" stroke-miterlimit="10" width="36" height="28"/>
<rect x="281.987" y="202.987" fill="#FFFFFF" stroke="#000000" stroke-miterlimit="10" width="35" height="28"/>
<rect x="316.987" y="202.987" fill="#FFFFFF" stroke="#000000" stroke-miterlimit="10" width="36" height="28"/>
<rect x="32.987" y="230.987" fill="#FFFFFF" stroke="#000000" stroke-miterlimit="10" width="36" height="28"/>
<rect x="68.987" y="230.987" fill="#FFFFFF" stroke="#000000" stroke-miterlimit="10" width="35" height="28"/>
<rect x="103.987" y="230.987" fill="#FFFFFF" stroke="#000000" stroke-miterlimit="10" width="36" height="28"/>
<rect x="139.987" y="230.987" fill="#FFFFFF" stroke="#000000" stroke-miterlimit="10" width="35" height="28"/>
<rect x="174.987" y="230.987" fill="#FFFFFF" stroke="#000000" stroke-miterlimit="10" width="36" height="28"/>
<rect x="210.987" y="230.987" fill="#FFFFFF" stroke="#000000" stroke-miterlimit="10" width="35" height="28"/>
<rect x="245.987" y="230.987" fill="#FFFFFF" stroke="#000000" stroke-miterlimit="10" width="36" height="28"/>
<rect x="281.987" y="230.987" fill="#FFFFFF" stroke="#000000" stroke-miterlimit="10" width="35" height="28"/>
<rect x="316.987" y="230.987" fill="#FFFFFF" stroke="#000000" stroke-miterlimit="10" width="36" height="28"/>
<rect x="32.987" y="258.987" fill="#FFFFFF" stroke="#000000" stroke-miterlimit="10" width="36" height="29"/>
<rect x="68.987" y="258.987" fill="none" stroke="#000000" stroke-miterlimit="10" width="35" height="29"/>
<rect x="103.987" y="258.987" fill="#FFFFFF" stroke="#000000" stroke-miterlimit="10" width="36" height="29"/>
<rect x="139.987" y="258.987" fill="#FFFFFF" stroke="#000000" stroke-miterlimit="10" width="35" height="29"/>
<rect x="174.987" y="258.987" fill="#FFFFFF" stroke="#000000" stroke-miterlimit="10" width="36" height="29"/>
<rect x="210.987" y="258.987" fill="#FFFFFF" stroke="#000000" stroke-miterlimit="10" width="35" height="29"/>
<rect x="245.987" y="258.987" fill="none" stroke="#000000" stroke-miterlimit="10" width="36" height="29"/>
<rect x="281.987" y="258.987" fill="#FFFFFF" stroke="#000000" stroke-miterlimit="10" width="35" height="29"/>
<rect x="316.987" y="258.987" fill="#FFFFFF" stroke="#000000" stroke-miterlimit="10" width="36" height="29"/>
<rect x="32.987" y="287.987" fill="#FFFFFF" stroke="#000000" stroke-miterlimit="10" width="36" height="28.001"/>
<rect x="68.987" y="287.987" fill="#FFFFFF" stroke="#000000" stroke-miterlimit="10" width="35" height="28.001"/>
<rect x="103.987" y="287.987" fill="#FFFFFF" stroke="#000000" stroke-miterlimit="10" width="36" height="28.001"/>
<rect x="139.987" y="287.987" fill="#FFFFFF" stroke="#000000" stroke-miterlimit="10" width="35" height="28.001"/>
<rect x="174.987" y="287.987" fill="#FFFFFF" stroke="#000000" stroke-miterlimit="10" width="36" height="28.001"/>
<rect x="210.987" y="287.987" fill="none" stroke="#000000" stroke-miterlimit="10" width="35" height="28.001"/>
<rect x="245.987" y="287.987" fill="#FFFFFF" stroke="#000000" stroke-miterlimit="10" width="36" height="28.001"/>
<rect x="281.987" y="287.987" fill="none" stroke="#000000" stroke-miterlimit="10" width="35" height="28.001"/>
<rect x="316.987" y="287.987" fill="#FFFFFF" stroke="#000000" stroke-miterlimit="10" width="36" height="28.001"/>
<rect x="32.987" y="315.988" fill="#FFFFFF" stroke="#000000" stroke-miterlimit="10" width="36" height="28"/>
<rect x="68.987" y="315.988" fill="#FFFFFF" stroke="#000000" stroke-miterlimit="10" width="35" height="28"/>
<rect x="103.987" y="315.988" fill="#FFFFFF" stroke="#000000" stroke-miterlimit="10" width="36" height="28"/>
<rect x="139.987" y="315.988" fill="#FFFFFF" stroke="#000000" stroke-miterlimit="10" width="35" height="28"/>
<rect x="174.987" y="315.988" fill="#FFFFFF" stroke="#000000" stroke-miterlimit="10" width="36" height="28"/>
<rect x="210.987" y="315.988" fill="#FFFFFF" stroke="#000000" stroke-miterlimit="10" width="35" height="28"/>
<rect x="245.987" y="315.988" fill="#FFFFFF" stroke="#000000" stroke-miterlimit="10" width="36" height="28"/>
<rect x="281.987" y="315.988" fill="#FFFFFF" stroke="#000000" stroke-miterlimit="10" width="35" height="28"/>
<rect x="316.987" y="315.988" fill="none" stroke="#000000" stroke-miterlimit="10" width="36" height="28"/>
<g>
	<rect x="-21.763" y="66.737" fill="none" width="73.125" height="278.126"/>
	<path d="M19.435,68.079v2.402c-0.72-0.461-1.439-0.809-2.162-1.043c-0.724-0.234-1.451-0.352-2.187-0.352
		c-1.116,0-2,0.26-2.647,0.779c-0.648,0.519-0.974,1.221-0.974,2.104c0,0.773,0.214,1.363,0.64,1.771
		c0.426,0.407,1.221,0.746,2.385,1.02l1.242,0.281c1.641,0.383,2.836,0.984,3.586,1.805c0.75,0.821,1.125,1.938,1.125,3.352
		c0,1.664-0.517,2.934-1.547,3.809c-1.031,0.875-2.531,1.312-4.5,1.312c-0.82,0-1.646-0.088-2.474-0.264
		c-0.827-0.176-1.659-0.439-2.496-0.791v-2.52c0.898,0.57,1.748,0.988,2.55,1.254c0.801,0.266,1.606,0.398,2.42,0.398
		c1.194,0,2.125-0.268,2.789-0.803c0.664-0.535,0.996-1.283,0.996-2.244c0-0.875-0.229-1.543-0.687-2.004
		c-0.457-0.461-1.252-0.816-2.385-1.066l-1.267-0.293c-1.625-0.367-2.805-0.922-3.538-1.664c-0.734-0.742-1.103-1.738-1.103-2.988
		c0-1.562,0.525-2.814,1.576-3.756c1.051-0.942,2.447-1.412,4.188-1.412c0.673,0,1.38,0.076,2.121,0.229
		C17.831,67.547,18.614,67.774,19.435,68.079z"/>
	<path d="M9.931,95.481h9.715v1.992h-3.668v13.512h3.668v1.992H9.931v-1.992h3.668V97.473H9.931V95.481z"/>
	<path d="M7.997,123.54h3.164l3.023,8.883l3.047-8.883h3.176v17.438h-2.191v-15.41l-3.116,9.188h-1.793l-3.13-9.188v15.41h-2.18
		V123.54z"/>
	<path d="M9.931,151.481h9.715v1.992h-3.668v13.512h3.668v1.992H9.931v-1.992h3.668v-13.512H9.931V151.481z"/>
	<path d="M10.095,179.481h2.379v15.504h8.448v1.992H10.095V179.481z"/>
	<path d="M13.364,207.481h2.871l5.354,17.496h-2.448l-1.289-4.56h-6.129l-1.267,4.56H8.009L13.364,207.481z M14.794,209.567
		l-2.496,8.953h4.992L14.794,209.567z"/>
	<path d="M16.481,244.716c0.608,0.156,1.129,0.451,1.559,0.885c0.431,0.434,0.965,1.299,1.605,2.596l2.379,4.781h-2.543
		l-2.086-4.418c-0.603-1.258-1.144-2.068-1.623-2.432c-0.48-0.364-1.107-0.545-1.881-0.545H11.63v7.395H9.251v-17.496h4.875
		c1.922,0,3.396,0.434,4.418,1.301c1.023,0.867,1.535,2.121,1.535,3.762c0,1.156-0.313,2.101-0.942,2.83
		C18.507,244.105,17.622,244.552,16.481,244.716z M11.63,237.427v6.211h2.591c1.133,0,1.977-0.254,2.53-0.762
		c0.555-0.508,0.832-1.285,0.832-2.332c0-1.008-0.295-1.779-0.885-2.314s-1.447-0.803-2.572-0.803H11.63z"/>
	<path d="M9.931,263.481h9.715v1.992h-3.668v13.512h3.668v1.992H9.931v-1.992h3.668v-13.512H9.931V263.481z"/>
	<path d="M8.126,291.481h13.349v1.992h-5.474v15.503h-2.379v-15.503H8.126V291.481z"/>
	<path d="M8.009,319.482h2.521l4.266,7.723l4.254-7.723h2.543l-5.612,9.645v7.852H13.6v-7.852L8.009,319.482z"/>
</g>
<g>
	<rect x="79.862" y="9.112" fill="none" width="319" height="24.75"/>
	<path d="M82.021,9.794h8.904v1.826h-3.361v12.386h3.361v1.826h-8.904v-1.826h3.361V11.62h-3.361V9.794z"/>
	<path d="M120.034,9.794c2.449,0,4.254,0.652,5.414,1.955c1.16,1.304,1.74,3.33,1.74,6.08c0,2.736-0.58,4.753-1.74,6.053
		c-1.16,1.3-2.965,1.95-5.414,1.95h-3.255V9.794H120.034z M119.991,24.049c1.826,0,3.101-0.449,3.824-1.348
		c0.723-0.898,1.085-2.522,1.085-4.872c0-2.37-0.36-4.005-1.08-4.904c-0.72-0.898-1.997-1.348-3.83-1.348h-1.031v12.472H119.991z"/>
	<path d="M152.869,9.794h9.519v1.826h-7.349v4.318h7.025v1.826h-7.025v6.241h7.552v1.826h-9.722V9.794z"/>
	<path d="M186.402,9.848h2.965l6.273,13.159V9.848h2.31v15.984h-2.965l-6.273-13.159v13.159h-2.31V9.848z"/>
	<path d="M222.148,9.794h12.234v1.826h-5.017v14.212h-2.181V11.62h-5.038L222.148,9.794L222.148,9.794z"/>
	<path d="M259.248,9.794h8.905v1.826h-3.362v12.386h3.362v1.826h-8.905v-1.826h3.362V11.62h-3.362V9.794z"/>
	<path d="M293.039,9.794h12.235v1.826h-5.018v14.212h-2.181V11.62h-5.038L293.039,9.794L293.039,9.794z"/>
	<path d="M328.378,9.794h2.31l3.91,7.079l3.899-7.079h2.33l-5.145,8.841v7.197H333.5v-7.197L328.378,9.794z"/>
</g>
</svg>
