<?xml version="1.0" encoding="utf-8"?>
<!-- Generator: Adobe Illustrator 16.0.0, SVG Export Plug-In . SVG Version: 6.00 Build 0)  -->
<!DOCTYPE svg PUBLIC "-//W3C//DTD SVG 1.1//EN" "http://www.w3.org/Graphics/SVG/1.1/DTD/svg11.dtd">
<svg version="1.1" id="Layer_1" xmlns="http://www.w3.org/2000/svg" xmlns:xlink="http://www.w3.org/1999/xlink" x="0px" y="0px"
	 width="367.308px" height="354.487px" viewBox="0 0 367.308 354.487" enable-background="new 0 0 367.308 354.487"
	 xml:space="preserve">
<rect x="32.987" y="32.987" fill="#FFFFFF" stroke="#000000" stroke-miterlimit="10" width="36" height="28"/>
<rect x="68.987" y="32.987" fill="#FFFFFF" stroke="#000000" stroke-miterlimit="10" width="35" height="28"/>
<rect x="103.987" y="32.987" fill="#FFFFFF" stroke="#000000" stroke-miterlimit="10" width="36" height="28"/>
<rect x="139.987" y="32.987" fill="#FFFFFF" stroke="#000000" stroke-miterlimit="10" width="35" height="28"/>
<rect x="174.987" y="32.987" fill="#FFFFFF" stroke="#000000" stroke-miterlimit="10" width="36" height="28"/>
<rect x="210.987" y="32.987" fill="#FFFFFF" stroke="#000000" stroke-miterlimit="10" width="35" height="28"/>
<rect x="245.987" y="32.987" fill="#FFFFFF" stroke="#000000" stroke-miterlimit="10" width="36" height="28"/>
<rect x="281.987" y="32.987" fill="#FFFFFF" stroke="#000000" stroke-miterlimit="10" width="35" height="28"/>
<rect x="316.987" y="32.987" fill="#FFFFFF" stroke="#000000" stroke-miterlimit="10" width="36" height="28"/>
<rect x="32.987" y="60.987" fill="#FFFFFF" stroke="#000000" stroke-miterlimit="10" width="36" height="29"/>
<rect x="68.987" y="60.987" fill="#FFFFFF" stroke="#000000" stroke-miterlimit="10" width="35" height="29"/>
<rect x="103.987" y="60.987" fill="#FFFFFF" stroke="#000000" stroke-miterlimit="10" width="36" height="29"/>
<rect x="139.987" y="60.987" fill="#FFFFFF" stroke="#000000" stroke-miterlimit="10" width="35" height="29"/>
<rect x="174.987" y="60.987" fill="#FFFFFF" stroke="#000000" stroke-miterlimit="10" width="36" height="29"/>
<rect x="210.987" y="60.987" fill="#FFFFFF" stroke="#000000" stroke-miterlimit="10" width="35" height="29"/>
<rect x="245.987" y="60.987" fill="#FFFFFF" stroke="#000000" stroke-miterlimit="10" width="36" height="29"/>
<rect x="281.987" y="60.987" fill="#FFFFFF" stroke="#000000" stroke-miterlimit="10" width="35" height="29"/>
<rect x="316.987" y="60.987" fill="#FFFFFF" stroke="#000000" stroke-miterlimit="10" width="36" height="29"/>
<rect x="32.987" y="89.987" fill="#FFFFFF" stroke="#000000" stroke-miterlimit="10" width="36" height="28"/>
<rect x="68.987" y="89.987" fill="#7AC943" stroke="#000000" stroke-miterlimit="10" width="35" height="28"/>
<rect x="103.987" y="89.987" fill="#FFFFFF" stroke="#000000" stroke-miterlimit="10" width="36" height="28"/>
<rect x="139.987" y="89.987" fill="#FFFFFF" stroke="#000000" stroke-miterlimit="10" width="35" height="28"/>
<rect x="174.987" y="89.987" fill="#FFFFFF" stroke="#000000" stroke-miterlimit="10" width="36" height="28"/>
<rect x="210.987" y="89.987" fill="#FFFFFF" stroke="#000000" stroke-miterlimit="10" width="35" height="28"/>
<rect x="245.987" y="89.987" fill="#7AC943" stroke="#000000" stroke-miterlimit="10" width="36" height="28"/>
<rect x="281.987" y="89.987" fill="#FFFFFF" stroke="#000000" stroke-miterlimit="10" width="35" height="28"/>
<rect x="316.987" y="89.987" fill="#FFFFFF" stroke="#000000" stroke-miterlimit="10" width="36" height="28"/>
<rect x="32.987" y="117.987" fill="#FFFFFF" stroke="#000000" stroke-miterlimit="10" width="36" height="28"/>
<rect x="68.987" y="117.987" fill="#FFFFFF" stroke="#000000" stroke-miterlimit="10" width="35" height="28"/>
<rect x="103.987" y="117.987" fill="#FFFFFF" stroke="#000000" stroke-miterlimit="10" width="36" height="28"/>
<rect x="139.987" y="117.987" fill="#FFFFFF" stroke="#000000" stroke-miterlimit="10" width="35" height="28"/>
<rect x="174.987" y="117.987" fill="#FFFFFF" stroke="#000000" stroke-miterlimit="10" width="36" height="28"/>
<rect x="210.987" y="117.987" fill="#FFFFFF" stroke="#000000" stroke-miterlimit="10" width="35" height="28"/>
<rect x="245.987" y="117.987" fill="#FFFFFF" stroke="#000000" stroke-miterlimit="10" width="36" height="28"/>
<rect x="281.987" y="117.987" fill="#FFFFFF" stroke="#000000" stroke-miterlimit="10" width="35" height="28"/>
<rect x="316.987" y="117.987" fill="#FFFFFF" stroke="#000000" stroke-miterlimit="10" width="36" height="28"/>
<rect x="32.987" y="145.987" fill="#FFFFFF" stroke="#000000" stroke-miterlimit="10" width="36" height="29"/>
<rect x="68.987" y="145.987" fill="#7AC943" stroke="#000000" stroke-miterlimit="10" width="35" height="29"/>
<rect x="103.987" y="145.987" fill="#FFFFFF" stroke="#000000" stroke-miterlimit="10" width="36" height="29"/>
<rect x="139.987" y="145.987" fill="#FFFFFF" stroke="#000000" stroke-miterlimit="10" width="35" height="29"/>
<rect x="174.987" y="145.987" fill="#FFFFFF" stroke="#000000" stroke-miterlimit="10" width="36" height="29"/>
<rect x="210.987" y="145.987" fill="#FFFFFF" stroke="#000000" stroke-miterlimit="10" width="35" height="29"/>
<rect x="245.987" y="145.987" fill="#7AC943" stroke="#000000" stroke-miterlimit="10" width="36" height="29"/>
<rect x="281.987" y="145.987" fill="#FFFFFF" stroke="#000000" stroke-miterlimit="10" width="35" height="29"/>
<rect x="316.987" y="145.987" fill="#FFFFFF" stroke="#000000" stroke-miterlimit="10" width="36" height="29"/>
<rect x="32.987" y="174.987" fill="#FFFFFF" stroke="#000000" stroke-miterlimit="10" width="36" height="28"/>
<rect x="68.987" y="174.987" fill="#FFFFFF" stroke="#000000" stroke-miterlimit="10" width="35" height="28"/>
<rect x="103.987" y="174.987" fill="#FFFFFF" stroke="#000000" stroke-miterlimit="10" width="36" height="28"/>
<rect x="139.987" y="174.987" fill="#FFFFFF" stroke="#000000" stroke-miterlimit="10" width="35" height="28"/>
<rect x="174.987" y="174.987" fill="#FFFFFF" stroke="#000000" stroke-miterlimit="10" width="36" height="28"/>
<rect x="210.987" y="174.987" fill="#FFFFFF" stroke="#000000" stroke-miterlimit="10" width="35" height="28"/>
<rect x="245.987" y="174.987" fill="#FFFFFF" stroke="#000000" stroke-miterlimit="10" width="36" height="28"/>
<rect x="281.987" y="174.987" fill="#FFFFFF" stroke="#000000" stroke-miterlimit="10" width="35" height="28"/>
<rect x="316.987" y="174.987" fill="#FFFFFF" stroke="#000000" stroke-miterlimit="10" width="36" height="28"/>
<rect x="32.987" y="202.987" fill="#FFFFFF" stroke="#000000" stroke-miterlimit="10" width="36" height="28"/>
<rect x="68.987" y="202.987" fill="#FFFFFF" stroke="#000000" stroke-miterlimit="10" width="35" height="28"/>
<rect x="103.987" y="202.987" fill="#FFFFFF" stroke="#000000" stroke-miterlimit="10" width="36" height="28"/>
<rect x="139.987" y="202.987" fill="#FFFFFF" stroke="#000000" stroke-miterlimit="10" width="35" height="28"/>
<rect x="174.987" y="202.987" fill="#FFFFFF" stroke="#000000" stroke-miterlimit="10" width="36" height="28"/>
<rect x="210.987" y="202.987" fill="#FFFFFF" stroke="#000000" stroke-miterlimit="10" width="35" height="28"/>
<rect x="245.987" y="202.987" fill="#FFFFFF" stroke="#000000" stroke-miterlimit="10" width="36" height="28"/>
<rect x="281.987" y="202.987" fill="#FFFFFF" stroke="#000000" stroke-miterlimit="10" width="35" height="28"/>
<rect x="316.987" y="202.987" fill="#FFFFFF" stroke="#000000" stroke-miterlimit="10" width="36" height="28"/>
<rect x="32.987" y="230.987" fill="#FFFFFF" stroke="#000000" stroke-miterlimit="10" width="36" height="28"/>
<rect x="68.987" y="230.987" fill="#FFFFFF" stroke="#000000" stroke-miterlimit="10" width="35" height="28"/>
<rect x="103.987" y="230.987" fill="#FFFFFF" stroke="#000000" stroke-miterlimit="10" width="36" height="28"/>
<rect x="139.987" y="230.987" fill="#FFFFFF" stroke="#000000" stroke-miterlimit="10" width="35" height="28"/>
<rect x="174.987" y="230.987" fill="#FFFFFF" stroke="#000000" stroke-miterlimit="10" width="36" height="28"/>
<rect x="210.987" y="230.987" fill="#FFFFFF" stroke="#000000" stroke-miterlimit="10" width="35" height="28"/>
<rect x="245.987" y="230.987" fill="#FFFFFF" stroke="#000000" stroke-miterlimit="10" width="36" height="28"/>
<rect x="281.987" y="230.987" fill="#FFFFFF" stroke="#000000" stroke-miterlimit="10" width="35" height="28"/>
<rect x="316.987" y="230.987" fill="#FFFFFF" stroke="#000000" stroke-miterlimit="10" width="36" height="28"/>
<rect x="32.987" y="258.987" fill="#FFFFFF" stroke="#000000" stroke-miterlimit="10" width="36" height="29"/>
<rect x="68.987" y="258.987" fill="#7AC943" stroke="#000000" stroke-miterlimit="10" width="35" height="29"/>
<rect x="103.987" y="258.987" fill="#FFFFFF" stroke="#000000" stroke-miterlimit="10" width="36" height="29"/>
<rect x="139.987" y="258.987" fill="#FFFFFF" stroke="#000000" stroke-miterlimit="10" width="35" height="29"/>
<rect x="174.987" y="258.987" fill="#FFFFFF" stroke="#000000" stroke-miterlimit="10" width="36" height="29"/>
<rect x="210.987" y="258.987" fill="#FFFFFF" stroke="#000000" stroke-miterlimit="10" width="35" height="29"/>
<rect x="245.987" y="258.987" fill="#7AC943" stroke="#000000" stroke-miterlimit="10" width="36" height="29"/>
<rect x="281.987" y="258.987" fill="#FFFFFF" stroke="#000000" stroke-miterlimit="10" width="35" height="29"/>
<rect x="316.987" y="258.987" fill="#FFFFFF" stroke="#000000" stroke-miterlimit="10" width="36" height="29"/>
<rect x="32.987" y="287.987" fill="#FFFFFF" stroke="#000000" stroke-miterlimit="10" width="36" height="28"/>
<rect x="68.987" y="287.987" fill="#FFFFFF" stroke="#000000" stroke-miterlimit="10" width="35" height="28"/>
<rect x="103.987" y="287.987" fill="#FFFFFF" stroke="#000000" stroke-miterlimit="10" width="36" height="28"/>
<rect x="139.987" y="287.987" fill="#FFFFFF" stroke="#000000" stroke-miterlimit="10" width="35" height="28"/>
<rect x="174.987" y="287.987" fill="#FFFFFF" stroke="#000000" stroke-miterlimit="10" width="36" height="28"/>
<rect x="210.987" y="287.987" fill="#7AC943" stroke="#000000" stroke-miterlimit="10" width="35" height="28"/>
<rect x="245.987" y="287.987" fill="#FFFFFF" stroke="#000000" stroke-miterlimit="10" width="36" height="28"/>
<rect x="281.987" y="287.987" fill="#7AC943" stroke="#000000" stroke-miterlimit="10" width="35" height="28"/>
<rect x="316.987" y="287.987" fill="#FFFFFF" stroke="#000000" stroke-miterlimit="10" width="36" height="28"/>
<rect x="32.987" y="315.987" fill="#FFFFFF" stroke="#000000" stroke-miterlimit="10" width="36" height="28"/>
<rect x="68.987" y="315.987" fill="#FFFFFF" stroke="#000000" stroke-miterlimit="10" width="35" height="28"/>
<rect x="103.987" y="315.987" fill="#FFFFFF" stroke="#000000" stroke-miterlimit="10" width="36" height="28"/>
<rect x="139.987" y="315.987" fill="#FFFFFF" stroke="#000000" stroke-miterlimit="10" width="35" height="28"/>
<rect x="174.987" y="315.987" fill="#FFFFFF" stroke="#000000" stroke-miterlimit="10" width="36" height="28"/>
<rect x="210.987" y="315.987" fill="#FFFFFF" stroke="#000000" stroke-miterlimit="10" width="35" height="28"/>
<rect x="245.987" y="315.987" fill="#FFFFFF" stroke="#000000" stroke-miterlimit="10" width="36" height="28"/>
<rect x="281.987" y="315.987" fill="#FFFFFF" stroke="#000000" stroke-miterlimit="10" width="35" height="28"/>
<rect x="316.987" y="315.987" fill="#7AC943" stroke="#000000" stroke-miterlimit="10" width="36" height="28"/>
<g>
	<rect x="-21.763" y="66.737" fill="none" width="73.125" height="278.125"/>
	<path d="M19.435,68.079v2.402c-0.719-0.461-1.439-0.809-2.162-1.043s-1.451-0.352-2.186-0.352c-1.117,0-2,0.26-2.648,0.779
		s-0.973,1.221-0.973,2.104c0,0.773,0.213,1.363,0.639,1.77s1.221,0.746,2.385,1.02l1.242,0.281
		c1.641,0.383,2.836,0.984,3.586,1.805s1.125,1.938,1.125,3.352c0,1.664-0.516,2.934-1.547,3.809s-2.531,1.312-4.5,1.312
		c-0.82,0-1.645-0.088-2.473-0.264s-1.66-0.439-2.496-0.791v-2.52c0.898,0.57,1.748,0.988,2.549,1.254s1.607,0.398,2.42,0.398
		c1.195,0,2.125-0.268,2.789-0.803s0.996-1.283,0.996-2.244c0-0.875-0.229-1.543-0.686-2.004s-1.252-0.816-2.385-1.066l-1.266-0.293
		c-1.625-0.367-2.805-0.922-3.539-1.664s-1.102-1.738-1.102-2.988c0-1.562,0.525-2.814,1.576-3.756s2.447-1.412,4.189-1.412
		c0.672,0,1.379,0.076,2.121,0.229S18.614,67.774,19.435,68.079z"/>
	<path d="M9.931,95.481h9.715v1.992h-3.668v13.512h3.668v1.992H9.931v-1.992h3.668V97.473H9.931V95.481z"/>
	<path d="M7.997,123.54h3.164l3.023,8.883l3.047-8.883h3.176v17.438h-2.191v-15.41l-3.117,9.188h-1.793l-3.129-9.188v15.41h-2.18
		V123.54z"/>
	<path d="M9.931,151.481h9.715v1.992h-3.668v13.512h3.668v1.992H9.931v-1.992h3.668v-13.512H9.931V151.481z"/>
	<path d="M10.095,179.481h2.379v15.504h8.449v1.992H10.095V179.481z"/>
	<path d="M13.364,207.481h2.871l5.355,17.496h-2.449l-1.289-4.559h-6.129l-1.266,4.559H8.009L13.364,207.481z M14.794,209.567
		l-2.496,8.953h4.992L14.794,209.567z"/>
	<path d="M16.481,244.716c0.609,0.156,1.129,0.451,1.559,0.885s0.965,1.299,1.605,2.596l2.379,4.781h-2.543l-2.086-4.418
		c-0.602-1.258-1.143-2.068-1.623-2.432s-1.107-0.545-1.881-0.545H11.63v7.395H9.251v-17.496h4.875c1.922,0,3.395,0.434,4.418,1.301
		s1.535,2.121,1.535,3.762c0,1.156-0.314,2.1-0.943,2.83S17.622,244.552,16.481,244.716z M11.63,237.427v6.211h2.59
		c1.133,0,1.977-0.254,2.531-0.762s0.832-1.285,0.832-2.332c0-1.008-0.295-1.779-0.885-2.314s-1.447-0.803-2.572-0.803H11.63z"/>
	<path d="M9.931,263.481h9.715v1.992h-3.668v13.512h3.668v1.992H9.931v-1.992h3.668v-13.512H9.931V263.481z"/>
	<path d="M8.126,291.481h13.348v1.992h-5.473v15.504h-2.379v-15.504H8.126V291.481z"/>
	<path d="M8.009,319.481h2.52l4.266,7.723l4.254-7.723h2.543l-5.613,9.645v7.852h-2.379v-7.852L8.009,319.481z"/>
</g>
<g>
	<rect x="79.862" y="9.112" fill="none" width="319" height="24.75"/>
	<path d="M82.021,9.794h8.905v1.826h-3.362v12.386h3.362v1.826h-8.905v-1.826h3.362V11.62h-3.362V9.794z"/>
	<path d="M120.034,9.794c2.449,0,4.254,0.652,5.414,1.955c1.16,1.304,1.74,3.33,1.74,6.08c0,2.736-0.58,4.753-1.74,6.053
		s-2.965,1.95-5.414,1.95h-3.255V9.794H120.034z M119.991,24.049c1.826,0,3.101-0.449,3.824-1.348
		c0.723-0.898,1.085-2.522,1.085-4.872c0-2.37-0.36-4.005-1.08-4.904c-0.72-0.898-1.997-1.348-3.83-1.348h-1.031v12.472H119.991z"/>
	<path d="M152.869,9.794h9.518v1.826h-7.348v4.318h7.025v1.826h-7.025v6.241h7.552v1.826h-9.722V9.794z"/>
	<path d="M186.402,9.848h2.965l6.273,13.159V9.848h2.31v15.984h-2.965l-6.273-13.159v13.159h-2.31V9.848z"/>
	<path d="M222.148,9.794h12.235v1.826h-5.017v14.212h-2.181V11.62h-5.038V9.794z"/>
	<path d="M259.248,9.794h8.905v1.826h-3.362v12.386h3.362v1.826h-8.905v-1.826h3.362V11.62h-3.362V9.794z"/>
	<path d="M293.039,9.794h12.235v1.826h-5.017v14.212h-2.181V11.62h-5.038V9.794z"/>
	<path d="M328.378,9.794h2.309l3.91,7.079l3.9-7.079h2.33l-5.145,8.841v7.197h-2.182v-7.197L328.378,9.794z"/>
</g>
<g>
	<rect x="33.862" y="40.987" fill="none" width="35.625" height="22.5"/>
	<path d="M51.671,41.271c1.089,0,1.913,0.444,2.471,1.333c0.559,0.889,0.838,2.204,0.838,3.944s-0.279,3.056-0.838,3.944
		c-0.558,0.889-1.382,1.333-2.471,1.333s-1.912-0.444-2.468-1.333s-0.834-2.204-0.834-3.944s0.278-3.056,0.834-3.944
		S50.582,41.271,51.671,41.271z M51.671,42.365c-0.643,0-1.122,0.344-1.439,1.032c-0.316,0.688-0.475,1.739-0.475,3.151
		c0,0.643,0.043,1.244,0.13,1.805l3.186-5.079C52.726,42.668,52.259,42.365,51.671,42.365z M51.671,50.732
		c0.647,0,1.129-0.344,1.445-1.032c0.317-0.688,0.476-1.739,0.476-3.151c0-0.752-0.046-1.431-0.137-2.037l-3.254,5.093
		C50.543,50.356,51.033,50.732,51.671,50.732z"/>
</g>
<g>
	<rect x="68.862" y="41.487" fill="none" width="35.625" height="22.5"/>
	<path d="M79.398,47.178h7.246v1.155h-7.246V47.178z"/>
	<path d="M88.77,50.965h4.689v1.162h-6.2v-1.162c0.853-0.898,1.598-1.691,2.235-2.379s1.078-1.173,1.319-1.456
		c0.456-0.556,0.764-1.006,0.923-1.35s0.239-0.696,0.239-1.056c0-0.57-0.168-1.016-0.502-1.34c-0.336-0.324-0.795-0.485-1.378-0.485
		c-0.415,0-0.85,0.075-1.306,0.226s-0.938,0.378-1.449,0.684v-1.395c0.47-0.223,0.931-0.392,1.385-0.506
		c0.453-0.114,0.9-0.171,1.343-0.171c0.998,0,1.802,0.266,2.409,0.796c0.609,0.531,0.913,1.227,0.913,2.088
		c0,0.438-0.102,0.875-0.304,1.312c-0.203,0.438-0.532,0.92-0.988,1.449c-0.255,0.296-0.625,0.707-1.111,1.23
		C90.503,49.138,89.763,49.922,88.77,50.965z"/>
</g>
<g>
	<rect x="103.862" y="41.487" fill="none" width="35.625" height="22.5"/>
	<path d="M114.398,47.178h7.246v1.155h-7.246V47.178z"/>
	<path d="M126.019,41.921h1.6v6.651h1.36v1.121h-1.36v2.434h-1.374v-2.434h-4.327v-1.306L126.019,41.921z M126.244,43.179
		l-3.22,5.394h3.22V43.179z"/>
</g>
<g>
	<rect x="140.112" y="41.487" fill="none" width="35.625" height="22.5"/>
	<path d="M150.648,47.178h7.246v1.155h-7.246V47.178z"/>
	<path d="M164.244,42.147v1.271c-0.287-0.168-0.593-0.297-0.916-0.386s-0.661-0.133-1.012-0.133c-0.875,0-1.538,0.329-1.989,0.988
		s-0.677,1.628-0.677,2.909c0.219-0.456,0.521-0.806,0.909-1.049s0.832-0.366,1.333-0.366c0.984,0,1.747,0.302,2.286,0.906
		c0.541,0.604,0.811,1.459,0.811,2.567c0,1.103-0.278,1.958-0.834,2.563s-1.338,0.909-2.345,0.909c-1.185,0-2.053-0.425-2.604-1.275
		s-0.827-2.188-0.827-4.016c0-1.723,0.331-3.036,0.995-3.941c0.662-0.905,1.623-1.357,2.881-1.357c0.337,0,0.675,0.035,1.012,0.106
		S163.93,42.015,164.244,42.147z M161.783,46.46c-0.588,0-1.051,0.212-1.388,0.636s-0.506,1.009-0.506,1.757
		s0.169,1.333,0.506,1.757s0.8,0.636,1.388,0.636c0.61,0,1.071-0.202,1.381-0.605s0.465-0.999,0.465-1.788
		c0-0.793-0.155-1.39-0.465-1.791S162.394,46.46,161.783,46.46z"/>
</g>
<g>
	<rect x="175.237" y="40.487" fill="none" width="35.625" height="22.5"/>
	<path d="M185.773,46.178h7.246v1.155h-7.246V46.178z"/>
	<path d="M195.603,45.707c-0.588-0.15-1.047-0.431-1.377-0.841c-0.331-0.41-0.496-0.905-0.496-1.483
		c0-0.811,0.275-1.455,0.827-1.931s1.301-0.714,2.249-0.714c0.952,0,1.704,0.238,2.256,0.714s0.827,1.12,0.827,1.931
		c0,0.579-0.165,1.073-0.495,1.483c-0.331,0.41-0.79,0.69-1.378,0.841c0.684,0.15,1.206,0.454,1.569,0.909
		c0.361,0.456,0.543,1.046,0.543,1.771c0,0.92-0.294,1.641-0.882,2.16s-1.401,0.779-2.44,0.779s-1.852-0.259-2.438-0.776
		c-0.585-0.517-0.878-1.234-0.878-2.15c0-0.729,0.181-1.323,0.544-1.781C194.396,46.161,194.919,45.857,195.603,45.707z
		 M196.806,46.281c-0.615,0-1.09,0.172-1.426,0.516c-0.334,0.344-0.502,0.831-0.502,1.459s0.17,1.118,0.51,1.466
		c0.339,0.349,0.812,0.523,1.418,0.523c0.62,0,1.098-0.172,1.432-0.516c0.336-0.344,0.503-0.835,0.503-1.473
		c0-0.625-0.17-1.11-0.509-1.456C197.892,46.454,197.416,46.281,196.806,46.281z M195.104,43.512c0,0.547,0.146,0.964,0.438,1.251
		s0.713,0.431,1.265,0.431c0.556,0,0.979-0.144,1.271-0.431s0.438-0.704,0.438-1.251c0-0.556-0.145-0.98-0.434-1.271
		c-0.29-0.292-0.715-0.438-1.275-0.438c-0.552,0-0.973,0.147-1.265,0.441S195.104,42.961,195.104,43.512z"/>
</g>
<g>
	<rect x="210.237" y="40.987" fill="none" width="35.625" height="22.5"/>
	<path d="M217.014,46.678h7.246v1.155h-7.246V46.678z"/>
	<path d="M225.681,50.472h2.146v-7.711l-2.57,1.237v-1.326l2.557-1.217h1.381v9.017h2.119v1.155h-5.633V50.472z"/>
	<path d="M235.564,41.271c1.089,0,1.913,0.444,2.471,1.333c0.559,0.889,0.838,2.204,0.838,3.944s-0.279,3.056-0.838,3.944
		c-0.558,0.889-1.382,1.333-2.471,1.333s-1.912-0.444-2.468-1.333s-0.834-2.204-0.834-3.944s0.278-3.056,0.834-3.944
		S234.476,41.271,235.564,41.271z M235.564,42.365c-0.643,0-1.122,0.344-1.439,1.032c-0.316,0.688-0.475,1.739-0.475,3.151
		c0,0.643,0.043,1.244,0.13,1.805l3.186-5.079C236.619,42.668,236.152,42.365,235.564,42.365z M235.564,50.732
		c0.647,0,1.129-0.344,1.445-1.032c0.317-0.688,0.476-1.739,0.476-3.151c0-0.752-0.046-1.431-0.137-2.037l-3.254,5.093
		C234.437,50.356,234.927,50.732,235.564,50.732z"/>
</g>
<g>
	<rect x="245.237" y="40.987" fill="none" width="35.625" height="22.5"/>
	<path d="M252.014,46.678h7.246v1.155h-7.246V46.678z"/>
	<path d="M260.681,50.472h2.146v-7.711l-2.57,1.237v-1.326l2.557-1.217h1.381v9.017h2.119v1.155h-5.633V50.472z"/>
	<path d="M268.903,50.465h4.689v1.162h-6.2v-1.162c0.853-0.898,1.598-1.691,2.235-2.379s1.078-1.173,1.319-1.456
		c0.456-0.556,0.764-1.006,0.923-1.35s0.239-0.696,0.239-1.056c0-0.57-0.168-1.016-0.502-1.34c-0.336-0.324-0.795-0.485-1.378-0.485
		c-0.415,0-0.85,0.075-1.306,0.226s-0.938,0.378-1.449,0.684v-1.395c0.47-0.223,0.931-0.392,1.385-0.506
		c0.453-0.114,0.9-0.171,1.343-0.171c0.998,0,1.802,0.266,2.409,0.796c0.609,0.531,0.913,1.227,0.913,2.088
		c0,0.438-0.102,0.875-0.304,1.312c-0.203,0.438-0.532,0.92-0.988,1.449c-0.255,0.296-0.625,0.707-1.111,1.23
		C270.637,48.638,269.896,49.422,268.903,50.465z"/>
</g>
<g>
	<rect x="281.487" y="40.987" fill="none" width="35.625" height="22.5"/>
	<path d="M288.264,46.678h7.246v1.155h-7.246V46.678z"/>
	<path d="M296.931,50.472h2.146v-7.711l-2.57,1.237v-1.326l2.557-1.217h1.381v9.017h2.119v1.155h-5.633V50.472z"/>
	<path d="M307.402,41.421h1.6v6.651h1.36v1.121h-1.36v2.434h-1.374v-2.434h-4.327v-1.306L307.402,41.421z M307.628,42.679
		l-3.22,5.394h3.22V42.679z"/>
</g>
<g>
	<rect x="317.612" y="41.487" fill="none" width="35.625" height="22.5"/>
	<path d="M324.389,47.178h7.246v1.155h-7.246V47.178z"/>
	<path d="M333.056,50.972h2.146v-7.711l-2.57,1.237v-1.326l2.557-1.217h1.381v9.017h2.119v1.155h-5.633V50.972z"/>
	<path d="M345.503,42.147v1.271c-0.287-0.168-0.593-0.297-0.916-0.386s-0.661-0.133-1.012-0.133c-0.875,0-1.538,0.329-1.989,0.988
		s-0.677,1.628-0.677,2.909c0.219-0.456,0.521-0.806,0.909-1.049s0.832-0.366,1.333-0.366c0.984,0,1.747,0.302,2.286,0.906
		c0.541,0.604,0.811,1.459,0.811,2.567c0,1.103-0.278,1.958-0.834,2.563s-1.338,0.909-2.345,0.909c-1.185,0-2.053-0.425-2.604-1.275
		s-0.827-2.188-0.827-4.016c0-1.723,0.331-3.036,0.995-3.941c0.662-0.905,1.623-1.357,2.881-1.357c0.337,0,0.675,0.035,1.012,0.106
		S345.188,42.015,345.503,42.147z M343.042,46.46c-0.588,0-1.051,0.212-1.388,0.636s-0.506,1.009-0.506,1.757
		s0.169,1.333,0.506,1.757s0.8,0.636,1.388,0.636c0.61,0,1.071-0.202,1.381-0.605s0.465-0.999,0.465-1.788
		c0-0.793-0.155-1.39-0.465-1.791S343.652,46.46,343.042,46.46z"/>
</g>
<g>
	<rect x="33.112" y="69.612" fill="none" width="35.625" height="22.5"/>
	<path d="M43.648,75.303h7.246v1.155h-7.246V75.303z"/>
	<path d="M53.02,79.09h4.689v1.162h-6.2V79.09c0.853-0.898,1.598-1.691,2.235-2.379s1.078-1.173,1.319-1.456
		c0.456-0.556,0.764-1.006,0.923-1.35s0.239-0.696,0.239-1.056c0-0.57-0.168-1.016-0.502-1.34c-0.336-0.324-0.795-0.485-1.378-0.485
		c-0.415,0-0.85,0.075-1.306,0.226s-0.938,0.378-1.449,0.684v-1.395c0.47-0.223,0.931-0.392,1.385-0.506
		c0.453-0.114,0.9-0.171,1.343-0.171c0.998,0,1.802,0.266,2.409,0.796c0.609,0.531,0.913,1.227,0.913,2.088
		c0,0.438-0.102,0.875-0.304,1.312c-0.203,0.438-0.532,0.92-0.988,1.449c-0.255,0.296-0.625,0.707-1.111,1.23
		C54.753,77.263,54.013,78.047,53.02,79.09z"/>
</g>
<g>
	<rect x="33.487" y="97.737" fill="none" width="35.625" height="22.5"/>
	<path d="M44.023,103.428h7.246v1.155h-7.246V103.428z"/>
	<path d="M55.644,98.171h1.6v6.651h1.36v1.121h-1.36v2.434h-1.374v-2.434h-4.327v-1.306L55.644,98.171z M55.869,99.429l-3.22,5.394
		h3.22V99.429z"/>
</g>
<g>
	<rect x="32.737" y="126.362" fill="none" width="35.625" height="22.5"/>
	<path d="M43.273,132.053h7.246v1.155h-7.246V132.053z"/>
	<path d="M56.869,127.022v1.271c-0.287-0.168-0.593-0.297-0.916-0.386s-0.661-0.133-1.012-0.133c-0.875,0-1.538,0.329-1.989,0.988
		s-0.677,1.628-0.677,2.909c0.219-0.456,0.521-0.806,0.909-1.049s0.832-0.366,1.333-0.366c0.984,0,1.747,0.302,2.286,0.906
		c0.541,0.604,0.811,1.459,0.811,2.567c0,1.103-0.278,1.958-0.834,2.563s-1.338,0.909-2.345,0.909c-1.185,0-2.053-0.425-2.604-1.275
		s-0.827-2.188-0.827-4.016c0-1.723,0.331-3.036,0.995-3.941c0.662-0.905,1.623-1.357,2.881-1.357c0.337,0,0.675,0.035,1.012,0.106
		S56.555,126.89,56.869,127.022z M54.408,131.335c-0.588,0-1.051,0.212-1.388,0.636s-0.506,1.009-0.506,1.757
		s0.169,1.333,0.506,1.757s0.8,0.636,1.388,0.636c0.61,0,1.071-0.202,1.381-0.605s0.465-0.999,0.465-1.788
		c0-0.793-0.155-1.39-0.465-1.791S55.019,131.335,54.408,131.335z"/>
</g>
<g>
	<rect x="33.237" y="154.737" fill="none" width="35.625" height="22.5"/>
	<path d="M43.773,160.428h7.246v1.155h-7.246V160.428z"/>
	<path d="M53.603,159.957c-0.588-0.15-1.047-0.431-1.377-0.841c-0.331-0.41-0.496-0.905-0.496-1.483
		c0-0.811,0.275-1.455,0.827-1.931s1.301-0.714,2.249-0.714c0.952,0,1.704,0.238,2.256,0.714s0.827,1.12,0.827,1.931
		c0,0.579-0.165,1.073-0.495,1.483c-0.331,0.41-0.79,0.69-1.378,0.841c0.684,0.15,1.206,0.454,1.569,0.909
		c0.361,0.456,0.543,1.046,0.543,1.771c0,0.92-0.294,1.641-0.882,2.16s-1.401,0.779-2.44,0.779s-1.852-0.259-2.438-0.776
		c-0.585-0.517-0.878-1.234-0.878-2.15c0-0.729,0.181-1.323,0.544-1.781C52.396,160.411,52.919,160.107,53.603,159.957z
		 M54.806,160.531c-0.615,0-1.09,0.172-1.426,0.516c-0.334,0.344-0.502,0.831-0.502,1.459s0.17,1.118,0.51,1.466
		c0.339,0.349,0.812,0.523,1.418,0.523c0.62,0,1.098-0.172,1.432-0.516c0.336-0.344,0.503-0.835,0.503-1.473
		c0-0.625-0.17-1.11-0.509-1.456C55.892,160.704,55.416,160.531,54.806,160.531z M53.104,157.762c0,0.547,0.146,0.964,0.438,1.251
		s0.713,0.431,1.265,0.431c0.556,0,0.979-0.144,1.271-0.431s0.438-0.704,0.438-1.251c0-0.556-0.145-0.98-0.434-1.271
		c-0.29-0.292-0.715-0.438-1.275-0.438c-0.552,0-0.973,0.147-1.265,0.441S53.104,157.211,53.104,157.762z"/>
</g>
<g>
	<rect x="32.487" y="184.362" fill="none" width="35.625" height="22.5"/>
	<path d="M39.264,190.054h7.246v1.154h-7.246V190.054z"/>
	<path d="M47.931,193.847h2.146v-7.711l-2.57,1.238v-1.326l2.557-1.217h1.381v9.016h2.119v1.156h-5.633V193.847z"/>
	<path d="M57.814,184.646c1.089,0,1.913,0.445,2.471,1.334c0.559,0.889,0.838,2.203,0.838,3.943c0,1.741-0.279,3.057-0.838,3.945
		c-0.558,0.889-1.382,1.332-2.471,1.332s-1.912-0.443-2.468-1.332s-0.834-2.204-0.834-3.945c0-1.74,0.278-3.055,0.834-3.943
		S56.726,184.646,57.814,184.646z M57.814,185.739c-0.643,0-1.122,0.345-1.439,1.033c-0.316,0.688-0.475,1.738-0.475,3.15
		c0,0.643,0.043,1.244,0.13,1.805l3.186-5.078C58.869,186.043,58.402,185.739,57.814,185.739z M57.814,194.106
		c0.647,0,1.129-0.344,1.445-1.031c0.317-0.688,0.476-1.739,0.476-3.152c0-0.752-0.046-1.431-0.137-2.037l-3.254,5.094
		C56.687,193.731,57.177,194.106,57.814,194.106z"/>
</g>
<g>
	<rect x="32.862" y="211.487" fill="none" width="35.625" height="22.5"/>
	<path d="M39.639,217.179h7.246v1.154h-7.246V217.179z"/>
	<path d="M48.306,220.972h2.146v-7.711l-2.57,1.238v-1.326l2.557-1.217h1.381v9.016h2.119v1.156h-5.633V220.972z"/>
	<path d="M56.528,220.966h4.689v1.162h-6.2v-1.162c0.853-0.898,1.598-1.691,2.235-2.379c0.638-0.688,1.078-1.174,1.319-1.457
		c0.456-0.556,0.764-1.006,0.923-1.35s0.239-0.696,0.239-1.057c0-0.569-0.168-1.016-0.502-1.34
		c-0.336-0.323-0.795-0.484-1.378-0.484c-0.415,0-0.85,0.074-1.306,0.225s-0.938,0.379-1.449,0.684v-1.395
		c0.47-0.223,0.931-0.392,1.385-0.506c0.453-0.113,0.9-0.17,1.343-0.17c0.998,0,1.802,0.266,2.409,0.796
		c0.609,0.53,0.913,1.228,0.913,2.089c0,0.438-0.102,0.875-0.304,1.312c-0.203,0.438-0.532,0.92-0.988,1.449
		c-0.255,0.296-0.625,0.706-1.111,1.23C58.262,219.138,57.521,219.922,56.528,220.966z"/>
</g>
<g>
	<rect x="32.112" y="240.112" fill="none" width="35.625" height="22.5"/>
	<path d="M38.889,245.804h7.246v1.154h-7.246V245.804z"/>
	<path d="M47.556,249.597h2.146v-7.711l-2.57,1.238v-1.326l2.557-1.217h1.381v9.016h2.119v1.156h-5.633V249.597z"/>
	<path d="M58.027,240.546h1.6v6.652h1.36v1.121h-1.36v2.434h-1.374v-2.434h-4.327v-1.307L58.027,240.546z M58.253,241.804
		l-3.22,5.395h3.22V241.804z"/>
</g>
<g>
	<rect x="34.175" y="268.737" fill="none" width="35.625" height="22.5"/>
	<path d="M40.951,274.429h7.246v1.154h-7.246V274.429z"/>
	<path d="M49.618,278.222h2.146v-7.711l-2.57,1.238v-1.326l2.557-1.217h1.381v9.016h2.119v1.156h-5.633V278.222z"/>
	<path d="M62.065,269.397v1.271c-0.287-0.169-0.593-0.298-0.916-0.387s-0.661-0.133-1.012-0.133c-0.875,0-1.538,0.328-1.989,0.987
		s-0.677,1.628-0.677,2.909c0.219-0.456,0.521-0.807,0.909-1.05s0.832-0.366,1.333-0.366c0.984,0,1.747,0.303,2.286,0.906
		c0.541,0.604,0.811,1.459,0.811,2.566c0,1.104-0.278,1.958-0.834,2.564c-0.556,0.605-1.338,0.908-2.345,0.908
		c-1.185,0-2.053-0.424-2.604-1.274s-0.827-2.188-0.827-4.017c0-1.723,0.331-3.035,0.995-3.94c0.662-0.905,1.623-1.356,2.881-1.356
		c0.337,0,0.675,0.035,1.012,0.105S61.751,269.265,62.065,269.397z M59.604,273.71c-0.588,0-1.051,0.213-1.388,0.637
		s-0.506,1.009-0.506,1.756c0,0.748,0.169,1.334,0.506,1.758s0.8,0.635,1.388,0.635c0.61,0,1.071-0.201,1.381-0.604
		s0.465-0.999,0.465-1.788c0-0.793-0.155-1.39-0.465-1.791C60.676,273.911,60.215,273.71,59.604,273.71z"/>
</g>
<g>
	<rect x="34.55" y="296.862" fill="none" width="35.625" height="22.5"/>
	<path d="M41.326,302.554h7.246v1.154h-7.246V302.554z"/>
	<path d="M49.993,306.347h2.146v-7.711l-2.57,1.238v-1.326l2.557-1.217h1.381v9.016h2.119v1.156h-5.633V306.347z"/>
	<path d="M58.674,302.081c-0.588-0.15-1.047-0.43-1.377-0.84c-0.331-0.41-0.496-0.905-0.496-1.484c0-0.811,0.275-1.455,0.827-1.931
		s1.301-0.714,2.249-0.714c0.952,0,1.704,0.238,2.256,0.714s0.827,1.12,0.827,1.931c0,0.579-0.165,1.074-0.495,1.484
		c-0.331,0.41-0.79,0.689-1.378,0.84c0.684,0.15,1.206,0.454,1.569,0.91c0.361,0.455,0.543,1.045,0.543,1.77
		c0,0.921-0.294,1.641-0.882,2.16s-1.401,0.779-2.44,0.779s-1.852-0.258-2.438-0.775c-0.585-0.518-0.878-1.234-0.878-2.15
		c0-0.729,0.181-1.322,0.544-1.78C57.467,302.536,57.99,302.231,58.674,302.081z M59.877,302.655c-0.615,0-1.09,0.172-1.426,0.517
		c-0.334,0.345-0.502,0.831-0.502,1.46s0.17,1.117,0.51,1.466c0.339,0.349,0.812,0.522,1.418,0.522c0.62,0,1.098-0.172,1.432-0.516
		c0.336-0.344,0.503-0.835,0.503-1.473c0-0.625-0.17-1.11-0.509-1.457C60.963,302.829,60.487,302.655,59.877,302.655z
		 M58.175,299.888c0,0.547,0.146,0.963,0.438,1.25s0.713,0.432,1.265,0.432c0.556,0,0.979-0.145,1.271-0.432s0.438-0.703,0.438-1.25
		c0-0.557-0.145-0.98-0.434-1.271c-0.29-0.292-0.715-0.438-1.275-0.438c-0.552,0-0.973,0.146-1.265,0.44
		S58.175,299.336,58.175,299.888z"/>
</g>
<g>
	<rect x="33.8" y="325.487" fill="none" width="35.625" height="22.5"/>
	<path d="M40.576,331.179h7.246v1.154h-7.246V331.179z"/>
	<path d="M49.947,334.966h4.689v1.162h-6.2v-1.162c0.853-0.898,1.598-1.691,2.235-2.379c0.638-0.688,1.078-1.174,1.319-1.457
		c0.456-0.556,0.764-1.006,0.923-1.35s0.239-0.696,0.239-1.057c0-0.569-0.168-1.016-0.502-1.34
		c-0.336-0.323-0.795-0.484-1.378-0.484c-0.415,0-0.85,0.074-1.306,0.225s-0.938,0.379-1.449,0.684v-1.395
		c0.47-0.223,0.931-0.392,1.385-0.506c0.453-0.113,0.9-0.17,1.343-0.17c0.998,0,1.802,0.266,2.409,0.796
		c0.609,0.53,0.913,1.228,0.913,2.089c0,0.438-0.102,0.875-0.304,1.312c-0.203,0.438-0.532,0.92-0.988,1.449
		c-0.255,0.296-0.625,0.706-1.111,1.23C51.681,333.138,50.94,333.922,49.947,334.966z"/>
	<path d="M59.127,325.771c1.089,0,1.913,0.445,2.471,1.334c0.559,0.889,0.838,2.203,0.838,3.943c0,1.741-0.279,3.057-0.838,3.945
		c-0.558,0.889-1.382,1.332-2.471,1.332s-1.912-0.443-2.468-1.332s-0.834-2.204-0.834-3.945c0-1.74,0.278-3.055,0.834-3.943
		S58.038,325.771,59.127,325.771z M59.127,326.864c-0.643,0-1.122,0.345-1.439,1.033c-0.316,0.688-0.475,1.738-0.475,3.15
		c0,0.643,0.043,1.244,0.13,1.805l3.186-5.078C60.182,327.168,59.715,326.864,59.127,326.864z M59.127,335.231
		c0.647,0,1.129-0.344,1.445-1.031c0.317-0.688,0.476-1.739,0.476-3.152c0-0.752-0.046-1.431-0.137-2.037l-3.254,5.094
		C57.999,334.856,58.489,335.231,59.127,335.231z"/>
</g>
<g>
</g>
<g>
</g>
<g>
</g>
<g>
</g>
<g>
</g>
<g>
</g>
<g>
</g>
<g>
</g>
<g>
</g>
<g>
</g>
<g>
</g>
<g>
</g>
<g>
</g>
<g>
</g>
<g>
</g>
</svg>
