<?xml version="1.0" encoding="UTF-8"?>
<svg xmlns="http://www.w3.org/2000/svg"
     xmlns:map="http://www.w3.org/2005/xpath-functions/map"
     xmlns:djb="http://www.obdurodon.org"
     viewBox="-10 -110 240 150">
   <g>
      <line x1="0"
            y1="0"
            x2="200"
            y2="0"
            stroke="lightgray"
            stroke-width="0.5"/>
      <text x="-2"
            y="0"
            text-anchor="end"
            alignment-baseline="central"
            font-size="6">0</text>
      <line x1="0"
            y1="-10"
            x2="200"
            y2="-10"
            stroke="lightgray"
            stroke-width="0.5"/>
      <text x="-2"
            y="-10"
            text-anchor="end"
            alignment-baseline="central"
            font-size="6">10</text>
      <line x1="0"
            y1="-20"
            x2="200"
            y2="-20"
            stroke="lightgray"
            stroke-width="0.5"/>
      <text x="-2"
            y="-20"
            text-anchor="end"
            alignment-baseline="central"
            font-size="6">20</text>
      <line x1="0"
            y1="-30"
            x2="200"
            y2="-30"
            stroke="lightgray"
            stroke-width="0.5"/>
      <text x="-2"
            y="-30"
            text-anchor="end"
            alignment-baseline="central"
            font-size="6">30</text>
      <line x1="0"
            y1="-40"
            x2="200"
            y2="-40"
            stroke="lightgray"
            stroke-width="0.5"/>
      <text x="-2"
            y="-40"
            text-anchor="end"
            alignment-baseline="central"
            font-size="6">40</text>
      <line x1="0"
            y1="-50"
            x2="200"
            y2="-50"
            stroke="lightgray"
            stroke-width="0.5"/>
      <text x="-2"
            y="-50"
            text-anchor="end"
            alignment-baseline="central"
            font-size="6">50</text>
      <line x1="0"
            y1="-60"
            x2="200"
            y2="-60"
            stroke="lightgray"
            stroke-width="0.5"/>
      <text x="-2"
            y="-60"
            text-anchor="end"
            alignment-baseline="central"
            font-size="6">60</text>
      <line x1="0"
            y1="-70"
            x2="200"
            y2="-70"
            stroke="lightgray"
            stroke-width="0.5"/>
      <text x="-2"
            y="-70"
            text-anchor="end"
            alignment-baseline="central"
            font-size="6">70</text>
      <line x1="0"
            y1="-80"
            x2="200"
            y2="-80"
            stroke="lightgray"
            stroke-width="0.5"/>
      <text x="-2"
            y="-80"
            text-anchor="end"
            alignment-baseline="central"
            font-size="6">80</text>
      <line x1="0"
            y1="-90"
            x2="200"
            y2="-90"
            stroke="lightgray"
            stroke-width="0.5"/>
      <text x="-2"
            y="-90"
            text-anchor="end"
            alignment-baseline="central"
            font-size="6">90</text>
      <line x1="0"
            y1="-100"
            x2="200"
            y2="-100"
            stroke="lightgray"
            stroke-width="0.5"/>
      <text x="-2"
            y="-100"
            text-anchor="end"
            alignment-baseline="central"
            font-size="6">100</text>
      <line x1="0"
            y1="0"
            x2="0"
            y2="-100"
            stroke="lightgray"
            stroke-width="0.5"/>
      <text x="0" y="6" text-anchor="middle" font-size="6">0</text>
      <line x1="10"
            y1="0"
            x2="10"
            y2="-100"
            stroke="lightgray"
            stroke-width="0.5"/>
      <text x="10" y="6" text-anchor="middle" font-size="6">5</text>
      <line x1="20"
            y1="0"
            x2="20"
            y2="-100"
            stroke="lightgray"
            stroke-width="0.5"/>
      <text x="20" y="6" text-anchor="middle" font-size="6">10</text>
      <line x1="30"
            y1="0"
            x2="30"
            y2="-100"
            stroke="lightgray"
            stroke-width="0.5"/>
      <text x="30" y="6" text-anchor="middle" font-size="6">15</text>
      <line x1="40"
            y1="0"
            x2="40"
            y2="-100"
            stroke="lightgray"
            stroke-width="0.5"/>
      <text x="40" y="6" text-anchor="middle" font-size="6">20</text>
      <line x1="50"
            y1="0"
            x2="50"
            y2="-100"
            stroke="lightgray"
            stroke-width="0.5"/>
      <text x="50" y="6" text-anchor="middle" font-size="6">25</text>
      <line x1="60"
            y1="0"
            x2="60"
            y2="-100"
            stroke="lightgray"
            stroke-width="0.5"/>
      <text x="60" y="6" text-anchor="middle" font-size="6">30</text>
      <line x1="70"
            y1="0"
            x2="70"
            y2="-100"
            stroke="lightgray"
            stroke-width="0.5"/>
      <text x="70" y="6" text-anchor="middle" font-size="6">35</text>
      <line x1="80"
            y1="0"
            x2="80"
            y2="-100"
            stroke="lightgray"
            stroke-width="0.5"/>
      <text x="80" y="6" text-anchor="middle" font-size="6">40</text>
      <line x1="90"
            y1="0"
            x2="90"
            y2="-100"
            stroke="lightgray"
            stroke-width="0.5"/>
      <text x="90" y="6" text-anchor="middle" font-size="6">45</text>
      <line x1="100"
            y1="0"
            x2="100"
            y2="-100"
            stroke="lightgray"
            stroke-width="0.5"/>
      <text x="100" y="6" text-anchor="middle" font-size="6">50</text>
      <line x1="110"
            y1="0"
            x2="110"
            y2="-100"
            stroke="lightgray"
            stroke-width="0.5"/>
      <text x="110" y="6" text-anchor="middle" font-size="6">55</text>
      <line x1="120"
            y1="0"
            x2="120"
            y2="-100"
            stroke="lightgray"
            stroke-width="0.5"/>
      <text x="120" y="6" text-anchor="middle" font-size="6">60</text>
      <line x1="130"
            y1="0"
            x2="130"
            y2="-100"
            stroke="lightgray"
            stroke-width="0.5"/>
      <text x="130" y="6" text-anchor="middle" font-size="6">65</text>
      <line x1="140"
            y1="0"
            x2="140"
            y2="-100"
            stroke="lightgray"
            stroke-width="0.5"/>
      <text x="140" y="6" text-anchor="middle" font-size="6">70</text>
      <line x1="150"
            y1="0"
            x2="150"
            y2="-100"
            stroke="lightgray"
            stroke-width="0.5"/>
      <text x="150" y="6" text-anchor="middle" font-size="6">75</text>
      <line x1="160"
            y1="0"
            x2="160"
            y2="-100"
            stroke="lightgray"
            stroke-width="0.5"/>
      <text x="160" y="6" text-anchor="middle" font-size="6">80</text>
      <line x1="170"
            y1="0"
            x2="170"
            y2="-100"
            stroke="lightgray"
            stroke-width="0.5"/>
      <text x="170" y="6" text-anchor="middle" font-size="6">85</text>
      <line x1="180"
            y1="0"
            x2="180"
            y2="-100"
            stroke="lightgray"
            stroke-width="0.5"/>
      <text x="180" y="6" text-anchor="middle" font-size="6">90</text>
      <line x1="190"
            y1="0"
            x2="190"
            y2="-100"
            stroke="lightgray"
            stroke-width="0.5"/>
      <text x="190" y="6" text-anchor="middle" font-size="6">95</text>
      <line x1="200"
            y1="0"
            x2="200"
            y2="-100"
            stroke="lightgray"
            stroke-width="0.5"/>
      <text x="200" y="6" text-anchor="middle" font-size="6">100</text>
      <circle cx="2" cy="-0.16588601076628073" r="1" fill="black"/>
      <circle cx="2" cy="-11.177118448859634" r="1" fill="red"/>
      <circle cx="4" cy="-0.3211690267214129" r="1" fill="black"/>
      <circle cx="4" cy="-11.299405181726158" r="1" fill="red"/>
      <circle cx="6" cy="-1.7243052816637516" r="1" fill="black"/>
      <circle cx="6" cy="-12.448914455989145" r="1" fill="red"/>
      <circle cx="8" cy="-4.69012668350115" r="1" fill="black"/>
      <circle cx="8" cy="-15.148152627034959" r="1" fill="red"/>
      <circle cx="10" cy="-5.062550687361533" r="1" fill="black"/>
      <circle cx="10" cy="-15.513370659201344" r="1" fill="red"/>
      <circle cx="12" cy="-5.29613547411345" r="1" fill="black"/>
      <circle cx="12" cy="-15.745447075971503" r="1" fill="red"/>
      <circle cx="14" cy="-5.437752101563076" r="1" fill="black"/>
      <circle cx="14" cy="-15.887280166090763" r="1" fill="red"/>
      <circle cx="16" cy="-5.595844006473261" r="1" fill="black"/>
      <circle cx="16" cy="-16.046622460473568" r="1" fill="red"/>
      <circle cx="18" cy="-6.856869037714642" r="1" fill="black"/>
      <circle cx="18" cy="-17.35571293002795" r="1" fill="red"/>
      <circle cx="20" cy="-7.01106634200741" r="1" fill="black"/>
      <circle cx="20" cy="-17.52042756117314" r="1" fill="red"/>
      <circle cx="22" cy="-7.304981468726512" r="1" fill="black"/>
      <circle cx="22" cy="-17.837183682996713" r="1" fill="red"/>
      <circle cx="24" cy="-8.864810493622477" r="1" fill="black"/>
      <circle cx="24" cy="-19.579259584632794" r="1" fill="red"/>
      <circle cx="26" cy="-10.841052460778688" r="1" fill="black"/>
      <circle cx="26" cy="-21.93160268346282" r="1" fill="red"/>
      <circle cx="28" cy="-12.46801713526552" r="1" fill="black"/>
      <circle cx="28" cy="-23.98602454064328" r="1" fill="red"/>
      <circle cx="30" cy="-19.61574918583754" r="1" fill="black"/>
      <circle cx="30" cy="-34.1079894942063" r="1" fill="red"/>
      <circle cx="32" cy="-19.766842195069124" r="1" fill="black"/>
      <circle cx="32" cy="-34.33780909675729" r="1" fill="red"/>
      <circle cx="34" cy="-20.88606679137327" r="1" fill="black"/>
      <circle cx="34" cy="-36.0553293164327" r="1" fill="red"/>
      <circle cx="36" cy="-22.450882016948626" r="1" fill="black"/>
      <circle cx="36" cy="-38.49492197683401" r="1" fill="red"/>
      <circle cx="38" cy="-24.22894488575621" r="1" fill="black"/>
      <circle cx="38" cy="-41.30583237992569" r="1" fill="red"/>
      <circle cx="40" cy="-24.807149048695322" r="1" fill="black"/>
      <circle cx="40" cy="-42.225502680784075" r="1" fill="red"/>
      <circle cx="42" cy="-25.037841514455838" r="1" fill="black"/>
      <circle cx="42" cy="-42.592885492025154" r="1" fill="red"/>
      <circle cx="44" cy="-27.078019131463627" r="1" fill="black"/>
      <circle cx="44" cy="-45.844092137743594" r="1" fill="red"/>
      <circle cx="46" cy="-27.25384008212731" r="1" fill="black"/>
      <circle cx="46" cy="-46.123790405199614" r="1" fill="red"/>
      <circle cx="48" cy="-27.34456527324658" r="1" fill="black"/>
      <circle cx="48" cy="-46.26804677345737" r="1" fill="red"/>
      <circle cx="50" cy="-29.41982004655911" r="1" fill="black"/>
      <circle cx="50" cy="-49.54685942571349" r="1" fill="red"/>
      <circle cx="52" cy="-30.219615965842785" r="1" fill="black"/>
      <circle cx="52" cy="-50.79463659090312" r="1" fill="red"/>
      <circle cx="54" cy="-30.857347746438577" r="1" fill="black"/>
      <circle cx="54" cy="-51.78076530436571" r="1" fill="red"/>
      <circle cx="56" cy="-36.93483948676338" r="1" fill="black"/>
      <circle cx="56" cy="-60.543792245368074" r="1" fill="red"/>
      <circle cx="58" cy="-38.780277204183214" r="1" fill="black"/>
      <circle cx="58" cy="-62.87873217067269" r="1" fill="red"/>
      <circle cx="60" cy="-39.089250359185115" r="1" fill="black"/>
      <circle cx="60" cy="-63.250619537804205" r="1" fill="red"/>
      <circle cx="62" cy="-39.16100591447553" r="1" fill="black"/>
      <circle cx="62" cy="-63.336160308900844" r="1" fill="red"/>
      <circle cx="64" cy="-39.19461480670582" r="1" fill="black"/>
      <circle cx="64" cy="-63.37611781845173" r="1" fill="red"/>
      <circle cx="66" cy="-40.49076379523109" r="1" fill="black"/>
      <circle cx="66" cy="-64.86278453511159" r="1" fill="red"/>
      <circle cx="68" cy="-42.313010400244245" r="1" fill="black"/>
      <circle cx="68" cy="-66.76159966825584" r="1" fill="red"/>
      <circle cx="70" cy="-43.64670491241442" r="1" fill="black"/>
      <circle cx="70" cy="-67.99762368316432" r="1" fill="red"/>
      <circle cx="72" cy="-44.2856958531627" r="1" fill="black"/>
      <circle cx="72" cy="-68.54094890180845" r="1" fill="red"/>
      <circle cx="74" cy="-47.20898704726132" r="1" fill="black"/>
      <circle cx="74" cy="-70.59639470865193" r="1" fill="red"/>
      <circle cx="76" cy="-47.65803193080836" r="1" fill="black"/>
      <circle cx="76" cy="-70.84681829024824" r="1" fill="red"/>
      <circle cx="78" cy="-48.794090667541326" r="1" fill="black"/>
      <circle cx="78" cy="-71.39957921856599" r="1" fill="red"/>
      <circle cx="80" cy="-50.50953667031271" r="1" fill="black"/>
      <circle cx="80" cy="-72.00995490552747" r="1" fill="red"/>
      <circle cx="82" cy="-53.33484169161199" r="1" fill="black"/>
      <circle cx="82" cy="-72.41191131276977" r="1" fill="red"/>
      <circle cx="84" cy="-54.12675365989871" r="1" fill="black"/>
      <circle cx="84" cy="-72.38821750190569" r="1" fill="red"/>
      <circle cx="86" cy="-54.133420081861836" r="1" fill="black"/>
      <circle cx="86" cy="-72.38776414943315" r="1" fill="red"/>
      <circle cx="88" cy="-55.12394144602194" r="1" fill="black"/>
      <circle cx="88" cy="-72.27338116920389" r="1" fill="red"/>
      <circle cx="90" cy="-55.60635736607703" r="1" fill="black"/>
      <circle cx="90" cy="-72.18393335521652" r="1" fill="red"/>
      <circle cx="92" cy="-55.631829017137036" r="1" fill="black"/>
      <circle cx="92" cy="-72.17859829770002" r="1" fill="red"/>
      <circle cx="94" cy="-55.95297744736052" r="1" fill="black"/>
      <circle cx="94" cy="-72.1060782291112" r="1" fill="red"/>
      <circle cx="96" cy="-56.52744134857619" r="1" fill="black"/>
      <circle cx="96" cy="-71.95214061063623" r="1" fill="red"/>
      <circle cx="98" cy="-57.93680837842173" r="1" fill="black"/>
      <circle cx="98" cy="-71.44412337940955" r="1" fill="red"/>
      <circle cx="100" cy="-58.01844395525196" r="1" fill="black"/>
      <circle cx="100" cy="-71.40907988288033" r="1" fill="red"/>
      <circle cx="102" cy="-58.568175498089005" r="1" fill="black"/>
      <circle cx="102" cy="-71.15726966673412" r="1" fill="red"/>
      <circle cx="104" cy="-59.06813953584656" r="1" fill="black"/>
      <circle cx="104" cy="-70.90450343656994" r="1" fill="red"/>
      <circle cx="106" cy="-62.87798049918938" r="1" fill="black"/>
      <circle cx="106" cy="-68.26503842916476" r="1" fill="red"/>
      <circle cx="108" cy="-63.20793572803773" r="1" fill="black"/>
      <circle cx="108" cy="-67.97990842098302" r="1" fill="red"/>
      <circle cx="110" cy="-63.68220917227584" r="1" fill="black"/>
      <circle cx="110" cy="-67.5551704178155" r="1" fill="red"/>
      <circle cx="112" cy="-64.07502457441066" r="1" fill="black"/>
      <circle cx="112" cy="-67.19031112748542" r="1" fill="red"/>
      <circle cx="114" cy="-64.44850026406102" r="1" fill="black"/>
      <circle cx="114" cy="-66.83263844395654" r="1" fill="red"/>
      <circle cx="116" cy="-65.02994362405803" r="1" fill="black"/>
      <circle cx="116" cy="-66.25533945955628" r="1" fill="red"/>
      <circle cx="118" cy="-65.22232062017854" r="1" fill="black"/>
      <circle cx="118" cy="-66.0589536204603" r="1" fill="red"/>
      <circle cx="120" cy="-65.58926942242765" r="1" fill="black"/>
      <circle cx="120" cy="-65.67708808117074" r="1" fill="red"/>
      <circle cx="122" cy="-65.90241856448922" r="1" fill="black"/>
      <circle cx="122" cy="-65.34378493508586" r="1" fill="red"/>
      <circle cx="124" cy="-65.93022417287415" r="1" fill="black"/>
      <circle cx="124" cy="-65.31386366347725" r="1" fill="red"/>
      <circle cx="126" cy="-66.14540700062948" r="1" fill="black"/>
      <circle cx="126" cy="-65.08052863878116" r="1" fill="red"/>
      <circle cx="128" cy="-67.28591583545338" r="1" fill="black"/>
      <circle cx="128" cy="-63.79263077111354" r="1" fill="red"/>
      <circle cx="130" cy="-67.48675763048251" r="1" fill="black"/>
      <circle cx="130" cy="-63.55720449638207" r="1" fill="red"/>
      <circle cx="132" cy="-67.95492778085473" r="1" fill="black"/>
      <circle cx="132" cy="-62.9987810689505" r="1" fill="red"/>
      <circle cx="134" cy="-69.26857065383106" r="1" fill="black"/>
      <circle cx="134" cy="-61.36324067579467" r="1" fill="red"/>
      <circle cx="136" cy="-69.78314157988082" r="1" fill="black"/>
      <circle cx="136" cy="-60.696577628829715" r="1" fill="red"/>
      <circle cx="138" cy="-70.72132611999427" r="1" fill="black"/>
      <circle cx="138" cy="-59.44626695263254" r="1" fill="red"/>
      <circle cx="140" cy="-70.98953190789142" r="1" fill="black"/>
      <circle cx="140" cy="-59.08099120405248" r="1" fill="red"/>
      <circle cx="142" cy="-72.14769657997661" r="1" fill="black"/>
      <circle cx="142" cy="-57.46666969592497" r="1" fill="red"/>
      <circle cx="144" cy="-72.17877698789435" r="1" fill="black"/>
      <circle cx="144" cy="-57.42256254999899" r="1" fill="red"/>
      <circle cx="146" cy="-73.3038717919703" r="1" fill="black"/>
      <circle cx="146" cy="-55.80064721002919" r="1" fill="red"/>
      <circle cx="148" cy="-74.25299767509398" r="1" fill="black"/>
      <circle cx="148" cy="-54.39747125856355" r="1" fill="red"/>
      <circle cx="150" cy="-75.89526443676588" r="1" fill="black"/>
      <circle cx="150" cy="-51.906637825806605" r="1" fill="red"/>
      <circle cx="152" cy="-76.9041914706463" r="1" fill="black"/>
      <circle cx="152" cy="-50.34447841020004" r="1" fill="red"/>
      <circle cx="154" cy="-77.27921590528709" r="1" fill="black"/>
      <circle cx="154" cy="-49.75885615204417" r="1" fill="red"/>
      <circle cx="156" cy="-77.46779360690583" r="1" fill="black"/>
      <circle cx="156" cy="-49.46349597330773" r="1" fill="red"/>
      <circle cx="158" cy="-78.77220205239894" r="1" fill="black"/>
      <circle cx="158" cy="-47.40703849117524" r="1" fill="red"/>
      <circle cx="160" cy="-79.42063225813317" r="1" fill="black"/>
      <circle cx="160" cy="-46.37808651120338" r="1" fill="red"/>
      <circle cx="162" cy="-79.42734563733217" r="1" fill="black"/>
      <circle cx="162" cy="-46.3674167590924" r="1" fill="red"/>
      <circle cx="164" cy="-79.4365131903029" r="1" fill="black"/>
      <circle cx="164" cy="-46.35284604122848" r="1" fill="red"/>
      <circle cx="166" cy="-80.064772227834" r="1" fill="black"/>
      <circle cx="166" cy="-45.35316707372915" r="1" fill="red"/>
      <circle cx="168" cy="-81.15242308791511" r="1" fill="black"/>
      <circle cx="168" cy="-43.61953703041533" r="1" fill="red"/>
      <circle cx="170" cy="-82.01412620791527" r="1" fill="black"/>
      <circle cx="170" cy="-42.246438661783024" r="1" fill="red"/>
      <circle cx="172" cy="-82.24917998666321" r="1" fill="black"/>
      <circle cx="172" cy="-41.87233545111372" r="1" fill="red"/>
      <circle cx="174" cy="-83.01545846858271" r="1" fill="black"/>
      <circle cx="174" cy="-40.655044392912465" r="1" fill="red"/>
      <circle cx="176" cy="-85.85742956637318" r="1" fill="black"/>
      <circle cx="176" cy="-36.19595772323658" r="1" fill="red"/>
      <circle cx="178" cy="-86.54853916440646" r="1" fill="black"/>
      <circle cx="178" cy="-35.131108310089" r="1" fill="red"/>
      <circle cx="180" cy="-87.01634412998473" r="1" fill="black"/>
      <circle cx="180" cy="-34.415862027141756" r="1" fill="red"/>
      <circle cx="182" cy="-87.0208529718166" r="1" fill="black"/>
      <circle cx="182" cy="-34.40899132291665" r="1" fill="red"/>
      <circle cx="184" cy="-87.19684751072288" r="1" fill="black"/>
      <circle cx="184" cy="-34.14116004751281" r="1" fill="red"/>
      <circle cx="186" cy="-87.85340631514325" r="1" fill="black"/>
      <circle cx="186" cy="-33.1483224145242" r="1" fill="red"/>
      <circle cx="188" cy="-91.68952461411182" r="1" fill="black"/>
      <circle cx="188" cy="-27.58319530787594" r="1" fill="red"/>
      <circle cx="190" cy="-91.80969295819239" r="1" fill="black"/>
      <circle cx="190" cy="-27.416260511443124" r="1" fill="red"/>
      <circle cx="192" cy="-92.37614840528666" r="1" fill="black"/>
      <circle cx="192" cy="-26.636032114904232" r="1" fill="red"/>
      <circle cx="194" cy="-93.54779422477945" r="1" fill="black"/>
      <circle cx="194" cy="-25.058321820935586" r="1" fill="red"/>
      <circle cx="196" cy="-94.78432520435275" r="1" fill="black"/>
      <circle cx="196" cy="-23.448429787511557" r="1" fill="red"/>
      <circle cx="198" cy="-95.96921263050308" r="1" fill="black"/>
      <circle cx="198" cy="-21.96134486817006" r="1" fill="red"/>
      <circle cx="200" cy="-96.76409336042379" r="1" fill="black"/>
      <circle cx="200" cy="-20.99518457604345" r="1" fill="red"/>
      <text x="100" y="15" text-anchor="middle" font-size="6">mean: 53.42; stddev: 27.55</text>
   </g>
</svg>
