<?xml version="1.0" encoding="UTF-8"?>
<svg xmlns="http://www.w3.org/2000/svg" viewBox="0 -210 525 300">
   <style type="text/css">
                
                .regression {
                    stroke: red;
                    stroke-width: 0.5;
                }</style>
   <g>
      <line x1="25"
            y1="-10"
            x2="500"
            y2="-10"
            stroke="lightgray"
            stroke-width=".5"/>
      <text x="22.5"
            y="-10"
            text-anchor="end"
            font-size="6"
            alignment-baseline="central">10</text>
      <line x1="25"
            y1="-20"
            x2="500"
            y2="-20"
            stroke="lightgray"
            stroke-width=".5"/>
      <text x="22.5"
            y="-20"
            text-anchor="end"
            font-size="6"
            alignment-baseline="central">20</text>
      <line x1="25"
            y1="-30"
            x2="500"
            y2="-30"
            stroke="lightgray"
            stroke-width=".5"/>
      <text x="22.5"
            y="-30"
            text-anchor="end"
            font-size="6"
            alignment-baseline="central">30</text>
      <line x1="25"
            y1="-40"
            x2="500"
            y2="-40"
            stroke="lightgray"
            stroke-width=".5"/>
      <text x="22.5"
            y="-40"
            text-anchor="end"
            font-size="6"
            alignment-baseline="central">40</text>
      <line x1="25"
            y1="-50"
            x2="500"
            y2="-50"
            stroke="lightgray"
            stroke-width=".5"/>
      <text x="22.5"
            y="-50"
            text-anchor="end"
            font-size="6"
            alignment-baseline="central">50</text>
      <line x1="25"
            y1="-60"
            x2="500"
            y2="-60"
            stroke="lightgray"
            stroke-width=".5"/>
      <text x="22.5"
            y="-60"
            text-anchor="end"
            font-size="6"
            alignment-baseline="central">60</text>
      <line x1="25"
            y1="-70"
            x2="500"
            y2="-70"
            stroke="lightgray"
            stroke-width=".5"/>
      <text x="22.5"
            y="-70"
            text-anchor="end"
            font-size="6"
            alignment-baseline="central">70</text>
      <line x1="25"
            y1="-80"
            x2="500"
            y2="-80"
            stroke="lightgray"
            stroke-width=".5"/>
      <text x="22.5"
            y="-80"
            text-anchor="end"
            font-size="6"
            alignment-baseline="central">80</text>
      <line x1="25"
            y1="-90"
            x2="500"
            y2="-90"
            stroke="lightgray"
            stroke-width=".5"/>
      <text x="22.5"
            y="-90"
            text-anchor="end"
            font-size="6"
            alignment-baseline="central">90</text>
      <line x1="25"
            y1="-100"
            x2="500"
            y2="-100"
            stroke="lightgray"
            stroke-width=".5"/>
      <text x="22.5"
            y="-100"
            text-anchor="end"
            font-size="6"
            alignment-baseline="central">100</text>
      <line x1="25"
            y1="-110"
            x2="500"
            y2="-110"
            stroke="lightgray"
            stroke-width=".5"/>
      <text x="22.5"
            y="-110"
            text-anchor="end"
            font-size="6"
            alignment-baseline="central">110</text>
      <line x1="25"
            y1="-120"
            x2="500"
            y2="-120"
            stroke="lightgray"
            stroke-width=".5"/>
      <text x="22.5"
            y="-120"
            text-anchor="end"
            font-size="6"
            alignment-baseline="central">120</text>
      <line x1="25"
            y1="-130"
            x2="500"
            y2="-130"
            stroke="lightgray"
            stroke-width=".5"/>
      <text x="22.5"
            y="-130"
            text-anchor="end"
            font-size="6"
            alignment-baseline="central">130</text>
      <line x1="25"
            y1="-140"
            x2="500"
            y2="-140"
            stroke="lightgray"
            stroke-width=".5"/>
      <text x="22.5"
            y="-140"
            text-anchor="end"
            font-size="6"
            alignment-baseline="central">140</text>
      <line x1="25"
            y1="-150"
            x2="500"
            y2="-150"
            stroke="lightgray"
            stroke-width=".5"/>
      <text x="22.5"
            y="-150"
            text-anchor="end"
            font-size="6"
            alignment-baseline="central">150</text>
      <line x1="25"
            y1="-160"
            x2="500"
            y2="-160"
            stroke="lightgray"
            stroke-width=".5"/>
      <text x="22.5"
            y="-160"
            text-anchor="end"
            font-size="6"
            alignment-baseline="central">160</text>
      <line x1="25"
            y1="-170"
            x2="500"
            y2="-170"
            stroke="lightgray"
            stroke-width=".5"/>
      <text x="22.5"
            y="-170"
            text-anchor="end"
            font-size="6"
            alignment-baseline="central">170</text>
      <line x1="25"
            y1="-180"
            x2="500"
            y2="-180"
            stroke="lightgray"
            stroke-width=".5"/>
      <text x="22.5"
            y="-180"
            text-anchor="end"
            font-size="6"
            alignment-baseline="central">180</text>
      <line x1="25"
            y1="-190"
            x2="500"
            y2="-190"
            stroke="lightgray"
            stroke-width=".5"/>
      <text x="22.5"
            y="-190"
            text-anchor="end"
            font-size="6"
            alignment-baseline="central">190</text>
      <line x1="25"
            y1="-200"
            x2="500"
            y2="-200"
            stroke="lightgray"
            stroke-width=".5"/>
      <text x="22.5"
            y="-200"
            text-anchor="end"
            font-size="6"
            alignment-baseline="central">200</text>
      <line x1="25"
            y1="0"
            x2="25"
            y2="-200"
            stroke="lightgray"
            stroke-width=".5"/>
      <text x="25" y="5" font-size="6" text-anchor="middle">1,145</text>
      <line x1="50"
            y1="0"
            x2="50"
            y2="-200"
            stroke="lightgray"
            stroke-width=".5"/>
      <text x="50" y="5" font-size="6" text-anchor="middle">2,14</text>
      <line x1="75"
            y1="0"
            x2="75"
            y2="-200"
            stroke="lightgray"
            stroke-width=".5"/>
      <text x="75" y="5" font-size="6" text-anchor="middle">3,61</text>
      <line x1="100"
            y1="0"
            x2="100"
            y2="-200"
            stroke="lightgray"
            stroke-width=".5"/>
      <text x="100" y="5" font-size="6" text-anchor="middle">4,135</text>
      <line x1="125"
            y1="0"
            x2="125"
            y2="-200"
            stroke="lightgray"
            stroke-width=".5"/>
      <text x="125" y="5" font-size="6" text-anchor="middle">5,16</text>
      <line x1="150"
            y1="0"
            x2="150"
            y2="-200"
            stroke="lightgray"
            stroke-width=".5"/>
      <text x="150" y="5" font-size="6" text-anchor="middle">6,15</text>
      <line x1="175"
            y1="0"
            x2="175"
            y2="-200"
            stroke="lightgray"
            stroke-width=".5"/>
      <text x="175" y="5" font-size="6" text-anchor="middle">7,24</text>
      <line x1="200"
            y1="0"
            x2="200"
            y2="-200"
            stroke="lightgray"
            stroke-width=".5"/>
      <text x="200" y="5" font-size="6" text-anchor="middle">8,149</text>
      <line x1="225"
            y1="0"
            x2="225"
            y2="-200"
            stroke="lightgray"
            stroke-width=".5"/>
      <text x="225" y="5" font-size="6" text-anchor="middle">9,36</text>
      <line x1="250"
            y1="0"
            x2="250"
            y2="-200"
            stroke="lightgray"
            stroke-width=".5"/>
      <text x="250" y="5" font-size="6" text-anchor="middle">10,74</text>
      <line x1="275"
            y1="0"
            x2="275"
            y2="-200"
            stroke="lightgray"
            stroke-width=".5"/>
      <text x="275" y="5" font-size="6" text-anchor="middle">11,29</text>
      <line x1="300"
            y1="0"
            x2="300"
            y2="-200"
            stroke="lightgray"
            stroke-width=".5"/>
      <text x="300" y="5" font-size="6" text-anchor="middle">12,183</text>
      <line x1="325"
            y1="0"
            x2="325"
            y2="-200"
            stroke="lightgray"
            stroke-width=".5"/>
      <text x="325" y="5" font-size="6" text-anchor="middle">13,107</text>
      <line x1="350"
            y1="0"
            x2="350"
            y2="-200"
            stroke="lightgray"
            stroke-width=".5"/>
      <text x="350" y="5" font-size="6" text-anchor="middle">14,189</text>
      <line x1="375"
            y1="0"
            x2="375"
            y2="-200"
            stroke="lightgray"
            stroke-width=".5"/>
      <text x="375" y="5" font-size="6" text-anchor="middle">15,153</text>
      <line x1="400"
            y1="0"
            x2="400"
            y2="-200"
            stroke="lightgray"
            stroke-width=".5"/>
      <text x="400" y="5" font-size="6" text-anchor="middle">16,190</text>
      <line x1="425"
            y1="0"
            x2="425"
            y2="-200"
            stroke="lightgray"
            stroke-width=".5"/>
      <text x="425" y="5" font-size="6" text-anchor="middle">17,169</text>
      <line x1="450"
            y1="0"
            x2="450"
            y2="-200"
            stroke="lightgray"
            stroke-width=".5"/>
      <text x="450" y="5" font-size="6" text-anchor="middle">18,79</text>
      <line x1="475"
            y1="0"
            x2="475"
            y2="-200"
            stroke="lightgray"
            stroke-width=".5"/>
      <text x="475" y="5" font-size="6" text-anchor="middle">19,20</text>
      <line x1="500"
            y1="0"
            x2="500"
            y2="-200"
            stroke="lightgray"
            stroke-width=".5"/>
      <text x="500" y="5" font-size="6" text-anchor="middle">20,143</text>
      <polyline points="25,-145 50,-14 75,-61 100,-135 125,-16 150,-15 175,-24 200,-149 225,-36 250,-74 275,-29 300,-183 325,-107 350,-189 375,-153 400,-190 425,-169 450,-79 475,-20 500,-143"
                stroke="black"
                stroke-width="1"
                fill="none"/>
      <polyline points="25,-79.5 50,-73.33333333333333 75,-70 100,-70.66666666666667 125,-55.333333333333336 150,-18.333333333333332 175,-62.666666666666664 200,-69.66666666666667 225,-86.33333333333333 250,-46.333333333333336 275,-95.33333333333333 300,-106.33333333333333 325,-159.66666666666666 350,-149.66666666666666 375,-177.33333333333334 400,-170.66666666666666 425,-146 450,-89.33333333333333 475,-80.66666666666667 500,-102.75"
                stroke="orange"
                stroke-width=".5"
                fill="none"/>
      <polyline points="25,-88.75 50,-88.75 75,-74.2 100,-48.2 125,-50.2 150,-67.8 175,-48 200,-59.6 225,-62.4 250,-94.2 275,-85.8 300,-116.4 325,-132.2 350,-164.4 375,-161.6 400,-156 425,-122.2 450,-120.2 475,-125.66666666666667 500,-125.66666666666667"
                stroke="blue"
                stroke-width=".5"
                fill="none"/>
      <polyline points="25,-64.33333333333333 50,-64.33333333333333 75,-64.33333333333333 100,-58.57142857142857 125,-59.142857142857146 150,-62.285714285714285 175,-64.14285714285714 200,-49 225,-72.85714285714286 250,-86 275,-109.57142857142857 300,-110.14285714285714 325,-132.14285714285714 350,-145.71428571428572 375,-152.85714285714286 400,-129.57142857142858 425,-134.71428571428572 450,-131.25 475,-131.25 500,-131.25"
                stroke="green"
                stroke-width=".5"
                fill="none"/>
      <polyline points="25,-69.875 50,-69.875 75,-69.875 100,-69.875 125,-66.11111111111111 150,-58.22222222222222 175,-59.888888888888886 200,-73.44444444444444 225,-70.33333333333333 250,-89.55555555555556 275,-104.88888888888889 300,-123.33333333333333 325,-125.55555555555556 350,-130.33333333333334 375,-124.33333333333333 400,-137 425,-126.2 450,-126.2 475,-126.2 500,-126.2"
                stroke="fuchsia"
                stroke-width=".5"
                fill="none"/>
      <g>
         <line x1="25"
               y1="-54.921052631578945"
               x2="500"
               y2="-134.21428571428572"
               class="regression"/>
      </g>
      <text x="250" y="25" text-anchor="middle" font-size="8">black = actual, <tspan fill="orange">orange = 3</tspan>, <tspan fill="blue">blue = 5</tspan>, <tspan fill="green">green = 7</tspan>, <tspan fill="fuchsia">fuchsia = 9</tspan>, <tspan fill="red">red =
                        regression</tspan>
      </text>
   </g>
</svg>
