<?xml version="1.0" encoding="UTF-8"?>
<svg xmlns="http://www.w3.org/2000/svg"
     xmlns:djb="http://www.obdurodon.org"
     xmlns:f="http://www.obdurodon.org/function-variables"
     viewBox="0 -150 500 150">
   <g>
      <circle cx="50" cy="-182" r="2" fill="green"/>
      <circle cx="100" cy="-166" r="2" fill="green"/>
      <circle cx="150" cy="-87" r="2" fill="green"/>
      <circle cx="200" cy="-191" r="2" fill="green"/>
      <circle cx="250" cy="-106" r="2" fill="green"/>
      <circle cx="300" cy="-73" r="2" fill="green"/>
      <circle cx="350" cy="-60" r="2" fill="green"/>
      <circle cx="400" cy="-186" r="2" fill="green"/>
      <circle cx="450" cy="-118" r="2" fill="green"/>
      <polyline points="50,-182 100,-166 150,-87 200,-191 250,-106 300,-73 350,-60 400,-186 450,-118"
                stroke="green"
                stroke-width="0.5"
                fill="none"/>
   </g>
   <g>
      <circle cx="50" cy="-146.39269215417212" r="2" fill="red"/>
      <circle cx="100" cy="-145.14046352967915" r="2" fill="red"/>
      <circle cx="150" cy="-147.5919868899796" r="2" fill="red"/>
      <circle cx="200" cy="-128.42139058903746" r="2" fill="red"/>
      <circle cx="250" cy="-123.21739518185211" r="2" fill="red"/>
      <circle cx="300" cy="-79.62207506994312" r="2" fill="red"/>
      <circle cx="350" cy="-106.02342173610471" r="2" fill="red"/>
      <circle cx="400" cy="-121.76587182155168" r="2" fill="red"/>
      <circle cx="450" cy="-122.51647913005985" r="2" fill="red"/>
      <polyline points="50,-146.39269215417212 100,-145.14046352967915 150,-147.5919868899796 200,-128.42139058903746 250,-123.21739518185211 300,-79.62207506994312 350,-106.02342173610471 400,-121.76587182155168 450,-122.51647913005985"
                stroke="red"
                stroke-width="0.5"
                fill="none"/>
   </g>
</svg>
