<?xml version="1.0" encoding="UTF-8"?>
<svg xmlns="http://www.w3.org/2000/svg" viewBox="-10 -110 120 120">
   <line x1="0"
         y1="0"
         x2="100"
         y2="0"
         stroke="lightgray"
         stroke-width="0.5"
         stroke-linecap="square"/>
   <line x1="0"
         y1="-100"
         x2="0"
         y2="0"
         stroke="lightgray"
         stroke-width="0.5"
         stroke-linecap="square"/>
   <circle cx="-10" cy="-4.35" r="0.25" fill="blue"/>
   <circle cx="-9" cy="-4.08" r="0.25" fill="blue"/>
   <circle cx="-8" cy="-3.84" r="0.25" fill="blue"/>
   <circle cx="-7" cy="-3.63" r="0.25" fill="blue"/>
   <circle cx="-6" cy="-3.45" r="0.25" fill="blue"/>
   <circle cx="-5" cy="-3.3" r="0.25" fill="blue"/>
   <circle cx="-4" cy="-3.18" r="0.25" fill="blue"/>
   <circle cx="-3" cy="-3.09" r="0.25" fill="blue"/>
   <circle cx="-2" cy="-3.03" r="0.25" fill="blue"/>
   <circle cx="-1" cy="-3" r="0.25" fill="blue"/>
   <circle cx="0" cy="-3" r="0.25" fill="blue"/>
   <circle cx="1" cy="-3.03" r="0.25" fill="blue"/>
   <circle cx="2" cy="-3.09" r="0.25" fill="blue"/>
   <circle cx="3" cy="-3.18" r="0.25" fill="blue"/>
   <circle cx="4" cy="-3.3" r="0.25" fill="blue"/>
   <circle cx="5" cy="-3.45" r="0.25" fill="blue"/>
   <circle cx="6" cy="-3.63" r="0.25" fill="blue"/>
   <circle cx="7" cy="-3.84" r="0.25" fill="blue"/>
   <circle cx="8" cy="-4.08" r="0.25" fill="blue"/>
   <circle cx="9" cy="-4.35" r="0.25" fill="blue"/>
   <circle cx="10" cy="-4.65" r="0.25" fill="blue"/>
   <circle cx="11" cy="-4.98" r="0.25" fill="blue"/>
   <circle cx="12" cy="-5.34" r="0.25" fill="blue"/>
   <circle cx="13" cy="-5.7299999999999995" r="0.25" fill="blue"/>
   <circle cx="14" cy="-6.15" r="0.25" fill="blue"/>
   <circle cx="15" cy="-6.6" r="0.25" fill="blue"/>
   <circle cx="16" cy="-7.08" r="0.25" fill="blue"/>
   <circle cx="17" cy="-7.59" r="0.25" fill="blue"/>
   <circle cx="18" cy="-8.129999999999999" r="0.25" fill="blue"/>
   <circle cx="19" cy="-8.7" r="0.25" fill="blue"/>
   <circle cx="20" cy="-9.3" r="0.25" fill="blue"/>
   <circle cx="21" cy="-9.93" r="0.25" fill="blue"/>
   <circle cx="22" cy="-10.59" r="0.25" fill="blue"/>
   <circle cx="23" cy="-11.28" r="0.25" fill="blue"/>
   <circle cx="24" cy="-12" r="0.25" fill="blue"/>
   <circle cx="25" cy="-12.75" r="0.25" fill="blue"/>
   <circle cx="26" cy="-13.53" r="0.25" fill="blue"/>
   <circle cx="27" cy="-14.339999999999998" r="0.25" fill="blue"/>
   <circle cx="28" cy="-15.18" r="0.25" fill="blue"/>
   <circle cx="29" cy="-16.05" r="0.25" fill="blue"/>
   <circle cx="30" cy="-16.95" r="0.25" fill="blue"/>
   <circle cx="31" cy="-17.88" r="0.25" fill="blue"/>
   <circle cx="32" cy="-18.84" r="0.25" fill="blue"/>
   <circle cx="33" cy="-19.830000000000002" r="0.25" fill="blue"/>
   <circle cx="34" cy="-20.85" r="0.25" fill="blue"/>
   <circle cx="35" cy="-21.9" r="0.25" fill="blue"/>
   <circle cx="36" cy="-22.979999999999997" r="0.25" fill="blue"/>
   <circle cx="37" cy="-24.09" r="0.25" fill="blue"/>
   <circle cx="38" cy="-25.23" r="0.25" fill="blue"/>
   <circle cx="39" cy="-26.4" r="0.25" fill="blue"/>
   <circle cx="40" cy="-27.6" r="0.25" fill="blue"/>
   <circle cx="41" cy="-28.83" r="0.25" fill="blue"/>
   <circle cx="42" cy="-30.089999999999996" r="0.25" fill="blue"/>
   <circle cx="43" cy="-31.38" r="0.25" fill="blue"/>
   <circle cx="44" cy="-32.7" r="0.25" fill="blue"/>
   <circle cx="45" cy="-34.05" r="0.25" fill="blue"/>
   <circle cx="46" cy="-35.43" r="0.25" fill="blue"/>
   <circle cx="47" cy="-36.839999999999996" r="0.25" fill="blue"/>
   <circle cx="48" cy="-38.28" r="0.25" fill="blue"/>
   <circle cx="49" cy="-39.75" r="0.25" fill="blue"/>
   <circle cx="50" cy="-41.25" r="0.25" fill="blue"/>
   <circle cx="51" cy="-42.78" r="0.25" fill="blue"/>
   <circle cx="52" cy="-44.339999999999996" r="0.25" fill="blue"/>
   <circle cx="53" cy="-45.93" r="0.25" fill="blue"/>
   <circle cx="54" cy="-47.55" r="0.25" fill="blue"/>
   <circle cx="55" cy="-49.2" r="0.25" fill="blue"/>
   <circle cx="56" cy="-50.88" r="0.25" fill="blue"/>
   <circle cx="57" cy="-52.589999999999996" r="0.25" fill="blue"/>
   <circle cx="58" cy="-54.33" r="0.25" fill="blue"/>
   <circle cx="59" cy="-56.099999999999994" r="0.25" fill="blue"/>
   <circle cx="60" cy="-57.9" r="0.25" fill="blue"/>
   <circle cx="61" cy="-59.73" r="0.25" fill="blue"/>
   <circle cx="62" cy="-61.589999999999996" r="0.25" fill="blue"/>
   <circle cx="63" cy="-63.48" r="0.25" fill="blue"/>
   <circle cx="64" cy="-65.4" r="0.25" fill="blue"/>
   <circle cx="65" cy="-67.35" r="0.25" fill="blue"/>
   <circle cx="66" cy="-69.33" r="0.25" fill="blue"/>
   <circle cx="67" cy="-71.33999999999999" r="0.25" fill="blue"/>
   <circle cx="68" cy="-73.38" r="0.25" fill="blue"/>
   <circle cx="69" cy="-75.44999999999999" r="0.25" fill="blue"/>
   <circle cx="70" cy="-77.55" r="0.25" fill="blue"/>
   <circle cx="71" cy="-79.67999999999999" r="0.25" fill="blue"/>
   <circle cx="72" cy="-81.83999999999999" r="0.25" fill="blue"/>
   <circle cx="73" cy="-84.03" r="0.25" fill="blue"/>
   <circle cx="74" cy="-86.25" r="0.25" fill="blue"/>
   <circle cx="75" cy="-88.5" r="0.25" fill="blue"/>
   <circle cx="76" cy="-90.78" r="0.25" fill="blue"/>
   <circle cx="77" cy="-93.09" r="0.25" fill="blue"/>
   <circle cx="78" cy="-95.42999999999999" r="0.25" fill="blue"/>
   <circle cx="79" cy="-97.8" r="0.25" fill="blue"/>
   <circle cx="80" cy="-100.2" r="0.25" fill="blue"/>
   <circle cx="81" cy="-102.63" r="0.25" fill="blue"/>
   <circle cx="82" cy="-105.09" r="0.25" fill="blue"/>
   <circle cx="83" cy="-107.58" r="0.25" fill="blue"/>
   <circle cx="84" cy="-110.1" r="0.25" fill="blue"/>
   <circle cx="85" cy="-112.65" r="0.25" fill="blue"/>
   <circle cx="86" cy="-115.23" r="0.25" fill="blue"/>
   <circle cx="87" cy="-117.84" r="0.25" fill="blue"/>
   <circle cx="88" cy="-120.47999999999999" r="0.25" fill="blue"/>
   <circle cx="89" cy="-123.14999999999999" r="0.25" fill="blue"/>
   <circle cx="90" cy="-125.85" r="0.25" fill="blue"/>
   <circle cx="91" cy="-128.57999999999998" r="0.25" fill="blue"/>
   <circle cx="92" cy="-131.34" r="0.25" fill="blue"/>
   <circle cx="93" cy="-134.13" r="0.25" fill="blue"/>
   <circle cx="94" cy="-136.95" r="0.25" fill="blue"/>
   <circle cx="95" cy="-139.8" r="0.25" fill="blue"/>
   <circle cx="96" cy="-142.68" r="0.25" fill="blue"/>
   <circle cx="97" cy="-145.59" r="0.25" fill="blue"/>
   <circle cx="98" cy="-148.53" r="0.25" fill="blue"/>
   <circle cx="99" cy="-151.5" r="0.25" fill="blue"/>
   <circle cx="100" cy="-154.5" r="0.25" fill="blue"/>
   <line x1="5"
         y1="-110"
         x2="5"
         y2="10"
         stroke="lightblue"
         stroke-width="0.25"/>
   <line x1="66"
         y1="-110"
         x2="66"
         y2="10"
         stroke="lightblue"
         stroke-width="0.25"/>
   <line x1="-0.5"
         y1="-110"
         x2="-0.5"
         y2="10"
         stroke="pink"
         stroke-width="0.25"/>
   <path d="M5,-3.45 Q35.5,-8.4825 66,-69.33"
         stroke="red"
         stroke-width="1"
         stroke-opacity="0.5"
         fill="none"/>
</svg>
