<?xml version="1.0" encoding="UTF-8"?>
<svg xmlns="http://www.w3.org/2000/svg" viewBox="-10 -110 120 120">
   <line x1="0"
         y1="0"
         x2="100"
         y2="0"
         stroke="lightgray"
         stroke-width="0.5"
         stroke-linecap="square"/>
   <line x1="0"
         y1="-100"
         x2="0"
         y2="0"
         stroke="lightgray"
         stroke-width="0.5"
         stroke-linecap="square"/>
   <circle cx="-10" cy="-6.75" r="0.25" fill="blue"/>
   <circle cx="-9" cy="-5.824999999999999" r="0.25" fill="blue"/>
   <circle cx="-8" cy="-5" r="0.25" fill="blue"/>
   <circle cx="-7" cy="-4.275" r="0.25" fill="blue"/>
   <circle cx="-6" cy="-3.65" r="0.25" fill="blue"/>
   <circle cx="-5" cy="-3.125" r="0.25" fill="blue"/>
   <circle cx="-4" cy="-2.7" r="0.25" fill="blue"/>
   <circle cx="-3" cy="-2.375" r="0.25" fill="blue"/>
   <circle cx="-2" cy="-2.15" r="0.25" fill="blue"/>
   <circle cx="-1" cy="-2.025" r="0.25" fill="blue"/>
   <circle cx="0" cy="-2" r="0.25" fill="blue"/>
   <circle cx="1" cy="-2.075" r="0.25" fill="blue"/>
   <circle cx="2" cy="-2.25" r="0.25" fill="blue"/>
   <circle cx="3" cy="-2.525" r="0.25" fill="blue"/>
   <circle cx="4" cy="-2.9" r="0.25" fill="blue"/>
   <circle cx="5" cy="-3.375" r="0.25" fill="blue"/>
   <circle cx="6" cy="-3.95" r="0.25" fill="blue"/>
   <circle cx="7" cy="-4.625" r="0.25" fill="blue"/>
   <circle cx="8" cy="-5.4" r="0.25" fill="blue"/>
   <circle cx="9" cy="-6.2749999999999995" r="0.25" fill="blue"/>
   <circle cx="10" cy="-7.25" r="0.25" fill="blue"/>
   <circle cx="11" cy="-8.325000000000001" r="0.25" fill="blue"/>
   <circle cx="12" cy="-9.5" r="0.25" fill="blue"/>
   <circle cx="13" cy="-10.775" r="0.25" fill="blue"/>
   <circle cx="14" cy="-12.15" r="0.25" fill="blue"/>
   <circle cx="15" cy="-13.625" r="0.25" fill="blue"/>
   <circle cx="16" cy="-15.200000000000001" r="0.25" fill="blue"/>
   <circle cx="17" cy="-16.875" r="0.25" fill="blue"/>
   <circle cx="18" cy="-18.65" r="0.25" fill="blue"/>
   <circle cx="19" cy="-20.525000000000002" r="0.25" fill="blue"/>
   <circle cx="20" cy="-22.5" r="0.25" fill="blue"/>
   <circle cx="21" cy="-24.575" r="0.25" fill="blue"/>
   <circle cx="22" cy="-26.750000000000004" r="0.25" fill="blue"/>
   <circle cx="23" cy="-29.025000000000002" r="0.25" fill="blue"/>
   <circle cx="24" cy="-31.400000000000002" r="0.25" fill="blue"/>
   <circle cx="25" cy="-33.875" r="0.25" fill="blue"/>
   <circle cx="26" cy="-36.45" r="0.25" fill="blue"/>
   <circle cx="27" cy="-39.125" r="0.25" fill="blue"/>
   <circle cx="28" cy="-41.900000000000006" r="0.25" fill="blue"/>
   <circle cx="29" cy="-44.775000000000006" r="0.25" fill="blue"/>
   <circle cx="30" cy="-47.75" r="0.25" fill="blue"/>
   <circle cx="31" cy="-50.825" r="0.25" fill="blue"/>
   <circle cx="32" cy="-54" r="0.25" fill="blue"/>
   <circle cx="33" cy="-57.275000000000006" r="0.25" fill="blue"/>
   <circle cx="34" cy="-60.650000000000006" r="0.25" fill="blue"/>
   <circle cx="35" cy="-64.125" r="0.25" fill="blue"/>
   <circle cx="36" cy="-67.7" r="0.25" fill="blue"/>
   <circle cx="37" cy="-71.375" r="0.25" fill="blue"/>
   <circle cx="38" cy="-75.15" r="0.25" fill="blue"/>
   <circle cx="39" cy="-79.02499999999999" r="0.25" fill="blue"/>
   <circle cx="40" cy="-83" r="0.25" fill="blue"/>
   <circle cx="41" cy="-87.07500000000002" r="0.25" fill="blue"/>
   <circle cx="42" cy="-91.25" r="0.25" fill="blue"/>
   <circle cx="43" cy="-95.525" r="0.25" fill="blue"/>
   <circle cx="44" cy="-99.9" r="0.25" fill="blue"/>
   <circle cx="45" cy="-104.375" r="0.25" fill="blue"/>
   <circle cx="46" cy="-108.95000000000002" r="0.25" fill="blue"/>
   <circle cx="47" cy="-113.625" r="0.25" fill="blue"/>
   <circle cx="48" cy="-118.4" r="0.25" fill="blue"/>
   <circle cx="49" cy="-123.275" r="0.25" fill="blue"/>
   <circle cx="50" cy="-128.25" r="0.25" fill="blue"/>
   <circle cx="51" cy="-133.32500000000002" r="0.25" fill="blue"/>
   <circle cx="52" cy="-138.50000000000003" r="0.25" fill="blue"/>
   <circle cx="53" cy="-143.775" r="0.25" fill="blue"/>
   <circle cx="54" cy="-149.15" r="0.25" fill="blue"/>
   <circle cx="55" cy="-154.625" r="0.25" fill="blue"/>
   <circle cx="56" cy="-160.20000000000002" r="0.25" fill="blue"/>
   <circle cx="57" cy="-165.87500000000003" r="0.25" fill="blue"/>
   <circle cx="58" cy="-171.65" r="0.25" fill="blue"/>
   <circle cx="59" cy="-177.525" r="0.25" fill="blue"/>
   <circle cx="60" cy="-183.5" r="0.25" fill="blue"/>
   <circle cx="61" cy="-189.57500000000002" r="0.25" fill="blue"/>
   <circle cx="62" cy="-195.75000000000003" r="0.25" fill="blue"/>
   <circle cx="63" cy="-202.025" r="0.25" fill="blue"/>
   <circle cx="64" cy="-208.4" r="0.25" fill="blue"/>
   <circle cx="65" cy="-214.875" r="0.25" fill="blue"/>
   <circle cx="66" cy="-221.45000000000002" r="0.25" fill="blue"/>
   <circle cx="67" cy="-228.12500000000003" r="0.25" fill="blue"/>
   <circle cx="68" cy="-234.9" r="0.25" fill="blue"/>
   <circle cx="69" cy="-241.775" r="0.25" fill="blue"/>
   <circle cx="70" cy="-248.75" r="0.25" fill="blue"/>
   <circle cx="71" cy="-255.82500000000002" r="0.25" fill="blue"/>
   <circle cx="72" cy="-263" r="0.25" fill="blue"/>
   <circle cx="73" cy="-270.275" r="0.25" fill="blue"/>
   <circle cx="74" cy="-277.65000000000003" r="0.25" fill="blue"/>
   <circle cx="75" cy="-285.125" r="0.25" fill="blue"/>
   <circle cx="76" cy="-292.7" r="0.25" fill="blue"/>
   <circle cx="77" cy="-300.375" r="0.25" fill="blue"/>
   <circle cx="78" cy="-308.15" r="0.25" fill="blue"/>
   <circle cx="79" cy="-316.02500000000003" r="0.25" fill="blue"/>
   <circle cx="80" cy="-324" r="0.25" fill="blue"/>
   <circle cx="81" cy="-332.075" r="0.25" fill="blue"/>
   <circle cx="82" cy="-340.25000000000006" r="0.25" fill="blue"/>
   <circle cx="83" cy="-348.52500000000003" r="0.25" fill="blue"/>
   <circle cx="84" cy="-356.90000000000003" r="0.25" fill="blue"/>
   <circle cx="85" cy="-365.375" r="0.25" fill="blue"/>
   <circle cx="86" cy="-373.95" r="0.25" fill="blue"/>
   <circle cx="87" cy="-382.62500000000006" r="0.25" fill="blue"/>
   <circle cx="88" cy="-391.40000000000003" r="0.25" fill="blue"/>
   <circle cx="89" cy="-400.27500000000003" r="0.25" fill="blue"/>
   <circle cx="90" cy="-409.25" r="0.25" fill="blue"/>
   <circle cx="91" cy="-418.325" r="0.25" fill="blue"/>
   <circle cx="92" cy="-427.50000000000006" r="0.25" fill="blue"/>
   <circle cx="93" cy="-436.77500000000003" r="0.25" fill="blue"/>
   <circle cx="94" cy="-446.15000000000003" r="0.25" fill="blue"/>
   <circle cx="95" cy="-455.625" r="0.25" fill="blue"/>
   <circle cx="96" cy="-465.2" r="0.25" fill="blue"/>
   <circle cx="97" cy="-474.87500000000006" r="0.25" fill="blue"/>
   <circle cx="98" cy="-484.65000000000003" r="0.25" fill="blue"/>
   <circle cx="99" cy="-494.52500000000003" r="0.25" fill="blue"/>
   <circle cx="100" cy="-504.5" r="0.25" fill="blue"/>
   <line x1="5"
         y1="-110"
         x2="5"
         y2="10"
         stroke="lightblue"
         stroke-width="0.25"/>
   <line x1="36"
         y1="-110"
         x2="36"
         y2="10"
         stroke="lightblue"
         stroke-width="0.25"/>
   <line x1="-0.25"
         y1="-110"
         x2="-0.25"
         y2="10"
         stroke="pink"
         stroke-width="0.25"/>
   <path d="M5,-3.375 Q20.5,-11.512500000000001 36,-67.7"
         stroke="red"
         stroke-width="1"
         stroke-opacity="0.5"
         fill="none"/>
</svg>
