<?xml version="1.0" encoding="UTF-8"?>
<svg xmlns="http://www.w3.org/2000/svg" viewBox="-10 -110 240 150">
   <g>
      <line x1="0"
            y1="0"
            x2="200"
            y2="0"
            stroke="lightgray"
            stroke-width="0.5"/>
      <text x="-2"
            y="0"
            text-anchor="end"
            alignment-baseline="central"
            font-size="6">0</text>
      <line x1="0"
            y1="-10"
            x2="200"
            y2="-10"
            stroke="lightgray"
            stroke-width="0.5"/>
      <text x="-2"
            y="-10"
            text-anchor="end"
            alignment-baseline="central"
            font-size="6">10</text>
      <line x1="0"
            y1="-20"
            x2="200"
            y2="-20"
            stroke="lightgray"
            stroke-width="0.5"/>
      <text x="-2"
            y="-20"
            text-anchor="end"
            alignment-baseline="central"
            font-size="6">20</text>
      <line x1="0"
            y1="-30"
            x2="200"
            y2="-30"
            stroke="lightgray"
            stroke-width="0.5"/>
      <text x="-2"
            y="-30"
            text-anchor="end"
            alignment-baseline="central"
            font-size="6">30</text>
      <line x1="0"
            y1="-40"
            x2="200"
            y2="-40"
            stroke="lightgray"
            stroke-width="0.5"/>
      <text x="-2"
            y="-40"
            text-anchor="end"
            alignment-baseline="central"
            font-size="6">40</text>
      <line x1="0"
            y1="-50"
            x2="200"
            y2="-50"
            stroke="lightgray"
            stroke-width="0.5"/>
      <text x="-2"
            y="-50"
            text-anchor="end"
            alignment-baseline="central"
            font-size="6">50</text>
      <line x1="0"
            y1="-60"
            x2="200"
            y2="-60"
            stroke="lightgray"
            stroke-width="0.5"/>
      <text x="-2"
            y="-60"
            text-anchor="end"
            alignment-baseline="central"
            font-size="6">60</text>
      <line x1="0"
            y1="-70"
            x2="200"
            y2="-70"
            stroke="lightgray"
            stroke-width="0.5"/>
      <text x="-2"
            y="-70"
            text-anchor="end"
            alignment-baseline="central"
            font-size="6">70</text>
      <line x1="0"
            y1="-80"
            x2="200"
            y2="-80"
            stroke="lightgray"
            stroke-width="0.5"/>
      <text x="-2"
            y="-80"
            text-anchor="end"
            alignment-baseline="central"
            font-size="6">80</text>
      <line x1="0"
            y1="-90"
            x2="200"
            y2="-90"
            stroke="lightgray"
            stroke-width="0.5"/>
      <text x="-2"
            y="-90"
            text-anchor="end"
            alignment-baseline="central"
            font-size="6">90</text>
      <line x1="0"
            y1="-100"
            x2="200"
            y2="-100"
            stroke="lightgray"
            stroke-width="0.5"/>
      <text x="-2"
            y="-100"
            text-anchor="end"
            alignment-baseline="central"
            font-size="6">100</text>
      <line x1="0"
            y1="0"
            x2="0"
            y2="-100"
            stroke="lightgray"
            stroke-width="0.5"/>
      <text x="0" y="6" text-anchor="middle" font-size="6">0</text>
      <line x1="10"
            y1="0"
            x2="10"
            y2="-100"
            stroke="lightgray"
            stroke-width="0.5"/>
      <text x="10" y="6" text-anchor="middle" font-size="6">5</text>
      <line x1="20"
            y1="0"
            x2="20"
            y2="-100"
            stroke="lightgray"
            stroke-width="0.5"/>
      <text x="20" y="6" text-anchor="middle" font-size="6">10</text>
      <line x1="30"
            y1="0"
            x2="30"
            y2="-100"
            stroke="lightgray"
            stroke-width="0.5"/>
      <text x="30" y="6" text-anchor="middle" font-size="6">15</text>
      <line x1="40"
            y1="0"
            x2="40"
            y2="-100"
            stroke="lightgray"
            stroke-width="0.5"/>
      <text x="40" y="6" text-anchor="middle" font-size="6">20</text>
      <line x1="50"
            y1="0"
            x2="50"
            y2="-100"
            stroke="lightgray"
            stroke-width="0.5"/>
      <text x="50" y="6" text-anchor="middle" font-size="6">25</text>
      <line x1="60"
            y1="0"
            x2="60"
            y2="-100"
            stroke="lightgray"
            stroke-width="0.5"/>
      <text x="60" y="6" text-anchor="middle" font-size="6">30</text>
      <line x1="70"
            y1="0"
            x2="70"
            y2="-100"
            stroke="lightgray"
            stroke-width="0.5"/>
      <text x="70" y="6" text-anchor="middle" font-size="6">35</text>
      <line x1="80"
            y1="0"
            x2="80"
            y2="-100"
            stroke="lightgray"
            stroke-width="0.5"/>
      <text x="80" y="6" text-anchor="middle" font-size="6">40</text>
      <line x1="90"
            y1="0"
            x2="90"
            y2="-100"
            stroke="lightgray"
            stroke-width="0.5"/>
      <text x="90" y="6" text-anchor="middle" font-size="6">45</text>
      <line x1="100"
            y1="0"
            x2="100"
            y2="-100"
            stroke="lightgray"
            stroke-width="0.5"/>
      <text x="100" y="6" text-anchor="middle" font-size="6">50</text>
      <line x1="110"
            y1="0"
            x2="110"
            y2="-100"
            stroke="lightgray"
            stroke-width="0.5"/>
      <text x="110" y="6" text-anchor="middle" font-size="6">55</text>
      <line x1="120"
            y1="0"
            x2="120"
            y2="-100"
            stroke="lightgray"
            stroke-width="0.5"/>
      <text x="120" y="6" text-anchor="middle" font-size="6">60</text>
      <line x1="130"
            y1="0"
            x2="130"
            y2="-100"
            stroke="lightgray"
            stroke-width="0.5"/>
      <text x="130" y="6" text-anchor="middle" font-size="6">65</text>
      <line x1="140"
            y1="0"
            x2="140"
            y2="-100"
            stroke="lightgray"
            stroke-width="0.5"/>
      <text x="140" y="6" text-anchor="middle" font-size="6">70</text>
      <line x1="150"
            y1="0"
            x2="150"
            y2="-100"
            stroke="lightgray"
            stroke-width="0.5"/>
      <text x="150" y="6" text-anchor="middle" font-size="6">75</text>
      <line x1="160"
            y1="0"
            x2="160"
            y2="-100"
            stroke="lightgray"
            stroke-width="0.5"/>
      <text x="160" y="6" text-anchor="middle" font-size="6">80</text>
      <line x1="170"
            y1="0"
            x2="170"
            y2="-100"
            stroke="lightgray"
            stroke-width="0.5"/>
      <text x="170" y="6" text-anchor="middle" font-size="6">85</text>
      <line x1="180"
            y1="0"
            x2="180"
            y2="-100"
            stroke="lightgray"
            stroke-width="0.5"/>
      <text x="180" y="6" text-anchor="middle" font-size="6">90</text>
      <line x1="190"
            y1="0"
            x2="190"
            y2="-100"
            stroke="lightgray"
            stroke-width="0.5"/>
      <text x="190" y="6" text-anchor="middle" font-size="6">95</text>
      <line x1="200"
            y1="0"
            x2="200"
            y2="-100"
            stroke="lightgray"
            stroke-width="0.5"/>
      <text x="200" y="6" text-anchor="middle" font-size="6">100</text>
      <circle cx="2" cy="-0.22415603300827147" r="1" fill="black"/>
      <circle cx="2" cy="-17.543724108675942" r="1" fill="red"/>
      <circle cx="4" cy="-2.0080184701358195" r="1" fill="black"/>
      <circle cx="4" cy="-19.29045659572897" r="1" fill="red"/>
      <circle cx="6" cy="-2.263086966444716" r="1" fill="black"/>
      <circle cx="6" cy="-19.54842535425178" r="1" fill="red"/>
      <circle cx="8" cy="-2.509398295238363" r="1" fill="black"/>
      <circle cx="8" cy="-19.799460579082133" r="1" fill="red"/>
      <circle cx="10" cy="-2.801728794765934" r="1" fill="black"/>
      <circle cx="10" cy="-20.099836315822397" r="1" fill="red"/>
      <circle cx="12" cy="-3.746579213647594" r="1" fill="black"/>
      <circle cx="12" cy="-21.088591476196815" r="1" fill="red"/>
      <circle cx="14" cy="-5.044229641314136" r="1" fill="black"/>
      <circle cx="14" cy="-22.49012046298552" r="1" fill="red"/>
      <circle cx="16" cy="-5.474153638310753" r="1" fill="black"/>
      <circle cx="16" cy="-22.9652840168443" r="1" fill="red"/>
      <circle cx="18" cy="-5.559562859227196" r="1" fill="black"/>
      <circle cx="18" cy="-23.060308632675145" r="1" fill="red"/>
      <circle cx="20" cy="-6.0290336492685" r="1" fill="black"/>
      <circle cx="20" cy="-23.58630321335097" r="1" fill="red"/>
      <circle cx="22" cy="-6.099788441485277" r="1" fill="black"/>
      <circle cx="22" cy="-23.666110916114167" r="1" fill="red"/>
      <circle cx="24" cy="-7.407522062707239" r="1" fill="black"/>
      <circle cx="24" cy="-25.165690477546814" r="1" fill="red"/>
      <circle cx="26" cy="-7.516076693758878" r="1" fill="black"/>
      <circle cx="26" cy="-25.292213374952066" r="1" fill="red"/>
      <circle cx="28" cy="-8.069076286464504" r="1" fill="black"/>
      <circle cx="28" cy="-25.941447137045067" r="1" fill="red"/>
      <circle cx="30" cy="-9.141840707999183" r="1" fill="black"/>
      <circle cx="30" cy="-27.22256700854709" r="1" fill="red"/>
      <circle cx="32" cy="-11.563610287272175" r="1" fill="black"/>
      <circle cx="32" cy="-30.210629771370243" r="1" fill="red"/>
      <circle cx="34" cy="-13.572978668598278" r="1" fill="black"/>
      <circle cx="34" cy="-32.7757464767982" r="1" fill="red"/>
      <circle cx="36" cy="-15.992492934762591" r="1" fill="black"/>
      <circle cx="36" cy="-35.94177176000304" r="1" fill="red"/>
      <circle cx="38" cy="-16.555812641834667" r="1" fill="black"/>
      <circle cx="38" cy="-36.6876857547957" r="1" fill="red"/>
      <circle cx="40" cy="-18.614229163675798" r="1" fill="black"/>
      <circle cx="40" cy="-39.429692794327956" r="1" fill="red"/>
      <circle cx="42" cy="-18.972432163809707" r="1" fill="black"/>
      <circle cx="42" cy="-39.90828720774205" r="1" fill="red"/>
      <circle cx="44" cy="-20.130184669390673" r="1" fill="black"/>
      <circle cx="44" cy="-41.45504702984589" r="1" fill="red"/>
      <circle cx="46" cy="-20.662517931689283" r="1" fill="black"/>
      <circle cx="46" cy="-42.16527011582173" r="1" fill="red"/>
      <circle cx="48" cy="-23.4563319419135" r="1" fill="black"/>
      <circle cx="48" cy="-45.86113578170465" r="1" fill="red"/>
      <circle cx="50" cy="-23.48822749914885" r="1" fill="black"/>
      <circle cx="50" cy="-45.90286321761092" r="1" fill="red"/>
      <circle cx="52" cy="-24.6528437473168" r="1" fill="black"/>
      <circle cx="52" cy="-47.41625439803425" r="1" fill="red"/>
      <circle cx="54" cy="-25.467239779281346" r="1" fill="black"/>
      <circle cx="54" cy="-48.460936066928554" r="1" fill="red"/>
      <circle cx="56" cy="-27.49802501848595" r="1" fill="black"/>
      <circle cx="56" cy="-51.00430612960638" r="1" fill="red"/>
      <circle cx="58" cy="-27.673956184909954" r="1" fill="black"/>
      <circle cx="58" cy="-51.219845220515424" r="1" fill="red"/>
      <circle cx="60" cy="-28.989749398327447" r="1" fill="black"/>
      <circle cx="60" cy="-52.80374165697129" r="1" fill="red"/>
      <circle cx="62" cy="-30.290743093751836" r="1" fill="black"/>
      <circle cx="62" cy="-54.315753733778486" r="1" fill="red"/>
      <circle cx="64" cy="-32.27862023650964" r="1" fill="black"/>
      <circle cx="64" cy="-56.50570297459443" r="1" fill="red"/>
      <circle cx="66" cy="-33.82256635134413" r="1" fill="black"/>
      <circle cx="66" cy="-58.092123674046775" r="1" fill="red"/>
      <circle cx="68" cy="-34.28826313548809" r="1" fill="black"/>
      <circle cx="68" cy="-58.54904869433065" r="1" fill="red"/>
      <circle cx="70" cy="-35.006225281032535" r="1" fill="black"/>
      <circle cx="70" cy="-59.232732166507546" r="1" fill="red"/>
      <circle cx="72" cy="-36.4319193349187" r="1" fill="black"/>
      <circle cx="72" cy="-60.51189212766708" r="1" fill="red"/>
      <circle cx="74" cy="-37.568736080444666" r="1" fill="black"/>
      <circle cx="74" cy="-61.452684848662386" r="1" fill="red"/>
      <circle cx="76" cy="-38.08422007630471" r="1" fill="black"/>
      <circle cx="76" cy="-61.854985922962065" r="1" fill="red"/>
      <circle cx="78" cy="-38.57255679911597" r="1" fill="black"/>
      <circle cx="78" cy="-62.22168187235932" r="1" fill="red"/>
      <circle cx="80" cy="-38.88884615619224" r="1" fill="black"/>
      <circle cx="80" cy="-62.45156692757968" r="1" fill="red"/>
      <circle cx="82" cy="-40.94228968487864" r="1" fill="black"/>
      <circle cx="82" cy="-63.79317366239873" r="1" fill="red"/>
      <circle cx="84" cy="-40.95704162699461" r="1" fill="black"/>
      <circle cx="84" cy="-63.801840233414666" r="1" fill="red"/>
      <circle cx="86" cy="-41.440967370685996" r="1" fill="black"/>
      <circle cx="86" cy="-64.07825319906578" r="1" fill="red"/>
      <circle cx="88" cy="-43.739804344704694" r="1" fill="black"/>
      <circle cx="88" cy="-65.17709048950192" r="1" fill="red"/>
      <circle cx="90" cy="-44.22519203003271" r="1" fill="black"/>
      <circle cx="90" cy="-65.36270025629894" r="1" fill="red"/>
      <circle cx="92" cy="-44.44199789847646" r="1" fill="black"/>
      <circle cx="92" cy="-65.44027402488936" r="1" fill="red"/>
      <circle cx="94" cy="-45.6679371302824" r="1" fill="black"/>
      <circle cx="94" cy="-65.81633145686212" r="1" fill="red"/>
      <circle cx="96" cy="-46.29899176354718" r="1" fill="black"/>
      <circle cx="96" cy="-65.96804137896595" r="1" fill="red"/>
      <circle cx="98" cy="-46.61267840943994" r="1" fill="black"/>
      <circle cx="98" cy="-66.03277546470858" r="1" fill="red"/>
      <circle cx="100" cy="-47.367032383933946" r="1" fill="black"/>
      <circle cx="100" cy="-66.15926341579822" r="1" fill="red"/>
      <circle cx="102" cy="-47.46730281961524" r="1" fill="black"/>
      <circle cx="102" cy="-66.17296288631755" r="1" fill="red"/>
      <circle cx="104" cy="-47.510365136749186" r="1" fill="black"/>
      <circle cx="104" cy="-66.17862156554483" r="1" fill="red"/>
      <circle cx="106" cy="-48.40673031229341" r="1" fill="black"/>
      <circle cx="106" cy="-66.2656953830898" r="1" fill="red"/>
      <circle cx="108" cy="-48.80223289831377" r="1" fill="black"/>
      <circle cx="108" cy="-66.28544425979496" r="1" fill="red"/>
      <circle cx="110" cy="-49.46177022855187" r="1" fill="black"/>
      <circle cx="110" cy="-66.2929093762379" r="1" fill="red"/>
      <circle cx="112" cy="-51.241377192435436" r="1" fill="black"/>
      <circle cx="112" cy="-66.15427529796537" r="1" fill="red"/>
      <circle cx="114" cy="-51.670642867738295" r="1" fill="black"/>
      <circle cx="114" cy="-66.0862619872993" r="1" fill="red"/>
      <circle cx="116" cy="-52.18188521770778" r="1" fill="black"/>
      <circle cx="116" cy="-65.98782596356587" r="1" fill="red"/>
      <circle cx="118" cy="-52.74583055619987" r="1" fill="black"/>
      <circle cx="118" cy="-65.85735488562186" r="1" fill="red"/>
      <circle cx="120" cy="-55.911705826928014" r="1" fill="black"/>
      <circle cx="120" cy="-64.7063365393208" r="1" fill="red"/>
      <circle cx="122" cy="-58.739590622378316" r="1" fill="black"/>
      <circle cx="122" cy="-63.101756512725345" r="1" fill="red"/>
      <circle cx="124" cy="-59.517797287772154" r="1" fill="black"/>
      <circle cx="124" cy="-62.57016568201554" r="1" fill="red"/>
      <circle cx="126" cy="-60.78588518062106" r="1" fill="black"/>
      <circle cx="126" cy="-61.625137366059185" r="1" fill="red"/>
      <circle cx="128" cy="-62.7845920282036" r="1" fill="black"/>
      <circle cx="128" cy="-59.94795247472216" r="1" fill="red"/>
      <circle cx="130" cy="-62.876987361671134" r="1" fill="black"/>
      <circle cx="130" cy="-59.865145582405475" r="1" fill="red"/>
      <circle cx="132" cy="-63.910369087236504" r="1" fill="black"/>
      <circle cx="132" cy="-58.90890054605734" r="1" fill="red"/>
      <circle cx="134" cy="-65.01213602738343" r="1" fill="black"/>
      <circle cx="134" cy="-57.831010028826576" r="1" fill="red"/>
      <circle cx="136" cy="-65.96433891239157" r="1" fill="black"/>
      <circle cx="136" cy="-56.85390040021087" r="1" fill="red"/>
      <circle cx="138" cy="-66.33541403505177" r="1" fill="black"/>
      <circle cx="138" cy="-56.46229096728206" r="1" fill="red"/>
      <circle cx="140" cy="-70.22358039911705" r="1" fill="black"/>
      <circle cx="140" cy="-52.039549817018845" r="1" fill="red"/>
      <circle cx="142" cy="-70.39867247781235" r="1" fill="black"/>
      <circle cx="142" cy="-51.82837961767114" r="1" fill="red"/>
      <circle cx="144" cy="-71.55668703786482" r="1" fill="black"/>
      <circle cx="144" cy="-50.41016803299384" r="1" fill="red"/>
      <circle cx="146" cy="-71.82983103697227" r="1" fill="black"/>
      <circle cx="146" cy="-50.07053587922638" r="1" fill="red"/>
      <circle cx="148" cy="-73.7192847396622" r="1" fill="black"/>
      <circle cx="148" cy="-47.675280939227406" r="1" fill="red"/>
      <circle cx="150" cy="-75.89606296653808" r="1" fill="black"/>
      <circle cx="150" cy="-44.83776158212155" r="1" fill="red"/>
      <circle cx="152" cy="-78.2580609827805" r="1" fill="black"/>
      <circle cx="152" cy="-41.70188348011666" r="1" fill="red"/>
      <circle cx="154" cy="-78.78609473227489" r="1" fill="black"/>
      <circle cx="154" cy="-40.99683482823947" r="1" fill="red"/>
      <circle cx="156" cy="-80.84460177503873" r="1" fill="black"/>
      <circle cx="156" cy="-38.247582261375086" r="1" fill="red"/>
      <circle cx="158" cy="-81.9329509717567" r="1" fill="black"/>
      <circle cx="158" cy="-36.799668934336644" r="1" fill="red"/>
      <circle cx="160" cy="-82.94440925389415" r="1" fill="black"/>
      <circle cx="160" cy="-35.46161470884769" r="1" fill="red"/>
      <circle cx="162" cy="-84.06345550074687" r="1" fill="black"/>
      <circle cx="162" cy="-33.9930609146728" r="1" fill="red"/>
      <circle cx="164" cy="-84.5221303984348" r="1" fill="black"/>
      <circle cx="164" cy="-33.39549810706745" r="1" fill="red"/>
      <circle cx="166" cy="-85.69458429254966" r="1" fill="black"/>
      <circle cx="166" cy="-31.881641253253534" r="1" fill="red"/>
      <circle cx="168" cy="-85.7458250006068" r="1" fill="black"/>
      <circle cx="168" cy="-31.815966395317417" r="1" fill="red"/>
      <circle cx="170" cy="-85.77311539877529" r="1" fill="black"/>
      <circle cx="170" cy="-31.781006097645225" r="1" fill="red"/>
      <circle cx="172" cy="-86.65026027427672" r="1" fill="black"/>
      <circle cx="172" cy="-30.664132325323724" r="1" fill="red"/>
      <circle cx="174" cy="-87.25368570496518" r="1" fill="black"/>
      <circle cx="174" cy="-29.903901536187206" r="1" fill="red"/>
      <circle cx="176" cy="-87.43315432813141" r="1" fill="black"/>
      <circle cx="176" cy="-29.679151059874595" r="1" fill="red"/>
      <circle cx="178" cy="-88.20048771730791" r="1" fill="black"/>
      <circle cx="178" cy="-28.72557812020372" r="1" fill="red"/>
      <circle cx="180" cy="-91.05960906272655" r="1" fill="black"/>
      <circle cx="180" cy="-25.289280134780164" r="1" fill="red"/>
      <circle cx="182" cy="-92.86625575265973" r="1" fill="black"/>
      <circle cx="182" cy="-23.224736501306626" r="1" fill="red"/>
      <circle cx="184" cy="-93.5007078334121" r="1" fill="black"/>
      <circle cx="184" cy="-22.521163270919672" r="1" fill="red"/>
      <circle cx="186" cy="-93.96799232296148" r="1" fill="black"/>
      <circle cx="186" cy="-22.01037760131481" r="1" fill="red"/>
      <circle cx="188" cy="-95.82883710814816" r="1" fill="black"/>
      <circle cx="188" cy="-20.040654810160312" r="1" fill="red"/>
      <circle cx="190" cy="-97.08401429199384" r="1" fill="black"/>
      <circle cx="190" cy="-18.77199061742893" r="1" fill="red"/>
      <circle cx="192" cy="-97.46753212747683" r="1" fill="black"/>
      <circle cx="192" cy="-18.39422615224816" r="1" fill="red"/>
      <circle cx="194" cy="-98.25074485501368" r="1" fill="black"/>
      <circle cx="194" cy="-17.637309120609014" r="1" fill="red"/>
      <circle cx="196" cy="-98.62853005098883" r="1" fill="black"/>
      <circle cx="196" cy="-17.279237238331184" r="1" fill="red"/>
      <circle cx="198" cy="-99.0166881813553" r="1" fill="black"/>
      <circle cx="198" cy="-16.91612618581623" r="1" fill="red"/>
      <circle cx="200" cy="-99.8222894020516" r="1" fill="black"/>
      <circle cx="200" cy="-16.178083115554028" r="1" fill="red"/>
      <text x="100" y="15" text-anchor="middle" font-size="6">mean: 49.29; stddev: 30.09</text>
   </g>
</svg>
