<?xml version="1.0" encoding="UTF-8"?>
<svg xmlns="http://www.w3.org/2000/svg" viewBox="-10 -110 240 150">
   <g>
      <line x1="0"
            y1="0"
            x2="200"
            y2="0"
            stroke="lightgray"
            stroke-width="0.5"/>
      <text x="-2"
            y="0"
            text-anchor="end"
            alignment-baseline="central"
            font-size="6">0</text>
      <line x1="0"
            y1="-10"
            x2="200"
            y2="-10"
            stroke="lightgray"
            stroke-width="0.5"/>
      <text x="-2"
            y="-10"
            text-anchor="end"
            alignment-baseline="central"
            font-size="6">10</text>
      <line x1="0"
            y1="-20"
            x2="200"
            y2="-20"
            stroke="lightgray"
            stroke-width="0.5"/>
      <text x="-2"
            y="-20"
            text-anchor="end"
            alignment-baseline="central"
            font-size="6">20</text>
      <line x1="0"
            y1="-30"
            x2="200"
            y2="-30"
            stroke="lightgray"
            stroke-width="0.5"/>
      <text x="-2"
            y="-30"
            text-anchor="end"
            alignment-baseline="central"
            font-size="6">30</text>
      <line x1="0"
            y1="-40"
            x2="200"
            y2="-40"
            stroke="lightgray"
            stroke-width="0.5"/>
      <text x="-2"
            y="-40"
            text-anchor="end"
            alignment-baseline="central"
            font-size="6">40</text>
      <line x1="0"
            y1="-50"
            x2="200"
            y2="-50"
            stroke="lightgray"
            stroke-width="0.5"/>
      <text x="-2"
            y="-50"
            text-anchor="end"
            alignment-baseline="central"
            font-size="6">50</text>
      <line x1="0"
            y1="-60"
            x2="200"
            y2="-60"
            stroke="lightgray"
            stroke-width="0.5"/>
      <text x="-2"
            y="-60"
            text-anchor="end"
            alignment-baseline="central"
            font-size="6">60</text>
      <line x1="0"
            y1="-70"
            x2="200"
            y2="-70"
            stroke="lightgray"
            stroke-width="0.5"/>
      <text x="-2"
            y="-70"
            text-anchor="end"
            alignment-baseline="central"
            font-size="6">70</text>
      <line x1="0"
            y1="-80"
            x2="200"
            y2="-80"
            stroke="lightgray"
            stroke-width="0.5"/>
      <text x="-2"
            y="-80"
            text-anchor="end"
            alignment-baseline="central"
            font-size="6">80</text>
      <line x1="0"
            y1="-90"
            x2="200"
            y2="-90"
            stroke="lightgray"
            stroke-width="0.5"/>
      <text x="-2"
            y="-90"
            text-anchor="end"
            alignment-baseline="central"
            font-size="6">90</text>
      <line x1="0"
            y1="-100"
            x2="200"
            y2="-100"
            stroke="lightgray"
            stroke-width="0.5"/>
      <text x="-2"
            y="-100"
            text-anchor="end"
            alignment-baseline="central"
            font-size="6">100</text>
      <line x1="0"
            y1="0"
            x2="0"
            y2="-100"
            stroke="lightgray"
            stroke-width="0.5"/>
      <text x="0" y="6" text-anchor="middle" font-size="6">0</text>
      <line x1="10"
            y1="0"
            x2="10"
            y2="-100"
            stroke="lightgray"
            stroke-width="0.5"/>
      <text x="10" y="6" text-anchor="middle" font-size="6">5</text>
      <line x1="20"
            y1="0"
            x2="20"
            y2="-100"
            stroke="lightgray"
            stroke-width="0.5"/>
      <text x="20" y="6" text-anchor="middle" font-size="6">10</text>
      <line x1="30"
            y1="0"
            x2="30"
            y2="-100"
            stroke="lightgray"
            stroke-width="0.5"/>
      <text x="30" y="6" text-anchor="middle" font-size="6">15</text>
      <line x1="40"
            y1="0"
            x2="40"
            y2="-100"
            stroke="lightgray"
            stroke-width="0.5"/>
      <text x="40" y="6" text-anchor="middle" font-size="6">20</text>
      <line x1="50"
            y1="0"
            x2="50"
            y2="-100"
            stroke="lightgray"
            stroke-width="0.5"/>
      <text x="50" y="6" text-anchor="middle" font-size="6">25</text>
      <line x1="60"
            y1="0"
            x2="60"
            y2="-100"
            stroke="lightgray"
            stroke-width="0.5"/>
      <text x="60" y="6" text-anchor="middle" font-size="6">30</text>
      <line x1="70"
            y1="0"
            x2="70"
            y2="-100"
            stroke="lightgray"
            stroke-width="0.5"/>
      <text x="70" y="6" text-anchor="middle" font-size="6">35</text>
      <line x1="80"
            y1="0"
            x2="80"
            y2="-100"
            stroke="lightgray"
            stroke-width="0.5"/>
      <text x="80" y="6" text-anchor="middle" font-size="6">40</text>
      <line x1="90"
            y1="0"
            x2="90"
            y2="-100"
            stroke="lightgray"
            stroke-width="0.5"/>
      <text x="90" y="6" text-anchor="middle" font-size="6">45</text>
      <line x1="100"
            y1="0"
            x2="100"
            y2="-100"
            stroke="lightgray"
            stroke-width="0.5"/>
      <text x="100" y="6" text-anchor="middle" font-size="6">50</text>
      <line x1="110"
            y1="0"
            x2="110"
            y2="-100"
            stroke="lightgray"
            stroke-width="0.5"/>
      <text x="110" y="6" text-anchor="middle" font-size="6">55</text>
      <line x1="120"
            y1="0"
            x2="120"
            y2="-100"
            stroke="lightgray"
            stroke-width="0.5"/>
      <text x="120" y="6" text-anchor="middle" font-size="6">60</text>
      <line x1="130"
            y1="0"
            x2="130"
            y2="-100"
            stroke="lightgray"
            stroke-width="0.5"/>
      <text x="130" y="6" text-anchor="middle" font-size="6">65</text>
      <line x1="140"
            y1="0"
            x2="140"
            y2="-100"
            stroke="lightgray"
            stroke-width="0.5"/>
      <text x="140" y="6" text-anchor="middle" font-size="6">70</text>
      <line x1="150"
            y1="0"
            x2="150"
            y2="-100"
            stroke="lightgray"
            stroke-width="0.5"/>
      <text x="150" y="6" text-anchor="middle" font-size="6">75</text>
      <line x1="160"
            y1="0"
            x2="160"
            y2="-100"
            stroke="lightgray"
            stroke-width="0.5"/>
      <text x="160" y="6" text-anchor="middle" font-size="6">80</text>
      <line x1="170"
            y1="0"
            x2="170"
            y2="-100"
            stroke="lightgray"
            stroke-width="0.5"/>
      <text x="170" y="6" text-anchor="middle" font-size="6">85</text>
      <line x1="180"
            y1="0"
            x2="180"
            y2="-100"
            stroke="lightgray"
            stroke-width="0.5"/>
      <text x="180" y="6" text-anchor="middle" font-size="6">90</text>
      <line x1="190"
            y1="0"
            x2="190"
            y2="-100"
            stroke="lightgray"
            stroke-width="0.5"/>
      <text x="190" y="6" text-anchor="middle" font-size="6">95</text>
      <line x1="200"
            y1="0"
            x2="200"
            y2="-100"
            stroke="lightgray"
            stroke-width="0.5"/>
      <text x="200" y="6" text-anchor="middle" font-size="6">100</text>
      <circle cx="2" cy="-1.2349195987540584" r="1" fill="black"/>
      <circle cx="2" cy="-18.547005486972022" r="1" fill="red"/>
      <circle cx="4" cy="-1.7562956086409565" r="1" fill="black"/>
      <circle cx="4" cy="-19.13298785507693" r="1" fill="red"/>
      <circle cx="6" cy="-1.8400938964105884" r="1" fill="black"/>
      <circle cx="6" cy="-19.22823799345863" r="1" fill="red"/>
      <circle cx="8" cy="-2.738526046802492" r="1" fill="black"/>
      <circle cx="8" cy="-20.267916552462648" r="1" fill="red"/>
      <circle cx="10" cy="-6.757189687716414" r="1" fill="black"/>
      <circle cx="10" cy="-25.318467521080184" r="1" fill="red"/>
      <circle cx="12" cy="-7.198064050662023" r="1" fill="black"/>
      <circle cx="12" cy="-25.91041346568209" r="1" fill="red"/>
      <circle cx="14" cy="-7.943719418062645" r="1" fill="black"/>
      <circle cx="14" cy="-26.927508614577135" r="1" fill="red"/>
      <circle cx="16" cy="-8.394880626374713" r="1" fill="black"/>
      <circle cx="16" cy="-27.55236734372477" r="1" fill="red"/>
      <circle cx="18" cy="-9.463148879183404" r="1" fill="black"/>
      <circle cx="18" cy="-29.059183552835126" r="1" fill="red"/>
      <circle cx="20" cy="-10.03793955520419" r="1" fill="black"/>
      <circle cx="20" cy="-29.88511209999913" r="1" fill="red"/>
      <circle cx="22" cy="-10.54401859476699" r="1" fill="black"/>
      <circle cx="22" cy="-30.620656263569042" r="1" fill="red"/>
      <circle cx="24" cy="-12.174068773125812" r="1" fill="black"/>
      <circle cx="24" cy="-33.03906629751772" r="1" fill="red"/>
      <circle cx="26" cy="-12.990903016975853" r="1" fill="black"/>
      <circle cx="26" cy="-34.27660866314076" r="1" fill="red"/>
      <circle cx="28" cy="-14.067552414155527" r="1" fill="black"/>
      <circle cx="28" cy="-35.930476643418416" r="1" fill="red"/>
      <circle cx="30" cy="-16.195930946278924" r="1" fill="black"/>
      <circle cx="30" cy="-39.26117128779263" r="1" fill="red"/>
      <circle cx="32" cy="-16.376805172140706" r="1" fill="black"/>
      <circle cx="32" cy="-39.54716021622108" r="1" fill="red"/>
      <circle cx="34" cy="-16.46352746962314" r="1" fill="black"/>
      <circle cx="34" cy="-39.68441079473656" r="1" fill="red"/>
      <circle cx="36" cy="-18.27664964104042" r="1" fill="black"/>
      <circle cx="36" cy="-42.56863888123689" r="1" fill="red"/>
      <circle cx="38" cy="-18.638357086663394" r="1" fill="black"/>
      <circle cx="38" cy="-43.1462166471919" r="1" fill="red"/>
      <circle cx="40" cy="-18.80787381235336" r="1" fill="black"/>
      <circle cx="40" cy="-43.41701116547972" r="1" fill="red"/>
      <circle cx="42" cy="-19.128085794998018" r="1" fill="black"/>
      <circle cx="42" cy="-43.92863067960485" r="1" fill="red"/>
      <circle cx="44" cy="-19.376191354769524" r="1" fill="black"/>
      <circle cx="44" cy="-44.32505630578412" r="1" fill="red"/>
      <circle cx="46" cy="-19.696146951262406" r="1" fill="black"/>
      <circle cx="46" cy="-44.83618917001996" r="1" fill="red"/>
      <circle cx="48" cy="-20.277932543173584" r="1" fill="black"/>
      <circle cx="48" cy="-45.76489161927674" r="1" fill="red"/>
      <circle cx="50" cy="-21.67648985226551" r="1" fill="black"/>
      <circle cx="50" cy="-47.98902341265496" r="1" fill="red"/>
      <circle cx="52" cy="-25.145811201902667" r="1" fill="black"/>
      <circle cx="52" cy="-53.38550774836325" r="1" fill="red"/>
      <circle cx="54" cy="-25.979938077459718" r="1" fill="black"/>
      <circle cx="54" cy="-54.64134183392349" r="1" fill="red"/>
      <circle cx="56" cy="-27.20897072759314" r="1" fill="black"/>
      <circle cx="56" cy="-56.45116190668688" r="1" fill="red"/>
      <circle cx="58" cy="-28.280947506056986" r="1" fill="black"/>
      <circle cx="58" cy="-57.98406062981944" r="1" fill="red"/>
      <circle cx="60" cy="-28.640166613662466" r="1" fill="black"/>
      <circle cx="60" cy="-58.487131180093435" r="1" fill="red"/>
      <circle cx="62" cy="-29.880803100885846" r="1" fill="black"/>
      <circle cx="62" cy="-60.17946726037298" r="1" fill="red"/>
      <circle cx="64" cy="-29.910610615542833" r="1" fill="black"/>
      <circle cx="64" cy="-60.21921820984966" r="1" fill="red"/>
      <circle cx="66" cy="-30.969176430795574" r="1" fill="black"/>
      <circle cx="66" cy="-61.6011795263206" r="1" fill="red"/>
      <circle cx="68" cy="-30.980994944758955" r="1" fill="black"/>
      <circle cx="68" cy="-61.61627159498865" r="1" fill="red"/>
      <circle cx="70" cy="-31.579664324423096" r="1" fill="black"/>
      <circle cx="70" cy="-62.370566193606926" r="1" fill="red"/>
      <circle cx="72" cy="-32.58014488688244" r="1" fill="black"/>
      <circle cx="72" cy="-63.584577529927856" r="1" fill="red"/>
      <circle cx="74" cy="-32.759089743039794" r="1" fill="black"/>
      <circle cx="74" cy="-63.79530071210758" r="1" fill="red"/>
      <circle cx="76" cy="-33.42049420047412" r="1" fill="black"/>
      <circle cx="76" cy="-64.55654272588954" r="1" fill="red"/>
      <circle cx="78" cy="-34.45940749146283" r="1" fill="black"/>
      <circle cx="78" cy="-65.69398341591425" r="1" fill="red"/>
      <circle cx="80" cy="-34.74476683792231" r="1" fill="black"/>
      <circle cx="80" cy="-65.99342879014664" r="1" fill="red"/>
      <circle cx="82" cy="-35.105398132097974" r="1" fill="black"/>
      <circle cx="82" cy="-66.36360501196972" r="1" fill="red"/>
      <circle cx="84" cy="-35.64962612410822" r="1" fill="black"/>
      <circle cx="84" cy="-66.90441216910763" r="1" fill="red"/>
      <circle cx="86" cy="-37.28430031604854" r="1" fill="black"/>
      <circle cx="86" cy="-68.39440107857672" r="1" fill="red"/>
      <circle cx="88" cy="-38.34264065207541" r="1" fill="black"/>
      <circle cx="88" cy="-69.24626904403077" r="1" fill="red"/>
      <circle cx="90" cy="-38.693333891729644" r="1" fill="black"/>
      <circle cx="90" cy="-69.50819487022625" r="1" fill="red"/>
      <circle cx="92" cy="-38.82088937097616" r="1" fill="black"/>
      <circle cx="92" cy="-69.60090524068714" r="1" fill="red"/>
      <circle cx="94" cy="-40.63793085601731" r="1" fill="black"/>
      <circle cx="94" cy="-70.76976310318652" r="1" fill="red"/>
      <circle cx="96" cy="-41.322389616851076" r="1" fill="black"/>
      <circle cx="96" cy="-71.13465845157216" r="1" fill="red"/>
      <circle cx="98" cy="-41.72895765573068" r="1" fill="black"/>
      <circle cx="98" cy="-71.33139911793835" r="1" fill="red"/>
      <circle cx="100" cy="-41.783839673591984" r="1" fill="black"/>
      <circle cx="100" cy="-71.35680515792787" r="1" fill="red"/>
      <circle cx="102" cy="-42.01632734649502" r="1" fill="black"/>
      <circle cx="102" cy="-71.46137621016628" r="1" fill="red"/>
      <circle cx="104" cy="-42.49474829237193" r="1" fill="black"/>
      <circle cx="104" cy="-71.6609521228221" r="1" fill="red"/>
      <circle cx="106" cy="-43.37834943777874" r="1" fill="black"/>
      <circle cx="106" cy="-71.97379625564719" r="1" fill="red"/>
      <circle cx="108" cy="-44.68504908937033" r="1" fill="black"/>
      <circle cx="108" cy="-72.30216912775211" r="1" fill="red"/>
      <circle cx="110" cy="-45.92654758779622" r="1" fill="black"/>
      <circle cx="110" cy="-72.46400505743404" r="1" fill="red"/>
      <circle cx="112" cy="-46.07107610816675" r="1" fill="black"/>
      <circle cx="112" cy="-72.47328119616058" r="1" fill="red"/>
      <circle cx="114" cy="-48.81060434816828" r="1" fill="black"/>
      <circle cx="114" cy="-72.27128400012879" r="1" fill="red"/>
      <circle cx="116" cy="-50.05181124814895" r="1" fill="black"/>
      <circle cx="116" cy="-71.94483140320649" r="1" fill="red"/>
      <circle cx="118" cy="-53.12951989830498" r="1" fill="black"/>
      <circle cx="118" cy="-70.519986468525" r="1" fill="red"/>
      <circle cx="120" cy="-54.10600238928508" r="1" fill="black"/>
      <circle cx="120" cy="-69.89089309567163" r="1" fill="red"/>
      <circle cx="122" cy="-54.303633023343835" r="1" fill="black"/>
      <circle cx="122" cy="-69.75356619243884" r="1" fill="red"/>
      <circle cx="124" cy="-55.61435779236081" r="1" fill="black"/>
      <circle cx="124" cy="-68.75976507880924" r="1" fill="red"/>
      <circle cx="126" cy="-56.71514007089815" r="1" fill="black"/>
      <circle cx="126" cy="-67.81710912529604" r="1" fill="red"/>
      <circle cx="128" cy="-60.904452781741355" r="1" fill="black"/>
      <circle cx="128" cy="-63.411444535076036" r="1" fill="red"/>
      <circle cx="130" cy="-61.57733909026894" r="1" fill="black"/>
      <circle cx="130" cy="-62.595603870158534" r="1" fill="red"/>
      <circle cx="132" cy="-62.02599792560125" r="1" fill="black"/>
      <circle cx="132" cy="-62.03685164710266" r="1" fill="red"/>
      <circle cx="134" cy="-62.80140124744767" r="1" fill="black"/>
      <circle cx="134" cy="-61.04463819957115" r="1" fill="red"/>
      <circle cx="136" cy="-63.6806181449157" r="1" fill="black"/>
      <circle cx="136" cy="-59.88121620356184" r="1" fill="red"/>
      <circle cx="138" cy="-63.99589705805737" r="1" fill="black"/>
      <circle cx="138" cy="-59.45465996972435" r="1" fill="red"/>
      <circle cx="140" cy="-64.08608113743607" r="1" fill="black"/>
      <circle cx="140" cy="-59.33177269698498" r="1" fill="red"/>
      <circle cx="142" cy="-64.25582208909508" r="1" fill="black"/>
      <circle cx="142" cy="-59.099445729100715" r="1" fill="red"/>
      <circle cx="144" cy="-65.15896381594698" r="1" fill="black"/>
      <circle cx="144" cy="-57.84149177248974" r="1" fill="red"/>
      <circle cx="146" cy="-66.1244417509596" r="1" fill="black"/>
      <circle cx="146" cy="-56.45900760505722" r="1" fill="red"/>
      <circle cx="148" cy="-67.79966553513631" r="1" fill="black"/>
      <circle cx="148" cy="-53.98025567456967" r="1" fill="red"/>
      <circle cx="150" cy="-69.451151328474" r="1" fill="black"/>
      <circle cx="150" cy="-51.45615479968228" r="1" fill="red"/>
      <circle cx="152" cy="-71.11340153536267" r="1" fill="black"/>
      <circle cx="152" cy="-48.85673945037582" r="1" fill="red"/>
      <circle cx="154" cy="-71.21190347085727" r="1" fill="black"/>
      <circle cx="154" cy="-48.70131302842142" r="1" fill="red"/>
      <circle cx="156" cy="-71.7021952560517" r="1" fill="black"/>
      <circle cx="156" cy="-47.92586834682605" r="1" fill="red"/>
      <circle cx="158" cy="-72.74154937498837" r="1" fill="black"/>
      <circle cx="158" cy="-46.274008636140195" r="1" fill="red"/>
      <circle cx="160" cy="-73.73982810567583" r="1" fill="black"/>
      <circle cx="160" cy="-44.68100216705072" r="1" fill="red"/>
      <circle cx="162" cy="-75.71431960211599" r="1" fill="black"/>
      <circle cx="162" cy="-41.52861282522969" r="1" fill="red"/>
      <circle cx="164" cy="-77.27042639183483" r="1" fill="black"/>
      <circle cx="164" cy="-39.05974621235371" r="1" fill="red"/>
      <circle cx="166" cy="-77.53073384459593" r="1" fill="black"/>
      <circle cx="166" cy="-38.649254838969696" r="1" fill="red"/>
      <circle cx="168" cy="-79.72501292689553" r="1" fill="black"/>
      <circle cx="168" cy="-35.23052997204009" r="1" fill="red"/>
      <circle cx="170" cy="-80.22819035426737" r="1" fill="black"/>
      <circle cx="170" cy="-34.459303528177664" r="1" fill="red"/>
      <circle cx="172" cy="-80.7388707213057" r="1" fill="black"/>
      <circle cx="172" cy="-33.68231973561364" r="1" fill="red"/>
      <circle cx="174" cy="-84.14715713408167" r="1" fill="black"/>
      <circle cx="174" cy="-28.672705638711538" r="1" fill="red"/>
      <circle cx="176" cy="-86.88873405604689" r="1" fill="black"/>
      <circle cx="176" cy="-24.91036194358691" r="1" fill="red"/>
      <circle cx="178" cy="-87.4341032266745" r="1" fill="black"/>
      <circle cx="178" cy="-24.194345006257812" r="1" fill="red"/>
      <circle cx="180" cy="-87.8628080174994" r="1" fill="black"/>
      <circle cx="180" cy="-23.63945534770088" r="1" fill="red"/>
      <circle cx="182" cy="-87.99565721010242" r="1" fill="black"/>
      <circle cx="182" cy="-23.468943808314968" r="1" fill="red"/>
      <circle cx="184" cy="-88.93096564478515" r="1" fill="black"/>
      <circle cx="184" cy="-22.288079131620748" r="1" fill="red"/>
      <circle cx="186" cy="-89.88590015878877" r="1" fill="black"/>
      <circle cx="186" cy="-21.11852609597346" r="1" fill="red"/>
      <circle cx="188" cy="-89.991099560603" r="1" fill="black"/>
      <circle cx="188" cy="-20.991950224459526" r="1" fill="red"/>
      <circle cx="190" cy="-90.01420077385347" r="1" fill="black"/>
      <circle cx="190" cy="-20.96421557171505" r="1" fill="red"/>
      <circle cx="192" cy="-91.94636997805658" r="1" fill="black"/>
      <circle cx="192" cy="-18.722847779004017" r="1" fill="red"/>
      <circle cx="194" cy="-93.7809501443534" r="1" fill="black"/>
      <circle cx="194" cy="-16.74031623965852" r="1" fill="red"/>
      <circle cx="196" cy="-95.33095441156345" r="1" fill="black"/>
      <circle cx="196" cy="-15.177173729754935" r="1" fill="red"/>
      <circle cx="198" cy="-96.37247473615436" r="1" fill="black"/>
      <circle cx="198" cy="-14.184375380354602" r="1" fill="red"/>
      <circle cx="200" cy="-97.51261404730788" r="1" fill="black"/>
      <circle cx="200" cy="-13.150255645194617" r="1" fill="red"/>
      <text x="100" y="15" text-anchor="middle" font-size="6">mean: 46.67; stddev: 27.52</text>
   </g>
</svg>
