<?xml version="1.0" encoding="UTF-8"?>
<svg xmlns="http://www.w3.org/2000/svg" viewBox="0 -100 500 500">
   <g transform="translate(0,0)">
      <polyline points="-30,-0.44318484119380075 -29,-0.5952532419775854 -28,-0.7915451582979969 -27,-1.042093481442259 -26,-1.3582969233685616 -25,-1.752830049356854 -24,-2.23945302948429 -23,-2.832703774160119 -22,-3.5474592846231423 -21,-4.3983595980427195 -20,-5.399096651318806 -19,-6.56158147746766 -18,-7.895015830089415 -17,-9.404907737688696 -16,-11.092083467945555 -15,-12.951759566589175 -14,-14.972746563574487 -13,-17.136859204780734 -12,-19.4186054983213 -11,-21.785217703255057 -10,-24.197072451914337 -9,-26.608524989875484 -8,-28.96915527614827 -7,-31.225393336676127 -6,-33.322460289179965 -5,-35.20653267642996 -4,-36.827014030332336 -3,-38.138781546052414 -2,-39.104269397545586 -1,-39.695254747701185 0,-39.894228040143275 1,-39.695254747701185 2,-39.104269397545586 3,-38.138781546052414 4,-36.827014030332336 5,-35.20653267642996 6,-33.322460289179965 7,-31.225393336676127 8,-28.96915527614827 9,-26.608524989875484 10,-24.197072451914337 11,-21.785217703255057 12,-19.4186054983213 13,-17.136859204780734 14,-14.972746563574487 15,-12.951759566589175 16,-11.092083467945555 17,-9.404907737688696 18,-7.895015830089415 19,-6.56158147746766 20,-5.399096651318806 21,-4.3983595980427195 22,-3.5474592846231423 23,-2.832703774160119 24,-2.23945302948429 25,-1.752830049356854 26,-1.3582969233685616 27,-1.042093481442259 28,-0.7915451582979969 29,-0.5952532419775854 30,-0.44318484119380075"
                stroke="black"
                stroke-width="1"
                fill="none"/>
   </g>
   <g transform="translate(300,0)">
      <polyline points="-40,-0.013383022576488537 -39,-0.019865547139277275 -38,-0.02919469257914603 -37,-0.04247802705507515 -36,-0.06119019301137719 -35,-0.08726826950457602 -34,-0.123221916847302 -33,-0.1722568939053681 -32,-0.23840882014648407 -31,-0.3266819056199919 -30,-0.44318484119380075 -29,-0.5952532419775854 -28,-0.7915451582979969 -27,-1.042093481442259 -26,-1.3582969233685616 -25,-1.752830049356854 -24,-2.23945302948429 -23,-2.832703774160119 -22,-3.5474592846231423 -21,-4.3983595980427195 -20,-5.399096651318806 -19,-6.56158147746766 -18,-7.895015830089415 -17,-9.404907737688696 -16,-11.092083467945555 -15,-12.951759566589175 -14,-14.972746563574487 -13,-17.136859204780734 -12,-19.4186054983213 -11,-21.785217703255057 -10,-24.197072451914337 -9,-26.608524989875484 -8,-28.96915527614827 -7,-31.225393336676127 -6,-33.322460289179965 -5,-35.20653267642996 -4,-36.827014030332336 -3,-38.138781546052414 -2,-39.104269397545586 -1,-39.695254747701185 0,-39.894228040143275 1,-39.695254747701185 2,-39.104269397545586 3,-38.138781546052414 4,-36.827014030332336 5,-35.20653267642996 6,-33.322460289179965 7,-31.225393336676127 8,-28.96915527614827 9,-26.608524989875484 10,-24.197072451914337 11,-21.785217703255057 12,-19.4186054983213 13,-17.136859204780734 14,-14.972746563574487 15,-12.951759566589175 16,-11.092083467945555 17,-9.404907737688696 18,-7.895015830089415 19,-6.56158147746766 20,-5.399096651318806 21,-4.3983595980427195 22,-3.5474592846231423 23,-2.832703774160119 24,-2.23945302948429 25,-1.752830049356854 26,-1.3582969233685616 27,-1.042093481442259 28,-0.7915451582979969 29,-0.5952532419775854 30,-0.44318484119380075 31,-0.3266819056199919 32,-0.23840882014648407 33,-0.1722568939053681 34,-0.123221916847302 35,-0.08726826950457602 36,-0.06119019301137719 37,-0.04247802705507515 38,-0.02919469257914603 39,-0.019865547139277275 40,-0.013383022576488537"
                stroke="black"
                stroke-width="1"
                fill="none"/>
   </g>
   <g transform="translate(0,100)">
      <polyline points="-50,-0.00014867195147342976 -49,-0.00024389607458933523 -48,-0.0003961299091032076 -47,-0.000636982517886709 -46,-0.001014085206548676 -45,-0.0015983741106905477 -44,-0.0024942471290053535 -43,-0.003853519674208713 -42,-0.005894306775653986 -41,-0.008926165717713293 -40,-0.013383022576488537 -39,-0.019865547139277275 -38,-0.02919469257914603 -37,-0.04247802705507515 -36,-0.06119019301137719 -35,-0.08726826950457602 -34,-0.123221916847302 -33,-0.1722568939053681 -32,-0.23840882014648407 -31,-0.3266819056199919 -30,-0.44318484119380075 -29,-0.5952532419775854 -28,-0.7915451582979969 -27,-1.042093481442259 -26,-1.3582969233685616 -25,-1.752830049356854 -24,-2.23945302948429 -23,-2.832703774160119 -22,-3.5474592846231423 -21,-4.3983595980427195 -20,-5.399096651318806 -19,-6.56158147746766 -18,-7.895015830089415 -17,-9.404907737688696 -16,-11.092083467945555 -15,-12.951759566589175 -14,-14.972746563574487 -13,-17.136859204780734 -12,-19.4186054983213 -11,-21.785217703255057 -10,-24.197072451914337 -9,-26.608524989875484 -8,-28.96915527614827 -7,-31.225393336676127 -6,-33.322460289179965 -5,-35.20653267642996 -4,-36.827014030332336 -3,-38.138781546052414 -2,-39.104269397545586 -1,-39.695254747701185 0,-39.894228040143275 1,-39.695254747701185 2,-39.104269397545586 3,-38.138781546052414 4,-36.827014030332336 5,-35.20653267642996 6,-33.322460289179965 7,-31.225393336676127 8,-28.96915527614827 9,-26.608524989875484 10,-24.197072451914337 11,-21.785217703255057 12,-19.4186054983213 13,-17.136859204780734 14,-14.972746563574487 15,-12.951759566589175 16,-11.092083467945555 17,-9.404907737688696 18,-7.895015830089415 19,-6.56158147746766 20,-5.399096651318806 21,-4.3983595980427195 22,-3.5474592846231423 23,-2.832703774160119 24,-2.23945302948429 25,-1.752830049356854 26,-1.3582969233685616 27,-1.042093481442259 28,-0.7915451582979969 29,-0.5952532419775854 30,-0.44318484119380075 31,-0.3266819056199919 32,-0.23840882014648407 33,-0.1722568939053681 34,-0.123221916847302 35,-0.08726826950457602 36,-0.06119019301137719 37,-0.04247802705507515 38,-0.02919469257914603 39,-0.019865547139277275 40,-0.013383022576488537 41,-0.008926165717713293 42,-0.005894306775653986 43,-0.003853519674208713 44,-0.0024942471290053535 45,-0.0015983741106905477 46,-0.001014085206548676 47,-0.000636982517886709 48,-0.0003961299091032076 49,-0.00024389607458933523 50,-0.00014867195147342976"
                stroke="black"
                stroke-width="1"
                fill="none"/>
   </g>
   <g transform="translate(300,100)">
      <polyline points="-60,-6.075882849823286E-7 -59,-0.000001101576362468231 -58,-0.0000019773196406244676 -57,-0.0000035139550948204337 -56,-0.000006182620500165858 -55,-0.000010769760042543277 -54,-0.0000185736184455529 -53,-0.000031713492167159755 -52,-0.000053610353446976144 -51,-0.00008972435162383337 -50,-0.00014867195147342976 -49,-0.00024389607458933523 -48,-0.0003961299091032076 -47,-0.000636982517886709 -46,-0.001014085206548676 -45,-0.0015983741106905477 -44,-0.0024942471290053535 -43,-0.003853519674208713 -42,-0.005894306775653986 -41,-0.008926165717713293 -40,-0.013383022576488537 -39,-0.019865547139277275 -38,-0.02919469257914603 -37,-0.04247802705507515 -36,-0.06119019301137719 -35,-0.08726826950457602 -34,-0.123221916847302 -33,-0.1722568939053681 -32,-0.23840882014648407 -31,-0.3266819056199919 -30,-0.44318484119380075 -29,-0.5952532419775854 -28,-0.7915451582979969 -27,-1.042093481442259 -26,-1.3582969233685616 -25,-1.752830049356854 -24,-2.23945302948429 -23,-2.832703774160119 -22,-3.5474592846231423 -21,-4.3983595980427195 -20,-5.399096651318806 -19,-6.56158147746766 -18,-7.895015830089415 -17,-9.404907737688696 -16,-11.092083467945555 -15,-12.951759566589175 -14,-14.972746563574487 -13,-17.136859204780734 -12,-19.4186054983213 -11,-21.785217703255057 -10,-24.197072451914337 -9,-26.608524989875484 -8,-28.96915527614827 -7,-31.225393336676127 -6,-33.322460289179965 -5,-35.20653267642996 -4,-36.827014030332336 -3,-38.138781546052414 -2,-39.104269397545586 -1,-39.695254747701185 0,-39.894228040143275 1,-39.695254747701185 2,-39.104269397545586 3,-38.138781546052414 4,-36.827014030332336 5,-35.20653267642996 6,-33.322460289179965 7,-31.225393336676127 8,-28.96915527614827 9,-26.608524989875484 10,-24.197072451914337 11,-21.785217703255057 12,-19.4186054983213 13,-17.136859204780734 14,-14.972746563574487 15,-12.951759566589175 16,-11.092083467945555 17,-9.404907737688696 18,-7.895015830089415 19,-6.56158147746766 20,-5.399096651318806 21,-4.3983595980427195 22,-3.5474592846231423 23,-2.832703774160119 24,-2.23945302948429 25,-1.752830049356854 26,-1.3582969233685616 27,-1.042093481442259 28,-0.7915451582979969 29,-0.5952532419775854 30,-0.44318484119380075 31,-0.3266819056199919 32,-0.23840882014648407 33,-0.1722568939053681 34,-0.123221916847302 35,-0.08726826950457602 36,-0.06119019301137719 37,-0.04247802705507515 38,-0.02919469257914603 39,-0.019865547139277275 40,-0.013383022576488537 41,-0.008926165717713293 42,-0.005894306775653986 43,-0.003853519674208713 44,-0.0024942471290053535 45,-0.0015983741106905477 46,-0.001014085206548676 47,-0.000636982517886709 48,-0.0003961299091032076 49,-0.00024389607458933523 50,-0.00014867195147342976 51,-0.00008972435162383337 52,-0.000053610353446976144 53,-0.000031713492167159755 54,-0.0000185736184455529 55,-0.000010769760042543277 56,-0.000006182620500165858 57,-0.0000035139550948204337 58,-0.0000019773196406244676 59,-0.000001101576362468231 60,-6.075882849823286E-7"
                stroke="black"
                stroke-width="1"
                fill="none"/>
   </g>
   <g transform="translate(0,200)">
      <polyline points="-70,-9.134720408364594E-10 -69,-1.8303322170155714E-9 -68,-3.630961501791801E-9 -67,-7.131328123996076E-9 -66,-1.3866799941653171E-8 -65,-2.6695566147628522E-8 -64,-5.088140281645039E-8 -63,-9.601433370312335E-8 -62,-1.7937839079640795E-7 -61,-3.317884243547305E-7 -60,-6.075882849823286E-7 -59,-0.000001101576362468231 -58,-0.0000019773196406244676 -57,-0.0000035139550948204337 -56,-0.000006182620500165858 -55,-0.000010769760042543277 -54,-0.0000185736184455529 -53,-0.000031713492167159755 -52,-0.000053610353446976144 -51,-0.00008972435162383337 -50,-0.00014867195147342976 -49,-0.00024389607458933523 -48,-0.0003961299091032076 -47,-0.000636982517886709 -46,-0.001014085206548676 -45,-0.0015983741106905477 -44,-0.0024942471290053535 -43,-0.003853519674208713 -42,-0.005894306775653986 -41,-0.008926165717713293 -40,-0.013383022576488537 -39,-0.019865547139277275 -38,-0.02919469257914603 -37,-0.04247802705507515 -36,-0.06119019301137719 -35,-0.08726826950457602 -34,-0.123221916847302 -33,-0.1722568939053681 -32,-0.23840882014648407 -31,-0.3266819056199919 -30,-0.44318484119380075 -29,-0.5952532419775854 -28,-0.7915451582979969 -27,-1.042093481442259 -26,-1.3582969233685616 -25,-1.752830049356854 -24,-2.23945302948429 -23,-2.832703774160119 -22,-3.5474592846231423 -21,-4.3983595980427195 -20,-5.399096651318806 -19,-6.56158147746766 -18,-7.895015830089415 -17,-9.404907737688696 -16,-11.092083467945555 -15,-12.951759566589175 -14,-14.972746563574487 -13,-17.136859204780734 -12,-19.4186054983213 -11,-21.785217703255057 -10,-24.197072451914337 -9,-26.608524989875484 -8,-28.96915527614827 -7,-31.225393336676127 -6,-33.322460289179965 -5,-35.20653267642996 -4,-36.827014030332336 -3,-38.138781546052414 -2,-39.104269397545586 -1,-39.695254747701185 0,-39.894228040143275 1,-39.695254747701185 2,-39.104269397545586 3,-38.138781546052414 4,-36.827014030332336 5,-35.20653267642996 6,-33.322460289179965 7,-31.225393336676127 8,-28.96915527614827 9,-26.608524989875484 10,-24.197072451914337 11,-21.785217703255057 12,-19.4186054983213 13,-17.136859204780734 14,-14.972746563574487 15,-12.951759566589175 16,-11.092083467945555 17,-9.404907737688696 18,-7.895015830089415 19,-6.56158147746766 20,-5.399096651318806 21,-4.3983595980427195 22,-3.5474592846231423 23,-2.832703774160119 24,-2.23945302948429 25,-1.752830049356854 26,-1.3582969233685616 27,-1.042093481442259 28,-0.7915451582979969 29,-0.5952532419775854 30,-0.44318484119380075 31,-0.3266819056199919 32,-0.23840882014648407 33,-0.1722568939053681 34,-0.123221916847302 35,-0.08726826950457602 36,-0.06119019301137719 37,-0.04247802705507515 38,-0.02919469257914603 39,-0.019865547139277275 40,-0.013383022576488537 41,-0.008926165717713293 42,-0.005894306775653986 43,-0.003853519674208713 44,-0.0024942471290053535 45,-0.0015983741106905477 46,-0.001014085206548676 47,-0.000636982517886709 48,-0.0003961299091032076 49,-0.00024389607458933523 50,-0.00014867195147342976 51,-0.00008972435162383337 52,-0.000053610353446976144 53,-0.000031713492167159755 54,-0.0000185736184455529 55,-0.000010769760042543277 56,-0.000006182620500165858 57,-0.0000035139550948204337 58,-0.0000019773196406244676 59,-0.000001101576362468231 60,-6.075882849823286E-7 61,-3.317884243547305E-7 62,-1.7937839079640795E-7 63,-9.601433370312335E-8 64,-5.088140281645039E-8 65,-2.6695566147628522E-8 66,-1.3866799941653171E-8 67,-7.131328123996076E-9 68,-3.630961501791801E-9 69,-1.8303322170155714E-9 70,-9.134720408364594E-10"
                stroke="black"
                stroke-width="1"
                fill="none"/>
   </g>
   <g transform="translate(300,200)">
      <polyline points="-80,-5.052271083536892E-13 -79,-1.1187956214351817E-12 -78,-2.4528552856964327E-12 -77,-5.324148372252943E-12 -76,-1.144156490180137E-11 -75,-2.4343205330290096E-11 -74,-5.127753636796663E-11 -73,-1.069383787154164E-10 -72,-2.2079899631371393E-10 -71,-4.5135436772055175E-10 -70,-9.134720408364594E-10 -69,-1.8303322170155714E-9 -68,-3.630961501791801E-9 -67,-7.131328123996076E-9 -66,-1.3866799941653171E-8 -65,-2.6695566147628522E-8 -64,-5.088140281645039E-8 -63,-9.601433370312335E-8 -62,-1.7937839079640795E-7 -61,-3.317884243547305E-7 -60,-6.075882849823286E-7 -59,-0.000001101576362468231 -58,-0.0000019773196406244676 -57,-0.0000035139550948204337 -56,-0.000006182620500165858 -55,-0.000010769760042543277 -54,-0.0000185736184455529 -53,-0.000031713492167159755 -52,-0.000053610353446976144 -51,-0.00008972435162383337 -50,-0.00014867195147342976 -49,-0.00024389607458933523 -48,-0.0003961299091032076 -47,-0.000636982517886709 -46,-0.001014085206548676 -45,-0.0015983741106905477 -44,-0.0024942471290053535 -43,-0.003853519674208713 -42,-0.005894306775653986 -41,-0.008926165717713293 -40,-0.013383022576488537 -39,-0.019865547139277275 -38,-0.02919469257914603 -37,-0.04247802705507515 -36,-0.06119019301137719 -35,-0.08726826950457602 -34,-0.123221916847302 -33,-0.1722568939053681 -32,-0.23840882014648407 -31,-0.3266819056199919 -30,-0.44318484119380075 -29,-0.5952532419775854 -28,-0.7915451582979969 -27,-1.042093481442259 -26,-1.3582969233685616 -25,-1.752830049356854 -24,-2.23945302948429 -23,-2.832703774160119 -22,-3.5474592846231423 -21,-4.3983595980427195 -20,-5.399096651318806 -19,-6.56158147746766 -18,-7.895015830089415 -17,-9.404907737688696 -16,-11.092083467945555 -15,-12.951759566589175 -14,-14.972746563574487 -13,-17.136859204780734 -12,-19.4186054983213 -11,-21.785217703255057 -10,-24.197072451914337 -9,-26.608524989875484 -8,-28.96915527614827 -7,-31.225393336676127 -6,-33.322460289179965 -5,-35.20653267642996 -4,-36.827014030332336 -3,-38.138781546052414 -2,-39.104269397545586 -1,-39.695254747701185 0,-39.894228040143275 1,-39.695254747701185 2,-39.104269397545586 3,-38.138781546052414 4,-36.827014030332336 5,-35.20653267642996 6,-33.322460289179965 7,-31.225393336676127 8,-28.96915527614827 9,-26.608524989875484 10,-24.197072451914337 11,-21.785217703255057 12,-19.4186054983213 13,-17.136859204780734 14,-14.972746563574487 15,-12.951759566589175 16,-11.092083467945555 17,-9.404907737688696 18,-7.895015830089415 19,-6.56158147746766 20,-5.399096651318806 21,-4.3983595980427195 22,-3.5474592846231423 23,-2.832703774160119 24,-2.23945302948429 25,-1.752830049356854 26,-1.3582969233685616 27,-1.042093481442259 28,-0.7915451582979969 29,-0.5952532419775854 30,-0.44318484119380075 31,-0.3266819056199919 32,-0.23840882014648407 33,-0.1722568939053681 34,-0.123221916847302 35,-0.08726826950457602 36,-0.06119019301137719 37,-0.04247802705507515 38,-0.02919469257914603 39,-0.019865547139277275 40,-0.013383022576488537 41,-0.008926165717713293 42,-0.005894306775653986 43,-0.003853519674208713 44,-0.0024942471290053535 45,-0.0015983741106905477 46,-0.001014085206548676 47,-0.000636982517886709 48,-0.0003961299091032076 49,-0.00024389607458933523 50,-0.00014867195147342976 51,-0.00008972435162383337 52,-0.000053610353446976144 53,-0.000031713492167159755 54,-0.0000185736184455529 55,-0.000010769760042543277 56,-0.000006182620500165858 57,-0.0000035139550948204337 58,-0.0000019773196406244676 59,-0.000001101576362468231 60,-6.075882849823286E-7 61,-3.317884243547305E-7 62,-1.7937839079640795E-7 63,-9.601433370312335E-8 64,-5.088140281645039E-8 65,-2.6695566147628522E-8 66,-1.3866799941653171E-8 67,-7.131328123996076E-9 68,-3.630961501791801E-9 69,-1.8303322170155714E-9 70,-9.134720408364594E-10 71,-4.5135436772055175E-10 72,-2.2079899631371393E-10 73,-1.069383787154164E-10 74,-5.127753636796663E-11 75,-2.4343205330290096E-11 76,-1.144156490180137E-11 77,-5.324148372252943E-12 78,-2.4528552856964327E-12 79,-1.1187956214351817E-12 80,-5.052271083536892E-13"
                stroke="black"
                stroke-width="1"
                fill="none"/>
   </g>
   <g transform="translate(0,300)">
      <polyline points="-90,-1.0279773571668916E-16 -89,-2.5158057769514046E-16 -88,-6.095758129562417E-16 -87,-1.4622963575006583E-15 -86,-3.472962748566208E-15 -85,-8.166235631669552E-15 -84,-1.901081537907964E-14 -83,-4.381639435509327E-14 -82,-9.99837874849718E-14 -81,-2.2588094031543034E-13 -80,-5.052271083536892E-13 -79,-1.1187956214351817E-12 -78,-2.4528552856964327E-12 -77,-5.324148372252943E-12 -76,-1.144156490180137E-11 -75,-2.4343205330290096E-11 -74,-5.127753636796663E-11 -73,-1.069383787154164E-10 -72,-2.2079899631371393E-10 -71,-4.5135436772055175E-10 -70,-9.134720408364594E-10 -69,-1.8303322170155714E-9 -68,-3.630961501791801E-9 -67,-7.131328123996076E-9 -66,-1.3866799941653171E-8 -65,-2.6695566147628522E-8 -64,-5.088140281645039E-8 -63,-9.601433370312335E-8 -62,-1.7937839079640795E-7 -61,-3.317884243547305E-7 -60,-6.075882849823286E-7 -59,-0.000001101576362468231 -58,-0.0000019773196406244676 -57,-0.0000035139550948204337 -56,-0.000006182620500165858 -55,-0.000010769760042543277 -54,-0.0000185736184455529 -53,-0.000031713492167159755 -52,-0.000053610353446976144 -51,-0.00008972435162383337 -50,-0.00014867195147342976 -49,-0.00024389607458933523 -48,-0.0003961299091032076 -47,-0.000636982517886709 -46,-0.001014085206548676 -45,-0.0015983741106905477 -44,-0.0024942471290053535 -43,-0.003853519674208713 -42,-0.005894306775653986 -41,-0.008926165717713293 -40,-0.013383022576488537 -39,-0.019865547139277275 -38,-0.02919469257914603 -37,-0.04247802705507515 -36,-0.06119019301137719 -35,-0.08726826950457602 -34,-0.123221916847302 -33,-0.1722568939053681 -32,-0.23840882014648407 -31,-0.3266819056199919 -30,-0.44318484119380075 -29,-0.5952532419775854 -28,-0.7915451582979969 -27,-1.042093481442259 -26,-1.3582969233685616 -25,-1.752830049356854 -24,-2.23945302948429 -23,-2.832703774160119 -22,-3.5474592846231423 -21,-4.3983595980427195 -20,-5.399096651318806 -19,-6.56158147746766 -18,-7.895015830089415 -17,-9.404907737688696 -16,-11.092083467945555 -15,-12.951759566589175 -14,-14.972746563574487 -13,-17.136859204780734 -12,-19.4186054983213 -11,-21.785217703255057 -10,-24.197072451914337 -9,-26.608524989875484 -8,-28.96915527614827 -7,-31.225393336676127 -6,-33.322460289179965 -5,-35.20653267642996 -4,-36.827014030332336 -3,-38.138781546052414 -2,-39.104269397545586 -1,-39.695254747701185 0,-39.894228040143275 1,-39.695254747701185 2,-39.104269397545586 3,-38.138781546052414 4,-36.827014030332336 5,-35.20653267642996 6,-33.322460289179965 7,-31.225393336676127 8,-28.96915527614827 9,-26.608524989875484 10,-24.197072451914337 11,-21.785217703255057 12,-19.4186054983213 13,-17.136859204780734 14,-14.972746563574487 15,-12.951759566589175 16,-11.092083467945555 17,-9.404907737688696 18,-7.895015830089415 19,-6.56158147746766 20,-5.399096651318806 21,-4.3983595980427195 22,-3.5474592846231423 23,-2.832703774160119 24,-2.23945302948429 25,-1.752830049356854 26,-1.3582969233685616 27,-1.042093481442259 28,-0.7915451582979969 29,-0.5952532419775854 30,-0.44318484119380075 31,-0.3266819056199919 32,-0.23840882014648407 33,-0.1722568939053681 34,-0.123221916847302 35,-0.08726826950457602 36,-0.06119019301137719 37,-0.04247802705507515 38,-0.02919469257914603 39,-0.019865547139277275 40,-0.013383022576488537 41,-0.008926165717713293 42,-0.005894306775653986 43,-0.003853519674208713 44,-0.0024942471290053535 45,-0.0015983741106905477 46,-0.001014085206548676 47,-0.000636982517886709 48,-0.0003961299091032076 49,-0.00024389607458933523 50,-0.00014867195147342976 51,-0.00008972435162383337 52,-0.000053610353446976144 53,-0.000031713492167159755 54,-0.0000185736184455529 55,-0.000010769760042543277 56,-0.000006182620500165858 57,-0.0000035139550948204337 58,-0.0000019773196406244676 59,-0.000001101576362468231 60,-6.075882849823286E-7 61,-3.317884243547305E-7 62,-1.7937839079640795E-7 63,-9.601433370312335E-8 64,-5.088140281645039E-8 65,-2.6695566147628522E-8 66,-1.3866799941653171E-8 67,-7.131328123996076E-9 68,-3.630961501791801E-9 69,-1.8303322170155714E-9 70,-9.134720408364594E-10 71,-4.5135436772055175E-10 72,-2.2079899631371393E-10 73,-1.069383787154164E-10 74,-5.127753636796663E-11 75,-2.4343205330290096E-11 76,-1.144156490180137E-11 77,-5.324148372252943E-12 78,-2.4528552856964327E-12 79,-1.1187956214351817E-12 80,-5.052271083536892E-13 81,-2.2588094031543034E-13 82,-9.99837874849718E-14 83,-4.381639435509327E-14 84,-1.901081537907964E-14 85,-8.166235631669552E-15 86,-3.472962748566208E-15 87,-1.4622963575006583E-15 88,-6.095758129562417E-16 89,-2.5158057769514046E-16 90,-1.0279773571668916E-16"
                stroke="black"
                stroke-width="1"
                fill="none"/>
   </g>
   <g transform="translate(300,300)">
      <polyline points="-100,-7.69459862670642E-21 -99,-2.0811768202028246E-20 -98,-5.573000022720691E-20 -97,-1.4774954927042648E-19 -96,-3.878111931746961E-19 -95,-1.0077935394300012E-18 -94,-2.592864701100371E-18 -93,-6.60457986073931E-18 -92,-1.665588032379929E-17 -91,-4.1585989791151604E-17 -90,-1.0279773571668916E-16 -89,-2.5158057769514046E-16 -88,-6.095758129562417E-16 -87,-1.4622963575006583E-15 -86,-3.472962748566208E-15 -85,-8.166235631669552E-15 -84,-1.901081537907964E-14 -83,-4.381639435509327E-14 -82,-9.99837874849718E-14 -81,-2.2588094031543034E-13 -80,-5.052271083536892E-13 -79,-1.1187956214351817E-12 -78,-2.4528552856964327E-12 -77,-5.324148372252943E-12 -76,-1.144156490180137E-11 -75,-2.4343205330290096E-11 -74,-5.127753636796663E-11 -73,-1.069383787154164E-10 -72,-2.2079899631371393E-10 -71,-4.5135436772055175E-10 -70,-9.134720408364594E-10 -69,-1.8303322170155714E-9 -68,-3.630961501791801E-9 -67,-7.131328123996076E-9 -66,-1.3866799941653171E-8 -65,-2.6695566147628522E-8 -64,-5.088140281645039E-8 -63,-9.601433370312335E-8 -62,-1.7937839079640795E-7 -61,-3.317884243547305E-7 -60,-6.075882849823286E-7 -59,-0.000001101576362468231 -58,-0.0000019773196406244676 -57,-0.0000035139550948204337 -56,-0.000006182620500165858 -55,-0.000010769760042543277 -54,-0.0000185736184455529 -53,-0.000031713492167159755 -52,-0.000053610353446976144 -51,-0.00008972435162383337 -50,-0.00014867195147342976 -49,-0.00024389607458933523 -48,-0.0003961299091032076 -47,-0.000636982517886709 -46,-0.001014085206548676 -45,-0.0015983741106905477 -44,-0.0024942471290053535 -43,-0.003853519674208713 -42,-0.005894306775653986 -41,-0.008926165717713293 -40,-0.013383022576488537 -39,-0.019865547139277275 -38,-0.02919469257914603 -37,-0.04247802705507515 -36,-0.06119019301137719 -35,-0.08726826950457602 -34,-0.123221916847302 -33,-0.1722568939053681 -32,-0.23840882014648407 -31,-0.3266819056199919 -30,-0.44318484119380075 -29,-0.5952532419775854 -28,-0.7915451582979969 -27,-1.042093481442259 -26,-1.3582969233685616 -25,-1.752830049356854 -24,-2.23945302948429 -23,-2.832703774160119 -22,-3.5474592846231423 -21,-4.3983595980427195 -20,-5.399096651318806 -19,-6.56158147746766 -18,-7.895015830089415 -17,-9.404907737688696 -16,-11.092083467945555 -15,-12.951759566589175 -14,-14.972746563574487 -13,-17.136859204780734 -12,-19.4186054983213 -11,-21.785217703255057 -10,-24.197072451914337 -9,-26.608524989875484 -8,-28.96915527614827 -7,-31.225393336676127 -6,-33.322460289179965 -5,-35.20653267642996 -4,-36.827014030332336 -3,-38.138781546052414 -2,-39.104269397545586 -1,-39.695254747701185 0,-39.894228040143275 1,-39.695254747701185 2,-39.104269397545586 3,-38.138781546052414 4,-36.827014030332336 5,-35.20653267642996 6,-33.322460289179965 7,-31.225393336676127 8,-28.96915527614827 9,-26.608524989875484 10,-24.197072451914337 11,-21.785217703255057 12,-19.4186054983213 13,-17.136859204780734 14,-14.972746563574487 15,-12.951759566589175 16,-11.092083467945555 17,-9.404907737688696 18,-7.895015830089415 19,-6.56158147746766 20,-5.399096651318806 21,-4.3983595980427195 22,-3.5474592846231423 23,-2.832703774160119 24,-2.23945302948429 25,-1.752830049356854 26,-1.3582969233685616 27,-1.042093481442259 28,-0.7915451582979969 29,-0.5952532419775854 30,-0.44318484119380075 31,-0.3266819056199919 32,-0.23840882014648407 33,-0.1722568939053681 34,-0.123221916847302 35,-0.08726826950457602 36,-0.06119019301137719 37,-0.04247802705507515 38,-0.02919469257914603 39,-0.019865547139277275 40,-0.013383022576488537 41,-0.008926165717713293 42,-0.005894306775653986 43,-0.003853519674208713 44,-0.0024942471290053535 45,-0.0015983741106905477 46,-0.001014085206548676 47,-0.000636982517886709 48,-0.0003961299091032076 49,-0.00024389607458933523 50,-0.00014867195147342976 51,-0.00008972435162383337 52,-0.000053610353446976144 53,-0.000031713492167159755 54,-0.0000185736184455529 55,-0.000010769760042543277 56,-0.000006182620500165858 57,-0.0000035139550948204337 58,-0.0000019773196406244676 59,-0.000001101576362468231 60,-6.075882849823286E-7 61,-3.317884243547305E-7 62,-1.7937839079640795E-7 63,-9.601433370312335E-8 64,-5.088140281645039E-8 65,-2.6695566147628522E-8 66,-1.3866799941653171E-8 67,-7.131328123996076E-9 68,-3.630961501791801E-9 69,-1.8303322170155714E-9 70,-9.134720408364594E-10 71,-4.5135436772055175E-10 72,-2.2079899631371393E-10 73,-1.069383787154164E-10 74,-5.127753636796663E-11 75,-2.4343205330290096E-11 76,-1.144156490180137E-11 77,-5.324148372252943E-12 78,-2.4528552856964327E-12 79,-1.1187956214351817E-12 80,-5.052271083536892E-13 81,-2.2588094031543034E-13 82,-9.99837874849718E-14 83,-4.381639435509327E-14 84,-1.901081537907964E-14 85,-8.166235631669552E-15 86,-3.472962748566208E-15 87,-1.4622963575006583E-15 88,-6.095758129562417E-16 89,-2.5158057769514046E-16 90,-1.0279773571668916E-16 91,-4.1585989791151604E-17 92,-1.665588032379929E-17 93,-6.60457986073931E-18 94,-2.592864701100371E-18 95,-1.0077935394300012E-18 96,-3.878111931746961E-19 97,-1.4774954927042648E-19 98,-5.573000022720691E-20 99,-2.0811768202028246E-20 100,-7.69459862670642E-21"
                stroke="black"
                stroke-width="1"
                fill="none"/>
   </g>
</svg>
