<?xml version="1.0" encoding="UTF-8"?>
<svg xmlns="http://www.w3.org/2000/svg" viewBox="-50 -110 110 240">
   <g>
      <line x1="-40"
            y1="-0"
            x2="40"
            y2="-0"
            stroke="lightgray"
            stroke-width="0.5"
            stroke-linecap="square"/>
      <text x="-41"
            y="-0"
            text-anchor="end"
            alignment-baseline="central"
            font-size="3">0.0</text>
      <line x1="-40"
            y1="-10"
            x2="40"
            y2="-10"
            stroke="lightgray"
            stroke-width="0.5"
            stroke-linecap="square"/>
      <text x="-41"
            y="-10"
            text-anchor="end"
            alignment-baseline="central"
            font-size="3">0.1</text>
      <line x1="-40"
            y1="-20"
            x2="40"
            y2="-20"
            stroke="lightgray"
            stroke-width="0.5"
            stroke-linecap="square"/>
      <text x="-41"
            y="-20"
            text-anchor="end"
            alignment-baseline="central"
            font-size="3">0.2</text>
      <line x1="-40"
            y1="-30"
            x2="40"
            y2="-30"
            stroke="lightgray"
            stroke-width="0.5"
            stroke-linecap="square"/>
      <text x="-41"
            y="-30"
            text-anchor="end"
            alignment-baseline="central"
            font-size="3">0.3</text>
      <line x1="-40"
            y1="-40"
            x2="40"
            y2="-40"
            stroke="lightgray"
            stroke-width="0.5"
            stroke-linecap="square"/>
      <text x="-41"
            y="-40"
            text-anchor="end"
            alignment-baseline="central"
            font-size="3">0.4</text>
      <line x1="-40"
            y1="-50"
            x2="40"
            y2="-50"
            stroke="lightgray"
            stroke-width="0.5"
            stroke-linecap="square"/>
      <text x="-41"
            y="-50"
            text-anchor="end"
            alignment-baseline="central"
            font-size="3">0.5</text>
      <line x1="-40"
            y1="-60"
            x2="40"
            y2="-60"
            stroke="lightgray"
            stroke-width="0.5"
            stroke-linecap="square"/>
      <text x="-41"
            y="-60"
            text-anchor="end"
            alignment-baseline="central"
            font-size="3">0.6</text>
      <line x1="-40"
            y1="-70"
            x2="40"
            y2="-70"
            stroke="lightgray"
            stroke-width="0.5"
            stroke-linecap="square"/>
      <text x="-41"
            y="-70"
            text-anchor="end"
            alignment-baseline="central"
            font-size="3">0.7</text>
      <line x1="-40"
            y1="-80"
            x2="40"
            y2="-80"
            stroke="lightgray"
            stroke-width="0.5"
            stroke-linecap="square"/>
      <text x="-41"
            y="-80"
            text-anchor="end"
            alignment-baseline="central"
            font-size="3">0.8</text>
      <line x1="-40"
            y1="-90"
            x2="40"
            y2="-90"
            stroke="lightgray"
            stroke-width="0.5"
            stroke-linecap="square"/>
      <text x="-41"
            y="-90"
            text-anchor="end"
            alignment-baseline="central"
            font-size="3">0.9</text>
      <line x1="-40"
            y1="-100"
            x2="40"
            y2="-100"
            stroke="lightgray"
            stroke-width="0.5"
            stroke-linecap="square"/>
      <text x="-41"
            y="-100"
            text-anchor="end"
            alignment-baseline="central"
            font-size="3">1.0</text>
      <line x1="-40"
            y1="0"
            x2="-40"
            y2="-100"
            stroke="lightgray"
            stroke-width="0.5"
            stroke-linecap="square"/>
      <text x="-40" y="5" text-anchor="middle" font-size="3">σ4</text>
      <line x1="-30"
            y1="0"
            x2="-30"
            y2="-100"
            stroke="lightgray"
            stroke-width="0.5"
            stroke-linecap="square"/>
      <text x="-30" y="5" text-anchor="middle" font-size="3">σ3</text>
      <line x1="-20"
            y1="0"
            x2="-20"
            y2="-100"
            stroke="lightgray"
            stroke-width="0.5"
            stroke-linecap="square"/>
      <text x="-20" y="5" text-anchor="middle" font-size="3">σ2</text>
      <line x1="-10"
            y1="0"
            x2="-10"
            y2="-100"
            stroke="lightgray"
            stroke-width="0.5"
            stroke-linecap="square"/>
      <text x="-10" y="5" text-anchor="middle" font-size="3">σ1</text>
      <line x1="0"
            y1="0"
            x2="0"
            y2="-100"
            stroke="lightgray"
            stroke-width="0.5"
            stroke-linecap="square"/>
      <text x="0" y="5" text-anchor="middle" font-size="3">μ</text>
      <line x1="10"
            y1="0"
            x2="10"
            y2="-100"
            stroke="lightgray"
            stroke-width="0.5"
            stroke-linecap="square"/>
      <text x="10" y="5" text-anchor="middle" font-size="3">σ1</text>
      <line x1="20"
            y1="0"
            x2="20"
            y2="-100"
            stroke="lightgray"
            stroke-width="0.5"
            stroke-linecap="square"/>
      <text x="20" y="5" text-anchor="middle" font-size="3">σ2</text>
      <line x1="30"
            y1="0"
            x2="30"
            y2="-100"
            stroke="lightgray"
            stroke-width="0.5"
            stroke-linecap="square"/>
      <text x="30" y="5" text-anchor="middle" font-size="3">σ3</text>
      <line x1="40"
            y1="0"
            x2="40"
            y2="-100"
            stroke="lightgray"
            stroke-width="0.5"
            stroke-linecap="square"/>
      <text x="40" y="5" text-anchor="middle" font-size="3">σ4</text>
      <polyline points="-40,-0.013383022576488537 -39,-0.019865547139277275 -38,-0.02919469257914603 -37,-0.04247802705507515 -36,-0.06119019301137719 -35,-0.08726826950457602 -34,-0.123221916847302 -33,-0.1722568939053681 -32,-0.23840882014648407 -31,-0.3266819056199919 -30,-0.44318484119380075 -29,-0.5952532419775854 -28,-0.7915451582979969 -27,-1.042093481442259 -26,-1.3582969233685616 -25,-1.752830049356854 -24,-2.23945302948429 -23,-2.832703774160119 -22,-3.5474592846231423 -21,-4.3983595980427195 -20,-5.399096651318806 -19,-6.56158147746766 -18,-7.895015830089415 -17,-9.404907737688696 -16,-11.092083467945555 -15,-12.951759566589175 -14,-14.972746563574487 -13,-17.136859204780734 -12,-19.4186054983213 -11,-21.785217703255057 -10,-24.197072451914337 -9,-26.608524989875484 -8,-28.96915527614827 -7,-31.225393336676127 -6,-33.322460289179965 -5,-35.20653267642996 -4,-36.827014030332336 -3,-38.138781546052414 -2,-39.104269397545586 -1,-39.695254747701185 0,-39.894228040143275 1,-39.695254747701185 2,-39.104269397545586 3,-38.138781546052414 4,-36.827014030332336 5,-35.20653267642996 6,-33.322460289179965 7,-31.225393336676127 8,-28.96915527614827 9,-26.608524989875484 10,-24.197072451914337 11,-21.785217703255057 12,-19.4186054983213 13,-17.136859204780734 14,-14.972746563574487 15,-12.951759566589175 16,-11.092083467945555 17,-9.404907737688696 18,-7.895015830089415 19,-6.56158147746766 20,-5.399096651318806 21,-4.3983595980427195 22,-3.5474592846231423 23,-2.832703774160119 24,-2.23945302948429 25,-1.752830049356854 26,-1.3582969233685616 27,-1.042093481442259 28,-0.7915451582979969 29,-0.5952532419775854 30,-0.44318484119380075 31,-0.3266819056199919 32,-0.23840882014648407 33,-0.1722568939053681 34,-0.123221916847302 35,-0.08726826950457602 36,-0.06119019301137719 37,-0.04247802705507515 38,-0.02919469257914603 39,-0.019865547139277275 40,-0.013383022576488537"
                stroke="black"
                stroke-width="1"
                fill="none"/>
   </g>
   <g transform="translate(0, 120)">
      <line x1="0"
            y1="0"
            x2="100"
            y2="0"
            stroke="lightgray"
            stroke-width="0.5"
            stroke-linecap="square"/>
      <line x1="0"
            y1="-10"
            x2="100"
            y2="-10"
            stroke="lightgray"
            stroke-width="0.5"
            stroke-linecap="square"/>
      <line x1="0"
            y1="-20"
            x2="100"
            y2="-20"
            stroke="lightgray"
            stroke-width="0.5"
            stroke-linecap="square"/>
      <line x1="0"
            y1="-30"
            x2="100"
            y2="-30"
            stroke="lightgray"
            stroke-width="0.5"
            stroke-linecap="square"/>
      <line x1="0"
            y1="-40"
            x2="100"
            y2="-40"
            stroke="lightgray"
            stroke-width="0.5"
            stroke-linecap="square"/>
      <line x1="0"
            y1="-50"
            x2="100"
            y2="-50"
            stroke="lightgray"
            stroke-width="0.5"
            stroke-linecap="square"/>
      <line x1="0"
            y1="-60"
            x2="100"
            y2="-60"
            stroke="lightgray"
            stroke-width="0.5"
            stroke-linecap="square"/>
      <line x1="0"
            y1="-70"
            x2="100"
            y2="-70"
            stroke="lightgray"
            stroke-width="0.5"
            stroke-linecap="square"/>
      <line x1="0"
            y1="-80"
            x2="100"
            y2="-80"
            stroke="lightgray"
            stroke-width="0.5"
            stroke-linecap="square"/>
      <line x1="0"
            y1="-90"
            x2="100"
            y2="-90"
            stroke="lightgray"
            stroke-width="0.5"
            stroke-linecap="square"/>
      <line x1="0"
            y1="-100"
            x2="100"
            y2="-100"
            stroke="lightgray"
            stroke-width="0.5"
            stroke-linecap="square"/>
      <polyline points="-40,-0.033546262790251184 -39,-0.049795542150327395 -38,-0.07318024188804728 -37,-0.10647662366679196 -36,-0.1533810679324463 -35,-0.21874911181828852 -34,-0.3088715408236772 -33,-0.43178400076330814 -32,-0.5976022895005938 -31,-0.8188701014374075 -30,-1.1108996538242306 -29,-1.4920786069067842 -28,-1.9841094744370298 -27,-2.612140985391822 -26,-3.404745473459933 -25,-4.393693362340742 -24,-5.613476283413372 -23,-7.100535373963702 -22,-8.89216174593863 -21,-11.025052530448521 -20,-13.53352832366127 -19,-16.44744565771549 -18,-19.789869908361464 -17,-23.57460765558636 -16,-27.80373004531941 -15,-32.465246735834974 -14,-37.531109885139955 -13,-42.95573582107391 -12,-48.67522559599717 -11,-54.60744266397094 -10,-60.653065971263345 -9,-66.69768108584744 -8,-72.61490370736908 -7,-78.27045382418682 -6,-83.5270211411272 -5,-88.24969025845955 -4,-92.31163463866358 -3,-95.59974818331 -2,-98.01986733067552 -1,-99.50124791926824 0,-100 1,-99.50124791926824 2,-98.01986733067552 3,-95.59974818331 4,-92.31163463866358 5,-88.24969025845955 6,-83.5270211411272 7,-78.27045382418682 8,-72.61490370736908 9,-66.69768108584744 10,-60.653065971263345 11,-54.60744266397094 12,-48.67522559599717 13,-42.95573582107391 14,-37.531109885139955 15,-32.465246735834974 16,-27.80373004531941 17,-23.57460765558636 18,-19.789869908361464 19,-16.44744565771549 20,-13.53352832366127 21,-11.025052530448521 22,-8.89216174593863 23,-7.100535373963702 24,-5.613476283413372 25,-4.393693362340742 26,-3.404745473459933 27,-2.612140985391822 28,-1.9841094744370298 29,-1.4920786069067842 30,-1.1108996538242306 31,-0.8188701014374075 32,-0.5976022895005938 33,-0.43178400076330814 34,-0.3088715408236772 35,-0.21874911181828852 36,-0.1533810679324463 37,-0.10647662366679196 38,-0.07318024188804728 39,-0.049795542150327395 40,-0.033546262790251184"
                stroke="black"
                stroke-width="1"
                fill="none"/>
   </g>
</svg>
