<?xml version="1.0" encoding="UTF-8"?>
<svg xmlns="http://www.w3.org/2000/svg" viewBox="-50 -50 110 70">
   <g>
      <line x1="-30"
            y1="-0"
            x2="30"
            y2="-0"
            stroke="lightgray"
            stroke-width="0.5"
            stroke-linecap="square"/>
      <text x="-31"
            y="-0"
            text-anchor="end"
            alignment-baseline="central"
            font-size="3">0.0</text>
      <line x1="-30"
            y1="-10"
            x2="30"
            y2="-10"
            stroke="lightgray"
            stroke-width="0.5"
            stroke-linecap="square"/>
      <text x="-31"
            y="-10"
            text-anchor="end"
            alignment-baseline="central"
            font-size="3">0.1</text>
      <line x1="-30"
            y1="-20"
            x2="30"
            y2="-20"
            stroke="lightgray"
            stroke-width="0.5"
            stroke-linecap="square"/>
      <text x="-31"
            y="-20"
            text-anchor="end"
            alignment-baseline="central"
            font-size="3">0.2</text>
      <line x1="-30"
            y1="-30"
            x2="30"
            y2="-30"
            stroke="lightgray"
            stroke-width="0.5"
            stroke-linecap="square"/>
      <text x="-31"
            y="-30"
            text-anchor="end"
            alignment-baseline="central"
            font-size="3">0.3</text>
      <line x1="-30"
            y1="-40"
            x2="30"
            y2="-40"
            stroke="lightgray"
            stroke-width="0.5"
            stroke-linecap="square"/>
      <text x="-31"
            y="-40"
            text-anchor="end"
            alignment-baseline="central"
            font-size="3">0.4</text>
      <line x1="-30"
            y1="0"
            x2="-30"
            y2="-45"
            stroke="lightgray"
            stroke-width="0.5"
            stroke-linecap="square"/>
      <text x="-30" y="5" text-anchor="middle" font-size="3">σ3</text>
      <line x1="-20"
            y1="0"
            x2="-20"
            y2="-45"
            stroke="lightgray"
            stroke-width="0.5"
            stroke-linecap="square"/>
      <text x="-20" y="5" text-anchor="middle" font-size="3">σ2</text>
      <line x1="-10"
            y1="0"
            x2="-10"
            y2="-45"
            stroke="lightgray"
            stroke-width="0.5"
            stroke-linecap="square"/>
      <text x="-10" y="5" text-anchor="middle" font-size="3">σ1</text>
      <line x1="0"
            y1="0"
            x2="0"
            y2="-45"
            stroke="lightgray"
            stroke-width="0.5"
            stroke-linecap="square"/>
      <text x="0" y="5" text-anchor="middle" font-size="3">μ</text>
      <line x1="10"
            y1="0"
            x2="10"
            y2="-45"
            stroke="lightgray"
            stroke-width="0.5"
            stroke-linecap="square"/>
      <text x="10" y="5" text-anchor="middle" font-size="3">σ1</text>
      <line x1="20"
            y1="0"
            x2="20"
            y2="-45"
            stroke="lightgray"
            stroke-width="0.5"
            stroke-linecap="square"/>
      <text x="20" y="5" text-anchor="middle" font-size="3">σ2</text>
      <line x1="30"
            y1="0"
            x2="30"
            y2="-45"
            stroke="lightgray"
            stroke-width="0.5"
            stroke-linecap="square"/>
      <text x="30" y="5" text-anchor="middle" font-size="3">σ3</text>
      <polyline points="-30,-0.44318484119380075 -29,-0.5952532419775854 -28,-0.7915451582979969 -27,-1.042093481442259 -26,-1.3582969233685616 -25,-1.752830049356854 -24,-2.23945302948429 -23,-2.832703774160119 -22,-3.5474592846231423 -21,-4.3983595980427195 -20,-5.399096651318806 -19,-6.56158147746766 -18,-7.895015830089415 -17,-9.404907737688696 -16,-11.092083467945555 -15,-12.951759566589175 -14,-14.972746563574487 -13,-17.136859204780734 -12,-19.4186054983213 -11,-21.785217703255057 -10,-24.197072451914337 -9,-26.608524989875484 -8,-28.96915527614827 -7,-31.225393336676127 -6,-33.322460289179965 -5,-35.20653267642996 -4,-36.827014030332336 -3,-38.138781546052414 -2,-39.104269397545586 -1,-39.695254747701185 0,-39.894228040143275 1,-39.695254747701185 2,-39.104269397545586 3,-38.138781546052414 4,-36.827014030332336 5,-35.20653267642996 6,-33.322460289179965 7,-31.225393336676127 8,-28.96915527614827 9,-26.608524989875484 10,-24.197072451914337 11,-21.785217703255057 12,-19.4186054983213 13,-17.136859204780734 14,-14.972746563574487 15,-12.951759566589175 16,-11.092083467945555 17,-9.404907737688696 18,-7.895015830089415 19,-6.56158147746766 20,-5.399096651318806 21,-4.3983595980427195 22,-3.5474592846231423 23,-2.832703774160119 24,-2.23945302948429 25,-1.752830049356854 26,-1.3582969233685616 27,-1.042093481442259 28,-0.7915451582979969 29,-0.5952532419775854 30,-0.44318484119380075"
                stroke="black"
                stroke-width="1"
                fill="none"/>
   </g>
</svg>
