<?xml version="1.0" encoding="UTF-8"?>
<svg xmlns="http://www.w3.org/2000/svg" viewBox="0 -100 500 500">
   <g transform="translate(0,0)">
      <polyline points="-30,-0.44318484119380075 -20,-5.399096651318806 -10,-24.197072451914337 0,-39.894228040143275 10,-24.197072451914337 20,-5.399096651318806 30,-0.44318484119380075"
                stroke="black"
                stroke-width="1"
                fill="none"/>
   </g>
   <g transform="translate(300,0)">
      <polyline points="-40,-0.013383022576488537 -30,-0.44318484119380075 -20,-5.399096651318806 -10,-24.197072451914337 0,-39.894228040143275 10,-24.197072451914337 20,-5.399096651318806 30,-0.44318484119380075 40,-0.013383022576488537"
                stroke="black"
                stroke-width="1"
                fill="none"/>
   </g>
   <g transform="translate(0,100)">
      <polyline points="-50,-0.00014867195147342976 -40,-0.013383022576488537 -30,-0.44318484119380075 -20,-5.399096651318806 -10,-24.197072451914337 0,-39.894228040143275 10,-24.197072451914337 20,-5.399096651318806 30,-0.44318484119380075 40,-0.013383022576488537 50,-0.00014867195147342976"
                stroke="black"
                stroke-width="1"
                fill="none"/>
   </g>
   <g transform="translate(300,100)">
      <polyline points="-60,-6.075882849823286E-7 -50,-0.00014867195147342976 -40,-0.013383022576488537 -30,-0.44318484119380075 -20,-5.399096651318806 -10,-24.197072451914337 0,-39.894228040143275 10,-24.197072451914337 20,-5.399096651318806 30,-0.44318484119380075 40,-0.013383022576488537 50,-0.00014867195147342976 60,-6.075882849823286E-7"
                stroke="black"
                stroke-width="1"
                fill="none"/>
   </g>
   <g transform="translate(0,200)">
      <polyline points="-70,-9.134720408364594E-10 -60,-6.075882849823286E-7 -50,-0.00014867195147342976 -40,-0.013383022576488537 -30,-0.44318484119380075 -20,-5.399096651318806 -10,-24.197072451914337 0,-39.894228040143275 10,-24.197072451914337 20,-5.399096651318806 30,-0.44318484119380075 40,-0.013383022576488537 50,-0.00014867195147342976 60,-6.075882849823286E-7 70,-9.134720408364594E-10"
                stroke="black"
                stroke-width="1"
                fill="none"/>
   </g>
   <g transform="translate(300,200)">
      <polyline points="-80,-5.052271083536892E-13 -70,-9.134720408364594E-10 -60,-6.075882849823286E-7 -50,-0.00014867195147342976 -40,-0.013383022576488537 -30,-0.44318484119380075 -20,-5.399096651318806 -10,-24.197072451914337 0,-39.894228040143275 10,-24.197072451914337 20,-5.399096651318806 30,-0.44318484119380075 40,-0.013383022576488537 50,-0.00014867195147342976 60,-6.075882849823286E-7 70,-9.134720408364594E-10 80,-5.052271083536892E-13"
                stroke="black"
                stroke-width="1"
                fill="none"/>
   </g>
   <g transform="translate(0,300)">
      <polyline points="-90,-1.0279773571668916E-16 -80,-5.052271083536892E-13 -70,-9.134720408364594E-10 -60,-6.075882849823286E-7 -50,-0.00014867195147342976 -40,-0.013383022576488537 -30,-0.44318484119380075 -20,-5.399096651318806 -10,-24.197072451914337 0,-39.894228040143275 10,-24.197072451914337 20,-5.399096651318806 30,-0.44318484119380075 40,-0.013383022576488537 50,-0.00014867195147342976 60,-6.075882849823286E-7 70,-9.134720408364594E-10 80,-5.052271083536892E-13 90,-1.0279773571668916E-16"
                stroke="black"
                stroke-width="1"
                fill="none"/>
   </g>
   <g transform="translate(300,300)">
      <polyline points="-100,-7.69459862670642E-21 -90,-1.0279773571668916E-16 -80,-5.052271083536892E-13 -70,-9.134720408364594E-10 -60,-6.075882849823286E-7 -50,-0.00014867195147342976 -40,-0.013383022576488537 -30,-0.44318484119380075 -20,-5.399096651318806 -10,-24.197072451914337 0,-39.894228040143275 10,-24.197072451914337 20,-5.399096651318806 30,-0.44318484119380075 40,-0.013383022576488537 50,-0.00014867195147342976 60,-6.075882849823286E-7 70,-9.134720408364594E-10 80,-5.052271083536892E-13 90,-1.0279773571668916E-16 100,-7.69459862670642E-21"
                stroke="black"
                stroke-width="1"
                fill="none"/>
   </g>
</svg>
