<?xml version="1.0" encoding="UTF-8"?>
<svg xmlns="http://www.w3.org/2000/svg"
     xmlns:djb="http://www.obdurodon.org"
     viewBox="-10 -115 220 125">
   <style type="text/css">
                #regression line {
                    stroke: red;
                    stroke-width: 0.5;
                    stroke-opacity: 0.5;
                }
                .spline {
                    stroke-width: 0.5;
                    stroke-opacity: 0.5;
                    fill: none;
                }
                #exponential-small .spline {
                    stroke: darkgoldenrod;
                }
                #exponential-mid .spline {
                    stroke: blue;
                }
                #exponential-large .spline {
                    stroke: green;
                }
                #exponential-jumbo .spline {
                    stroke: purple;
                }</style>
   <rect x="0"
         y="-100"
         width="200"
         height="100"
         stroke="lightgray"
         stroke-width="0.5"
         stroke-linecap="square"
         fill="none"/>
   <text x="-1"
         y="0"
         text-anchor="end"
         alignment-baseline="central"
         fill="lightgray"
         font-size="3">0.0</text>
   <text x="-1"
         y="-100"
         text-anchor="end"
         alignment-baseline="central"
         fill="lightgray"
         font-size="3">100.0</text>
   <text x="-1"
         y="-54.591238680917094"
         text-anchor="end"
         alignment-baseline="central"
         fill="lightgray"
         font-size="3">54.6</text>
   <text x="200"
         y="-50.82141765146487"
         text-anchor="start"
         alignment-baseline="central"
         fill="lightgray"
         font-size="3">52.7</text>
   <line x1="0"
         y1="-54.591238680917094"
         x2="200"
         y2="-54.591238680917094"
         stroke="lightgray"
         stroke-width="0.5"
         stroke-linecap="square"/>
   <text x="100"
         y="-105"
         text-anchor="middle"
         fill="black"
         font-size="4">
                n = 100; 
                    window = 
                    <tspan fill="darkgoldenrod">3</tspan>, 
                    <tspan fill="blue">5</tspan>, 
                    <tspan fill="green">7</tspan>, 
                    <tspan fill="purple">33</tspan>; 
                    weight(y) = 1
                <tspan dx="-1" dy="-2" font-size="3">-d</tspan>
   </text>
   <circle cx="0" cy="-37.82685607596936" r="0.5" fill="black"/>
   <circle cx="2" cy="-84.48431837625692" r="0.5" fill="black"/>
   <circle cx="4" cy="-31.343017608422674" r="0.5" fill="black"/>
   <circle cx="6" cy="-12.687525446493364" r="0.5" fill="black"/>
   <circle cx="8" cy="-57.77070504595107" r="0.5" fill="black"/>
   <circle cx="10" cy="-59.95488248819916" r="0.5" fill="black"/>
   <circle cx="12" cy="-48.37239934867013" r="0.5" fill="black"/>
   <circle cx="14" cy="-35.823735338994155" r="0.5" fill="black"/>
   <circle cx="16" cy="-90.23704631466131" r="0.5" fill="black"/>
   <circle cx="18" cy="-91.07210197226743" r="0.5" fill="black"/>
   <circle cx="20" cy="-75.67925417441197" r="0.5" fill="black"/>
   <circle cx="22" cy="-3.4932257899690455" r="0.5" fill="black"/>
   <circle cx="24" cy="-37.43803538968693" r="0.5" fill="black"/>
   <circle cx="26" cy="-94.213414181791" r="0.5" fill="black"/>
   <circle cx="28" cy="-10.170504081260102" r="0.5" fill="black"/>
   <circle cx="30" cy="-38.10851468077878" r="0.5" fill="black"/>
   <circle cx="32" cy="-11.02390520157469" r="0.5" fill="black"/>
   <circle cx="34" cy="-58.401087605235226" r="0.5" fill="black"/>
   <circle cx="36" cy="-55.75674192725313" r="0.5" fill="black"/>
   <circle cx="38" cy="-34.67028725224554" r="0.5" fill="black"/>
   <circle cx="40" cy="-55.27847458014229" r="0.5" fill="black"/>
   <circle cx="42" cy="-36.997862087386444" r="0.5" fill="black"/>
   <circle cx="44" cy="-65.40187288503996" r="0.5" fill="black"/>
   <circle cx="46" cy="-62.68513590854787" r="0.5" fill="black"/>
   <circle cx="48" cy="-10.46140665742078" r="0.5" fill="black"/>
   <circle cx="50" cy="-73.6843796730471" r="0.5" fill="black"/>
   <circle cx="52" cy="-99.12282573184264" r="0.5" fill="black"/>
   <circle cx="54" cy="-96.38125419303616" r="0.5" fill="black"/>
   <circle cx="56" cy="-90.1128484299351" r="0.5" fill="black"/>
   <circle cx="58" cy="-77.15329380626046" r="0.5" fill="black"/>
   <circle cx="60" cy="-27.003770105668835" r="0.5" fill="black"/>
   <circle cx="62" cy="-51.06410032200726" r="0.5" fill="black"/>
   <circle cx="64" cy="-51.92616787148544" r="0.5" fill="black"/>
   <circle cx="66" cy="-69.08747678279119" r="0.5" fill="black"/>
   <circle cx="68" cy="-30.02485879876229" r="0.5" fill="black"/>
   <circle cx="70" cy="-74.86568256317003" r="0.5" fill="black"/>
   <circle cx="72" cy="-28.56104303500848" r="0.5" fill="black"/>
   <circle cx="74" cy="-1.5278078988207766" r="0.5" fill="black"/>
   <circle cx="76" cy="-81.7832204020679" r="0.5" fill="black"/>
   <circle cx="78" cy="-79.78653677352182" r="0.5" fill="black"/>
   <circle cx="80" cy="-95.70644961571465" r="0.5" fill="black"/>
   <circle cx="82" cy="-88.54343583559596" r="0.5" fill="black"/>
   <circle cx="84" cy="-40.21319514758319" r="0.5" fill="black"/>
   <circle cx="86" cy="-93.92133947180365" r="0.5" fill="black"/>
   <circle cx="88" cy="-62.96500412321474" r="0.5" fill="black"/>
   <circle cx="90" cy="-82.21912959925575" r="0.5" fill="black"/>
   <circle cx="92" cy="-77.96467447740699" r="0.5" fill="black"/>
   <circle cx="94" cy="-16.24143102206601" r="0.5" fill="black"/>
   <circle cx="96" cy="-58.74449270981136" r="0.5" fill="black"/>
   <circle cx="98" cy="-42.17575339500992" r="0.5" fill="black"/>
   <circle cx="100" cy="-46.44557293778865" r="0.5" fill="black"/>
   <circle cx="102" cy="-38.82757555703896" r="0.5" fill="black"/>
   <circle cx="104" cy="-79.52063468941853" r="0.5" fill="black"/>
   <circle cx="106" cy="-89.91773515723641" r="0.5" fill="black"/>
   <circle cx="108" cy="-22.486156597576578" r="0.5" fill="black"/>
   <circle cx="110" cy="-84.61796717366687" r="0.5" fill="black"/>
   <circle cx="112" cy="-50.5734646611839" r="0.5" fill="black"/>
   <circle cx="114" cy="-17.293100195811483" r="0.5" fill="black"/>
   <circle cx="116" cy="-78.63569930786338" r="0.5" fill="black"/>
   <circle cx="118" cy="-75.32137990237669" r="0.5" fill="black"/>
   <circle cx="120" cy="-48.15495495051848" r="0.5" fill="black"/>
   <circle cx="122" cy="-6.3201824978091015" r="0.5" fill="black"/>
   <circle cx="124" cy="-30.732538133521416" r="0.5" fill="black"/>
   <circle cx="126" cy="-18.346584195706463" r="0.5" fill="black"/>
   <circle cx="128" cy="-53.3539134757275" r="0.5" fill="black"/>
   <circle cx="130" cy="-72.88231019576745" r="0.5" fill="black"/>
   <circle cx="132" cy="-0.9312809835780977" r="0.5" fill="black"/>
   <circle cx="134" cy="-10.613246878528814" r="0.5" fill="black"/>
   <circle cx="136" cy="-84.67044358222483" r="0.5" fill="black"/>
   <circle cx="138" cy="-68.12828958474249" r="0.5" fill="black"/>
   <circle cx="140" cy="-58.33127488731932" r="0.5" fill="black"/>
   <circle cx="142" cy="-84.84812914033543" r="0.5" fill="black"/>
   <circle cx="144" cy="-46.068552954545524" r="0.5" fill="black"/>
   <circle cx="146" cy="-32.865808809126776" r="0.5" fill="black"/>
   <circle cx="148" cy="-10.459037217305035" r="0.5" fill="black"/>
   <circle cx="150" cy="-40.176086018691095" r="0.5" fill="black"/>
   <circle cx="152" cy="-27.87510181701296" r="0.5" fill="black"/>
   <circle cx="154" cy="-28.93441075047811" r="0.5" fill="black"/>
   <circle cx="156" cy="-28.260459546962057" r="0.5" fill="black"/>
   <circle cx="158" cy="-39.31814711568673" r="0.5" fill="black"/>
   <circle cx="160" cy="-13.167798873642134" r="0.5" fill="black"/>
   <circle cx="162" cy="-12.308068294096863" r="0.5" fill="black"/>
   <circle cx="164" cy="-72.18806387289428" r="0.5" fill="black"/>
   <circle cx="166" cy="-97.90928001247161" r="0.5" fill="black"/>
   <circle cx="168" cy="-85.321813280116" r="0.5" fill="black"/>
   <circle cx="170" cy="-78.09183503244725" r="0.5" fill="black"/>
   <circle cx="172" cy="-61.210669237984284" r="0.5" fill="black"/>
   <circle cx="174" cy="-90.57892730822712" r="0.5" fill="black"/>
   <circle cx="176" cy="-42.416086863008736" r="0.5" fill="black"/>
   <circle cx="178" cy="-39.8749645642942" r="0.5" fill="black"/>
   <circle cx="180" cy="-58.75055692797236" r="0.5" fill="black"/>
   <circle cx="182" cy="-29.987593507662" r="0.5" fill="black"/>
   <circle cx="184" cy="-56.970875711525004" r="0.5" fill="black"/>
   <circle cx="186" cy="-86.0763439019758" r="0.5" fill="black"/>
   <circle cx="188" cy="-15.817545316403624" r="0.5" fill="black"/>
   <circle cx="190" cy="-6.411733612462378" r="0.5" fill="black"/>
   <circle cx="192" cy="-26.92851817914177" r="0.5" fill="black"/>
   <circle cx="194" cy="-92.53192586024514" r="0.5" fill="black"/>
   <circle cx="196" cy="-27.778558835132326" r="0.5" fill="black"/>
   <circle cx="198" cy="-98.98437908679276" r="0.5" fill="black"/>
   <circle cx="200" cy="-64.99108538772853" r="0.5" fill="black"/>
   <polyline points="0,-37.82685607596936 2,-84.48431837625692 4,-31.343017608422674 6,-12.687525446493364 8,-57.77070504595107 10,-59.95488248819916 12,-48.37239934867013 14,-35.823735338994155 16,-90.23704631466131 18,-91.07210197226743 20,-75.67925417441197 22,-3.4932257899690455 24,-37.43803538968693 26,-94.213414181791 28,-10.170504081260102 30,-38.10851468077878 32,-11.02390520157469 34,-58.401087605235226 36,-55.75674192725313 38,-34.67028725224554 40,-55.27847458014229 42,-36.997862087386444 44,-65.40187288503996 46,-62.68513590854787 48,-10.46140665742078 50,-73.6843796730471 52,-99.12282573184264 54,-96.38125419303616 56,-90.1128484299351 58,-77.15329380626046 60,-27.003770105668835 62,-51.06410032200726 64,-51.92616787148544 66,-69.08747678279119 68,-30.02485879876229 70,-74.86568256317003 72,-28.56104303500848 74,-1.5278078988207766 76,-81.7832204020679 78,-79.78653677352182 80,-95.70644961571465 82,-88.54343583559596 84,-40.21319514758319 86,-93.92133947180365 88,-62.96500412321474 90,-82.21912959925575 92,-77.96467447740699 94,-16.24143102206601 96,-58.74449270981136 98,-42.17575339500992 100,-46.44557293778865 102,-38.82757555703896 104,-79.52063468941853 106,-89.91773515723641 108,-22.486156597576578 110,-84.61796717366687 112,-50.5734646611839 114,-17.293100195811483 116,-78.63569930786338 118,-75.32137990237669 120,-48.15495495051848 122,-6.3201824978091015 124,-30.732538133521416 126,-18.346584195706463 128,-53.3539134757275 130,-72.88231019576745 132,-0.9312809835780977 134,-10.613246878528814 136,-84.67044358222483 138,-68.12828958474249 140,-58.33127488731932 142,-84.84812914033543 144,-46.068552954545524 146,-32.865808809126776 148,-10.459037217305035 150,-40.176086018691095 152,-27.87510181701296 154,-28.93441075047811 156,-28.260459546962057 158,-39.31814711568673 160,-13.167798873642134 162,-12.308068294096863 164,-72.18806387289428 166,-97.90928001247161 168,-85.321813280116 170,-78.09183503244725 172,-61.210669237984284 174,-90.57892730822712 176,-42.416086863008736 178,-39.8749645642942 180,-58.75055692797236 182,-29.987593507662 184,-56.970875711525004 186,-86.0763439019758 188,-15.817545316403624 190,-6.411733612462378 192,-26.92851817914177 194,-92.53192586024514 196,-27.778558835132326 198,-98.98437908679276 200,-64.99108538772853"
             stroke="black"
             stroke-width="0.5"
             fill="none"/>
   <g id="regression">
      <g>
         <line x1="0"
               y1="-54.591238680917094"
               x2="200"
               y2="-50.82141765146487"
               class="regression"/>
      </g>
   </g>
   <g id="exponential-small">
      <g>
         <path d="M0,-23.4412719109876 Q0.8185051265193264,-39.570268271070354 2,-50.23129695211628 C2.4185051265193263,-54.007610550365904 3.4783670120206964,-60.87350654556235 4,-59.53462760922647 C5.0783670120206965,-56.7667756686754 4.990830355499213,-47.763442323613816 6,-39.96446975989891 C6.590830355499212,-35.398468634659274 7.386753120686781,-27.536518781378007 8,-28.622193386840117 C8.986753120686782,-30.369112680077905 8.948845110563493,-39.71650795598601 10,-47.04595450664866 C10.54884511056349,-50.87291753835192 11.153708892854759,-56.283682116668224 12,-56.513217342754885 C12.753708892854759,-56.71764196646212 12.977229697286138,-49.14058110999839 14,-48.13085413113339 C14.577229697286137,-47.56098580702841 15.733720093178599,-50.65289665463064 16,-52.56422908532994 C17.333720093178595,-62.1375479962357 16.877651316872612,-67.17600275854551 18,-76.84248248514605 C18.477651316872613,-80.95636156777435 19.53896810480617,-88.78566417655723 20,-87.01512610840203 C21.13896810480617,-82.64105479360485 21.282703644358417,-71.70049374973138 22,-61.4809590277651 C22.88270364435842,-48.904817420774265 22.874082713593918,-35.18693783896029 24,-30.025935286009247 C24.47408271359392,-27.852825302967634 25.274297510865736,-37.887435809116326 26,-43.145677687783476 C26.874297510865734,-49.48059847816553 27.307239007289233,-59.87131959744651 28,-59.00884195863226 C28.907239007289235,-57.87934222484212 29.039936380993243,-46.4837212024737 30,-38.1657342562725 C30.63993638099324,-32.62132828346004 30.861187776868217,-26.78034641047757 32,-24.35285966109809 C32.46118777686822,-23.369793976884907 33.58951322590754,-27.428589840290478 34,-29.639353172290846 C35.18951322590753,-36.04572820978107 34.808667584980356,-39.49025027055315 36,-45.89570558482457 C36.40866758498036,-48.09299487283551 37.25040634545412,-51.29646282380662 38,-51.14621467799676 C38.85040634545412,-50.97575969106544 38.78975005954468,-46.78525390704997 40,-45.09394775297162 C40.389750059544674,-44.549277885842926 41.429063517522124,-45.04599012996439 42,-45.55627462497914 C43.029063517522125,-46.47601819277126 43.54014499933536,-47.2819329777439 44,-48.66901790998878 C45.140144999335355,-52.10809750435367 45.12401143634198,-57.26266861395417 46,-57.62168594150356 C46.72401143634198,-57.91841658591431 47.35293762999954,-53.26847231215824 48,-50.30838783988912 C48.95293762999954,-45.94903082520047 49.505950674559784,-37.60257272838596 50,-39.32308222410913 C51.105950674559786,-43.17451676596607 51.244092952450885,-54.268828162938426 52,-64.2382479338394 C52.844092952450886,-75.37072380627164 52.59894697950918,-81.1281374395863 54,-92.07782133244214 C54.19894697950918,-93.63265652083555 55.43885053248844,-96.00987742520111 56,-95.49954563696252 C57.03885053248844,-94.55477337814094 57.581001445635614,-91.33573341856426 58,-88.44006121479171 C59.181001445635616,-80.27823577859174 59.23172272881366,-76.0924690544107 60,-67.85580153703121 C60.83172272881365,-58.938938002454556 60.53247951264713,-53.84452033095344 62,-45.55623358490135 C62.13247951264713,-44.808013578257835 63.75013273734692,-44.6120847180249 64,-45.2645346552922 C65.35013273734693,-48.789982568841296 64.67055808093293,-52.754826566317114 66,-56.00097821194233 C66.27055808093293,-56.66161072778325 67.47099120966938,-55.6927902970253 68,-55.031495058957525 C69.07099120966939,-53.69268670659694 68.93687162524564,-51.78535537041867 70,-51.00071923587144 C70.53687162524564,-50.60448404284674 71.82752386373224,-52.83915281696001 72,-52.07931674002771 C73.42752386373223,-45.79042277581221 72.75753805896561,-40.74959674495229 74,-33.37889413300194 C74.3575380589656,-31.257857972413 75.77416375618769,-26.778076028717464 76,-28.349969808679482 C77.3741637561877,-37.914596923164524 77.0601732788788,-48.08242534287338 78,-61.2201963691196 C78.6601732788788,-70.4487117758842 78.7300749334463,-75.14904572430738 80,-84.26568589120654 C80.3300749334463,-86.63525436071426 81.4615673352181,-90.74525911503586 82,-89.93571796013677 C83.0615673352181,-88.33963640200223 83.22716833270493,-82.9297582093894 84,-78.25162910862244 C84.82716833270493,-73.24458758559129 84.98493989784136,-67.11758791174788 86,-65.7227914006415 C86.58493989784135,-64.91902408973942 86.90893478212098,-70.08352053656428 88,-72.75521955360131 C88.50893478212097,-74.00145170805656 89.02099007452209,-74.63974972094275 90,-75.51761932937222 C90.62099007452208,-76.07445567941554 91.77023112493805,-77.02670385054866 92,-76.3419844497833 C93.37023112493804,-72.25864707641334 93.39811670357388,-68.72010269044638 94,-63.59747739403393 C94.99811670357388,-55.102511833668096 94.57403828975784,-49.29268279190315 96,-42.298007307837594 C96.17403828975783,-41.444308817959445 97.36348138855226,-43.16698852259651 98,-43.97654245917467 C98.96348138855225,-45.201942843223456 99.24228827875163,-47.48066091490191 100,-47.385393109404966 C100.84228827875164,-47.279491413994656 101.41855146305097,-42.96195176023023 102,-43.47361870690654 C103.01855146305097,-44.36993039059675 103.57291564705702,-47.8652436801572 104,-50.90533968532127 C105.17291564705701,-59.25445420670583 104.56872809386789,-64.94943372727381 106,-71.94664502327811 C106.16872809386788,-72.7715240132921 107.78098856099407,-71.39517706781011 108,-70.46056540036697 C109.38098856099407,-64.56732061110452 108.84417446061929,-57.733822180753684 110,-54.877003881514106 C110.4441744606193,-53.77915158121631 111.39806616238994,-61.19275283687568 112,-60.57388890152355 C112.99806616238993,-59.54775095345465 113.20024533276934,-54.68830506840075 114,-50.76449917296154 C114.80024533276934,-46.83828594385835 115.49331706644195,-39.465910550464315 116,-40.94884109016756 C117.09331706644195,-44.14869875267119 116.79859498862442,-53.93863702876063 118,-62.471469678478734 C118.39859498862441,-65.30244199900713 119.64279325849006,-70.96431944810442 120,-69.3583535157838 C121.24279325849005,-63.7708788068352 121.14422181209989,-54.43123806406215 122,-44.48786807530569 C122.74422181209988,-35.84068246571444 122.56009013738148,-31.14521388676453 124,-22.881964519914526 C124.16009013738147,-21.963250952698093 125.65848580421164,-20.908592493399322 126,-21.5329607401396 C127.25848580421163,-23.8337686854997 127.49708356747611,-26.680623089238647 128,-30.194905000165463 C129.09708356747612,-37.8611109274757 128.55421950504285,-42.321223989117236 130,-49.484180335732226 C130.15421950504287,-50.248243474135094 131.89257968101452,-50.76828054834544 132,-50.01245371271012 C133.49257968101452,-39.51042031819779 132.66587415637665,-29.112613579851136 134,-21.339529760363114 C134.26587415637664,-19.790453927053143 135.77700109094363,-24.439095680734276 136,-26.70705458071514 C137.37700109094362,-40.711526139361126 136.6965310528633,-47.973277535621115 138,-62.02060590693024 C138.2965310528633,-65.21628546723798 138.84785819142388,-68.26231212254021 140,-69.81457440975728 C140.44785819142388,-70.41796660973978 141.07619516986495,-67.70779687074885 142,-67.40974212492914 C142.67619516986494,-67.19157571909952 143.80172232548657,-69.2649346969986 144,-68.52402153063393 C145.40172232548656,-63.28614223288227 145.32162697995003,-58.90038857147153 146,-52.46276096463831 C146.92162697995002,-43.71670073822837 146.8009148584453,-39.25000604671473 148,-30.56480194752603 C148.4009148584453,-27.6608985871022 149.15061103700805,-23.679666005514637 150,-23.489992315606983 C150.75061103700804,-23.322376333674242 150.8479691595999,-27.446665563857813 152,-29.671577767925047 C152.4479691595999,-30.536738677934533 153.3146172264364,-31.41573215954759 154,-31.21517510079878 C154.9146172264364,-30.947539338870698 155.19791477772134,-28.50546825590479 156,-28.501095716232808 C156.79791477772133,-28.496745911594175 157.05435375822444,-30.835195691044596 158,-31.19336924002224 C158.65435375822443,-31.441212669749238 159.71513112345798,-30.849587292783745 160,-30.01613816299441 C161.31513112345797,-26.168420912481636 161.09599242415962,-20.06068733041477 162,-19.490453289266966 C162.6959924241596,-19.051431998690017 163.70314684942258,-24.21589573229531 164,-27.492999833682532 C165.30314684942257,-41.879062021824225 165.0498275146671,-49.19645705263553 166,-63.64836901308926 C166.6498275146671,-73.53210083695787 166.5523460759291,-80.00346080741375 168,-88.33210929448836 C168.1523460759291,-89.20858736269314 169.6971563086814,-87.61916109458804 170,-86.66118540128771 C171.2971563086814,-82.55793263509217 170.784219149856,-79.90027794859849 172,-75.67903814574869 C172.384219149856,-74.3450138697477 173.07082364497256,-73.81437299857646 174,-72.77302520416075 C174.67082364497256,-72.02121881202171 175.79661917558147,-72.15974605052168 176,-71.19615267936182 C177.39661917558146,-64.57914252871126 176.93647047168935,-60.725686727492885 178,-53.8215163996347 C178.53647047168934,-50.33888294770511 178.76080299555198,-47.391727391996916 180,-45.22914322989237 C180.36080299555198,-44.59948802493313 181.3268388742085,-47.06053483299253 182,-46.84091798197523 C182.9268388742085,-46.53853950651772 183.67216518328962,-43.05043380144648 184,-43.924154913705344 C185.27216518328962,-47.314635491925166 184.77736026730642,-52.21010572455052 186,-57.50142220817195 C186.37736026730641,-59.134554642256404 187.80359527331316,-62.53501642897867 188,-61.23527720797006 C189.40359527331316,-51.946764360434436 188.98090144815293,-43.09256085020715 190,-31.030792036811356 C190.58090144815293,-24.155403039066133 191.33706865635418,-12.704180682628447 192,-13.892382680117537 C192.9370686563542,-15.571933451003012 193.15577076550449,-28.48091113033456 194,-38.200173957747765 C194.75577076550448,-46.90105093176398 194.57653992446282,-51.5556407591699 196,-59.94273218369109 C196.17653992446282,-60.982913437801045 197.68617044910053,-60.76866194371779 198,-61.76835565432564 Q199.28617044910055,-65.86540930988599 200,-72.68460059911159"
               class="spline"
               fill="none"/>
      </g>
   </g>
   <g id="exponential-mid">
      <g>
         <path d="M0,-23.644794771399898 Q0.7461509073174657,-38.377085822797376 2,-48.052324858006244 C2.3461509073174653,-50.72337418132292 3.456232270723725,-55.396992048330205 4,-54.51051566771375 C5.056232270723726,-52.78859487317217 4.817896302297059,-46.60516949006704 6,-41.53133192011117 C6.417896302297059,-39.737633141348624 7.435027548283649,-36.765830384267964 8,-37.34167479591771 C9.035027548283649,-38.396619736634776 8.983476592386683,-42.375754471689966 10,-45.60830530102821 C10.583476592386683,-47.463764534423944 11.101424096798835,-48.33258086905289 12,-50.06169995275265 C12.701424096798835,-51.411442125028785 13.251693292420201,-51.97863922974535 14,-53.30545844096796 C14.851693292420201,-54.815591934368534 15.672372976074614,-55.46895727035961 16,-57.15408171431061 C17.272372976074614,-63.69843443014245 16.571929203821806,-68.02773290126936 18,-73.87915134042505 C18.171929203821808,-74.5836190153923 19.764720484585773,-74.24533439796768 20,-73.54379699961797 C21.364720484585774,-69.47458401885642 21.398102630524257,-66.61615196916226 22,-61.95227539264691 C22.99810263052426,-54.21835310700037 22.553829609224778,-49.36465164919801 24,-42.54929984421324 C24.15382960922478,-41.82434868245684 25.686198089658216,-42.40974576193222 26,-43.10151797579399 C27.286198089658214,-45.93692486983916 27.44726718003869,-52.43440009645619 28,-51.36724761398059 C29.04726718003869,-49.34530549179625 28.58435848951078,-41.26201406174405 30,-35.378781464144154 C30.18435848951078,-34.61261017918425 31.518137761752065,-35.35504934323653 32,-34.74373790758109 C33.11813776175207,-33.32521961305247 33.583487773400705,-29.340949021796213 34,-30.304207138684 C35.18348777340071,-33.04123172322861 34.76417091999812,-38.66709365685181 36,-43.99444466116209 C36.36417091999812,-45.56429468960586 37.04879819852289,-47.161828286905305 38,-47.54720972056911 C38.64879819852289,-47.810071691096255 39.2983665370529,-45.43724671733398 40,-45.61505317163947 C40.8983665370529,-45.84271530159138 40.97603239088853,-47.77864583650795 42,-48.56088118121262 C42.57603239088852,-49.000927225480304 43.505097541509805,-48.16218798673537 44,-48.670756644070366 C45.10509754150981,-49.80637026503398 44.96124102273341,-51.984671019140684 46,-52.67133687695915 C46.56124102273341,-53.0423421406944 47.39249992993653,-52.037920469052224 48,-51.314934447954656 C48.99249992993653,-50.133759974658794 49.73047606196048,-46.83403233621347 50,-47.910935640975566 C51.330476061960475,-53.22695349992358 51.134606283060215,-59.550071205249296 52,-67.29723735722993 C52.73460628306022,-73.87356997873479 52.92227193805366,-77.20315498762723 54,-83.7196825746893 C54.52227193805366,-86.87762158773556 55.21681316061068,-91.55290660252275 56,-91.48340385750076 C56.81681316061068,-91.41091699488085 57.41415373457116,-86.65338983917654 58,-83.36470855558453 C59.01415373457116,-77.67169896862796 59.29742774717232,-74.77548353135879 60,-69.02917668112931 C60.897427747172316,-61.689155508350225 60.55679628990988,-57.213110033713136 62,-50.64888849806313 C62.156796289909884,-49.93572127451698 63.203701076384576,-50.864619001857605 64,-50.83570478313893 C64.80370107638457,-50.806521786631144 65.616602600816,-49.949399513170384 66,-50.503645459996974 C67.216602600816,-52.26238733418831 67.28793206084259,-56.912676553008474 68,-56.61817433568375 C68.8879320608426,-56.2509369607483 68.71978467418819,-51.37554297352607 70,-48.84929647934655 C70.31978467418818,-48.21826598332592 71.75389849117848,-49.39963058576348 72,-48.72498186018336 C73.35389849117848,-45.01348128461869 72.64746507288943,-41.46130509871146 74,-37.883923226484576 C74.24746507288943,-37.22939146688323 75.87274755935505,-37.39698577929424 76,-38.145197780612776 C77.47274755935504,-46.804579032847606 77.02970001177266,-52.11847562571308 78,-61.40290636036799 C78.62970001177266,-67.42826574803074 78.95216733961267,-70.46135352880086 80,-76.4196730864069 C80.55216733961267,-79.55947735388347 80.98735150076523,-83.24887827828326 82,-84.14821592307452 C82.58735150076522,-84.6698454082927 83.54630318151689,-81.75317275706657 84,-79.9720909114305 C85.1463031815169,-75.47203778559921 85.0054351506672,-69.61191820765976 86,-68.44537849440613 C86.60543515066719,-67.73525471763405 86.94177531747226,-74.27868920614183 88,-75.28043218636621 C88.54177531747227,-75.7932907787781 88.96768901866403,-73.05529691264407 90,-72.23188242599679 C90.56768901866403,-71.77906988178303 91.71520748742014,-72.7436735189765 92,-72.0898646092136 C93.31520748742015,-69.07049318798968 93.43343922187006,-66.70494411624905 94,-63.04893159852976 C95.03343922187007,-56.38015593084227 94.59978229538237,-51.67806927156201 96,-46.27789414569664 C96.19978229538236,-45.50740011569382 97.45448547626133,-48.012666951720476 98,-47.62225870885929 C99.05448547626132,-46.86759535161561 99.27075708112457,-43.235976534443985 100,-43.41521514543447 C100.87075708112458,-43.62923613307956 101.20917095612009,-46.52584257256605 102,-48.60540770544823 C102.80917095612008,-50.733204755784925 103.44464361720198,-51.73370384912637 104,-53.93362060348166 C105.04464361720198,-58.071736355810685 104.88874822932566,-60.3445842594749 106,-64.45048897215901 C106.48874822932567,-66.2563386554279 107.5483183582984,-69.56436730998533 108,-68.71300659336416 C109.1483183582984,-66.54857693723034 108.72274845545601,-59.954962732815744 110,-56.91101304027153 C110.32274845545602,-56.141837958079535 111.58686795007031,-59.819230214780646 112,-59.18019465652363 C113.18686795007031,-57.344338970237324 112.790739585158,-53.87608107144035 114,-50.723784928913226 C114.39073958515799,-49.70520624072626 115.68100974098162,-48.02521274054539 116,-48.75300757973841 C117.28100974098162,-51.675705850561386 116.72098881087507,-56.94186489282596 118,-59.85001770395322 C118.32098881087506,-60.57986629372623 119.68394949533493,-58.9006883595994 120,-57.8480110819891 C121.28394949533492,-53.57152855977132 121.3960638079557,-51.083158944352874 122,-46.52711820438303 C122.9960638079557,-39.012901721853204 122.55416169837645,-34.59426929153747 124,-27.672368025739935 C124.15416169837646,-26.93432418367877 125.54623688647018,-26.877684340040528 126,-27.377255434736277 C127.14623688647018,-28.63920643754056 127.48835936354737,-30.109366449826716 128,-32.07617326949002 C129.08835936354737,-36.259954748050504 128.64937812930143,-39.09699417796608 130,-42.753726180295736 C130.24937812930145,-43.42890330120672 131.7740400993268,-43.57702815257344 132,-42.90594607759162 C133.37404009932683,-38.825161486089435 132.86580670205896,-32.98344424196069 134,-30.874059514085722 C134.46580670205896,-30.007747267973283 135.68175972661615,-33.504061712285925 136,-35.4667036426231 C137.28175972661614,-43.37153403170522 136.93221289801926,-47.55273141921594 138,-55.54274031263394 C138.53221289801925,-59.525168814043596 138.7250408068528,-61.74537274883031 140,-65.39779712969225 C140.3250408068528,-66.32895396522488 141.24755813814292,-67.0918302577342 142,-67.00169335362035 C142.84755813814292,-66.90016223141492 143.75785407058876,-66.01751273707492 144,-64.91862706389406 C145.35785407058876,-58.756531388496015 145.08302586859256,-55.259889577189284 146,-48.84923998217308 C146.68302586859255,-44.07414398120104 147.1614190748287,-41.70542793008512 148,-36.95426307392347 C148.7614190748287,-32.64027566907246 148.84603072183958,-28.216473696102398 150,-26.186359329641437 C150.44603072183958,-25.40168213465322 150.9584554230261,-29.22524799186494 152,-29.917284170300526 C152.5584554230261,-30.288340162834658 153.2783933587256,-28.693812338805564 154,-28.844089757065735 C154.8783933587256,-29.027018625254968 155.17864955101243,-30.706173715678943 156,-30.750299886424028 C156.77864955101242,-30.79213199728597 157.13080204497606,-29.626819762556757 158,-29.058985461083303 C158.73080204497606,-28.581563181928356 159.34794204907337,-28.694956598038164 160,-28.137158434853028 C160.94794204907336,-27.326248402964524 161.61993991126215,-24.917002611712835 162,-25.637214973399203 C163.21993991126217,-27.94899626967637 163.53561601231033,-31.638638957015267 164,-35.71714257976187 C165.13561601231032,-45.690815537994474 165.08976411627884,-50.75767062562501 166,-60.767656425847214 C166.68976411627884,-68.35308470101832 166.65288880427968,-72.32985155607314 168,-79.70567776824512 C168.25288880427968,-81.09031763858147 169.22848350746904,-82.72931364020508 170,-82.66882163211802 C170.82848350746903,-82.60386303237455 171.50757835795898,-80.82950529514098 172,-79.39205124866882 C173.10757835795897,-76.1588607133502 172.81275369537414,-74.14982503637883 174,-70.99221017764107 C174.41275369537416,-69.89444537817675 175.71490926354008,-69.88960846636934 176,-68.7536021031636 C177.3149092635401,-63.514058689834286 176.9424031294365,-60.477124896991015 178,-55.053335736303424 C178.5424031294365,-52.2716707219267 178.77382308697852,-50.58254856471999 180,-48.239966665502806 C180.37382308697852,-47.525786527412045 181.17348292192045,-47.51588419516634 182,-47.41143064303356 C182.77348292192045,-47.31367944000173 183.5992638639417,-47.12869027793536 184,-47.73445477759127 C185.1992638639417,-49.547297217112 184.8210522705933,-52.01559395331188 186,-53.457947990975164 C186.4210522705933,-53.973073833630764 187.84021076823157,-53.4368228122008 188,-52.62815447838849 C189.4402107682316,-45.339472823217044 188.70988869962204,-40.843459565178414 190,-33.214573018515765 C190.30988869962204,-31.382091021949464 191.31565632017276,-28.683001419374534 192,-28.974733120316124 C192.9156563201728,-29.365072044508953 193.66470157973433,-32.445325708292145 194,-34.91974958135181 C195.26470157973432,-44.25295126691705 194.52489674852666,-49.75864294873787 196,-58.49379701687839 C196.12489674852665,-59.23340106825616 197.79850711273326,-57.90787858635898 198,-58.60664488014753 Q199.39850711273326,-63.456590926669044 200,-72.36557786765354"
               class="spline"
               fill="none"/>
      </g>
   </g>
   <g id="exponential-large">
      <g>
         <path d="M0,-24.02655077144252 Q0.7432676702870471,-38.64584771623947 2,-48.24228698203026 C2.3432676702870463,-50.86348743334 3.4359213222692984,-55.37375019164697 4,-54.570650064193835 C5.035921322269299,-53.09576973492339 4.871432806279069,-47.26066270833088 6,-42.54733584022129 C6.4714328062790685,-40.578452707071406 7.4332963910450855,-37.244115975937945 8,-37.86512506104516 C9.033296391045084,-38.99743908959152 8.927615913676874,-43.399315588998746 10,-46.930643624355234 C10.527615913676874,-48.66806670963772 11.02504717865215,-49.51480640246096 12,-51.037002862642595 C12.62504717865215,-52.01289070250286 13.42673708425331,-52.174484377276876 14,-53.17585437445998 C15.02673708425331,-54.969348568703026 15.518636011101592,-55.99388852351478 16,-58.02416334120797 C17.118636011101593,-62.7422946843975 16.637340293366545,-65.70873759490715 18,-70.04686977666678 C18.237340293366547,-70.80246088989153 19.687867839815294,-71.36836532627136 20,-70.75847157866893 C21.28786783981529,-68.24202936785416 21.49679482960362,-65.69223988490731 22,-62.23102988062379 C23.096794829603624,-54.686915749443116 22.598076987249474,-49.26501357805092 24,-43.24516124000847 C24.198076987249475,-42.39461937432733 25.4998108153546,-44.13052103115811 26,-45.055044371314814 C27.0998108153546,-47.08787674707469 27.56311592581981,-51.739404235759054 28,-50.63855052979993 C29.16311592581981,-47.70774908138017 28.593426173989542,-40.186280725195346 30,-34.97590648536761 C30.193426173989543,-34.25939752179468 31.34523892523751,-36.07805423807123 32,-35.82134252129826 C32.94523892523751,-35.45074335679176 33.61132220210773,-32.7130075699373 34,-33.407629282168934 C35.21132220210772,-35.57243186841152 34.87933316986301,-39.26300830222074 36,-42.96990326748383 C36.47933316986301,-44.55542151989039 37.016988644852354,-46.15398221453481 38,-46.63866232634305 C38.616988644852356,-46.942872571530444 39.457704168719424,-44.53384648541644 40,-44.942129159972914 C41.057704168719425,-45.7384515028435 41.006124912802285,-49.07523575126378 42,-49.65017486991071 C42.60612491280229,-50.00080738665792 43.44669889659721,-46.81921723561222 44,-47.256058248458245 C45.04669889659721,-48.082445550638404 44.83117862920151,-50.93458903485496 46,-52.808245657476164 C46.43117862920151,-53.49943826767308 47.4796475353203,-54.08318356256006 48,-53.66818133050355 C49.0796475353203,-52.80711855593203 49.68920772672993,-48.48524714420251 50,-49.61808314090609 C51.289207726729934,-54.31723767490244 51.09411520478808,-60.80925559492867 52,-68.24815765725336 C52.694115204788076,-73.9480601787225 52.6862076505761,-77.00578299000742 54,-82.46509460039066 C54.2862076505761,-83.65439727098071 55.29355341534732,-85.04782571321887 56,-84.8696933596866 C56.89355341534732,-84.64438152954888 57.60342282327509,-82.96843790233798 58,-81.45648414121568 C59.20342282327509,-76.8684246898436 59.31846771731798,-74.3717692474282 60,-69.61966032845065 C60.91846771731798,-63.215475607979926 60.63261892052777,-59.70001928117743 62,-53.565750042594985 C62.23261892052776,-52.522187929642186 63.12937691313803,-51.83688542365668 64,-51.67508194961254 C64.72937691313803,-51.53952878060723 65.20235358332529,-52.35939269884937 66,-52.822358434971356 C66.80235358332529,-53.288056279992574 67.62094161757254,-54.56754272739592 68,-53.996740902470556 C69.22094161757254,-52.158196404457534 68.96657491884126,-47.73517328209248 70,-46.7989926276254 C70.56657491884125,-46.285731929781 71.51377807271743,-51.05288328883438 72,-50.373137521691845 C73.11377807271742,-48.81605856662067 72.69937116380989,-44.45220316087787 74,-41.20693082209112 C74.29937116380988,-40.459952952687175 75.86236037329498,-39.63406327865575 76,-40.3925120012151 C77.46236037329498,-48.45069541538524 76.87065105475295,-54.155552537336305 78,-63.24851116391482 C78.47065105475296,-67.0379604624999 79.15193602255576,-68.86949601205738 80,-72.59853181412409 C80.75193602255575,-75.90488183434809 80.76816187264843,-78.77893336183747 82,-80.83697571964159 C82.36816187264843,-81.4520668680768 83.67391337250076,-80.19848507024697 84,-79.28136557972239 C85.27391337250077,-75.6984808962249 85.0646741231518,-70.27687732797936 86,-69.58696528458637 C86.6646741231518,-69.09669051100761 87.1516365786152,-76.15245995367019 88,-76.33089853729301 C88.7516365786152,-76.48899230124651 88.79434505689585,-72.32617223452647 90,-70.42829615352717 C90.39434505689586,-69.80753972945774 91.63224579535013,-70.67097832900835 92,-70.03431727462122 C93.23224579535012,-67.90103668282309 93.53318849274044,-66.18647576288133 94,-63.50344203806403 C95.13318849274043,-56.9903572162135 94.62107391378139,-52.1144550630005 96,-47.04402090795165 C96.2210739137814,-46.231112417474534 97.24159527273355,-48.87419089740572 98,-48.795085424249116 C98.84159527273356,-48.70730275377987 99.2215134093117,-46.58455490402426 100,-46.62680054888704 C100.8215134093117,-46.67138110320219 101.32035831430667,-47.97636579995051 102,-49.012150922193946 C102.92035831430667,-50.41479215088698 103.57893343454762,-51.10780733631769 104,-52.72286642622823 C105.17893343454763,-57.24482878583751 104.74282389375477,-59.90635678297738 106,-64.3547045459935 C106.34282389375477,-65.56774056641801 107.67743622489071,-67.68809634520443 108,-66.87632588482981 C109.2774362248907,-63.66150428241214 108.96683635275677,-55.80884101234835 110,-54.288224389012775 C110.56683635275678,-53.453951151648326 111.23497604249812,-61.11625276080106 112,-60.989101233079744 C112.83497604249811,-60.85032325315736 113.13044915006601,-56.548836117217604 114,-53.62340061990353 C114.73044915006601,-51.16594586294685 115.41722043473806,-46.81516474427899 116,-47.531875597402866 C117.01722043473805,-48.782868200872855 116.73968745715138,-55.78479521560418 118,-58.542659261388195 C118.33968745715137,-59.28597632999735 119.68953366782809,-57.41999368475779 120,-56.28482838338579 C121.28953366782808,-51.569876316187575 121.21222340112806,-48.86629705833673 122,-43.91736583996266 C122.81222340112807,-38.81485612858949 122.6195365314685,-35.398535398429175 124,-31.15622605901771 C124.21953653146849,-30.481567222314467 125.19201633056944,-31.577451311368897 126,-31.624945399675894 C126.79201633056945,-31.67150091183267 127.69310982456797,-30.776665938010296 128,-31.391350060177135 C129.29310982456798,-33.98137783236271 128.99544038300968,-36.40715498525652 130,-39.63672513555694 C130.59544038300967,-41.55101320241437 131.5387292634049,-45.131875359757764 132,-44.25099560307176 C133.13872926340488,-42.07638647030159 132.9025075141886,-33.89994045417252 134,-31.998002911916515 C134.50250751418864,-31.127165144134885 135.65187777819628,-35.08542136015651 136,-37.319057327977674 C137.25187777819627,-45.3514064788223 136.68370985693622,-49.676427388889124 138,-57.662965708580984 C138.2837098569362,-59.38436403100658 138.96181378033984,-60.23303153898976 140,-61.5888989332713 C140.56181378033983,-62.322625669376684 141.13985967721274,-62.5101876244836 142,-62.8869510345483 C142.73985967721276,-63.21102845258255 143.79747526471166,-64.02733833899364 144,-63.341001003518684 C145.3974752647117,-58.60508838420879 145.13371732961372,-54.924858064647864 146,-49.331326147586154 C146.73371732961374,-44.593760175654964 147.0758961677938,-42.21546883314219 148,-37.51325628103644 C148.67589616779378,-34.074024310173954 148.76165053320128,-31.125363807109295 150,-28.97771484016556 C150.36165053320127,-28.350510311195045 151.15187747819397,-30.464748396808197 152,-30.576122541250815 C152.751877478194,-30.67485793467158 153.1603689137558,-29.827791021674 154,-29.502988684824015 C154.7603689137558,-29.208848074617812 155.19159519461977,-29.1702533542073 156,-29.02876517361035 C156.79159519461976,-28.890219035449583 157.2700308727902,-28.60238119348776 158,-28.802902887929726 C158.87003087279018,-29.041899385624852 159.1763923891964,-30.072115701287338 160,-30.127560653953083 C160.7763923891964,-30.17982709576879 161.67264008008937,-28.457939625477533 162,-29.072181374133354 C163.27264008008936,-31.460099444302035 163.55802452362428,-34.151523791177 164,-37.632960201014335 C165.15802452362428,-46.75470779907054 165.04086918087245,-51.41862300271533 166,-60.580141393867194 C166.64086918087247,-66.70165753097375 166.7596575700334,-69.87139410122494 168,-75.84054652166039 C168.3596575700334,-77.57139987539959 169.0632442986483,-79.46872618233915 170,-79.83015582930383 C170.66324429864832,-80.08605622293463 171.4964218961971,-78.5205560167319 172,-77.38387162314906 C173.09642189619709,-74.90901092373014 172.84577951664133,-73.20549191242816 174,-70.80129309679941 C174.44577951664132,-69.87275075901145 175.74828206121728,-70.04882837008988 176,-69.0520187396073 C177.34828206121728,-63.71278646348243 176.87857006667278,-60.519447908310504 178,-54.96118833028081 C178.47857006667277,-52.58920183536877 178.9001437523489,-50.2795441506297 180,-49.22640355725297 C180.5001437523489,-48.74750307435144 181.46305921084073,-51.55855244221835 182,-51.13108563958519 C183.06305921084075,-50.28476788715785 183.16987590937038,-46.130975110935196 184,-46.04194216960172 C184.7698759093704,-45.959371000487664 184.89210129723241,-49.12433398140465 186,-50.702075363466356 C186.4921012972324,-51.402869198561845 187.80361189523228,-52.471688640040654 188,-51.73828021249472 C189.4036118952323,-46.4965126717127 188.83014128189177,-42.06539421413416 190,-35.76413544264647 C190.4301412818918,-33.44724752828135 191.41109343071437,-29.546155324495942 192,-30.19291349786272 C193.01109343071437,-31.303332322270165 193.39718490730712,-36.139860110415576 194,-40.15707793708203 C194.99718490730712,-46.802414184755946 194.6144916174557,-51.64435888826712 196,-56.84929868371364 C196.2144916174557,-57.655079413408544 197.76249906810293,-54.404237094487314 198,-55.18387924993558 Q199.36249906810292,-59.65654258547274 200,-69.9800624111772"
               class="spline"
               fill="none"/>
      </g>
   </g>
   <g id="exponential-jumbo">
      <g>
         <path d="M0,-24.160013037971144 Q0.7426249660881434,-38.746399276055364 2,-48.32002607875488 C2.3426249660881435,-50.928765293506466 3.428319574244684,-55.39014193835936 4,-54.61592808159889 C5.0283195742446845,-53.22329816514444 4.847258521591627,-47.47555018777341 6,-42.90291664571758 C6.447258521591625,-41.12875534753652 7.48196238643801,-38.067054165585645 8,-38.74894098100668 C9.08196238643801,-40.1731153397384 8.925931129383223,-44.49234997682845 10,-48.16806958109948 C10.525931129383224,-49.96793122466448 10.883951647515621,-51.128096530046506 12,-52.437894100596765 C12.483951647515623,-53.005861152175406 13.39220924652321,-52.39193698513017 14,-52.862481136421735 C14.99220924652321,-53.63063737298536 15.66677575538745,-54.26821128565374 16,-55.534645070234745 C17.26677575538745,-60.34908351536091 16.658787637966814,-63.38982243223712 18,-68.06466171068965 C18.25878763796681,-68.96667443364967 19.6748997872522,-70.1252145104599 20,-69.47677507376613 C21.274899787252203,-66.93388132140754 21.428946843439256,-63.88012623480904 22,-60.08632873805873 C23.028946843439257,-53.25050984084936 22.651251882951456,-47.84476087100312 24,-42.90273408886693 C24.251251882951458,-41.982107384063475 25.48668674881246,-44.26837389664069 26,-45.429695020709644 C27.08668674881246,-47.8882177136698 27.493873990323575,-52.97548833447786 28,-51.95234363143972 C29.093873990323573,-49.74105364121322 28.6114844214959,-42.76934671881358 30,-37.34360828754805 C30.211484421495896,-36.5172155764483 31.283444241970976,-36.84804506702042 32,-36.32201577552652 C32.88344424197098,-35.67347231820142 33.65249148866285,-33.72412685710393 34,-34.40717641550054 C35.25249148866285,-36.86902621289052 34.80073454143707,-40.452923197257576 36,-44.18426416499299 C36.400734541437075,-45.43109171345135 37.112868899693595,-46.656327532550286 38,-46.85259770598498 C38.712868899693596,-47.01031385699212 39.354117164364105,-44.80560618157321 40,-45.069229976097574 C40.954117164364106,-45.458662816564456 40.937070812369804,-47.57245614099954 42,-48.48523929346309 C42.537070812369805,-48.94644517144263 43.60537079108162,-47.93283253313433 44,-48.50420255220529 C45.20537079108162,-50.249417341996306 44.79624733310609,-52.476351116733696 46,-54.27670131561802 C46.39624733310609,-54.86933465682232 47.49601338164268,-54.95022792866656 48,-54.48666140242685 C49.096013381642685,-53.47854908846036 49.66156717158356,-49.5576828125503 50,-50.59750421510253 C51.261567171583565,-54.47361916502617 51.10621903788593,-60.31806576872009 52,-66.77650228361654 C52.70621903788593,-71.87962152102921 52.74450747651598,-74.59266623177136 54,-79.50139359587531 C54.34450747651598,-80.84834966728191 55.299048928865695,-82.61796502666854 56,-82.41571087239292 C56.899048928865696,-82.15629707270234 57.50602249809721,-80.07862280883099 58,-78.34722371095984 C59.10602249809721,-74.47059704667998 59.34034000623126,-72.40015076971251 60,-68.39564646701542 C60.94034000623125,-62.68725784784541 60.60732109744222,-59.33297314564293 62,-54.06499140629208 C62.20732109744222,-53.28077348391105 63.17480376906049,-53.36813430204521 64,-53.26514731268571 C64.7748037690605,-53.168449455220845 65.25005462870939,-53.299354358796094 66,-53.565779289231166 C66.8500546287094,-53.86776894606465 67.57808437005022,-55.20937523626821 68,-54.6861837808571 C69.17808437005023,-53.22531427896872 68.99424351789729,-49.32742005868144 70,-48.605626895982454 C70.59424351789728,-48.17916093147808 71.50939633382521,-52.44168542639508 72,-51.8155359628487 C73.10939633382522,-50.39963150232741 72.72396298764455,-46.422686267084465 74,-43.500492085813256 C74.32396298764455,-42.75859921885427 75.84202686113122,-41.909942910035014 76,-42.655318342273205 C77.44202686113123,-49.459332003150166 76.94405479220245,-54.524954016126166 78,-62.373964818601145 C78.54405479220245,-66.41801171573339 79.02949864529128,-68.42625040402777 80,-72.38796259129126 C80.62949864529129,-74.95765756679684 80.89464884782458,-77.56208597197717 82,-78.70248272552384 C82.49464884782459,-79.21281461335384 83.58422676806119,-77.5947501167831 84,-76.51478419473295 C85.1842267680612,-73.43876954241428 85.07622037684803,-68.85634567811057 86,-68.31253128960176 C86.67622037684802,-67.9144510965379 87.07432011678816,-73.74020059459703 88,-74.16004774080129 C88.67432011678817,-74.46588929768953 88.90070996641386,-71.35956956771506 90,-70.12675304733304 C90.50070996641387,-69.56522378785162 91.63813758578759,-70.32351178432839 92,-69.67418329114273 C93.23813758578758,-67.452460389399 93.47515497370539,-65.69904352310425 94,-62.94912456000955 C95.07515497370538,-57.315863497536675 94.6633480600901,-52.802455723264345 96,-48.71623322722378 C96.2633480600901,-47.91116293532616 97.20024174296876,-50.721375932120665 98,-50.720892590164084 C98.80024174296875,-50.72040895600791 99.12785914840622,-48.876345586334594 100,-48.7138157869419 C100.72785914840621,-48.578173933724706 101.36862411170154,-49.29857625629582 102,-49.97546345863937 C102.96862411170153,-51.01390866575539 103.58354497616392,-51.6340065974443 104,-53.00214681059083 C105.18354497616392,-56.89033493002327 104.73853931286754,-59.323660273705975 106,-63.11628429008679 C106.33853931286754,-64.13411412938935 107.67177992978199,-65.73567160766684 108,-65.02828144979924 C109.271779929782,-62.28730158009229 108.96331864520754,-55.80709145149642 110,-54.49535922115039 C110.56331864520753,-53.78258164542027 111.28108589086615,-60.21546068228085 112,-59.96700693460887 C112.88108589086616,-59.66250728878839 113.12605573250491,-55.83058226993501 114,-53.11297573741925 C114.72605573250492,-50.85524160606405 115.3944497328114,-46.93078340258581 116,-47.52865527493147 C116.99444973281139,-48.51049535646578 116.7120460534705,-54.395996237952495 118,-57.06225562211917 C118.3120460534705,-57.70823812840347 119.7213124003465,-56.66360672797351 120,-55.80926000105891 C121.3213124003465,-51.7586351226242 121.2550540828021,-49.212938745465074 122,-44.7998266087459 C122.85505408280211,-39.73442593568887 122.61660398250528,-36.42818800286743 124,-32.112977976618396 C124.21660398250528,-31.43732786254264 125.2427984521231,-32.09274115360995 126,-32.322676257933935 C126.84279845212309,-32.578604089244344 127.67342831549401,-32.551972652730655 128,-33.327635315704384 C129.27342831549402,-36.3522416890231 128.84705919816324,-38.587667843896014 130,-41.82334884866504 C130.44705919816326,-43.078002125918836 131.63881529201888,-45.33941061963787 132,-44.553471020761435 C133.23881529201887,-41.85780320267053 132.88648514660758,-35.00502614627534 134,-33.1193303062467 C134.48648514660758,-32.29548586950768 135.65360366264676,-35.79615184809888 136,-37.77962032884228 C137.25360366264675,-44.95776595013558 136.70944791721604,-48.872514467847324 138,-56.02336556133846 C138.30944791721603,-57.73799297291049 138.90122264422416,-58.9139386808281 140,-59.9433165915002 C140.50122264422419,-60.41288170911106 141.21296974741685,-59.69694972569583 142,-59.77072313204585 C142.81296974741687,-59.846928014043215 143.76235545668828,-60.98190858626922 144,-60.31826231236866 C145.36235545668828,-56.51374776320287 145.15575937058756,-53.27949015157575 146,-48.60032107437997 C146.75575937058755,-44.41155574675615 147.0896836233408,-42.304529722333726 148,-38.14842630031966 C148.6896836233408,-34.999634802584254 148.82552566894984,-32.00622604089998 150,-30.33808377500629 C150.42552566894983,-29.733696488854882 151.15976200450078,-32.38228815345103 152,-32.46710242020691 C152.75976200450077,-32.543793378799464 153.09358685068167,-31.198843775955353 154,-30.74184683837737 C154.69358685068167,-30.39215302938501 155.2063899814802,-30.415658474761965 156,-30.450375553781054 C156.8063899814802,-30.485651702083047 157.30687659891095,-30.525059835592554 158,-30.916829906680075 C158.90687659891094,-31.429418442956184 159.17201745069113,-32.652179549077424 160,-32.71127207219013 C160.77201745069112,-32.76637040619059 161.60989558788586,-30.617187797537472 162,-31.20230704946299 C163.20989558788585,-33.01703454114955 163.56493822964694,-35.64169091210305 164,-38.710888931220325 C165.16493822964694,-46.92909230019233 165.05618896198504,-51.15381615432439 166,-59.42081051968618 C166.65618896198504,-65.16847634774459 166.6753540853918,-68.25948301719694 168,-73.7475394147708 C168.2753540853918,-74.88834144591551 169.21718578588272,-76.02699964646276 170,-75.99295659148258 C170.8171857858827,-75.95741878425306 171.38953105476625,-74.65685510433264 172,-73.57358725924655 C172.98953105476625,-71.81767947440102 172.87802605716314,-70.44192237812308 174,-68.89501751665354 C174.47802605716313,-68.23594621071476 175.75962214923868,-68.83589971800704 176,-68.05864684072574 C177.35962214923867,-63.66235897907715 176.90704694909118,-60.72173870377897 178,-55.96116566932882 C178.50704694909118,-53.752622465175186 178.81632546817082,-52.19526453611181 180,-50.635856244216285 C180.4163254681708,-50.08737659906454 181.5038350598587,-51.177808347372604 182,-50.69144582671065 C183.10383505985868,-49.60941854369666 183.232473903442,-46.6347650071156 184,-46.714881735026424 C184.832473903442,-46.80177791421047 184.94277939438595,-49.56062677469009 186,-51.10897809444783 C186.54277939438595,-51.903905082412344 187.7794043596628,-53.33994462309152 188,-52.57307750433206 C189.3794043596628,-47.77778850731518 188.7957991885381,-43.24107073929847 190,-37.203587805006975 C190.3957991885381,-35.21917555128642 191.41342132235079,-31.948511827311084 192,-32.518339534301944 C193.01342132235078,-33.50282050903679 193.44036174327488,-37.61823193674643 194,-41.089359509321234 C195.04036174327487,-47.542149841536165 194.6286908989328,-52.397362518103805 196,-57.32813429627627 C196.2286908989328,-58.15043076430464 197.74833854657396,-54.67769479629536 198,-55.47203012482333 Q199.34833854657396,-59.727878320003796 200,-69.95359310554734"
               class="spline"
               fill="none"/>
      </g>
   </g>
</svg>
