<?xml version="1.0" encoding="UTF-8"?>
<svg xmlns="http://www.w3.org/2000/svg"
     xmlns:djb="http://www.obdurodon.org"
     viewBox="-10 -115 220 125">
   <style type="text/css">
                #regression line {
                    stroke: red;
                    stroke-width: 0.5;
                    stroke-opacity: 0.5;
                }
                #exponential .spline {
                    stroke: green;
                    stroke-width: 0.5;
                    stroke-opacity: 0.5;
                    fill: none;
                }</style>
   <rect x="0"
         y="-100"
         width="200"
         height="100"
         stroke="lightgray"
         stroke-width="0.5"
         stroke-linecap="square"
         fill="none"/>
   <text x="-1"
         y="0"
         text-anchor="end"
         alignment-baseline="central"
         fill="lightgray"
         font-size="3">0.0</text>
   <text x="-1"
         y="-100"
         text-anchor="end"
         alignment-baseline="central"
         fill="lightgray"
         font-size="3">100.0</text>
   <text x="-1"
         y="-46.91215816710003"
         text-anchor="end"
         alignment-baseline="central"
         fill="lightgray"
         font-size="3">46.9</text>
   <text x="200"
         y="-56.71540443241168"
         text-anchor="start"
         alignment-baseline="central"
         fill="lightgray"
         font-size="3">51.8</text>
   <line x1="0"
         y1="-46.91215816710003"
         x2="200"
         y2="-46.91215816710003"
         stroke="lightgray"
         stroke-width="0.5"
         stroke-linecap="square"/>
   <text x="100"
         y="-105"
         text-anchor="middle"
         fill="black"
         font-size="4">
      <tspan>n = 100; window = 25; weight(y) = 1</tspan>
      <tspan dx="-1" dy="-2" font-size="3">-d</tspan>
   </text>
   <circle cx="0" cy="-33.35413308054047" r="0.5" fill="black"/>
   <circle cx="2" cy="-23.579436644985876" r="0.5" fill="black"/>
   <circle cx="4" cy="-65.51682207700503" r="0.5" fill="black"/>
   <circle cx="6" cy="-52.805767439810104" r="0.5" fill="black"/>
   <circle cx="8" cy="-3.5072160055127255" r="0.5" fill="black"/>
   <circle cx="10" cy="-61.75912819026582" r="0.5" fill="black"/>
   <circle cx="12" cy="-62.1951185344474" r="0.5" fill="black"/>
   <circle cx="14" cy="-75.9662005943445" r="0.5" fill="black"/>
   <circle cx="16" cy="-37.49254269912592" r="0.5" fill="black"/>
   <circle cx="18" cy="-73.6562852039096" r="0.5" fill="black"/>
   <circle cx="20" cy="-2.78015609027078" r="0.5" fill="black"/>
   <circle cx="22" cy="-47.37445471500161" r="0.5" fill="black"/>
   <circle cx="24" cy="-21.695118169729977" r="0.5" fill="black"/>
   <circle cx="26" cy="-34.99655124737641" r="0.5" fill="black"/>
   <circle cx="28" cy="-44.30913975659819" r="0.5" fill="black"/>
   <circle cx="30" cy="-59.88489659724854" r="0.5" fill="black"/>
   <circle cx="32" cy="-22.341212298766944" r="0.5" fill="black"/>
   <circle cx="34" cy="-61.840826945660275" r="0.5" fill="black"/>
   <circle cx="36" cy="-74.50357413556074" r="0.5" fill="black"/>
   <circle cx="38" cy="-37.705708669485695" r="0.5" fill="black"/>
   <circle cx="40" cy="-88.35238004220002" r="0.5" fill="black"/>
   <circle cx="42" cy="-31.75351688406408" r="0.5" fill="black"/>
   <circle cx="44" cy="-60.00355807269956" r="0.5" fill="black"/>
   <circle cx="46" cy="-37.1299020778185" r="0.5" fill="black"/>
   <circle cx="48" cy="-92.02315109806442" r="0.5" fill="black"/>
   <circle cx="50" cy="-69.4566235967702" r="0.5" fill="black"/>
   <circle cx="52" cy="-99.16741284863114" r="0.5" fill="black"/>
   <circle cx="54" cy="-30.662466004716315" r="0.5" fill="black"/>
   <circle cx="56" cy="-74.80588112147936" r="0.5" fill="black"/>
   <circle cx="58" cy="-89.11859899910283" r="0.5" fill="black"/>
   <circle cx="60" cy="-67.07516337175078" r="0.5" fill="black"/>
   <circle cx="62" cy="-42.687091970773615" r="0.5" fill="black"/>
   <circle cx="64" cy="-12.91503358026299" r="0.5" fill="black"/>
   <circle cx="66" cy="-42.81495118927548" r="0.5" fill="black"/>
   <circle cx="68" cy="-36.14013463365854" r="0.5" fill="black"/>
   <circle cx="70" cy="-26.83307468026118" r="0.5" fill="black"/>
   <circle cx="72" cy="-64.56111368397298" r="0.5" fill="black"/>
   <circle cx="74" cy="-87.3243832330626" r="0.5" fill="black"/>
   <circle cx="76" cy="-33.87571254969832" r="0.5" fill="black"/>
   <circle cx="78" cy="-2.7071056413431993" r="0.5" fill="black"/>
   <circle cx="80" cy="-76.52126680568931" r="0.5" fill="black"/>
   <circle cx="82" cy="-16.501622298270558" r="0.5" fill="black"/>
   <circle cx="84" cy="-71.95806499007729" r="0.5" fill="black"/>
   <circle cx="86" cy="-14.21435204320829" r="0.5" fill="black"/>
   <circle cx="88" cy="-71.29884382394974" r="0.5" fill="black"/>
   <circle cx="90" cy="-2.4511907638312347" r="0.5" fill="black"/>
   <circle cx="92" cy="-62.03610895011023" r="0.5" fill="black"/>
   <circle cx="94" cy="-55.97059502759492" r="0.5" fill="black"/>
   <circle cx="96" cy="-24.976416498265397" r="0.5" fill="black"/>
   <circle cx="98" cy="-11.283481836076692" r="0.5" fill="black"/>
   <circle cx="100" cy="-97.87233701285001" r="0.5" fill="black"/>
   <circle cx="102" cy="-54.4189708151637" r="0.5" fill="black"/>
   <circle cx="104" cy="-58.888896969498894" r="0.5" fill="black"/>
   <circle cx="106" cy="-47.42050028733252" r="0.5" fill="black"/>
   <circle cx="108" cy="-67.2353093810828" r="0.5" fill="black"/>
   <circle cx="110" cy="-6.917368872970309" r="0.5" fill="black"/>
   <circle cx="112" cy="-63.672782896021864" r="0.5" fill="black"/>
   <circle cx="114" cy="-33.292494051133026" r="0.5" fill="black"/>
   <circle cx="116" cy="-85.76695845279252" r="0.5" fill="black"/>
   <circle cx="118" cy="-94.92689213303359" r="0.5" fill="black"/>
   <circle cx="120" cy="-40.17448366305445" r="0.5" fill="black"/>
   <circle cx="122" cy="-54.43849050428309" r="0.5" fill="black"/>
   <circle cx="124" cy="-67.43500451062884" r="0.5" fill="black"/>
   <circle cx="126" cy="-54.90864537260299" r="0.5" fill="black"/>
   <circle cx="128" cy="-11.59074884125102" r="0.5" fill="black"/>
   <circle cx="130" cy="-68.49416395494106" r="0.5" fill="black"/>
   <circle cx="132" cy="-67.11105380677996" r="0.5" fill="black"/>
   <circle cx="134" cy="-39.87270901551807" r="0.5" fill="black"/>
   <circle cx="136" cy="-46.897838830765394" r="0.5" fill="black"/>
   <circle cx="138" cy="-46.79467367840579" r="0.5" fill="black"/>
   <circle cx="140" cy="-65.06623049518785" r="0.5" fill="black"/>
   <circle cx="142" cy="-98.57164820402969" r="0.5" fill="black"/>
   <circle cx="144" cy="-72.59708707343562" r="0.5" fill="black"/>
   <circle cx="146" cy="-27.757757126078943" r="0.5" fill="black"/>
   <circle cx="148" cy="-34.03360631337573" r="0.5" fill="black"/>
   <circle cx="150" cy="-24.620410524096325" r="0.5" fill="black"/>
   <circle cx="152" cy="-51.85029473673847" r="0.5" fill="black"/>
   <circle cx="154" cy="-23.63187779226461" r="0.5" fill="black"/>
   <circle cx="156" cy="-51.04523941516829" r="0.5" fill="black"/>
   <circle cx="158" cy="-54.58438753147775" r="0.5" fill="black"/>
   <circle cx="160" cy="-71.11378729521563" r="0.5" fill="black"/>
   <circle cx="162" cy="-89.33932970788442" r="0.5" fill="black"/>
   <circle cx="164" cy="-73.90646746617824" r="0.5" fill="black"/>
   <circle cx="166" cy="-57.6907548988307" r="0.5" fill="black"/>
   <circle cx="168" cy="-35.65363154964619" r="0.5" fill="black"/>
   <circle cx="170" cy="-97.92472350451266" r="0.5" fill="black"/>
   <circle cx="172" cy="-34.009582911598315" r="0.5" fill="black"/>
   <circle cx="174" cy="-69.19726085321321" r="0.5" fill="black"/>
   <circle cx="176" cy="-69.4639170392017" r="0.5" fill="black"/>
   <circle cx="178" cy="-44.8811169252603" r="0.5" fill="black"/>
   <circle cx="180" cy="-52.29368800901408" r="0.5" fill="black"/>
   <circle cx="182" cy="-11.426067468285927" r="0.5" fill="black"/>
   <circle cx="184" cy="-90.80693167401742" r="0.5" fill="black"/>
   <circle cx="186" cy="-18.60303848670023" r="0.5" fill="black"/>
   <circle cx="188" cy="-35.231528291947626" r="0.5" fill="black"/>
   <circle cx="190" cy="-77.6189422775218" r="0.5" fill="black"/>
   <circle cx="192" cy="-55.24569484055063" r="0.5" fill="black"/>
   <circle cx="194" cy="-70.13596271684015" r="0.5" fill="black"/>
   <circle cx="196" cy="-16.621615478613418" r="0.5" fill="black"/>
   <circle cx="198" cy="-73.28304438624535" r="0.5" fill="black"/>
   <circle cx="200" cy="-82.97247581977315" r="0.5" fill="black"/>
   <polyline points="0,-33.35413308054047 2,-23.579436644985876 4,-65.51682207700503 6,-52.805767439810104 8,-3.5072160055127255 10,-61.75912819026582 12,-62.1951185344474 14,-75.9662005943445 16,-37.49254269912592 18,-73.6562852039096 20,-2.78015609027078 22,-47.37445471500161 24,-21.695118169729977 26,-34.99655124737641 28,-44.30913975659819 30,-59.88489659724854 32,-22.341212298766944 34,-61.840826945660275 36,-74.50357413556074 38,-37.705708669485695 40,-88.35238004220002 42,-31.75351688406408 44,-60.00355807269956 46,-37.1299020778185 48,-92.02315109806442 50,-69.4566235967702 52,-99.16741284863114 54,-30.662466004716315 56,-74.80588112147936 58,-89.11859899910283 60,-67.07516337175078 62,-42.687091970773615 64,-12.91503358026299 66,-42.81495118927548 68,-36.14013463365854 70,-26.83307468026118 72,-64.56111368397298 74,-87.3243832330626 76,-33.87571254969832 78,-2.7071056413431993 80,-76.52126680568931 82,-16.501622298270558 84,-71.95806499007729 86,-14.21435204320829 88,-71.29884382394974 90,-2.4511907638312347 92,-62.03610895011023 94,-55.97059502759492 96,-24.976416498265397 98,-11.283481836076692 100,-97.87233701285001 102,-54.4189708151637 104,-58.888896969498894 106,-47.42050028733252 108,-67.2353093810828 110,-6.917368872970309 112,-63.672782896021864 114,-33.292494051133026 116,-85.76695845279252 118,-94.92689213303359 120,-40.17448366305445 122,-54.43849050428309 124,-67.43500451062884 126,-54.90864537260299 128,-11.59074884125102 130,-68.49416395494106 132,-67.11105380677996 134,-39.87270901551807 136,-46.897838830765394 138,-46.79467367840579 140,-65.06623049518785 142,-98.57164820402969 144,-72.59708707343562 146,-27.757757126078943 148,-34.03360631337573 150,-24.620410524096325 152,-51.85029473673847 154,-23.63187779226461 156,-51.04523941516829 158,-54.58438753147775 160,-71.11378729521563 162,-89.33932970788442 164,-73.90646746617824 166,-57.6907548988307 168,-35.65363154964619 170,-97.92472350451266 172,-34.009582911598315 174,-69.19726085321321 176,-69.4639170392017 178,-44.8811169252603 180,-52.29368800901408 182,-11.426067468285927 184,-90.80693167401742 186,-18.60303848670023 188,-35.231528291947626 190,-77.6189422775218 192,-55.24569484055063 194,-70.13596271684015 196,-16.621615478613418 198,-73.28304438624535 200,-82.97247581977315"
             stroke="black"
             stroke-width="0.5"
             fill="none"/>
   <g id="regression">
      <g>
         <line x1="0"
               y1="-46.91215816710003"
               x2="200"
               y2="-56.71540443241168"
               class="regression"/>
      </g>
   </g>
   <g id="exponential">
      <g>
         <path d="M0,-18.042448173381775 Q0.5994713388361979,-29.19397827661009 2,-36.08489688447042 C2.1994713388361964,-37.06634110523984 3.6468483031471806,-36.79236527590223 4,-37.72335524495617 C5.24684830314718,-41.01033722325805 4.786440201119186,-44.567641544671574 6,-46.62982675285997 C6.386440201119186,-47.28649918658122 7.506626304966328,-45.54607450032005 8,-44.52049934973029 C9.10662630496633,-42.22015693020793 9.42899199184811,-37.54814838238749 10,-38.31503282757965 C11.028991991848109,-39.69700635774021 10.92806849725405,-45.33450404144876 12,-49.89264428811208 C12.528068497254049,-52.138133168849976 12.920328743657114,-53.33321784437849 14,-55.324105646082685 C14.520328743657114,-56.283579321553056 15.574065799097237,-57.85205399735278 16,-57.26854798104849 C17.17406579909724,-55.66014354708115 16.774280201656563,-52.49617549282836 18,-49.8443295204036 C18.37428020165656,-49.034573941140955 19.768775049447687,-49.480689113567585 20,-48.61454410182998 C21.368775049447688,-43.48725278470291 20.687542148556133,-38.62019486245075 22,-34.860738698241924 C22.287542148556135,-34.037091598512234 23.250161573029164,-37.25388852565634 24,-37.156785941983685 C24.850161573029165,-37.046691710598616 25.263053058684257,-34.21382186260233 26,-34.342746660597605 C26.863053058684258,-34.49373302747418 27.31034207016865,-36.3976283100157 28,-37.856563854163305 C28.910342070168653,-39.78234523947522 29.144347108578486,-40.849852100195186 30,-42.80453898424642 C30.744347108578488,-44.50495459074623 31.029597875194668,-46.52429994984407 32,-46.994320080540916 C32.62959787519467,-47.299269614369294 33.60455273268603,-44.07937071035439 34,-44.74196314555949 C35.204552732686025,-46.760253811479565 34.98380418663845,-50.18263675465183 36,-53.696527833353855 C36.583804186638446,-55.71525719256236 37.057950881528505,-58.15286125370443 38,-58.5735142403358 C38.6579508815285,-58.8673089034217 39.3997158790395,-55.076712286153125 40,-55.48264695764703 C40.9997158790395,-56.15869238809385 41.3055478030161,-61.61612406656255 42,-61.2784644951876 C42.9055478030161,-60.838165098981605 42.90912676260157,-54.789702453090946 44,-53.537749538694676 C44.509126762601575,-52.95344449537333 45.04135470122272,-55.57483666555713 46,-56.68781960089357 C46.641354701222724,-57.432429561292 47.72793436745395,-57.262613933789844 48,-58.18173177803185 C49.32793436745395,-62.66788521713839 48.65280692168106,-65.77970594299254 50,-70.20099780926495 C50.25280692168106,-71.03067338031269 51.28756096048953,-70.75051619166388 52,-71.30915037133225 C52.88756096048952,-72.00510028644278 53.67271203771829,-74.06293654396151 54,-73.33745804621222 C55.27271203771829,-70.51631787730933 54.923401337564066,-64.02920008413433 56,-62.4426037047018 C56.52340133756406,-61.67126086716721 56.89229102294791,-65.69395781777092 58,-67.44261000379441 C58.49229102294791,-68.21975074316853 59.66658668508754,-69.38678466396733 60,-68.7570860181958 C61.26658668508754,-66.36495623609258 61.330226274065076,-63.46076034010735 62,-59.88803893410754 C62.93022627406508,-54.92600594731539 63.11845811588504,-52.39272300075617 64,-47.4202000362159 C64.71845811588504,-43.36758546999435 64.75214651295045,-39.817535705576546 66,-37.325195107202994 C66.35214651295044,-36.62185207862579 67.06090199112917,-38.83772158296703 68,-39.43099096883902 C68.66090199112918,-39.848511733120304 69.35551005481656,-39.41752502392356 70,-39.85217048258619 C70.95551005481656,-40.49656859792729 71.63144180751407,-41.004353186507196 72,-42.12859990384837 C73.23144180751407,-45.8849793248464 72.86718563807281,-48.20485542059629 74,-52.053735828434185 C74.46718563807282,-53.64105826151373 75.59439994884312,-56.57764398056986 76,-55.719107006141975 C77.19439994884311,-53.19091078079204 77.0085449241429,-48.39781631000314 78,-43.586902828989636 C78.60854492414289,-40.63401363546725 79.30150678933211,-35.915680848919294 80,-36.309600319802264 C80.90150678933212,-36.818010526268765 81.01898321471292,-44.92997191465601 82,-45.8427270223633 C82.61898321471293,-46.4186397888803 83.20893106022532,-40.002283019614914 84,-40.03127000536299 C84.80893106022532,-40.060911509326736 85.26026819058497,-46.187515506664 86,-45.98929824664284 C86.86026819058496,-45.758782265782216 87.10187359895444,-39.33658575855691 88,-38.95943690315853 C88.70187359895444,-38.664700188847675 89.35189774367124,-44.76278129718472 90,-44.30958432236975 C90.95189774367124,-43.6439529755377 91.22541837713582,-36.0527847869824 92,-36.16236609904099 C92.82541837713583,-36.27913936875704 92.6930482413883,-41.98479049140415 94,-44.87547077680636 C94.2930482413883,-45.52362689157587 95.58434684460232,-45.551457973939115 96,-45.0094570994703 C97.18434684460232,-43.46509970169072 96.9292135040348,-40.55846423309089 98,-39.65957509618538 C98.5292135040348,-39.21531821428309 99.77551197221254,-40.57561280014159 100,-41.6515920524508 C101.37551197221255,-48.24447078184532 100.64176959037987,-53.79287702304435 102,-58.83172005044471 C102.24176959037986,-59.728651091079925 103.09917657024761,-57.312675231756735 104,-56.49102722253974 C104.6991765702476,-55.853302871616705 105.37648822202137,-55.8801982060443 106,-55.18328915009464 C106.97648822202136,-54.09185269453792 106.9883784982397,-53.037360970943844 108,-52.0201634437738 C108.5883784982397,-51.428541822042725 109.6918316707608,-51.913281559196264 110,-51.161241277841846 C111.29183167076081,-48.00871273754707 111.19451518511461,-42.28439681001659 112,-42.25874138965082 C112.7945151851146,-42.23343536192142 112.8160903121922,-47.71128601756579 114,-51.03383765760392 C114.41609031219221,-52.20156317198676 115.68118405683639,-52.28859164836992 116,-53.48443427570326 C117.2811840568364,-58.290011102953 116.73351721922508,-61.21297754165546 118,-66.0373862940616 C118.33351721922509,-67.30785235639775 119.61631689948568,-69.46378173081295 120,-68.72162131255897 C121.21631689948568,-66.36889256938098 120.69692886131827,-62.13787139769425 122,-58.30016339048166 C122.29692886131828,-57.425670636535415 123.12488758861183,-57.262283535234424 124,-56.94111940966189 C124.72488758861182,-56.67508742850692 125.58800491856714,-57.40147233882648 126,-56.8321731236629 C127.18800491856713,-55.190575206040776 127.30049842234335,-53.613717561332585 128,-51.41387657769763 C128.90049842234336,-48.581926803108445 129.29278753113041,-43.8974075902471 130,-44.25269622810254 C130.8927875311304,-44.70121386571809 130.74536445619376,-50.03384141238492 132,-53.4233922663751 C132.34536445619375,-54.35643644259696 133.44208832315482,-55.443630339088024 134,-55.059183803632635 C135.04208832315481,-54.34110016763344 134.90734089924024,-51.59078516388586 136,-50.667066837738645 C136.50734089924026,-50.23816812092352 137.420282682264,-51.03856343163589 138,-51.67764119622678 C139.020282682264,-52.80239623783658 139.46283174695984,-53.607305476500485 140,-55.076648853240364 C141.06283174695986,-57.983866059666724 141.13459436113945,-59.62110336451856 142,-62.619042654142376 C142.73459436113944,-65.16382535291892 143.31024601769218,-69.31189185318088 144,-68.93345382424127 C144.91024601769217,-68.43404139949091 145.40401231473516,-63.86590388795502 146,-60.42441651991744 C147.00401231473518,-54.62682072399117 146.85776830672737,-51.58710199934775 148,-45.83574591433165 C148.45776830672736,-43.53079451792912 148.95595949951337,-42.365467413859 150,-40.28364781637086 C150.55595949951336,-39.17506306227637 151.35490688097332,-37.57332583031141 152,-37.85973503537508 C152.9549068809733,-38.28369572046507 152.90046549911204,-41.096128191724524 154,-42.059572541755 C154.50046549911204,-42.49809507753292 155.67824341067816,-40.76335281688472 156,-41.36465224989607 C157.27824341067816,-43.753436391694756 157.16350798885188,-46.2761180337316 158,-49.5347814787801 C158.76350798885187,-52.50912617079839 159.2558369299222,-53.968195222289445 160,-56.94717259256304 C160.8558369299222,-60.37319432005366 161.05656632451613,-62.14848241412829 162,-65.54727922319063 C162.65656632451612,-67.91261298929632 163.00738049073388,-70.70577584202614 164,-71.35749903048314 C164.6073804907339,-71.75628622570997 165.40626017035692,-69.54425028824215 166,-68.17355518240018 C167.0062601703569,-65.85052441732414 167.04700210888362,-64.47866167613091 168,-62.123184353188094 C168.6470021088836,-60.52402153281052 169.4267410714477,-57.76388048418539 170,-58.28695482409918 C171.0267410714477,-59.223812291921256 171.2519170344124,-65.98031313944811 172,-65.77301387252776 C172.8519170344124,-65.53694142490566 172.8636179512868,-58.76977602348136 174,-57.178525537743035 C174.46361795128684,-56.52933164118548 175.0575383989869,-59.82460987769468 176,-60.17190291678805 C176.6575383989869,-60.414202983612284 177.5867467032828,-59.525445488382125 178,-58.65250830253706 C179.1867467032828,-56.14567935355089 178.97436956703987,-54.39923992774122 180,-51.722487579709956 C180.57436956703987,-50.2234631379582 181.34988790752638,-49.68591329262617 182,-48.21306632807951 C182.9498879075264,-46.061068945694856 183.41630276096242,-41.99979610279629 184,-42.66037671238167 C185.01630276096242,-43.81054473179322 185.1559703677827,-52.508770420643 186,-52.739937900571846 C186.75597036778268,-52.94698722461288 186.8962731707714,-45.23518308636621 188,-43.755918722306376 C188.4962731707714,-43.090791086626645 189.53138762167862,-45.80766229679576 190,-47.37895790122293 C191.13138762167864,-51.17259306556716 190.673595088172,-54.08705155772683 192,-57.168245644234865 C192.273595088172,-57.80379785024368 193.19062201942475,-56.72495452462008 194,-56.67082363251505 C194.79062201942475,-56.6179471319721 195.65244994777484,-57.48667376673196 196,-56.900727162614906 C197.25244994777483,-54.78917865607109 197.40118662983815,-49.18007286571784 198,-49.927085855862856 Q199.00118662983814,-51.17605499268502 200,-61.890682480032865"
               class="spline"/>
      </g>
   </g>
</svg>
