<?xml version="1.0" encoding="UTF-8"?>
<svg xmlns="http://www.w3.org/2000/svg"
     xmlns:djb="http://www.obdurodon.org"
     viewBox="-10 -115 220 125">
   <style type="text/css">
                #regression line {
                    stroke: red;
                    stroke-width: 0.5;
                    stroke-opacity: 0.5;
                }
                #exponential .spline {
                    stroke: green;
                    stroke-width: 0.5;
                    stroke-opacity: 0.5;
                    fill: none;
                }</style>
   <rect x="0"
         y="-100"
         width="200"
         height="100"
         stroke="lightgray"
         stroke-width="0.5"
         stroke-linecap="square"
         fill="none"/>
   <text x="-1"
         y="0"
         text-anchor="end"
         alignment-baseline="central"
         fill="lightgray"
         font-size="3">0.0</text>
   <text x="-1"
         y="-100"
         text-anchor="end"
         alignment-baseline="central"
         fill="lightgray"
         font-size="3">100.0</text>
   <text x="-1"
         y="-53.28182113945061"
         text-anchor="end"
         alignment-baseline="central"
         fill="lightgray"
         font-size="3">53.3</text>
   <text x="200"
         y="-52.46479529330195"
         text-anchor="start"
         alignment-baseline="central"
         fill="lightgray"
         font-size="3">52.9</text>
   <line x1="0"
         y1="-53.28182113945061"
         x2="200"
         y2="-53.28182113945061"
         stroke="lightgray"
         stroke-width="0.5"
         stroke-linecap="square"/>
   <text x="100"
         y="-105"
         text-anchor="middle"
         fill="black"
         font-size="4">
      <tspan>n = 100; window = 25; weight(y) = 1</tspan>
      <tspan dx="-1" dy="-2" font-size="3">-d</tspan>
   </text>
   <circle cx="0" cy="-14.695864641295053" r="0.5" fill="black"/>
   <circle cx="2" cy="-16.18621997466413" r="0.5" fill="black"/>
   <circle cx="4" cy="-68.4668560556369" r="0.5" fill="black"/>
   <circle cx="6" cy="-78.20075011108119" r="0.5" fill="black"/>
   <circle cx="8" cy="-37.752425866422676" r="0.5" fill="black"/>
   <circle cx="10" cy="-37.09095271351277" r="0.5" fill="black"/>
   <circle cx="12" cy="-87.8146876479591" r="0.5" fill="black"/>
   <circle cx="14" cy="-59.20326567248143" r="0.5" fill="black"/>
   <circle cx="16" cy="-98.91211175880508" r="0.5" fill="black"/>
   <circle cx="18" cy="-51.475355847525485" r="0.5" fill="black"/>
   <circle cx="20" cy="-74.85855330932814" r="0.5" fill="black"/>
   <circle cx="22" cy="-36.53366156413189" r="0.5" fill="black"/>
   <circle cx="24" cy="-72.45383398156771" r="0.5" fill="black"/>
   <circle cx="26" cy="-87.43331325887277" r="0.5" fill="black"/>
   <circle cx="28" cy="-84.56414363023958" r="0.5" fill="black"/>
   <circle cx="30" cy="-19.642775054401852" r="0.5" fill="black"/>
   <circle cx="32" cy="-27.552049770504404" r="0.5" fill="black"/>
   <circle cx="34" cy="-86.06997495742384" r="0.5" fill="black"/>
   <circle cx="36" cy="-85.43940412860432" r="0.5" fill="black"/>
   <circle cx="38" cy="-8.606117898384657" r="0.5" fill="black"/>
   <circle cx="40" cy="-95.69639940753041" r="0.5" fill="black"/>
   <circle cx="42" cy="-33.137985802734235" r="0.5" fill="black"/>
   <circle cx="44" cy="-0.6459566911474646" r="0.5" fill="black"/>
   <circle cx="46" cy="-24.70265119430759" r="0.5" fill="black"/>
   <circle cx="48" cy="-30.712366231362477" r="0.5" fill="black"/>
   <circle cx="50" cy="-53.172646593781025" r="0.5" fill="black"/>
   <circle cx="52" cy="-14.214428156687763" r="0.5" fill="black"/>
   <circle cx="54" cy="-26.848070610327213" r="0.5" fill="black"/>
   <circle cx="56" cy="-48.73620610961641" r="0.5" fill="black"/>
   <circle cx="58" cy="-2.7470099101804313" r="0.5" fill="black"/>
   <circle cx="60" cy="-87.36400962799851" r="0.5" fill="black"/>
   <circle cx="62" cy="-98.55403312330473" r="0.5" fill="black"/>
   <circle cx="64" cy="-71.91083260567963" r="0.5" fill="black"/>
   <circle cx="66" cy="-29.308942735299503" r="0.5" fill="black"/>
   <circle cx="68" cy="-40.60708353159739" r="0.5" fill="black"/>
   <circle cx="70" cy="-95.0778390767938" r="0.5" fill="black"/>
   <circle cx="72" cy="-89.74035531491599" r="0.5" fill="black"/>
   <circle cx="74" cy="-81.06293978386869" r="0.5" fill="black"/>
   <circle cx="76" cy="-1.5377252847677547" r="0.5" fill="black"/>
   <circle cx="78" cy="-28.79063549360622" r="0.5" fill="black"/>
   <circle cx="80" cy="-71.91809412317926" r="0.5" fill="black"/>
   <circle cx="82" cy="-57.366719181191016" r="0.5" fill="black"/>
   <circle cx="84" cy="-46.050807670520555" r="0.5" fill="black"/>
   <circle cx="86" cy="-57.2031663019327" r="0.5" fill="black"/>
   <circle cx="88" cy="-19.457092240555152" r="0.5" fill="black"/>
   <circle cx="90" cy="-25.96578824158463" r="0.5" fill="black"/>
   <circle cx="92" cy="-86.90441875130244" r="0.5" fill="black"/>
   <circle cx="94" cy="-93.61515917011928" r="0.5" fill="black"/>
   <circle cx="96" cy="-49.683715874003006" r="0.5" fill="black"/>
   <circle cx="98" cy="-56.941592635779614" r="0.5" fill="black"/>
   <circle cx="100" cy="-73.03500710210959" r="0.5" fill="black"/>
   <circle cx="102" cy="-37.227287171097736" r="0.5" fill="black"/>
   <circle cx="104" cy="-82.38550049817694" r="0.5" fill="black"/>
   <circle cx="106" cy="-76.86304979960182" r="0.5" fill="black"/>
   <circle cx="108" cy="-62.41209360203196" r="0.5" fill="black"/>
   <circle cx="110" cy="-24.121566842885777" r="0.5" fill="black"/>
   <circle cx="112" cy="-96.83141138030268" r="0.5" fill="black"/>
   <circle cx="114" cy="-8.347055435547412" r="0.5" fill="black"/>
   <circle cx="116" cy="-98.23702455891183" r="0.5" fill="black"/>
   <circle cx="118" cy="-89.78708623865984" r="0.5" fill="black"/>
   <circle cx="120" cy="-13.854356779549482" r="0.5" fill="black"/>
   <circle cx="122" cy="-51.22397531994922" r="0.5" fill="black"/>
   <circle cx="124" cy="-97.12008501073807" r="0.5" fill="black"/>
   <circle cx="126" cy="-61.87863100032922" r="0.5" fill="black"/>
   <circle cx="128" cy="-55.436522252358586" r="0.5" fill="black"/>
   <circle cx="130" cy="-69.10608184845555" r="0.5" fill="black"/>
   <circle cx="132" cy="-55.787056103522595" r="0.5" fill="black"/>
   <circle cx="134" cy="-65.31898719196919" r="0.5" fill="black"/>
   <circle cx="136" cy="-51.80606946166697" r="0.5" fill="black"/>
   <circle cx="138" cy="-45.03244197993171" r="0.5" fill="black"/>
   <circle cx="140" cy="-11.410532960058628" r="0.5" fill="black"/>
   <circle cx="142" cy="-63.84712382454138" r="0.5" fill="black"/>
   <circle cx="144" cy="-53.743229343946666" r="0.5" fill="black"/>
   <circle cx="146" cy="-9.482504378554669" r="0.5" fill="black"/>
   <circle cx="148" cy="-91.13896533602374" r="0.5" fill="black"/>
   <circle cx="150" cy="-50.32139088529164" r="0.5" fill="black"/>
   <circle cx="152" cy="-4.849517617354293" r="0.5" fill="black"/>
   <circle cx="154" cy="-14.544282944718411" r="0.5" fill="black"/>
   <circle cx="156" cy="-29.755937892018526" r="0.5" fill="black"/>
   <circle cx="158" cy="-13.003502910700181" r="0.5" fill="black"/>
   <circle cx="160" cy="-10.039491780115606" r="0.5" fill="black"/>
   <circle cx="162" cy="-46.697986610542976" r="0.5" fill="black"/>
   <circle cx="164" cy="-1.1859586244785114" r="0.5" fill="black"/>
   <circle cx="166" cy="-48.408818771314245" r="0.5" fill="black"/>
   <circle cx="168" cy="-19.286228972511132" r="0.5" fill="black"/>
   <circle cx="170" cy="-23.938519522792888" r="0.5" fill="black"/>
   <circle cx="172" cy="-91.48096300729578" r="0.5" fill="black"/>
   <circle cx="174" cy="-21.829503466629717" r="0.5" fill="black"/>
   <circle cx="176" cy="-22.57142100885038" r="0.5" fill="black"/>
   <circle cx="178" cy="-96.17152821071137" r="0.5" fill="black"/>
   <circle cx="180" cy="-98.34634528158695" r="0.5" fill="black"/>
   <circle cx="182" cy="-23.418119411895034" r="0.5" fill="black"/>
   <circle cx="184" cy="-89.769845286301" r="0.5" fill="black"/>
   <circle cx="186" cy="-99.20354345586237" r="0.5" fill="black"/>
   <circle cx="188" cy="-54.3248960000907" r="0.5" fill="black"/>
   <circle cx="190" cy="-64.5742499294739" r="0.5" fill="black"/>
   <circle cx="192" cy="-9.932803641503519" r="0.5" fill="black"/>
   <circle cx="194" cy="-75.72491333965048" r="0.5" fill="black"/>
   <circle cx="196" cy="-78.98582165411669" r="0.5" fill="black"/>
   <circle cx="198" cy="-77.24269176287747" r="0.5" fill="black"/>
   <circle cx="200" cy="-76.53521312588083" r="0.5" fill="black"/>
   <polyline points="0,-14.695864641295053 2,-16.18621997466413 4,-68.4668560556369 6,-78.20075011108119 8,-37.752425866422676 10,-37.09095271351277 12,-87.8146876479591 14,-59.20326567248143 16,-98.91211175880508 18,-51.475355847525485 20,-74.85855330932814 22,-36.53366156413189 24,-72.45383398156771 26,-87.43331325887277 28,-84.56414363023958 30,-19.642775054401852 32,-27.552049770504404 34,-86.06997495742384 36,-85.43940412860432 38,-8.606117898384657 40,-95.69639940753041 42,-33.137985802734235 44,-0.6459566911474646 46,-24.70265119430759 48,-30.712366231362477 50,-53.172646593781025 52,-14.214428156687763 54,-26.848070610327213 56,-48.73620610961641 58,-2.7470099101804313 60,-87.36400962799851 62,-98.55403312330473 64,-71.91083260567963 66,-29.308942735299503 68,-40.60708353159739 70,-95.0778390767938 72,-89.74035531491599 74,-81.06293978386869 76,-1.5377252847677547 78,-28.79063549360622 80,-71.91809412317926 82,-57.366719181191016 84,-46.050807670520555 86,-57.2031663019327 88,-19.457092240555152 90,-25.96578824158463 92,-86.90441875130244 94,-93.61515917011928 96,-49.683715874003006 98,-56.941592635779614 100,-73.03500710210959 102,-37.227287171097736 104,-82.38550049817694 106,-76.86304979960182 108,-62.41209360203196 110,-24.121566842885777 112,-96.83141138030268 114,-8.347055435547412 116,-98.23702455891183 118,-89.78708623865984 120,-13.854356779549482 122,-51.22397531994922 124,-97.12008501073807 126,-61.87863100032922 128,-55.436522252358586 130,-69.10608184845555 132,-55.787056103522595 134,-65.31898719196919 136,-51.80606946166697 138,-45.03244197993171 140,-11.410532960058628 142,-63.84712382454138 144,-53.743229343946666 146,-9.482504378554669 148,-91.13896533602374 150,-50.32139088529164 152,-4.849517617354293 154,-14.544282944718411 156,-29.755937892018526 158,-13.003502910700181 160,-10.039491780115606 162,-46.697986610542976 164,-1.1859586244785114 166,-48.408818771314245 168,-19.286228972511132 170,-23.938519522792888 172,-91.48096300729578 174,-21.829503466629717 176,-22.57142100885038 178,-96.17152821071137 180,-98.34634528158695 182,-23.418119411895034 184,-89.769845286301 186,-99.20354345586237 188,-54.3248960000907 190,-64.5742499294739 192,-9.932803641503519 194,-75.72491333965048 196,-78.98582165411669 198,-77.24269176287747 200,-76.53521312588083"
             stroke="black"
             stroke-width="0.5"
             fill="none"/>
   <g id="regression">
      <g>
         <line x1="0"
               y1="-53.28182113945061"
               x2="200"
               y2="-52.46479529330195"
               class="regression"/>
      </g>
   </g>
   <g id="exponential">
      <g>
         <path d="M0,-13.911885577469821 Q0.9861932086699519,-22.30140616963606 2,-27.823771569546153 C2.586193208669952,-31.016858379483836 3.4718876574418736,-32.49890780138226 4,-35.70051610208926 C5.071887657441873,-42.19868731480536 4.828103170800016,-45.6111944921867 6,-52.0732203531039 C6.428103170800016,-54.433849456212656 7.163162186362471,-57.6387877028336 8,-57.75715351215415 C8.763162186362472,-57.86509833534393 8.994927774189847,-53.280496539420334 10,-52.638996934379705 C10.594927774189847,-52.259277027322426 11.654253455835077,-53.97722894353535 12,-55.20410473190937 C13.254253455835078,-59.654801993873825 12.65574204145814,-62.582289421414444 14,-66.83292956022589 C14.25574204145814,-67.64160424925858 15.548346197995091,-67.13367913843709 16,-67.85239180151969 C17.148346197995092,-69.67974485476125 17.323489158705996,-73.56755648636486 18,-73.19809385103629 C18.923489158705994,-72.69374903134313 18.73258192677523,-68.18828805069535 20,-65.66787316396535 C20.332581926775227,-65.00649357895689 21.572180093362032,-65.84862928227216 22,-65.24360767169014 C23.172180093362034,-63.585914149312245 23.277844528754507,-59.780620900326284 24,-60.01108533156558 C24.87784452875451,-60.29123544894545 24.99838542870754,-64.0031999900918 26,-66.52014404323805 C26.59838542870754,-68.02381889925714 27.32150703023054,-70.33537817410755 28,-70.06263260447892 C28.92150703023054,-69.69219846429556 29.571720124775933,-67.067898180685 30,-64.91219476870808 C31.171720124775934,-59.014460093362814 30.587510544445944,-55.16214060467547 32,-49.92903738617342 C32.18751054444594,-49.23433341526254 33.764180572034086,-49.40889368602812 34,-50.092676795175734 C35.36418057203409,-54.04826112098901 34.651722944145895,-57.95457040909076 36,-61.52745597357565 C36.25172294414589,-62.194512695696275 37.776701678826086,-61.47666273885615 38,-60.692532511689514 C39.37670167882609,-55.8581325283693 38.926050470675904,-49.355016097479165 40,-47.48113044735853 C40.526050470675905,-46.563248925627065 41.511724539233626,-54.75499808156086 42,-53.71311458205926 C43.11172453923362,-51.340913751813694 43.1145351999025,-44.839806194262486 44,-38.94591962299061 C44.7145351999025,-34.18978542212497 44.66845444955329,-30.579203362717468 46,-27.08806265171546 C46.26845444955329,-26.38420970611349 47.37876479445401,-27.74018379324254 48,-28.458435481480663 C48.97876479445401,-29.590051107460486 49.243063463763136,-30.386342661764708 50,-31.71273093726033 C50.84306346376313,-33.190040381713175 51.300772895719454,-35.70327534126889 52,-35.46767978135182 C52.900772895719456,-35.16417596488649 53.03290484912383,-30.878828813988626 54,-30.364982496304318 C54.63290484912383,-30.02870139110781 55.43364461925786,-32.03825956491275 56,-33.342361224149776 C57.03364461925786,-35.72245278656992 56.85401193406136,-37.31669685105648 58,-39.57546555044722 C58.454011934061356,-40.47033346075804 59.824023423912884,-40.234753224691254 60,-41.226452748403695 C61.424023423912885,-49.25140346997381 60.86142189681541,-53.81770588196264 62,-62.117091163653605 C62.4614218968154,-65.48051268771819 63.07176928394869,-69.81601598044911 64,-70.38346976279256 C64.67176928394869,-70.79414139264387 65.37930497224033,-66.94029814677093 66,-64.56240469414048 C66.97930497224033,-60.81067030370423 66.86090419380908,-56.802418570091135 68,-55.05940015512582 C68.46090419380907,-54.354135072963544 69.61650492674862,-56.9378826737222 70,-58.4416959513215 C71.21650492674863,-63.21202127936132 70.62162070562948,-66.46105468945848 72,-70.74474666922363 C72.22162070562948,-71.43349384000034 73.72180241489394,-71.51136976458208 74,-70.87279382767618 C75.32180241489394,-67.83872286270498 75.46894756494154,-65.32986693590423 76,-61.56312941453086 C77.06894756494154,-53.98111936160131 76.58164312526951,-48.755569226112556 78,-42.50092489191887 C78.18164312526952,-41.69991834374102 79.66337657208074,-43.04745587777341 80,-43.924002208602026 C81.26337657208073,-47.213755704243475 80.69288229126121,-50.14496854868915 82,-52.91667445809403 C82.29288229126122,-53.537723023209125 83.41663478068949,-52.91645691520642 84,-52.405888394901964 C85.0166347806895,-51.51611694729977 85.0392796243355,-50.44986612865423 86,-49.41582453832742 C86.6392796243355,-48.72775573479634 87.55397019968576,-48.90082972021278 88,-48.100612410257234 C89.15397019968576,-46.03028677660936 89.17931693912215,-42.307348518013576 90,-42.23946717931887 C90.77931693912214,-42.17500736576005 91.58077368763936,-45.46686834412131 92,-47.76975952962343 C93.18077368763937,-54.25597768235812 92.79731717370916,-57.7370435248883 94,-64.2122405249109 C94.39731717370915,-66.35138055004401 95.31714932946036,-69.64340245655802 96,-69.30560209251271 C96.91714932946036,-68.85189619348975 96.76234586192534,-64.66723720999084 98,-62.23347486724023 C98.36234586192533,-61.52094647447191 99.25616562268954,-61.315816142278194 100,-61.43987525371538 C100.85616562268955,-61.58266933480905 101.3995190674878,-63.22247456810233 102,-62.90060784856736 C102.99951906748781,-62.36485074797298 103.44170581995162,-58.76228224614633 104,-59.29581570339201 C105.04170581995163,-60.291321168814534 104.73553659676435,-64.50416329454258 106,-66.72320515523788 C106.33553659676436,-67.3120476255775 107.5950778694866,-66.93203340159691 108,-66.31552653097934 C109.1950778694866,-64.49598232249824 109.25241173671516,-62.92324771799086 110,-60.6330774574912 C110.85241173671515,-58.02178979421483 111.29112596966876,-53.7377878309134 112,-54.06188172153926 C112.89112596966876,-54.46930034627395 113.21709988173477,-62.53765964026326 114,-62.46185874589256 C114.81709988173478,-62.382746608366105 115.37391864315438,-52.87819293465993 116,-53.67459914179638 C116.97391864315438,-54.913471445169115 116.64080844230028,-63.33563006964302 118,-67.55005502216554 C118.24080844230028,-68.29672616079883 119.75104845406473,-66.99862024156026 120,-66.0773393696859 C121.35104845406472,-61.07759095266305 120.91719998067191,-54.69925534886211 122,-52.747481799922504 C122.5171999806719,-51.81521617028767 123.37882001602229,-56.372312114271274 124,-58.8672414232498 C124.97882001602228,-62.79860883555913 124.90389956764434,-67.24232592797006 126,-68.81322360314213 C126.50389956764434,-69.53539707919077 127.08435056353491,-66.21792327449916 128,-64.59991930130158 C128.6843505635349,-63.39063342532898 128.9873349738447,-62.392965548216004 130,-61.74499898021669 C130.58733497384472,-61.36918524375044 131.4448906166921,-62.44876324839929 132,-62.04046854013766 C133.0448906166921,-61.271929361489 133.05604535129578,-59.97534288395678 134,-58.80291426294099 C134.6560453512958,-57.98808025836312 135.52086065268884,-57.980936562250704 136,-57.07231197615352 C137.12086065268883,-54.94674756083822 137.21781780793793,-53.565328997343535 138,-51.217441759409766 C138.81781780793793,-48.76258659433582 139.19890610519354,-47.52589412307078 140,-45.06545596863425 C140.79890610519354,-42.61173727751211 141.27999991561495,-38.66320335632849 142,-38.93204964551311 C142.87999991561495,-39.260639484496146 142.75451031337883,-44.501279589039555 144,-46.559046289053384 C144.35451031337882,-47.14475930259221 145.5359010338483,-46.252479671628805 146,-45.540748929394745 C147.13590103384828,-43.79875908479559 147.45220873243875,-39.70661033705818 148,-40.42474482197034 C149.05220873243874,-41.804152309523005 149.17966050876674,-50.67521367026624 150,-50.78460386055679 C150.77966050876674,-50.88856961172136 151.34965406877717,-44.91424211638562 152,-40.95813467560816 C152.94965406877716,-35.18131137698329 152.75674243480154,-32.1094224194193 154,-26.45227701205097 C154.35674243480153,-24.829006112164123 154.92341148196334,-23.639722589872743 156,-22.75709390747021 C156.52341148196334,-22.32798103942462 157.4107229586342,-23.535477709583766 158,-23.17292313593066 C159.01072295863423,-22.551072621443062 159.00765558033072,-20.817115864482762 160,-20.29608118711845 C160.60765558033071,-19.977029028441766 161.6079219944135,-20.379054470841414 162,-21.07270604582817 C163.20792199441348,-23.209722103723763 162.9949978251965,-26.63496867571508 164,-27.372750269324317 C164.5949978251965,-27.80954379542123 165.48728714060235,-23.407920174879806 166,-24.009143845093547 C167.08728714060234,-25.28413188814188 166.71121427851807,-29.508882886008966 168,-32.06327955247949 C168.31121427851807,-32.68011189501235 169.62388311588276,-31.36546544566548 170,-31.937216367602016 C171.22388311588276,-33.79769200535725 171.47793473336003,-35.595996531962356 172,-38.14384595170892 C173.07793473336005,-43.40452035472394 172.9470864684629,-49.71836762515379 174,-51.458525924505985 C174.5470864684629,-52.362699942641356 175.07979318889386,-45.20061640996416 176,-44.754676745427844 C176.67979318889385,-44.42524346700536 177.64841492398315,-47.497857818282256 178,-49.52009356710899 C179.24841492398315,-56.70068643313449 178.7152897638869,-60.606925234921036 180,-67.76174828255843 C180.31528976388688,-69.51766366793512 181.48396818074136,-72.4692329895499 182,-71.79693964964419 C183.08396818074135,-70.38473101950764 183.2427402800026,-62.344139343121086 184,-62.5504933574528 C184.8427402800026,-62.78014090798958 184.73174124271435,-69.009385185673 186,-72.88694356181544 C186.33174124271434,-73.90120506563666 187.66920573618316,-75.48149861008014 188,-74.78004305736195 C189.26920573618315,-72.08866805915339 188.96225126482872,-68.4882008401674 190,-64.40486718449858 C190.56225126482872,-62.1925209442128 191.3566880267932,-61.23440991735613 192,-59.04084331747546 C192.95668802679322,-55.77872635170786 193.3643222108364,-50.05308053849824 194,-50.765658270377905 C194.9643222108364,-51.84663757390698 194.97553545449054,-58.470681875532954 196,-63.52473590599732 C196.57553545449053,-66.36406040599408 196.92528932203706,-67.83842691204318 198,-70.49910459653071 Q198.52528932203705,-71.79957141583571 200,-73.42759716547867"
               class="spline"
               fill="none"/>
      </g>
   </g>
</svg>
