<?xml version="1.0" encoding="UTF-8"?>
<svg xmlns="http://www.w3.org/2000/svg"
     xmlns:djb="http://www.obdurodon.org"
     viewBox="-10 -115 220 125">
   <style type="text/css">
                #regression line {
                    stroke: red;
                    stroke-width: 0.5;
                    stroke-opacity: 0.33;
                }
                .spline {
                    stroke-width: 0.5;
                    stroke-opacity: 0.33;
                    fill: none;
                }
                #exponential-small .spline {
                    stroke: darkgoldenrod;
                }
                #exponential-mid .spline {
                    stroke: blue;
                }
                #exponential-large .spline {
                    stroke: green;
                }
                #exponential-jumbo .spline {
                    stroke: purple;
                }</style>
   <rect x="0"
         y="-100"
         width="200"
         height="100"
         stroke="lightgray"
         stroke-width="0.5"
         stroke-linecap="square"
         fill="none"/>
   <text x="-1"
         y="0"
         text-anchor="end"
         alignment-baseline="central"
         fill="lightgray"
         font-size="3">0.0</text>
   <text x="-1"
         y="-100"
         text-anchor="end"
         alignment-baseline="central"
         fill="lightgray"
         font-size="3">100.0</text>
   <text x="-1"
         y="-49.846985806331176"
         text-anchor="end"
         alignment-baseline="central"
         fill="lightgray"
         font-size="3">49.8</text>
   <text x="200"
         y="-54.132093509041866"
         text-anchor="start"
         alignment-baseline="central"
         fill="lightgray"
         font-size="3">52.0</text>
   <line x1="0"
         y1="-49.846985806331176"
         x2="200"
         y2="-49.846985806331176"
         stroke="lightgray"
         stroke-width="0.5"
         stroke-linecap="square"/>
   <text x="100"
         y="-105"
         text-anchor="middle"
         fill="black"
         font-size="4">
                n = 100; 
                    window = 
                    <tspan fill="darkgoldenrod">3</tspan>, 
                    <tspan fill="blue">5</tspan>, 
                    <tspan fill="green">7</tspan>, 
                    <tspan fill="purple">33</tspan>; 
                    weight(y) = 1
                <tspan dx="-1" dy="-2" font-size="3">-d</tspan>
   </text>
   <circle cx="0" cy="-49.10965972063188" r="0.5" fill="black"/>
   <circle cx="2" cy="-44.99824055145963" r="0.5" fill="black"/>
   <circle cx="4" cy="-82.52328096181505" r="0.5" fill="black"/>
   <circle cx="6" cy="-60.312604491266896" r="0.5" fill="black"/>
   <circle cx="8" cy="-3.1474276400161427" r="0.5" fill="black"/>
   <circle cx="10" cy="-34.46553602439365" r="0.5" fill="black"/>
   <circle cx="12" cy="-87.54459955482173" r="0.5" fill="black"/>
   <circle cx="14" cy="-14.509976694072312" r="0.5" fill="black"/>
   <circle cx="16" cy="-54.89420992672207" r="0.5" fill="black"/>
   <circle cx="18" cy="-88.25932779448888" r="0.5" fill="black"/>
   <circle cx="20" cy="-39.71245513637093" r="0.5" fill="black"/>
   <circle cx="22" cy="-47.439676337072015" r="0.5" fill="black"/>
   <circle cx="24" cy="-41.574919005794996" r="0.5" fill="black"/>
   <circle cx="26" cy="-49.30243886361425" r="0.5" fill="black"/>
   <circle cx="28" cy="-25.410303684465106" r="0.5" fill="black"/>
   <circle cx="30" cy="-85.05430889261282" r="0.5" fill="black"/>
   <circle cx="32" cy="-90.99273889080204" r="0.5" fill="black"/>
   <circle cx="34" cy="-19.938175945472814" r="0.5" fill="black"/>
   <circle cx="36" cy="-62.42137469235941" r="0.5" fill="black"/>
   <circle cx="38" cy="-0.23208879611914535" r="0.5" fill="black"/>
   <circle cx="40" cy="-39.296646184203766" r="0.5" fill="black"/>
   <circle cx="42" cy="-2.7016028792499314" r="0.5" fill="black"/>
   <circle cx="44" cy="-19.570864278686074" r="0.5" fill="black"/>
   <circle cx="46" cy="-62.07855774438107" r="0.5" fill="black"/>
   <circle cx="48" cy="-18.92309818611023" r="0.5" fill="black"/>
   <circle cx="50" cy="-97.80491231592497" r="0.5" fill="black"/>
   <circle cx="52" cy="-81.15508802569286" r="0.5" fill="black"/>
   <circle cx="54" cy="-90.69012943685013" r="0.5" fill="black"/>
   <circle cx="56" cy="-90.051660960285" r="0.5" fill="black"/>
   <circle cx="58" cy="-9.335212662850944" r="0.5" fill="black"/>
   <circle cx="60" cy="-57.56739307280482" r="0.5" fill="black"/>
   <circle cx="62" cy="-8.483537452682322" r="0.5" fill="black"/>
   <circle cx="64" cy="-67.01954710010573" r="0.5" fill="black"/>
   <circle cx="66" cy="-47.14907751817753" r="0.5" fill="black"/>
   <circle cx="68" cy="-94.04877836703727" r="0.5" fill="black"/>
   <circle cx="70" cy="-72.74864943671844" r="0.5" fill="black"/>
   <circle cx="72" cy="-22.45020654416813" r="0.5" fill="black"/>
   <circle cx="74" cy="-51.98894321493155" r="0.5" fill="black"/>
   <circle cx="76" cy="-38.179515519372465" r="0.5" fill="black"/>
   <circle cx="78" cy="-39.5657112788326" r="0.5" fill="black"/>
   <circle cx="80" cy="-72.82645496136223" r="0.5" fill="black"/>
   <circle cx="82" cy="-70.41289243867988" r="0.5" fill="black"/>
   <circle cx="84" cy="-96.26817962646923" r="0.5" fill="black"/>
   <circle cx="86" cy="-78.68958018802351" r="0.5" fill="black"/>
   <circle cx="88" cy="-77.16334391274843" r="0.5" fill="black"/>
   <circle cx="90" cy="-23.797288192549903" r="0.5" fill="black"/>
   <circle cx="92" cy="-62.44426012117732" r="0.5" fill="black"/>
   <circle cx="94" cy="-71.42766098747363" r="0.5" fill="black"/>
   <circle cx="96" cy="-1.127660637540584" r="0.5" fill="black"/>
   <circle cx="98" cy="-47.35791620796995" r="0.5" fill="black"/>
   <circle cx="100" cy="-31.41307499967959" r="0.5" fill="black"/>
   <circle cx="102" cy="-35.7982440214485" r="0.5" fill="black"/>
   <circle cx="104" cy="-49.998789738594326" r="0.5" fill="black"/>
   <circle cx="106" cy="-18.665505116723757" r="0.5" fill="black"/>
   <circle cx="108" cy="-86.45503015450693" r="0.5" fill="black"/>
   <circle cx="110" cy="-68.38279693067535" r="0.5" fill="black"/>
   <circle cx="112" cy="-52.125088637947655" r="0.5" fill="black"/>
   <circle cx="114" cy="-10.009315403452955" r="0.5" fill="black"/>
   <circle cx="116" cy="-69.7571924743644" r="0.5" fill="black"/>
   <circle cx="118" cy="-7.260271264768081" r="0.5" fill="black"/>
   <circle cx="120" cy="-64.56671415475635" r="0.5" fill="black"/>
   <circle cx="122" cy="-50.65458707350019" r="0.5" fill="black"/>
   <circle cx="124" cy="-53.57560516683414" r="0.5" fill="black"/>
   <circle cx="126" cy="-89.71240406016426" r="0.5" fill="black"/>
   <circle cx="128" cy="-40.76321537603798" r="0.5" fill="black"/>
   <circle cx="130" cy="-54.6982913904975" r="0.5" fill="black"/>
   <circle cx="132" cy="-59.94784452894796" r="0.5" fill="black"/>
   <circle cx="134" cy="-80.7152549094303" r="0.5" fill="black"/>
   <circle cx="136" cy="-93.2496630749122" r="0.5" fill="black"/>
   <circle cx="138" cy="-5.238977147726054" r="0.5" fill="black"/>
   <circle cx="140" cy="-84.83307936664731" r="0.5" fill="black"/>
   <circle cx="142" cy="-47.26308809693505" r="0.5" fill="black"/>
   <circle cx="144" cy="-70.7581049100979" r="0.5" fill="black"/>
   <circle cx="146" cy="-15.566307181775407" r="0.5" fill="black"/>
   <circle cx="148" cy="-72.79009960341382" r="0.5" fill="black"/>
   <circle cx="150" cy="-7.312970464755352" r="0.5" fill="black"/>
   <circle cx="152" cy="-50.08927656070825" r="0.5" fill="black"/>
   <circle cx="154" cy="-97.96635718174097" r="0.5" fill="black"/>
   <circle cx="156" cy="-3.3599483092777715" r="0.5" fill="black"/>
   <circle cx="158" cy="-48.758224898971825" r="0.5" fill="black"/>
   <circle cx="160" cy="-27.650791675641294" r="0.5" fill="black"/>
   <circle cx="162" cy="-24.34646296451797" r="0.5" fill="black"/>
   <circle cx="164" cy="-66.42241785905932" r="0.5" fill="black"/>
   <circle cx="166" cy="-89.40722337943409" r="0.5" fill="black"/>
   <circle cx="168" cy="-85.95118621009493" r="0.5" fill="black"/>
   <circle cx="170" cy="-17.726436897894327" r="0.5" fill="black"/>
   <circle cx="172" cy="-25.504581650537837" r="0.5" fill="black"/>
   <circle cx="174" cy="-79.10035869791005" r="0.5" fill="black"/>
   <circle cx="176" cy="-73.73962302073832" r="0.5" fill="black"/>
   <circle cx="178" cy="-21.952961541131145" r="0.5" fill="black"/>
   <circle cx="180" cy="-56.703935767651814" r="0.5" fill="black"/>
   <circle cx="182" cy="-70.29227908596886" r="0.5" fill="black"/>
   <circle cx="184" cy="-46.09805243419657" r="0.5" fill="black"/>
   <circle cx="186" cy="-56.10434445883088" r="0.5" fill="black"/>
   <circle cx="188" cy="-68.64394901774644" r="0.5" fill="black"/>
   <circle cx="190" cy="-92.63279936987637" r="0.5" fill="black"/>
   <circle cx="192" cy="-60.45710789898432" r="0.5" fill="black"/>
   <circle cx="194" cy="-5.680852498376055" r="0.5" fill="black"/>
   <circle cx="196" cy="-69.65267899949656" r="0.5" fill="black"/>
   <circle cx="198" cy="-94.28556671931594" r="0.5" fill="black"/>
   <circle cx="200" cy="-2.736860022209653" r="0.5" fill="black"/>
   <polyline points="0,-49.10965972063188 2,-44.99824055145963 4,-82.52328096181505 6,-60.312604491266896 8,-3.1474276400161427 10,-34.46553602439365 12,-87.54459955482173 14,-14.509976694072312 16,-54.89420992672207 18,-88.25932779448888 20,-39.71245513637093 22,-47.439676337072015 24,-41.574919005794996 26,-49.30243886361425 28,-25.410303684465106 30,-85.05430889261282 32,-90.99273889080204 34,-19.938175945472814 36,-62.42137469235941 38,-0.23208879611914535 40,-39.296646184203766 42,-2.7016028792499314 44,-19.570864278686074 46,-62.07855774438107 48,-18.92309818611023 50,-97.80491231592497 52,-81.15508802569286 54,-90.69012943685013 56,-90.051660960285 58,-9.335212662850944 60,-57.56739307280482 62,-8.483537452682322 64,-67.01954710010573 66,-47.14907751817753 68,-94.04877836703727 70,-72.74864943671844 72,-22.45020654416813 74,-51.98894321493155 76,-38.179515519372465 78,-39.5657112788326 80,-72.82645496136223 82,-70.41289243867988 84,-96.26817962646923 86,-78.68958018802351 88,-77.16334391274843 90,-23.797288192549903 92,-62.44426012117732 94,-71.42766098747363 96,-1.127660637540584 98,-47.35791620796995 100,-31.41307499967959 102,-35.7982440214485 104,-49.998789738594326 106,-18.665505116723757 108,-86.45503015450693 110,-68.38279693067535 112,-52.125088637947655 114,-10.009315403452955 116,-69.7571924743644 118,-7.260271264768081 120,-64.56671415475635 122,-50.65458707350019 124,-53.57560516683414 126,-89.71240406016426 128,-40.76321537603798 130,-54.6982913904975 132,-59.94784452894796 134,-80.7152549094303 136,-93.2496630749122 138,-5.238977147726054 140,-84.83307936664731 142,-47.26308809693505 144,-70.7581049100979 146,-15.566307181775407 148,-72.79009960341382 150,-7.312970464755352 152,-50.08927656070825 154,-97.96635718174097 156,-3.3599483092777715 158,-48.758224898971825 160,-27.650791675641294 162,-24.34646296451797 164,-66.42241785905932 166,-89.40722337943409 168,-85.95118621009493 170,-17.726436897894327 172,-25.504581650537837 174,-79.10035869791005 176,-73.73962302073832 178,-21.952961541131145 180,-56.703935767651814 182,-70.29227908596886 184,-46.09805243419657 186,-56.10434445883088 188,-68.64394901774644 190,-92.63279936987637 192,-60.45710789898432 194,-5.680852498376055 196,-69.65267899949656 198,-94.28556671931594 200,-2.736860022209653"
             stroke="black"
             stroke-width="0.5"
             fill="none"/>
   <g id="regression">
      <g>
         <line x1="0"
               y1="-49.846985806331176"
               x2="200"
               y2="-54.132093509041866"
               class="regression"/>
      </g>
   </g>
   <g id="exponential-small">
      <g>
         <path d="M0,-24.597226729817457 Q0.570405214817252,-41.696843156477954 2,-52.70834299246598 C2.1704052148172504,-54.02089464308759 3.6577491882476023,-54.13409611532106 4,-55.40735544634154 C5.257749188247603,-60.08649961497032 5.306574205132029,-68.25389220025731 6,-67.58935174158916 C6.906574205132029,-66.7205417801572 7.392691229966527,-57.99947361695978 8,-51.57397939609125 C8.992691229966528,-41.0710324998934 8.97435411891001,-28.260110442050774 10,-25.26824894892321 C10.574354118910012,-23.592828607976795 11.23768218578695,-34.045851302647286 12,-39.905774810906294 C12.837682185786948,-46.345022905888946 13.120603901096896,-55.36566318073427 14,-56.01617795702736 C14.720603901096895,-56.5492295433406 15.104583037498772,-43.50866270381879 16,-42.86469071742211 C16.70458303749877,-42.35796395520838 17.336587945407476,-49.00693134346542 18,-53.13943108550133 C18.936587945407478,-58.97358712170365 19.18242404251671,-67.6502017069385 20,-67.78133016301769 C20.78242404251671,-67.90682071316824 21.060495704445678,-59.356854026606655 22,-53.78097860107569 C22.66049570444568,-49.86099464303057 22.69055909550649,-46.92506739972546 24,-44.04168170407749 C24.290559095506488,-43.401871280522805 25.439963225822986,-45.343194536198524 26,-44.972988303069066 C27.039963225822987,-44.28553189631639 27.301652399698288,-41.16683462046649 28,-41.39752510437215 C28.90165239969829,-41.69537481175459 29.724342902011166,-44.21103338765362 30,-46.29433878128932 C31.324342902011168,-56.30318938195404 30.516919146428567,-62.19175684905559 32,-71.6279150901232 C32.116919146428565,-72.37181759850883 33.874348569114126,-72.47657668782027 34,-71.74449065492243 C35.47434856911413,-63.1544571991817 34.947670374747716,-57.65973643396409 36,-48.32261636852677 C36.54767037474772,-43.463241584626196 37.15361006438561,-41.07282354686264 38,-36.25325353157769 C38.75361006438561,-31.961996846332077 38.93925045528564,-29.754473211310998 40,-25.545549617200365 C40.53925045528564,-23.40587020305758 41.139182881372584,-22.42142431788862 42,-20.381746010944152 C42.739182881372585,-18.630276093147444 43.48827234811836,-15.351423291598355 44,-16.067679055347426 C45.08827234811835,-17.59091380532101 45.35099135861663,-21.98986573858834 46,-25.980472295250788 C46.95099135861663,-31.827901911805217 47.00437086119506,-34.82540970850591 48,-40.662769488389614 C48.604370861195065,-44.20618743365824 49.57124072789882,-45.867365451348434 50,-49.432416608131625 C51.17124072789882,-59.17105874035789 50.9787249186914,-64.15123732507422 52,-73.92200271091326 C52.5787249186914,-79.45879246223767 52.6052508097331,-82.74131507509648 54,-87.70130445104022 C54.2052508097331,-88.43121477669898 55.83829225081387,-88.8610611169586 56,-88.14675196491953 C57.43829225081387,-81.79340573856962 57.37633028114598,-77.2939239565269 58,-70.03216600506778 C58.976330281145984,-58.66417110643826 58.7696160035325,-52.889989956753666 60,-41.57236983969793 C60.36961600353249,-38.17247718084084 60.80830385093748,-35.080706410808546 62,-33.23838406528573 C62.40830385093748,-32.6071599827569 63.689486426712385,-34.28776861078087 64,-35.3885037695688 C65.28948642671239,-39.959585901773714 65.32110051479543,-42.58872578107744 66,-47.41792729276783 C66.92110051479544,-53.96997232359973 67.11326459240405,-57.284013683478264 68,-63.84162012587451 C68.71326459240404,-69.11637113526818 69.14760855417778,-76.64562169697192 70,-76.99882092224263 C70.74760855417779,-77.30860202508634 71.46408457855433,-70.13330837879215 72,-65.49907094616057 C73.06408457855433,-56.29758058389372 72.54801347195054,-51.24744171671292 74,-42.40950143499656 C74.14801347195053,-41.508574187589055 75.1649224987181,-41.24189843649279 76,-41.15190212335092 C76.76492249871811,-41.069466415745076 77.57088983751214,-41.29372825847831 78,-41.97842138312727 C79.17088983751214,-43.84670671297793 79.57822167071478,-45.22200582286212 80,-47.53434825959997 C81.17822167071478,-53.99378863363491 81.12648627729561,-57.36837107688019 82,-63.90787841005923 C82.7264862772956,-69.34667371955932 82.99756389040138,-72.09155227299037 84,-77.48010486629781 C84.59756389040139,-80.69228409693086 84.86650291981105,-83.92976711000213 86,-85.40970796991046 C86.46650291981105,-86.01879355500947 87.75491755420306,-84.00199510553355 88,-82.70267097881617 C89.35491755420307,-75.5194675381764 89.17586811570675,-71.60041071319822 90,-64.20338905151758 C90.77586811570674,-57.2395603635743 90.92137624072075,-49.274644203037695 92,-46.800545104756395 C92.52137624072074,-45.60463552466848 92.91012238060173,-53.71880703382812 94,-55.02836735559454 C94.51012238060173,-55.64131326529208 95.75038113052824,-53.152459630707675 96,-51.60681068341629 C97.35038113052825,-43.24520253552233 96.56903949302846,-37.340856416262085 98,-30.260224617631188 C98.16903949302846,-29.423788948211577 99.46843835894822,-30.9855234030172 100,-31.81414201329002 C101.06843835894821,-33.47966457884249 100.94935525870815,-34.80457898198414 102,-36.49557755719441 C102.54935525870816,-37.37975745478523 103.09279318067715,-37.77132423895072 104,-38.25208819529273 C104.69279318067716,-38.61922607760905 105.55209392505178,-38.03371275265155 106,-38.61533215384023 C107.15209392505177,-40.11136048718934 107.68859976341948,-41.39296995254298 108,-43.44620753163719 C109.28859976341947,-51.94267332664818 108.66710203528605,-56.528947238157414 110,-64.98959058910324 C110.26710203528604,-66.68503549088307 111.74863481778517,-70.05108870807823 112,-68.83642816345133 C113.34863481778518,-62.31948143343929 112.89366373593371,-54.887748796491785 114,-45.660572402505906 C114.49366373593371,-41.543268723033044 114.86279980018642,-37.3131082540899 116,-35.47522797980449 C116.46279980018642,-34.72727645478251 117.04021883211524,-38.779475636679955 118,-39.19599290423746 C118.64021883211524,-39.47382936062385 119.64150317895115,-36.53300849405338 120,-37.21111228966423 C121.24150317895116,-39.559439997136494 121.13750680983183,-42.955940730993966 122,-46.76207166194524 C122.73750680983183,-50.01664516198736 123.14640000110174,-51.63680341568852 124,-54.862873367147714 C124.74640000110175,-57.68379489764369 125.17531743186957,-59.08015842102455 126,-61.87955036683318 C126.77531743186957,-64.51137194048553 127.42182278234222,-69.22076254395932 128,-68.44090716580016 C129.0218227823422,-67.06265501749982 128.82849349100923,-61.14511916996811 130,-56.48428155068443 C130.42849349100922,-54.77952057224614 131.55408877922363,-51.708326105862646 132,-52.52691067149524 C133.15408877922363,-54.64553702137125 133.30553518193688,-59.29070115036587 134,-63.82730883945594 C134.90553518193687,-69.74273862403984 135.0682317907864,-77.65859591822151 136,-78.65700435568019 C136.6682317907864,-79.37302820313721 137.4600436992684,-72.36781730928276 138,-68.1133895517452 C139.0600436992684,-59.76108524071184 138.86519538010427,-50.706676034009085 140,-47.140174184252906 C140.46519538010426,-45.67814261110658 141.131151189362,-52.19934136500228 142,-55.54205599448893 C142.73115118936198,-58.35500773836265 143.38421748762943,-63.21526868205159 144,-62.529340117653824 C144.98421748762942,-61.43300679414664 145.03685967162062,-55.62739973986521 146,-51.08640127472657 C146.63685967162064,-48.083745580509934 146.79685240271087,-46.368724030180644 148,-43.670204719265634 C148.3968524027109,-42.78011120562586 149.61489759709534,-43.00964265496369 150,-42.1148692133396 C151.21489759709533,-39.29209247662072 151.49046317946497,-33.19807620493989 152,-34.376329273408196 C153.09046317946496,-36.897916596395326 153.03178187505804,-44.5944093599112 154,-51.36447019197821 C154.63178187505804,-55.78207157389472 155.493073282,-63.99342125853401 156,-62.34548480836699 C157.093073282,-58.79208105166957 156.7419790034412,-47.8634829462367 158,-38.36111967481708 C158.3419790034412,-35.778008001176175 158.77462986926415,-34.04936441938244 160,-32.13179744571568 C160.37462986926414,-31.545543670932844 161.47618391296177,-31.635406003061505 162,-32.101567803693094 C163.07618391296177,-33.05930057114889 163.78187825432605,-34.080265110937546 164,-35.69153386593414 C165.38187825432604,-45.899490195667376 165.1188898347001,-51.2733514534707 166,-61.64963051551767 C166.7188898347001,-70.1155429898993 167.0129373660026,-80.79589678899663 168,-82.7970127070056 C168.6129373660026,-84.03964785254138 169.54400352713435,-75.01093071213066 170,-69.75900817437956 C171.14400352713434,-56.58298979497055 170.49176354042962,-49.09470633938342 172,-36.727160414105356 C172.0917635404296,-35.974698959319596 173.89075660676295,-36.20427982747859 174,-36.95898972422002 C175.49075660676297,-47.25790786854608 174.55722414384917,-55.28106589618578 176,-64.36123051677407 C176.15722414384916,-65.35072663454956 177.77870315756866,-63.28243897862419 178,-62.13314157012946 C179.37870315756865,-54.97289495897981 178.88348415825828,-46.5795948306701 180,-43.587370467663106 C180.48348415825828,-42.29164941885868 181.27068050317538,-48.26639821899629 182,-51.41327804060091 C182.87068050317538,-55.17010466930966 183.04501704969428,-60.07431703700887 184,-60.846636593446526 C184.64501704969427,-61.36827866208779 184.89203389168767,-55.78633031665663 186,-54.648182103298225 C186.49203389168767,-54.1427447162385 187.73994765204742,-55.64167687735067 188,-56.737672592401196 C189.3399476520474,-62.38490822245139 188.92904893106498,-65.65512162442693 190,-71.50626046605002 C190.52904893106498,-74.3967181531148 191.62282152974223,-80.16631741296688 192,-78.59166391412087 C193.22282152974222,-73.48659999316897 193.12025996582548,-64.3133917463011 194,-54.80696691655527 C194.72025996582548,-47.02387537017605 195.29057655449955,-34.479146762896406 196,-35.36787297380825 C196.89057655449955,-36.48353771794281 196.70506721085283,-50.14729068779119 198,-59.81794430417128 Q198.30506721085283,-62.0962087443017 200,-65.24016811508453"
               class="spline"
               fill="none"/>
      </g>
   </g>
   <g id="exponential-mid">
      <g>
         <path d="M0,-25.39057524462853 Q0.5412101017194786,-41.46795735954747 2,-51.60020130359992 C2.1412101017194787,-52.58099723567531 3.546987191023291,-52.30146630279586 4,-53.173174934948136 C5.146987191023291,-55.380261833090344 5.3838864590807844,-59.90831527007993 6,-59.29719012933614 C6.983886459080785,-58.321269765884004 7.266388282553973,-53.25432809772472 8,-49.205561174458325 C8.866388282553975,-44.424006930311165 8.713648891436709,-40.37252396231259 10,-37.22138721080224 C10.31364889143671,-36.45305067943284 11.66968095015825,-38.30066268156103 12,-39.40687796725895 C13.269680950158252,-43.65895024615842 12.854598593928532,-48.56759328727929 14,-50.61710612229571 C14.454598593928532,-51.43053768270608 15.461168759918735,-45.94186944661499 16,-46.56423895582593 C17.061168759918733,-47.78992713270484 17.01486662889499,-51.824799941864356 18,-55.23725033752034 C18.61486662889499,-57.36711613294541 19.34439193893912,-60.84052899674404 20,-60.420029433528576 C20.94439193893912,-59.81430717138081 20.94987927960331,-55.67254894162908 22,-52.67169577411225 C22.54987927960331,-51.10034597984657 23.389946234254197,-50.54226583728991 24,-48.989522029072305 C24.989946234254194,-46.46985413746055 25.025306026796574,-43.12960362532142 26,-42.49066652453886 C26.625306026796576,-42.08076225627898 27.20390285680955,-44.81471665136876 28,-46.3674186064662 C28.803902856809547,-47.93534476742968 29.61865381194934,-48.58962381010224 30,-50.29223681469116 C31.218653811949338,-55.733213788718665 30.665051112170403,-58.924469317894285 32,-64.22639355300727 C32.265051112170404,-65.27907873666598 33.79572817511181,-67.04894100774075 34,-66.1787603616204 C35.39572817511181,-60.23307673201569 34.759257492389025,-54.6768531361187 36,-47.186732863694616 C36.35925749238903,-45.01796552457563 37.645596107305295,-44.201052696669336 38,-42.031541332762735 C39.245596107305296,-34.40652658168452 38.59476189520959,-28.857791757372823 40,-22.700417576232567 C40.19476189520959,-21.847023506611674 41.49119833133464,-24.964476885033125 42,-24.504620705859868 C43.09119833133464,-23.518393013871282 43.31834558979705,-18.727044250337464 44,-19.085207898327962 C44.91834558979705,-19.56773687728633 45.478596292255745,-23.543671315986845 46,-26.606352273232027 C47.078596292255746,-32.941935000747335 46.89992948203627,-36.252112950256176 48,-42.580867110229185 C48.499929482036265,-45.45698344774065 49.63637436150468,-46.72464989222262 50,-49.61852851694319 C51.23637436150467,-59.45809140287244 50.748944350694785,-64.5811763111607 52,-74.41447088685372 C52.34894435069478,-77.1571726945721 52.75903575809265,-78.94362379317998 54,-81.05851947547168 C54.35903575809265,-81.67040106636378 55.762360703370604,-81.89445970325727 56,-81.23141406981321 C57.362360703370605,-77.43024427863018 57.5193004728907,-74.47137442241021 58,-69.897980913904 C59.11930047289071,-59.248913818769566 58.52057406276537,-53.38335806227885 60,-43.17526256071159 C60.120574062765364,-42.343296920024315 61.67521323639354,-43.04613924030456 62,-42.297828058267655 C63.27521323639354,-39.35972702952308 63.50675427159865,-32.62769904601428 64,-33.959232033757885 C65.10675427159865,-36.94695141398661 64.80029827191628,-45.52665604460628 66,-53.095958978198475 C66.40029827191628,-55.621569146959004 67.42756309660423,-56.69924833385334 68,-59.196514789639686 C69.02756309660424,-63.67927758346255 69.07790161630551,-69.82759204658407 70,-70.54603210222149 C70.6779016163055,-71.07420966282395 71.42962002277133,-65.64915450229645 72,-62.313058830239356 C73.02962002277133,-56.290913876063144 72.70509564840243,-53.02932900865078 74,-47.150430536638225 C74.30509564840243,-45.765288584649376 75.01593325660981,-45.14687189229263 76,-44.15295777023585 C76.61593325660982,-43.53086098045928 77.62746743789558,-42.54092163263278 78,-43.11040325705485 C79.22746743789557,-44.98680339375489 79.4564182187002,-47.35125500427479 80,-50.267662173041124 C81.05641821870019,-55.93552259850547 81.03293605455441,-58.879429270476486 82,-64.57107224263154 C82.63293605455442,-68.29620961714959 83.21136594141298,-70.11177220860233 84,-73.80961303972386 C84.81136594141297,-77.61404181688549 85.12202952901252,-82.93746692955777 86,-83.32674626333944 C86.72202952901252,-83.6468836521386 87.22835185906241,-78.68764791972417 88,-75.58315484617592 C88.82835185906241,-72.25053150077989 89.41550885658684,-70.61392059303748 90,-67.23395521597871 C91.01550885658685,-61.361522735109034 90.59647957772592,-57.84945443356407 92,-52.45216020135482 C92.19647957772591,-51.696590082974396 93.45018177459711,-52.408649030595164 94,-51.851794339504536 C95.05018177459712,-50.78817254476724 95.66288406592531,-49.93972464990544 96,-48.40096898678502 C97.2628840659253,-42.63657219657989 96.68688747047281,-37.60779122795232 98,-33.59391320619064 C98.28688747047282,-32.716965277848004 99.12933226831204,-36.01823005383423 100,-36.17390411152423 C100.72933226831205,-36.30430760470558 101.30031455743622,-34.1289190894409 102,-34.309107083369014 C102.90031455743623,-34.54096252031263 103.39772797659147,-35.943763123972985 104,-37.20401268870355 C104.99772797659146,-39.29175078602171 104.96688755808086,-40.620326586474874 106,-42.67907623849083 C106.56688755808086,-43.80874955920231 107.74845764671554,-43.94723001029174 108,-45.175070120522136 C109.34845764671554,-51.75722363847012 108.7449657698472,-58.20001338891396 110,-62.20406030893679 C110.34496576984719,-63.30463517381659 111.30409689791082,-59.68584316225538 112,-57.936624582778734 C112.90409689791083,-55.66409111263741 113.56364929269625,-54.5487511418711 114,-52.149680184891864 C115.16364929269625,-45.75189699011478 114.89705625615711,-38.46022270153459 116,-35.94448920338793 C116.49705625615711,-34.810740468641995 117.20567566946616,-43.04766146873004 118,-43.02597460266037 C118.80567566946617,-43.00397781914555 119.44493669238169,-34.903195225073866 120,-35.835280079426695 C121.04493669238168,-37.58998022148014 120.77716436621597,-44.31590507332129 122,-49.74293709367605 C122.37716436621596,-51.41681953203518 123.37451853105568,-51.977937178570535 124,-53.5875662262114 C124.9745185310557,-56.09541563971851 125.12675177438274,-57.482284524099576 126,-60.03663324654599 C126.72675177438273,-62.16246346523098 127.38389864532435,-65.82661909250332 128,-65.2880135790399 C128.98389864532436,-64.42787387793523 128.82257693315498,-58.371757830813664 130,-56.53977021012575 C130.42257693315497,-55.88227017285997 131.42602791130162,-57.927346886623546 132,-59.06429443415565 C133.0260279113016,-61.09669276923715 133.13437567761534,-62.33044522249498 134,-64.46313491665975 C134.73437567761533,-66.27245958417933 134.864917713487,-67.64075403823499 136,-68.9193303383665 C136.46491771348698,-69.44302168395336 137.8443669500515,-69.68508011328214 138,-68.96880403095568 C139.4443669500515,-62.32133743715108 138.9785533138591,-52.587183144023136 140,-50.50997364803886 C140.5785533138591,-49.333430169277726 141.13591920624674,-60.49007959136715 142,-60.834421594092156 C142.73591920624673,-61.127690342980884 142.9694787999213,-53.18681621520475 144,-52.10400052707321 C144.56947879992128,-51.505623144282836 145.6283780173174,-57.719383722550766 146,-56.631438916787374 C147.2283780173174,-53.0352913643541 146.8156874584012,-43.60764017425452 148,-40.39376963158155 C148.41568745840118,-39.26571801464049 149.29039523761205,-46.04973196695635 150,-45.776633517752295 C150.89039523761204,-45.43395605635501 151.33200424401292,-38.365031743436276 152,-38.8543298550782 C152.93200424401292,-39.53701071427605 153.06039834341118,-44.800380256599965 154,-48.70658094485172 C154.6603983434112,-51.45205126779521 155.53290336972321,-56.679704296459796 156,-55.48350738306631 C157.1329033697232,-52.58223294391456 156.5722865152263,-44.72584881408395 158,-38.462902563488626 C158.1722865152263,-37.707133849336806 159.57091784665405,-38.55925506884263 160,-37.936719971198436 C161.17091784665408,-36.237890387362455 161.4196020143854,-32.01625725440055 162,-32.659490859788185 C163.01960201438538,-33.78947803415633 163.44014070090802,-38.447899957149595 164,-42.3697719205879 C165.040140700908,-49.65606449362943 164.9618232271283,-53.3931656947161 166,-60.67990220098777 C166.5618232271283,-64.62321698721924 166.98858866301927,-69.35257482330047 168,-70.44490015184572 C168.5885886630193,-71.08057653909071 169.62385680593636,-67.27674013854308 170,-64.99990649046336 C171.22385680593635,-57.59177469341226 170.56141575402694,-53.23250577322163 172,-46.232486539018694 C172.16141575402693,-45.44705225802002 173.72312840874068,-44.89777651507457 174,-45.536272702459335 C175.32312840874067,-48.587551602395806 174.78241516890034,-51.685122752393795 176,-55.456924257321795 C176.38241516890034,-56.64155967057908 177.55928181688142,-58.549633081660346 178,-57.92736499792253 C179.15928181688142,-56.29052743973897 178.9056514912347,-51.12592816146965 180,-49.80916015251837 C180.5056514912347,-49.20073815349033 181.20559294097407,-51.788945687365846 182,-53.11438997797421 C182.8055929409741,-54.458497576259866 182.94310553051514,-55.65365668794087 184,-56.48303987475342 C184.54310553051513,-56.90923436122255 185.5869997654299,-55.71647453213974 186,-56.25333416117841 C187.1869997654299,-57.79631695004056 187.24609831124042,-59.49497583764446 188,-61.682645919505475 C188.8460983112404,-64.13785193563633 188.82222942561825,-65.6907162319938 190,-67.8605244061581 C190.42222942561824,-68.63839819499857 191.7316314905581,-69.73520347149274 192,-69.05185082701739 C193.33163149055812,-65.6610882430169 193.17586774011934,-62.221503400048924 194,-57.67523633496851 C194.77586774011937,-53.395217064428294 195.051045154815,-47.81682256335839 196,-46.986134987965826 C196.651045154815,-46.416228923553554 197.03938537498968,-51.356055450069476 198,-54.17375223545641 Q198.63938537498967,-56.04921203882186 200,-58.71902645984678"
               class="spline"
               fill="none"/>
      </g>
   </g>
   <g id="exponential-large">
      <g>
         <path d="M0,-25.70549267941176 Q0.541080981708048,-41.609162765128126 2,-51.613390812992115 C2.141080981708047,-52.580823752399716 3.5281118775376585,-52.28692702002812 4,-53.134645147590724 C5.128111877537659,-55.16122908345504 5.318962526428555,-59.17214331180227 6,-58.79914597155941 C6.9189625264285555,-58.295839484849985 7.427284255872217,-54.13056221273733 8,-50.94388558021001 C9.027284255872216,-45.22792130523314 8.86066809610847,-39.06992408637763 10,-36.542543702798945 C10.460668096108467,-35.52064349490665 11.438854116620856,-39.794356970906996 12,-42.07068410153255 C13.038854116620858,-46.28486775763596 13.11179744488863,-52.278395473853614 14,-52.76882066962136 C14.71179744488863,-53.16184295856616 15.249167920937879,-44.05971715639718 16,-44.279302813313905 C16.84916792093788,-44.527647417855405 17.072019341336716,-50.10676694705007 18,-53.93864632326693 C18.672019341336718,-56.71359322592794 19.341380183930934,-61.31580914683152 20,-60.796368510508564 C20.941380183930935,-60.053920272796226 20.78888657909629,-54.60203011705667 22,-50.78392413817871 C22.388886579096287,-49.55793642544658 23.109513424175233,-49.138543713805205 24,-48.18613428148333 C24.70951342417523,-47.42728255267697 25.190909114267424,-46.524540195065875 26,-46.50577123535813 C26.790909114267425,-46.48742404895431 27.12495421976506,-47.5952079831022 28,-48.09334391620441 C28.72495421976506,-48.50603746307472 29.795926124838935,-48.01647657525005 30,-48.78284493528945 C31.395926124838937,-54.02503291346464 30.60438199820228,-58.358735899172245 32,-63.1147347617409 C32.20438199820228,-63.811229468549946 33.819790295076494,-63.192426194580335 34,-62.4140788587337 C35.419790295076496,-56.281834237930546 34.718664715724806,-52.31370108715311 36,-45.83825487011642 C36.31866471572481,-44.227828424152676 37.680745597028164,-43.80970789316145 38,-42.19939720123261 C39.280745597028165,-35.73935057591741 38.573739386549036,-31.43673311060415 40,-25.662361577006337 C40.17373938654904,-24.958958735693855 41.5597619681252,-26.512852494419604 42,-26.004961263956876 C43.1597619681252,-24.66697387898123 43.35208406196436,-20.62022533166164 44,-21.047665038410404 C44.95208406196436,-21.675768945654976 45.46574234692392,-25.553501337375707 46,-28.643820298940216 C47.06574234692392,-34.80841852954755 46.81800692180837,-38.06548091519564 48,-44.184958018840014 C48.41800692180837,-46.34908557116435 49.69328140149755,-47.171495042106066 50,-49.35283193886199 C51.293281401497545,-58.550456252316344 50.670095129327045,-63.46173213978449 52,-72.63236104436571 C52.27009512932704,-74.49485681726998 52.88058781045284,-75.6227915509014 54,-76.93564363257572 C54.48058781045284,-77.49927936324929 55.70913499254722,-77.94608487938758 56,-77.32358057523544 C57.30913499254722,-74.52179229993342 57.5364294223332,-72.00677107933885 58,-68.37491218394032 C59.1364294223332,-59.47151860088158 58.5524756594995,-54.546442245146736 60,-45.98544937909228 C60.15247565949951,-45.08367315557753 61.53794877668471,-45.49714857140254 62,-44.71798946001731 C63.13794877668471,-42.79906118344709 63.50230706169559,-38.33416240116463 64,-39.24023090920363 C65.1023070616956,-41.24702192013114 64.89627093839746,-46.97487469756411 66,-52.000138257433576 C66.49627093839747,-54.259653159514784 67.39845660704441,-55.21423001664935 68,-57.4521770640803 C68.9984566070444,-61.166776944804 69.00151037278553,-65.8885491283656 70,-66.88150557782018 C70.60151037278553,-67.47968265226557 71.54827054474318,-63.69722932220026 72,-61.43001087383024 C73.14827054474317,-55.66687071888627 72.60761489080375,-51.57651934523535 74,-46.8056090695352 C74.20761489080374,-46.09423115448719 75.30234440178364,-47.917364938831305 76,-47.724290396959844 C76.90234440178364,-47.47456871131715 77.4704504663152,-45.25248962181348 78,-45.69861850074979 C79.07045046631521,-46.600439456328814 79.52658728648599,-48.85228485690874 80,-51.09416498324818 C81.12658728648599,-56.4292005158013 80.98803256537305,-59.26525049617072 82,-64.64090764798118 C82.58803256537306,-67.7645866888096 83.1253957238758,-69.28339854527765 84,-72.34250546484537 C84.7253957238758,-74.8797250267792 85.02842112701681,-78.02008523214607 86,-78.63172385173506 C86.62842112701681,-79.0273341735908 87.4226464116988,-76.45739277030508 88,-74.86062781845719 C89.0226464116988,-72.03233337044246 89.47738765602568,-70.54140198506028 90,-67.56907535207853 C91.07738765602568,-61.44149711751569 90.59301724132808,-57.28210726135136 92,-52.11086564959574 C92.19301724132808,-51.4014477239033 93.47758956894766,-53.28204969098612 94,-52.86742650845837 C95.07758956894767,-52.01217249747744 95.65106679391421,-50.64756944896418 96,-48.936172665824024 C97.2510667939142,-42.80012241535921 96.79314484262763,-36.54948463563055 98,-33.24880892444596 C98.39314484262763,-32.17358160730559 99.03263096894533,-37.50391970063133 100,-37.99641509501164 C100.63263096894532,-38.31849263579072 101.18132488833714,-35.32485571855813 102,-35.28524126234444 C102.78132488833714,-35.24743412721018 103.47421167408024,-36.649431318680136 104,-37.80286111664175 C105.07421167408023,-40.159375502987125 104.79537236400542,-41.93315885692296 106,-44.060101723111906 C106.39537236400542,-44.758188338412985 107.7852865463468,-44.08327633983219 108,-44.86543482036682 C109.38528654634679,-49.91175866156265 108.60690876472712,-54.01750162954553 110,-58.631307527438054 C110.20690876472712,-59.31657268082669 111.71984931706241,-58.81657522428487 112,-58.113112448569716 C113.31984931706242,-54.79895003293381 113.18023824347492,-52.39333266851237 114,-48.587244549060415 C114.78023824347493,-44.96466093230307 114.98712890851841,-40.56998648289005 116,-39.541433108046455 C116.58712890851841,-38.94521368249103 117.32810094979763,-44.88802528580598 118,-44.525312548062864 C118.92810094979762,-44.02429377701132 119.40508221323246,-36.6044955090064 120,-37.382104336059804 C121.00508221323246,-38.695833423183764 120.81992953534537,-44.92790081723715 122,-49.753657333506276 C122.41992953534536,-51.47090876235197 123.17284667041197,-52.15947215290943 124,-53.739624198846855 C124.77284667041198,-55.216031539255745 125.44638398765308,-55.83484573001439 126,-57.39505579937207 C127.04638398765307,-60.3439929643757 127.20117288121425,-65.01726692346475 128,-65.01249228475011 C128.80117288121426,-65.00770362526947 128.90125929059164,-58.64673149616757 130,-57.37114755388389 C130.50125929059163,-56.78921016271951 131.1576124115598,-59.200365969284526 132,-60.36868895112996 C132.7576124115598,-61.4194356666598 133.4264375146902,-61.77253276413992 134,-62.91882179732207 C135.02643751469023,-64.97020084750639 134.84712242919022,-67.09045726119226 136,-68.36285915954615 C136.44712242919022,-68.85633690783699 137.7984036196237,-68.16528347739715 138,-67.33352091393392 C139.3984036196237,-61.56387476630275 138.94555798838468,-53.87676612817807 140,-51.859337381810136 C140.5455579883847,-50.81553947120538 141.02453572225738,-58.93539520131428 142,-59.680454271502214 C142.62453572225738,-60.157474307131864 143.044981489566,-56.73546533744356 144,-54.9145351463541 C144.64498148956602,-53.68475137335592 145.56721247984532,-53.35853369191227 146,-52.053669361283134 C147.16721247984535,-48.53449687989767 147.0049146463041,-43.80903087430994 148,-42.854443116317576 C148.60491464630408,-42.27414705040981 149.4075670896015,-48.83308213973258 150,-48.21645980153281 C151.0075670896015,-47.167753080859 151.15714343291376,-38.90476511453648 152,-38.691120469133615 C152.75714343291378,-38.49920212079212 153.167210029736,-43.8060336727861 154,-47.2025523171719 C154.767210029736,-50.33160437495777 155.51843095247068,-56.30494801173593 156,-55.00504722456279 C157.11843095247067,-51.98606317030437 156.67755207189612,-41.43762945038482 158,-36.40534021359299 C158.2775520718961,-35.34917590317309 159.02949718444603,-39.346680740080146 160,-39.783913356533475 C160.62949718444602,-40.06751552295093 161.44583441693135,-37.82038987271148 162,-38.20742717076994 C163.04583441693134,-38.93785312884592 163.6256543728382,-40.707888189763686 164,-42.57757149686958 C165.22565437283822,-48.69914833630337 164.96157546718018,-51.986338799366585 166,-58.185577537119144 C166.56157546718018,-61.53809886176591 166.85012732470722,-64.8450298864869 168,-66.45697165286789 C168.4501273247072,-67.08797980748825 169.71728962388954,-65.06913783362579 170,-63.79295233962251 C171.31728962388954,-57.846563202663575 170.64361300516745,-54.27861248268865 172,-48.40053507546235 C172.24361300516745,-47.34480680083514 173.66759852665984,-45.752153616851416 174,-46.458438134988725 C175.26759852665984,-49.151823352560704 174.65484105251167,-53.46832546450605 176,-56.89970941473557 C176.25484105251167,-57.549786864007174 177.6896343233364,-57.311065452423605 178,-56.66209163374154 C179.2896343233364,-53.96546963444032 179.08252563428638,-49.04735271546423 180,-48.53571986977736 C180.68252563428638,-48.15510702044443 181.01962960048263,-52.15592036196138 182,-54.43147739619205 C182.61962960048265,-55.86971186011504 183.01909741030042,-57.35025775472012 184,-57.82019861516151 C184.61909741030044,-58.11680214414467 185.49813634841297,-55.89861569546125 186,-56.34783836975344 C187.09813634841296,-57.330790104973836 187.1016883730213,-59.42505162530635 188,-61.40063463894298 C188.70168837302128,-62.943800272086925 189.12481502475228,-63.692959256990726 190,-65.14470998670487 C190.72481502475227,-66.34702809185063 191.5503286448754,-68.69646072225379 192,-68.03580672609276 C193.1503286448754,-66.34575196170852 193.35910215949463,-62.805142404144 194,-59.26793808534168 C194.95910215949462,-53.974519873693666 195.10240217539132,-46.62546472932277 196,-45.95925039996694 C196.7024021753913,-45.437914027053594 196.83627654606323,-52.30051204544691 198,-56.29906132966874 Q198.43627654606323,-57.79810585359104 200,-59.70323492032727"
               class="spline"
               fill="none"/>
      </g>
   </g>
   <g id="exponential-jumbo">
      <g>
         <path d="M0,-25.751147641203826 Q0.5392343470087193,-41.57393530639655 2,-51.50229528540548 C2.1392343470087187,-52.44862689972983 3.519438592697924,-52.11967864950499 4,-52.937876624537026 C5.119438592697924,-54.84381908225589 5.3417813063857675,-58.73771624648176 6,-58.312646367282724 C6.941781306385768,-57.70445509283082 7.371799434117991,-53.57311585959426 8,-50.35472374040968 C8.971799434117992,-45.37600864517238 8.89819284519457,-39.790774895853545 10,-37.819878331228004 C10.49819284519457,-36.92871823771019 11.412427019044358,-40.986665228517325 12,-43.19958209505129 C13.01242701904436,-47.01258388239369 13.116463020095594,-52.46077312746674 14,-52.88467496591891 C14.716463020095594,-53.22841834996423 15.191350957383682,-45.154532711751685 16,-45.11869515129503 C16.79135095738368,-45.08362420421777 17.14168172808182,-49.688597376770524 18,-52.707403697084125 C18.74168172808182,-55.31598557358407 19.281108038317306,-59.47249768101041 20,-59.1871656433289 C20.881108038317308,-58.83744918328925 20.83388940008593,-54.159318095354344 22,-51.11978245278122 C22.43388940008593,-49.988824294444406 23.13432004761471,-49.63882710773717 24,-48.760931141054066 C24.734320047614712,-48.01624876013578 25.14002983845078,-47.20322373525026 26,-47.06333658377775 C26.740029838450777,-46.94295953962653 27.161504886507227,-47.79631539134034 28,-48.110270651994725 C28.76150488650723,-48.39539868826565 29.769669972312766,-47.84258482312371 30,-48.56104482609101 C31.369669972312767,-52.833406108087246 30.626526656958088,-56.52912098125339 32,-60.58732386440356 C32.226526656958086,-61.256642375050205 33.81775730701523,-61.096134545092696 34,-60.37984831058305 C35.41775730701523,-54.807498460730166 34.702520826090385,-50.88735333519906 36,-44.86573365349723 C36.30252082609039,-43.46173010789775 37.659716771266204,-43.21119365077132 38,-41.81579024232978 C39.259716771266206,-36.650054972811134 38.61894313966724,-32.80983701411154 40,-28.462886958596766 C40.21894313966723,-27.7737517604256 41.50061234427981,-29.663770800765683 42,-29.225577108114944 C43.10061234427981,-28.259831596000847 43.36339072648665,-24.5423275607299 44,-24.95303894668467 C44.96339072648665,-25.57457488238921 45.43629304479057,-29.012472794761077 46,-31.806195412263225 C47.03629304479057,-36.94204710051491 46.82590789810155,-39.70163006502084 48,-44.77697471106926 C48.42590789810154,-46.618081866840214 49.686156693645586,-47.23562018094113 50,-49.09732491681166 C51.28615669364558,-56.726750044418424 50.73468466997243,-60.86078895710348 52,-68.5047993697625 C52.33468466997243,-70.52669307603006 52.87180416510277,-71.69159124799573 54,-73.2620852141281 C54.47180416510277,-73.91885558286246 55.65185103751795,-74.65498016782513 56,-74.07296020692934 C57.25185103751795,-71.98017128488526 57.54184745984381,-69.63718175224653 58,-66.57506300677842 C59.14184745984381,-58.943385334401285 58.550882840842235,-54.39250476527554 60,-47.33846916231623 C60.150882840842236,-46.60399926493723 61.5887468562558,-47.689941796823035 62,-47.10379925593266 C63.188746856255804,-45.40952624331192 63.455673685468795,-40.8693991397736 64,-41.63743027853846 C65.05567368546879,-43.12696007191797 64.85233236677865,-48.41964088065517 66,-52.74770158629358 C66.45233236677866,-54.45352815652462 67.47015916797703,-55.0351828289887 68,-56.72214846821207 C69.07015916797702,-60.12943917848867 69.03237279006075,-64.69974910962458 70,-65.4833424600435 C70.63237279006074,-65.99544371989602 71.47665249806347,-62.242844767777115 72,-59.96138499389065 C73.07665249806348,-55.26786996669147 72.64512335983102,-51.783114120383146 74,-48.0459054573294 C74.24512335983101,-47.36977220894521 75.18441576531141,-48.88029532263926 76,-48.92803021529579 C76.78441576531142,-48.97394086530918 77.51513314751297,-47.824956279170856 78,-48.28001931400419 C79.11513314751296,-49.32660740668903 79.51576749724316,-50.822422860442394 80,-52.682158034091216 C81.11576749724316,-56.96735584386983 80.9994352305298,-59.307867310048806 82,-63.64235177257279 C82.5994352305298,-66.23912788572406 83.18832991218653,-67.46685143291234 84,-70.01030947327936 C84.78832991218654,-72.4806284904728 85.04379883488753,-75.6301011659691 86,-76.17679441647394 C86.64379883488752,-76.54487645878612 87.4040092537807,-73.9295423663157 88,-72.29724770532195 C89.00400925378071,-69.54747523833207 89.4275655322384,-68.10128217845296 90,-65.22162659651485 C91.0275655322384,-60.05241511928098 90.63774098987965,-56.2290743983526 92,-52.17508005739199 C92.23774098987965,-51.4675783118162 93.41179283217056,-53.65282193852131 94,-53.317886380173846 C95.01179283217057,-52.7417536573688 95.65334930558872,-51.423209090944695 96,-49.89740935451069 C97.25334930558873,-44.38073198747172 96.72802655903781,-39.234860815984604 98,-35.711693621491406 C98.32802655903782,-34.80311143376089 99.01615876444458,-38.34016199930476 100,-38.81803589895141 C100.61615876444458,-39.11731812145386 101.27584569029659,-37.510848445494055 102,-37.65458392686416 C102.87584569029659,-37.828428230783686 103.37376652160349,-38.700494105921834 104,-39.61198536217548 C104.9737665216035,-41.02931564024809 104.91897409040645,-42.269111030803806 106,-43.4766377626798 C106.51897409040645,-44.05634180284701 107.7850423958543,-43.33230900541521 108,-44.080062292283486 C109.3850423958543,-48.89808214353751 108.63724624060521,-53.27221921890926 110,-57.39107060798554 C110.23724624060522,-58.10813486184156 111.62276402379439,-56.97609198514568 112,-56.169851399614245 C113.22276402379438,-53.55652169435455 113.27597298376313,-51.79205444860859 114,-48.84214488100772 C114.87597298376312,-45.27316053675875 115.05008107932912,-40.58670269235908 116,-39.87261661998966 C116.65008107932911,-39.38392875983844 117.2021772272955,-45.84242910190179 118,-45.83521004970611 C118.8021772272955,-45.827951596485484 119.39797695068619,-39.190604107756954 120,-39.836422856448884 C120.9979769506862,-40.907000181104735 120.81439466222727,-46.16641347795417 122,-50.12620023307556 C122.41439466222728,-51.510231193971194 123.3056650019069,-51.909700085018926 124,-53.19596714649144 C124.9056650019069,-54.87372653335888 125.32976482161693,-55.74994580529064 126,-57.536266353925434 C126.92976482161694,-60.014289083587116 127.21620611185483,-63.91305767218136 128,-63.85682534223261 C128.81620611185483,-63.79826763709839 128.83573362204166,-58.69642302762481 130,-57.249291266218 C130.43573362204168,-56.70769359071432 131.39341962655908,-58.07147751080457 132,-58.88500174995639 C132.99341962655907,-60.21734117477237 133.30018043407267,-61.075905843082495 134,-62.6139504261375 C134.90018043407267,-64.59234272581973 134.90010044876368,-66.68492646711448 136,-67.67609395679949 C136.50010044876367,-68.12675629758715 137.7747829907889,-67.14367451491908 138,-66.21852500231917 C139.3747829907889,-60.5711726184371 138.96624877636046,-53.039476748163 140,-51.244839215594546 C140.56624877636045,-50.26180646691287 141.01407752248102,-58.466031837648046 142,-59.27434929919386 C142.614077522481,-59.777806310756546 142.8924939534911,-56.14936188596743 144,-54.52427539836579 C144.49249395349113,-53.80161995863539 145.70162532743666,-54.219209548853684 146,-53.40499448086377 C147.30162532743665,-49.85307452274039 146.90977917367076,-45.127180689025366 148,-43.60893783308256 C148.50977917367078,-42.89901873243575 149.43187791978283,-48.40650884123279 150,-47.834589589389736 C151.03187791978283,-46.79581488158399 151.18272668270728,-39.65776030663483 152,-39.58220293396055 C152.7827266827073,-39.50983941686529 153.1325574305778,-44.33056331495182 154,-47.46478736496589 C154.7325574305778,-50.11164745446185 155.509286692161,-55.117618506937546 156,-54.03491328273564 C157.109286692161,-51.58739356489992 156.65955568645543,-43.04638383603437 158,-38.639225009871836 C158.25955568645546,-37.78584891443527 159.14515223388318,-40.76576817889134 160,-40.88357597873788 C160.74515223388318,-40.98626647955451 161.41454540807845,-38.84158135560309 162,-39.19047076152976 C163.01454540807845,-39.79506785512904 163.60135039872264,-41.51180464510302 164,-43.26729222755275 C165.20135039872264,-48.557541359549994 165.03287742781356,-51.42124536732195 166,-56.804812547647195 C166.63287742781355,-60.327776696692816 166.87498805161408,-63.98103835625995 168,-65.5336205509799 C168.4749880516141,-66.189131803726 169.68051798004726,-63.781096021772505 170,-62.325046166312305 C171.28051798004728,-56.48904318862409 170.5876567329777,-52.68961552372846 172,-47.30348846810885 C172.1876567329777,-46.58783878841637 173.74736287141687,-46.41894693752204 174,-47.07060432803207 C175.34736287141686,-50.546019750071785 174.65215333732993,-54.12981137451412 176,-57.62117049948322 C176.25215333732993,-58.274329259719536 177.696470980327,-58.079459731977295 178,-57.43189904104562 C179.296470980327,-54.665957106735924 179.0314851251834,-49.84270081391318 180,-49.087413936379804 C180.6314851251834,-48.59495642146674 181.11324313563057,-52.26051112385262 182,-54.312538059929516 C182.71324313563056,-55.96304022697689 183.0124957221269,-57.829178229669424 184,-58.343736694190454 C184.6124957221269,-58.662889598502055 185.3207856862099,-56.18198539861119 186,-56.39681648201108 C186.9207856862099,-56.68805502414922 187.33878874576243,-58.25371550295611 188,-59.608910758035535 C188.93878874576242,-61.53301904510064 189.04077123481255,-62.684783992064325 190,-64.59507533737239 C190.64077123481255,-65.8711627407204 191.57653667589557,-68.29352045997861 192,-67.5748576296757 C193.17653667589556,-65.57814828243183 193.26187992585847,-61.72565733204842 194,-57.80664489350542 C194.86187992585846,-53.23053557430258 195.14418463269106,-46.66763148009703 196,-46.33705323531111 C196.7441846326911,-46.0495949130269 196.8470966643296,-52.42728515068847 198,-56.26155347583011 Q198.4470966643296,-57.74848522914887 200,-59.640053431462114"
               class="spline"
               fill="none"/>
      </g>
   </g>
</svg>
