<?xml version="1.0" encoding="UTF-8"?>
<svg xmlns="http://www.w3.org/2000/svg" viewBox="-20 -110 550 130">
   <g>
      <line x1="5"
            y1="-0"
            x2="505"
            y2="-0"
            stroke="lightgray"
            stroke-width="0.25"
            stroke-linecap="square"/>
      <text x="3"
            y="-0"
            font-size="4"
            text-anchor="end"
            alignment-baseline="central">0.0</text>
      <line x1="5"
            y1="-10"
            x2="505"
            y2="-10"
            stroke="lightgray"
            stroke-width="0.25"
            stroke-linecap="square"/>
      <text x="3"
            y="-10"
            font-size="4"
            text-anchor="end"
            alignment-baseline="central">0.1</text>
      <line x1="5"
            y1="-20"
            x2="505"
            y2="-20"
            stroke="lightgray"
            stroke-width="0.25"
            stroke-linecap="square"/>
      <text x="3"
            y="-20"
            font-size="4"
            text-anchor="end"
            alignment-baseline="central">0.2</text>
      <line x1="5"
            y1="-30"
            x2="505"
            y2="-30"
            stroke="lightgray"
            stroke-width="0.25"
            stroke-linecap="square"/>
      <text x="3"
            y="-30"
            font-size="4"
            text-anchor="end"
            alignment-baseline="central">0.3</text>
      <line x1="5"
            y1="-40"
            x2="505"
            y2="-40"
            stroke="lightgray"
            stroke-width="0.25"
            stroke-linecap="square"/>
      <text x="3"
            y="-40"
            font-size="4"
            text-anchor="end"
            alignment-baseline="central">0.4</text>
      <line x1="5"
            y1="-50"
            x2="505"
            y2="-50"
            stroke="lightgray"
            stroke-width="0.25"
            stroke-linecap="square"/>
      <text x="3"
            y="-50"
            font-size="4"
            text-anchor="end"
            alignment-baseline="central">0.5</text>
      <line x1="5"
            y1="-60"
            x2="505"
            y2="-60"
            stroke="lightgray"
            stroke-width="0.25"
            stroke-linecap="square"/>
      <text x="3"
            y="-60"
            font-size="4"
            text-anchor="end"
            alignment-baseline="central">0.6</text>
      <line x1="5"
            y1="-70"
            x2="505"
            y2="-70"
            stroke="lightgray"
            stroke-width="0.25"
            stroke-linecap="square"/>
      <text x="3"
            y="-70"
            font-size="4"
            text-anchor="end"
            alignment-baseline="central">0.7</text>
      <line x1="5"
            y1="-80"
            x2="505"
            y2="-80"
            stroke="lightgray"
            stroke-width="0.25"
            stroke-linecap="square"/>
      <text x="3"
            y="-80"
            font-size="4"
            text-anchor="end"
            alignment-baseline="central">0.8</text>
      <line x1="5"
            y1="-90"
            x2="505"
            y2="-90"
            stroke="lightgray"
            stroke-width="0.25"
            stroke-linecap="square"/>
      <text x="3"
            y="-90"
            font-size="4"
            text-anchor="end"
            alignment-baseline="central">0.9</text>
      <line x1="5"
            y1="-100"
            x2="505"
            y2="-100"
            stroke="lightgray"
            stroke-width="0.25"
            stroke-linecap="square"/>
      <text x="3"
            y="-100"
            font-size="4"
            text-anchor="end"
            alignment-baseline="central">1.0</text>
      <line x1="5"
            y1="0"
            x2="5"
            y2="-100"
            stroke="lightgray"
            stroke-width="0.25"
            stroke-linecap="square"/>
      <circle cx="5" cy="-100" r="1" fill="black"/>
      <text x="5" y="4" text-anchor="middle" font-size="4">0</text>
      <line x1="10"
            y1="0"
            x2="10"
            y2="-100"
            stroke="lightgray"
            stroke-width="0.25"
            stroke-linecap="square"/>
      <circle cx="10" cy="-50" r="1" fill="black"/>
      <text x="10" y="4" text-anchor="middle" font-size="4">1</text>
      <line x1="15"
            y1="0"
            x2="15"
            y2="-100"
            stroke="lightgray"
            stroke-width="0.25"
            stroke-linecap="square"/>
      <circle cx="15" cy="-33.3333333333333333" r="1" fill="black"/>
      <text x="15" y="4" text-anchor="middle" font-size="4">2</text>
      <line x1="20"
            y1="0"
            x2="20"
            y2="-100"
            stroke="lightgray"
            stroke-width="0.25"
            stroke-linecap="square"/>
      <circle cx="20" cy="-25" r="1" fill="black"/>
      <text x="20" y="4" text-anchor="middle" font-size="4">3</text>
      <line x1="25"
            y1="0"
            x2="25"
            y2="-100"
            stroke="lightgray"
            stroke-width="0.25"
            stroke-linecap="square"/>
      <circle cx="25" cy="-20" r="1" fill="black"/>
      <text x="25" y="4" text-anchor="middle" font-size="4">4</text>
      <line x1="30"
            y1="0"
            x2="30"
            y2="-100"
            stroke="lightgray"
            stroke-width="0.25"
            stroke-linecap="square"/>
      <circle cx="30" cy="-16.6666666666666667" r="1" fill="black"/>
      <text x="30" y="4" text-anchor="middle" font-size="4">5</text>
      <line x1="35"
            y1="0"
            x2="35"
            y2="-100"
            stroke="lightgray"
            stroke-width="0.25"
            stroke-linecap="square"/>
      <circle cx="35" cy="-14.2857142857142857" r="1" fill="black"/>
      <text x="35" y="4" text-anchor="middle" font-size="4">6</text>
      <line x1="40"
            y1="0"
            x2="40"
            y2="-100"
            stroke="lightgray"
            stroke-width="0.25"
            stroke-linecap="square"/>
      <circle cx="40" cy="-12.5" r="1" fill="black"/>
      <text x="40" y="4" text-anchor="middle" font-size="4">7</text>
      <line x1="45"
            y1="0"
            x2="45"
            y2="-100"
            stroke="lightgray"
            stroke-width="0.25"
            stroke-linecap="square"/>
      <circle cx="45" cy="-11.1111111111111111" r="1" fill="black"/>
      <text x="45" y="4" text-anchor="middle" font-size="4">8</text>
      <line x1="50"
            y1="0"
            x2="50"
            y2="-100"
            stroke="lightgray"
            stroke-width="0.25"
            stroke-linecap="square"/>
      <circle cx="50" cy="-10" r="1" fill="black"/>
      <text x="50" y="4" text-anchor="middle" font-size="4">9</text>
      <line x1="55"
            y1="0"
            x2="55"
            y2="-100"
            stroke="lightgray"
            stroke-width="0.25"
            stroke-linecap="square"/>
      <circle cx="55" cy="-9.0909090909090909" r="1" fill="black"/>
      <text x="55" y="4" text-anchor="middle" font-size="4">10</text>
      <line x1="60"
            y1="0"
            x2="60"
            y2="-100"
            stroke="lightgray"
            stroke-width="0.25"
            stroke-linecap="square"/>
      <circle cx="60" cy="-8.3333333333333333" r="1" fill="black"/>
      <text x="60" y="4" text-anchor="middle" font-size="4">11</text>
      <line x1="65"
            y1="0"
            x2="65"
            y2="-100"
            stroke="lightgray"
            stroke-width="0.25"
            stroke-linecap="square"/>
      <circle cx="65" cy="-7.6923076923076923" r="1" fill="black"/>
      <text x="65" y="4" text-anchor="middle" font-size="4">12</text>
      <line x1="70"
            y1="0"
            x2="70"
            y2="-100"
            stroke="lightgray"
            stroke-width="0.25"
            stroke-linecap="square"/>
      <circle cx="70" cy="-7.1428571428571429" r="1" fill="black"/>
      <text x="70" y="4" text-anchor="middle" font-size="4">13</text>
      <line x1="75"
            y1="0"
            x2="75"
            y2="-100"
            stroke="lightgray"
            stroke-width="0.25"
            stroke-linecap="square"/>
      <circle cx="75" cy="-6.6666666666666667" r="1" fill="black"/>
      <text x="75" y="4" text-anchor="middle" font-size="4">14</text>
      <line x1="80"
            y1="0"
            x2="80"
            y2="-100"
            stroke="lightgray"
            stroke-width="0.25"
            stroke-linecap="square"/>
      <circle cx="80" cy="-6.25" r="1" fill="black"/>
      <text x="80" y="4" text-anchor="middle" font-size="4">15</text>
      <line x1="85"
            y1="0"
            x2="85"
            y2="-100"
            stroke="lightgray"
            stroke-width="0.25"
            stroke-linecap="square"/>
      <circle cx="85" cy="-5.8823529411764706" r="1" fill="black"/>
      <text x="85" y="4" text-anchor="middle" font-size="4">16</text>
      <line x1="90"
            y1="0"
            x2="90"
            y2="-100"
            stroke="lightgray"
            stroke-width="0.25"
            stroke-linecap="square"/>
      <circle cx="90" cy="-5.5555555555555556" r="1" fill="black"/>
      <text x="90" y="4" text-anchor="middle" font-size="4">17</text>
      <line x1="95"
            y1="0"
            x2="95"
            y2="-100"
            stroke="lightgray"
            stroke-width="0.25"
            stroke-linecap="square"/>
      <circle cx="95" cy="-5.2631578947368421" r="1" fill="black"/>
      <text x="95" y="4" text-anchor="middle" font-size="4">18</text>
      <line x1="100"
            y1="0"
            x2="100"
            y2="-100"
            stroke="lightgray"
            stroke-width="0.25"
            stroke-linecap="square"/>
      <circle cx="100" cy="-5" r="1" fill="black"/>
      <text x="100" y="4" text-anchor="middle" font-size="4">19</text>
      <line x1="105"
            y1="0"
            x2="105"
            y2="-100"
            stroke="lightgray"
            stroke-width="0.25"
            stroke-linecap="square"/>
      <circle cx="105" cy="-4.7619047619047619" r="1" fill="black"/>
      <text x="105" y="4" text-anchor="middle" font-size="4">20</text>
      <line x1="110"
            y1="0"
            x2="110"
            y2="-100"
            stroke="lightgray"
            stroke-width="0.25"
            stroke-linecap="square"/>
      <circle cx="110" cy="-4.5454545454545455" r="1" fill="black"/>
      <text x="110" y="4" text-anchor="middle" font-size="4">21</text>
      <line x1="115"
            y1="0"
            x2="115"
            y2="-100"
            stroke="lightgray"
            stroke-width="0.25"
            stroke-linecap="square"/>
      <circle cx="115" cy="-4.3478260869565217" r="1" fill="black"/>
      <text x="115" y="4" text-anchor="middle" font-size="4">22</text>
      <line x1="120"
            y1="0"
            x2="120"
            y2="-100"
            stroke="lightgray"
            stroke-width="0.25"
            stroke-linecap="square"/>
      <circle cx="120" cy="-4.1666666666666667" r="1" fill="black"/>
      <text x="120" y="4" text-anchor="middle" font-size="4">23</text>
      <line x1="125"
            y1="0"
            x2="125"
            y2="-100"
            stroke="lightgray"
            stroke-width="0.25"
            stroke-linecap="square"/>
      <circle cx="125" cy="-4" r="1" fill="black"/>
      <text x="125" y="4" text-anchor="middle" font-size="4">24</text>
      <line x1="130"
            y1="0"
            x2="130"
            y2="-100"
            stroke="lightgray"
            stroke-width="0.25"
            stroke-linecap="square"/>
      <circle cx="130" cy="-3.8461538461538462" r="1" fill="black"/>
      <text x="130" y="4" text-anchor="middle" font-size="4">25</text>
      <line x1="135"
            y1="0"
            x2="135"
            y2="-100"
            stroke="lightgray"
            stroke-width="0.25"
            stroke-linecap="square"/>
      <circle cx="135" cy="-3.7037037037037037" r="1" fill="black"/>
      <text x="135" y="4" text-anchor="middle" font-size="4">26</text>
      <line x1="140"
            y1="0"
            x2="140"
            y2="-100"
            stroke="lightgray"
            stroke-width="0.25"
            stroke-linecap="square"/>
      <circle cx="140" cy="-3.5714285714285714" r="1" fill="black"/>
      <text x="140" y="4" text-anchor="middle" font-size="4">27</text>
      <line x1="145"
            y1="0"
            x2="145"
            y2="-100"
            stroke="lightgray"
            stroke-width="0.25"
            stroke-linecap="square"/>
      <circle cx="145" cy="-3.4482758620689655" r="1" fill="black"/>
      <text x="145" y="4" text-anchor="middle" font-size="4">28</text>
      <line x1="150"
            y1="0"
            x2="150"
            y2="-100"
            stroke="lightgray"
            stroke-width="0.25"
            stroke-linecap="square"/>
      <circle cx="150" cy="-3.3333333333333333" r="1" fill="black"/>
      <text x="150" y="4" text-anchor="middle" font-size="4">29</text>
      <line x1="155"
            y1="0"
            x2="155"
            y2="-100"
            stroke="lightgray"
            stroke-width="0.25"
            stroke-linecap="square"/>
      <circle cx="155" cy="-3.2258064516129032" r="1" fill="black"/>
      <text x="155" y="4" text-anchor="middle" font-size="4">30</text>
      <line x1="160"
            y1="0"
            x2="160"
            y2="-100"
            stroke="lightgray"
            stroke-width="0.25"
            stroke-linecap="square"/>
      <circle cx="160" cy="-3.125" r="1" fill="black"/>
      <text x="160" y="4" text-anchor="middle" font-size="4">31</text>
      <line x1="165"
            y1="0"
            x2="165"
            y2="-100"
            stroke="lightgray"
            stroke-width="0.25"
            stroke-linecap="square"/>
      <circle cx="165" cy="-3.0303030303030303" r="1" fill="black"/>
      <text x="165" y="4" text-anchor="middle" font-size="4">32</text>
      <line x1="170"
            y1="0"
            x2="170"
            y2="-100"
            stroke="lightgray"
            stroke-width="0.25"
            stroke-linecap="square"/>
      <circle cx="170" cy="-2.9411764705882353" r="1" fill="black"/>
      <text x="170" y="4" text-anchor="middle" font-size="4">33</text>
      <line x1="175"
            y1="0"
            x2="175"
            y2="-100"
            stroke="lightgray"
            stroke-width="0.25"
            stroke-linecap="square"/>
      <circle cx="175" cy="-2.8571428571428571" r="1" fill="black"/>
      <text x="175" y="4" text-anchor="middle" font-size="4">34</text>
      <line x1="180"
            y1="0"
            x2="180"
            y2="-100"
            stroke="lightgray"
            stroke-width="0.25"
            stroke-linecap="square"/>
      <circle cx="180" cy="-2.7777777777777778" r="1" fill="black"/>
      <text x="180" y="4" text-anchor="middle" font-size="4">35</text>
      <line x1="185"
            y1="0"
            x2="185"
            y2="-100"
            stroke="lightgray"
            stroke-width="0.25"
            stroke-linecap="square"/>
      <circle cx="185" cy="-2.7027027027027027" r="1" fill="black"/>
      <text x="185" y="4" text-anchor="middle" font-size="4">36</text>
      <line x1="190"
            y1="0"
            x2="190"
            y2="-100"
            stroke="lightgray"
            stroke-width="0.25"
            stroke-linecap="square"/>
      <circle cx="190" cy="-2.6315789473684211" r="1" fill="black"/>
      <text x="190" y="4" text-anchor="middle" font-size="4">37</text>
      <line x1="195"
            y1="0"
            x2="195"
            y2="-100"
            stroke="lightgray"
            stroke-width="0.25"
            stroke-linecap="square"/>
      <circle cx="195" cy="-2.5641025641025641" r="1" fill="black"/>
      <text x="195" y="4" text-anchor="middle" font-size="4">38</text>
      <line x1="200"
            y1="0"
            x2="200"
            y2="-100"
            stroke="lightgray"
            stroke-width="0.25"
            stroke-linecap="square"/>
      <circle cx="200" cy="-2.5" r="1" fill="black"/>
      <text x="200" y="4" text-anchor="middle" font-size="4">39</text>
      <line x1="205"
            y1="0"
            x2="205"
            y2="-100"
            stroke="lightgray"
            stroke-width="0.25"
            stroke-linecap="square"/>
      <circle cx="205" cy="-2.4390243902439024" r="1" fill="black"/>
      <text x="205" y="4" text-anchor="middle" font-size="4">40</text>
      <line x1="210"
            y1="0"
            x2="210"
            y2="-100"
            stroke="lightgray"
            stroke-width="0.25"
            stroke-linecap="square"/>
      <circle cx="210" cy="-2.380952380952381" r="1" fill="black"/>
      <text x="210" y="4" text-anchor="middle" font-size="4">41</text>
      <line x1="215"
            y1="0"
            x2="215"
            y2="-100"
            stroke="lightgray"
            stroke-width="0.25"
            stroke-linecap="square"/>
      <circle cx="215" cy="-2.3255813953488372" r="1" fill="black"/>
      <text x="215" y="4" text-anchor="middle" font-size="4">42</text>
      <line x1="220"
            y1="0"
            x2="220"
            y2="-100"
            stroke="lightgray"
            stroke-width="0.25"
            stroke-linecap="square"/>
      <circle cx="220" cy="-2.2727272727272727" r="1" fill="black"/>
      <text x="220" y="4" text-anchor="middle" font-size="4">43</text>
      <line x1="225"
            y1="0"
            x2="225"
            y2="-100"
            stroke="lightgray"
            stroke-width="0.25"
            stroke-linecap="square"/>
      <circle cx="225" cy="-2.2222222222222222" r="1" fill="black"/>
      <text x="225" y="4" text-anchor="middle" font-size="4">44</text>
      <line x1="230"
            y1="0"
            x2="230"
            y2="-100"
            stroke="lightgray"
            stroke-width="0.25"
            stroke-linecap="square"/>
      <circle cx="230" cy="-2.1739130434782609" r="1" fill="black"/>
      <text x="230" y="4" text-anchor="middle" font-size="4">45</text>
      <line x1="235"
            y1="0"
            x2="235"
            y2="-100"
            stroke="lightgray"
            stroke-width="0.25"
            stroke-linecap="square"/>
      <circle cx="235" cy="-2.1276595744680851" r="1" fill="black"/>
      <text x="235" y="4" text-anchor="middle" font-size="4">46</text>
      <line x1="240"
            y1="0"
            x2="240"
            y2="-100"
            stroke="lightgray"
            stroke-width="0.25"
            stroke-linecap="square"/>
      <circle cx="240" cy="-2.0833333333333333" r="1" fill="black"/>
      <text x="240" y="4" text-anchor="middle" font-size="4">47</text>
      <line x1="245"
            y1="0"
            x2="245"
            y2="-100"
            stroke="lightgray"
            stroke-width="0.25"
            stroke-linecap="square"/>
      <circle cx="245" cy="-2.0408163265306122" r="1" fill="black"/>
      <text x="245" y="4" text-anchor="middle" font-size="4">48</text>
      <line x1="250"
            y1="0"
            x2="250"
            y2="-100"
            stroke="lightgray"
            stroke-width="0.25"
            stroke-linecap="square"/>
      <circle cx="250" cy="-2" r="1" fill="black"/>
      <text x="250" y="4" text-anchor="middle" font-size="4">49</text>
      <line x1="255"
            y1="0"
            x2="255"
            y2="-100"
            stroke="lightgray"
            stroke-width="0.25"
            stroke-linecap="square"/>
      <circle cx="255" cy="-1.9607843137254902" r="1" fill="black"/>
      <text x="255" y="4" text-anchor="middle" font-size="4">50</text>
      <line x1="260"
            y1="0"
            x2="260"
            y2="-100"
            stroke="lightgray"
            stroke-width="0.25"
            stroke-linecap="square"/>
      <circle cx="260" cy="-1.9230769230769231" r="1" fill="black"/>
      <text x="260" y="4" text-anchor="middle" font-size="4">51</text>
      <line x1="265"
            y1="0"
            x2="265"
            y2="-100"
            stroke="lightgray"
            stroke-width="0.25"
            stroke-linecap="square"/>
      <circle cx="265" cy="-1.8867924528301887" r="1" fill="black"/>
      <text x="265" y="4" text-anchor="middle" font-size="4">52</text>
      <line x1="270"
            y1="0"
            x2="270"
            y2="-100"
            stroke="lightgray"
            stroke-width="0.25"
            stroke-linecap="square"/>
      <circle cx="270" cy="-1.8518518518518519" r="1" fill="black"/>
      <text x="270" y="4" text-anchor="middle" font-size="4">53</text>
      <line x1="275"
            y1="0"
            x2="275"
            y2="-100"
            stroke="lightgray"
            stroke-width="0.25"
            stroke-linecap="square"/>
      <circle cx="275" cy="-1.8181818181818182" r="1" fill="black"/>
      <text x="275" y="4" text-anchor="middle" font-size="4">54</text>
      <line x1="280"
            y1="0"
            x2="280"
            y2="-100"
            stroke="lightgray"
            stroke-width="0.25"
            stroke-linecap="square"/>
      <circle cx="280" cy="-1.7857142857142857" r="1" fill="black"/>
      <text x="280" y="4" text-anchor="middle" font-size="4">55</text>
      <line x1="285"
            y1="0"
            x2="285"
            y2="-100"
            stroke="lightgray"
            stroke-width="0.25"
            stroke-linecap="square"/>
      <circle cx="285" cy="-1.7543859649122807" r="1" fill="black"/>
      <text x="285" y="4" text-anchor="middle" font-size="4">56</text>
      <line x1="290"
            y1="0"
            x2="290"
            y2="-100"
            stroke="lightgray"
            stroke-width="0.25"
            stroke-linecap="square"/>
      <circle cx="290" cy="-1.7241379310344828" r="1" fill="black"/>
      <text x="290" y="4" text-anchor="middle" font-size="4">57</text>
      <line x1="295"
            y1="0"
            x2="295"
            y2="-100"
            stroke="lightgray"
            stroke-width="0.25"
            stroke-linecap="square"/>
      <circle cx="295" cy="-1.6949152542372881" r="1" fill="black"/>
      <text x="295" y="4" text-anchor="middle" font-size="4">58</text>
      <line x1="300"
            y1="0"
            x2="300"
            y2="-100"
            stroke="lightgray"
            stroke-width="0.25"
            stroke-linecap="square"/>
      <circle cx="300" cy="-1.6666666666666667" r="1" fill="black"/>
      <text x="300" y="4" text-anchor="middle" font-size="4">59</text>
      <line x1="305"
            y1="0"
            x2="305"
            y2="-100"
            stroke="lightgray"
            stroke-width="0.25"
            stroke-linecap="square"/>
      <circle cx="305" cy="-1.639344262295082" r="1" fill="black"/>
      <text x="305" y="4" text-anchor="middle" font-size="4">60</text>
      <line x1="310"
            y1="0"
            x2="310"
            y2="-100"
            stroke="lightgray"
            stroke-width="0.25"
            stroke-linecap="square"/>
      <circle cx="310" cy="-1.6129032258064516" r="1" fill="black"/>
      <text x="310" y="4" text-anchor="middle" font-size="4">61</text>
      <line x1="315"
            y1="0"
            x2="315"
            y2="-100"
            stroke="lightgray"
            stroke-width="0.25"
            stroke-linecap="square"/>
      <circle cx="315" cy="-1.5873015873015873" r="1" fill="black"/>
      <text x="315" y="4" text-anchor="middle" font-size="4">62</text>
      <line x1="320"
            y1="0"
            x2="320"
            y2="-100"
            stroke="lightgray"
            stroke-width="0.25"
            stroke-linecap="square"/>
      <circle cx="320" cy="-1.5625" r="1" fill="black"/>
      <text x="320" y="4" text-anchor="middle" font-size="4">63</text>
      <line x1="325"
            y1="0"
            x2="325"
            y2="-100"
            stroke="lightgray"
            stroke-width="0.25"
            stroke-linecap="square"/>
      <circle cx="325" cy="-1.5384615384615385" r="1" fill="black"/>
      <text x="325" y="4" text-anchor="middle" font-size="4">64</text>
      <line x1="330"
            y1="0"
            x2="330"
            y2="-100"
            stroke="lightgray"
            stroke-width="0.25"
            stroke-linecap="square"/>
      <circle cx="330" cy="-1.5151515151515152" r="1" fill="black"/>
      <text x="330" y="4" text-anchor="middle" font-size="4">65</text>
      <line x1="335"
            y1="0"
            x2="335"
            y2="-100"
            stroke="lightgray"
            stroke-width="0.25"
            stroke-linecap="square"/>
      <circle cx="335" cy="-1.4925373134328358" r="1" fill="black"/>
      <text x="335" y="4" text-anchor="middle" font-size="4">66</text>
      <line x1="340"
            y1="0"
            x2="340"
            y2="-100"
            stroke="lightgray"
            stroke-width="0.25"
            stroke-linecap="square"/>
      <circle cx="340" cy="-1.4705882352941176" r="1" fill="black"/>
      <text x="340" y="4" text-anchor="middle" font-size="4">67</text>
      <line x1="345"
            y1="0"
            x2="345"
            y2="-100"
            stroke="lightgray"
            stroke-width="0.25"
            stroke-linecap="square"/>
      <circle cx="345" cy="-1.4492753623188406" r="1" fill="black"/>
      <text x="345" y="4" text-anchor="middle" font-size="4">68</text>
      <line x1="350"
            y1="0"
            x2="350"
            y2="-100"
            stroke="lightgray"
            stroke-width="0.25"
            stroke-linecap="square"/>
      <circle cx="350" cy="-1.4285714285714286" r="1" fill="black"/>
      <text x="350" y="4" text-anchor="middle" font-size="4">69</text>
      <line x1="355"
            y1="0"
            x2="355"
            y2="-100"
            stroke="lightgray"
            stroke-width="0.25"
            stroke-linecap="square"/>
      <circle cx="355" cy="-1.4084507042253521" r="1" fill="black"/>
      <text x="355" y="4" text-anchor="middle" font-size="4">70</text>
      <line x1="360"
            y1="0"
            x2="360"
            y2="-100"
            stroke="lightgray"
            stroke-width="0.25"
            stroke-linecap="square"/>
      <circle cx="360" cy="-1.3888888888888889" r="1" fill="black"/>
      <text x="360" y="4" text-anchor="middle" font-size="4">71</text>
      <line x1="365"
            y1="0"
            x2="365"
            y2="-100"
            stroke="lightgray"
            stroke-width="0.25"
            stroke-linecap="square"/>
      <circle cx="365" cy="-1.3698630136986301" r="1" fill="black"/>
      <text x="365" y="4" text-anchor="middle" font-size="4">72</text>
      <line x1="370"
            y1="0"
            x2="370"
            y2="-100"
            stroke="lightgray"
            stroke-width="0.25"
            stroke-linecap="square"/>
      <circle cx="370" cy="-1.3513513513513514" r="1" fill="black"/>
      <text x="370" y="4" text-anchor="middle" font-size="4">73</text>
      <line x1="375"
            y1="0"
            x2="375"
            y2="-100"
            stroke="lightgray"
            stroke-width="0.25"
            stroke-linecap="square"/>
      <circle cx="375" cy="-1.3333333333333333" r="1" fill="black"/>
      <text x="375" y="4" text-anchor="middle" font-size="4">74</text>
      <line x1="380"
            y1="0"
            x2="380"
            y2="-100"
            stroke="lightgray"
            stroke-width="0.25"
            stroke-linecap="square"/>
      <circle cx="380" cy="-1.3157894736842105" r="1" fill="black"/>
      <text x="380" y="4" text-anchor="middle" font-size="4">75</text>
      <line x1="385"
            y1="0"
            x2="385"
            y2="-100"
            stroke="lightgray"
            stroke-width="0.25"
            stroke-linecap="square"/>
      <circle cx="385" cy="-1.2987012987012987" r="1" fill="black"/>
      <text x="385" y="4" text-anchor="middle" font-size="4">76</text>
      <line x1="390"
            y1="0"
            x2="390"
            y2="-100"
            stroke="lightgray"
            stroke-width="0.25"
            stroke-linecap="square"/>
      <circle cx="390" cy="-1.2820512820512821" r="1" fill="black"/>
      <text x="390" y="4" text-anchor="middle" font-size="4">77</text>
      <line x1="395"
            y1="0"
            x2="395"
            y2="-100"
            stroke="lightgray"
            stroke-width="0.25"
            stroke-linecap="square"/>
      <circle cx="395" cy="-1.2658227848101266" r="1" fill="black"/>
      <text x="395" y="4" text-anchor="middle" font-size="4">78</text>
      <line x1="400"
            y1="0"
            x2="400"
            y2="-100"
            stroke="lightgray"
            stroke-width="0.25"
            stroke-linecap="square"/>
      <circle cx="400" cy="-1.25" r="1" fill="black"/>
      <text x="400" y="4" text-anchor="middle" font-size="4">79</text>
      <line x1="405"
            y1="0"
            x2="405"
            y2="-100"
            stroke="lightgray"
            stroke-width="0.25"
            stroke-linecap="square"/>
      <circle cx="405" cy="-1.2345679012345679" r="1" fill="black"/>
      <text x="405" y="4" text-anchor="middle" font-size="4">80</text>
      <line x1="410"
            y1="0"
            x2="410"
            y2="-100"
            stroke="lightgray"
            stroke-width="0.25"
            stroke-linecap="square"/>
      <circle cx="410" cy="-1.2195121951219512" r="1" fill="black"/>
      <text x="410" y="4" text-anchor="middle" font-size="4">81</text>
      <line x1="415"
            y1="0"
            x2="415"
            y2="-100"
            stroke="lightgray"
            stroke-width="0.25"
            stroke-linecap="square"/>
      <circle cx="415" cy="-1.2048192771084337" r="1" fill="black"/>
      <text x="415" y="4" text-anchor="middle" font-size="4">82</text>
      <line x1="420"
            y1="0"
            x2="420"
            y2="-100"
            stroke="lightgray"
            stroke-width="0.25"
            stroke-linecap="square"/>
      <circle cx="420" cy="-1.1904761904761905" r="1" fill="black"/>
      <text x="420" y="4" text-anchor="middle" font-size="4">83</text>
      <line x1="425"
            y1="0"
            x2="425"
            y2="-100"
            stroke="lightgray"
            stroke-width="0.25"
            stroke-linecap="square"/>
      <circle cx="425" cy="-1.1764705882352941" r="1" fill="black"/>
      <text x="425" y="4" text-anchor="middle" font-size="4">84</text>
      <line x1="430"
            y1="0"
            x2="430"
            y2="-100"
            stroke="lightgray"
            stroke-width="0.25"
            stroke-linecap="square"/>
      <circle cx="430" cy="-1.1627906976744186" r="1" fill="black"/>
      <text x="430" y="4" text-anchor="middle" font-size="4">85</text>
      <line x1="435"
            y1="0"
            x2="435"
            y2="-100"
            stroke="lightgray"
            stroke-width="0.25"
            stroke-linecap="square"/>
      <circle cx="435" cy="-1.1494252873563218" r="1" fill="black"/>
      <text x="435" y="4" text-anchor="middle" font-size="4">86</text>
      <line x1="440"
            y1="0"
            x2="440"
            y2="-100"
            stroke="lightgray"
            stroke-width="0.25"
            stroke-linecap="square"/>
      <circle cx="440" cy="-1.1363636363636364" r="1" fill="black"/>
      <text x="440" y="4" text-anchor="middle" font-size="4">87</text>
      <line x1="445"
            y1="0"
            x2="445"
            y2="-100"
            stroke="lightgray"
            stroke-width="0.25"
            stroke-linecap="square"/>
      <circle cx="445" cy="-1.1235955056179775" r="1" fill="black"/>
      <text x="445" y="4" text-anchor="middle" font-size="4">88</text>
      <line x1="450"
            y1="0"
            x2="450"
            y2="-100"
            stroke="lightgray"
            stroke-width="0.25"
            stroke-linecap="square"/>
      <circle cx="450" cy="-1.1111111111111111" r="1" fill="black"/>
      <text x="450" y="4" text-anchor="middle" font-size="4">89</text>
      <line x1="455"
            y1="0"
            x2="455"
            y2="-100"
            stroke="lightgray"
            stroke-width="0.25"
            stroke-linecap="square"/>
      <circle cx="455" cy="-1.0989010989010989" r="1" fill="black"/>
      <text x="455" y="4" text-anchor="middle" font-size="4">90</text>
      <line x1="460"
            y1="0"
            x2="460"
            y2="-100"
            stroke="lightgray"
            stroke-width="0.25"
            stroke-linecap="square"/>
      <circle cx="460" cy="-1.0869565217391304" r="1" fill="black"/>
      <text x="460" y="4" text-anchor="middle" font-size="4">91</text>
      <line x1="465"
            y1="0"
            x2="465"
            y2="-100"
            stroke="lightgray"
            stroke-width="0.25"
            stroke-linecap="square"/>
      <circle cx="465" cy="-1.0752688172043011" r="1" fill="black"/>
      <text x="465" y="4" text-anchor="middle" font-size="4">92</text>
      <line x1="470"
            y1="0"
            x2="470"
            y2="-100"
            stroke="lightgray"
            stroke-width="0.25"
            stroke-linecap="square"/>
      <circle cx="470" cy="-1.0638297872340426" r="1" fill="black"/>
      <text x="470" y="4" text-anchor="middle" font-size="4">93</text>
      <line x1="475"
            y1="0"
            x2="475"
            y2="-100"
            stroke="lightgray"
            stroke-width="0.25"
            stroke-linecap="square"/>
      <circle cx="475" cy="-1.0526315789473684" r="1" fill="black"/>
      <text x="475" y="4" text-anchor="middle" font-size="4">94</text>
      <line x1="480"
            y1="0"
            x2="480"
            y2="-100"
            stroke="lightgray"
            stroke-width="0.25"
            stroke-linecap="square"/>
      <circle cx="480" cy="-1.0416666666666667" r="1" fill="black"/>
      <text x="480" y="4" text-anchor="middle" font-size="4">95</text>
      <line x1="485"
            y1="0"
            x2="485"
            y2="-100"
            stroke="lightgray"
            stroke-width="0.25"
            stroke-linecap="square"/>
      <circle cx="485" cy="-1.0309278350515464" r="1" fill="black"/>
      <text x="485" y="4" text-anchor="middle" font-size="4">96</text>
      <line x1="490"
            y1="0"
            x2="490"
            y2="-100"
            stroke="lightgray"
            stroke-width="0.25"
            stroke-linecap="square"/>
      <circle cx="490" cy="-1.0204081632653061" r="1" fill="black"/>
      <text x="490" y="4" text-anchor="middle" font-size="4">97</text>
      <line x1="495"
            y1="0"
            x2="495"
            y2="-100"
            stroke="lightgray"
            stroke-width="0.25"
            stroke-linecap="square"/>
      <circle cx="495" cy="-1.0101010101010101" r="1" fill="black"/>
      <text x="495" y="4" text-anchor="middle" font-size="4">98</text>
      <line x1="500"
            y1="0"
            x2="500"
            y2="-100"
            stroke="lightgray"
            stroke-width="0.25"
            stroke-linecap="square"/>
      <circle cx="500" cy="-1" r="1" fill="black"/>
      <text x="500" y="4" text-anchor="middle" font-size="4">99</text>
      <line x1="505"
            y1="0"
            x2="505"
            y2="-100"
            stroke="lightgray"
            stroke-width="0.25"
            stroke-linecap="square"/>
      <circle cx="505" cy="-0.9900990099009901" r="1" fill="black"/>
      <text x="505" y="4" text-anchor="middle" font-size="4">100</text>
      <text x="262.5" y="12" font-size="6" text-anchor="middle">Distance
                    from central point</text>
      <text x="-8"
            y="-50"
            font-size="6"
            text-anchor="middle"
            writing-mode="tb">Weight</text>
   </g>
</svg>
