<?xml version="1.0" encoding="UTF-8"?>
<svg xmlns="http://www.w3.org/2000/svg" viewBox="-12 -115 210 195">
   <style type="text/css">
                .regression {
                    stroke: red;
                    stroke-width: 0.5;
                    stroke-opacity: 0.5;
                }
                .spline {
                    stroke: blue;
                    stroke-width: 0.5;
                    stroke-opacity: 0.5;
                    fill: none;
                }</style>
   <g>
      <line x1="2"
            y1="0"
            x2="200"
            y2="0"
            stroke="lightgray"
            stroke-width="0.5"
            stroke-linecap="square"/>
      <text x="0"
            y="0"
            fill="lightgray"
            font-size="3"
            text-anchor="end"
            alignment-baseline="central">0.0</text>
      <line x1="2"
            y1="-100"
            x2="200"
            y2="-100"
            stroke="lightgray"
            stroke-width="0.5"
            stroke-linecap="square"/>
      <text x="0"
            y="-100"
            fill="lightgray"
            font-size="3"
            text-anchor="end"
            alignment-baseline="central">100.0</text>
      <text x="0"
            y="-51.51625248313195"
            fill="lightgray"
            font-size="3"
            text-anchor="end"
            alignment-baseline="central">51.5</text>
      <text x="208"
            y="-100"
            font-size="3"
            fill="lightgray"
            text-anchor="end"
            alignment-baseline="central">100.0</text>
      <text x="208"
            y="0"
            font-size="3"
            fill="lightgray"
            text-anchor="end"
            alignment-baseline="central">0.0</text>
      <text x="208"
            y="-49.3086649151001"
            fill="red"
            fill-opacity="0.5"
            font-size="3"
            text-anchor="end"
            alignment-baseline="central">49.3</text>
      <line x1="2"
            y1="-100"
            x2="2"
            y2="0"
            stroke="lightgray"
            stroke-width="0.5"
            stroke-linecap="square"/>
      <line x1="200"
            y1="-100"
            x2="200"
            y2="0"
            stroke="lightgray"
            stroke-width="0.5"
            stroke-linecap="square"/>
      <line x1="2"
            y1="-51.51625248313195"
            x2="200"
            y2="-51.51625248313195"
            stroke="lightgray"
            stroke-width="0.5"/>
      <circle cx="2" cy="-89.03321889237023" r="0.65" fill="black"/>
      <circle cx="4" cy="-47.06998390846571" r="0.65" fill="black"/>
      <circle cx="6" cy="-62.30278878207521" r="0.65" fill="black"/>
      <circle cx="8" cy="-84.36379872453784" r="0.65" fill="black"/>
      <circle cx="10" cy="-78.44715009995623" r="0.65" fill="black"/>
      <circle cx="12" cy="-49.589025601587515" r="0.65" fill="black"/>
      <circle cx="14" cy="-0.4252237147784017" r="0.65" fill="black"/>
      <circle cx="16" cy="-36.31713046762894" r="0.65" fill="black"/>
      <circle cx="18" cy="-76.79662208027396" r="0.65" fill="black"/>
      <circle cx="20" cy="-72.28007774140912" r="0.65" fill="black"/>
      <circle cx="22" cy="-65.67847086007437" r="0.65" fill="black"/>
      <circle cx="24" cy="-28.641599225353524" r="0.65" fill="black"/>
      <circle cx="26" cy="-42.74398665331797" r="0.65" fill="black"/>
      <circle cx="28" cy="-90.14250248531167" r="0.65" fill="black"/>
      <circle cx="30" cy="-17.54977149969187" r="0.65" fill="black"/>
      <circle cx="32" cy="-87.41981392183406" r="0.65" fill="black"/>
      <circle cx="34" cy="-16.955091037980797" r="0.65" fill="black"/>
      <circle cx="36" cy="-26.100281253441693" r="0.65" fill="black"/>
      <circle cx="38" cy="-32.647183552740856" r="0.65" fill="black"/>
      <circle cx="40" cy="-33.68460554562461" r="0.65" fill="black"/>
      <circle cx="42" cy="-1.0045950045462955" r="0.65" fill="black"/>
      <circle cx="44" cy="-12.011782913145288" r="0.65" fill="black"/>
      <circle cx="46" cy="-6.619112195479218" r="0.65" fill="black"/>
      <circle cx="48" cy="-43.577698818517206" r="0.65" fill="black"/>
      <circle cx="50" cy="-23.559875907134966" r="0.65" fill="black"/>
      <circle cx="52" cy="-14.999753302003974" r="0.65" fill="black"/>
      <circle cx="54" cy="-35.42779224624242" r="0.65" fill="black"/>
      <circle cx="56" cy="-11.292309817310766" r="0.65" fill="black"/>
      <circle cx="58" cy="-52.92341422090604" r="0.65" fill="black"/>
      <circle cx="60" cy="-22.48042947310628" r="0.65" fill="black"/>
      <circle cx="62" cy="-72.70392895873928" r="0.65" fill="black"/>
      <circle cx="64" cy="-96.36302346647177" r="0.65" fill="black"/>
      <circle cx="66" cy="-54.07951622106293" r="0.65" fill="black"/>
      <circle cx="68" cy="-77.7060154830333" r="0.65" fill="black"/>
      <circle cx="70" cy="-66.97366506744659" r="0.65" fill="black"/>
      <circle cx="72" cy="-95.09936084776828" r="0.65" fill="black"/>
      <circle cx="74" cy="-40.66624220192992" r="0.65" fill="black"/>
      <circle cx="76" cy="-23.88700453437959" r="0.65" fill="black"/>
      <circle cx="78" cy="-52.931956154401426" r="0.65" fill="black"/>
      <circle cx="80" cy="-72.36409068391883" r="0.65" fill="black"/>
      <circle cx="82" cy="-68.3629001078216" r="0.65" fill="black"/>
      <circle cx="84" cy="-36.54475683704144" r="0.65" fill="black"/>
      <circle cx="86" cy="-2.1922010970114716" r="0.65" fill="black"/>
      <circle cx="88" cy="-89.56757867428657" r="0.65" fill="black"/>
      <circle cx="90" cy="-49.54526173616406" r="0.65" fill="black"/>
      <circle cx="92" cy="-72.97928091271592" r="0.65" fill="black"/>
      <circle cx="94" cy="-97.61254226831407" r="0.65" fill="black"/>
      <circle cx="96" cy="-47.903066329264064" r="0.65" fill="black"/>
      <circle cx="98" cy="-88.77730235484903" r="0.65" fill="black"/>
      <circle cx="100" cy="-55.71759168529583" r="0.65" fill="black"/>
      <circle cx="102" cy="-78.56860316957388" r="0.65" fill="black"/>
      <circle cx="104" cy="-56.45056072362207" r="0.65" fill="black"/>
      <circle cx="106" cy="-38.0836735328008" r="0.65" fill="black"/>
      <circle cx="108" cy="-26.939462335338916" r="0.65" fill="black"/>
      <circle cx="110" cy="-71.8360553895224" r="0.65" fill="black"/>
      <circle cx="112" cy="-88.20435156840489" r="0.65" fill="black"/>
      <circle cx="114" cy="-61.86978213179132" r="0.65" fill="black"/>
      <circle cx="116" cy="-40.86860680761535" r="0.65" fill="black"/>
      <circle cx="118" cy="-45.36818480003075" r="0.65" fill="black"/>
      <circle cx="120" cy="-32.113654926431906" r="0.65" fill="black"/>
      <circle cx="122" cy="-74.51467178935044" r="0.65" fill="black"/>
      <circle cx="124" cy="-61.85398337591768" r="0.65" fill="black"/>
      <circle cx="126" cy="-44.278031072617765" r="0.65" fill="black"/>
      <circle cx="128" cy="-76.85952396756704" r="0.65" fill="black"/>
      <circle cx="130" cy="-59.45371636815131" r="0.65" fill="black"/>
      <circle cx="132" cy="-10.681047011688673" r="0.65" fill="black"/>
      <circle cx="134" cy="-38.87567561656379" r="0.65" fill="black"/>
      <circle cx="136" cy="-10.892619241336378" r="0.65" fill="black"/>
      <circle cx="138" cy="-43.58686683537284" r="0.65" fill="black"/>
      <circle cx="140" cy="-79.71184755969608" r="0.65" fill="black"/>
      <circle cx="142" cy="-55.12462565633677" r="0.65" fill="black"/>
      <circle cx="144" cy="-69.13923005564988" r="0.65" fill="black"/>
      <circle cx="146" cy="-92.07823382189324" r="0.65" fill="black"/>
      <circle cx="148" cy="-91.34951844262208" r="0.65" fill="black"/>
      <circle cx="150" cy="-82.35267601783833" r="0.65" fill="black"/>
      <circle cx="152" cy="-29.07579926661852" r="0.65" fill="black"/>
      <circle cx="154" cy="-89.17281781932965" r="0.65" fill="black"/>
      <circle cx="156" cy="-17.912061760997346" r="0.65" fill="black"/>
      <circle cx="158" cy="-4.943891327101581" r="0.65" fill="black"/>
      <circle cx="160" cy="-63.07774774545484" r="0.65" fill="black"/>
      <circle cx="162" cy="-52.04815055371318" r="0.65" fill="black"/>
      <circle cx="164" cy="-74.1456535700327" r="0.65" fill="black"/>
      <circle cx="166" cy="-58.88867362930236" r="0.65" fill="black"/>
      <circle cx="168" cy="-16.16494909546047" r="0.65" fill="black"/>
      <circle cx="170" cy="-78.18796169136523" r="0.65" fill="black"/>
      <circle cx="172" cy="-27.16353518208735" r="0.65" fill="black"/>
      <circle cx="174" cy="-32.681826606464675" r="0.65" fill="black"/>
      <circle cx="176" cy="-40.0042460077227" r="0.65" fill="black"/>
      <circle cx="178" cy="-52.50657793222622" r="0.65" fill="black"/>
      <circle cx="180" cy="-40.42028443768964" r="0.65" fill="black"/>
      <circle cx="182" cy="-35.995133843233674" r="0.65" fill="black"/>
      <circle cx="184" cy="-11.848129164005197" r="0.65" fill="black"/>
      <circle cx="186" cy="-46.9261256853328" r="0.65" fill="black"/>
      <circle cx="188" cy="-23.380296167175654" r="0.65" fill="black"/>
      <circle cx="190" cy="-59.884958359146104" r="0.65" fill="black"/>
      <circle cx="192" cy="-69.35027220516477" r="0.65" fill="black"/>
      <circle cx="194" cy="-71.3198641895779" r="0.65" fill="black"/>
      <circle cx="196" cy="-36.30255004250983" r="0.65" fill="black"/>
      <circle cx="198" cy="-12.615984623825472" r="0.65" fill="black"/>
      <circle cx="200" cy="-41.00700743555108" r="0.65" fill="black"/>
      <polyline points="2,-89.03321889237023 4,-47.06998390846571 6,-62.30278878207521 8,-84.36379872453784 10,-78.44715009995623 12,-49.589025601587515 14,-0.4252237147784017 16,-36.31713046762894 18,-76.79662208027396 20,-72.28007774140912 22,-65.67847086007437 24,-28.641599225353524 26,-42.74398665331797 28,-90.14250248531167 30,-17.54977149969187 32,-87.41981392183406 34,-16.955091037980797 36,-26.100281253441693 38,-32.647183552740856 40,-33.68460554562461 42,-1.0045950045462955 44,-12.011782913145288 46,-6.619112195479218 48,-43.577698818517206 50,-23.559875907134966 52,-14.999753302003974 54,-35.42779224624242 56,-11.292309817310766 58,-52.92341422090604 60,-22.48042947310628 62,-72.70392895873928 64,-96.36302346647177 66,-54.07951622106293 68,-77.7060154830333 70,-66.97366506744659 72,-95.09936084776828 74,-40.66624220192992 76,-23.88700453437959 78,-52.931956154401426 80,-72.36409068391883 82,-68.3629001078216 84,-36.54475683704144 86,-2.1922010970114716 88,-89.56757867428657 90,-49.54526173616406 92,-72.97928091271592 94,-97.61254226831407 96,-47.903066329264064 98,-88.77730235484903 100,-55.71759168529583 102,-78.56860316957388 104,-56.45056072362207 106,-38.0836735328008 108,-26.939462335338916 110,-71.8360553895224 112,-88.20435156840489 114,-61.86978213179132 116,-40.86860680761535 118,-45.36818480003075 120,-32.113654926431906 122,-74.51467178935044 124,-61.85398337591768 126,-44.278031072617765 128,-76.85952396756704 130,-59.45371636815131 132,-10.681047011688673 134,-38.87567561656379 136,-10.892619241336378 138,-43.58686683537284 140,-79.71184755969608 142,-55.12462565633677 144,-69.13923005564988 146,-92.07823382189324 148,-91.34951844262208 150,-82.35267601783833 152,-29.07579926661852 154,-89.17281781932965 156,-17.912061760997346 158,-4.943891327101581 160,-63.07774774545484 162,-52.04815055371318 164,-74.1456535700327 166,-58.88867362930236 168,-16.16494909546047 170,-78.18796169136523 172,-27.16353518208735 174,-32.681826606464675 176,-40.0042460077227 178,-52.50657793222622 180,-40.42028443768964 182,-35.995133843233674 184,-11.848129164005197 186,-46.9261256853328 188,-23.380296167175654 190,-59.884958359146104 192,-69.35027220516477 194,-71.3198641895779 196,-36.30255004250983 198,-12.615984623825472 200,-41.00700743555108"
                stroke="black"
                stroke-width="0.5"
                fill="none"/>
      <g>
         <line x1="2"
               y1="-51.51625248313195"
               x2="200"
               y2="-49.3086649151001"
               class="regression"/>
      </g>
      <g>
         <path d="M2,-55.94354002392501 Q3.2,-55.94354002392501 4,-55.94354002392501 C4.8,-55.94354002392501 5.2,-55.94354002392501 6,-55.94354002392501 C6.8,-55.94354002392501 7.3676896093345885,-55.57727278887979 8,-55.94354002392501 C8.967689609334588,-56.50407643582864 9.15462348163473,-58.16427153662767 10,-58.26054914129712 C10.754623481634729,-58.346491132422685 11.220597473843187,-56.35892064663702 12,-56.39908901341255 C12.820597473843186,-56.44138045999913 13.353377680701415,-58.737071271097676 14,-58.46669867470239 C14.953377680701415,-58.06806226642598 15.268716729689574,-56.255781420142355 16,-54.726566501733316 C16.868716729689574,-52.909959125567184 16.914064678707184,-51.004810375583425 18,-50.10214293826445 C18.514064678707186,-49.674834389545005 19.4100280800234,-51.73502461317956 20,-51.40162653663727 C21.010028080023403,-50.830851203555554 21.531805612838177,-47.126993305620324 22,-47.841709414204416 C23.13180561283818,-49.56945268807188 22.766938676949202,-55.19124492213031 24,-57.50777499276616 C24.3669386769492,-58.19713606779287 25.47280883746429,-56.38238613760478 26,-55.356437278360815 C27.072808837464287,-53.26868034842788 27.11559821298439,-51.94260321058672 28,-49.723510519823904 C28.715598212984393,-47.92797054323114 29.132011442943163,-47.0468335996321 30,-45.31985560997187 C30.732011442943165,-43.86342206616019 31.15720693519485,-43.160995110939 32,-41.764981686144125 C32.75720693519485,-40.510734242705354 33.230714726753334,-39.94149710870592 34,-38.69420343938775 C34.830714726753335,-37.34731008821792 35.52927027620908,-36.77350036323833 36,-35.27951413492412 C37.129270276209084,-31.69547396190477 36.832441847947905,-27.86384011654855 38,-25.999137436053857 C38.4324418479479,-25.308486206726013 39.48330320123706,-29.434120438626767 40,-28.89112936036778 C41.08330320123706,-27.752697741032375 40.74301957955853,-24.093594941638884 42,-21.79558069206788 C42.34301957955853,-21.168471574942178 43.24517674954062,-21.42374628305197 44,-21.57832094362601 C44.84517674954062,-21.751398427799696 45.32706190205947,-22.839535237472365 46,-22.614711053937203 C46.92706190205947,-22.304985782244394 47.17667233631939,-20.290342163949646 48,-20.24194730555608 C48.776672336319386,-20.196294827943042 49.224650447699645,-21.50270159354163 50,-22.379592713920687 C50.824650447699646,-23.31224128882347 51.50907473734039,-23.645287171090665 52,-24.765796543760683 C53.10907473734039,-27.297197416164174 53.345837284454944,-28.77576666632363 54,-31.509368326604463 C54.945837284454946,-35.46181365817193 54.696725854104095,-37.85181217847258 56,-41.480914023381416 C56.296725854104096,-42.3071778972965 57.57196846249833,-41.87913361194691 58,-42.64778262366427 C59.171968462498334,-44.7523761443222 59.18531499922125,-46.262508851273495 60,-48.66402035431964 C60.78531499922125,-50.97895557755531 61.2499426926906,-52.1127742066657 62,-54.43889943936882 C62.849942692690604,-57.07479555630874 62.96955879821099,-58.520291699258685 64,-61.06907372842724 C64.56955879821099,-62.47786952086513 65.19664984601397,-64.32531207917697 66,-64.33284399338493 C66.79664984601398,-64.34031308798109 67.21392782124178,-61.075676692124325 68,-61.10657625043754 C68.81392782124179,-61.13857078078072 68.93965577721386,-63.603169358355295 70,-64.4900792150259 C70.53965577721385,-64.94146662086528 71.43838637070962,-64.89443353746039 72,-64.4523194067125 C73.03838637070962,-63.63487968708391 73.0882806303873,-62.494389994349625 74,-61.34119458908472 C74.6882806303873,-60.470617428008666 75.60872886054321,-60.404199698744385 76,-59.3928879908601 C77.2087288605432,-56.268707531186905 76.8339209112297,-52.716597216813334 78,-51.00246417019102 C78.43392091122969,-50.364601626627476 79.40643874204065,-53.89146225403957 80,-53.51289901539546 C81.00643874204066,-52.87100956493894 81.08839682175856,-48.78662669034701 82,-48.451332447439434 C82.68839682175856,-48.19813511697731 83.47571242244827,-50.49737262721462 84,-52.041670081971205 C85.07571242244826,-55.21019824697997 84.71616362067921,-57.783528282333215 86,-60.233396496852805 C86.3161636206792,-60.836712633835305 87.30537536229144,-59.454969004123896 88,-59.67463096072644 C88.90537536229145,-59.960938863936924 89.15924100114923,-61.41032396408272 90,-61.498321146385365 C90.75924100114923,-61.57778633067848 91.48022108821766,-59.66911064208752 92,-60.09328687721583 C93.08022108821767,-60.97482343808781 93.28903030855368,-62.86111062909323 94,-64.76260313638609 C94.88903030855369,-67.14031978283293 95.18119110275697,-70.72820564997016 96,-70.79130976156506 C96.78119110275696,-70.85151473819793 96.95413108965965,-67.22332359465287 98,-65.07087585695552 C98.55413108965966,-63.93044783721683 99.01487690328926,-63.20900128400301 100,-62.559120367974955 C100.61487690328926,-62.153489065157736 101.24744446483852,-62.652665495467026 102,-62.43209530984234 C102.84744446483852,-62.18371366332912 103.24590289293103,-61.2912527156195 104,-61.38674078763021 C104.84590289293104,-61.49385383129142 105.50713711552154,-63.40328537796339 106,-62.93859809902213 C107.10713711552154,-61.89475294486533 106.86177799455798,-59.45737232110631 108,-57.61540970488506 C108.46177799455799,-56.86812332410637 109.52933598472515,-57.208135769573225 110,-56.465475606522276 C111.12933598472516,-54.68349776386624 110.94170375305299,-52.13842348041039 112,-51.3038146906176 C112.54170375305299,-50.876608494747565 113.26240811917371,-52.453806775658705 114,-53.3109381423652 C114.86240811917371,-54.313114371607384 115.12958761184123,-54.958148203275655 116,-55.952083680489295 C116.72958761184123,-56.785209473515465 117.08453057885691,-57.30993128028029 118,-57.87859131796472 C118.68453057885691,-58.30379960540578 119.43163857019131,-58.811354669600455 120,-58.43675449330302 C121.03163857019132,-57.75681393083561 121.38453521067314,-56.60890246308429 122,-55.24223947105261 C122.98453521067313,-53.05604155995734 122.8003796654278,-51.326763578077156 124,-49.55460223548566 C124.4003796654278,-48.96313396424808 125.4916644891269,-49.84811632331481 126,-49.33316543647993 C127.09166448912691,-48.22729424554833 126.96697356481495,-46.16260369083807 128,-45.50254704106945 C128.56697356481496,-45.140276861960146 129.14789892346107,-46.38276905073396 130,-46.77734836428511 C130.74789892346107,-47.12367516981336 131.21014948783173,-47.38842885813846 132,-47.35481233876795 C132.81014948783172,-47.32033188261689 133.3839554495429,-46.29682753658945 134,-46.607105925481186 C134.9839554495429,-47.10268714829839 135.0950042997885,-48.36190178018816 136,-49.369461368040305 C136.69500429978854,-50.143231061848525 137.37347386611324,-50.240471546056796 138,-51.0604291296321 C138.97347386611324,-52.334449854003324 139.46979703180978,-53.07908048882941 140,-54.604407137906634 C141.0697970318098,-57.682077425745874 140.74739852139615,-60.41512567022954 142,-62.56792147192326 C142.34739852139614,-63.16498134383863 143.67474302297217,-60.860332360990846 144,-61.47904632192936 C145.27474302297216,-63.903902237792984 144.84922974158033,-68.49527054513898 146,-70.1768461639286 C146.44922974158033,-70.83328803418866 147.53658343828712,-68.61705779715972 148,-67.32409004455354 C149.13658343828715,-64.15293507240548 148.7259994070243,-61.38104319421981 150,-59.01653935204305 C150.32599940702428,-58.4114950100653 151.2924533516109,-60.07981767140511 152,-59.900219584167274 C152.8924533516109,-59.67368623083539 153.20934512737816,-58.77042261843513 154,-58.00121075061875 C154.80934512737815,-57.213815518266365 155.34981686313643,-56.91883947780587 156,-56.00870183374537 C156.94981686313645,-54.67913169713119 157.43819466963373,-53.94142167210243 158,-52.40194129893205 C159.03819466963373,-49.557040706071426 159.09224132948722,-45.47831863329632 160,-45.047749418667856 C160.69224132948722,-44.719404655623826 161.28393275202217,-50.761189837456406 162,-50.50465635475082 C162.88393275202216,-50.18798449467882 162.8240543631239,-45.157822307150795 164,-43.614736061723896 C164.4240543631239,-43.0582881830719 165.40578329459143,-44.43332411525062 166,-45.25582104455359 C167.00578329459145,-46.64799609418788 166.9540189829699,-48.43988205090501 168,-49.15141600906705 C168.5540189829699,-49.528290267233565 169.21048616730218,-48.463687305894446 170,-47.976841585374984 C170.81048616730217,-47.477063486816576 171.4610110130267,-47.430134287999834 172,-46.68485646137237 C173.0610110130267,-45.21776158387439 173.27073427185246,-44.17165769894228 174,-42.44590982506137 C174.87073427185246,-40.385388179293564 175.06302364663765,-37.64288773855501 176,-37.219182662250574 C176.66302364663764,-36.91936027742502 177.38898622616395,-41.04522272643817 178,-40.63709117223639 C178.98898622616395,-39.97648988491296 179.02875727170874,-35.14321451051891 180,-34.54735055843754 C180.62875727170876,-34.16160373953531 181.23583533135997,-36.710139631443994 182,-38.1830642447774 C182.83583533136,-39.794133799255505 183.15085768081525,-40.65377637834895 184,-42.257335977966314 C184.75085768081524,-43.67529032415141 185.04221296997244,-45.33480229859187 186,-45.736849109283554 C186.64221296997246,-46.00642853379804 187.32420995510623,-44.7625235036068 188,-43.93640156598173 C188.92420995510622,-42.80659782789211 188.9770573556602,-41.49468338527429 190,-40.84703491999682 C190.5770573556602,-40.481686664316655 191.1991834598179,-41.40070704767688 192,-41.40390976358764 C192.79918345981793,-41.407105948299055 193.18588421167686,-40.973116418358806 194,-40.86303217155225 C194.78588421167686,-40.756765381544646 195.2,-40.86303217155225 196,-40.86303217155225 C196.8,-40.86303217155225 197.2,-40.86303217155225 198,-40.86303217155225 Q198.8,-40.86303217155225 200,-40.86303217155225"
               class="spline"/>
      </g>
      <text x="100" y="8" text-anchor="middle" font-size="5">Fake independent
                    variable</text>
      <text x="-10"
            y="-50"
            text-anchor="middle"
            font-size="5"
            writing-mode="tb">Fake
                    dependent variable</text>
      <text x="100" y="-106" text-anchor="middle" font-size="8">Smoothing examples</text>
   </g>
   <g transform="translate(50, 15)">
      <rect x="0"
            y="0"
            width="100"
            height="50"
            fill="ghostwhite"
            stroke="black"
            stroke-width="0.5"/>
      <rect x="2" y="2" width="5" height="5" fill="black"/>
      <rect x="2" y="9" width="5" height="5" fill="red"/>
      <rect x="2" y="16" width="5" height="5" fill="gray"/>
      <rect x="2" y="23" width="5" height="5" fill="blue"/>
      <text x="10" y="6" fill="black" font-size="5">
         <tspan>Actual data</tspan>
         <tspan x="10" dy="7" fill="red">Regression line (51.5–49.3)</tspan>
         <tspan x="10" dy="7" fill="gray">Y intercept of regression line (51.5)</tspan>
         <tspan x="10" dy="7" fill="blue">Rectangular kernal, window 9</tspan>
      </text>
   </g>
</svg>
