<?xml version="1.0" encoding="UTF-8"?>
<svg xmlns="http://www.w3.org/2000/svg" viewBox="-20 -115 234 195">
   <script type="text/javascript">
            window.addEventListener('DOMContentLoaded', init, false);
            function init() {
                var rects = document.getElementsByClassName('toggle');
                for (var i = 0; i &lt; rects.length; i++) {
                    rects[i].addEventListener('mouseover', emphasize, false);
                    rects[i].addEventListener('mouseout', deemphasize, false);
                }
            }
            function emphasize() {
                var target = this.id.substring(0, this.id.indexOf('-'));
                document.getElementById(target).classList.add('highlight');
            }
            function deemphasize() {
                var target = this.id.substring(0, this.id.indexOf('-'));
                document.getElementById(target).classList.remove('highlight');
            }//</script>
   <style type="text/css">
                .spline {
                    stroke-width: 0.5;
                    stroke-opacity: 0.5;
                    fill: none;
                }
                .highlight .spline {
                    stroke-width: 1.5;
                    stroke-opacity: 0.75;
                }
                #rectangular {
                    stroke: blue;
                }
                #gaussian {
                    stroke: green;
                }
                #exponential {
                    stroke: indigo;
                }
                #parabolic {
                    stroke: darkgoldenrod;
                }
                #regression {
                    stroke: red;
                    stroke-width: 0.5;
                    stroke-opacity: 0.5;
                }
                #regression.highlight {
                    stroke-width: 1.5;
                    stroke-opacity: 0.75;
                }
                #data.highlight &gt; polyline {
                    stroke-width: 1.5;
                }</style>
   <g>
      <rect x="0"
            y="-100"
            width="200"
            height="100"
            stroke="lightgray"
            stroke-width="0.5"
            fill="none"/>
      <text x="-1"
            y="0"
            fill="lightgray"
            font-size="3"
            text-anchor="end"
            alignment-baseline="central">0.0</text>
      <text x="-1"
            y="-100"
            fill="lightgray"
            font-size="3"
            text-anchor="end"
            alignment-baseline="central">100.0</text>
      <text x="-1"
            y="-43.42517813749293"
            fill="lightgray"
            font-size="3"
            text-anchor="end"
            alignment-baseline="central">43.4</text>
      <text x="208"
            y="-100"
            font-size="3"
            fill="lightgray"
            text-anchor="end"
            alignment-baseline="central">100.0</text>
      <text x="208"
            y="0"
            font-size="3"
            fill="lightgray"
            text-anchor="end"
            alignment-baseline="central">0.0</text>
      <text x="208"
            y="-52.71469282893393"
            fill="red"
            fill-opacity="0.5"
            font-size="3"
            text-anchor="end"
            alignment-baseline="central">52.7</text>
      <line x1="0"
            y1="-43.42517813749293"
            x2="200"
            y2="-43.42517813749293"
            stroke="lightgray"
            stroke-width="0.5"/>
      <polyline points="0,-49.99991159163257 0.4000000000000057,-54.99162248393219 0.7999999999999972,-59.933457851036025 1.2000000000000028,-64.7760405075099 1.5999999999999943,-69.470984968195 2,-73.97138089998278 2.4000000000000057,-78.23226183435574 2.799999999999997,-82.21105445747753 3.200000000000003,-85.8680039886721 3.5999999999999943,-89.16657139705036 4,-92.07379848742939 4.400000000000006,-94.56063720772356 4.799999999999997,-96.60223988747914 5.200000000000003,-98.17820750758436 5.599999999999994,-99.2727935205246 6,-99.87506118468069 6.400000000000006,-99.97899284063554 6.799999999999997,-99.58355003763812 7.200000000000003,-98.69268390945993 7.599999999999994,-97.31529569597262 8,-95.46514780490124 8.400000000000006,-93.16072630239583 8.799999999999997,-90.42505620636905 9.200000000000003,-87.2854714281279 9.599999999999994,-83.77334166096806 10,-79.92375894456698 10.400000000000006,-75.7751870369242 10.799999999999997,-71.36907709720549 11.200000000000003,-66.74945351946192 11.599999999999994,-61.96247405543809 12,-57.05596862157316 12.400000000000006,-52.07896139828741 12.799999999999997,-47.08118099657623 13.200000000000003,-42.11256358616663 13.599999999999994,-37.22275394981719 14,-32.46060944905783 14.400000000000006,-27.87371185758461 14.799999999999997,-23.507891939904937 15.200000000000003,-19.406771525487766 15.599999999999994,-15.611327653864063 16,-12.15948314559189 16.400000000000006,-9.085727689969945 16.799999999999997,-6.420773235462435 17.200000000000003,-4.191247126061786 17.599999999999994,-2.419426049669928 18,-1.123013456795881 18.400000000000006,-0.31496267353066965 18.799999999999997,-0.003347476194619978 19.200000000000003,-0.1912814208331931 19.599999999999994,-0.8768867335942497 20,-2.053313072823724 20.400000000000006,-3.708805975414855 20.799999999999997,-5.826824303518074 21.200000000000003,-8.386205518122889 21.599999999999994,-11.361377128151748 22,-14.722612202338423 22.400000000000006,-18.436326390898145 22.799999999999997,-22.465413489249364 23.200000000000003,-26.769616190944774 23.599999999999994,-31.30592832536897 24,-36.02902456118055 24.400000000000006,-40.89171328203914 24.799999999999997,-45.84540810963695 25.200000000000003,-50.840613362730764 25.599999999999994,-55.827418601626654 26,-60.75599731679657 26.400000000000006,-65.57710477888986 26.799999999999997,-70.24257007579139 27.200000000000003,-74.70577742045263 27.599999999999994,-78.9221319204256 28,-82.84950515528837 28.400000000000006,-86.44865610989503 28.799999999999997,-89.68362325762817 29.200000000000003,-92.52208387608582 29.599999999999994,-94.93567700503849 30,-96.9002868197697 30.400000000000006,-98.39628358842417 30.799999999999997,-99.40871980580032 31.200000000000003,-99.92747954388108 31.599999999999994,-99.94737952684268 32,-99.46822092063346 32.400000000000006,-98.49479131965784 32.8,-97.03681691071581 33.2,-95.10886529215915 33.599999999999994,-92.73019991926452 34,-89.9245876301555 34.400000000000006,-86.72006117541281 34.8,-83.14863912409677 35.2,-79.2460059447887 35.599999999999994,-75.05115545817752 36,-70.60600122369193 36.4,-65.9549577530705 36.8,-61.144496735241056 37.2,-56.222682706566644 37.6,-51.238692805886544 38,-46.242325412800255 38.4,-41.28350257871999 38.8,-36.41177122223502 39.2,-31.675808072678944 39.6,-27.12293330834103 40,-22.798637748886158 40.4,-18.746128326122324 40.8,-15.00589637462028 41.2,-11.615313055683057 41.6,-8.608255957055775 42,-6.0147705992669325 42.4,-3.8607702307192673 42.8,-2.167776911077452 43.2,-0.9527064699621499 43.6,-0.2276994895721372 44,-0 44.4,-0.27188309927810167 44.8,-1.0406322213510508 45.2,-2.2985662791058075 45.6,-4.033116411254947 46,-6.226951566244104 46.4,-8.858151668390104 46.8,-11.90042663603143 47.2,-15.32337906333387 47.6,-19.09280794112134 48,-23.171050382054567 48.4,-27.517357935751466 48.8,-32.08830373383376 49.2,-36.8382163968409 49.6,-41.71963636755632 50,-46.68379011121562 50.4,-51.68107744454323 50.8,-56.6615671243881 51.2,-61.57549574420031 51.6,-66.37376495353936 52,-71.00843203256257 52.4,-75.43318891983355 52.8,-79.60382490716492 53.2,-83.47866837840023 53.6,-87.01900317842772 54,-90.18945545220474 54.4,-92.95834708862382 54.8,-95.29801223772782 55.2,-97.18507373873733 55.6,-98.60067669691385 56,-99.53067687543542 56.4,-99.96578201993542 56.8,-99.90164470363668 57.2,-99.33890576540261 57.6,-98.28318790668736 58,-96.74503951136127 58.4,-94.73982924974618 58.8,-92.2875925199417 59.2,-89.41283126075038 59.6,-86.14426913640438 60,-82.51456453920714 60.4,-78.55998427767301 60.8,-74.32004121056485 61.2,-69.83709944747025 61.6,-65.15595106062268 62,-60.32336853732155 62.4,-55.38763744470025 62.8,-50.39807397630048 63.2,-45.404532200968006 63.6,-40.45690593747668 64,-35.6046302319834 64.4,-30.89618741938829 64.8,-26.378622703870775 65.2,-22.097074098759627 65.6,-18.094321422425633 66,-14.410358856476297 66.4,-11.08199533711463 66.8,-8.142486772415483 67.2,-5.621203760284772 67.6,-3.543338127154541 68,-1.9296512195798132 68.4,-0.7962664637271795 68.8,-0.15450826542995513 69.2,-0.010788860468418213 69.6,-0.3665442456296336 70,-1.2182198307021967 70.4,-2.5573059547665773 70.8,-4.370422911914063 71.2,-6.6394546368457625 71.6,-9.341729714608148 72,-12.450247905877799 72.4,-15.933949924426967 72.8,-19.75802777124493 73.2,-23.884272524558643 73.6,-28.27145611074787 74,-32.87574324162981 74.4,-37.651129402167506 74.8,-42.549900512377484 75.2,-47.523109670645304 75.6,-52.52106621498559 76,-57.493832215712416 76.4,-62.391721438724254 76.8,-67.16579579393152 77.2,-71.76835430847649 77.6,-76.15340973908505 78,-80.27714806140153 78.4,-84.09836624523578 78.8,-87.57888394162165 79.2,-90.68392496824326 79.6,-93.3824647815525 80,-95.64754046375364 80.4,-97.45652012736448 80.8,-98.79132904555539 81.2,-99.63863024884506 81.6,-99.98995778369067 82,-99.84180130149753 82.4,-99.19564113286167 82.8,-98.05793349659598 83.2,-96.44004599132582 83.6,-94.35814401420146 84,-91.83302924159287 84.4,-88.88993178561607 84.8,-85.55825810319261 85.2,-81.87129717645216 85.6,-77.86588790022769 86,-73.58205099999469 86.4,-69.06258915801222 86.8,-64.35265934307009 87.2,-59.49932161698304 87.6,-54.551068926010345 88,-49.55734257536495 88.4,-44.568038228036244 88.8,-39.63300736381816 89.2,-34.801559179801295 89.6,-30.121967909176252 90,-25.640990481051578 90.4,-21.403399340675048 90.8,-17.45153509796005 91.2,-13.824883474106876 91.6,-10.559680773329678 92,-7.688551821681882 92.4,-5.2401839905794265 92.8,-3.2390405620679426 93.2,-1.7051162997949072 93.6,-0.6537376679411158 94,-0.09540969425641115 94.4,-0.03571100729519992 94.8,-0.4752380966038116 95.2,-1.4095993527942499 95.6,-2.829458947053358 96,-4.720630111658588 96.4,-7.064216889471219 96.8,-9.83680293609405 97.2,-13.010685488244503 97.6,-16.554152160607362 98,-20.431797805506974 98.4,-24.60487826943862 98.8,-29.03169751184352 99.2,-33.668024218163794 99.6,-38.467533744515386 100,-43.38227097821826 100.4,-48.36312948942921 100.8,-53.36034218635699 101.2,-58.323978571593116 101.6,-63.20444363113601 102,-67.95297337137833 102.4,-72.52212205281067 102.8,-76.8662362521677 103.2,-80.94191101634301 103.6,-84.70842355033163 104,-88.12814010593775 104.4,-91.16689200574557 104.8,-93.79431704524997 105.2,-95.98416286196769 105.6,-97.71454924036465 106,-98.96818673173777 106.4,-99.73254940467064 106.8,-99.99999999999999 107.2,-99.76786623978475 107.6,-99.03846752782377 108,-97.81909177493976 108.4,-96.12192258058352 108.8,-93.96391749833559 109.2,-91.36663860163601 109.6,-88.35603704267452 110,-84.96219375705549 110.4,-81.21901890503348 110.8,-77.16391305240097 111.2,-72.83739347639737 111.6,-68.2826893304692 112,-63.54530971285724 112.4,-58.67258895473132 112.8,-53.71321367119946 113.2,-48.71673630074289 113.6,-43.73307999363169 114,-38.81203979630844 114.4,-34.002785115745326 114.8,-29.353368434982503 115.2,-24.91024518860097 115.6,-20.717809595377624 116,-16.817951085924694 116.4,-13.249635757346962 116.8,-10.048517036879456 117.2,-7.246579444627692 117.6,-4.871819014816227 118,-2.9479635686681345 118.4,-1.4942356338593685 118.8,-0.5251603793759801 119.2,-0.0504204848270241 119.6,-0.0747593943107212 120,-0.5979339214888733 120.4,-1.6147166794244434 120.8,-3.114948310903767 121.2,-5.08363899737585 121.6,-7.5011182322639485 122,-10.34323136216562 122.4,-13.581580932164503 122.8,-17.18381042381308 123.2,-21.113927550769812 123.6,-25.332663881825873 124,-29.79786719809046 124.4,-34.46492266402731 124.8,-39.28719860414402 125.2,-44.21651243127977 125.6,-49.20361207108801 126,-54.198668072484075 126.4,-59.15177148704784 126.8,-64.01343254273911 127.2,-68.73507512934124 127.6,-73.26952215489612 128,-77.5714669236136 128.4,-81.5979258253984 128.8,-85.30866781387422 129.2,-88.6666163817002 129.6,-91.63822001677734 130,-94.19378743786524 130.4,-96.30778426005068 130.8,-97.95908812588081 131.2,-99.13119975297667 131.6,-99.8124077894091 132,-99.9959058296554 132.4,-99.67986042195379 132.8,-98.86742938754733 133.2,-97.56673026877792 133.6,-95.79075922128615 134,-93.55726116072066 134.4,-90.8885524614063 134.8,-87.81129797850885 135.2,-84.35624462161657 135.6,-80.5579141417822 136,-76.45425820159944 136.4,-72.08627917473422 136.8,-67.49762046376111 137.2,-62.73413042971158 137.6,-57.84340429040473 138,-52.87430856476572 138.4,-47.87649281472048 138.8,-42.899893563185216 139.2,-37.994235344836625 139.6,-33.20853387499673 140,-28.59060630080995 140.4,-24.186593428113653 140.8,-20.04049869775871 141.2,-16.193748517774395 141.6,-12.684778344392015 142,-9.548648647672962 142.4,-6.816694598880209 142.8,-4.5162129798053465 143.2,-2.6701894423481685 143.6,-1.297068843480433 144,-0.4105709503328467 144.4,-0.019553356816507182 144.8,-0.12792298147258685 145.2,-0.7345970308336968 145.6,-1.8335138183384954 146,-3.4136933306998007 146.4,-5.459346936567991 146.8,-7.950035141316411 147.2,-10.860871811715057 147.6,-14.162772829948395 148,-17.822746692505397 148.4,-21.804224150377912 148.8,-26.067423596908338 149.2,-30.569748552453 149.6,-35.266213274327484 150,-40.109892239475336 150.4,-45.05238900878421 150.8,-50.04431978830738 151.2,-55.0358068558084 151.6,-59.9769769224758 152,-64.81845945033673 152.4,-69.51187994635416 152.8,-74.01034330437041 153.2,-78.26890236550618 153.6,-82.2450070153157 154,-85.89892933046319 154.4,-89.19416052700181 154.8,-92.09777574407441 155.2,-94.58076301823938 155.6,-96.61831316142009 156,-98.19006764611022 156.4,-99.28032202105172 156.8,-99.8781828249203 157.2,-99.9776764301903 157.6,-99.57780872964604 158,-98.68257506917266 158.4,-97.3009203275807 158.8,-95.44664954233382 159.2,-93.13828997417794 159.6,-90.39890598887553 160,-87.25586860568795 160.4,-83.74058201519793 160.8,-79.88816979901846 161.2,-75.7371239865757 161.6,-71.32892045547369 162,-66.7076045182371 162.4,-61.9193508361069 162.8,-57.01200205708867 163.2,-52.03459078802891 163.6,-47.036849677013905 164,-42.06871450119174 164.4,-37.17982522499205 164.8,-32.41903001401073 165.2,-27.83389716028651 165.6,-23.47023979564978 166,-19.371658142054955 166.4,-15.579103872573793 166.8,-12.13047093581519 167.2,-9.06021693211695 167.6,-6.399018824592546 168,-4.173466425057468 168.4,-2.405796717418048 168.8,-1.1136716730791034 169.2,-0.3100017783639643 169.6,-0.002817037202549067 170,-0.19518673798684763 170.4,-0.8851887862555952 170.8,-2.0659289096268423 171.2,-3.725609543088518 171.6,-5.847647706368787 172,-8.41084069559261 172.4,-11.389577933690616 172.8,-14.75409686281934 173.2,-18.470780322000753 173.6,-22.502492438683447 174,-26.808949678104113 174.4,-31.34712334305197 174.8,-36.07166950238761 175.2,-40.935382052613924 175.6,-45.889664385659366 176,-50.88501495011981 176.4,-55.87152185439852 176.8,-60.79936156982797 177.2,-65.6192967508985 177.6,-70.28316819854027 178,-74.74437605091903 178.4,-78.95834539385307 178.8,-82.88297163862084 179.2,-86.47904121709333 179.6,-89.71062339074554 180,-92.5454292587171 180.4,-94.95513437783747 180.8,-96.915661771099 181.2,-98.40742249685235 181.6,-99.4155113750365 182,-99.92985591481045 182.4,-99.94531695555239 182.8,-99.46174001565406 183.2,-98.48395683604964 183.6,-97.02173710305753 184,-95.08969083290422 184.4,-92.70712239327149 184.8,-89.89783762043577 185.2,-86.68990595922135 185.6,-83.11538000238545 186,-79.20997523170776 186.4,-75.01271316070174 186.8,-70.5655314445505 187.2,-65.91286485291933 187.6,-61.10120129242405 188,-56.17861731483694 188.4,-51.194297752072146 188.8,-46.19804427760381 189.2,-41.23977780460736 189.6,-36.36903969269527 190,-31.634496747030173 190.4,-27.083454955693337 190.8,-22.76138682388939 191.2,-18.71147702770582 191.6,-14.974190927103326 192,-11.586870249416895 192.4,-8.583359983158624 192.8,-5.993670210080465 193.2,-3.8436762543575274 193.6,-2.154860144901584 194,-0.9440959740300957 194.4,-0.22348129711299344 194.8,-0.0002162577984843781 195.2,-0.27653164655775725 195.6,-1.049666611364088 196,-2.311896243213573 196.4,-4.050608760862416 196.8,-6.248431523576214 197.2,-8.88340461281334 197.6,-11.92920024847281 198,-15.355385847369128 198.4,-19.127728095544498 198.8,-23.2085349962257 199.2,-27.557032475796248 199.6,-32.129771784863024 200,-36.881063623796194"
                stroke="lightgray"
                stroke-width="0.5"
                fill="none"/>
      <circle cx="0" cy="-35.27041877413025" r="0.65" fill="black"/>
      <circle cx="4" cy="-58.60131708516278" r="0.65" fill="black"/>
      <circle cx="8" cy="-70.93252476964487" r="0.65" fill="black"/>
      <circle cx="12" cy="-35.47910996271683" r="0.65" fill="black"/>
      <circle cx="16" cy="-47.06402656529324" r="0.65" fill="black"/>
      <circle cx="20" cy="-32.32259647380727" r="0.65" fill="black"/>
      <circle cx="24" cy="-55.00604291355047" r="0.65" fill="black"/>
      <circle cx="28" cy="-29.09282207321827" r="0.65" fill="black"/>
      <circle cx="32" cy="-38.018201775954694" r="0.65" fill="black"/>
      <circle cx="36" cy="-15.331874269049884" r="0.65" fill="black"/>
      <circle cx="40" cy="-16.843073671875047" r="0.65" fill="black"/>
      <circle cx="44" cy="-12.73528059973424" r="0.65" fill="black"/>
      <circle cx="48" cy="-35.825311657806886" r="0.65" fill="black"/>
      <circle cx="52" cy="-87.48496460377787" r="0.65" fill="black"/>
      <circle cx="56" cy="-83.89265050028908" r="0.65" fill="black"/>
      <circle cx="60" cy="-98.23138975212989" r="0.65" fill="black"/>
      <circle cx="64" cy="-74.17567163769533" r="0.65" fill="black"/>
      <circle cx="68" cy="-23.20021175700404" r="0.65" fill="black"/>
      <circle cx="72" cy="-46.725423643722635" r="0.65" fill="black"/>
      <circle cx="76" cy="-36.20802346844877" r="0.65" fill="black"/>
      <circle cx="80" cy="-38.18684717897275" r="0.65" fill="black"/>
      <circle cx="84" cy="-55.2758679801451" r="0.65" fill="black"/>
      <circle cx="88" cy="-10.74345375317035" r="0.65" fill="black"/>
      <circle cx="92" cy="-6.226900269044549" r="0.65" fill="black"/>
      <circle cx="96" cy="-49.68341677794633" r="0.65" fill="black"/>
      <circle cx="100" cy="-68.9676398553801" r="0.65" fill="black"/>
      <circle cx="104" cy="-54.45187714246828" r="0.65" fill="black"/>
      <circle cx="108" cy="-97.5251956980003" r="0.65" fill="black"/>
      <circle cx="112" cy="-28.18163405208738" r="0.65" fill="black"/>
      <circle cx="116" cy="-61.48381523913633" r="0.65" fill="black"/>
      <circle cx="120" cy="-17.791320761652074" r="0.65" fill="black"/>
      <circle cx="124" cy="-60.310769584799694" r="0.65" fill="black"/>
      <circle cx="128" cy="-71.73587565323315" r="0.65" fill="black"/>
      <circle cx="132" cy="-53.19577739810254" r="0.65" fill="black"/>
      <circle cx="136" cy="-23.44964781882054" r="0.65" fill="black"/>
      <circle cx="140" cy="-60.4709767615126" r="0.65" fill="black"/>
      <circle cx="144" cy="-43.96265194181367" r="0.65" fill="black"/>
      <circle cx="148" cy="-5.146002664694602" r="0.65" fill="black"/>
      <circle cx="152" cy="-78.39417480152532" r="0.65" fill="black"/>
      <circle cx="156" cy="-83.43082307619731" r="0.65" fill="black"/>
      <circle cx="160" cy="-59.275149002081605" r="0.65" fill="black"/>
      <circle cx="164" cy="-54.51590934625989" r="0.65" fill="black"/>
      <circle cx="168" cy="-36.515037835459786" r="0.65" fill="black"/>
      <circle cx="172" cy="-11.717374564556712" r="0.65" fill="black"/>
      <circle cx="176" cy="-30.556141605893348" r="0.65" fill="black"/>
      <circle cx="180" cy="-100" r="0.65" fill="black"/>
      <circle cx="184" cy="-38.220960871702594" r="0.65" fill="black"/>
      <circle cx="188" cy="-86.14363331593168" r="0.65" fill="black"/>
      <circle cx="192" cy="-56.73168014499638" r="0.65" fill="black"/>
      <circle cx="196" cy="-0" r="0.65" fill="black"/>
      <circle cx="200" cy="-76.83521859328657" r="0.65" fill="black"/>
      <g id="data">
         <polyline points="0,-35.27041877413025 4,-58.60131708516278 8,-70.93252476964487 12,-35.47910996271683 16,-47.06402656529324 20,-32.32259647380727 24,-55.00604291355047 28,-29.09282207321827 32,-38.018201775954694 36,-15.331874269049884 40,-16.843073671875047 44,-12.73528059973424 48,-35.825311657806886 52,-87.48496460377787 56,-83.89265050028908 60,-98.23138975212989 64,-74.17567163769533 68,-23.20021175700404 72,-46.725423643722635 76,-36.20802346844877 80,-38.18684717897275 84,-55.2758679801451 88,-10.74345375317035 92,-6.226900269044549 96,-49.68341677794633 100,-68.9676398553801 104,-54.45187714246828 108,-97.5251956980003 112,-28.18163405208738 116,-61.48381523913633 120,-17.791320761652074 124,-60.310769584799694 128,-71.73587565323315 132,-53.19577739810254 136,-23.44964781882054 140,-60.4709767615126 144,-43.96265194181367 148,-5.146002664694602 152,-78.39417480152532 156,-83.43082307619731 160,-59.275149002081605 164,-54.51590934625989 168,-36.515037835459786 172,-11.717374564556712 176,-30.556141605893348 180,-100 184,-38.220960871702594 188,-86.14363331593168 192,-56.73168014499638 196,-0 200,-76.83521859328657"
                   stroke="black"
                   stroke-width="0.5"
                   fill="none"
                   id="black"/>
      </g>
      <g id="regression">
         <g>
            <line x1="0"
                  y1="-43.42517813749293"
                  x2="200"
                  y2="-52.71469282893393"
                  class="regression"/>
         </g>
      </g>
      <g id="rectangular">
         <g>
            <path d="M0,-43.45308354734771 Q2.4,-43.45308354734771 4,-43.45308354734771 C5.6,-43.45308354734771 6.4,-43.45308354734771 8,-43.45308354734771 C9.6,-43.45308354734771 10.4,-43.45308354734771 12,-43.45308354734771 C13.6,-43.45308354734771 14.4,-43.45308354734771 16,-43.45308354734771 C17.6,-43.45308354734771 18.4,-43.45308354734771 20,-43.45308354734771 C21.6,-43.45308354734771 22.4,-43.45308354734771 24,-43.45308354734771 C25.6,-43.45308354734771 26.4,-43.45308354734771 28,-43.45308354734771 C29.6,-43.45308354734771 30.4,-43.45308354734771 32,-43.45308354734771 C33.6,-43.45308354734771 34.4,-43.45308354734771 36,-43.45308354734771 C37.6,-43.45308354734771 38.4,-43.45308354734771 40,-43.45308354734771 C41.6,-43.45308354734771 42.4015496758507,-43.403289156487666 44,-43.45308354734771 C45.6015496758507,-43.502974488177244 46.441462380142156,-43.39115389925199 48,-43.70229687657165 C49.64146238014216,-44.029994768241565 50.35767665602778,-44.80755066618949 52,-45.05018571982165 C53.55767665602777,-45.280315164406375 54.426640828283865,-44.7076518055427 56,-44.88420812211387 C57.62664082828387,-45.066743501313276 58.37479514718192,-45.791121736353695 60,-45.947914959248095 C61.57479514718192,-46.09984485663732 62.406107418345634,-45.599254915435374 64,-45.65601592282292 C65.60610741834563,-45.71321191964679 66.4001264569074,-46.23369929559159 68,-46.232807469776624 C69.60012645690739,-46.231915502978595 70.39276569417044,-45.72570257200524 72,-45.651556441290424 C73.59276569417044,-45.57807778735074 74.46566909871515,-45.495906703702744 76,-45.86374550814039 C77.66566909871516,-46.263071187722964 78.34230481581918,-47.090222758467334 80,-47.569467651340986 C81.54230481581918,-48.01535282570194 82.39351749424091,-47.98945282167572 84,-48.1765706762269 C85.59351749424091,-48.362178408426416 86.46702885168543,-48.104658471526584 88,-48.501281618217725 C89.66702885168543,-48.93258929775711 90.36752843769248,-49.63540220781071 92,-50.24639774180323 C93.56752843769249,-50.83308659871819 94.39876151961481,-51.49110470287233 96,-51.49549259548641 C97.59876151961481,-51.4998737004558 98.3673157749293,-50.59298030042539 100,-50.26832023576191 C101.5673157749293,-49.956658719699554 102.39671642229072,-49.98126641528752 104,-49.90468864367182 C105.59671642229073,-49.82842453966602 106.45648407656654,-50.19042762619701 108,-49.88621554670815 C109.65648407656654,-49.559738535410766 110.35866206931144,-48.809009262392934 112,-48.32796591670622 C113.55866206931144,-47.871153213729194 114.39186036947622,-47.59259314193499 116,-47.5415754250488 C117.59186036947622,-47.49107416252731 118.43920630877518,-48.24346169619623 120,-48.07416846818702 C121.63920630877519,-47.896370128184856 122.35504413429554,-47.00826546452899 124,-46.67384650502037 C125.55504413429554,-46.35770656946144 126.52788863285465,-46.03439300366168 128,-46.44777123051816 C129.72788863285464,-46.93297333899722 130.28224434833874,-48.53587869570306 132,-48.920297343359245 C133.48224434833872,-49.25201062710442 134.5679627736963,-47.820338048354465 136,-48.238101059021545 C137.76796277369633,-48.75386240762357 138.31091713496846,-50.1907886934799 140,-51.25410824153201 C141.51091713496848,-52.20526804449932 142.39736870264798,-53.267717725533316 144,-53.27429943657008 C145.59736870264797,-53.2808595351014 146.3143041214689,-51.63940669465932 148,-51.28696276545222 C149.51430412146888,-50.970353286018685 150.40853194063732,-51.40618883264914 152,-51.60166591496849 C153.60853194063733,-51.799238922308135 154.3889998314506,-52.135085167748606 156,-52.2695879895997 C157.58899983145062,-52.40225399760109 158.4,-52.2695879895997 160,-52.2695879895997 C161.6,-52.2695879895997 162.4,-52.2695879895997 164,-52.2695879895997 C165.6,-52.2695879895997 166.4,-52.2695879895997 168,-52.2695879895997 C169.6,-52.2695879895997 170.4,-52.2695879895997 172,-52.2695879895997 C173.6,-52.2695879895997 174.4,-52.2695879895997 176,-52.2695879895997 C177.6,-52.2695879895997 178.4,-52.2695879895997 180,-52.2695879895997 C181.6,-52.2695879895997 182.4,-52.2695879895997 184,-52.2695879895997 C185.6,-52.2695879895997 186.4,-52.2695879895997 188,-52.2695879895997 C189.6,-52.2695879895997 190.4,-52.2695879895997 192,-52.2695879895997 C193.6,-52.2695879895997 194.4,-52.2695879895997 196,-52.2695879895997 Q197.6,-52.2695879895997 200,-52.2695879895997"
                  class="spline"
                  fill="none"/>
         </g>
      </g>
      <g id="gaussian">
         <g>
            <path d="M0,-45.029596254461254 Q2.201171638602619,-44.654807184451265 4,-44.33613659053931 C5.801171638602619,-44.01705087445411 6.1992848748309175,-43.93405649534793 8,-43.61236001002312 C9.799284874830917,-43.290919037911074 10.19701665055393,-43.2064171996435 12,-42.906942240679626 C13.797016650553928,-42.608458348497614 14.1952771314057,-42.529399006249434 16,-42.283562563032255 C17.7952771314057,-42.0390128029255 18.1954277605193,-41.974595565012244 20,-41.81719512218198 C21.7954277605193,-41.66059228944816 22.19863919533967,-41.62183495196772 24,-41.58577750622318 C25.79863919533967,-41.54977453833792 26.204676767294632,-41.54791465003272 28,-41.65706086967131 C29.804676767294634,-41.76677573506799 30.211016753142093,-41.810024785433875 32,-42.07213547296822 C33.81101675314209,-42.33747437266782 34.213778179516886,-42.42720427965968 36,-42.82917106352452 C37.81377817951689,-43.23733905985289 38.2103589853312,-43.36632006940131 40,-43.87243498450868 C41.8103589853312,-44.38440899307504 42.20147218347316,-44.53818620097432 44,-45.091590893910585 C45.80147218347316,-45.645901564764365 46.198958523170106,-45.77830482939787 48,-46.334024681819876 C49.7989585231701,-46.889101829054184 50.17843293842518,-47.09256311354711 52,-47.56002867092461 C53.77843293842518,-48.01642479399718 54.19170897965758,-48.060888367420155 56,-48.3870506383756 C57.79170897965758,-48.71022199913683 58.18979379023745,-48.838760875682915 60,-49.002992296961665 C61.789793790237454,-49.16537179625922 62.20085940242792,-49.13460573632802 64,-49.11285268410072 C65.80085940242793,-49.091078850144726 66.20880311058434,-49.086786603380126 68,-48.906265883221 C69.80880311058434,-48.72397076978137 70.20258723807684,-48.59270224111445 72,-48.30659527610347 C73.80258723807684,-48.01966465294384 74.19394057026145,-47.89412630706642 76,-47.63284902061963 C77.79394057026144,-47.37332493380009 78.19769273324546,-47.34570311841984 80,-47.149258891067184 C81.79769273324547,-46.9533176292668 82.19667605820476,-46.88873716139164 84,-46.7608812669462 C85.79667605820477,-46.63349670828405 86.20020329493381,-46.57773332284067 88,-46.582057884161436 C89.80020329493382,-46.58638342243855 90.20344136556449,-46.645142798161594 92,-46.78010371049704 C93.80344136556448,-46.915581666726695 94.19841511714954,-47.0191380636706 96,-47.183033147639435 C97.79841511714955,-47.34663986938861 98.20407624371798,-47.32224779374063 100,-47.5078855009815 C101.80407624371797,-47.69436589938375 102.20365073546508,-47.75799499972998 104,-48.009962271290796 C105.80365073546508,-48.262953693190845 106.19572839019384,-48.38208738820962 108,-48.63001593089452 C109.79572839019384,-48.87677053281752 110.19935273568203,-48.89914622222703 112,-49.109258148197235 C113.79935273568204,-49.31921901964926 114.19849698309169,-49.37333601976937 116,-49.56351103627726 C117.7984969830917,-49.753368721909034 118.1957440728138,-49.86209589786387 120,-49.953775264063154 C121.7957440728138,-50.045022118775414 122.20006226709157,-49.97755981096804 124,-49.97001374941402 C125.80006226709158,-49.96246716576272 126.20039551986059,-49.90249518228656 128,-49.92023605249578 C129.8003955198606,-49.93798472093688 130.19997079678558,-50.047955691275604 132,-50.0488793908592 C133.79997079678557,-50.049803060471056 134.20090577179292,-49.90319180062127 136,-49.92434131737456 C137.8009057717929,-49.94551212999486 138.1994631294234,-50.055636885682645 140,-50.14292456724495 C141.7994631294234,-50.23016019523513 142.19999029062558,-50.311940313278676 144,-50.31217089415786 C145.79999029062557,-50.3124014725495 146.19939195218663,-50.16345016269048 148,-50.14394936562456 C149.79939195218662,-50.12446173901739 150.2002210459134,-50.180067634665065 152,-50.22552995266211 C153.8002210459134,-50.271003437874526 154.2001035308064,-50.28856174984953 156,-50.34602892831226 C157.8001035308064,-50.40350271784782 158.2000653205344,-50.41835957929295 160,-50.48095432599165 C161.8000653205344,-50.54355361588 162.20006037406932,-50.558116794857675 164,-50.62423789850572 C165.80006037406932,-50.6903634378582 166.2000729848492,-50.70518074537875 168,-50.77483575488172 C169.8000729848492,-50.84449641323637 170.2000787509178,-50.860352491585054 172,-50.933828271522664 C173.8000787509178,-51.00731048094724 174.20005705772897,-51.024659578693274 176,-51.10140906457546 C177.800057057729,-51.178163416335636 178.2000016496991,-51.196817423596244 180,-51.27494791072792 C181.8000016496991,-51.353078541072826 182.199926435476,-51.37221980299899 184,-51.4486559923012 C185.79992643547598,-51.52508593408998 186.199858957802,-51.54352251089752 188,-51.61465042426344 C189.799858957802,-51.68576719179467 190.19982406475162,-51.70227735774075 192,-51.764755283183746 C193.79982406475165,-51.82722099641002 194.19983011802665,-51.84085020305905 196,-51.892302954639604 Q197.79983011802665,-51.943745995031165 200,-51.993412598677345"
                  class="spline"
                  fill="none"/>
         </g>
      </g>
      <g id="exponential">
         <g>
            <path d="M0,-46.00386468293075 Q1.6861075507351577,-50.19795857144599 4,-52.44393253529741 C5.286107550735158,-53.69228963788513 6.831482953288367,-54.71517505765162 8,-53.76904483057329 C10.431482953288366,-51.80031059156007 9.61191566885659,-48.87750079801522 12,-45.966455943982844 C13.211915668856589,-44.48914594058903 14.351478266415375,-45.125063692326904 16,-44.01714514740397 C17.951478266415375,-42.70561924069098 17.970406723738268,-41.26103111584194 20,-40.58991271812523 C21.57040672373827,-40.07063190628691 22.70568036859842,-42.225620044895976 24,-41.37181357061503 C26.30568036859842,-39.85085632128393 25.859988954248838,-37.71499393688255 28,-35.31265999898734 C29.45998895424884,-33.673705368025146 30.506834307468594,-34.00615497012592 32,-32.39117230648748 C34.106834307468596,-30.11245608715611 33.71049171006013,-28.317262463315384 36,-26.65999581460999 C37.310491710060134,-25.711392914139772 38.59688670468062,-25.76543390023675 40,-26.60035108609723 C42.19688670468062,-27.907600095314795 42.92525899067597,-28.870111054141564 44,-31.420365137005646 C46.525258990675965,-37.41255487889626 46.449804928967986,-39.14868943129188 48,-45.583559585552116 C50.04980492896798,-54.09231361654671 49.503211109315586,-56.30898216176679 52,-64.62841888201639 C53.10321110931559,-68.30437845043289 53.615037188347074,-69.43837905218672 56,-72.2399957825879 C57.215037188347075,-73.66730043417428 58.97930915876564,-75.11509557805769 60,-74.02602195309984 C62.57930915876564,-71.27390793194651 62.53134634920642,-68.4553067299718 64,-63.704023235674164 C66.13134634920642,-56.80884361034579 65.26135313720928,-54.528127355359075 68,-48.144992798375384 C68.86135313720928,-46.13738347473873 70.29257064597294,-46.5534436977806 72,-45.057925723184525 C73.89257064597295,-43.40024459419967 73.9542793205532,-42.51143770843415 76,-41.13788367930664 C77.55427932055319,-40.09429711121626 78.15801785508397,-40.18241270670185 80,-39.68650217381143 C81.75801785508396,-39.21319705858443 82.93853497944507,-40.25159906706697 84,-38.9840711279346 C86.53853497944507,-35.95272864504312 85.4665601549006,-32.667710987551146 88,-30.13345679153621 C89.0665601549006,-29.066553800692493 91.17798558313194,-29.53528356506079 92,-30.981499601582033 C94.77798558313194,-35.86896534075666 94.01324963137935,-38.32001919890627 96,-44.20830518197148 C97.61324963137935,-48.98961809459032 97.5422081913807,-50.44318611469323 100,-54.691719369768805 C101.14220819138069,-56.66613781655607 102.39938881605424,-56.33919553175954 104,-58.03708674166668 C105.99938881605425,-60.15799201211252 106.77851607574063,-64.2307941223805 108,-63.1779337705532 C110.37851607574062,-61.12776739292398 109.26931845680045,-55.43830066788346 112,-51.14147178731885 C112.86931845680046,-49.77356689160136 114.70757701683472,-51.64779450222968 116,-50.58963648992631 C118.30757701683473,-48.700331563306555 118.3385509458671,-44.30039384761624 120,-44.59155414526746 C121.9385509458671,-44.93127510692239 121.76665164966161,-49.021262494687406 124,-51.99159484393998 C125.3666516496616,-53.80922871396934 126.39673909830019,-55.58619650843789 128,-55.23147907700508 C129.9967390983002,-54.78970558683916 130.3566855469366,-52.58618824103024 132,-50.22161501816504 C133.9566855469366,-47.40613059202326 133.89306597287828,-44.47342795527863 136,-43.72023985698956 C137.49306597287827,-43.186497695983896 138.1202283779412,-47.191352765824014 140,-47.36176999751009 C141.7202283779412,-47.51772328172633 142.17527419314118,-45.72247336620156 144,-44.445507670105826 C145.77527419314117,-43.20314882513078 147.1725438890739,-40.42369890078307 148,-41.7632710173528 C150.77254388907392,-46.251753773994025 149.4345893531679,-50.73729610373206 152,-57.396740721685724 C153.03458935316792,-60.082388927073055 154.22021944639107,-62.571570235563165 156,-62.530143958110585 C157.8202194463911,-62.48777642259736 158.30844662792893,-59.6790692753911 160,-57.210532248428386 C161.90844662792892,-54.42547607295776 162.37417399613335,-53.81221973459981 164,-50.855492397147614 C165.97417399613335,-47.265259365216465 165.8987908712325,-46.16080288410342 168,-42.66173142757651 C169.4987908712325,-40.165846422589446 170.46906395368083,-37.01691579801009 172,-37.53336692711656 C174.06906395368082,-38.2313519393848 174.71736174234277,-41.64145408280048 176,-45.3604784084092 C178.3173617423428,-52.079695334582546 177.38419622787347,-57.15556887561084 180,-60.729458597743374 C180.98419622787347,-62.074134685773885 182.24506904754514,-56.20172819966283 184,-56.290624653215964 C185.84506904754514,-56.38408707386447 186.55457085707752,-61.78926471730966 188,-61.13470054041368 C190.15457085707754,-60.15900075842675 190.480089924854,-56.58958655190524 192,-52.66781585569838 C194.080089924854,-47.30063272679908 194.29246196260002,-40.18239498985502 196,-40.492580929066655 Q197.8924619626,-40.836359561480144 200,-54.12107045930976"
                  class="spline"
                  fill="none"/>
         </g>
      </g>
      <g id="parabolic">
         <g>
            <path d="M0,-44.863763873705466 Q2.199900930190358,-44.79390172811158 4,-44.743127907619375 C5.799900930190358,-44.692359675878166 6.199931423314753,-44.682595529489944 8,-44.638114868742335 C9.799931423314753,-44.59363759712813 10.199951325968275,-44.584926602175 12,-44.54544361348201 C13.799951325968276,-44.505962760060434 14.19996472535573,-44.49811140609265 16,-44.46263966404329 C17.79996472535573,-44.427169312247884 18.199974002106487,-44.420022787190234 20,-44.38779451604919 C21.799974002106488,-44.35556717585821 22.199980593461376,-44.34899992508879 24,-44.319404972194356 C25.799980593461378,-44.2898106574437 26.199985395522862,-44.283719331884726 28,-44.25626281017122 C29.799985395522864,-44.228806733996485 30.19998898394831,-44.223104881580234 32,-44.19737697688714 C33.79998898394831,-44.17164938710315 34.199991739495395,-44.1662634038408 36,-44.141917266888825 C37.7999917394954,-44.117571353392904 38.19999392190756,-44.11243733942678 40,-44.089172420336254 C41.79999392190756,-44.06590765836334 42.19999571491734,-44.06096891925955 44,-44.03851797563672 C45.79999571491734,-44.01606713890714 46.2309294779161,-43.764035259349136 48,-43.98939068621979 C49.8309294779161,-44.22262609934499 50.16953157764947,-44.84458249512472 52,-45.05760873118308 C53.769531577649474,-45.26354325972798 54.22452818958797,-44.73842497715396 56,-44.92041460756037 C57.82452818958797,-45.107432620993166 58.17527680115256,-45.68415650161381 60,-45.87762571749242 C61.77527680115256,-46.06585229942189 62.209422086002995,-45.66048118213975 64,-45.76862749157832 C65.809422086003,-45.87791194063145 66.19423599778764,-46.31236865384119 68,-46.36080518080731 C69.79423599778765,-46.40893248879659 70.19784954807851,-46.0105687352167 72,-45.9832137914792 C73.7978495480785,-45.95592413140463 74.25778019513507,-45.855649708455594 76,-46.2393727278916 C77.85778019513506,-46.648547864079944 78.15068645387574,-47.25630811169058 80,-47.74520969286664 C81.75068645387573,-48.20803730651666 82.19261799639813,-48.14362621648433 84,-48.35432649417178 C85.79261799639812,-48.56330561915803 86.2502442409297,-48.297174450892676 88,-48.67783058769709 C89.8502442409297,-49.08034780831257 90.17164985140933,-49.55311763511459 92,-50.09471173288264 C93.77164985140932,-50.619510061897756 94.21187855052479,-51.09529322421811 96,-51.04759153610413 C97.81187855052478,-50.99925608017472 98.16907598439138,-50.25240043464722 100,-49.88129585723065 C101.76907598439139,-49.52272707446925 102.194299250606,-49.54157545158097 104,-49.42609518015309 C105.794299250606,-49.31134407061717 106.23906054180846,-49.647566073264805 108,-49.369670566199986 C109.83906054180845,-49.07944669767834 110.16765672014822,-48.55297620267326 112,-48.16360767884984 C113.76765672014822,-47.78798489281473 114.20264925732093,-47.64967974506549 116,-47.66968987762547 C117.80264925732092,-47.68975899921739 118.22119915323614,-48.359207372951985 120,-48.25267268807628 C121.82119915323615,-48.143598713753136 122.17002499717489,-47.4691242446148 124,-47.190559523850254 C125.77002499717489,-46.9211205870762 126.30574659857083,-46.629998010519955 128,-47.03488678243496 C129.90574659857083,-47.490317711023124 130.0999999256646,-48.72546389624548 132,-49.10238108052397 C133.6999999256646,-49.43962274377984 134.34578668165923,-48.19583098403168 136,-48.62190644362243 C137.94578668165926,-49.12308240772668 138.12120007294996,-50.169889502136186 140,-51.16293979984618 C141.72120007294996,-52.07268980582215 142.19915536207705,-52.847986785628166 144,-52.85035156292457 C145.79915536207704,-52.85271412195013 146.12826858703764,-51.51972349500104 148,-51.173444991672774 C149.72826858703766,-50.85370773902846 150.19892704974092,-51.33133216730915 152,-51.370316549652166 C153.7989270497409,-51.409254483789816 154.20000144977422,-51.357514791996216 156,-51.346605694963145 C157.80000144977421,-51.33569658035703 158.20000192324062,-51.333282287874006 160,-51.32183163489843 C161.80000192324061,-51.31038095745354 162.20000251809188,-51.30784061778799 164,-51.29571384958432 C165.80000251809187,-51.283587047451356 166.20000328617846,-51.28089189451006 168,-51.26793481192814 C169.80000328617845,-51.254977682035815 170.2000043021434,-51.25209475324539 172,-51.23812671075265 C173.8000043021434,-51.22415860149029 174.20000567653747,-51.22104942388456 176,-51.20585447469458 C177.8000056765375,-51.19065942966575 178.2000075774942,-51.18727834724971 180,-51.17059339026642 C181.8000075774942,-51.15390829280457 182.20001026768364,-51.1502002961898 184,-51.131698798149834 C185.80001026768363,-51.11319708903363 186.20001416940073,-51.10909495696836 188,-51.08836404103049 C189.80001416940073,-51.06763279870709 190.2000199833696,-51.06305329204234 192,-51.03956066868033 C193.80001998336962,-51.016067523688335 194.20002891444653,-51.01090628764791 196,-50.98395122246603 Q197.80002891444653,-50.95699529128048 200,-50.91975845453048"
                  class="spline"
                  fill="none"/>
         </g>
      </g>
      <text x="100" y="8" text-anchor="middle" font-size="5">Fake independent
                    variable</text>
      <text x="-10"
            y="-50"
            text-anchor="middle"
            font-size="5"
            writing-mode="tb">Fake
                    dependent variable</text>
      <text x="100" y="-106" text-anchor="middle" font-size="8">Smoothing examples (window                     = 25)</text>
   </g>
   <g transform="translate(50, 15)">
      <rect x="0"
            y="0"
            width="100"
            height="51"
            fill="ghostwhite"
            stroke="black"
            stroke-width="0.5"/>
      <rect x="2"
            y="1"
            width="5"
            height="5"
            fill="black"
            class="toggle"
            id="data-box"/>
      <rect x="2"
            y="8"
            width="5"
            height="5"
            fill="red"
            class="toggle"
            id="regression-box"/>
      <rect x="2" y="15" width="5" height="5" fill="gray"/>
      <rect x="2"
            y="22"
            width="5"
            height="5"
            fill="blue"
            class="toggle"
            id="rectangular-box"/>
      <rect x="2"
            y="29"
            width="5"
            height="5"
            fill="green"
            class="toggle"
            id="gaussian-box"/>
      <rect x="2"
            y="36"
            width="5"
            height="5"
            fill="indigo"
            class="toggle"
            id="exponential-box"/>
      <rect x="2"
            y="43"
            width="5"
            height="5"
            fill="darkgoldenrod"
            class="toggle"
            id="parabolic-box"/>
      <text x="10" y="6" fill="black" font-size="5">
         <tspan>Actual data (101 points)</tspan>
         <tspan x="10" dy="7" fill="red">Regression line (43.4–52.7)</tspan>
         <tspan x="10" dy="7" fill="gray">Y intercept of regression line (43.4)</tspan>
         <tspan x="10" dy="7" fill="blue">Rectangular kernel</tspan>
         <tspan x="10" dy="7" fill="green">Gaussian kernel (σ = 5)</tspan>
         <tspan x="10" dy="7" fill="indigo">Exponential kernel (y = 1 - 2<tspan dy="-2" font-size="4">-d</tspan>
            <tspan dy="2">)</tspan>
         </tspan>
         <tspan x="10" dy="7" fill="darkgoldenrod">Parabolic kernel (y = 1 - (d/N)<tspan dy="-2" font-size="4">2</tspan>
            <tspan dy="2" dx="-1">)</tspan>
         </tspan>
      </text>
   </g>
</svg>
