<?xml version="1.0" encoding="UTF-8"?>
<svg xmlns="http://www.w3.org/2000/svg" viewBox="-12 -115 210 195">
   <style type="text/css">
                #linear {
                    stroke: blue;
                    stroke-width: 0.5;
                    stroke-opacity: 0.5;
                    fill: none;
                }
                #gaussian {
                    stroke: green;
                    stroke-width: 0.5;
                    stroke-opacity: 0.5;
                    fill: none;
                }
                .regression {
                    stroke: red;
                    stroke-width: 0.5;
                    stroke-opacity: 0.5;
                }</style>
   <g>
      <line x1="2"
            y1="0"
            x2="200"
            y2="0"
            stroke="lightgray"
            stroke-width="0.5"
            stroke-linecap="square"/>
      <text x="0"
            y="0"
            fill="lightgray"
            font-size="3"
            text-anchor="end"
            alignment-baseline="central">0.0</text>
      <line x1="2"
            y1="-100"
            x2="200"
            y2="-100"
            stroke="lightgray"
            stroke-width="0.5"
            stroke-linecap="square"/>
      <text x="0"
            y="-100"
            fill="lightgray"
            font-size="3"
            text-anchor="end"
            alignment-baseline="central">100.0</text>
      <text x="0"
            y="-48.48678073265176"
            fill="lightgray"
            font-size="3"
            text-anchor="end"
            alignment-baseline="central">48.5</text>
      <text x="208"
            y="-100"
            font-size="3"
            fill="lightgray"
            text-anchor="end"
            alignment-baseline="central">100.0</text>
      <text x="208"
            y="0"
            font-size="3"
            fill="lightgray"
            text-anchor="end"
            alignment-baseline="central">0.0</text>
      <text x="208"
            y="-53.926690700594115"
            fill="red"
            fill-opacity="0.5"
            font-size="3"
            text-anchor="end"
            alignment-baseline="central">53.9</text>
      <line x1="2"
            y1="-100"
            x2="2"
            y2="0"
            stroke="lightgray"
            stroke-width="0.5"
            stroke-linecap="square"/>
      <line x1="200"
            y1="-100"
            x2="200"
            y2="0"
            stroke="lightgray"
            stroke-width="0.5"
            stroke-linecap="square"/>
      <line x1="2"
            y1="-48.48678073265176"
            x2="200"
            y2="-48.48678073265176"
            stroke="lightgray"
            stroke-width="0.5"/>
      <circle cx="2" cy="-77.43364720916497" r="0.65" fill="black"/>
      <circle cx="4" cy="-56.16100723308233" r="0.65" fill="black"/>
      <circle cx="6" cy="-84.01267621528477" r="0.65" fill="black"/>
      <circle cx="8" cy="-17.2687708954424" r="0.65" fill="black"/>
      <circle cx="10" cy="-12.380188272121575" r="0.65" fill="black"/>
      <circle cx="12" cy="-79.73128327220297" r="0.65" fill="black"/>
      <circle cx="14" cy="-25.653624567367697" r="0.65" fill="black"/>
      <circle cx="16" cy="-89.26640028839917" r="0.65" fill="black"/>
      <circle cx="18" cy="0.17351962239043717" r="0.65" fill="black"/>
      <circle cx="20" cy="-35.11129674100737" r="0.65" fill="black"/>
      <circle cx="22" cy="-21.216547741367755" r="0.65" fill="black"/>
      <circle cx="24" cy="-19.59009196724808" r="0.65" fill="black"/>
      <circle cx="26" cy="1.273045259041215" r="0.65" fill="black"/>
      <circle cx="28" cy="-5.954145555289005" r="0.65" fill="black"/>
      <circle cx="30" cy="-33.901865435409796" r="0.65" fill="black"/>
      <circle cx="32" cy="-58.52928031383422" r="0.65" fill="black"/>
      <circle cx="34" cy="-74.59137988786856" r="0.65" fill="black"/>
      <circle cx="36" cy="-67.9400311263495" r="0.65" fill="black"/>
      <circle cx="38" cy="-6.251652971963209" r="0.65" fill="black"/>
      <circle cx="40" cy="-5.97079940211225" r="0.65" fill="black"/>
      <circle cx="42" cy="-70.82617499643997" r="0.65" fill="black"/>
      <circle cx="44" cy="-70.1995301880878" r="0.65" fill="black"/>
      <circle cx="46" cy="-89.14710708263081" r="0.65" fill="black"/>
      <circle cx="48" cy="-29.765704772382552" r="0.65" fill="black"/>
      <circle cx="50" cy="-52.01336132718468" r="0.65" fill="black"/>
      <circle cx="52" cy="-67.10604460505219" r="0.65" fill="black"/>
      <circle cx="54" cy="-73.14860197283578" r="0.65" fill="black"/>
      <circle cx="56" cy="-87.25450060610305" r="0.65" fill="black"/>
      <circle cx="58" cy="-93.62383894295527" r="0.65" fill="black"/>
      <circle cx="60" cy="-60.67592929570438" r="0.65" fill="black"/>
      <circle cx="62" cy="-93.64846933280168" r="0.65" fill="black"/>
      <circle cx="64" cy="-62.22931589167199" r="0.65" fill="black"/>
      <circle cx="66" cy="-3.4685123293941036" r="0.65" fill="black"/>
      <circle cx="68" cy="-96.00946235207924" r="0.65" fill="black"/>
      <circle cx="70" cy="-79.96036925981753" r="0.65" fill="black"/>
      <circle cx="72" cy="-16.6510390086155" r="0.65" fill="black"/>
      <circle cx="74" cy="-72.88945184096272" r="0.65" fill="black"/>
      <circle cx="76" cy="-7.2010490737602595" r="0.65" fill="black"/>
      <circle cx="78" cy="-79.0903009861211" r="0.65" fill="black"/>
      <circle cx="80" cy="-46.989880815342936" r="0.65" fill="black"/>
      <circle cx="82" cy="-29.58623920130902" r="0.65" fill="black"/>
      <circle cx="84" cy="-62.62987423407806" r="0.65" fill="black"/>
      <circle cx="86" cy="-70.88234134359298" r="0.65" fill="black"/>
      <circle cx="88" cy="-62.69267082323158" r="0.65" fill="black"/>
      <circle cx="90" cy="-88.32701477374222" r="0.65" fill="black"/>
      <circle cx="92" cy="-28.947108415672542" r="0.65" fill="black"/>
      <circle cx="94" cy="-23.87727629330979" r="0.65" fill="black"/>
      <circle cx="96" cy="-50.313924707109" r="0.65" fill="black"/>
      <circle cx="98" cy="-53.250391478072544" r="0.65" fill="black"/>
      <circle cx="100" cy="-82.39475910761853" r="0.65" fill="black"/>
      <circle cx="102" cy="-46.07471082127069" r="0.65" fill="black"/>
      <circle cx="104" cy="-50.80305657501463" r="0.65" fill="black"/>
      <circle cx="106" cy="-59.20483737967511" r="0.65" fill="black"/>
      <circle cx="108" cy="-72.98384028426389" r="0.65" fill="black"/>
      <circle cx="110" cy="-91.36206625639946" r="0.65" fill="black"/>
      <circle cx="112" cy="-45.28694165659236" r="0.65" fill="black"/>
      <circle cx="114" cy="-8.909178923424466" r="0.65" fill="black"/>
      <circle cx="116" cy="-62.0516152031624" r="0.65" fill="black"/>
      <circle cx="118" cy="-72.90009776937299" r="0.65" fill="black"/>
      <circle cx="120" cy="-23.260101467401885" r="0.65" fill="black"/>
      <circle cx="122" cy="-34.24415774223636" r="0.65" fill="black"/>
      <circle cx="124" cy="-52.57858615324539" r="0.65" fill="black"/>
      <circle cx="126" cy="-49.80809553180366" r="0.65" fill="black"/>
      <circle cx="128" cy="-38.99691662990767" r="0.65" fill="black"/>
      <circle cx="130" cy="-33.88441362215379" r="0.65" fill="black"/>
      <circle cx="132" cy="-25.810135989854288" r="0.65" fill="black"/>
      <circle cx="134" cy="-8.53747116679945" r="0.65" fill="black"/>
      <circle cx="136" cy="-0.48004038940771165" r="0.65" fill="black"/>
      <circle cx="138" cy="-92.5663098083062" r="0.65" fill="black"/>
      <circle cx="140" cy="-8.51260056511818" r="0.65" fill="black"/>
      <circle cx="142" cy="-67.94888757387679" r="0.65" fill="black"/>
      <circle cx="144" cy="-91.63577757617283" r="0.65" fill="black"/>
      <circle cx="146" cy="-26.702978861748797" r="0.65" fill="black"/>
      <circle cx="148" cy="-80.53956734623083" r="0.65" fill="black"/>
      <circle cx="150" cy="-91.3783323631577" r="0.65" fill="black"/>
      <circle cx="152" cy="-50.192017343272" r="0.65" fill="black"/>
      <circle cx="154" cy="-82.18148723294537" r="0.65" fill="black"/>
      <circle cx="156" cy="-33.41285702006962" r="0.65" fill="black"/>
      <circle cx="158" cy="-59.677755798996124" r="0.65" fill="black"/>
      <circle cx="160" cy="-13.285353163715055" r="0.65" fill="black"/>
      <circle cx="162" cy="-87.07954106617987" r="0.65" fill="black"/>
      <circle cx="164" cy="-6.246900112817656" r="0.65" fill="black"/>
      <circle cx="166" cy="-66.52122478786539" r="0.65" fill="black"/>
      <circle cx="168" cy="-52.63599425104889" r="0.65" fill="black"/>
      <circle cx="170" cy="-77.54715633882027" r="0.65" fill="black"/>
      <circle cx="172" cy="-62.546304710168585" r="0.65" fill="black"/>
      <circle cx="174" cy="-45.41319090949126" r="0.65" fill="black"/>
      <circle cx="176" cy="-62.06636492144547" r="0.65" fill="black"/>
      <circle cx="178" cy="-59.37716649479196" r="0.65" fill="black"/>
      <circle cx="180" cy="-75.50182088956126" r="0.65" fill="black"/>
      <circle cx="182" cy="-15.819310664873854" r="0.65" fill="black"/>
      <circle cx="184" cy="-37.495579051505366" r="0.65" fill="black"/>
      <circle cx="186" cy="-30.33242660316892" r="0.65" fill="black"/>
      <circle cx="188" cy="-41.977143904423464" r="0.65" fill="black"/>
      <circle cx="190" cy="-92.68218568713058" r="0.65" fill="black"/>
      <circle cx="192" cy="-90.25734848321" r="0.65" fill="black"/>
      <circle cx="194" cy="-17.501273848915545" r="0.65" fill="black"/>
      <circle cx="196" cy="-6.7171503662432865" r="0.65" fill="black"/>
      <circle cx="198" cy="-52.63988306236157" r="0.65" fill="black"/>
      <circle cx="200" cy="-93.50700300488253" r="0.65" fill="black"/>
      <polyline points="2,-77.43364720916497 4,-56.16100723308233 6,-84.01267621528477 8,-17.2687708954424 10,-12.380188272121575 12,-79.73128327220297 14,-25.653624567367697 16,-89.26640028839917 18,0.17351962239043717 20,-35.11129674100737 22,-21.216547741367755 24,-19.59009196724808 26,1.273045259041215 28,-5.954145555289005 30,-33.901865435409796 32,-58.52928031383422 34,-74.59137988786856 36,-67.9400311263495 38,-6.251652971963209 40,-5.97079940211225 42,-70.82617499643997 44,-70.1995301880878 46,-89.14710708263081 48,-29.765704772382552 50,-52.01336132718468 52,-67.10604460505219 54,-73.14860197283578 56,-87.25450060610305 58,-93.62383894295527 60,-60.67592929570438 62,-93.64846933280168 64,-62.22931589167199 66,-3.4685123293941036 68,-96.00946235207924 70,-79.96036925981753 72,-16.6510390086155 74,-72.88945184096272 76,-7.2010490737602595 78,-79.0903009861211 80,-46.989880815342936 82,-29.58623920130902 84,-62.62987423407806 86,-70.88234134359298 88,-62.69267082323158 90,-88.32701477374222 92,-28.947108415672542 94,-23.87727629330979 96,-50.313924707109 98,-53.250391478072544 100,-82.39475910761853 102,-46.07471082127069 104,-50.80305657501463 106,-59.20483737967511 108,-72.98384028426389 110,-91.36206625639946 112,-45.28694165659236 114,-8.909178923424466 116,-62.0516152031624 118,-72.90009776937299 120,-23.260101467401885 122,-34.24415774223636 124,-52.57858615324539 126,-49.80809553180366 128,-38.99691662990767 130,-33.88441362215379 132,-25.810135989854288 134,-8.53747116679945 136,-0.48004038940771165 138,-92.5663098083062 140,-8.51260056511818 142,-67.94888757387679 144,-91.63577757617283 146,-26.702978861748797 148,-80.53956734623083 150,-91.3783323631577 152,-50.192017343272 154,-82.18148723294537 156,-33.41285702006962 158,-59.677755798996124 160,-13.285353163715055 162,-87.07954106617987 164,-6.246900112817656 166,-66.52122478786539 168,-52.63599425104889 170,-77.54715633882027 172,-62.546304710168585 174,-45.41319090949126 176,-62.06636492144547 178,-59.37716649479196 180,-75.50182088956126 182,-15.819310664873854 184,-37.495579051505366 186,-30.33242660316892 188,-41.977143904423464 190,-92.68218568713058 192,-90.25734848321 194,-17.501273848915545 196,-6.7171503662432865 198,-52.63988306236157 200,-93.50700300488253"
                stroke="black"
                stroke-width="0.5"
                fill="none"/>
      <g>
         <line x1="2"
               y1="-48.48678073265176"
               x2="200"
               y2="-53.926690700594115"
               class="regression"/>
      </g>
      <g id="linear">
         <g>
            <path d="M2,-50.59864697587294 Q3.2,-50.59864697587294 4,-50.59864697587294 C4.8,-50.59864697587294 5.2,-50.59864697587294 6,-50.59864697587294 C6.8,-50.59864697587294 7.2,-50.59864697587294 8,-50.59864697587294 C8.8,-50.59864697587294 9.2,-50.59864697587294 10,-50.59864697587294 C10.8,-50.59864697587294 11.2,-50.59864697587294 12,-50.59864697587294 C12.8,-50.59864697587294 13.2,-50.59864697587294 14,-50.59864697587294 C14.8,-50.59864697587294 15.2,-50.59864697587294 16,-50.59864697587294 C16.8,-50.59864697587294 17.2,-50.59864697587294 18,-50.59864697587294 C18.8,-50.59864697587294 19.2,-50.59864697587294 20,-50.59864697587294 C20.8,-50.59864697587294 21.2,-50.59864697587294 22,-50.59864697587294 C22.8,-50.59864697587294 23.2,-50.59864697587294 24,-50.59864697587294 C24.8,-50.59864697587294 25.2,-50.59864697587294 26,-50.59864697587294 C26.8,-50.59864697587294 27.2,-50.59864697587294 28,-50.59864697587294 C28.8,-50.59864697587294 29.2,-50.59864697587294 30,-50.59864697587294 C30.8,-50.59864697587294 31.2821221973371,-50.8549627145034 32,-50.59864697587294 C32.8821221973371,-50.283688355152144 33.132991677871736,-49.35801283993646 34,-49.17046107749479 C34.73299167787174,-49.01189987625689 35.20920158718959,-49.47949924206554 36,-49.73336456667402 C36.80920158718959,-49.993137753212814 37.3174515736881,-50.679810100595006 38,-50.45455735536296 C38.917451573688105,-50.151782522656404 39.164590671111036,-48.48760247327177 40,-48.41329562182752 C40.76459067111104,-48.34528785192451 41.09452259301744,-49.75275810180223 42,-50.09877080199481 C42.69452259301743,-50.364170729040524 43.19879107556431,-49.97715395715534 44,-49.94182718992325 C44.79879107556431,-49.906607030071186 45.21985701252782,-49.80009081113906 46,-49.922403484284416 C46.81985701252782,-50.05094261673777 47.299118005662976,-50.77255179857388 48,-50.56895670392003 C48.89911800566297,-50.3077771944634 49.209436383339494,-48.741761563448875 50,-48.76046697400821 C50.809436383339495,-48.77961893035043 51.122803010727814,-50.00853041938999 52,-50.66360012117392 C52.722803010727816,-51.20337209768156 53.215056810837346,-51.28821785037338 54,-51.74757116973712 C54.81505681083735,-52.224547155639435 55.28008438261794,-52.40333177089758 56,-53.00442338433905 C56.88008438261794,-53.73924747863525 57.091813066445305,-54.40651556148276 58,-55.087360439081294 C58.691813066445306,-55.605995276406496 59.17617073115969,-55.702654135305096 60,-56.003122671648384 C60.77617073115969,-56.28620909788369 61.19776908128274,-56.33757548927151 62,-56.54624784552779 C62.797769081282745,-56.75375961060144 63.18927621474857,-56.975204747112066 64,-57.04358297497322 C64.78927621474857,-57.11015226754767 65.20150106029253,-56.8683454125644 66,-56.8836166466168 C66.80150106029254,-56.89894529600669 67.2180483202322,-57.20338388397641 68,-57.12008268357892 C68.81804832023221,-57.03293611324516 69.25418012105023,-56.329317432673975 70,-56.457497219788664 C70.85418012105022,-56.60430026052819 71.22512429490855,-57.23351276084737 72,-57.807539753214456 C72.82512429490856,-58.41879084061238 73.10050781332257,-59.04323481091355 74,-59.42069241920121 C74.70050781332256,-59.71464939594855 75.21935540117583,-59.34816114586134 76,-59.48607621580194 C76.81935540117584,-59.63083025320844 77.25350125734538,-60.25572694345368 78,-60.127365187568955 C78.85350125734539,-59.98060416336002 79.14596511515916,-59.2169837502672 80,-58.79826926556778 C80.74596511515915,-58.43253900753996 81.18553866881794,-58.23300381705544 82,-58.16625333075087 C82.78553866881795,-58.10187324768598 83.19696161457217,-58.37412503696808 84,-58.47044284214413 C84.79696161457218,-58.5660317889717 85.28848980551889,-58.88369936836001 86,-58.646020210759914 C86.88848980551889,-58.34922121877076 87.20917214005628,-57.75072680220455 88,-57.134247468171004 C88.80917214005629,-56.50346809469787 89.16585294751418,-56.12223857747981 90,-55.52787344199323 C90.76585294751418,-54.98217075137586 91.14006956667419,-54.622272168178746 92,-54.28407790291112 C92.7400695666742,-53.99302263419559 93.29857881784822,-54.30290631543988 94,-53.95474960703534 C94.89857881784822,-53.508731934024176 95.12960406380598,-52.84591298820898 96,-52.298641949371884 C96.729604063806,-51.83989535217974 97.18784350221917,-51.4766418937072 98,-51.43970551696224 C98.78784350221916,-51.40387488026408 99.37806465683734,-52.423594699679654 100,-52.11672441576406 C100.97806465683735,-51.63413569937882 101.17644876373588,-50.50767763423306 102,-49.466058016210134 C102.77644876373587,-48.48401314870956 103.1893404000614,-47.079457509147474 104,-47.0575632019553 C104.78934040006139,-47.036244684047844 105.16515869757268,-49.28505058086077 106,-49.35802595346107 C106.76515869757267,-49.42491021145284 107.18902100842715,-47.42950813541476 108,-47.40721227843548 C108.78902100842716,-47.38552010176957 109.08516579074326,-48.74009199090629 110,-49.24805586934811 C110.68516579074326,-49.628495810181064 111.21095651435067,-49.67449698762804 112,-49.62822182662241 C112.81095651435066,-49.58066152867601 113.2752230914839,-48.84508602825449 114,-49.013467221968035 C114.8752230914839,-49.21680028511907 115.14134909517217,-50.039052840749264 116,-50.557507468783854 C116.74134909517217,-51.00513509861595 117.1840047734751,-51.37885923796987 118,-51.42867286663475 C118.7840047734751,-51.47653359104573 119.19797158226721,-50.80899367898706 120,-50.8016933514735 C120.79797158226721,-50.794429950616056 121.28813607359879,-51.58330917133765 122,-51.39226354570725 C122.88813607359879,-51.15391109444119 123.13417856033784,-49.88682393017885 124,-49.728198159232335 C124.73417856033785,-49.59369047114432 125.16586194540348,-50.53216871424925 126,-50.659429898120926 C126.76586194540349,-50.7762744627793 127.24890590858223,-50.189531421957135 128,-50.33846253055744 C128.84890590858222,-50.506788309587144 129.22798547822262,-51.512449300354405 130,-51.45257211719595 C130.82798547822262,-51.38835384573399 131.12938123103686,-50.44293539929387 132,-50.02822389400641 C132.72938123103688,-49.68078963341498 133.19072071472368,-49.60430021571504 134,-49.54720770249873 C134.79072071472368,-49.491424447351704 135.228427627741,-49.55135634037332 136,-49.74603447309808 C136.828427627741,-49.955057954841 137.1701193930919,-50.36731455170286 138,-50.55646173866795 C138.7701193930919,-50.731988092239824 139.23164073362716,-50.79875405580681 140,-50.657718324440474 C140.83164073362715,-50.505067000724644 141.20379849076204,-50.16525223929539 142,-49.82224410096252 C142.80379849076203,-49.47596313978356 143.1729563749748,-49.029765215070825 144,-48.93449557566089 C144.7729563749748,-48.84545640904956 145.33033949259226,-48.95215292285404 146,-49.361472085909355 C146.93033949259228,-49.9301270659369 147.1395374358738,-51.24670890193137 148,-51.37943093336805 C148.73953743587379,-51.49350087075378 149.17074659619422,-50.49131271676127 150,-49.978452007965366 C150.77074659619421,-49.5017754651715 151.15176124576962,-49.08765193006555 152,-48.90558780439362 C152.75176124576961,-48.74423140179766 153.20044350479372,-49.03022127205452 154,-49.119900687295655 C154.80044350479375,-49.2096795908176 155.2600076097532,-49.086061560464344 156,-49.35423360130133 C156.8600076097532,-49.66589896284098 157.20093149481724,-50.08186353093703 158,-50.56949419323725 C158.80093149481723,-51.05826174287996 159.15642775295683,-51.67410231660534 160,-51.79522913115865 C160.75642775295682,-51.903843045943695 161.21113993663124,-51.434665888855704 162,-51.14384601658313 C162.81113993663124,-50.8448124823478 163.19928318321715,-50.32264300037363 164,-50.32059561488888 C164.79928318321714,-50.31855189512026 165.36258971089924,-50.59375453608868 166,-51.133618253449704 C166.96258971089927,-51.948897310762504 167.0785771155573,-53.42136573979943 168,-53.70845255157344 C168.6785771155573,-53.91987614863981 169.12709832079798,-52.669819463065174 170,-52.37989427555067 C170.72709832079798,-52.138396152656064 171.2,-52.37989427555067 172,-52.37989427555067 C172.8,-52.37989427555067 173.2,-52.37989427555067 174,-52.37989427555067 C174.8,-52.37989427555067 175.2,-52.37989427555067 176,-52.37989427555067 C176.8,-52.37989427555067 177.2,-52.37989427555067 178,-52.37989427555067 C178.8,-52.37989427555067 179.2,-52.37989427555067 180,-52.37989427555067 C180.8,-52.37989427555067 181.2,-52.37989427555067 182,-52.37989427555067 C182.8,-52.37989427555067 183.2,-52.37989427555067 184,-52.37989427555067 C184.8,-52.37989427555067 185.2,-52.37989427555067 186,-52.37989427555067 C186.8,-52.37989427555067 187.2,-52.37989427555067 188,-52.37989427555067 C188.8,-52.37989427555067 189.2,-52.37989427555067 190,-52.37989427555067 C190.8,-52.37989427555067 191.2,-52.37989427555067 192,-52.37989427555067 C192.8,-52.37989427555067 193.2,-52.37989427555067 194,-52.37989427555067 C194.8,-52.37989427555067 195.2,-52.37989427555067 196,-52.37989427555067 C196.8,-52.37989427555067 197.2,-52.37989427555067 198,-52.37989427555067 Q198.8,-52.37989427555067 200,-52.37989427555067"
                  class="spline"/>
         </g>
      </g>
      <g id="gaussian">
         <g>
            <path d="M2,-52.46540746375972 Q3.208724992836523,-51.476121666545694 4,-50.799585135374016 C4.808724992836523,-50.108128945841635 5.207511872049215,-49.755475132538734 6,-49.045425661999566 C6.807511872049216,-48.321915293856556 7.204966101841984,-47.95293735428598 8,-47.215685538668566 C8.804966101841984,-46.469223379673274 9.200686248951365,-46.08868754769678 10,-45.3361407254678 C10.800686248951365,-44.58230170861079 11.19441723205788,-44.198280172731735 12,-43.4497209409536 C12.79441723205788,-42.711536887613356 13.186259687086647,-42.33584357405108 14,-41.619282512671845 C14.786259687086647,-40.92692026029502 15.177065585525286,-40.574951179809695 16,-39.92741265656344 C16.777065585525285,-39.31596672251812 17.169220003671754,-39.005937295800116 18,-38.47182136944291 C18.769220003671755,-37.977282915641105 19.167750207429446,-37.72971042542864 20,-37.355776706165905 C20.767750207429447,-37.01082295178633 21.17955614345651,-36.849933074949256 22,-36.674602685337135 C22.779556143456507,-36.508010076633134 23.205292277433692,-36.461602967978045 24,-36.50096921037561 C24.80529227743369,-36.54085976396425 25.231133906231506,-36.62557187148411 26,-36.87274467530264 C26.831133906231507,-37.13993515179378 27.24310325657356,-37.34630643484451 28,-37.786877411149774 C28.84310325657356,-38.27762707826188 29.241648986135736,-38.58385235248701 30,-39.20104628384606 C30.841648986135738,-39.88603336381383 31.233574159537312,-40.27228244412565 32,-41.042329939466846 C32.833574159537314,-41.879843055341624 33.22544352541159,-42.32679639018764 34,-43.219947811885994 C34.82544352541159,-44.17177777192194 35.216555283339865,-44.66770010699731 36,-45.654783393802596 C36.816555283339866,-46.68358358327019 37.20496475606579,-47.21393246207315 38,-48.2596565025682 C38.80496475606579,-49.31844100752141 39.20434382354153,-49.85025250051159 40,-50.916054757423225 C40.80434382354153,-51.99349434480791 41.19136798834591,-52.54357782908655 42,-53.617761113308994 C42.79136798834591,-54.66901094326695 43.18728027991011,-55.194881398475715 44,-56.22963754287422 C44.787280279910114,-57.232004148314374 45.18066938296722,-57.73443743967929 46,-58.71056798790565 C46.78066938296722,-59.640638483182684 47.16846053191512,-60.11106377216188 48,-60.99514015163272 C48.76846053191512,-61.81215224894955 49.16695948952885,-62.21284721844909 50,-62.963289179874835 C50.76695948952885,-63.65420225843639 51.157607808315674,-64.00512941892703 52,-64.59852775160097 C52.75760780831567,-65.13220222616654 53.16285876746171,-65.38810207277186 54,-65.78097119797363 C54.76285876746171,-66.13897967369576 55.17914712518512,-66.29275881011465 56,-66.47572175391072 C56.77914712518512,-66.64938874838433 57.20276377358353,-66.69472838601352 58,-66.67254604364783 C58.80276377358353,-66.65020990252131 59.22200691157416,-66.5713743883726 60,-66.3644255451802 C60.822006911574164,-66.1457688733187 61.226654205565666,-65.96851194562875 62,-65.60853225601308 C62.82665420556566,-65.22373838181004 63.22103900796137,-64.97936235532018 64,-64.50249163563342 C64.82103900796137,-63.999861251546065 65.20882721385867,-63.70957181260933 66,-63.1597794965778 C66.80882721385868,-62.597718977098225 67.19871061176585,-62.295824307570776 68,-61.722859546855645 C68.79871061176584,-61.15173874921279 69.18692532923471,-60.84953719396619 70,-60.29956560068284 C70.78692532923472,-59.767281675632155 71.18270225599593,-59.50087546402376 72,-59.01722075102055 C72.78270225599593,-58.554038712690115 73.18176894520029,-58.32861249147272 74,-57.932473722348746 C74.78176894520028,-57.5539877361785 75.1826407135395,-57.37257528940175 76,-57.080658862785015 C76.7826407135395,-56.80114202825981 77.19009184309718,-56.69175297173011 78,-56.5038905694939 C78.79009184309717,-56.32062466413609 79.19507369750275,-56.253943173332644 80,-56.152838093799964 C80.79507369750274,-56.05297057900891 81.19885770147592,-56.03218993067869 82,-56.00145908368456 C82.79885770147592,-55.97081587106258 83.2004938662258,-55.97993271404396 84,-55.99940294475968 C84.8004938662258,-56.018897229548166 85.20055112093405,-56.050056304484116 86,-56.09887037244508 C86.80055112093406,-56.14775174290764 87.2005360141507,-56.17909374923689 88,-56.24364154081848 C88.8005360141507,-56.308275886717205 89.20049519613931,-56.34537329033014 90,-56.421825716145854 C90.80049519613931,-56.49837284794938 91.20041992194498,-56.54049412871129 92,-56.6261404348666 C92.800419921945,-56.71187670015033 93.19959011261213,-56.76444776966634 94,-56.850282144743446 C94.79959011261212,-56.9360286087931 95.19957273742756,-56.97758064403613 96,-57.055092532683496 C96.79957273742755,-57.132521670703824 97.19907661806873,-57.17677189175965 98,-57.23763471141269 C98.79907661806872,-57.298357193976756 99.19933934223155,-57.342511885054364 100,-57.359055788226264 C100.79933934223155,-57.37557238929947 101.20216651414115,-57.37037057568969 102,-57.32028597202545 C102.80216651414115,-57.26992935921641 103.20513615252442,-57.227189391078234 104,-57.107952747043065 C104.80513615252443,-56.98717516592235 105.21516941091544,-56.93188690613404 106,-56.720250409135744 C106.81516941091544,-56.50043278099317 107.21591928551683,-56.345304766847526 108,-56.02931743419089 C108.81591928551684,-55.70049904351854 109.22155597221581,-55.51777943475787 110,-55.10823610081329 C110.82155597221582,-54.676011355199826 111.21986058987434,-54.42903126186109 112,-53.92489723529577 C112.81986058987435,-53.39509497812097 113.21257786929449,-53.10115061946848 114,-52.523395391463 C114.81257786929449,-51.92718264376462 115.20748474580589,-51.61286967163165 116,-50.989977296036116 C116.80748474580588,-50.35531936496116 117.19961924927594,-50.02322927219154 118,-49.37951962478678 C118.79961924927593,-48.73642241818376 119.18760351543617,-48.399499807112576 120,-47.77296016101664 C120.78760351543616,-47.16554144712324 121.182132037591,-46.86007409340145 122,-46.294623724813434 C122.782132037591,-45.753880146060595 123.17134146477468,-45.47079988741586 124,-45.0074752926645 C124.77134146477468,-44.576198166574834 125.17495572189318,-44.37138154256576 126,-44.05811942271088 C126.77495572189319,-43.76387549099005 127.18474599972659,-43.6213771684604 128,-43.488710163725244 C128.7847459997266,-43.361007752910076 129.2077448468668,-43.34292429794762 130,-43.40719588383507 C130.80774484686683,-43.472724068909336 131.23082848706443,-43.55688155028807 132,-43.81320959112953 C132.83082848706445,-44.09008494959375 133.2402233614429,-44.29937285622986 134,-44.74020438209928 C134.8402233614429,-45.227712062250426 135.23503340133448,-45.53179374630919 136,-46.13405760618094 C136.83503340133447,-46.79148557792097 137.2206579556564,-47.165026839160255 138,-47.88943396112874 C138.8206579556564,-48.652244683445524 139.20356797847245,-49.063431678076284 140,-49.85210221689412 C140.80356797847244,-50.64783917049263 141.18770132492136,-51.06381863877213 142,-51.850452692169604 C142.78770132492136,-52.613266550051925 143.17449357765935,-53.00489360596901 144,-53.725721995093586 C144.77449357765934,-54.40200620423222 145.16581791993065,-54.744077238390645 146,-55.34323418782764 C146.76581791993064,-55.89328811453352 147.16284317062826,-56.1698323866138 148,-56.59874918545078 C148.76284317062826,-56.98959142585403 149.1780948582362,-57.14998289750278 150,-57.39263178592822 C150.7780948582362,-57.6223466798336 151.1927679833075,-57.69164698390787 152,-57.77965864127782 C152.7927679833075,-57.86609330030758 153.20204388779644,-57.86057208482165 154,-57.828747576927476 C154.80204388779643,-57.79676003820412 155.20337191786388,-57.728408151276604 156,-57.620128524734014 C156.80337191786387,-57.51093225963645 157.20088908019076,-57.42419270045496 158,-57.28505784782708 C158.80088908019076,-57.1456133960228 159.1992801132019,-57.06412694021912 160,-56.92368026365362 C160.79928011320192,-56.78348612411128 161.19803382194064,-56.70675362842082 162,-56.58345580755749 C162.79803382194063,-56.46076256448505 163.19807626881797,-56.40207484983171 164,-56.3087026038142 C164.798076268818,-56.21577833830708 165.19901578234698,-56.181806686475745 166,-56.11771452874591 C166.799015782347,-56.05377987882126 167.2003397568423,-56.04508068749372 168,-55.98863558467798 C168.8003397568423,-55.932142517467206 169.2006717519528,-55.90444929094429 170,-55.835369103679625 C170.80067175195282,-55.766172807042345 171.2015449990478,-55.733535611100116 172,-55.64294437492312 C172.8015449990478,-55.55200255324421 173.20219279224438,-55.50077617345574 174,-55.38153645903986 C174.80219279224437,-55.26164127819437 175.20201753676423,-55.19073624803183 176,-55.04510713676969 C176.80201753676423,-54.89874163818213 177.20083166097498,-54.813087374914346 178,-54.65154993441559 C178.800831660975,-54.48967628343726 179.1991347375658,-54.39828210364294 180,-54.23657940807697 C180.7991347375658,-54.075226122766495 181.19777093673525,-53.988617208013345 182,-53.84390998222449 C182.79777093673525,-53.7000069196751 183.19737011523802,-53.62787657559506 184,-53.51505368723135 C184.797370115238,-53.402970146356544 185.19801063529587,-53.35246045459863 186,-53.28164390912819 C186.79801063529587,-53.21117868985291 187.1992837989346,-53.18603453263693 188,-53.161849275367054 C188.79928379893462,-53.137707283131654 189.20063866561023,-53.138425575836166 190,-53.160825785365 C190.80063866561022,-53.183261789078195 191.20170424820466,-53.20803653806245 192,-53.27393980847213 C192.80170424820466,-53.34012446715182 193.20238457003262,-53.386074788889076 194,-53.491045608088406 C194.80238457003261,-53.59664407379596 195.20276559032507,-53.660828427423844 196,-53.80036302073934 C196.80276559032507,-53.940865699517786 197.20298239327784,-54.02086411851925 198,-54.19113878832326 Q198.80298239327783,-54.36268777384206 200,-54.65492215904637"
                  class="spline"/>
         </g>
      </g>
      <text x="100" y="8" text-anchor="middle" font-size="5">Fake independent
                    variable</text>
      <text x="-10"
            y="-50"
            text-anchor="middle"
            font-size="5"
            writing-mode="tb">Fake
                    dependent variable</text>
      <text x="100" y="-106" text-anchor="middle" font-size="8">Smoothing examples (window                     = 33)</text>
   </g>
   <g transform="translate(50, 15)">
      <rect x="0"
            y="0"
            width="100"
            height="51"
            fill="ghostwhite"
            stroke="black"
            stroke-width="0.5"/>
      <rect x="2" y="2" width="5" height="5" fill="black"/>
      <rect x="2" y="9" width="5" height="5" fill="red"/>
      <rect x="2" y="16" width="5" height="5" fill="gray"/>
      <rect x="2" y="23" width="5" height="5" fill="blue"/>
      <rect x="2" y="30" width="5" height="5" fill="green"/>
      <rect x="2" y="37" width="5" height="5" fill="indigo"/>
      <rect x="2" y="44" width="5" height="5" fill="darkgoldenrod"/>
      <text x="10" y="6" fill="black" font-size="5">
         <tspan>Actual data (100 points)</tspan>
         <tspan x="10" dy="7" fill="red">Regression line (48.5–53.9)</tspan>
         <tspan x="10" dy="7" fill="gray">Y intercept of regression line (48.5)</tspan>
         <tspan x="10" dy="7" fill="blue">Rectangular kernal</tspan>
         <tspan x="10" dy="7" fill="green">Gaussian kernal (σ = 5)</tspan>
      </text>
   </g>
</svg>
