<?xml version="1.0" encoding="UTF-8"?>
<svg xmlns="http://www.w3.org/2000/svg" viewBox="-20 -115 234 195">
   <script type="text/javascript">
                window.addEventListener('DOMContentLoaded', init, false);
                function init() {
                    var rects = document.getElementsByClassName('toggle');
                    for (var i = 0; i &lt; rects.length; i++) {
                        rects[i].addEventListener('mouseover', emphasize, false);
                        rects[i].addEventListener('mouseout', deemphasize, false);
                    }
                }
                function emphasize() {
                    var target = this.id.substring(0, this.id.indexOf('-'));
                    document.getElementById(target).classList.add('highlight');
                }
                function deemphasize() {
                    var target = this.id.substring(0, this.id.indexOf('-'));
                    document.getElementById(target).classList.remove('highlight');
                }//</script>
   <style type="text/css">
                .spline {
                    stroke-width: 0.5;
                    stroke-opacity: 0.5;
                    stroke-linecap: square;
                    fill: none;
                    clip-path: url(#clip-rectangular);
                }
                .highlight .spline {
                    stroke-width: 1.5;
                    stroke-opacity: 0.75;
                }
                #rectangular {
                    stroke: blue;
                }
                #gaussian {
                    stroke: green;
                }
                #exponential {
                    stroke: indigo;
                }
                #parabolicUp {
                    stroke: fuchsia;
                }
                #parabolicDown {
                    stroke: darkgoldenrod;
                }
                #regression {
                    stroke: red;
                    stroke-width: 0.5;
                    stroke-opacity: 0.5;
                }
                #regression.highlight {
                    stroke-width: 1.5;
                    stroke-opacity: 0.75;
                }
                #data.highlight &gt; polyline {
                    stroke-width: 1.5;
                }</style>
   <clipPath id="clip-rectangular">
      <rect x="0" y="-100" width="200" height="100"/>
   </clipPath>
   <g>
      <polyline points="0,-49.99991159163257 0.4000000000000057,-54.99162248393219 0.7999999999999972,-59.933457851036025 1.2000000000000028,-64.7760405075099 1.5999999999999943,-69.470984968195 2,-73.97138089998278 2.4000000000000057,-78.23226183435574 2.799999999999997,-82.21105445747753 3.200000000000003,-85.8680039886721 3.5999999999999943,-89.16657139705036 4,-92.07379848742939 4.400000000000006,-94.56063720772356 4.799999999999997,-96.60223988747914 5.200000000000003,-98.17820750758436 5.599999999999994,-99.2727935205246 6,-99.87506118468069 6.400000000000006,-99.97899284063554 6.799999999999997,-99.58355003763812 7.200000000000003,-98.69268390945993 7.599999999999994,-97.31529569597262 8,-95.46514780490124 8.400000000000006,-93.16072630239583 8.799999999999997,-90.42505620636905 9.200000000000003,-87.2854714281279 9.599999999999994,-83.77334166096806 10,-79.92375894456698 10.400000000000006,-75.7751870369242 10.799999999999997,-71.36907709720549 11.200000000000003,-66.74945351946192 11.599999999999994,-61.96247405543809 12,-57.05596862157316 12.400000000000006,-52.07896139828741 12.799999999999997,-47.08118099657623 13.200000000000003,-42.11256358616663 13.599999999999994,-37.22275394981719 14,-32.46060944905783 14.400000000000006,-27.87371185758461 14.799999999999997,-23.507891939904937 15.200000000000003,-19.406771525487766 15.599999999999994,-15.611327653864063 16,-12.15948314559189 16.400000000000006,-9.085727689969945 16.799999999999997,-6.420773235462435 17.200000000000003,-4.191247126061786 17.599999999999994,-2.419426049669928 18,-1.123013456795881 18.400000000000006,-0.31496267353066965 18.799999999999997,-0.003347476194619978 19.200000000000003,-0.1912814208331931 19.599999999999994,-0.8768867335942497 20,-2.053313072823724 20.400000000000006,-3.708805975414855 20.799999999999997,-5.826824303518074 21.200000000000003,-8.386205518122889 21.599999999999994,-11.361377128151748 22,-14.722612202338423 22.400000000000006,-18.436326390898145 22.799999999999997,-22.465413489249364 23.200000000000003,-26.769616190944774 23.599999999999994,-31.30592832536897 24,-36.02902456118055 24.400000000000006,-40.89171328203914 24.799999999999997,-45.84540810963695 25.200000000000003,-50.840613362730764 25.599999999999994,-55.827418601626654 26,-60.75599731679657 26.400000000000006,-65.57710477888986 26.799999999999997,-70.24257007579139 27.200000000000003,-74.70577742045263 27.599999999999994,-78.9221319204256 28,-82.84950515528837 28.400000000000006,-86.44865610989503 28.799999999999997,-89.68362325762817 29.200000000000003,-92.52208387608582 29.599999999999994,-94.93567700503849 30,-96.9002868197697 30.400000000000006,-98.39628358842417 30.799999999999997,-99.40871980580032 31.200000000000003,-99.92747954388108 31.599999999999994,-99.94737952684268 32,-99.46822092063346 32.400000000000006,-98.49479131965784 32.8,-97.03681691071581 33.2,-95.10886529215915 33.599999999999994,-92.73019991926452 34,-89.9245876301555 34.400000000000006,-86.72006117541281 34.8,-83.14863912409677 35.2,-79.2460059447887 35.599999999999994,-75.05115545817752 36,-70.60600122369193 36.4,-65.9549577530705 36.8,-61.144496735241056 37.2,-56.222682706566644 37.6,-51.238692805886544 38,-46.242325412800255 38.4,-41.28350257871999 38.8,-36.41177122223502 39.2,-31.675808072678944 39.6,-27.12293330834103 40,-22.798637748886158 40.4,-18.746128326122324 40.8,-15.00589637462028 41.2,-11.615313055683057 41.6,-8.608255957055775 42,-6.0147705992669325 42.4,-3.8607702307192673 42.8,-2.167776911077452 43.2,-0.9527064699621499 43.6,-0.2276994895721372 44,-0 44.4,-0.27188309927810167 44.8,-1.0406322213510508 45.2,-2.2985662791058075 45.6,-4.033116411254947 46,-6.226951566244104 46.4,-8.858151668390104 46.8,-11.90042663603143 47.2,-15.32337906333387 47.6,-19.09280794112134 48,-23.171050382054567 48.4,-27.517357935751466 48.8,-32.08830373383376 49.2,-36.8382163968409 49.6,-41.71963636755632 50,-46.68379011121562 50.4,-51.68107744454323 50.8,-56.6615671243881 51.2,-61.57549574420031 51.6,-66.37376495353936 52,-71.00843203256257 52.4,-75.43318891983355 52.8,-79.60382490716492 53.2,-83.47866837840023 53.6,-87.01900317842772 54,-90.18945545220474 54.4,-92.95834708862382 54.8,-95.29801223772782 55.2,-97.18507373873733 55.6,-98.60067669691385 56,-99.53067687543542 56.4,-99.96578201993542 56.8,-99.90164470363668 57.2,-99.33890576540261 57.6,-98.28318790668736 58,-96.74503951136127 58.4,-94.73982924974618 58.8,-92.2875925199417 59.2,-89.41283126075038 59.6,-86.14426913640438 60,-82.51456453920714 60.4,-78.55998427767301 60.8,-74.32004121056485 61.2,-69.83709944747025 61.6,-65.15595106062268 62,-60.32336853732155 62.4,-55.38763744470025 62.8,-50.39807397630048 63.2,-45.404532200968006 63.6,-40.45690593747668 64,-35.6046302319834 64.4,-30.89618741938829 64.8,-26.378622703870775 65.2,-22.097074098759627 65.6,-18.094321422425633 66,-14.410358856476297 66.4,-11.08199533711463 66.8,-8.142486772415483 67.2,-5.621203760284772 67.6,-3.543338127154541 68,-1.9296512195798132 68.4,-0.7962664637271795 68.8,-0.15450826542995513 69.2,-0.010788860468418213 69.6,-0.3665442456296336 70,-1.2182198307021967 70.4,-2.5573059547665773 70.8,-4.370422911914063 71.2,-6.6394546368457625 71.6,-9.341729714608148 72,-12.450247905877799 72.4,-15.933949924426967 72.8,-19.75802777124493 73.2,-23.884272524558643 73.6,-28.27145611074787 74,-32.87574324162981 74.4,-37.651129402167506 74.8,-42.549900512377484 75.2,-47.523109670645304 75.6,-52.52106621498559 76,-57.493832215712416 76.4,-62.391721438724254 76.8,-67.16579579393152 77.2,-71.76835430847649 77.6,-76.15340973908505 78,-80.27714806140153 78.4,-84.09836624523578 78.8,-87.57888394162165 79.2,-90.68392496824326 79.6,-93.3824647815525 80,-95.64754046375364 80.4,-97.45652012736448 80.8,-98.79132904555539 81.2,-99.63863024884506 81.6,-99.98995778369067 82,-99.84180130149753 82.4,-99.19564113286167 82.8,-98.05793349659598 83.2,-96.44004599132582 83.6,-94.35814401420146 84,-91.83302924159287 84.4,-88.88993178561607 84.8,-85.55825810319261 85.2,-81.87129717645216 85.6,-77.86588790022769 86,-73.58205099999469 86.4,-69.06258915801222 86.8,-64.35265934307009 87.2,-59.49932161698304 87.6,-54.551068926010345 88,-49.55734257536495 88.4,-44.568038228036244 88.8,-39.63300736381816 89.2,-34.801559179801295 89.6,-30.121967909176252 90,-25.640990481051578 90.4,-21.403399340675048 90.8,-17.45153509796005 91.2,-13.824883474106876 91.6,-10.559680773329678 92,-7.688551821681882 92.4,-5.2401839905794265 92.8,-3.2390405620679426 93.2,-1.7051162997949072 93.6,-0.6537376679411158 94,-0.09540969425641115 94.4,-0.03571100729519992 94.8,-0.4752380966038116 95.2,-1.4095993527942499 95.6,-2.829458947053358 96,-4.720630111658588 96.4,-7.064216889471219 96.8,-9.83680293609405 97.2,-13.010685488244503 97.6,-16.554152160607362 98,-20.431797805506974 98.4,-24.60487826943862 98.8,-29.03169751184352 99.2,-33.668024218163794 99.6,-38.467533744515386 100,-43.38227097821826 100.4,-48.36312948942921 100.8,-53.36034218635699 101.2,-58.323978571593116 101.6,-63.20444363113601 102,-67.95297337137833 102.4,-72.52212205281067 102.8,-76.8662362521677 103.2,-80.94191101634301 103.6,-84.70842355033163 104,-88.12814010593775 104.4,-91.16689200574557 104.8,-93.79431704524997 105.2,-95.98416286196769 105.6,-97.71454924036465 106,-98.96818673173777 106.4,-99.73254940467064 106.8,-99.99999999999999 107.2,-99.76786623978475 107.6,-99.03846752782377 108,-97.81909177493976 108.4,-96.12192258058352 108.8,-93.96391749833559 109.2,-91.36663860163601 109.6,-88.35603704267452 110,-84.96219375705549 110.4,-81.21901890503348 110.8,-77.16391305240097 111.2,-72.83739347639737 111.6,-68.2826893304692 112,-63.54530971285724 112.4,-58.67258895473132 112.8,-53.71321367119946 113.2,-48.71673630074289 113.6,-43.73307999363169 114,-38.81203979630844 114.4,-34.002785115745326 114.8,-29.353368434982503 115.2,-24.91024518860097 115.6,-20.717809595377624 116,-16.817951085924694 116.4,-13.249635757346962 116.8,-10.048517036879456 117.2,-7.246579444627692 117.6,-4.871819014816227 118,-2.9479635686681345 118.4,-1.4942356338593685 118.8,-0.5251603793759801 119.2,-0.0504204848270241 119.6,-0.0747593943107212 120,-0.5979339214888733 120.4,-1.6147166794244434 120.8,-3.114948310903767 121.2,-5.08363899737585 121.6,-7.5011182322639485 122,-10.34323136216562 122.4,-13.581580932164503 122.8,-17.18381042381308 123.2,-21.113927550769812 123.6,-25.332663881825873 124,-29.79786719809046 124.4,-34.46492266402731 124.8,-39.28719860414402 125.2,-44.21651243127977 125.6,-49.20361207108801 126,-54.198668072484075 126.4,-59.15177148704784 126.8,-64.01343254273911 127.2,-68.73507512934124 127.6,-73.26952215489612 128,-77.5714669236136 128.4,-81.5979258253984 128.8,-85.30866781387422 129.2,-88.6666163817002 129.6,-91.63822001677734 130,-94.19378743786524 130.4,-96.30778426005068 130.8,-97.95908812588081 131.2,-99.13119975297667 131.6,-99.8124077894091 132,-99.9959058296554 132.4,-99.67986042195379 132.8,-98.86742938754733 133.2,-97.56673026877792 133.6,-95.79075922128615 134,-93.55726116072066 134.4,-90.8885524614063 134.8,-87.81129797850885 135.2,-84.35624462161657 135.6,-80.5579141417822 136,-76.45425820159944 136.4,-72.08627917473422 136.8,-67.49762046376111 137.2,-62.73413042971158 137.6,-57.84340429040473 138,-52.87430856476572 138.4,-47.87649281472048 138.8,-42.899893563185216 139.2,-37.994235344836625 139.6,-33.20853387499673 140,-28.59060630080995 140.4,-24.186593428113653 140.8,-20.04049869775871 141.2,-16.193748517774395 141.6,-12.684778344392015 142,-9.548648647672962 142.4,-6.816694598880209 142.8,-4.5162129798053465 143.2,-2.6701894423481685 143.6,-1.297068843480433 144,-0.4105709503328467 144.4,-0.019553356816507182 144.8,-0.12792298147258685 145.2,-0.7345970308336968 145.6,-1.8335138183384954 146,-3.4136933306998007 146.4,-5.459346936567991 146.8,-7.950035141316411 147.2,-10.860871811715057 147.6,-14.162772829948395 148,-17.822746692505397 148.4,-21.804224150377912 148.8,-26.067423596908338 149.2,-30.569748552453 149.6,-35.266213274327484 150,-40.109892239475336 150.4,-45.05238900878421 150.8,-50.04431978830738 151.2,-55.0358068558084 151.6,-59.9769769224758 152,-64.81845945033673 152.4,-69.51187994635416 152.8,-74.01034330437041 153.2,-78.26890236550618 153.6,-82.2450070153157 154,-85.89892933046319 154.4,-89.19416052700181 154.8,-92.09777574407441 155.2,-94.58076301823938 155.6,-96.61831316142009 156,-98.19006764611022 156.4,-99.28032202105172 156.8,-99.8781828249203 157.2,-99.9776764301903 157.6,-99.57780872964604 158,-98.68257506917266 158.4,-97.3009203275807 158.8,-95.44664954233382 159.2,-93.13828997417794 159.6,-90.39890598887553 160,-87.25586860568795 160.4,-83.74058201519793 160.8,-79.88816979901846 161.2,-75.7371239865757 161.6,-71.32892045547369 162,-66.7076045182371 162.4,-61.9193508361069 162.8,-57.01200205708867 163.2,-52.03459078802891 163.6,-47.036849677013905 164,-42.06871450119174 164.4,-37.17982522499205 164.8,-32.41903001401073 165.2,-27.83389716028651 165.6,-23.47023979564978 166,-19.371658142054955 166.4,-15.579103872573793 166.8,-12.13047093581519 167.2,-9.06021693211695 167.6,-6.399018824592546 168,-4.173466425057468 168.4,-2.405796717418048 168.8,-1.1136716730791034 169.2,-0.3100017783639643 169.6,-0.002817037202549067 170,-0.19518673798684763 170.4,-0.8851887862555952 170.8,-2.0659289096268423 171.2,-3.725609543088518 171.6,-5.847647706368787 172,-8.41084069559261 172.4,-11.389577933690616 172.8,-14.75409686281934 173.2,-18.470780322000753 173.6,-22.502492438683447 174,-26.808949678104113 174.4,-31.34712334305197 174.8,-36.07166950238761 175.2,-40.935382052613924 175.6,-45.889664385659366 176,-50.88501495011981 176.4,-55.87152185439852 176.8,-60.79936156982797 177.2,-65.6192967508985 177.6,-70.28316819854027 178,-74.74437605091903 178.4,-78.95834539385307 178.8,-82.88297163862084 179.2,-86.47904121709333 179.6,-89.71062339074554 180,-92.5454292587171 180.4,-94.95513437783747 180.8,-96.915661771099 181.2,-98.40742249685235 181.6,-99.4155113750365 182,-99.92985591481045 182.4,-99.94531695555239 182.8,-99.46174001565406 183.2,-98.48395683604964 183.6,-97.02173710305753 184,-95.08969083290422 184.4,-92.70712239327149 184.8,-89.89783762043577 185.2,-86.68990595922135 185.6,-83.11538000238545 186,-79.20997523170776 186.4,-75.01271316070174 186.8,-70.5655314445505 187.2,-65.91286485291933 187.6,-61.10120129242405 188,-56.17861731483694 188.4,-51.194297752072146 188.8,-46.19804427760381 189.2,-41.23977780460736 189.6,-36.36903969269527 190,-31.634496747030173 190.4,-27.083454955693337 190.8,-22.76138682388939 191.2,-18.71147702770582 191.6,-14.974190927103326 192,-11.586870249416895 192.4,-8.583359983158624 192.8,-5.993670210080465 193.2,-3.8436762543575274 193.6,-2.154860144901584 194,-0.9440959740300957 194.4,-0.22348129711299344 194.8,-0.0002162577984843781 195.2,-0.27653164655775725 195.6,-1.049666611364088 196,-2.311896243213573 196.4,-4.050608760862416 196.8,-6.248431523576214 197.2,-8.88340461281334 197.6,-11.92920024847281 198,-15.355385847369128 198.4,-19.127728095544498 198.8,-23.2085349962257 199.2,-27.557032475796248 199.6,-32.129771784863024 200,-36.881063623796194"
                stroke="lightgray"
                stroke-width="0.5"
                fill="none"/>
      <g id="regression">
         <g>
            <line x1="0"
                  y1="-46.44173224989915"
                  x2="200"
                  y2="-53.368836430436616"
                  class="regression"/>
         </g>
      </g>
      <g id="rectangular">
         <g>
            <path d="M0,-65.8867246964013 Q2.0738360053015565,-62.49891550494033 4,-61.32521226338822 C5.273836005301557,-60.54900346042889 6.484558846251046,-61.4449786439023 8,-61.0119445851227 C9.684558846251045,-60.53058550849964 10.405653196138562,-59.83957772848924 12,-59.03922942488155 C13.605653196138562,-58.23320541015692 15.052402361635423,-58.4105409312594 16,-56.9960137892919 C18.252402361635422,-53.63373834012158 18.23581854358322,-50.98120321673718 20,-47.09722294703701 C21.43581854358322,-43.93615871871571 21.851356356897163,-41.8422920312401 24,-39.38340254423823 C25.051356356897163,-38.18023928291036 26.714842698285505,-37.384476488638505 28,-37.942091076212655 C29.914842698285504,-38.772918726687344 30.21011885277424,-41.08763324162102 32,-42.85450813936031 C33.41011885277424,-44.246502019879955 34.50154123848929,-44.52821112503824 36,-45.83926302185998 C37.70154123848929,-47.3279985984018 38.22285611435463,-49.43798298831921 40,-49.853976822769226 C41.42285611435463,-50.18703897697183 42.48167155665992,-48.69588285528334 44,-47.71190299349153 C45.68167155665992,-46.62206571015558 46.6970941375301,-46.16288110447391 48,-44.669433959949835 C49.8970941375301,-42.494902472911456 50.320179559529,-40.936748661875896 52,-38.54195641458538 C53.520179559529005,-36.374752030151996 54.272754379982246,-35.2643157335473 56,-33.26444238064008 C57.47275437998225,-31.55922905963387 58.138167459520474,-30.047228961224324 60,-29.279239729801812 C61.33816745952048,-28.72725764956217 62.74478876903868,-29.095801102007 64,-29.964514101484696 C65.94478876903868,-31.310473445401833 66.61608054365198,-32.72822488408893 68,-34.81592058828888 C69.81608054365198,-37.55554790696854 69.85479858418964,-40.27959647235223 72,-42.03282165868371 C73.05479858418964,-42.894884973894364 74.74331984694456,-40.70148218545251 76,-41.3541418421442 C77.94331984694455,-42.363409364246166 78.24450240264578,-44.41082266184471 80,-46.18763960566785 C81.44450240264578,-47.649684525742074 82.88551556993306,-47.77160930627438 84,-49.451296501887605 C86.08551556993307,-52.59446629821954 85.90111504838693,-56.75422408818593 88,-58.244782085530744 C89.10111504838692,-59.02675721956963 90.55887350017653,-54.84332820623635 92,-55.132629330346866 C93.75887350017653,-55.48571705778203 94.4031285211469,-57.9608607895289 96,-59.850754214394954 C97.6031285211469,-61.748052833258605 98.7963902008224,-62.45797910199463 100,-64.60060943967113 C101.9963902008224,-68.15452385034217 102.25417578475928,-73.6770963056902 104,-74.09211608526381 C105.45417578475929,-74.43780479113897 106.99449995154939,-69.7553923993066 108,-66.50238065329305 C110.19449995154937,-59.40269514853705 110.58816037317256,-55.563828068338424 112,-48.210372958339946 C113.78816037317254,-38.896880983936356 113.42823519566696,-33.69664842278095 116,-24.83501294228789 C116.62823519566696,-22.670277158270277 119.10107071875771,-19.510773110881807 120,-20.644444797063258 C122.30107071875771,-23.546406915987387 122.92322660027949,-29.103353031327227 124,-34.92409745505184 C126.1232266002795,-46.40168354427778 125.57499568976698,-52.54978802163059 128,-63.89027107943963 C128.77499568976697,-67.5145225715258 130.29727617661283,-72.06616734292831 132,-72.33593382978988 C133.49727617661281,-72.57315076918928 135.08583655809502,-68.28103689290901 136,-65.15772964509205 C138.285836558095,-57.34799939122663 137.6123617432312,-52.7297346932854 140,-45.00334007558391 C140.81236174323118,-42.37453842075445 142.4233128758038,-39.22040075932858 144,-39.26973896376466 C145.62331287580378,-39.32053619632972 146.37973544191163,-42.87390310288811 148,-45.25367866808676 C149.57973544191162,-47.573926793846574 150.0170148538802,-49.19471464684877 152,-51.01979819116082 C153.2170148538802,-52.13990430357738 155.0475941474748,-53.53894176728195 156,-52.61665280990828 C158.24759414747479,-50.440131889360075 157.8145800273082,-46.50911411035683 160,-43.27277349635614 C161.01458002730823,-41.77030413597631 162.5237432770443,-41.930741706090615 164,-40.76962787395697 C165.7237432770443,-39.41385951002617 166.44144241560863,-36.89977561160588 168,-36.980568006195035 C169.64144241560862,-37.06565697863041 170.10600271056336,-40.21286271915383 172,-41.184331291518276 C173.30600271056335,-41.854205845094036 175.13907767837716,-40.00689546410325 176,-41.08392582104555 C178.33907767837718,-44.0101569148213 178.25895707693223,-47.21131933780552 180,-51.192484918313404 C181.45895707693225,-54.52861731411131 182.63711047574057,-56.00494587910697 184,-59.37717076181002 C185.8371104757406,-63.92277005529138 185.59332336276537,-67.30783348220915 188,-70.98704535877442 C188.7933233627654,-72.19984008702546 190.39261948693397,-71.54117540216808 192,-71.6071872738508 C193.59261948693398,-71.6725929399991 194.40259145604537,-71.46075418631398 196,-71.31558920335198 Q197.60259145604536,-71.16995322169137 200,-70.8801848622943"
                  class="spline"
                  fill="none"/>
         </g>
      </g>
      <g id="gaussian">
         <g>
            <path d="M0,-65.9183375358306 Q3.1974675135336628,-67.07166542851398 4,-65.70868941080455 C6.797467513533663,-60.95762799513995 6.143480596929253,-52.538104874738465 8,-52.33158768388832 C9.743480596929253,-52.13764480638109 9.555341875719588,-62.449207758152454 12,-64.81877814778817 C13.15534187571959,-65.93863366927019 14.922401353231052,-62.60148573301638 16,-60.085867486372194 C18.522401353231054,-54.197405313025975 18.014850913710525,-52.35747158427671 20,-46.14304388114283 C21.614850913710523,-41.087819402586774 21.37826626425873,-38.07718272916272 24,-35.04219597150567 C24.97826626425873,-33.90972965083699 26.53294512096941,-35.62816890038178 28,-36.88203704041897 C30.132945120969406,-38.70503082876214 30.489491997155266,-39.44442740506271 32,-41.87966692346201 C34.089491997155264,-45.24834386874703 33.786014504681155,-48.655458261191995 36,-49.77962918193966 C37.38601450468116,-50.4833904329467 38.60684048786865,-45.24877876364605 40,-45.94173841625024 C42.206840487868654,-47.03942421928278 42.39850216908803,-54.236205690205495 44,-53.75884130557684 C45.998502169088034,-53.16314036879662 45.91524477610956,-48.010384025030945 48,-43.55714881311941 C49.51524477610956,-40.320442021689054 49.644682782793474,-39.08321987992523 52,-36.67008129815041 C53.244682782793475,-35.39484243720745 54.81232846738033,-36.67677329738542 56,-35.360754495968784 C58.412328467380334,-32.68773461541085 57.745320269569916,-30.826947827857474 60,-27.80555089376248 C61.34532026956991,-26.002746494097686 63.00295485226232,-23.451771719215177 64,-24.640307087613696 C66.60295485226231,-27.743179521502977 65.58593681500241,-31.947089994415084 68,-37.34201267662426 C69.18593681500242,-39.99233163376036 70.03860439838861,-40.336362539321364 72,-42.51862184171431 C73.63860439838862,-44.34174191417078 74.84408771473416,-47.271248431600654 76,-46.24285573184518 C78.44408771473417,-44.068398382932585 78.7480739138552,-33.76425781412414 80,-35.40117728911859 C82.34807391385519,-38.47133291639851 80.96226015162752,-48.73060846987464 84,-56.703022625788215 C84.56226015162751,-58.178649577366365 86.63348408477924,-55.56167071195392 88,-56.39682419465575 C90.23348408477925,-57.761829893591326 90.88470944715047,-62.82661654636207 92,-61.59226525164912 C94.48470944715046,-58.84230532843488 94.60079246063255,-46.04284138978257 96,-47.542799265928686 C98.20079246063254,-49.90206041355022 97.26272733580319,-60.361283863989726 100,-70.16830752668832 C100.86272733580319,-73.25926280759431 101.68272435735341,-74.5324088985177 104,-76.20497469616112 C105.2827243573534,-77.1308209133436 107.5584554592531,-77.52418839550344 108,-75.94255644852366 C111.15845545925309,-64.6288302069601 110.13661378593346,-60.31663071298041 112,-47.5486231660648 C113.73661378593346,-35.649266093712626 113.74192646195608,-32.92227031251477 116,-21.126190627928562 C117.34192646195609,-14.116024125644767 118.7337537823898,-3.6002262549544777 120,-5.756964973020345 C122.3337537823898,-9.73194003783212 122.21559031301508,-21.702224002708892 124,-34.752221256545546 C125.81559031301508,-48.03025307387647 126.1659097462791,-50.98824401167494 128,-64.26369624228164 C129.7659097462791,-77.04564654856055 130.31009163870172,-93.45364157419834 132,-92.65756022740248 C133.91009163870172,-91.75775503141367 133.71736875637308,-74.88552525049798 136,-60.49505948053791 C137.3173687563731,-52.18992914118456 137.71410595195047,-50.295955758804645 140,-42.22290220670599 C141.31410595195047,-37.58189632444301 142.2735283164984,-32.02997629224097 144,-32.24159407084537 C145.87352831649844,-32.471236933962444 146.56138785397843,-38.16277445749295 148,-43.20348141053148 C150.16138785397843,-50.776698982683534 149.80610485838395,-58.47109522555813 152,-60.27253746015777 C153.40610485838397,-61.42711254905776 153.4270743990883,-53.80208432825997 156,-49.77240879608621 C157.02707439908832,-48.16382105679764 159.2063607892654,-49.46695760119606 160,-47.74306352357479 C162.8063607892654,-41.64725994072861 161.82628689740244,-33.95502899198641 164,-32.39530288393632 C165.42628689740246,-31.371884978054442 165.80821583789896,-40.838501389164556 168,-42.00274349261486 C169.40821583789895,-42.75076612986937 170.47461704493597,-36.10918145480201 172,-36.644780085502575 C174.07461704493596,-37.37322801053469 173.67099170510252,-43.289303332885815 176,-44.811735838687476 C177.27099170510252,-45.64256116923338 179.40664674139165,-40.25070580055957 180,-41.87424194405272 C183.00664674139165,-50.10104374305858 180.9973222187605,-56.255293016639136 184,-66.7013757109075 C184.5973222187605,-68.7794132983173 186.60493161521472,-67.9924050022372 188,-69.70562034778197 C190.20493161521472,-72.41338917134689 190.2960825280935,-76.74224897869296 192,-76.52578497559568 C193.8960825280935,-76.28490851238607 193.525381715856,-71.14376397824762 196,-68.68930820043333 Q197.12538171585604,-67.57309578398588 200,-68.59096676612513"
                  class="spline"
                  fill="none"/>
         </g>
      </g>
      <g id="exponential">
         <g>
            <path d="M0,-71.06529228684988 Q1.3630990349289784,-63.85578018862924 4,-59.23243335459959 C4.9630990349289785,-57.54380684454939 6.295293358104022,-56.84158575739086 8,-57.03868485556133 C9.895293358104022,-57.25781969229506 10.319947275370867,-58.621474534734695 12,-60.15739765438669 C13.919947275370866,-61.912635073739665 15.04909689368042,-65.71331992642078 16,-64.35237494223902 C18.649096893680422,-60.56095276041454 18.460709308007416,-55.805609610217566 20,-48.70769284103947 C22.060709308007418,-39.20543103318483 21.691700427111467,-30.298808499694434 24,-27.4630892154996 C25.29170042711147,-25.876250204833816 25.90967786048431,-33.867172262050524 28,-38.87978551912698 C29.50967786048431,-42.50000802661658 29.86224888813188,-45.75803574478604 32,-46.647168692313045 C33.46224888813188,-47.25534691133248 34.683865066163634,-41.36354872131295 36,-42.207143667007955 C38.283865066163635,-43.67101866715636 37.41463202415304,-48.44029862433304 40,-51.77487968307618 C41.014632024153045,-53.083541645683866 42.95624360011986,-53.6186500003014 44,-52.52546149223201 C46.55624360011986,-49.8481546725585 45.92532171994386,-47.355917209879735 48,-43.39600117698084 C49.52532171994386,-40.48463607898061 49.935042739619874,-39.79534625580942 52,-37.25594786801172 C53.535042739619875,-35.36821627521657 54.119572015320244,-35.12505944685182 56,-33.557934553441164 C57.719572015320246,-32.12486498992921 58.717206761557335,-32.357444328776396 60,-30.58884907485035 C62.31720676155734,-27.394101271353236 62.38403285599537,-22.0762264110266 64,-22.528283314723044 C65.98403285599537,-23.083304345342903 66.66240613866533,-28.052917829543397 68,-32.82680003999769 C70.26240613866533,-40.90134398820349 69.61980543365327,-48.23828519177713 72,-51.080341445078815 C73.21980543365326,-52.53684240073246 74.14124365923496,-46.266554734478646 76,-42.37914939323176 C77.74124365923497,-38.737510221452915 78.87846080474357,-32.7527139081814 80,-34.34913141613275 C82.47846080474358,-37.877013667772815 81.80039144932385,-45.13618490725396 84,-53.76648219232379 C85.40039144932386,-59.261002805739125 86.20773354270615,-65.7633322393328 88,-65.73761563498867 C89.80773354270616,-65.71167709884736 89.38416908442547,-58.46501538716344 92,-53.65169299124505 C92.98416908442547,-51.84074907004929 95.13321049621752,-49.724504626887246 96,-51.01702381917945 C98.73321049621751,-55.092669644976304 98.2734841049468,-59.00784637486818 100,-65.58094858699852 C101.8734841049468,-72.71358058297405 101.39162533934443,-77.84979487409957 104,-81.47421094830361 C104.99162533934444,-82.85210457444575 107.35562130475324,-79.36120688529093 108,-76.69719236554556 C110.95562130475324,-64.47795214420944 110.23318120330937,-61.138511809222486 112,-48.40031152367807 C113.83318120330938,-35.18365944187484 113.62046857502278,-32.123082538007786 116,-19.019742660328554 C117.22046857502279,-12.299001601528008 118.58291692735197,-2.8569984429186057 120,-4.346798331500786 C122.18291692735197,-6.641730405649456 122.78104784344505,-16.967002358369093 124,-27.430258133063777 C126.38104784344506,-47.86872445331902 125.44581864471931,-52.61813294163801 128,-73.01729187583396 C129.0458186447193,-81.36980008981324 130.41146227377453,-92.33175105763917 132,-91.32285179567539 C134.01146227377453,-90.04534810786491 134.5602239091442,-78.51143268980711 136,-67.9363964318912 C138.16022390914424,-52.0697305596729 136.76368903102687,-46.84877601379407 140,-32.5635137287105 C140.36368903102687,-30.958169480819716 143.25198445220434,-31.242047918256883 144,-32.62393746972595 C146.85198445220433,-37.89271500659347 145.6297868661482,-40.95878383208674 148,-47.34277392501403 C149.2297868661482,-50.655111983466924 149.9488066744569,-51.28226307050559 152,-54.1713333616819 C153.5488066744569,-56.3528007515313 155.03664418456262,-59.985675576325725 156,-58.61063543840449 C158.6366441845626,-54.847237195415595 157.89053860369842,-49.79288805418139 160,-42.752581404103836 C161.49053860369844,-37.777923483265006 162.09433730646526,-32.23890404529435 164,-31.91071416970142 C165.69433730646526,-31.618918380390006 165.40886145174147,-38.2897553426473 168,-41.3748354820942 C169.00886145174147,-42.57601340842043 170.5301583955826,-42.19561295758481 172,-41.43573209364171 C174.13015839558258,-40.33447968854836 174.76043808200484,-36.29485271029724 176,-37.23898377312432 C178.36043808200483,-39.036847101085485 178.45764682541443,-42.812312931074366 180,-47.529052962060035 C182.05764682541442,-53.82163582244847 182.11506005251863,-55.350614852566224 184,-61.704145753955665 C185.71506005251865,-67.48506575407333 185.25567557797703,-69.69243250406491 188,-74.49449940985362 C188.85567557797702,-75.99177551253322 190.80292726714697,-76.62506083283849 192,-75.70268577277413 C194.40292726714696,-73.85116905074294 193.59254231177758,-70.88703635578014 196,-68.33029544964128 Q197.1925423117776,-67.06380519075144 200,-67.2066165171548"
                  class="spline"
                  fill="none"/>
         </g>
      </g>
      <g id="parabolicUp">
         <g>
            <path d="M0,-72.15773945111354 Q1.1723909898680325,-63.10032314437853 4,-58.05814664722283 C4.772390989868034,-56.68082337453115 6.252623407278022,-57.61827419520424 8,-57.89218440700826 C9.852623407278022,-58.1825925949136 10.647926207133892,-58.08960834885697 12,-59.31218753546585 C14.24792620713389,-61.344819044467144 14.91912325762029,-66.49592531967285 16,-65.12598595280865 C18.51912325762029,-61.933164805598786 18.515120907430898,-56.418401521112884 20,-49.17271972641237 C22.115120907430903,-38.85168205455266 21.73131209707182,-28.905038601868903 24,-26.088831582674818 C25.33131209707182,-24.436224158060558 25.841967886364763,-33.46313754404061 28,-39.24202096239382 C29.441967886364765,-43.10339274442637 30.051262193548695,-47.123806102173624 32,-47.5116209168654 C33.651262193548696,-47.8402356435252 34.62848971391451,-39.92187202363935 36,-40.83408660984177 C38.22848971391451,-42.31629264421063 37.2707337151743,-48.92024241533875 40,-52.832555629246 C40.8707337151743,-54.08072369500457 42.94924894508344,-53.545094294042315 44,-52.30182278687693 C46.549248945083434,-49.28549597638868 45.927466891315426,-47.237145075024074 48,-43.3667815900157 C49.52746689131543,-40.514305045282136 49.996665144259985,-39.90033784863595 52,-37.36217827633929 C53.59666514425999,-35.33925589367106 53.987369505370125,-34.8081050501379 56,-33.23104391231594 C57.58736950537013,-31.987209654133704 58.86117897645314,-32.67160273828473 60,-31.093521840774414 C62.46117897645314,-27.683030246583293 62.27408751900933,-21.94801846696762 64,-22.14532726409052 C65.87408751900934,-22.359575644672663 66.78949500256195,-27.39494338712612 68,-32.00809334678562 C70.38949500256196,-41.11429183254559 69.68500636323752,-49.83438031020502 72,-52.63276825391157 C73.28500636323751,-54.186097065432186 73.91957199514192,-46.48290630839378 76,-41.67857502506821 C77.51957199514193,-38.1694282261989 78.90517690821959,-32.57697607051021 80,-34.15837251570073 C82.50517690821958,-37.77692777542702 81.95079474808456,-44.71113971088885 84,-53.234023258216666 C85.55079474808456,-59.683959413405525 86.25823219066348,-67.65384421884667 88,-67.43130518796 C89.85823219066347,-67.19388594720014 89.13538225206955,-57.86390223117273 92,-52.21189376566883 C92.73538225206954,-50.76095438044679 95.18016728541836,-50.36216898473379 96,-51.64697663079126 C98.78016728541836,-56.003938876982104 98.45044092672818,-58.786716049453354 100,-64.7491601928873 C102.05044092672817,-72.63891393374583 101.3902521933141,-78.48733263197278 104,-82.42963859588563 C104.99025219331409,-83.92552149977335 107.30128377904191,-79.79264187770885 108,-76.83402434355526 C110.90128377904192,-64.54893806280651 110.24971243640586,-61.287257713633366 112,-48.55474122943602 C113.84971243640585,-35.098955690287 113.59973720411499,-31.978349307840148 116,-18.63779762500779 C117.199737204115,-11.969712694994271 118.55008481591419,-2.738183264206475 120,-4.0911043120007395 C122.1500848159142,-6.097356149295123 122.86626002926376,-16.10964294577372 124,-26.102626258538116 C126.46626002926375,-47.84067550572661 125.33014872001601,-52.9192391103234 128,-74.60451000078491 C128.930148720016,-82.15943529313456 130.4394957504041,-92.11834839000447 132,-91.08083999811849 C134.0394957504041,-89.72487191484801 134.6888096342427,-79.16365457616664 136,-69.28567338932612 C138.2888096342427,-52.04270158465563 136.76920102658573,-45.58989513379753 140,-30.8120555725385 C140.36920102658573,-29.123311214987222 143.21731496093122,-31.002541477524453 144,-32.69326468085877 C146.81731496093124,-38.77910960925379 145.43049257300174,-41.5501358098318 148,-48.093318087492584 C149.03049257300177,-50.71743999898404 150.4235921581121,-50.67681735092298 152,-53.06505176786374 C154.02359215811208,-56.130763767917585 154.90732273038927,-61.745317454076776 156,-60.21319901414726 C158.50732273038926,-56.69750824531452 157.71317919829428,-49.96315372925728 160,-41.847697970614284 C161.31317919829428,-37.18749561502157 162.15358634578664,-31.958262686870594 164,-31.822847649179018 C165.75358634578663,-31.694240519044197 165.43456889066536,-37.89975782321963 168,-41.26098204211118 C169.03456889066535,-42.61647274258766 170.7295383020258,-43.16122042808435 172,-42.30443635888575 C174.32953830202578,-40.73342378216176 174.69336841297812,-34.845079418335786 176,-35.86587838450542 C178.29336841297814,-37.65756023902881 178.17088107605446,-42.8539079366107 180,-48.55439373820359 C181.77088107605445,-54.07338011913425 182.34302406777863,-55.245422536524664 184,-60.7980387901133 C185.94302406777865,-67.30921786644298 185.15444198075792,-70.11440905836194 188,-75.36282780468873 C188.75444198075792,-76.75433956022147 190.82968008462964,-76.59175200740177 192,-75.55343990535668 C194.42968008462964,-73.39781886290821 193.6281504206453,-70.89779609207751 196,-68.26519859470304 Q197.22815042064533,-66.90203216461687 200,-66.6739645109997"
                  class="spline"
                  fill="none"/>
         </g>
      </g>
      <g id="parabolicDown">
         <g>
            <path d="M0,-66.06724084331836 Q3.0965015140745926,-66.30052456856177 4,-64.82203808171303 C6.696501514074592,-60.40947833487179 6.1552986075545055,-53.12393520856429 8,-52.976026990673944 C9.755298607554506,-52.83528709099586 9.51267714331567,-61.788427642279245 12,-64.18059782044985 C13.11267714331567,-65.25070943584342 15.04448476828163,-62.7824435421911 16,-60.669986531927655 C18.64448476828163,-54.823548712987716 18.095606284799047,-52.84184976408967 20,-46.49416486666453 C21.695606284799048,-40.84240582120774 21.406852482499865,-37.03160797511449 24,-34.00455554774558 C25.006852482499866,-32.829228949245014 26.445649768652718,-35.49864232747209 28,-37.1555448091768 C30.04564976865272,-39.336161577536316 30.287602810135255,-40.052107809886486 32,-42.53237610344386 C33.887602810135256,-45.26641551236047 33.75777138473801,-47.56349251569974 36,-48.74289525911898 C37.35777138473801,-49.457077249838534 38.70186506417963,-45.9538206437538 40,-46.74034217930784 C42.30186506417962,-48.135009555525244 42.47731889041079,-54.200054530960124 44,-53.5899817297222 C46.077318890410794,-52.757689435192276 45.91646745157699,-47.92084184613726 48,-43.53508641093485 C49.51646745157699,-40.34298107372989 49.67549510099896,-39.197167377168924 52,-36.75029112437248 C53.27549510099896,-35.40764879458699 54.73724948469837,-36.46565861873807 56,-35.11393400519722 C58.33724948469837,-32.61200063184376 57.87332218740558,-31.04772735814669 60,-28.1866067090518 C61.47332218740558,-26.204476407888183 62.924223443050636,-23.203134161883654 64,-24.35115411573387 C66.52422344305064,-27.044890897669557 65.7747762361526,-31.344466776344582 68,-36.72384389968714 C69.37477623615261,-40.04730285003005 69.6893039892848,-41.094133787974975 72,-43.69078983503491 C73.2893039892848,-45.13965155667637 74.97073371851202,-46.798941824715016 76,-45.71388338569023 C78.57073371851203,-43.00380110093443 78.7642849253246,-33.62181338397494 80,-35.25714378218917 C82.3642849253246,-38.38600988381749 80.99362544518384,-47.87618212365039 84,-56.30098671867369 C84.59362544518383,-57.96451143494557 86.33209689154974,-56.79913888393182 88,-57.67565336284512 C89.93209689154973,-58.69100664777319 91.02069777953693,-61.68730258354001 92,-60.50513730498787 C94.62069777953694,-57.34156036641795 94.65144610241151,-46.49540446883052 96,-48.0184484359072 C98.2514461024115,-50.56121028592153 97.39830979661691,-60.139077562765785 100,-69.5402613429679 C100.99830979661691,-73.14764467222348 101.58000988160506,-74.9584361123542 104,-76.92637534581318 C105.18000988160507,-77.88596097561737 107.54987349716839,-77.69227449621023 108,-76.04587215021935 C111.14987349716839,-64.52475734651593 110.15040117267903,-60.42932407495382 112,-47.66522612427028 C113.75040117267902,-35.585692070160036 113.7245491515785,-32.81273777932664 116,-20.837801028455385 C117.32454915157851,-13.867141862349463 118.71568390816802,-3.49101812791391 120,-5.563901864321006 C122.31568390816801,-9.301411300221652 122.3041101708577,-21.052185607561277 124,-33.749785855805925 C125.90411017085769,-48.00638988909719 126.05859032172663,-51.21096296573601 128,-65.46213360106748 C129.65859032172662,-77.63723190904412 130.32028790499675,-93.30382791247523 132,-92.47482795204616 C133.92028790499674,-91.52709494352028 133.8476812527512,-75.38939945779323 136,-61.51383811450095 C137.44768125275118,-52.1809314278126 137.52062728592512,-49.95633183086008 140,-40.900454552089194 C141.12062728592514,-36.80737765446484 142.42144303976164,-31.727686077387467 144,-32.29393994473374 C146.02144303976166,-33.01906419917458 146.45524360958686,-38.52896164163446 148,-43.7701837116161 C150.05524360958685,-50.74344385321962 149.71927764348126,-57.38109152607968 152,-59.43723374825631 C153.31927764348126,-60.62660362389344 153.74856083759232,-54.46580523047115 156,-50.982432817868904 C157.34856083759232,-48.89597199013714 159.03345322523617,-49.313508440385455 160,-47.05982654751407 C162.63345322523617,-40.919445135669065 161.85789813851943,-33.70607557924953 164,-32.328958807388034 C165.45789813851943,-31.391703668254223 165.73292228365844,-40.5078624569696 168,-41.91677785641338 C169.33292228365843,-42.745145899631005 170.39710883969607,-36.92839073800647 172,-37.300699791080056 C173.99710883969607,-37.764575142948075 173.671490090609,-42.21843482239109 176,-43.774965422950274 C177.27149009060903,-44.624913806832545 179.46310467588728,-41.1557108997457 180,-42.64843086761663 C183.06310467588727,-51.164723165248446 181.117858415643,-56.0331790948634 184,-66.01721490184526 C184.717858415643,-68.50395051713322 186.38454232975974,-68.26199299754079 188,-70.36125625043846 C189.98454232975973,-72.94013953746695 190.36738263854258,-76.76433327260742 192,-76.41309610168116 C193.96738263854257,-75.98983837552647 193.5414082490497,-71.23978187192205 196,-68.64015647914746 Q197.1414082490497,-67.43327295869103 200,-67.95418740561223"
                  class="spline"
                  fill="none"/>
         </g>
      </g>
      <rect x="0"
            y="-100"
            width="200"
            height="100"
            stroke="lightgray"
            stroke-width="0.5"
            fill="none"/>
      <text x="-1"
            y="0"
            fill="lightgray"
            font-size="3"
            text-anchor="end"
            alignment-baseline="central">0.0</text>
      <text x="-1"
            y="-100"
            fill="lightgray"
            font-size="3"
            text-anchor="end"
            alignment-baseline="central">100.0</text>
      <text x="-1"
            y="-46.44173224989915"
            fill="red"
            fill-opacity="0.5"
            font-size="3"
            text-anchor="end"
            alignment-baseline="central">46.4</text>
      <text x="208"
            y="-100"
            font-size="3"
            fill="lightgray"
            text-anchor="end"
            alignment-baseline="central">100.0</text>
      <text x="208"
            y="0"
            font-size="3"
            fill="lightgray"
            text-anchor="end"
            alignment-baseline="central">0.0</text>
      <text x="208"
            y="-53.368836430436616"
            fill="red"
            fill-opacity="0.5"
            font-size="3"
            text-anchor="end"
            alignment-baseline="central">53.4</text>
      <circle cx="0" cy="-86.84243752985027" r="0.65" fill="black"/>
      <circle cx="4" cy="-39.26955932919449" r="0.65" fill="black"/>
      <circle cx="8" cy="-71.54817723015914" r="0.65" fill="black"/>
      <circle cx="12" cy="-45.788825632732554" r="0.65" fill="black"/>
      <circle cx="16" cy="-77.5037621219225" r="0.65" fill="black"/>
      <circle cx="20" cy="-56.613149892378566" r="0.65" fill="black"/>
      <circle cx="24" cy="-4.100709457478259" r="0.65" fill="black"/>
      <circle cx="28" cy="-45.03778805466333" r="0.65" fill="black"/>
      <circle cx="32" cy="-61.342856509703005" r="0.65" fill="black"/>
      <circle cx="36" cy="-18.865173695182847" r="0.65" fill="black"/>
      <circle cx="40" cy="-69.75537076796311" r="0.65" fill="black"/>
      <circle cx="44" cy="-48.723603501195655" r="0.65" fill="black"/>
      <circle cx="48" cy="-42.89926819857362" r="0.65" fill="black"/>
      <circle cx="52" cy="-39.061864809580435" r="0.65" fill="black"/>
      <circle cx="56" cy="-28.000793654312385" r="0.65" fill="black"/>
      <circle cx="60" cy="-39.16828609555945" r="0.65" fill="black"/>
      <circle cx="64" cy="-16.01803045397011" r="0.65" fill="black"/>
      <circle cx="68" cy="-18.90878625539251" r="0.65" fill="black"/>
      <circle cx="72" cy="-77.47159719523563" r="0.65" fill="black"/>
      <circle cx="76" cy="-30.4693851344515" r="0.65" fill="black"/>
      <circle cx="80" cy="-31.1062301087884" r="0.65" fill="black"/>
      <circle cx="84" cy="-44.7146803125027" r="0.65" fill="black"/>
      <circle cx="88" cy="-94.53033803550136" r="0.65" fill="black"/>
      <circle cx="92" cy="-29.175106156449267" r="0.65" fill="black"/>
      <circle cx="96" cy="-61.726221616580325" r="0.65" fill="black"/>
      <circle cx="100" cy="-51.440545887107874" r="0.65" fill="black"/>
      <circle cx="104" cy="-97.71648095719799" r="0.65" fill="black"/>
      <circle cx="108" cy="-79.0233359917106" r="0.65" fill="black"/>
      <circle cx="112" cy="-51.025616521563045" r="0.65" fill="black"/>
      <circle cx="116" cy="-12.526677059875588" r="0.65" fill="black"/>
      <circle cx="120" cy="-0" r="0.65" fill="black"/>
      <circle cx="124" cy="-4.860516266127556" r="0.65" fill="black"/>
      <circle cx="128" cy="-100" r="0.65" fill="black"/>
      <circle cx="132" cy="-87.20865123720829" r="0.65" fill="black"/>
      <circle cx="136" cy="-90.87410470828496" r="0.65" fill="black"/>
      <circle cx="140" cy="-2.7887250737865794" r="0.65" fill="black"/>
      <circle cx="144" cy="-33.80250005898386" r="0.65" fill="black"/>
      <circle cx="148" cy="-60.1020246871495" r="0.65" fill="black"/>
      <circle cx="152" cy="-35.36454626677326" r="0.65" fill="black"/>
      <circle cx="156" cy="-85.85421622603157" r="0.65" fill="black"/>
      <circle cx="160" cy="-27.369563034781567" r="0.65" fill="black"/>
      <circle cx="164" cy="-30.416983320820638" r="0.65" fill="black"/>
      <circle cx="168" cy="-39.43932700238283" r="0.65" fill="black"/>
      <circle cx="172" cy="-56.20370460279049" r="0.65" fill="black"/>
      <circle cx="176" cy="-13.896192166603031" r="0.65" fill="black"/>
      <circle cx="180" cy="-64.95984615650072" r="0.65" fill="black"/>
      <circle cx="184" cy="-46.30032736863565" r="0.65" fill="black"/>
      <circle cx="188" cy="-89.25608212205063" r="0.65" fill="black"/>
      <circle cx="192" cy="-73.16550602667759" r="0.65" fill="black"/>
      <circle cx="196" cy="-67.22364891569072" r="0.65" fill="black"/>
      <circle cx="200" cy="-65.70837794050615" r="0.65" fill="black"/>
      <g id="data">
         <polyline points="0,-86.84243752985027 4,-39.26955932919449 8,-71.54817723015914 12,-45.788825632732554 16,-77.5037621219225 20,-56.613149892378566 24,-4.100709457478259 28,-45.03778805466333 32,-61.342856509703005 36,-18.865173695182847 40,-69.75537076796311 44,-48.723603501195655 48,-42.89926819857362 52,-39.061864809580435 56,-28.000793654312385 60,-39.16828609555945 64,-16.01803045397011 68,-18.90878625539251 72,-77.47159719523563 76,-30.4693851344515 80,-31.1062301087884 84,-44.7146803125027 88,-94.53033803550136 92,-29.175106156449267 96,-61.726221616580325 100,-51.440545887107874 104,-97.71648095719799 108,-79.0233359917106 112,-51.025616521563045 116,-12.526677059875588 120,-0 124,-4.860516266127556 128,-100 132,-87.20865123720829 136,-90.87410470828496 140,-2.7887250737865794 144,-33.80250005898386 148,-60.1020246871495 152,-35.36454626677326 156,-85.85421622603157 160,-27.369563034781567 164,-30.416983320820638 168,-39.43932700238283 172,-56.20370460279049 176,-13.896192166603031 180,-64.95984615650072 184,-46.30032736863565 188,-89.25608212205063 192,-73.16550602667759 196,-67.22364891569072 200,-65.70837794050615"
                   stroke="black"
                   stroke-width="0.5"
                   fill="none"
                   id="black"/>
      </g>
      <text x="100" y="8" text-anchor="middle" font-size="5">Fake independent
                    variable</text>
      <text x="-10"
            y="-50"
            text-anchor="middle"
            font-size="5"
            writing-mode="tb">Fake
                    dependent variable</text>
      <text x="100" y="-106" text-anchor="middle" font-size="8">Smoothing examples (window                     = 3)</text>
   </g>
   <g transform="translate(50, 15)">
      <rect x="0"
            y="0"
            width="100"
            height="58"
            fill="ghostwhite"
            stroke="black"
            stroke-width="0.5"/>
      <rect x="2"
            y="2"
            width="5"
            height="5"
            fill="black"
            class="toggle"
            id="data-box"/>
      <rect x="2"
            y="9"
            width="5"
            height="5"
            fill="red"
            class="toggle"
            id="regression-box"/>
      <rect x="2" y="16" width="5" height="5" fill="gray"/>
      <rect x="2"
            y="23"
            width="5"
            height="5"
            fill="blue"
            class="toggle"
            id="rectangular-box"/>
      <rect x="2"
            y="30"
            width="5"
            height="5"
            fill="green"
            class="toggle"
            id="gaussian-box"/>
      <rect x="2"
            y="37"
            width="5"
            height="5"
            fill="indigo"
            class="toggle"
            id="exponential-box"/>
      <rect x="2"
            y="44"
            width="5"
            height="5"
            fill="fuchsia"
            class="toggle"
            id="parabolicUp-box"/>
      <rect x="2"
            y="51"
            width="5"
            height="5"
            fill="darkgoldenrod"
            class="toggle"
            id="parabolicDown-box"/>
      <text x="10"
            y="6"
            fill="black"
            font-size="5"
            alignment-baseline="central">
         <tspan>Actual data (51 points)</tspan>
         <tspan x="10" dy="7" fill="red">Regression line (46.4–53.4)</tspan>
         <tspan x="10" dy="7" fill="gray">Sine without jitter</tspan>
         <tspan x="10" dy="7" fill="blue">Rectangular </tspan>
         <tspan x="10" dy="7" fill="green">Gaussian (σ = 5)</tspan>
         <tspan x="10" dy="7" fill="indigo">Exponential: y = 1 - 2<tspan dy="-2" font-size="4">-d</tspan>
            <tspan dy="2"> </tspan>
         </tspan>
         <tspan x="10" dy="7" fill="fuchsia">Parabolic (upward): y = ((N - d)/N)<tspan dy="-2" font-size="4">2</tspan>
            <tspan dy="2"> </tspan>
         </tspan>
         <tspan x="10" dy="7" fill="darkgoldenrod">Parabolic (downward): y = 1 - (d/N)<tspan dy="-2" font-size="4">2</tspan>
            <tspan dy="2" dx="-1">)</tspan>
         </tspan>
      </text>
   </g>
</svg>
