<?xml version="1.0" encoding="UTF-8"?>
<svg xmlns="http://www.w3.org/2000/svg" viewBox="-20 -115 234 195">
   <script type="text/javascript">
                window.addEventListener('DOMContentLoaded', init, false);
                function init() {
                    var rects = document.getElementsByClassName('toggle');
                    for (var i = 0; i &lt; rects.length; i++) {
                        rects[i].addEventListener('mouseover', emphasize, false);
                        rects[i].addEventListener('mouseout', deemphasize, false);
                    }
                }
                function emphasize() {
                    var target = this.id.substring(0, this.id.indexOf('-'));
                    document.getElementById(target).classList.add('highlight');
                }
                function deemphasize() {
                    var target = this.id.substring(0, this.id.indexOf('-'));
                    document.getElementById(target).classList.remove('highlight');
                }//</script>
   <style type="text/css">
                .spline {
                    stroke-width: 0.5;
                    stroke-opacity: 0.5;
                    fill: none;
                }
                .highlight .spline {
                    stroke-width: 1.5;
                    stroke-opacity: 0.75;
                }
                #rectangular {
                    stroke: blue;
                }
                #gaussian {
                    stroke: green;
                }
                #exponential {
                    stroke: indigo;
                }
                #parabolic {
                    stroke: darkgoldenrod;
                }
                #regression {
                    stroke: red;
                    stroke-width: 0.5;
                    stroke-opacity: 0.5;
                }
                #regression.highlight {
                    stroke-width: 1.5;
                    stroke-opacity: 0.75;
                }
                #data.highlight &gt; polyline {
                    stroke-width: 1.5;
                }</style>
   <g>
      <rect x="0"
            y="-100"
            width="200"
            height="100"
            stroke="lightgray"
            stroke-width="0.5"
            fill="none"/>
      <text x="-1"
            y="0"
            fill="lightgray"
            font-size="3"
            text-anchor="end"
            alignment-baseline="central">0.0</text>
      <text x="-1"
            y="-100"
            fill="lightgray"
            font-size="3"
            text-anchor="end"
            alignment-baseline="central">100.0</text>
      <text x="-1"
            y="-48.506326965658836"
            fill="lightgray"
            font-size="3"
            text-anchor="end"
            alignment-baseline="central">48.5</text>
      <text x="208"
            y="-100"
            font-size="3"
            fill="lightgray"
            text-anchor="end"
            alignment-baseline="central">100.0</text>
      <text x="208"
            y="0"
            font-size="3"
            fill="lightgray"
            text-anchor="end"
            alignment-baseline="central">0.0</text>
      <text x="208"
            y="-60.16154610179305"
            fill="red"
            fill-opacity="0.5"
            font-size="3"
            text-anchor="end"
            alignment-baseline="central">60.2</text>
      <line x1="0"
            y1="-48.506326965658836"
            x2="200"
            y2="-48.506326965658836"
            stroke="lightgray"
            stroke-width="0.5"/>
      <polyline points="0,-49.99991159163257 0.4000000000000057,-54.99162248393219 0.7999999999999972,-59.933457851036025 1.2000000000000028,-64.7760405075099 1.5999999999999943,-69.470984968195 2,-73.97138089998278 2.4000000000000057,-78.23226183435574 2.799999999999997,-82.21105445747753 3.200000000000003,-85.8680039886721 3.5999999999999943,-89.16657139705036 4,-92.07379848742939 4.400000000000006,-94.56063720772356 4.799999999999997,-96.60223988747914 5.200000000000003,-98.17820750758436 5.599999999999994,-99.2727935205246 6,-99.87506118468069 6.400000000000006,-99.97899284063554 6.799999999999997,-99.58355003763812 7.200000000000003,-98.69268390945993 7.599999999999994,-97.31529569597262 8,-95.46514780490124 8.400000000000006,-93.16072630239583 8.799999999999997,-90.42505620636905 9.200000000000003,-87.2854714281279 9.599999999999994,-83.77334166096806 10,-79.92375894456698 10.400000000000006,-75.7751870369242 10.799999999999997,-71.36907709720549 11.200000000000003,-66.74945351946192 11.599999999999994,-61.96247405543809 12,-57.05596862157316 12.400000000000006,-52.07896139828741 12.799999999999997,-47.08118099657623 13.200000000000003,-42.11256358616663 13.599999999999994,-37.22275394981719 14,-32.46060944905783 14.400000000000006,-27.87371185758461 14.799999999999997,-23.507891939904937 15.200000000000003,-19.406771525487766 15.599999999999994,-15.611327653864063 16,-12.15948314559189 16.400000000000006,-9.085727689969945 16.799999999999997,-6.420773235462435 17.200000000000003,-4.191247126061786 17.599999999999994,-2.419426049669928 18,-1.123013456795881 18.400000000000006,-0.31496267353066965 18.799999999999997,-0.003347476194619978 19.200000000000003,-0.1912814208331931 19.599999999999994,-0.8768867335942497 20,-2.053313072823724 20.400000000000006,-3.708805975414855 20.799999999999997,-5.826824303518074 21.200000000000003,-8.386205518122889 21.599999999999994,-11.361377128151748 22,-14.722612202338423 22.400000000000006,-18.436326390898145 22.799999999999997,-22.465413489249364 23.200000000000003,-26.769616190944774 23.599999999999994,-31.30592832536897 24,-36.02902456118055 24.400000000000006,-40.89171328203914 24.799999999999997,-45.84540810963695 25.200000000000003,-50.840613362730764 25.599999999999994,-55.827418601626654 26,-60.75599731679657 26.400000000000006,-65.57710477888986 26.799999999999997,-70.24257007579139 27.200000000000003,-74.70577742045263 27.599999999999994,-78.9221319204256 28,-82.84950515528837 28.400000000000006,-86.44865610989503 28.799999999999997,-89.68362325762817 29.200000000000003,-92.52208387608582 29.599999999999994,-94.93567700503849 30,-96.9002868197697 30.400000000000006,-98.39628358842417 30.799999999999997,-99.40871980580032 31.200000000000003,-99.92747954388108 31.599999999999994,-99.94737952684268 32,-99.46822092063346 32.400000000000006,-98.49479131965784 32.8,-97.03681691071581 33.2,-95.10886529215915 33.599999999999994,-92.73019991926452 34,-89.9245876301555 34.400000000000006,-86.72006117541281 34.8,-83.14863912409677 35.2,-79.2460059447887 35.599999999999994,-75.05115545817752 36,-70.60600122369193 36.4,-65.9549577530705 36.8,-61.144496735241056 37.2,-56.222682706566644 37.6,-51.238692805886544 38,-46.242325412800255 38.4,-41.28350257871999 38.8,-36.41177122223502 39.2,-31.675808072678944 39.6,-27.12293330834103 40,-22.798637748886158 40.4,-18.746128326122324 40.8,-15.00589637462028 41.2,-11.615313055683057 41.6,-8.608255957055775 42,-6.0147705992669325 42.4,-3.8607702307192673 42.8,-2.167776911077452 43.2,-0.9527064699621499 43.6,-0.2276994895721372 44,-0 44.4,-0.27188309927810167 44.8,-1.0406322213510508 45.2,-2.2985662791058075 45.6,-4.033116411254947 46,-6.226951566244104 46.4,-8.858151668390104 46.8,-11.90042663603143 47.2,-15.32337906333387 47.6,-19.09280794112134 48,-23.171050382054567 48.4,-27.517357935751466 48.8,-32.08830373383376 49.2,-36.8382163968409 49.6,-41.71963636755632 50,-46.68379011121562 50.4,-51.68107744454323 50.8,-56.6615671243881 51.2,-61.57549574420031 51.6,-66.37376495353936 52,-71.00843203256257 52.4,-75.43318891983355 52.8,-79.60382490716492 53.2,-83.47866837840023 53.6,-87.01900317842772 54,-90.18945545220474 54.4,-92.95834708862382 54.8,-95.29801223772782 55.2,-97.18507373873733 55.6,-98.60067669691385 56,-99.53067687543542 56.4,-99.96578201993542 56.8,-99.90164470363668 57.2,-99.33890576540261 57.6,-98.28318790668736 58,-96.74503951136127 58.4,-94.73982924974618 58.8,-92.2875925199417 59.2,-89.41283126075038 59.6,-86.14426913640438 60,-82.51456453920714 60.4,-78.55998427767301 60.8,-74.32004121056485 61.2,-69.83709944747025 61.6,-65.15595106062268 62,-60.32336853732155 62.4,-55.38763744470025 62.8,-50.39807397630048 63.2,-45.404532200968006 63.6,-40.45690593747668 64,-35.6046302319834 64.4,-30.89618741938829 64.8,-26.378622703870775 65.2,-22.097074098759627 65.6,-18.094321422425633 66,-14.410358856476297 66.4,-11.08199533711463 66.8,-8.142486772415483 67.2,-5.621203760284772 67.6,-3.543338127154541 68,-1.9296512195798132 68.4,-0.7962664637271795 68.8,-0.15450826542995513 69.2,-0.010788860468418213 69.6,-0.3665442456296336 70,-1.2182198307021967 70.4,-2.5573059547665773 70.8,-4.370422911914063 71.2,-6.6394546368457625 71.6,-9.341729714608148 72,-12.450247905877799 72.4,-15.933949924426967 72.8,-19.75802777124493 73.2,-23.884272524558643 73.6,-28.27145611074787 74,-32.87574324162981 74.4,-37.651129402167506 74.8,-42.549900512377484 75.2,-47.523109670645304 75.6,-52.52106621498559 76,-57.493832215712416 76.4,-62.391721438724254 76.8,-67.16579579393152 77.2,-71.76835430847649 77.6,-76.15340973908505 78,-80.27714806140153 78.4,-84.09836624523578 78.8,-87.57888394162165 79.2,-90.68392496824326 79.6,-93.3824647815525 80,-95.64754046375364 80.4,-97.45652012736448 80.8,-98.79132904555539 81.2,-99.63863024884506 81.6,-99.98995778369067 82,-99.84180130149753 82.4,-99.19564113286167 82.8,-98.05793349659598 83.2,-96.44004599132582 83.6,-94.35814401420146 84,-91.83302924159287 84.4,-88.88993178561607 84.8,-85.55825810319261 85.2,-81.87129717645216 85.6,-77.86588790022769 86,-73.58205099999469 86.4,-69.06258915801222 86.8,-64.35265934307009 87.2,-59.49932161698304 87.6,-54.551068926010345 88,-49.55734257536495 88.4,-44.568038228036244 88.8,-39.63300736381816 89.2,-34.801559179801295 89.6,-30.121967909176252 90,-25.640990481051578 90.4,-21.403399340675048 90.8,-17.45153509796005 91.2,-13.824883474106876 91.6,-10.559680773329678 92,-7.688551821681882 92.4,-5.2401839905794265 92.8,-3.2390405620679426 93.2,-1.7051162997949072 93.6,-0.6537376679411158 94,-0.09540969425641115 94.4,-0.03571100729519992 94.8,-0.4752380966038116 95.2,-1.4095993527942499 95.6,-2.829458947053358 96,-4.720630111658588 96.4,-7.064216889471219 96.8,-9.83680293609405 97.2,-13.010685488244503 97.6,-16.554152160607362 98,-20.431797805506974 98.4,-24.60487826943862 98.8,-29.03169751184352 99.2,-33.668024218163794 99.6,-38.467533744515386 100,-43.38227097821826 100.4,-48.36312948942921 100.8,-53.36034218635699 101.2,-58.323978571593116 101.6,-63.20444363113601 102,-67.95297337137833 102.4,-72.52212205281067 102.8,-76.8662362521677 103.2,-80.94191101634301 103.6,-84.70842355033163 104,-88.12814010593775 104.4,-91.16689200574557 104.8,-93.79431704524997 105.2,-95.98416286196769 105.6,-97.71454924036465 106,-98.96818673173777 106.4,-99.73254940467064 106.8,-99.99999999999999 107.2,-99.76786623978475 107.6,-99.03846752782377 108,-97.81909177493976 108.4,-96.12192258058352 108.8,-93.96391749833559 109.2,-91.36663860163601 109.6,-88.35603704267452 110,-84.96219375705549 110.4,-81.21901890503348 110.8,-77.16391305240097 111.2,-72.83739347639737 111.6,-68.2826893304692 112,-63.54530971285724 112.4,-58.67258895473132 112.8,-53.71321367119946 113.2,-48.71673630074289 113.6,-43.73307999363169 114,-38.81203979630844 114.4,-34.002785115745326 114.8,-29.353368434982503 115.2,-24.91024518860097 115.6,-20.717809595377624 116,-16.817951085924694 116.4,-13.249635757346962 116.8,-10.048517036879456 117.2,-7.246579444627692 117.6,-4.871819014816227 118,-2.9479635686681345 118.4,-1.4942356338593685 118.8,-0.5251603793759801 119.2,-0.0504204848270241 119.6,-0.0747593943107212 120,-0.5979339214888733 120.4,-1.6147166794244434 120.8,-3.114948310903767 121.2,-5.08363899737585 121.6,-7.5011182322639485 122,-10.34323136216562 122.4,-13.581580932164503 122.8,-17.18381042381308 123.2,-21.113927550769812 123.6,-25.332663881825873 124,-29.79786719809046 124.4,-34.46492266402731 124.8,-39.28719860414402 125.2,-44.21651243127977 125.6,-49.20361207108801 126,-54.198668072484075 126.4,-59.15177148704784 126.8,-64.01343254273911 127.2,-68.73507512934124 127.6,-73.26952215489612 128,-77.5714669236136 128.4,-81.5979258253984 128.8,-85.30866781387422 129.2,-88.6666163817002 129.6,-91.63822001677734 130,-94.19378743786524 130.4,-96.30778426005068 130.8,-97.95908812588081 131.2,-99.13119975297667 131.6,-99.8124077894091 132,-99.9959058296554 132.4,-99.67986042195379 132.8,-98.86742938754733 133.2,-97.56673026877792 133.6,-95.79075922128615 134,-93.55726116072066 134.4,-90.8885524614063 134.8,-87.81129797850885 135.2,-84.35624462161657 135.6,-80.5579141417822 136,-76.45425820159944 136.4,-72.08627917473422 136.8,-67.49762046376111 137.2,-62.73413042971158 137.6,-57.84340429040473 138,-52.87430856476572 138.4,-47.87649281472048 138.8,-42.899893563185216 139.2,-37.994235344836625 139.6,-33.20853387499673 140,-28.59060630080995 140.4,-24.186593428113653 140.8,-20.04049869775871 141.2,-16.193748517774395 141.6,-12.684778344392015 142,-9.548648647672962 142.4,-6.816694598880209 142.8,-4.5162129798053465 143.2,-2.6701894423481685 143.6,-1.297068843480433 144,-0.4105709503328467 144.4,-0.019553356816507182 144.8,-0.12792298147258685 145.2,-0.7345970308336968 145.6,-1.8335138183384954 146,-3.4136933306998007 146.4,-5.459346936567991 146.8,-7.950035141316411 147.2,-10.860871811715057 147.6,-14.162772829948395 148,-17.822746692505397 148.4,-21.804224150377912 148.8,-26.067423596908338 149.2,-30.569748552453 149.6,-35.266213274327484 150,-40.109892239475336 150.4,-45.05238900878421 150.8,-50.04431978830738 151.2,-55.0358068558084 151.6,-59.9769769224758 152,-64.81845945033673 152.4,-69.51187994635416 152.8,-74.01034330437041 153.2,-78.26890236550618 153.6,-82.2450070153157 154,-85.89892933046319 154.4,-89.19416052700181 154.8,-92.09777574407441 155.2,-94.58076301823938 155.6,-96.61831316142009 156,-98.19006764611022 156.4,-99.28032202105172 156.8,-99.8781828249203 157.2,-99.9776764301903 157.6,-99.57780872964604 158,-98.68257506917266 158.4,-97.3009203275807 158.8,-95.44664954233382 159.2,-93.13828997417794 159.6,-90.39890598887553 160,-87.25586860568795 160.4,-83.74058201519793 160.8,-79.88816979901846 161.2,-75.7371239865757 161.6,-71.32892045547369 162,-66.7076045182371 162.4,-61.9193508361069 162.8,-57.01200205708867 163.2,-52.03459078802891 163.6,-47.036849677013905 164,-42.06871450119174 164.4,-37.17982522499205 164.8,-32.41903001401073 165.2,-27.83389716028651 165.6,-23.47023979564978 166,-19.371658142054955 166.4,-15.579103872573793 166.8,-12.13047093581519 167.2,-9.06021693211695 167.6,-6.399018824592546 168,-4.173466425057468 168.4,-2.405796717418048 168.8,-1.1136716730791034 169.2,-0.3100017783639643 169.6,-0.002817037202549067 170,-0.19518673798684763 170.4,-0.8851887862555952 170.8,-2.0659289096268423 171.2,-3.725609543088518 171.6,-5.847647706368787 172,-8.41084069559261 172.4,-11.389577933690616 172.8,-14.75409686281934 173.2,-18.470780322000753 173.6,-22.502492438683447 174,-26.808949678104113 174.4,-31.34712334305197 174.8,-36.07166950238761 175.2,-40.935382052613924 175.6,-45.889664385659366 176,-50.88501495011981 176.4,-55.87152185439852 176.8,-60.79936156982797 177.2,-65.6192967508985 177.6,-70.28316819854027 178,-74.74437605091903 178.4,-78.95834539385307 178.8,-82.88297163862084 179.2,-86.47904121709333 179.6,-89.71062339074554 180,-92.5454292587171 180.4,-94.95513437783747 180.8,-96.915661771099 181.2,-98.40742249685235 181.6,-99.4155113750365 182,-99.92985591481045 182.4,-99.94531695555239 182.8,-99.46174001565406 183.2,-98.48395683604964 183.6,-97.02173710305753 184,-95.08969083290422 184.4,-92.70712239327149 184.8,-89.89783762043577 185.2,-86.68990595922135 185.6,-83.11538000238545 186,-79.20997523170776 186.4,-75.01271316070174 186.8,-70.5655314445505 187.2,-65.91286485291933 187.6,-61.10120129242405 188,-56.17861731483694 188.4,-51.194297752072146 188.8,-46.19804427760381 189.2,-41.23977780460736 189.6,-36.36903969269527 190,-31.634496747030173 190.4,-27.083454955693337 190.8,-22.76138682388939 191.2,-18.71147702770582 191.6,-14.974190927103326 192,-11.586870249416895 192.4,-8.583359983158624 192.8,-5.993670210080465 193.2,-3.8436762543575274 193.6,-2.154860144901584 194,-0.9440959740300957 194.4,-0.22348129711299344 194.8,-0.0002162577984843781 195.2,-0.27653164655775725 195.6,-1.049666611364088 196,-2.311896243213573 196.4,-4.050608760862416 196.8,-6.248431523576214 197.2,-8.88340461281334 197.6,-11.92920024847281 198,-15.355385847369128 198.4,-19.127728095544498 198.8,-23.2085349962257 199.2,-27.557032475796248 199.6,-32.129771784863024 200,-36.881063623796194"
                stroke="lightgray"
                stroke-width="0.5"
                fill="none"/>
      <circle cx="0" cy="-63.4838276720131" r="0.65" fill="black"/>
      <circle cx="4" cy="-76.61792080786925" r="0.65" fill="black"/>
      <circle cx="8" cy="-29.13512540730873" r="0.65" fill="black"/>
      <circle cx="12" cy="-24.498760716665902" r="0.65" fill="black"/>
      <circle cx="16" cy="-63.87721746321255" r="0.65" fill="black"/>
      <circle cx="20" cy="-74.37142796698595" r="0.65" fill="black"/>
      <circle cx="24" cy="-77.99879131255268" r="0.65" fill="black"/>
      <circle cx="28" cy="-72.88061475935632" r="0.65" fill="black"/>
      <circle cx="32" cy="-91.4063247441851" r="0.65" fill="black"/>
      <circle cx="36" cy="-34.47448665692159" r="0.65" fill="black"/>
      <circle cx="40" cy="-17.203353704924382" r="0.65" fill="black"/>
      <circle cx="44" cy="-63.286476590341266" r="0.65" fill="black"/>
      <circle cx="48" cy="-13.29704240615327" r="0.65" fill="black"/>
      <circle cx="52" cy="-59.89333858931966" r="0.65" fill="black"/>
      <circle cx="56" cy="-59.54172888166486" r="0.65" fill="black"/>
      <circle cx="60" cy="-45.82436104860675" r="0.65" fill="black"/>
      <circle cx="64" cy="-58.14403380003239" r="0.65" fill="black"/>
      <circle cx="68" cy="-63.35465241503349" r="0.65" fill="black"/>
      <circle cx="72" cy="-55.45601662358702" r="0.65" fill="black"/>
      <circle cx="76" cy="-59.65587156755333" r="0.65" fill="black"/>
      <circle cx="80" cy="-44.510645194855186" r="0.65" fill="black"/>
      <circle cx="84" cy="-27.04363468998145" r="0.65" fill="black"/>
      <circle cx="88" cy="-9.762079267525694" r="0.65" fill="black"/>
      <circle cx="92" cy="-34.047389033953145" r="0.65" fill="black"/>
      <circle cx="96" cy="-24.29051993795648" r="0.65" fill="black"/>
      <circle cx="100" cy="-30.780482658040203" r="0.65" fill="black"/>
      <circle cx="104" cy="-56.025873481923725" r="0.65" fill="black"/>
      <circle cx="108" cy="-73.60733688084821" r="0.65" fill="black"/>
      <circle cx="112" cy="-48.83442037520421" r="0.65" fill="black"/>
      <circle cx="116" cy="-29.006525298660332" r="0.65" fill="black"/>
      <circle cx="120" cy="-28.18834600217749" r="0.65" fill="black"/>
      <circle cx="124" cy="-58.880875036109614" r="0.65" fill="black"/>
      <circle cx="128" cy="-78.33031786447226" r="0.65" fill="black"/>
      <circle cx="132" cy="-90.76975760230556" r="0.65" fill="black"/>
      <circle cx="136" cy="-63.91091442455263" r="0.65" fill="black"/>
      <circle cx="140" cy="-74.11739340100658" r="0.65" fill="black"/>
      <circle cx="144" cy="-75.35110120028642" r="0.65" fill="black"/>
      <circle cx="148" cy="-0" r="0.65" fill="black"/>
      <circle cx="152" cy="-21.411673427713747" r="0.65" fill="black"/>
      <circle cx="156" cy="-89.04005899595232" r="0.65" fill="black"/>
      <circle cx="160" cy="-92.00259971340205" r="0.65" fill="black"/>
      <circle cx="164" cy="-6.980865814512573" r="0.65" fill="black"/>
      <circle cx="168" cy="-62.01861314648304" r="0.65" fill="black"/>
      <circle cx="172" cy="-19.181425392912747" r="0.65" fill="black"/>
      <circle cx="176" cy="-89.55476341173171" r="0.65" fill="black"/>
      <circle cx="180" cy="-57.18224891374107" r="0.65" fill="black"/>
      <circle cx="184" cy="-100" r="0.65" fill="black"/>
      <circle cx="188" cy="-85.4358095710675" r="0.65" fill="black"/>
      <circle cx="192" cy="-66.62765387659171" r="0.65" fill="black"/>
      <circle cx="196" cy="-80.04716765775834" r="0.65" fill="black"/>
      <circle cx="200" cy="-49.688897814009216" r="0.65" fill="black"/>
      <g id="data">
         <polyline points="0,-63.4838276720131 4,-76.61792080786925 8,-29.13512540730873 12,-24.498760716665902 16,-63.87721746321255 20,-74.37142796698595 24,-77.99879131255268 28,-72.88061475935632 32,-91.4063247441851 36,-34.47448665692159 40,-17.203353704924382 44,-63.286476590341266 48,-13.29704240615327 52,-59.89333858931966 56,-59.54172888166486 60,-45.82436104860675 64,-58.14403380003239 68,-63.35465241503349 72,-55.45601662358702 76,-59.65587156755333 80,-44.510645194855186 84,-27.04363468998145 88,-9.762079267525694 92,-34.047389033953145 96,-24.29051993795648 100,-30.780482658040203 104,-56.025873481923725 108,-73.60733688084821 112,-48.83442037520421 116,-29.006525298660332 120,-28.18834600217749 124,-58.880875036109614 128,-78.33031786447226 132,-90.76975760230556 136,-63.91091442455263 140,-74.11739340100658 144,-75.35110120028642 148,-0 152,-21.411673427713747 156,-89.04005899595232 160,-92.00259971340205 164,-6.980865814512573 168,-62.01861314648304 172,-19.181425392912747 176,-89.55476341173171 180,-57.18224891374107 184,-100 188,-85.4358095710675 192,-66.62765387659171 196,-80.04716765775834 200,-49.688897814009216"
                   stroke="black"
                   stroke-width="0.5"
                   fill="none"
                   id="black"/>
      </g>
      <g id="regression">
         <g>
            <line x1="0"
                  y1="-48.506326965658836"
                  x2="200"
                  y2="-60.16154610179305"
                  class="regression"/>
         </g>
      </g>
      <g id="rectangular">
         <g>
            <path d="M0,-54.76500139962495 Q2.4,-54.76500139962495 4,-54.76500139962495 C5.6,-54.76500139962495 6.4,-54.76500139962495 8,-54.76500139962495 C9.6,-54.76500139962495 10.4,-54.76500139962495 12,-54.76500139962495 C13.6,-54.76500139962495 14.4,-54.76500139962495 16,-54.76500139962495 C17.6,-54.76500139962495 18.4,-54.76500139962495 20,-54.76500139962495 C21.6,-54.76500139962495 22.401518358950366,-54.8142900831191 24,-54.76500139962495 C25.601518358950365,-54.715619079880234 26.40542726880157,-54.6730105846886 28,-54.5183238915278 C29.605427268801574,-54.36258421878522 30.4081448399886,-54.25033907811117 32,-53.98893548486651 C33.608144839988604,-53.7248569115195 34.401754739091054,-53.52704369801647 36,-53.20461847504863 C37.60175473909106,-52.88148526043956 38.39768083157972,-52.6952659557699 40,-52.37503939092424 C41.59768083157972,-52.05573980660926 42.4012201152767,-51.91971192631037 44,-51.60580310214704 C45.601220115276696,-51.291415156429196 46.3913057975666,-51.07274137750501 48,-50.80429746622132 C49.591305797566605,-50.53875517005278 50.401345162195824,-50.49386402413932 52,-50.27083758351647 C53.60134516219583,-50.047435818928115 54.40429892025775,-49.94771453245538 56,-49.68822695319331 C57.604298920257754,-49.42734122182708 58.39999637368944,-49.25721317076655 60,-48.9699043069457 C61.599996373689436,-48.68259674546086 62.397196409136015,-48.52237052982134 64,-48.2516858899291 C65.59719640913602,-47.981948201975015 66.40280871438691,-47.888614710147166 68,-47.618848487329885 C69.60280871438691,-47.34813347863084 70.39933480103531,-47.18407450450526 72,-46.900482811138296 C73.59933480103531,-46.617126825901856 74.3987548384133,-46.47375786065463 76,-46.20147929082136 C77.5987548384133,-45.92962417996136 78.39313440120851,-45.752729139878916 80,-45.54014860940513 C81.59313440120852,-45.32938464981843 82.39612716054455,-45.213867678044 84,-45.14311806567015 C85.59612716054455,-45.07271012862557 86.40192433818297,-45.12225038231294 88,-45.187254735859064 C89.60192433818297,-45.25241564064062 90.40374697423171,-45.31662322993427 92,-45.46853121148934 C93.6037469742317,-45.621152357290036 94.4104751473926,-45.691644673012924 96,-45.94857755424847 C97.6104751473926,-46.208896868601485 98.40923612597118,-46.39619885340263 100,-46.761661700460756 C101.60923612597118,-47.13136837144312 102.39179570357373,-47.4117956115799 104,-47.7865013493497 C105.59179570357372,-48.157383944808394 106.3894657555535,-48.35210117380918 108,-48.62563253353199 C109.5894657555535,-48.89558564433891 110.39805187714548,-48.953675669833395 112,-49.14521252567402 C113.59805187714548,-49.336283527070265 114.41258785529253,-49.32842525977959 116,-49.58215217662416 C117.61258785529253,-49.83990309911051 118.40927235477214,-50.04794779679266 120,-50.4239071240013 C121.60927235477214,-50.8042493866197 122.40944867928329,-51.02010106820588 124,-51.47290615119176 C125.60944867928329,-51.93109101658547 126.39805992487689,-52.216400016211374 128,-52.70138199495026 C129.5980599248769,-53.1851892712309 130.38691156247415,-53.46685708177493 132,-53.89487928874057 C133.58691156247414,-54.315955637332635 134.40238683999422,-54.44243791688811 136,-54.82412838384451 C137.6023868399942,-55.20695934475119 138.39011699062868,-55.45926266678844 140,-55.806182858398266 C141.5901169906287,-56.148843590799174 142.393359900805,-56.293208164647076 144,-56.54808069387135 C145.59335990080498,-56.800846492562776 146.40116869782617,-56.85588245274159 148,-57.075278678187516 C149.60116869782618,-57.29499564778124 150.40164410463228,-57.40664399966826 152,-57.64586368147048 C153.6016441046323,-57.88557549670572 154.39316067465305,-58.078639468780466 156,-58.27260742078116 C157.59316067465306,-58.464924168570356 158.39724955808686,-58.530268357349186 160,-58.61157543094521 C161.59724955808684,-58.69260344627089 162.40191155259302,-58.60818573660765 164,-58.678445143085426 C165.60191155259304,-58.748872631061886 166.40079505353341,-58.83911430567401 168,-58.963292667080786 C169.60079505353343,-59.08759450039806 170.39934226455733,-59.291247604906694 172,-59.29964562989556 C173.59934226455732,-59.308036753123275 174.39783935634975,-59.06422106238655 176,-59.00526553762225 C177.59783935634974,-58.94646902547723 178.4,-59.00526553762225 180,-59.00526553762225 C181.6,-59.00526553762225 182.4,-59.00526553762225 184,-59.00526553762225 C185.6,-59.00526553762225 186.4,-59.00526553762225 188,-59.00526553762225 C189.6,-59.00526553762225 190.4,-59.00526553762225 192,-59.00526553762225 C193.6,-59.00526553762225 194.4,-59.00526553762225 196,-59.00526553762225 Q197.6,-59.00526553762225 200,-59.00526553762225"
                  class="spline"
                  fill="none"/>
         </g>
      </g>
      <g id="gaussian">
         <g>
            <path d="M0,-57.37551311221072 Q2.199880153722462,-57.425332906492294 4,-57.45052193756806 C5.799880153722462,-57.47570761463202 6.1999953508296635,-57.48693711251198 8,-57.48745690807677 C9.799995350829665,-57.487976700956445 10.200507681976438,-57.4918383719388 12,-57.45283213411132 C13.800507681976438,-57.41380388700521 14.20149914003185,-57.40587088021341 16,-57.31404694155769 C17.80149914003185,-57.222069923250594 18.202806270037822,-57.19847459203176 20,-57.04438556308284 C21.802806270037824,-56.88981532232255 22.203998174771414,-56.848104566169845 24,-56.628137453315 C25.80399817477141,-56.40719097958333 26.23195221128357,-56.46146637126773 28,-56.06457759289059 C29.83195221128357,-55.653343643321 30.201317196941446,-55.39107011631574 32,-54.832309168988935 C33.80131719694145,-54.27272984700534 34.16079533557114,-53.79339643962419 36,-53.579376994423036 C37.76079533557114,-53.37448166758961 38.19746381282534,-53.802959777631976 40,-53.90138745335655 C41.797463812825335,-53.999538151552926 42.2166491144232,-54.16568668242129 44,-54.016217825358474 C45.8166491144232,-53.86395812761022 46.22089580671258,-53.66928091308325 48,-53.23087955377638 C49.820895806712585,-52.7821800341918 50.227151491058656,-52.65734318461339 52,-52.04488253893304 C53.82715149105866,-51.41366200524071 54.23267553708093,-51.25095099905257 56,-50.46714359961487 C57.83267553708093,-49.65435303575887 58.19038777016195,-49.363426005950636 60,-48.49688706494703 C61.79038777016195,-47.63955382152571 62.12590636439567,-47.23876164137912 64,-46.636316523115035 C65.72590636439567,-46.08150760425555 66.19592915087364,-46.22031752980795 68,-45.92521142689464 C69.79592915087363,-45.63143712580255 70.2455750804215,-45.776593420773054 72,-45.327693403103034 C73.84557508042151,-44.85547103726272 74.15576993932184,-44.06551342397647 76,-43.87827279687167 C77.75576993932185,-43.70001333158051 78.2329649126228,-44.65871902639938 80,-44.51547097555645 C81.8329649126228,-44.36687819838277 82.2190201240384,-43.86195185571073 84,-43.22973762350142 C85.8190201240384,-42.584019821400325 86.16327409373658,-42.258768662710594 88,-41.675622010422224 C89.76327409373658,-41.11579575582274 90.17391813246094,-40.943753841840454 92,-40.689797830417305 C93.77391813246093,-40.44309630979047 94.2216289899797,-40.39181337880362 96,-40.563049716977815 C97.82162898997971,-40.7384512929136 98.29675557790478,-40.8007195025227 100,-41.46010430621727 C101.89675557790478,-42.194403968772335 102.16689472261706,-42.735886153729254 104,-43.66012630864366 C105.76689472261705,-44.55098351815454 106.30631293622231,-44.487209816285954 108,-45.493654004940126 C109.9063129362223,-46.62644743381468 110.27639804190383,-47.00589701302756 112,-48.41398768092972 C113.87639804190383,-49.94690458187887 113.98704452026028,-50.75755919779872 116,-52.02922638016527 C117.58704452026029,-53.03182800433563 118.15404849765675,-53.0063691556225 120,-53.46791836212285 C121.75404849765674,-53.90648876401528 122.33353618268114,-53.40380056345415 124,-54.02949217659366 C125.93353618268115,-54.75545895764974 126.17883509670473,-55.408945299619994 128,-56.471603682557515 C129.77883509670474,-57.50956242201949 130.12832426992443,-58.496502327267564 132,-58.697530226370326 C133.72832426992443,-58.88316141844503 134.15836351083234,-57.76911185762144 136,-57.330846107396326 C137.75836351083234,-56.91239734849294 138.23990852487773,-57.20701385447809 140,-56.793720206084764 C141.83990852487773,-56.36168441834033 142.1819954077538,-55.518694940643186 144,-55.45233624931242 C145.78199540775378,-55.38729192339579 146.17007858526742,-56.2545136120367 148,-56.50171350109054 C149.7700785852674,-56.74082935949402 150.21099335773087,-56.38518436827024 152,-56.53303791032868 C153.81099335773087,-56.6827085578592 154.19154929096703,-56.95206297296824 156,-57.162878366843785 C157.79154929096703,-57.37172352227775 158.19751982261116,-57.384650854701015 160,-57.465616908794246 C161.79751982261115,-57.546360147481074 162.28062262381863,-57.12888488185029 164,-57.52223235079948 C165.88062262381862,-57.95246841146613 166.1381334110923,-58.69035442815866 168,-59.295802530162774 C169.73813341109232,-59.86101465709242 170.24603812362128,-59.596694140756036 172,-60.12369952620782 C173.84603812362127,-60.678370665871554 174.19478941740059,-61.00392857467122 176,-61.6995281415306 C177.79478941740058,-62.39111213365961 178.19149464217688,-62.55177337334107 180,-63.20632965729313 C181.79149464217687,-63.85472921587382 182.18942565832128,-64.00241118787747 184,-64.59498556938114 C185.78942565832128,-65.18063829753335 186.18887684294563,-65.31048388147082 188,-65.82461212319508 C189.78887684294563,-66.3324252458657 190.18976830561613,-66.44096429597148 192,-66.86596637914755 C193.78976830561612,-67.28616411441493 194.19170231503963,-67.37156823413811 196,-67.70283394195829 Q197.79170231503966,-68.0310595104203 200,-68.33150254866354"
                  class="spline"
                  fill="none"/>
         </g>
      </g>
      <g id="exponential">
         <g>
            <path d="M0,-60.36671275745015 Q3.0278345555777726,-60.09022635313487 4,-58.49635248252708 C6.627834555577774,-54.18799441606146 5.3058737204681705,-51.147895431944114 8,-47.25064178617591 C8.905873720468168,-45.94022820737601 11.088911815903232,-45.69129607545992 12,-46.9237586501535 C14.688911815903232,-50.561148792620905 13.937103373483286,-53.1690468500432 16,-58.072536713200336 C17.537103373483284,-61.72621994367162 17.753934216508924,-62.74612011173455 20,-65.93969885821666 C21.353934216508925,-67.86479631963525 21.962835830463913,-68.76069761500975 24,-69.44737273075744 C25.56283583046391,-69.97416408651883 26.38167340298948,-69.40648248262546 28,-68.6362910171257 C29.98167340298948,-67.69317610743455 31.161290483617424,-67.62743466848988 32,-65.64002523033318 C34.76129048361743,-59.09686021140869 33.68380741971175,-56.67340890372843 36,-49.67945889027861 C37.28380741971175,-45.80288791911931 37.77869253802418,-42.6469711563043 40,-41.48331193120179 C41.37869253802418,-40.76106689402679 42.31027898410541,-45.69766931087309 44,-45.48856052966191 C45.91027898410541,-45.252156942098004 46.555924508941764,-39.8288167010429 48,-40.49328444503493 C50.155924508941766,-41.485297884459676 49.66278612210019,-45.68157787418902 52,-49.16962982614364 C53.26278612210018,-51.0542085716929 53.9750650426878,-51.694851717595355 56,-52.43246377282132 C57.575065042687804,-53.0062041584353 58.37637466718042,-51.58452304774246 60,-52.08374636134352 C61.97637466718042,-52.6914310841198 62.0614456448156,-53.910354394058686 64,-54.892259409215406 C65.6614456448156,-55.73380496954072 66.2982542554,-56.38506555680708 68,-56.13585875130359 C69.89825425539999,-55.857874874732865 70.30021731182222,-54.947651496555544 72,-53.720724560161585 C73.90021731182222,-52.349121106912996 74.6638832522567,-52.24102273846719 76,-50.361346774320154 C78.26388325225669,-47.176470196663885 78.29991344295617,-46.06635570519089 80,-42.466163356154254 C81.89991344295618,-38.44280712595361 81.90144640220792,-37.32442138177269 84,-33.42012770934843 C85.50144640220792,-30.62673339538277 85.9093777536649,-28.277310505957022 88,-27.582412275287773 C89.5093777536649,-27.080712873460428 90.0474630076622,-29.59291580566087 92,-30.761021859355996 C93.64746300766221,-31.74661727703097 94.6314671395687,-31.104675354523998 96,-32.36841554499911 C98.2314671395687,-34.42901254601577 98.54903304505189,-35.35681386722918 100,-38.14843784044883 C102.1490330450519,-42.28312343569908 101.8171116196415,-43.65102376318419 104,-47.76021458604334 C105.4171116196415,-50.42786452856653 106.12230046041277,-53.041038730821796 108,-53.20808398574291 C109.72230046041278,-53.3613045161818 110.21413303044471,-50.614970455991255 112,-48.47191633128779 C113.81413303044472,-46.29494271570908 113.92424851796163,-44.26800301061051 116,-43.6080223406714 C117.52424851796162,-43.123390838903106 118.98943950149823,-44.22631398423999 120,-45.928333727493566 C122.58943950149822,-50.2895542205217 122.14185431970124,-52.08443476764322 124,-57.08188953240854 C125.74185431970123,-61.76658043786992 125.70233004520782,-63.07170675170714 128,-67.44421299466399 C129.3023300452078,-69.92256992368449 130.182367562507,-72.26984767319367 132,-72.30602991458044 C133.782367562507,-72.34151016463336 133.99190876898834,-69.49172904867127 136,-67.6034629756411 C137.59190876898833,-66.10654526920527 138.69176429288757,-66.48465224175733 140,-64.78339929354487 C142.29176429288756,-61.803148304609024 142.79465822583805,-60.83725461721666 144,-57.200120893089306 C146.39465822583804,-49.97421005380872 145.2838087361688,-44.9622073722113 148,-40.64330026374946 C148.8838087361688,-39.237991335770666 151.0740540428656,-42.24182969377902 152,-44.479640812110105 C154.6740540428656,-50.94225109949905 153.1334349364273,-54.10974699499553 156,-59.97757005423843 C156.7334349364273,-61.478902253919486 159.24061923682785,-62.17587628636386 160,-60.85554138749668 C162.84061923682785,-55.91655834411532 161.46246615175014,-49.16806415757152 164,-46.06797462701945 C165.06246615175013,-44.769966249366384 165.7899158883345,-49.84076204263203 168,-51.08199048037416 C169.38991588833449,-51.862595669816585 171.26955854868874,-49.20846425367457 172,-50.56093824298513 C174.86955854868873,-55.87416805892477 173.3010123424919,-59.553441154342444 176,-65.89466560315236 C176.9010123424919,-68.01157839413722 178.79562002216514,-67.37033413841635 180,-69.35679877586242 C182.39562002216513,-73.30805547754203 181.40810295627156,-76.2169867782131 184,-79.08960191232053 C185.00810295627156,-80.20688850205268 186.58149397703258,-79.23854773062055 188,-78.22324705106148 C190.18149397703257,-76.66183505740509 189.85884661240658,-75.07806807091792 192,-73.36357374961949 C193.45884661240657,-72.19542566312121 194.85646694310705,-73.22458264516753 196,-71.81737503373546 Q198.45646694310705,-68.794498730567 200,-63.51894282828496"
                  class="spline"
                  fill="none"/>
         </g>
      </g>
      <g id="parabolic">
         <g>
            <path d="M0,-56.58517330097402 Q2.1989519123780727,-56.38529985407306 4,-56.24649445264012 C5.798951912378073,-56.107850601833285 6.199402233103871,-56.08436365182916 8,-55.96861940710786 C9.799402233103871,-55.852952012507316 10.199643416887415,-55.83219081640878 12,-55.732246365258256 C13.799643416887415,-55.63234150460198 14.199783322033941,-55.61361356657226 16,-55.52450982531496 C17.79978332203394,-55.435427533495 18.199871528935294,-55.41815756029464 20,-55.336277402864354 C21.799871528935295,-55.25440893263437 22.19993307432751,-55.23811334856378 24,-55.16062398606993 C25.79993307432751,-55.08314038561483 26.233694634421937,-55.2784380478148 28,-54.99189304075558 C29.833694634421935,-54.694415576097065 30.19840718545216,-54.36517775505943 32,-53.86279627114163 C33.79840718545216,-53.36130311285401 34.25089832745556,-52.60622560881217 36,-52.76106050252132 C37.85089832745555,-52.92490669299527 38.17689976270955,-53.812069307394744 40,-54.5709764582152 C41.776899762709554,-55.310651605323756 42.14500486879022,-55.84348637514921 44,-56.091243386808 C45.74500486879021,-56.32430987002812 46.27785357936585,-56.12580325856906 48,-55.63947311350166 C49.877853579365855,-55.109171628839256 50.310741778645585,-54.83474853555237 52,-53.83206198740845 C53.91074177864558,-52.697910290405964 54.277329939938326,-52.308831830265746 56,-50.89094367984298 C57.87732993993833,-49.34575871495357 58.15954002518673,-48.840217595820086 60,-47.247455064492506 C61.75954002518673,-45.72472190928061 61.982571294017916,-44.96676429196347 64,-43.96761993197747 C65.58257129401791,-43.183841462877105 66.1929974620971,-43.335700884170784 68,-43.28540433318947 C69.79299746209709,-43.235497602916475 70.20725034565153,-43.796328252783006 72,-43.74494597363456 C73.80725034565152,-43.693148087897335 74.39503731678676,-42.57740039977282 76,-43.05611507788797 C77.99503731678676,-43.65117791450248 78.00898631924912,-45.56244722714394 80,-46.131118228589365 C81.60898631924913,-46.59067502135551 82.26731599440721,-45.906103155535355 84,-45.34106573169145 C85.86731599440722,-44.732124103802754 86.15114003497816,-44.20822655830712 88,-43.52227589140581 C89.75114003497816,-42.87258056695941 90.16459702491802,-42.659915794955104 92,-42.37296352869653 C93.76459702491802,-42.09708127166208 94.22121075342504,-42.097330516629825 96,-42.2715325063102 C97.82121075342505,-42.44988895718532 98.3034754248294,-42.48857771084613 100,-43.15642672993097 C101.9034754248294,-43.90574342945274 102.0917887581813,-44.694883910728535 104,-45.42078965876934 C105.69178875818129,-46.064365777136686 106.31116593786362,-45.55079941985853 108,-46.19971976639353 C109.91116593786361,-46.93406927442957 110.31410856822028,-47.2991003077613 112,-48.4947226689272 C113.91410856822029,-49.852195020185015 113.95913949094998,-51.01456745940781 116,-51.87326357177955 C117.55913949094997,-52.52927460907833 118.20713979476605,-51.97694584026834 120,-51.86073855708391 C121.80713979476604,-51.743605718019744 122.46125768940334,-50.75401556639433 124,-51.35472996678267 C126.06125768940335,-52.159430772374776 126.18339595938355,-53.36945132068685 128,-54.98388345926269 C129.78339595938354,-56.56880328122791 130.10921869947197,-58.265940562346074 132,-58.46440099020725 C133.70921869947196,-58.643804221194785 134.04953009850917,-56.627591138926725 136,-55.82358047892648 C137.64953009850916,-55.1436213664178 138.26078854159695,-55.67386810684146 140,-55.16669038463186 C141.86078854159695,-54.6240591309789 142.3469676515199,-53.18054118794096 144,-53.49067164367636 C145.94696765151988,-53.855948200800675 146.032690908296,-55.54105925058767 148,-56.66759485765346 C149.63269090829598,-57.60251883644467 150.25615476767092,-57.31042365598737 152,-58.0716929455808 C153.85615476767092,-58.88199055408648 154.09667791980132,-59.562274913862375 156,-60.159965742318136 C157.69667791980132,-60.69276512612121 158.22766318396503,-60.73323179371087 160,-60.5838934172671 C161.82766318396503,-60.429893201218995 162.2087083373731,-59.45370503061498 164,-59.48587998122507 C165.8087083373731,-59.51836776790839 166.18139151571987,-60.652571162265524 168,-60.72758838903023 C169.78139151571986,-60.80107042347943 170.1824330434895,-59.92481938211773 172,-59.81587833947819 C173.7824330434895,-59.7090431477966 174.20035678780096,-60.05034520813808 176,-60.24808564609439 C177.80035678780095,-60.44590449000976 178.20073887552974,-60.48742518827562 180,-60.69489896585969 C181.80073887552976,-60.90254314372112 182.20127418353337,-60.946298360916614 184,-61.170569991528815 C185.80127418353337,-61.39515936174992 186.20210936477721,-61.44238693237802 188,-61.69236785660038 C189.8021093647772,-61.94293535816642 190.20352864625175,-61.9951287410382 192,-62.282899826614155 C193.80352864625175,-62.57180139763911 194.2061347111555,-62.63083710046742 196,-62.973862649046836 Q197.8061347111555,-63.3192343745355 200,-63.81267154676544"
                  class="spline"
                  fill="none"/>
         </g>
      </g>
      <text x="100" y="8" text-anchor="middle" font-size="5">Fake independent
                    variable</text>
      <text x="-10"
            y="-50"
            text-anchor="middle"
            font-size="5"
            writing-mode="tb">Fake
                    dependent variable</text>
      <text x="100" y="-106" text-anchor="middle" font-size="8">Smoothing examples (window                     = 15)</text>
   </g>
   <g transform="translate(50, 15)">
      <rect x="0"
            y="0"
            width="100"
            height="51"
            fill="ghostwhite"
            stroke="black"
            stroke-width="0.5"/>
      <rect x="2"
            y="2"
            width="5"
            height="5"
            fill="black"
            class="toggle"
            id="data-box"/>
      <rect x="2"
            y="9"
            width="5"
            height="5"
            fill="red"
            class="toggle"
            id="regression-box"/>
      <rect x="2" y="16" width="5" height="5" fill="gray"/>
      <rect x="2"
            y="23"
            width="5"
            height="5"
            fill="blue"
            class="toggle"
            id="rectangular-box"/>
      <rect x="2"
            y="30"
            width="5"
            height="5"
            fill="green"
            class="toggle"
            id="gaussian-box"/>
      <rect x="2"
            y="37"
            width="5"
            height="5"
            fill="indigo"
            class="toggle"
            id="exponential-box"/>
      <rect x="2"
            y="44"
            width="5"
            height="5"
            fill="darkgoldenrod"
            class="toggle"
            id="parabolic-box"/>
      <text x="10"
            y="6"
            fill="black"
            font-size="5"
            alignment-baseline="central">
         <tspan>Actual data (101 points)</tspan>
         <tspan x="10" dy="7" fill="red">Regression line (48.5–60.2)</tspan>
         <tspan x="10" dy="7" fill="gray">Y intercept of regression line (48.5)</tspan>
         <tspan x="10" dy="7" fill="blue">Rectangular kernel</tspan>
         <tspan x="10" dy="7" fill="green">Gaussian kernel (σ = 5)</tspan>
         <tspan x="10" dy="7" fill="indigo">Exponential kernel (y = 1 - 2<tspan dy="-2" font-size="4">-d</tspan>
            <tspan dy="2">)</tspan>
         </tspan>
         <tspan x="10" dy="7" fill="darkgoldenrod">Parabolic kernel (y = 1 - (d/N)<tspan dy="-2" font-size="4">2</tspan>
            <tspan dy="2" dx="-1">)</tspan>
         </tspan>
      </text>
   </g>
</svg>
