<?xml version="1.0" encoding="UTF-8"?>
<svg xmlns="http://www.w3.org/2000/svg" viewBox="-12 -115 210 195">
   <style type="text/css">
                #linear {
                    stroke: blue;
                    stroke-width: 0.5;
                    stroke-opacity: 0.5;
                    fill: none;
                }
                #gaussian {
                    stroke: green;
                    stroke-width: 0.5;
                    stroke-opacity: 0.5;
                    fill: none;
                }
                .regression {
                    stroke: red;
                    stroke-width: 0.5;
                    stroke-opacity: 0.5;
                }</style>
   <g>
      <line x1="2"
            y1="0"
            x2="200"
            y2="0"
            stroke="lightgray"
            stroke-width="0.5"
            stroke-linecap="square"/>
      <text x="0"
            y="0"
            fill="lightgray"
            font-size="3"
            text-anchor="end"
            alignment-baseline="central">0.0</text>
      <line x1="2"
            y1="-100"
            x2="200"
            y2="-100"
            stroke="lightgray"
            stroke-width="0.5"
            stroke-linecap="square"/>
      <text x="0"
            y="-100"
            fill="lightgray"
            font-size="3"
            text-anchor="end"
            alignment-baseline="central">100.0</text>
      <text x="0"
            y="-51.232479604752825"
            fill="lightgray"
            font-size="3"
            text-anchor="end"
            alignment-baseline="central">51.2</text>
      <text x="208"
            y="-100"
            font-size="3"
            fill="lightgray"
            text-anchor="end"
            alignment-baseline="central">100.0</text>
      <text x="208"
            y="0"
            font-size="3"
            fill="lightgray"
            text-anchor="end"
            alignment-baseline="central">0.0</text>
      <text x="208"
            y="-50.847738478803315"
            fill="red"
            fill-opacity="0.5"
            font-size="3"
            text-anchor="end"
            alignment-baseline="central">50.8</text>
      <line x1="2"
            y1="-100"
            x2="2"
            y2="0"
            stroke="lightgray"
            stroke-width="0.5"
            stroke-linecap="square"/>
      <line x1="200"
            y1="-100"
            x2="200"
            y2="0"
            stroke="lightgray"
            stroke-width="0.5"
            stroke-linecap="square"/>
      <line x1="2"
            y1="-51.232479604752825"
            x2="200"
            y2="-51.232479604752825"
            stroke="lightgray"
            stroke-width="0.5"/>
      <circle cx="2" cy="-81.48385124980821" r="0.65" fill="black"/>
      <circle cx="4" cy="-56.92123831121019" r="0.65" fill="black"/>
      <circle cx="6" cy="-25.996933666953904" r="0.65" fill="black"/>
      <circle cx="8" cy="-45.59102113871619" r="0.65" fill="black"/>
      <circle cx="10" cy="-93.61009873459405" r="0.65" fill="black"/>
      <circle cx="12" cy="-84.28426225262093" r="0.65" fill="black"/>
      <circle cx="14" cy="-37.250168365546614" r="0.65" fill="black"/>
      <circle cx="16" cy="-66.86974433020391" r="0.65" fill="black"/>
      <circle cx="18" cy="-67.33594668670389" r="0.65" fill="black"/>
      <circle cx="20" cy="-45.859173263764944" r="0.65" fill="black"/>
      <circle cx="22" cy="-95.56296026263772" r="0.65" fill="black"/>
      <circle cx="24" cy="-70.37351957898154" r="0.65" fill="black"/>
      <circle cx="26" cy="-18.480108455253266" r="0.65" fill="black"/>
      <circle cx="28" cy="-41.17512935697383" r="0.65" fill="black"/>
      <circle cx="30" cy="-51.60019550697128" r="0.65" fill="black"/>
      <circle cx="32" cy="0.7962765874291104" r="0.65" fill="black"/>
      <circle cx="34" cy="-15.930141335451445" r="0.65" fill="black"/>
      <circle cx="36" cy="-77.86058002582489" r="0.65" fill="black"/>
      <circle cx="38" cy="-66.93869819797948" r="0.65" fill="black"/>
      <circle cx="40" cy="-1.462965262462936" r="0.65" fill="black"/>
      <circle cx="42" cy="-43.23971307259828" r="0.65" fill="black"/>
      <circle cx="44" cy="-63.716941143488" r="0.65" fill="black"/>
      <circle cx="46" cy="-65.2731355409554" r="0.65" fill="black"/>
      <circle cx="48" cy="-70.73722254851998" r="0.65" fill="black"/>
      <circle cx="50" cy="-87.37543133128776" r="0.65" fill="black"/>
      <circle cx="52" cy="-61.98386709538699" r="0.65" fill="black"/>
      <circle cx="54" cy="-66.93849108012797" r="0.65" fill="black"/>
      <circle cx="56" cy="-47.86311572198314" r="0.65" fill="black"/>
      <circle cx="58" cy="-89.63612527925449" r="0.65" fill="black"/>
      <circle cx="60" cy="-4.213669334791938" r="0.65" fill="black"/>
      <circle cx="62" cy="-20.60898418772713" r="0.65" fill="black"/>
      <circle cx="64" cy="-58.667618094794584" r="0.65" fill="black"/>
      <circle cx="66" cy="-90.50171185569313" r="0.65" fill="black"/>
      <circle cx="68" cy="-69.27750137375196" r="0.65" fill="black"/>
      <circle cx="70" cy="-27.24471145240678" r="0.65" fill="black"/>
      <circle cx="72" cy="-56.537020102765865" r="0.65" fill="black"/>
      <circle cx="74" cy="-13.560621402700791" r="0.65" fill="black"/>
      <circle cx="76" cy="-23.65724620808717" r="0.65" fill="black"/>
      <circle cx="78" cy="-7.477487311380806" r="0.65" fill="black"/>
      <circle cx="80" cy="-35.69841404045334" r="0.65" fill="black"/>
      <circle cx="82" cy="-70.31162945159654" r="0.65" fill="black"/>
      <circle cx="84" cy="-21.59191059401029" r="0.65" fill="black"/>
      <circle cx="86" cy="-64.55529599786999" r="0.65" fill="black"/>
      <circle cx="88" cy="-3.721644544782933" r="0.65" fill="black"/>
      <circle cx="90" cy="-97.00104893594678" r="0.65" fill="black"/>
      <circle cx="92" cy="-57.43026791873489" r="0.65" fill="black"/>
      <circle cx="94" cy="-28.228422080277294" r="0.65" fill="black"/>
      <circle cx="96" cy="-65.36679889459998" r="0.65" fill="black"/>
      <circle cx="98" cy="-75.58374783948949" r="0.65" fill="black"/>
      <circle cx="100" cy="-40.404897591328925" r="0.65" fill="black"/>
      <circle cx="102" cy="-40.266721238175805" r="0.65" fill="black"/>
      <circle cx="104" cy="-10.849346361079094" r="0.65" fill="black"/>
      <circle cx="106" cy="-58.81922213205018" r="0.65" fill="black"/>
      <circle cx="108" cy="-34.661699072877326" r="0.65" fill="black"/>
      <circle cx="110" cy="-91.06045261964776" r="0.65" fill="black"/>
      <circle cx="112" cy="-4.937534178165894" r="0.65" fill="black"/>
      <circle cx="114" cy="-95.40862511940094" r="0.65" fill="black"/>
      <circle cx="116" cy="-9.93398016105547" r="0.65" fill="black"/>
      <circle cx="118" cy="-79.21404738339581" r="0.65" fill="black"/>
      <circle cx="120" cy="-42.20494066052017" r="0.65" fill="black"/>
      <circle cx="122" cy="-40.36043927834861" r="0.65" fill="black"/>
      <circle cx="124" cy="-16.506628761924482" r="0.65" fill="black"/>
      <circle cx="126" cy="-41.59759299034207" r="0.65" fill="black"/>
      <circle cx="128" cy="-17.872318169123126" r="0.65" fill="black"/>
      <circle cx="130" cy="-85.2141168693363" r="0.65" fill="black"/>
      <circle cx="132" cy="-60.47287833482558" r="0.65" fill="black"/>
      <circle cx="134" cy="-41.88538611501727" r="0.65" fill="black"/>
      <circle cx="136" cy="-54.44593702879902" r="0.65" fill="black"/>
      <circle cx="138" cy="-22.735859316757104" r="0.65" fill="black"/>
      <circle cx="140" cy="-11.884137496241067" r="0.65" fill="black"/>
      <circle cx="142" cy="-97.01953720696531" r="0.65" fill="black"/>
      <circle cx="144" cy="-31.236556082754717" r="0.65" fill="black"/>
      <circle cx="146" cy="-45.42096273336267" r="0.65" fill="black"/>
      <circle cx="148" cy="-72.93982552051439" r="0.65" fill="black"/>
      <circle cx="150" cy="-27.5472487530561" r="0.65" fill="black"/>
      <circle cx="152" cy="-59.73015859561105" r="0.65" fill="black"/>
      <circle cx="154" cy="-32.561055800864935" r="0.65" fill="black"/>
      <circle cx="156" cy="-94.48535483804797" r="0.65" fill="black"/>
      <circle cx="158" cy="-9.188156876653299" r="0.65" fill="black"/>
      <circle cx="160" cy="-95.17474221561989" r="0.65" fill="black"/>
      <circle cx="162" cy="-57.912470543562016" r="0.65" fill="black"/>
      <circle cx="164" cy="-17.36820614886138" r="0.65" fill="black"/>
      <circle cx="166" cy="-73.8383294732886" r="0.65" fill="black"/>
      <circle cx="168" cy="-83.02725144581339" r="0.65" fill="black"/>
      <circle cx="170" cy="-72.08571127828051" r="0.65" fill="black"/>
      <circle cx="172" cy="-92.72549301482496" r="0.65" fill="black"/>
      <circle cx="174" cy="-58.07958836248146" r="0.65" fill="black"/>
      <circle cx="176" cy="-27.948245604708713" r="0.65" fill="black"/>
      <circle cx="178" cy="1.9347324293360262" r="0.65" fill="black"/>
      <circle cx="180" cy="-68.06248321055857" r="0.65" fill="black"/>
      <circle cx="182" cy="-70.31139067729418" r="0.65" fill="black"/>
      <circle cx="184" cy="-66.47062400798929" r="0.65" fill="black"/>
      <circle cx="186" cy="-43.51487071913819" r="0.65" fill="black"/>
      <circle cx="188" cy="-9.761426258671914" r="0.65" fill="black"/>
      <circle cx="190" cy="-61.36894163864577" r="0.65" fill="black"/>
      <circle cx="192" cy="-40.46797941168998" r="0.65" fill="black"/>
      <circle cx="194" cy="-74.60859491488776" r="0.65" fill="black"/>
      <circle cx="196" cy="-11.83441212585833" r="0.65" fill="black"/>
      <circle cx="198" cy="-87.92645235878959" r="0.65" fill="black"/>
      <circle cx="200" cy="-90.610181516268" r="0.65" fill="black"/>
      <polyline points="2,-81.48385124980821 4,-56.92123831121019 6,-25.996933666953904 8,-45.59102113871619 10,-93.61009873459405 12,-84.28426225262093 14,-37.250168365546614 16,-66.86974433020391 18,-67.33594668670389 20,-45.859173263764944 22,-95.56296026263772 24,-70.37351957898154 26,-18.480108455253266 28,-41.17512935697383 30,-51.60019550697128 32,0.7962765874291104 34,-15.930141335451445 36,-77.86058002582489 38,-66.93869819797948 40,-1.462965262462936 42,-43.23971307259828 44,-63.716941143488 46,-65.2731355409554 48,-70.73722254851998 50,-87.37543133128776 52,-61.98386709538699 54,-66.93849108012797 56,-47.86311572198314 58,-89.63612527925449 60,-4.213669334791938 62,-20.60898418772713 64,-58.667618094794584 66,-90.50171185569313 68,-69.27750137375196 70,-27.24471145240678 72,-56.537020102765865 74,-13.560621402700791 76,-23.65724620808717 78,-7.477487311380806 80,-35.69841404045334 82,-70.31162945159654 84,-21.59191059401029 86,-64.55529599786999 88,-3.721644544782933 90,-97.00104893594678 92,-57.43026791873489 94,-28.228422080277294 96,-65.36679889459998 98,-75.58374783948949 100,-40.404897591328925 102,-40.266721238175805 104,-10.849346361079094 106,-58.81922213205018 108,-34.661699072877326 110,-91.06045261964776 112,-4.937534178165894 114,-95.40862511940094 116,-9.93398016105547 118,-79.21404738339581 120,-42.20494066052017 122,-40.36043927834861 124,-16.506628761924482 126,-41.59759299034207 128,-17.872318169123126 130,-85.2141168693363 132,-60.47287833482558 134,-41.88538611501727 136,-54.44593702879902 138,-22.735859316757104 140,-11.884137496241067 142,-97.01953720696531 144,-31.236556082754717 146,-45.42096273336267 148,-72.93982552051439 150,-27.5472487530561 152,-59.73015859561105 154,-32.561055800864935 156,-94.48535483804797 158,-9.188156876653299 160,-95.17474221561989 162,-57.912470543562016 164,-17.36820614886138 166,-73.8383294732886 168,-83.02725144581339 170,-72.08571127828051 172,-92.72549301482496 174,-58.07958836248146 176,-27.948245604708713 178,1.9347324293360262 180,-68.06248321055857 182,-70.31139067729418 184,-66.47062400798929 186,-43.51487071913819 188,-9.761426258671914 190,-61.36894163864577 192,-40.46797941168998 194,-74.60859491488776 196,-11.83441212585833 198,-87.92645235878959 200,-90.610181516268"
                stroke="black"
                stroke-width="0.5"
                fill="none"/>
      <g>
         <line x1="2"
               y1="-51.232479604752825"
               x2="200"
               y2="-50.847738478803315"
               class="regression"/>
      </g>
      <g id="linear">
         <g>
            <path d="M2,-53.614894654199645 Q3.2,-53.614894654199645 4,-53.614894654199645 C4.8,-53.614894654199645 5.2,-53.614894654199645 6,-53.614894654199645 C6.8,-53.614894654199645 7.2,-53.614894654199645 8,-53.614894654199645 C8.8,-53.614894654199645 9.2,-53.614894654199645 10,-53.614894654199645 C10.8,-53.614894654199645 11.2,-53.614894654199645 12,-53.614894654199645 C12.8,-53.614894654199645 13.2,-53.614894654199645 14,-53.614894654199645 C14.8,-53.614894654199645 15.2,-53.614894654199645 16,-53.614894654199645 C16.8,-53.614894654199645 17.2,-53.614894654199645 18,-53.614894654199645 C18.8,-53.614894654199645 19.2,-53.614894654199645 20,-53.614894654199645 C20.8,-53.614894654199645 21.2,-53.614894654199645 22,-53.614894654199645 C22.8,-53.614894654199645 23.274906101956404,-53.37009906280731 24,-53.614894654199645 C24.874906101956405,-53.910267649640716 25.153244411512777,-54.84456409584833 26,-54.965316121283166 C26.753244411512775,-55.072732936211 27.179557927441607,-54.26311707302069 28,-54.18531675510632 C28.77955792744161,-54.11139337085264 29.22711986309449,-54.339586131145545 30,-54.58600686586305 C30.82711986309449,-54.8497210883287 31.27960614649033,-54.98583329354217 32,-55.46065414806421 C32.87960614649033,-56.04041387267125 33.36938614702064,-57.50845005328039 34,-57.22245831368575 C34.96938614702064,-56.78282884913217 35.10634570761831,-55.01453302187387 36,-53.64660113769367 C36.70634570761831,-52.56538570243874 37.04298300815873,-51.50400461265316 38,-51.09959001509791 C38.64298300815872,-50.82787935928282 39.206632318928804,-51.59888048725783 40,-51.956288004267826 C40.806632318928806,-52.31967116333363 41.1600098976975,-52.68675164989196 42,-52.90156670528741 C42.7600098976975,-53.09592800529256 43.2256496221256,-53.10833561208907 44,-52.97922889276933 C44.8256496221256,-52.84156909810011 45.2690168726963,-52.65599203323472 46,-52.23465042031499 C46.8690168726963,-51.73374560169503 47.27047308143692,-51.3727829380205 48,-50.67361281392011 C48.87047308143692,-49.83936152464205 49.03857396950334,-48.897536528624784 50,-48.40109688686887 C50.63857396950334,-48.07136436184963 51.27256012596775,-48.81565191748284 52,-48.60818239698223 C52.87256012596775,-48.359323848798695 53.14446697357161,-47.68461616422272 54,-47.26027671515852 C54.74446697357161,-46.89102538802894 55.39776562293291,-46.29173519607566 56,-46.62420545649779 C56.99776562293291,-47.17503318923579 56.986617008443396,-48.69055086591987 58,-49.46852169805882 C58.5866170084434,-49.91886567068122 59.211134623639985,-49.75528950995391 60,-49.69499246840118 C60.81113462363999,-49.63299327364358 61.37446056455209,-49.6414585064052 62,-49.16278110728298 C62.97446056455209,-48.41710110350678 63.315610483462166,-46.412897220059236 64,-46.634098961155125 C64.91561048346216,-46.93003370038383 64.92037907843648,-49.27096896968984 66,-50.45562230809447 C66.52037907843648,-51.026627186003765 67.26595176648574,-51.17958183204987 68,-51.02324450193994 C68.86595176648574,-50.838814404576695 69.11868687617822,-49.91564324793771 70,-49.60370373941152 C70.71868687617823,-49.34932555658465 71.2018696266845,-49.56802112748556 72,-49.607450273557305 C72.80186962668449,-49.64706414579938 73.323649991304,-50.08621702000393 74,-49.80131128519608 C74.92364999130399,-49.4122328848201 75.10844778947926,-48.53487646140171 76,-47.92248993559773 C76.70844778947925,-47.43587358784699 77.3272763117172,-47.57722544898993 78,-47.05380410130928 C78.92727631171721,-46.33232479976977 79.04830671624102,-45.23976640689028 80,-44.81023831254733 C80.64830671624101,-44.51763779394657 81.34741389211126,-45.53574000886676 82,-45.24848256895 C82.94741389211127,-44.83144689212579 83.31872438453932,-42.83236692384668 84,-43.04950552069491 C84.91872438453933,-43.34232463710234 84.9493575980732,-45.77557862098619 86,-46.52337685208915 C86.5493575980732,-46.9143839533909 87.26744949707124,-45.74217370582812 88,-45.896518851706695 C88.86744949707125,-46.07928661806884 89.36714117589725,-47.64352042708046 90,-47.36615913269095 C90.96714117589725,-46.94229283235997 90.95942890567669,-44.87841756672132 92,-44.14344986490545 C92.55942890567668,-43.74831859576142 93.20940082760079,-44.34407800646552 94,-44.54091170529121 C94.80940082760078,-44.742426409949644 95.20276174117618,-45.14901809406275 96,-45.13932087361575 C96.80276174117617,-45.12955646820189 97.18078698987611,-44.60064421977992 98,-44.49225764063906 C98.7807869898761,-44.38895504433683 99.22352092630507,-44.44791976584162 100,-44.610097935008014 C100.82352092630506,-44.78210143210528 101.18424382533688,-45.09656584509817 102,-45.32771180629821 C102.78424382533689,-45.549928687338124 103.32714268143206,-45.34039263010434 104,-45.74350504060791 C104.92714268143206,-46.29896116909034 105.07201461115031,-47.35593683913387 106,-47.72413315376321 C106.6720146111503,-47.99076806652766 107.22289370170863,-47.24933878727804 108,-47.330583109092366 C108.82289370170864,-47.416614377745816 109.17752128393582,-48.058559938873806 110,-48.14232212993265 C110.77752128393583,-48.22150580370479 111.21899705971809,-47.668400585521276 112,-47.737947771169814 C112.8189970597181,-47.81087827836773 113.43768720957922,-48.87022028022448 114,-48.49851636204878 C115.03768720957923,-47.81257713354078 115.0279752554771,-45.53637985177074 116,-45.09383990446056 C116.6279752554771,-44.80793757734713 117.10385136538454,-46.295674628018446 118,-46.67741067598976 C118.70385136538454,-46.97723308066977 119.22879967665435,-46.92835964990454 120,-46.797736036088864 C120.82879967665434,-46.65735641536438 121.17103638028591,-46.18716346922161 122,-45.99990258963937 C122.7710363802859,-45.825727333538204 123.21224721115809,-46.01625975598589 124,-45.89414569688036 C124.81224721115808,-45.76823461746993 125.21540980595033,-45.328011374388446 126,-45.37983974334945 C126.81540980595032,-45.433703990695044 127.20632992740752,-45.83158242017129 128,-46.15837723764685 C128.80632992740752,-46.49038476892683 129.2476619010979,-46.595170248447666 130,-47.0268456152383 C130.8476619010979,-47.51321572278021 131.16391029030632,-48.36827172307478 132,-48.45349092347821 C132.7639102903063,-48.53135317123116 133.15524383122025,-47.61498283957513 134,-47.43454923562925 C134.75524383122024,-47.27323479797109 135.34746765880385,-47.226595156731655 136,-47.59912081946813 C136.94746765880384,-48.14002277211355 137.29588316417735,-49.89460855708698 138,-49.71811827408397 C138.89588316417735,-49.49356083540469 139.14687279250813,-46.71710017158742 140,-46.59650151526241 C140.74687279250813,-46.49092305705452 141.01112802485753,-48.48303558017766 142,-49.15267548775173 C142.61112802485752,-49.56651643417207 143.25980487174925,-49.05580249115171 144,-49.30520365024843 C144.85980487174925,-49.594906086034555 145.28666825146368,-49.913748897994665 146,-50.50043447495884 C146.8866682514637,-51.22968208766245 147.15705744617517,-51.80319313578238 148,-52.59503662441789 C148.75705744617517,-53.30620134917491 149.10965975726546,-54.009339851665565 150,-54.25795500844017 C150.70965975726546,-54.45611764710434 151.21477675203175,-53.97468852791871 152,-53.711981113014836 C152.81477675203178,-53.43938616017323 153.19309606517487,-53.21792016660771 154,-52.919699089076474 C154.7930960651749,-52.62658121849192 155.18534970676671,-52.29321010697318 156,-52.23363374272536 C156.7853497067667,-52.176200165912235 157.23568687716656,-52.364068996003226 158,-52.62717423642411 C158.83568687716655,-52.91484899977028 159.16604991728585,-53.49671477693003 160,-53.610583752142986 C160.76604991728584,-53.71518152226301 161.20369518679402,-53.363701741842846 162,-53.173341099756556 C162.80369518679402,-52.98121375195891 163.3225631837587,-52.40702908196164 164,-52.65436377743315 C164.92256318375868,-52.99119501931075 165.22818730036948,-54.68829804527379 166,-54.63375594312933 C166.82818730036948,-54.57522998682786 167.1475112115863,-52.484047552845965 168,-52.37169363131832 C168.7475112115863,-52.27317524943569 169.16230583874497,-54.024602721095626 170,-54.10657518460364 C170.76230583874496,-54.18117053268969 171.14282249462516,-52.92254752287017 172,-52.763113160303476 C172.7428224946252,-52.62494874256251 173.3705295568444,-52.87127932512999 174,-53.36257823383448 C174.97052955684438,-54.12007227875379 175.06298030070656,-55.54950190948693 176,-55.885095544362954 C176.66298030070655,-56.1225419599859 177.1480654656106,-55.02731288231029 178,-54.79517836008193 C178.7480654656106,-54.59134600859788 179.2,-54.79517836008193 180,-54.79517836008193 C180.8,-54.79517836008193 181.2,-54.79517836008193 182,-54.79517836008193 C182.8,-54.79517836008193 183.2,-54.79517836008193 184,-54.79517836008193 C184.8,-54.79517836008193 185.2,-54.79517836008193 186,-54.79517836008193 C186.8,-54.79517836008193 187.2,-54.79517836008193 188,-54.79517836008193 C188.8,-54.79517836008193 189.2,-54.79517836008193 190,-54.79517836008193 C190.8,-54.79517836008193 191.2,-54.79517836008193 192,-54.79517836008193 C192.8,-54.79517836008193 193.2,-54.79517836008193 194,-54.79517836008193 C194.8,-54.79517836008193 195.2,-54.79517836008193 196,-54.79517836008193 C196.8,-54.79517836008193 197.2,-54.79517836008193 198,-54.79517836008193 Q198.8,-54.79517836008193 200,-54.79517836008193"
                  class="spline"
                  fill="none"/>
         </g>
      </g>
      <g id="gaussian">
         <g>
            <path d="M2,-62.97538556328713 Q3.200336930855914,-62.954177146792404 4,-62.92476738910142 C4.800336930855915,-62.89533284833563 5.201204530623445,-62.88411173975371 6,-62.82827481714518 C6.801204530623446,-62.77226949777983 7.20326464362892,-62.74459444413696 8,-62.6451617841667 C8.80326464362892,-62.54491426842964 9.207041760346828,-62.49022663910662 10,-62.32907437787688 C10.807041760346827,-62.16505993413566 11.212400795639908,-62.071854563747806 12,-61.832245021739304 C12.812400795639908,-61.58509014716223 13.218008966011137,-61.4429171255568 14,-61.11216333641293 C14.818008966011137,-60.76617527094657 15.221597128984667,-60.568492761481714 16,-60.14039038521373 C16.821597128984667,-59.68853223264229 17.221148406905712,-59.435089130212404 18,-58.912262014314365 C18.821148406905714,-58.36104191395975 19.2159292257361,-58.05878520776644 20,-57.4552723445821 C20.815929225736102,-56.82723747918098 21.206540443118442,-56.49004888868643 22,-55.83339269285072 C22.806540443118443,-55.16591093581284 23.19445127477844,-54.81362851093454 24,-54.144927462398115 C24.79445127477844,-53.485438614831104 25.184724779323563,-53.146032430846354 26,-52.51291795259213 C26.784724779323565,-51.90352788818863 27.157421770458633,-51.558652276209195 28,-51.03866610575379 C28.75742177045863,-50.57123313391601 29.168892762606134,-50.3588674725258 30,-50.04437009685918 C30.768892762606132,-49.753415157317384 31.187295935227866,-49.613664602500585 32,-49.52503531773275 C32.78729593522787,-49.43917691162347 33.201243510362985,-49.5558885479488 34,-49.6081508696664 C34.80124351036299,-49.66057591616808 35.222141729342844,-49.61396040873531 36,-49.78675373828095 C36.822141729342846,-49.96938418926471 37.24706605454086,-50.11760078140176 38,-50.49671032098989 C38.84706605454086,-50.92321628990578 39.21970277941724,-51.25113798064621 40,-51.800792509541004 C40.81970277941724,-52.37820497900724 41.20160207573685,-52.706838303432825 42,-53.314377816892474 C42.80160207573685,-53.92435552384966 43.1812453307921,-54.258756653810366 44,-54.844585560583106 C44.781245330792096,-55.40357608029766 45.172408596018016,-55.690944937840875 46,-56.1764263831107 C46.77240859601802,-56.629536504517695 47.17210181634717,-56.85441481192757 48,-57.191064477275155 C48.772101816347174,-57.50502556961709 49.187663505969454,-57.61050631061696 50,-57.8029532773345 C50.787663505969455,-57.98955507798218 51.19953386354424,-58.13576967051255 52,-58.13868639568821 C52.79953386354424,-58.141599723863365 53.219036448836434,-58.02006555312309 54,-57.817528410711525 C54.819036448836435,-57.60511734283122 55.20505038398021,-57.40119331077859 56,-57.101315869958526 C56.80505038398021,-56.79762813426537 57.24547575016862,-56.71202200830244 58,-56.30861546942849 C58.845475750168625,-55.85658169297451 59.223606330348495,-55.53327766430515 60,-54.96271508163869 C60.8236063303485,-54.357456469528906 61.22691221883701,-54.03772142383981 62,-53.36906248248787 C62.82691221883701,-52.65384971841242 63.153792696759325,-52.192231199613545 64,-51.50303581807019 C64.75379269675932,-50.88910771409603 65.22199759528176,-50.697233886085755 66,-50.11125376869408 C66.82199759528176,-49.49213711242446 67.20294491873882,-49.14227814222679 68,-48.49029388391695 C68.80294491873882,-47.8334917887854 69.16551195356607,-47.45250690223477 70,-46.8392878850906 C70.76551195356606,-46.276755575869494 71.16819603343627,-46.00798656223566 72,-45.55091556800377 C72.76819603343628,-45.128796728851995 73.1832747713462,-44.96248274552892 74,-44.641313301631456 C74.78327477134621,-44.33329793256195 75.18038615406272,-44.146409018884725 76,-43.97795353558633 C76.78038615406271,-43.81756053174233 77.19909103895215,-43.834284662676296 78,-43.81919208377547 C78.79909103895216,-43.804133762367066 79.21832505613288,-43.764006966996014 80,-43.902576284813264 C80.81832505613289,-44.047642652452105 81.20194868526924,-44.27193236822755 82,-44.5282812974157 C82.80194868526924,-44.78588213452725 83.24966287102359,-44.82021245603868 84,-45.18745070056249 C84.8496628710236,-45.60330204143566 85.1676864911261,-46.02538315569893 86,-46.48600526090816 C86.76768649112611,-46.910861236346584 87.20870337784366,-47.01714381935572 88,-47.40114590218162 C88.80870337784366,-47.79359517188033 89.1666018857523,-48.104075151500936 90,-48.42713364221969 C90.76660188575231,-48.72429923926072 91.2079093201007,-48.71534027854173 92,-48.95170612158108 C92.8079093201007,-49.19279236636461 93.18996064463107,-49.38817794802954 94,-49.62076386177687 C94.78996064463107,-49.84758459232307 95.1900358326922,-49.97157289452972 96,-50.10022273231489 C96.79003583269221,-50.22570727326459 97.19880840892439,-50.22091052492705 98,-50.25609980861403 C98.7988084089244,-50.291184420118064 99.20052448291736,-50.29281239521719 100,-50.27590747029242 C100.80052448291737,-50.25898036496524 101.20288571706764,-50.24473948653129 102,-50.17151973298415 C102.80288571706764,-50.097769838409505 103.19815834151142,-49.997009376644996 104,-49.90848334998796 C104.79815834151142,-49.82036397396258 105.20359698990409,-49.82999539794259 106,-49.7299062262781 C106.8035969899041,-49.62891294015041 107.19693360607639,-49.51228958570155 108,-49.4057772055075 C108.79693360607638,-49.30007822982866 109.20264665029434,-49.302429477335 110,-49.19937783659588 C110.80264665029435,-49.09564207844409 111.19810535812415,-48.999279191812036 112,-48.88880870828022 C112.79810535812415,-48.778860243460635 113.21706656475145,-48.82215256121502 114,-48.648330465717365 C114.81706656475144,-48.466930341451274 115.18137318607735,-48.166462049604725 116,-48.00075315887085 C116.78137318607736,-47.84258525902692 117.20188587283495,-47.92162990264758 118,-47.83863848927284 C118.80188587283496,-47.755254873212564 119.20133115976283,-47.6959155089151 120,-47.584815585283316 C120.80133115976284,-47.473345316045084 121.19615625942401,-47.36653235428089 122,-47.2822130070978 C122.79615625942402,-47.19870003976131 123.19944675886917,-47.19884497046623 124,-47.165234798984365 C124.79944675886918,-47.131671081700226 125.20068127237485,-47.098984301738 126,-47.1142782851828 C126.80068127237485,-47.12959833925015 127.2008712636209,-47.17957615713336 128,-47.241769892764744 C128.8008712636209,-47.3040992439405 129.20359081258817,-47.32390058533944 130,-47.425586002200646 C130.80359081258817,-47.52818836798879 131.19674015661346,-47.64644435040782 132,-47.752489349388114 C132.79674015661348,-47.857673630404115 133.20567076137894,-47.83510755287775 134,-47.95365920219138 C134.80567076137896,-48.0739035453696 135.21341137591742,-48.14046344433763 136,-48.349479330617754 C136.8134113759174,-48.565622679812535 137.18204793538072,-48.82868739748368 138,-49.01655729087866 C138.78204793538075,-49.196180606968866 139.22534827375,-49.06790134848436 140,-49.26821235433072 C140.82534827375,-49.48163257568457 141.19200447243878,-49.76004850365239 142,-50.050885358879185 C142.7920044724388,-50.33596625627587 143.21365808800945,-50.4091394077199 144,-50.70800673588941 C144.81365808800945,-51.01725620498019 145.21397176243246,-51.19654597497373 146,-51.571177352029906 C146.81397176243246,-51.959126979881184 147.20442615516166,-52.1888713072548 148,-52.61445924815804 C148.80442615516168,-53.04478268476314 149.18801185526868,-53.29583159968356 150,-53.71095579580075 C150.7880118552687,-54.11382225397728 151.1956077936231,-54.289598499448026 152,-54.65943588389236 C152.79560779362313,-55.02523443726526 153.1990515068339,-55.19594718827124 154,-55.55004564034384 C154.7990515068339,-55.9033054368355 155.208134476027,-56.05923165390079 156,-56.42783150530302 C156.808134476027,-56.804004275500205 157.19782968757957,-57.022792443033154 158,-57.41197719434237 C158.79782968757956,-57.79905602752788 159.1806650996505,-58.03334799008573 160,-58.36849046653983 C160.7806650996505,-58.68781536612186 161.18592649696294,-58.828742724418994 162,-59.04814563443269 C162.78592649696293,-59.25996257706408 163.1959411050428,-59.31134477419864 164,-59.44654009815255 C164.7959411050428,-59.580370488214 165.20296845465785,-59.73959052406349 166,-59.72070991947109 C166.80296845465784,-59.70168867748743 167.19719528380656,-59.482063648667385 168,-59.35178548171242 C168.79719528380656,-59.222417606580954 169.22887141042753,-59.288300925874665 170,-59.07159481425502 C170.82887141042752,-58.8386615488887 171.2019785093656,-58.56986458177368 172,-58.22768703924751 C172.8019785093656,-57.8838127968692 173.19207151848514,-57.68547084158235 174,-57.35646535199381 C174.79207151848513,-57.0339171516386 175.21422044352292,-56.93515718465417 176,-56.59880281438814 C176.8142204435229,-56.25027427062363 177.19164431372647,-56.00746753499835 178,-55.64425806691744 C178.79164431372647,-55.28855733395992 179.1878184934165,-55.10607175692047 180,-54.801527311792064 C180.7878184934165,-54.5061182880768 181.18802251898822,-54.36249958111108 182,-54.144374394808246 C182.7880225189882,-53.93268433839073 183.19254686712725,-53.840852615286565 184,-53.72698920499117 C184.79254686712724,-53.61522780926907 185.1998004497683,-53.58318821126262 186,-53.58031237976451 C186.7998004497683,-53.57743798259072 187.20699121340115,-53.60697803119804 188,-53.71261363331141 C188.80699121340115,-53.82011181513289 189.211876361978,-53.90730382320716 190,-54.113146839601626 C190.81187636197802,-54.32519361909977 191.21381239858783,-54.46271434206709 192,-54.75733812304294 C192.81381239858783,-55.06231429596439 193.21337605644385,-55.24177063249692 194,-55.61214672434489 C194.81337605644387,-55.99511885156808 195.2115104583983,-56.208277068275535 196,-56.64070867072083 C196.81151045839832,-57.08576564283163 197.2090113815032,-57.32497517324245 198,-57.80586816073513 Q198.80901138150318,-58.29771834804375 200,-59.07256660772408"
                  class="spline"
                  fill="none"/>
         </g>
      </g>
      <text x="100" y="8" text-anchor="middle" font-size="5">Fake independent
                    variable</text>
      <text x="-10"
            y="-50"
            text-anchor="middle"
            font-size="5"
            writing-mode="tb">Fake
                    dependent variable</text>
      <text x="100" y="-106" text-anchor="middle" font-size="8">Smoothing examples (window                     = 25)</text>
   </g>
   <g transform="translate(50, 15)">
      <rect x="0"
            y="0"
            width="100"
            height="51"
            fill="ghostwhite"
            stroke="black"
            stroke-width="0.5"/>
      <rect x="2" y="2" width="5" height="5" fill="black"/>
      <rect x="2" y="9" width="5" height="5" fill="red"/>
      <rect x="2" y="16" width="5" height="5" fill="gray"/>
      <rect x="2" y="23" width="5" height="5" fill="blue"/>
      <rect x="2" y="30" width="5" height="5" fill="green"/>
      <rect x="2" y="37" width="5" height="5" fill="indigo"/>
      <rect x="2" y="44" width="5" height="5" fill="darkgoldenrod"/>
      <text x="10" y="6" fill="black" font-size="5">
         <tspan>Actual data (101 points)</tspan>
         <tspan x="10" dy="7" fill="red">Regression line (51.2–50.8)</tspan>
         <tspan x="10" dy="7" fill="gray">Y intercept of regression line (51.2)</tspan>
         <tspan x="10" dy="7" fill="blue">Rectangular kernel</tspan>
         <tspan x="10" dy="7" fill="green">Gaussian kernel (σ = 5)</tspan>
         <tspan x="10" dy="7" fill="indigo">Exponential kernel (y = 1 - 2<tspan dy="-2" font-size="4">-d</tspan>
            <tspan dy="2">)</tspan>
         </tspan>
         <tspan x="10" dy="7" fill="darkgoldenrod">Parabolic kernel (y = 1 - (d/N)<tspan dy="-2" font-size="4">2</tspan>
            <tspan dy="2">)</tspan>
         </tspan>
      </text>
   </g>
</svg>
