<?xml version="1.0" encoding="UTF-8"?>
<svg xmlns="http://www.w3.org/2000/svg" viewBox="-12 -115 210 195">
   <style type="text/css">
                #linear {
                    stroke: blue;
                    stroke-width: 0.5;
                    stroke-opacity: 0.5;
                    fill: none;
                }
                #gaussian {
                    stroke: green;
                    stroke-width: 0.5;
                    stroke-opacity: 0.5;
                    fill: none;
                }
                .regression {
                    stroke: red;
                    stroke-width: 0.5;
                    stroke-opacity: 0.5;
                }</style>
   <g>
      <line x1="2"
            y1="0"
            x2="200"
            y2="0"
            stroke="lightgray"
            stroke-width="0.5"
            stroke-linecap="square"/>
      <text x="0"
            y="0"
            fill="lightgray"
            font-size="3"
            text-anchor="end"
            alignment-baseline="central">0.0</text>
      <line x1="2"
            y1="-100"
            x2="200"
            y2="-100"
            stroke="lightgray"
            stroke-width="0.5"
            stroke-linecap="square"/>
      <text x="0"
            y="-100"
            fill="lightgray"
            font-size="3"
            text-anchor="end"
            alignment-baseline="central">100.0</text>
      <text x="0"
            y="-49.435765172401446"
            fill="lightgray"
            font-size="3"
            text-anchor="end"
            alignment-baseline="central">49.4</text>
      <text x="208"
            y="-100"
            font-size="3"
            fill="lightgray"
            text-anchor="end"
            alignment-baseline="central">100.0</text>
      <text x="208"
            y="0"
            font-size="3"
            fill="lightgray"
            text-anchor="end"
            alignment-baseline="central">0.0</text>
      <text x="208"
            y="-44.57521624260544"
            fill="red"
            fill-opacity="0.5"
            font-size="3"
            text-anchor="end"
            alignment-baseline="central">44.6</text>
      <line x1="2"
            y1="-100"
            x2="2"
            y2="0"
            stroke="lightgray"
            stroke-width="0.5"
            stroke-linecap="square"/>
      <line x1="200"
            y1="-100"
            x2="200"
            y2="0"
            stroke="lightgray"
            stroke-width="0.5"
            stroke-linecap="square"/>
      <line x1="2"
            y1="-49.435765172401446"
            x2="200"
            y2="-49.435765172401446"
            stroke="lightgray"
            stroke-width="0.5"/>
      <circle cx="2" cy="-35.586142623051344" r="0.65" fill="black"/>
      <circle cx="4" cy="-86.02061519276319" r="0.65" fill="black"/>
      <circle cx="6" cy="-57.6170173925271" r="0.65" fill="black"/>
      <circle cx="8" cy="-78.51806461829204" r="0.65" fill="black"/>
      <circle cx="10" cy="-94.11220126204955" r="0.65" fill="black"/>
      <circle cx="12" cy="-46.81233620804137" r="0.65" fill="black"/>
      <circle cx="14" cy="-52.938765731618446" r="0.65" fill="black"/>
      <circle cx="16" cy="-32.06374497953162" r="0.65" fill="black"/>
      <circle cx="18" cy="-60.027233067194466" r="0.65" fill="black"/>
      <circle cx="20" cy="-30.753692922344477" r="0.65" fill="black"/>
      <circle cx="22" cy="-88.63849502385385" r="0.65" fill="black"/>
      <circle cx="24" cy="-13.140097260852937" r="0.65" fill="black"/>
      <circle cx="26" cy="-33.5689053758079" r="0.65" fill="black"/>
      <circle cx="28" cy="-84.47421123705301" r="0.65" fill="black"/>
      <circle cx="30" cy="-35.43751685247994" r="0.65" fill="black"/>
      <circle cx="32" cy="-82.98645327971506" r="0.65" fill="black"/>
      <circle cx="34" cy="-39.404279279858926" r="0.65" fill="black"/>
      <circle cx="36" cy="-10.56456175920686" r="0.65" fill="black"/>
      <circle cx="38" cy="-35.77903040383783" r="0.65" fill="black"/>
      <circle cx="40" cy="-3.6534096887133956" r="0.65" fill="black"/>
      <circle cx="42" cy="-42.30367381972234" r="0.65" fill="black"/>
      <circle cx="44" cy="-40.80461956642579" r="0.65" fill="black"/>
      <circle cx="46" cy="-78.96979660349363" r="0.65" fill="black"/>
      <circle cx="48" cy="-62.275711179714435" r="0.65" fill="black"/>
      <circle cx="50" cy="-68.19462063195799" r="0.65" fill="black"/>
      <circle cx="52" cy="-19.61608894304733" r="0.65" fill="black"/>
      <circle cx="54" cy="-72.28531288748637" r="0.65" fill="black"/>
      <circle cx="56" cy="0.8558706095084228" r="0.65" fill="black"/>
      <circle cx="58" cy="-36.28446993498195" r="0.65" fill="black"/>
      <circle cx="60" cy="-26.082204672629363" r="0.65" fill="black"/>
      <circle cx="62" cy="-91.75117974284667" r="0.65" fill="black"/>
      <circle cx="64" cy="-93.8364434541435" r="0.65" fill="black"/>
      <circle cx="66" cy="-25.164783420266737" r="0.65" fill="black"/>
      <circle cx="68" cy="-28.084330072739217" r="0.65" fill="black"/>
      <circle cx="70" cy="-76.13312565785372" r="0.65" fill="black"/>
      <circle cx="72" cy="-0.7109507466013594" r="0.65" fill="black"/>
      <circle cx="74" cy="-25.737219377707433" r="0.65" fill="black"/>
      <circle cx="76" cy="-74.59572966836323" r="0.65" fill="black"/>
      <circle cx="78" cy="1.8225439481476906" r="0.65" fill="black"/>
      <circle cx="80" cy="-28.287399718456008" r="0.65" fill="black"/>
      <circle cx="82" cy="-18.270972261698926" r="0.65" fill="black"/>
      <circle cx="84" cy="-60.00577260785798" r="0.65" fill="black"/>
      <circle cx="86" cy="-74.00203161274072" r="0.65" fill="black"/>
      <circle cx="88" cy="-19.445008579609382" r="0.65" fill="black"/>
      <circle cx="90" cy="-31.99825733059604" r="0.65" fill="black"/>
      <circle cx="92" cy="-54.2284710431723" r="0.65" fill="black"/>
      <circle cx="94" cy="-4.426070234851222" r="0.65" fill="black"/>
      <circle cx="96" cy="-73.90929263026975" r="0.65" fill="black"/>
      <circle cx="98" cy="-16.524357260870573" r="0.65" fill="black"/>
      <circle cx="100" cy="-18.110969414663103" r="0.65" fill="black"/>
      <circle cx="102" cy="-77.83068618779768" r="0.65" fill="black"/>
      <circle cx="104" cy="-13.818889144176273" r="0.65" fill="black"/>
      <circle cx="106" cy="-85.98430455025408" r="0.65" fill="black"/>
      <circle cx="108" cy="-27.1003817010422" r="0.65" fill="black"/>
      <circle cx="110" cy="-29.347382913440736" r="0.65" fill="black"/>
      <circle cx="112" cy="-9.213244658946476" r="0.65" fill="black"/>
      <circle cx="114" cy="-87.33221549397868" r="0.65" fill="black"/>
      <circle cx="116" cy="-90.86504227187221" r="0.65" fill="black"/>
      <circle cx="118" cy="-17.865409150870928" r="0.65" fill="black"/>
      <circle cx="120" cy="-96.79611711831275" r="0.65" fill="black"/>
      <circle cx="122" cy="-95.87703688519369" r="0.65" fill="black"/>
      <circle cx="124" cy="-9.909153197628552" r="0.65" fill="black"/>
      <circle cx="126" cy="-32.2629194587077" r="0.65" fill="black"/>
      <circle cx="128" cy="-11.654881104442074" r="0.65" fill="black"/>
      <circle cx="130" cy="-32.84346880711394" r="0.65" fill="black"/>
      <circle cx="132" cy="-7.670122472365128" r="0.65" fill="black"/>
      <circle cx="134" cy="-68.74501914011294" r="0.65" fill="black"/>
      <circle cx="136" cy="-59.65517652405846" r="0.65" fill="black"/>
      <circle cx="138" cy="-69.9136356201277" r="0.65" fill="black"/>
      <circle cx="140" cy="-72.89653878932421" r="0.65" fill="black"/>
      <circle cx="142" cy="-87.14623574209534" r="0.65" fill="black"/>
      <circle cx="144" cy="-39.593450822792214" r="0.65" fill="black"/>
      <circle cx="146" cy="-75.3921856194636" r="0.65" fill="black"/>
      <circle cx="148" cy="-68.2725500485014" r="0.65" fill="black"/>
      <circle cx="150" cy="-88.22533961558887" r="0.65" fill="black"/>
      <circle cx="152" cy="-14.910609799304378" r="0.65" fill="black"/>
      <circle cx="154" cy="-33.93088485219212" r="0.65" fill="black"/>
      <circle cx="156" cy="-80.89100047108188" r="0.65" fill="black"/>
      <circle cx="158" cy="-33.90506434145853" r="0.65" fill="black"/>
      <circle cx="160" cy="-59.6107340710296" r="0.65" fill="black"/>
      <circle cx="162" cy="-82.52532149716782" r="0.65" fill="black"/>
      <circle cx="164" cy="1.7470826937488009" r="0.65" fill="black"/>
      <circle cx="166" cy="-26.932295974480905" r="0.65" fill="black"/>
      <circle cx="168" cy="-88.91930714939106" r="0.65" fill="black"/>
      <circle cx="170" cy="-80.06860392274281" r="0.65" fill="black"/>
      <circle cx="172" cy="-54.55222028494813" r="0.65" fill="black"/>
      <circle cx="174" cy="-22.52845604352085" r="0.65" fill="black"/>
      <circle cx="176" cy="-68.96147085092332" r="0.65" fill="black"/>
      <circle cx="178" cy="1.1177639944884392" r="0.65" fill="black"/>
      <circle cx="180" cy="-20.842748985564732" r="0.65" fill="black"/>
      <circle cx="182" cy="-39.03703975542546" r="0.65" fill="black"/>
      <circle cx="184" cy="-58.479157262384845" r="0.65" fill="black"/>
      <circle cx="186" cy="-81.17027546643918" r="0.65" fill="black"/>
      <circle cx="188" cy="-51.18432179180193" r="0.65" fill="black"/>
      <circle cx="190" cy="-27.845420009877653" r="0.65" fill="black"/>
      <circle cx="192" cy="-1.7235573395884347" r="0.65" fill="black"/>
      <circle cx="194" cy="-18.713920814260543" r="0.65" fill="black"/>
      <circle cx="196" cy="-70.7804446049625" r="0.65" fill="black"/>
      <circle cx="198" cy="-13.782600753291176" r="0.65" fill="black"/>
      <circle cx="200" cy="-52.0195772177324" r="0.65" fill="black"/>
      <polyline points="2,-35.586142623051344 4,-86.02061519276319 6,-57.6170173925271 8,-78.51806461829204 10,-94.11220126204955 12,-46.81233620804137 14,-52.938765731618446 16,-32.06374497953162 18,-60.027233067194466 20,-30.753692922344477 22,-88.63849502385385 24,-13.140097260852937 26,-33.5689053758079 28,-84.47421123705301 30,-35.43751685247994 32,-82.98645327971506 34,-39.404279279858926 36,-10.56456175920686 38,-35.77903040383783 40,-3.6534096887133956 42,-42.30367381972234 44,-40.80461956642579 46,-78.96979660349363 48,-62.275711179714435 50,-68.19462063195799 52,-19.61608894304733 54,-72.28531288748637 56,0.8558706095084228 58,-36.28446993498195 60,-26.082204672629363 62,-91.75117974284667 64,-93.8364434541435 66,-25.164783420266737 68,-28.084330072739217 70,-76.13312565785372 72,-0.7109507466013594 74,-25.737219377707433 76,-74.59572966836323 78,1.8225439481476906 80,-28.287399718456008 82,-18.270972261698926 84,-60.00577260785798 86,-74.00203161274072 88,-19.445008579609382 90,-31.99825733059604 92,-54.2284710431723 94,-4.426070234851222 96,-73.90929263026975 98,-16.524357260870573 100,-18.110969414663103 102,-77.83068618779768 104,-13.818889144176273 106,-85.98430455025408 108,-27.1003817010422 110,-29.347382913440736 112,-9.213244658946476 114,-87.33221549397868 116,-90.86504227187221 118,-17.865409150870928 120,-96.79611711831275 122,-95.87703688519369 124,-9.909153197628552 126,-32.2629194587077 128,-11.654881104442074 130,-32.84346880711394 132,-7.670122472365128 134,-68.74501914011294 136,-59.65517652405846 138,-69.9136356201277 140,-72.89653878932421 142,-87.14623574209534 144,-39.593450822792214 146,-75.3921856194636 148,-68.2725500485014 150,-88.22533961558887 152,-14.910609799304378 154,-33.93088485219212 156,-80.89100047108188 158,-33.90506434145853 160,-59.6107340710296 162,-82.52532149716782 164,1.7470826937488009 166,-26.932295974480905 168,-88.91930714939106 170,-80.06860392274281 172,-54.55222028494813 174,-22.52845604352085 176,-68.96147085092332 178,1.1177639944884392 180,-20.842748985564732 182,-39.03703975542546 184,-58.479157262384845 186,-81.17027546643918 188,-51.18432179180193 190,-27.845420009877653 192,-1.7235573395884347 194,-18.713920814260543 196,-70.7804446049625 198,-13.782600753291176 200,-52.0195772177324"
                stroke="black"
                stroke-width="0.5"
                fill="none"/>
      <g>
         <line x1="2"
               y1="-49.435765172401446"
               x2="200"
               y2="-44.57521624260544"
               class="regression"/>
      </g>
      <g id="linear">
         <g>
            <path d="M2,-51.10210730533956 Q3.2,-51.10210730533956 4,-51.10210730533956 C4.8,-51.10210730533956 5.2,-51.10210730533956 6,-51.10210730533956 C6.8,-51.10210730533956 7.2,-51.10210730533956 8,-51.10210730533956 C8.8,-51.10210730533956 9.2,-51.10210730533956 10,-51.10210730533956 C10.8,-51.10210730533956 11.2,-51.10210730533956 12,-51.10210730533956 C12.8,-51.10210730533956 13.2,-51.10210730533956 14,-51.10210730533956 C14.8,-51.10210730533956 15.2,-51.10210730533956 16,-51.10210730533956 C16.8,-51.10210730533956 17.2,-51.10210730533956 18,-51.10210730533956 C18.8,-51.10210730533956 19.2,-51.10210730533956 20,-51.10210730533956 C20.8,-51.10210730533956 21.2,-51.10210730533956 22,-51.10210730533956 C22.8,-51.10210730533956 23.222098899128873,-50.969144456005246 24,-51.10210730533956 C24.82209889912887,-51.24262466923114 25.19732392305214,-51.776798123347525 26,-51.785807838404295 C26.79732392305214,-51.79475747769336 27.195121954600907,-51.38609757983731 28,-51.14700569120414 C28.79512195460091,-50.91081188407282 29.355811452555184,-51.06275049126993 30,-50.597593598993065 C30.955811452555185,-49.90741944635293 31.13546669220766,-49.12931916483258 32,-48.25867807891164 C32.73546669220766,-47.51801544186705 33.301299396586195,-47.33974666914753 34,-46.56933429157923 C34.9012993965862,-45.57552920878384 35.109263973793084,-44.053815647126456 36,-43.848134428002425 C36.709263973793085,-43.68435719825262 37.184030692300446,-44.945288501137824 38,-45.645688169394646 C38.78403069230045,-46.318672841255115 39.101818613093045,-46.97622513792992 40,-47.281595278295654 C40.701818613093046,-47.52020459654209 41.26454144402749,-47.29130263208464 42,-47.00563681592505 C42.864541444027495,-46.66983279922511 43.2516495377976,-45.62736836372571 44,-45.727920696146846 C44.8516495377976,-45.842352839582574 45.3594909971033,-47.81562249055461 46,-47.54309800556722 C46.959490997103295,-47.13485270588672 46.940231776653576,-44.82432411104574 48,-44.02599623447713 C48.54023177665357,-43.619037356479375 49.29026282469505,-44.149292036618114 50,-44.5298811191513 C50.89026282469505,-45.007275179168666 51.37058331098491,-46.45589059099742 52,-46.17095409085351 C52.970583310984914,-45.73157169671509 52.937884187894426,-43.71159789026608 54,-42.719083883445485 C54.53788418789442,-42.216447933158484 55.389113297085586,-42.87209658116526 56,-42.433079198084535 C56.98911329708558,-41.722247010732616 57.036872593101485,-40.269333863082274 58,-39.84445995736388 C58.63687259310149,-39.563510060042 59.35836897792421,-40.129299632080276 60,-40.66851969048385 C60.9583689779242,-41.4739230429848 61.03101402828008,-42.74959268102484 62,-43.20601848462519 C62.63101402828008,-43.503247849493725 63.23543079222956,-42.460826535855325 64,-42.55265761165605 C64.83543079222956,-42.652999748937795 65.15537651853411,-43.346324640895844 66,-43.68645151733136 C66.75537651853412,-43.990638958741165 67.27369598384008,-44.34105198993245 68,-44.16344340626935 C68.87369598384008,-43.94979195620246 69.11736426283628,-43.07405732661686 70,-42.70830143300638 C70.71736426283627,-42.411032473740086 71.31873483611454,-42.85204476101906 72,-42.50588127407742 C72.91873483611455,-42.03905503474597 73.21730469055251,-41.42592320733297 74,-40.675827117323664 C74.81730469055252,-39.89256312515476 75.23237530160327,-38.61006591871182 76,-38.672481068631875 C76.83237530160328,-38.740161055151106 77.2009954354655,-41.003077063640085 78,-41.001064958421885 C78.80099543546551,-40.99904783966313 79.3051177234113,-38.465243838893215 80,-38.66240800868948 C80.9051177234113,-38.91922386155646 80.93851364634071,-41.31170624957658 82,-42.136015015079984 C82.53851364634072,-42.55420364038975 83.19421473499588,-41.81634519029588 84,-41.768651485722394 C84.79421473499588,-41.721642630405825 85.45316434289296,-42.332750316144626 86,-41.89925861535485 C87.05316434289296,-41.06438620665521 86.94909201077792,-39.533492417205075 88,-38.597741211998844 C88.54909201077793,-38.108817808500035 89.39335309264077,-37.978461202909905 90,-38.33757209359224 C90.99335309264077,-38.925597697172954 91.01119971087175,-40.41698281779501 92,-40.96558244765647 C92.61119971087174,-41.30468422467081 93.2233436984985,-40.47571107881051 94,-40.556825610781736 C94.8233436984985,-40.64281620742796 95.46435250116912,-40.762909712121896 96,-41.38334526920009 C97.06435250116913,-42.61617495370672 96.9246284297137,-44.33681020368188 98,-45.1899887147438 C98.52462842971372,-45.6062185230181 99.28862982050353,-44.970605198311006 100,-44.55686606754063 C100.88862982050354,-44.04003117607525 101.10636325401846,-43.12141598411246 102,-42.86355365915441 C102.70636325401846,-42.659729821599406 103.18762711498837,-43.256151444634334 104,-43.402650661257994 C104.78762711498837,-43.5446873508943 105.20714008378893,-43.63282006800284 106,-43.58489342480432 C106.80714008378894,-43.53610357679203 107.19722445654898,-43.17580392889489 108,-43.16085943323097 C108.79722445654899,-43.14601827678162 109.20980478610932,-43.55474034894777 110,-43.51042929452115 C110.80980478610931,-43.46501861204493 111.32368040443544,-42.692256468998465 112,-42.93655509097388 C112.92368040443543,-43.27020482022785 113.16197780098815,-44.189625196820096 114,-44.95530017259462 C114.76197780098816,-45.65149573280804 115.16957590119318,-45.97824519486424 116,-46.591231430943736 C116.76957590119319,-47.15930193338666 117.20837024120753,-47.36895974749275 118,-47.907942018900656 C118.80837024120754,-48.45832207208258 119.12005870840365,-48.99213635173005 120,-49.31463724241829 C120.72005870840364,-49.578540728964214 121.34386339770283,-49.0246843244041 122,-49.37395296198605 C122.94386339770284,-49.8763816968333 123.27165710807262,-50.55630335804361 124,-51.443880673491286 C124.87165710807263,-52.506104365860516 125.17237527028001,-54.18891372680791 126,-54.24845548152832 C126.77237527028001,-54.30402242780683 127.04225236950495,-52.14164580436627 128,-51.731652425988585 C128.64225236950494,-51.45671651347863 129.17208240699398,-52.411789864074706 130,-52.53613225430922 C130.77208240699397,-52.6520889301362 131.20160576152088,-52.318736543310784 132,-52.332400091142325 C132.80160576152088,-52.34611860029069 133.25865248308455,-52.32978444862808 134,-52.60458739675898 C134.85865248308454,-52.92287298939617 135.36465749210467,-53.157062721270634 136,-53.81512144306254 C136.96465749210466,-54.8142695692036 137.25621262934388,-56.86487911769242 138,-56.747604516591394 C138.8562126293439,-56.61260357610032 139.1083996750842,-54.548688474871916 140,-53.18443258908229 C140.7083996750842,-52.10049576311001 141.2272317660882,-50.57209273895163 142,-50.627122737186625 C142.82723176608823,-50.68603116616969 143.00425550659193,-52.92832667198437 144,-53.46927865712743 C144.60425550659193,-53.79754882883158 145.2826131112338,-53.216637931883135 146,-52.80017812930464 C146.8826131112338,-52.28780065515009 147.10862393653397,-51.40305954379607 148,-51.14718546529482 C148.70862393653397,-50.943771323726416 149.27362992604748,-51.293727444829365 150,-51.65195757913051 C150.87362992604747,-52.082813112639094 151.12666022993517,-52.910945179811435 152,-53.11989963481914 C152.72666022993516,-53.293759680503996 153.1985586824737,-52.80753781307621 154,-52.60899383086191 C154.7985586824737,-52.411163974348526 155.2550823408936,-51.984702813211726 156,-52.12896503799994 C156.8550823408936,-52.29456197259591 157.14198879335044,-53.20259230922326 158,-53.383641729322356 C158.74198879335043,-53.540209195708584 159.22570849800607,-52.88590536758249 160,-52.97300725421324 C160.82570849800607,-53.06589316061693 161.19228560345695,-53.81111002448548 162,-53.833611211908455 C162.79228560345695,-53.85568258631036 163.29219638656815,-53.5358788654357 164,-53.08443865877543 C164.89219638656817,-52.51539194371135 165.35240415070587,-52.127336802564365 166,-51.28239390759757 C166.95240415070586,-50.039756047653114 166.9660265145554,-48.96462342090949 168,-47.8654867714973 C168.5660265145554,-47.26378808633288 169.16956056325844,-47.24199513865798 170,-47.03030557115604 C170.76956056325847,-46.83413480228945 171.3529662448737,-47.228243816730036 172,-46.84583593057599 C172.9529662448737,-46.282616771774656 173.12794184777636,-45.45715730630423 174,-44.66623795876759 C174.72794184777635,-44.00602591921517 175.22750070419792,-43.1633877570904 176,-43.21800746285332 C176.82750070419792,-43.27651605338217 177.08889841658072,-44.55476781882551 178,-44.949058699497 C178.6888984165807,-45.24718831348298 179.2,-44.949058699497 180,-44.949058699497 C180.8,-44.949058699497 181.2,-44.949058699497 182,-44.949058699497 C182.8,-44.949058699497 183.2,-44.949058699497 184,-44.949058699497 C184.8,-44.949058699497 185.2,-44.949058699497 186,-44.949058699497 C186.8,-44.949058699497 187.2,-44.949058699497 188,-44.949058699497 C188.8,-44.949058699497 189.2,-44.949058699497 190,-44.949058699497 C190.8,-44.949058699497 191.2,-44.949058699497 192,-44.949058699497 C192.8,-44.949058699497 193.2,-44.949058699497 194,-44.949058699497 C194.8,-44.949058699497 195.2,-44.949058699497 196,-44.949058699497 C196.8,-44.949058699497 197.2,-44.949058699497 198,-44.949058699497 Q198.8,-44.949058699497 200,-44.949058699497"
                  class="spline"/>
         </g>
      </g>
      <g id="gaussian">
         <g>
            <path d="M2,-63.46218751124767 Q3.2100571204157036,-63.16082408343901 4,-62.90754768261846 C4.810057120415704,-62.64782212875826 5.211470784548687,-62.499180254797466 6,-62.17968262454578 C6.811470784548687,-61.85088948967963 7.21152983376246,-61.66785058237611 8,-61.28682076982387 C8.81152983376246,-60.89464732600849 9.210183190809357,-60.681253165132624 10,-60.246674483626705 C10.810183190809358,-59.8008896652446 11.207703962045906,-59.56301497064888 12,-59.085912020103805 C12.807703962045908,-58.59953076234296 13.204596026582688,-58.344363017994496 14,-57.83796396286191 C14.804596026582688,-57.32571272796503 15.201442588986387,-57.060965620365835 16,-56.539286295030145 C16.801442588986387,-56.015722148794225 17.198731083099503,-55.748686697075364 18,-55.22485528393288 C18.798731083099504,-54.702682985524866 19.196694157427217,-54.439352264372985 20,-53.92427701615391 C20.79669415742722,-53.413441143757865 21.195229782616703,-53.158047143516285 22,-52.66007748239508 C22.7952297826167,-52.16801117972956 23.193963585258814,-51.923278035708734 24,-51.4491871066871 C24.793963585258815,-50.98219712104785 25.200334089654152,-50.76468416099302 26,-50.307375195742864 C26.80033408965415,-49.84968411543174 27.1884186403599,-49.59842052913012 28,-49.161686992783906 C28.7884186403599,-48.737417932343256 29.19959866069619,-48.55679678954381 30,-48.154868703775726 C30.79959866069619,-47.75334368964234 31.185257426519623,-47.521076691105 32,-47.15305424303024 C32.78525742651962,-46.79835035264418 33.1926924595838,-46.65053689043926 34,-46.34805285762367 C34.7926924595838,-46.05104484029015 35.17759135718809,-45.813084944085084 36,-45.65432411765747 C36.77759135718809,-45.504214986911876 37.20122359034434,-45.55653208940387 38,-45.57587796469066 C38.80122359034434,-45.59528310919451 39.20079707982559,-45.67293239990671 40,-45.751201667134055 C40.80079707982559,-45.82962705704888 41.20075910801764,-45.87453108146687 42,-45.96761460754609 C42.800759108017644,-46.06087495253352 43.21547536853098,-46.045799556371556 44,-46.21706134480068 C44.81547536853098,-46.395079681551955 45.18369874585556,-46.67000246161516 46,-46.8408149204971 C46.78369874585555,-47.004805247747775 47.20921915151871,-46.915802065213306 48,-47.05406831013222 C48.80921915151871,-47.19555845068361 49.20006431047187,-47.345486657494604 50,-47.540205884172885 C50.800064310471875,-47.734956419581394 51.18851381247921,-47.93574034338708 52,-48.0277427153492 C52.78851381247921,-48.11714059073956 53.200255987713994,-47.98466358966482 54,-47.993706502554076 C54.800255987713996,-48.002755204482234 55.2043040631908,-48.11800926633299 56,-48.072971752392746 C56.8043040631908,-48.02744700634036 57.197308016087646,-47.86812100463696 58,-47.7673008525725 C58.79730801608765,-47.66715694054241 59.20104930483869,-47.65876347283043 60,-47.570561592156366 C60.80104930483869,-47.482128030952495 61.22153412759706,-47.51392066756911 62,-47.32571224787767 C62.82153412759706,-47.12709128662685 63.20362227664805,-46.90204164713544 64,-46.60348813980071 C64.80362227664806,-46.30221872676922 65.21317576690835,-46.16751052342881 66,-45.82615494696212 C66.81317576690834,-45.47336702939756 67.21842210963281,-45.285887861391764 68,-44.86812940472258 C68.8184221096328,-44.430677473650796 69.18641740991077,-44.1353912831491 70,-43.68812897760969 C70.78641740991077,-43.255800572162315 71.19991104001026,-43.07656846650669 72,-42.66915262725563 C72.79991104001026,-42.26182738720213 73.19123348486899,-42.040184459969325 74,-41.65127627934829 C74.791233484869,-41.27079913385594 75.16894020769114,-41.00771646452489 76,-40.745689311972164 C76.76894020769113,-40.50324801596764 77.20896564066686,-40.57152904275916 78,-40.39010515795518 C78.80896564066686,-40.2045687302753 79.18559699541602,-39.91712893451167 80,-39.82828853076251 C80.78559699541601,-39.742590474807336 81.19933130925915,-39.93832426696614 82,-39.95375900869434 C82.79933130925914,-39.96916796929984 83.20039797986557,-39.894766714260726 84,-39.905397786596744 C84.80039797986558,-39.916039441579215 85.20012191566055,-40.009220658799194 86,-40.006940826990565 C86.80012191566055,-40.00466030020802 87.20315862955943,-39.861349467259835 88,-39.89399689011882 C88.80315862955942,-39.926903137679204 89.21616533055426,-39.98960274639611 90,-40.170825003038985 C90.81616533055426,-40.35952209537519 91.18855055711431,-40.602742813385234 92,-40.818795262566525 C92.78855055711432,-41.0287507695442 93.21041678209977,-41.029130529792965 94,-41.23584489343642 C94.81041678209978,-41.44801352316394 95.2320813879009,-41.53802632459561 96,-41.86600274599396 C96.8320813879009,-42.22138295376094 97.17996530975293,-42.55533294660676 98,-42.944236466349736 C98.77996530975292,-43.314136981349826 99.20352034993353,-43.42715283463892 100,-43.763012832851615 C100.80352034993354,-44.101841757445 101.22227227002448,-44.23937459639104 102,-44.630958773364945 C102.82227227002447,-45.044971026877015 103.19731226202028,-45.323341627977044 104,-45.77700390906656 C104.79731226202028,-46.227628083841104 105.1908131453767,-46.46316519091911 106,-46.89167491302509 C106.7908131453767,-47.31045472788118 107.19737540033164,-47.49912514724335 108,-47.89522775147172 C108.79737540033165,-48.28873982766464 109.18587828631703,-48.50989178518402 110,-48.86571161407833 C110.78587828631703,-49.209187377799296 111.19950002049934,-49.33365655642895 112,-49.64346673300991 C112.79950002049934,-49.952889904615596 113.18197943377653,-50.165360793877134 114,-50.413794984544936 C114.78197943377654,-50.651283424042276 115.1920179063873,-50.73161445118315 116,-50.85827330842275 C116.7920179063873,-50.982429627887434 117.19840398847377,-51.01138941141849 118,-51.04083292630565 C118.79840398847377,-51.07015919462855 119.20353913004973,-51.065982644540505 120,-51.00519776644791 C120.80353913004974,-50.94387268456943 121.19650419549257,-50.79900704772508 122,-50.735558026377944 C122.79650419549257,-50.67266110592188 123.20166285981277,-50.660927428435286 124,-50.68933291193992 C124.80166285981277,-50.71785672724852 125.19830572997361,-50.83230800322662 126,-50.87788127341102 C126.79830572997362,-50.92326191798098 127.21942421589016,-50.78422836270457 128,-50.916717698825806 C128.81942421589017,-51.05580088917709 129.21900933555506,-51.25187880036437 130,-51.556812589592326 C130.81900933555505,-51.876590573470494 131.22967848480658,-52.05545683436777 132,-52.47849713159112 C132.82967848480658,-52.93413471393786 133.21935152280324,-53.21537931662086 134,-53.75350728851755 C134.81935152280323,-54.31831460719682 135.21618346050172,-54.62220983360837 136,-55.235835358031004 C136.81618346050172,-55.874799935502196 137.1373042943888,-56.323761852445486 138,-56.88498254325209 C138.7373042943888,-57.364630723647736 139.1857019879778,-57.490357298366185 140,-57.83800753603662 C140.7857019879778,-58.17344920336956 141.2053030147178,-58.27745816274658 142,-58.59271230576052 C142.8053030147178,-58.91217383194367 143.1694607050617,-59.2175441412218 144,-59.42479670902934 C144.7694607050617,-59.616807740804646 145.20094908997532,-59.600882849335285 146,-59.59087130471764 C146.80094908997532,-59.58083597724332 147.2049879613102,-59.494351034514914 148,-59.374679528799426 C148.8049879613102,-59.25350636823749 149.20931128896513,-59.18143203980409 150,-58.98875963902407 C150.80931128896512,-58.791549350263026 151.2234586306801,-58.69719478564205 152,-58.399972804946756 C152.8234586306801,-58.08479319584785 153.21060662305803,-57.855700878143544 154,-57.45775566453857 C154.81060662305802,-57.04911653076213 155.19184743445842,-56.797278175954546 156,-56.38351193649322 C156.79184743445842,-55.97809376528022 157.20832682247635,-55.81553708669409 158,-55.40979463785276 C158.80832682247635,-54.995516986762475 159.18182328858782,-54.72600406788909 160,-54.33346168666419 C160.78182328858782,-53.958360842166144 161.2022986738547,-53.83315119371866 162,-53.49068657354539 C162.8022986738547,-53.14624824606401 163.20299168941872,-52.97268647859982 164,-52.61620431752755 C164.80299168941875,-52.25704593866661 165.21224175866448,-52.09215330226175 166,-51.70158522371236 C166.81224175866447,-51.2988782936505 167.18898903036586,-51.03839436699779 168,-50.63301679599943 C168.78898903036585,-50.23864672130321 169.19874145908068,-50.07180788482212 170,-49.7022161094759 C170.79874145908067,-49.333785373541964 171.21397226314946,-49.181605069056666 172,-48.78796051779904 C172.81397226314945,-48.38032128162214 173.1941990454168,-48.12357574082023 174,-47.69900664088957 C174.7941990454168,-47.280550480021894 175.18777241896015,-47.06176533259029 176,-46.6803973658032 C176.78777241896015,-46.31051191408639 177.19877973788707,-46.161815120344265 178,-45.820873094629825 C178.79877973788706,-45.48096958143525 179.19727203862575,-45.30869121445115 180,-44.97828351853065 C180.79727203862575,-44.65012151349325 181.19664883761052,-44.48737848188068 182,-44.174448842235066 C182.79664883761052,-43.864129961341106 183.1965990348523,-43.71252986495009 184,-43.42016221718171 C184.7965990348523,-43.13026987682149 185.19676097717183,-42.98974018500996 186,-42.718798871913556 C186.79676097717183,-42.450042674513156 187.19688906650285,-42.32003994463167 188,-42.07091844093971 C188.79688906650284,-41.823726933213116 189.19690933427296,-41.70420125546931 190,-41.47801634336718 C190.79690933427295,-41.25357236036719 191.19688840777837,-41.14538057853317 192,-40.9443462031844 C192.7968884077784,-40.744869611348335 193.19695755483366,-40.649647105233065 194,-40.47673892540509 C194.79695755483365,-40.30514092204189 195.1972288622377,-40.22484568830561 196,-40.083080745206466 C196.7972288622377,-39.942294537312705 197.1977363972448,-39.87867534212293 198,-39.77036104792283 Q198.79773639724482,-39.66265797560526 200,-39.5430373289123"
                  class="spline"/>
         </g>
      </g>
      <text x="100" y="8" text-anchor="middle" font-size="5">Fake independent
                    variable</text>
      <text x="-10"
            y="-50"
            text-anchor="middle"
            font-size="5"
            writing-mode="tb">Fake
                    dependent variable</text>
      <text x="100" y="-106" text-anchor="middle" font-size="8">Smoothing examples (window                     = 25)</text>
   </g>
   <g transform="translate(50, 15)">
      <rect x="0"
            y="0"
            width="100"
            height="51"
            fill="ghostwhite"
            stroke="black"
            stroke-width="0.5"/>
      <rect x="2" y="2" width="5" height="5" fill="black"/>
      <rect x="2" y="9" width="5" height="5" fill="red"/>
      <rect x="2" y="16" width="5" height="5" fill="gray"/>
      <rect x="2" y="23" width="5" height="5" fill="blue"/>
      <rect x="2" y="30" width="5" height="5" fill="green"/>
      <rect x="2" y="37" width="5" height="5" fill="indigo"/>
      <rect x="2" y="44" width="5" height="5" fill="darkgoldenrod"/>
      <text x="10" y="6" fill="black" font-size="5">
         <tspan>Actual data (100 points)</tspan>
         <tspan x="10" dy="7" fill="red">Regression line (49.4–44.6)</tspan>
         <tspan x="10" dy="7" fill="gray">Y intercept of regression line (49.4)</tspan>
         <tspan x="10" dy="7" fill="blue">Rectangular kernal</tspan>
         <tspan x="10" dy="7" fill="green">Gaussian kernal (σ = 5)</tspan>
      </text>
   </g>
</svg>
