<?xml version="1.0" encoding="UTF-8"?>
<svg xmlns="http://www.w3.org/2000/svg" viewBox="-12 -115 210 195">
   <style type="text/css">
                #linear {
                    stroke: blue;
                    stroke-width: 0.5;
                    stroke-opacity: 0.5;
                    fill: none;
                }
                #gaussian {
                    stroke: green;
                    stroke-width: 0.5;
                    stroke-opacity: 0.5;
                    fill: none;
                }
                .regression {
                    stroke: red;
                    stroke-width: 0.5;
                    stroke-opacity: 0.5;
                }</style>
   <g>
      <line x1="2"
            y1="0"
            x2="200"
            y2="0"
            stroke="lightgray"
            stroke-width="0.5"
            stroke-linecap="square"/>
      <text x="0"
            y="0"
            fill="lightgray"
            font-size="3"
            text-anchor="end"
            alignment-baseline="central">0.0</text>
      <line x1="2"
            y1="-100"
            x2="200"
            y2="-100"
            stroke="lightgray"
            stroke-width="0.5"
            stroke-linecap="square"/>
      <text x="0"
            y="-100"
            fill="lightgray"
            font-size="3"
            text-anchor="end"
            alignment-baseline="central">100.0</text>
      <text x="0"
            y="-52.19019831977209"
            fill="lightgray"
            font-size="3"
            text-anchor="end"
            alignment-baseline="central">52.2</text>
      <text x="208"
            y="-100"
            font-size="3"
            fill="lightgray"
            text-anchor="end"
            alignment-baseline="central">100.0</text>
      <text x="208"
            y="0"
            font-size="3"
            fill="lightgray"
            text-anchor="end"
            alignment-baseline="central">0.0</text>
      <text x="208"
            y="-42.62434452073984"
            fill="red"
            fill-opacity="0.5"
            font-size="3"
            text-anchor="end"
            alignment-baseline="central">42.6</text>
      <line x1="2"
            y1="-100"
            x2="2"
            y2="0"
            stroke="lightgray"
            stroke-width="0.5"
            stroke-linecap="square"/>
      <line x1="200"
            y1="-100"
            x2="200"
            y2="0"
            stroke="lightgray"
            stroke-width="0.5"
            stroke-linecap="square"/>
      <line x1="2"
            y1="-52.19019831977209"
            x2="200"
            y2="-52.19019831977209"
            stroke="lightgray"
            stroke-width="0.5"/>
      <circle cx="2" cy="-42.73825279905136" r="0.65" fill="black"/>
      <circle cx="4" cy="-20.554854662398526" r="0.65" fill="black"/>
      <circle cx="6" cy="-85.09221966476157" r="0.65" fill="black"/>
      <circle cx="8" cy="-68.19282752025833" r="0.65" fill="black"/>
      <circle cx="10" cy="-90.642974788187" r="0.65" fill="black"/>
      <circle cx="12" cy="-60.20900830696944" r="0.65" fill="black"/>
      <circle cx="14" cy="-45.598934104756765" r="0.65" fill="black"/>
      <circle cx="16" cy="-40.848007404650254" r="0.65" fill="black"/>
      <circle cx="18" cy="1.2714828663726068" r="0.65" fill="black"/>
      <circle cx="20" cy="-66.31519388450262" r="0.65" fill="black"/>
      <circle cx="22" cy="-47.5248035068703" r="0.65" fill="black"/>
      <circle cx="24" cy="-56.99557831580834" r="0.65" fill="black"/>
      <circle cx="26" cy="-91.45859297642612" r="0.65" fill="black"/>
      <circle cx="28" cy="-40.338917795833076" r="0.65" fill="black"/>
      <circle cx="30" cy="-22.944037005385876" r="0.65" fill="black"/>
      <circle cx="32" cy="-28.43083812002596" r="0.65" fill="black"/>
      <circle cx="34" cy="-97.71898914871558" r="0.65" fill="black"/>
      <circle cx="36" cy="-53.98737265170407" r="0.65" fill="black"/>
      <circle cx="38" cy="-52.11456683799778" r="0.65" fill="black"/>
      <circle cx="40" cy="-94.71664150580911" r="0.65" fill="black"/>
      <circle cx="42" cy="-55.39538358369198" r="0.65" fill="black"/>
      <circle cx="44" cy="-1.4581925663695334" r="0.65" fill="black"/>
      <circle cx="46" cy="-3.2408665024239127" r="0.65" fill="black"/>
      <circle cx="48" cy="-84.06387369152554" r="0.65" fill="black"/>
      <circle cx="50" cy="-27.9809443786496" r="0.65" fill="black"/>
      <circle cx="52" cy="-62.082071773276525" r="0.65" fill="black"/>
      <circle cx="54" cy="-31.999495519399716" r="0.65" fill="black"/>
      <circle cx="56" cy="-27.843925902603587" r="0.65" fill="black"/>
      <circle cx="58" cy="-78.37752370401867" r="0.65" fill="black"/>
      <circle cx="60" cy="-48.60912003222274" r="0.65" fill="black"/>
      <circle cx="62" cy="-70.46806410392483" r="0.65" fill="black"/>
      <circle cx="64" cy="-59.476013921890285" r="0.65" fill="black"/>
      <circle cx="66" cy="-58.989619769938706" r="0.65" fill="black"/>
      <circle cx="68" cy="-17.401754779826952" r="0.65" fill="black"/>
      <circle cx="70" cy="-56.37050656598386" r="0.65" fill="black"/>
      <circle cx="72" cy="-5.7416579532590735" r="0.65" fill="black"/>
      <circle cx="74" cy="-34.2232927687675" r="0.65" fill="black"/>
      <circle cx="76" cy="-51.9555707437124" r="0.65" fill="black"/>
      <circle cx="78" cy="-88.77334476665308" r="0.65" fill="black"/>
      <circle cx="80" cy="-67.49096210392433" r="0.65" fill="black"/>
      <circle cx="82" cy="-27.591924060618556" r="0.65" fill="black"/>
      <circle cx="84" cy="-16.086622893701144" r="0.65" fill="black"/>
      <circle cx="86" cy="-38.96368150745463" r="0.65" fill="black"/>
      <circle cx="88" cy="-53.611312380130364" r="0.65" fill="black"/>
      <circle cx="90" cy="-52.34843884086714" r="0.65" fill="black"/>
      <circle cx="92" cy="-51.14082769303149" r="0.65" fill="black"/>
      <circle cx="94" cy="-44.369835910491986" r="0.65" fill="black"/>
      <circle cx="96" cy="-46.214855299971696" r="0.65" fill="black"/>
      <circle cx="98" cy="-9.687471659057103" r="0.65" fill="black"/>
      <circle cx="100" cy="-13.41193719143472" r="0.65" fill="black"/>
      <circle cx="102" cy="-71.28959595736325" r="0.65" fill="black"/>
      <circle cx="104" cy="-67.94073844284257" r="0.65" fill="black"/>
      <circle cx="106" cy="-63.557166039422086" r="0.65" fill="black"/>
      <circle cx="108" cy="-95.94885810371684" r="0.65" fill="black"/>
      <circle cx="110" cy="-39.99192587448698" r="0.65" fill="black"/>
      <circle cx="112" cy="-63.77028215151226" r="0.65" fill="black"/>
      <circle cx="114" cy="-12.769066757309378" r="0.65" fill="black"/>
      <circle cx="116" cy="-0.812761830191779" r="0.65" fill="black"/>
      <circle cx="118" cy="-54.846578847950354" r="0.65" fill="black"/>
      <circle cx="120" cy="-93.48153631241154" r="0.65" fill="black"/>
      <circle cx="122" cy="-85.38254990792672" r="0.65" fill="black"/>
      <circle cx="124" cy="-51.575452981596285" r="0.65" fill="black"/>
      <circle cx="126" cy="-46.99245419800597" r="0.65" fill="black"/>
      <circle cx="128" cy="-42.216537311964466" r="0.65" fill="black"/>
      <circle cx="130" cy="-54.9236563959114" r="0.65" fill="black"/>
      <circle cx="132" cy="-65.40723359875864" r="0.65" fill="black"/>
      <circle cx="134" cy="-17.70708119557969" r="0.65" fill="black"/>
      <circle cx="136" cy="-52.625869707473655" r="0.65" fill="black"/>
      <circle cx="138" cy="-21.099139520883703" r="0.65" fill="black"/>
      <circle cx="140" cy="-89.90795817630153" r="0.65" fill="black"/>
      <circle cx="142" cy="-8.735342532129044" r="0.65" fill="black"/>
      <circle cx="144" cy="-60.90277089603511" r="0.65" fill="black"/>
      <circle cx="146" cy="-59.95594944877577" r="0.65" fill="black"/>
      <circle cx="148" cy="-34.81776887496042" r="0.65" fill="black"/>
      <circle cx="150" cy="-8.523592651608526" r="0.65" fill="black"/>
      <circle cx="152" cy="-60.90637483542408" r="0.65" fill="black"/>
      <circle cx="154" cy="-43.91275231391385" r="0.65" fill="black"/>
      <circle cx="156" cy="-68.4738493901577" r="0.65" fill="black"/>
      <circle cx="158" cy="-10.323526100104853" r="0.65" fill="black"/>
      <circle cx="160" cy="-32.27156571775362" r="0.65" fill="black"/>
      <circle cx="162" cy="-15.104094125523027" r="0.65" fill="black"/>
      <circle cx="164" cy="-84.33997877726574" r="0.65" fill="black"/>
      <circle cx="166" cy="-12.888314879713516" r="0.65" fill="black"/>
      <circle cx="168" cy="-59.09857729815891" r="0.65" fill="black"/>
      <circle cx="170" cy="-5.8902853923428" r="0.65" fill="black"/>
      <circle cx="172" cy="-96.35772336551473" r="0.65" fill="black"/>
      <circle cx="174" cy="-1.4921798063561438" r="0.65" fill="black"/>
      <circle cx="176" cy="-11.453057322944694" r="0.65" fill="black"/>
      <circle cx="178" cy="-24.884574732768407" r="0.65" fill="black"/>
      <circle cx="180" cy="-24.11026232036974" r="0.65" fill="black"/>
      <circle cx="182" cy="-38.78740631233151" r="0.65" fill="black"/>
      <circle cx="184" cy="-16.607153225244478" r="0.65" fill="black"/>
      <circle cx="186" cy="-77.56904761613282" r="0.65" fill="black"/>
      <circle cx="188" cy="-90.98703461460796" r="0.65" fill="black"/>
      <circle cx="190" cy="-41.410506444565186" r="0.65" fill="black"/>
      <circle cx="192" cy="-47.40674330394812" r="0.65" fill="black"/>
      <circle cx="194" cy="-75.43546856557275" r="0.65" fill="black"/>
      <circle cx="196" cy="-15.527707736227725" r="0.65" fill="black"/>
      <circle cx="198" cy="-45.535337573981565" r="0.65" fill="black"/>
      <circle cx="200" cy="-79.4686049374769" r="0.65" fill="black"/>
      <polyline points="2,-42.73825279905136 4,-20.554854662398526 6,-85.09221966476157 8,-68.19282752025833 10,-90.642974788187 12,-60.20900830696944 14,-45.598934104756765 16,-40.848007404650254 18,1.2714828663726068 20,-66.31519388450262 22,-47.5248035068703 24,-56.99557831580834 26,-91.45859297642612 28,-40.338917795833076 30,-22.944037005385876 32,-28.43083812002596 34,-97.71898914871558 36,-53.98737265170407 38,-52.11456683799778 40,-94.71664150580911 42,-55.39538358369198 44,-1.4581925663695334 46,-3.2408665024239127 48,-84.06387369152554 50,-27.9809443786496 52,-62.082071773276525 54,-31.999495519399716 56,-27.843925902603587 58,-78.37752370401867 60,-48.60912003222274 62,-70.46806410392483 64,-59.476013921890285 66,-58.989619769938706 68,-17.401754779826952 70,-56.37050656598386 72,-5.7416579532590735 74,-34.2232927687675 76,-51.9555707437124 78,-88.77334476665308 80,-67.49096210392433 82,-27.591924060618556 84,-16.086622893701144 86,-38.96368150745463 88,-53.611312380130364 90,-52.34843884086714 92,-51.14082769303149 94,-44.369835910491986 96,-46.214855299971696 98,-9.687471659057103 100,-13.41193719143472 102,-71.28959595736325 104,-67.94073844284257 106,-63.557166039422086 108,-95.94885810371684 110,-39.99192587448698 112,-63.77028215151226 114,-12.769066757309378 116,-0.812761830191779 118,-54.846578847950354 120,-93.48153631241154 122,-85.38254990792672 124,-51.575452981596285 126,-46.99245419800597 128,-42.216537311964466 130,-54.9236563959114 132,-65.40723359875864 134,-17.70708119557969 136,-52.625869707473655 138,-21.099139520883703 140,-89.90795817630153 142,-8.735342532129044 144,-60.90277089603511 146,-59.95594944877577 148,-34.81776887496042 150,-8.523592651608526 152,-60.90637483542408 154,-43.91275231391385 156,-68.4738493901577 158,-10.323526100104853 160,-32.27156571775362 162,-15.104094125523027 164,-84.33997877726574 166,-12.888314879713516 168,-59.09857729815891 170,-5.8902853923428 172,-96.35772336551473 174,-1.4921798063561438 176,-11.453057322944694 178,-24.884574732768407 180,-24.11026232036974 182,-38.78740631233151 184,-16.607153225244478 186,-77.56904761613282 188,-90.98703461460796 190,-41.410506444565186 192,-47.40674330394812 194,-75.43546856557275 196,-15.527707736227725 198,-45.535337573981565 200,-79.4686049374769"
                stroke="black"
                stroke-width="0.5"
                fill="none"/>
      <g>
         <line x1="2"
               y1="-52.19019831977209"
               x2="200"
               y2="-42.62434452073984"
               class="regression"/>
      </g>
      <g id="linear">
         <g>
            <path d="M2,-52.05456018657293 Q3.2,-52.05456018657293 4,-52.05456018657293 C4.8,-52.05456018657293 5.2,-52.05456018657293 6,-52.05456018657293 C6.8,-52.05456018657293 7.2,-52.05456018657293 8,-52.05456018657293 C8.8,-52.05456018657293 9.2,-52.05456018657293 10,-52.05456018657293 C10.8,-52.05456018657293 11.2,-52.05456018657293 12,-52.05456018657293 C12.8,-52.05456018657293 13.2,-52.05456018657293 14,-52.05456018657293 C14.8,-52.05456018657293 15.2,-52.05456018657293 16,-52.05456018657293 C16.8,-52.05456018657293 17.2,-52.05456018657293 18,-52.05456018657293 C18.8,-52.05456018657293 19.2,-52.05456018657293 20,-52.05456018657293 C20.8,-52.05456018657293 21.2,-52.05456018657293 22,-52.05456018657293 C22.8,-52.05456018657293 23.24166011464836,-52.23712001709073 24,-52.05456018657293 C24.84166011464836,-51.85194216416396 25.18619910375923,-51.130106683278996 26,-51.091615554255995 C26.78619910375923,-51.05442993393983 27.182320429067552,-51.61361736698032 28,-51.865368313225 C28.782320429067553,-52.106232724279934 29.35532137688748,-52.61844030638924 30,-52.32315394750504 C30.95532137688748,-51.885581859906736 31.04267572649512,-50.48377344062139 32,-50.03322219701874 C32.64267572649512,-49.73075587936703 33.29828702594161,-50.664099722198735 34,-50.44061004436915 C34.89828702594161,-50.15451318504348 35.101827950216624,-49.04464821725526 36,-48.759255854130586 C36.701827950216625,-48.53625143391112 37.20659373287939,-48.978120473405895 38,-49.1696180860088 C38.806593732879385,-49.364298643231315 39.20989302915397,-49.471719359787095 40,-49.72470127869414 C40.80989302915397,-49.98401843470584 41.20137882531082,-50.15635458568387 42,-50.45036577330568 C42.80137882531082,-50.74539218586768 43.18164879556485,-51.12586508241735 44,-51.19729527915365 C44.78164879556485,-51.265521887660235 45.29768030276463,-51.16280254562685 46,-50.799507786412896 C46.897680302764634,-50.33515721967277 47.13193453812535,-49.688565365417496 48,-49.12818196426845 C48.73193453812535,-48.655678467807064 49.25919517585281,-48.67862902667175 50,-48.21729054238682 C50.85919517585281,-47.68222410219568 51.23534264759172,-46.56887501007501 52,-46.63716965307828 C52.835342647591716,-46.71177748588471 53.18449781692996,-47.816281775937426 54,-48.57454673191108 C54.784497816929964,-49.303983409047156 55.08401527723575,-49.95606503211006 56,-50.356423735852616 C56.68401527723575,-50.65539320873616 57.45098117426646,-50.77565002822597 58,-50.32286717347632 C59.05098117426646,-49.456109543195225 58.96465753582527,-48.05829372972743 60,-47.05757252327575 C60.56465753582527,-46.51179681133921 61.18289400963848,-46.56715436033361 62,-46.45662487750577 C62.78289400963848,-46.350723230699735 63.3074036716793,-46.79956891055481 64,-46.516494699191064 C64.9074036716793,-46.14562559658986 65.09383755528054,-45.24424452131649 66,-44.82176659259339 C66.69383755528054,-44.49828038442685 67.3082703665261,-44.38418182761345 68,-44.65158435696697 C68.9082703665261,-45.002695226868845 69.20024652268232,-45.68117676116259 70,-46.36805009073187 C70.80024652268231,-47.05534687542931 71.32184123902815,-48.299967859142974 72,-48.087009642633774 C72.92184123902814,-47.79752924738424 72.98805202533428,-46.01203482849175 74,-45.11195356133503 C74.58805202533428,-44.58890828097681 75.19037227849518,-44.57260132652353 76,-44.52919327384644 C76.79037227849518,-44.486817598473486 77.27640518784939,-44.57080010466986 78,-44.897494241209905 C78.87640518784939,-45.29318037839033 79.1991364085751,-45.76128929169426 80,-46.33514395814762 C80.7991364085751,-46.90776102065844 81.1409524662122,-47.30593374017509 82,-47.76367356362036 C82.7409524662122,-48.15848693275936 83.18256683851659,-48.39333282794476 84,-48.46652693960829 C84.7825668385166,-48.53659907181616 85.19770304149586,-48.244710760826216 86,-48.12183917329886 C86.79770304149586,-47.99967114306384 87.3209752427469,-48.2165592274507 88,-47.85392789520236 C88.92097524274689,-47.36208356157881 89.24569079113633,-46.7767982091277 90,-45.985650008619125 C90.84569079113632,-45.09865732745845 91.11812545417503,-43.841406220574896 92,-43.658575691029235 C92.71812545417504,-43.50969367862891 93.1987203863816,-44.55896779637904 94,-45.15636865375418 C94.79872038638159,-45.751861457411856 95.36259757351102,-45.896630261716 96,-46.64080984361129 C96.96259757351103,-47.76466100893352 96.97621208191435,-48.83344237232465 98,-49.826445521797986 C98.57621208191435,-50.38533120700459 99.17922151948984,-50.41884532595039 100,-50.520531930311144 C100.77922151948984,-50.617070024624354 101.32194920665333,-50.671338521899166 102,-50.322007268482885 C102.92194920665332,-49.84701973789284 103.08812181721187,-48.99887485899298 104,-48.45973497029534 C104.68812181721187,-48.05288904838976 105.27796941180513,-47.7747444314127 106,-47.95704274197483 C106.87796941180513,-48.178712492694736 107.11012138531773,-49.11872465895636 108,-49.46965512350043 C108.71012138531773,-49.74969694439665 109.21418981853958,-49.41438086336706 110,-49.53447345557557 C110.81418981853957,-49.658903207397415 111.25603450510266,-50.22119836523443 112,-50.08096098357633 C112.85603450510266,-49.91959861068679 113.2189547981858,-48.74105201173528 114,-48.78047406920648 C114.81895479818581,-48.82180955535428 115.21889275210208,-50.32070703291723 116,-50.282854842623834 C116.81889275210209,-50.24317157970973 117.11271869056984,-48.81619773816664 118,-48.58663543618774 C118.71271869056984,-48.4022369353609 119.19381011184193,-49.00388667399033 120,-49.24795283560947 C120.79381011184194,-49.48827114013989 121.2304693984852,-49.498469349775625 122,-49.79759660156163 C122.8304693984852,-50.12041161161094 123.15689806082361,-50.63214819465858 124,-50.802808490197755 C124.75689806082362,-50.95601943747582 125.20654136924283,-50.728448264399745 126,-50.60727470860472 C126.80654136924282,-50.4841032138115 127.23309223515508,-50.45584808411093 128,-50.19194586372715 C128.83309223515508,-49.905268768097045 129.16040175980575,-49.3912845803739 130,-49.23082641857 C130.76040175980575,-49.08550373592281 131.46192795824206,-49.8617644262812 132,-49.42749375259943 C133.06192795824208,-48.57042604783518 132.9405637857747,-46.99141853962092 134,-46.002480472454955 C134.5405637857747,-45.49788746505539 135.32748654874342,-46.0728731874137 136,-45.693666066185614 C136.92748654874342,-45.17068841649014 137.2892915682748,-43.58423274045754 138,-43.74701854514605 C138.88929156827479,-43.95070832436101 138.99317970795522,-45.76768544204665 140,-46.609855025944306 C140.59317970795522,-47.106028883158295 141.19010367543822,-46.960640908437924 142,-47.09287714792517 C142.79010367543822,-47.22188173243361 143.46841994482446,-47.70597193019569 144,-47.26295708593352 C145.06841994482446,-46.372543890677925 144.93867652489448,-44.572451464945125 146,-43.75930704913077 C146.53867652489447,-43.346594225545424 147.32843042074825,-44.46095208816146 148,-44.198313987434275 C148.92843042074827,-43.83522249267902 149.1429223634715,-42.92883581722437 150,-42.19498306042467 C150.74292236347154,-41.558873096419546 151.1410135854674,-41.227564980313005 152,-40.77340718542223 C152.74101358546739,-40.38162322904489 153.24165390795034,-40.44523711294896 154,-40.08012868225439 C154.84165390795036,-39.67491140647316 155.18552562440357,-39.31537179030553 156,-38.84759291923272 C156.78552562440356,-38.396440248514025 157.1502512982134,-38.018348088208384 158,-37.78279982777563 C158.75025129821339,-37.57483200410019 159.24430486096844,-37.55862042819116 160,-37.738802708962226 C160.84430486096844,-37.94011242720435 161.3695569536447,-38.13867391978093 162,-38.736529825308594 C162.96955695364468,-39.65597108781907 163.1163138777961,-41.343021249589796 164,-41.53204562905756 C164.7163138777961,-41.6852683433816 165.16118479283455,-39.67456996950372 166,-39.59214755978811 C166.76118479283454,-39.51735315414505 167.12268765131066,-40.67223746502602 168,-41.13900359066087 C168.72268765131068,-41.523503040087725 169.2996522142236,-41.929684278193406 170,-41.720311497442374 C170.8996522142236,-41.45135557350524 171.0932326428304,-40.248859207709295 172,-39.94318182894045 C172.69323264283042,-39.70948843949286 173.4068195887328,-39.8874781431637 174,-40.371884576901294 C175.00681958873278,-41.19407943892193 175.05464035649226,-42.85429601427453 176,-43.20968506833603 C176.65464035649228,-43.455784019821856 177.12659313616882,-42.166903352272016 178,-41.87560459076959 C178.72659313616882,-41.63327116124544 179.2,-41.87560459076959 180,-41.87560459076959 C180.8,-41.87560459076959 181.2,-41.87560459076959 182,-41.87560459076959 C182.8,-41.87560459076959 183.2,-41.87560459076959 184,-41.87560459076959 C184.8,-41.87560459076959 185.2,-41.87560459076959 186,-41.87560459076959 C186.8,-41.87560459076959 187.2,-41.87560459076959 188,-41.87560459076959 C188.8,-41.87560459076959 189.2,-41.87560459076959 190,-41.87560459076959 C190.8,-41.87560459076959 191.2,-41.87560459076959 192,-41.87560459076959 C192.8,-41.87560459076959 193.2,-41.87560459076959 194,-41.87560459076959 C194.8,-41.87560459076959 195.2,-41.87560459076959 196,-41.87560459076959 C196.8,-41.87560459076959 197.2,-41.87560459076959 198,-41.87560459076959 Q198.8,-41.87560459076959 200,-41.87560459076959"
                  class="spline"
                  fill="none"/>
         </g>
      </g>
      <g id="gaussian">
         <g>
            <path d="M2,-56.78859113635234 Q3.2011365746270184,-56.81117833488693 4,-56.77906065886569 C4.8011365746270185,-56.746851592665635 5.202714937715064,-56.71354970804513 6,-56.62777428079908 C6.802714937715064,-56.541414683715985 7.203236581197846,-56.47999969157015 8,-56.34872309804283 C8.803236581197845,-56.21637997122772 9.202451447218507,-56.132653802893536 10,-55.968724979943005 C10.802451447218509,-55.803788411807176 11.200633940462817,-55.706245995288754 12,-55.526559620326935 C12.800633940462816,-55.34658824336298 13.198528793771999,-55.245675736869636 14,-55.069580600128575 C14.798528793772,-54.89413195513888 15.19706722169027,-54.80109509635071 16,-54.64770016600005 C16.79706722169027,-54.49542581096206 17.196901467853753,-54.42073060787748 18,-54.30540738665696 C18.79690146785375,-54.19097405053486 19.197951646382837,-54.14232150148973 20,-54.0733087726435 C20.797951646382838,-54.0046485474141 21.19937490025547,-53.98494226927996 22,-53.961225001467874 C22.799374900255472,-53.937544768862544 23.20019078534125,-53.943676060865116 24,-53.954815021599956 C24.800190785341247,-53.96595929647818 25.200896021826303,-53.97500205044844 26,-54.01693309050053 C26.8008960218263,-54.058958163690015 27.198996364588723,-54.12684537860877 28,-54.1647053047039 C28.79899636458872,-54.20247035591753 29.20536952803923,-54.263859065901464 30,-54.20599553377243 C30.805369528039233,-54.14735000329529 31.19690943116588,-53.983989764437034 32,-53.87343264818847 C32.79690943116588,-53.76372645558695 33.21093350347777,-53.80180964853694 34,-53.65533726164722 C34.81093350347777,-53.5048057584257 35.19751984098095,-53.330725808230525 36,-53.13092292291037 C36.79751984098095,-52.93235506607657 37.20419432248475,-52.86431265999173 38,-52.65941040626231 C38.804194322484754,-52.452348263116974 39.200867254304725,-52.327432275008874 40,-52.10101193072347 C40.80086725430473,-51.87410014363506 41.20009061439795,-51.75636757042446 42,-51.526080077827785 C42.80009061439795,-51.29574041091519 43.199749167410715,-51.17922488208454 44,-50.9494440319503 C44.79974916741071,-50.719807227965745 45.19650669889336,-50.593285771534056 46,-50.37753594253079 C46.79650669889335,-50.16366211950139 47.19190192899294,-50.03518072500073 48,-49.875384901868635 C48.79190192899294,-49.71879175417603 49.19724660204281,-49.677859239230294 50,-49.58656351546905 C50.79724660204281,-49.49589406986482 51.202829577911984,-49.39547857818539 52,-49.42047197845495 C52.80282957791198,-49.44564280822111 53.20155637637734,-49.5855428352382 54,-49.71197409055834 C54.801556376377334,-49.83889824133989 55.19532571448787,-49.95539282524397 56,-50.05386049370918 C56.79532571448787,-50.15118418130063 57.20107124329111,-50.21357487818393 58,-50.20145248069999 C58.80107124329111,-50.189297574592814 59.19820307384975,-50.05194671078166 60,-49.9931672347314 C60.79820307384975,-49.93465122284312 61.20094181139111,-49.95747706735519 62,-49.90821376085365 C62.80094181139111,-49.85883432578002 63.2058666703309,-49.85450906218023 64,-49.746560380793476 C64.8058666703309,-49.63701675482326 65.1968468642181,-49.498391235843386 66,-49.36448299246122 C66.7968468642181,-49.23162618212435 67.19773817726417,-49.174425054273655 68,-49.07964774649589 C68.79773817726418,-48.98540485145844 69.20094895907788,-48.976035659073574 70,-48.891932485423176 C70.80094895907787,-48.807629548638694 71.21503524409576,-48.82394777830952 72,-48.65863247040869 C72.81503524409575,-48.48698425140999 73.19009542601538,-48.253796141722155 74,-48.04952366817437 C74.79009542601537,-47.85024741737249 75.1970047860335,-47.79284945985925 76,-47.64976065953453 C76.79700478603351,-47.5077393165638 77.19676242088478,-47.43562286710463 78,-47.33674830993576 C78.79676242088478,-47.23867081258988 79.19982857978242,-47.227161981179535 80,-47.15738052324766 C80.79982857978243,-47.08762896379104 81.19949689356254,-47.04912110468402 82,-46.98791576646452 C82.79949689356255,-46.926787361861926 83.19961361898477,-46.899666970442915 84,-46.85154616619243 C84.79961361898476,-46.80347182191588 85.19949302947555,-46.763020821285714 86,-46.747427895146934 C86.79949302947554,-46.73185471937694 87.20001105775142,-46.7623645293894 88,-46.77363091142049 C88.80001105775142,-46.78489760490802 89.20026024695069,-46.78209905633222 90,-46.80376058394348 C90.8002602469507,-46.82543620950719 91.21133474285294,-46.77001538463175 92,-46.88197379435791 C92.81133474285295,-46.99715034961025 93.20803651809803,-47.14733006070579 94,-47.371597996389745 C94.80803651809802,-47.6004174887177 95.2214992737367,-47.703402825578095 96,-48.0146923643877 C96.8214992737367,-48.343175205092756 97.19078795694895,-48.60910773487923 98,-48.9710289451764 C98.79078795694896,-49.324709957372285 99.1980054262326,-49.47550461222917 100,-49.80369792062033 C100.7980054262326,-50.13025878464101 101.19146387433489,-50.30936764479599 102,-50.60791437620599 C102.7914638743349,-50.900157289306996 103.20494377302204,-50.99767513112541 104,-51.280672031897836 C104.80494377302205,-51.56718836285869 105.20475825923342,-51.719176213390284 106,-52.031697455539174 C106.80475825923342,-52.34795858459255 107.18210707431959,-52.57776325486971 108,-52.8526279599035 C108.7821070743196,-53.11546631384679 109.19494129116568,-53.1883491653118 110,-53.375955102981884 C110.79494129116567,-53.561203339769165 111.19273938900479,-53.67476990319502 112,-53.78476339604692 C112.7927393890048,-53.89277829622942 113.20383773729554,-53.832062266497935 114,-53.92097608556789 C114.80383773729554,-54.01074708638462 115.19536123194023,-54.17905476423038 116,-54.231475445763635 C116.79536123194022,-54.28329171350819 117.1998959564677,-54.18750547069829 118,-54.18156845876242 C118.7998959564677,-54.17563299089497 119.2004719514588,-54.21759949214911 120,-54.20179424625532 C120.8004719514588,-54.185970341081536 121.2019769532487,-54.16678008681099 122,-54.10249558109347 C122.80197695324871,-54.0378925696312 123.21245005109473,-54.03305635818188 124,-53.87957545330585 C124.81245005109473,-53.72124191626235 125.20969641470235,-53.57594464151646 126,-53.32295947629465 C126.80969641470236,-53.063766445839356 127.20709747784777,-52.90695462971468 128,-52.59912996411309 C128.80709747784778,-52.28579446033387 129.19496269799996,-52.0889677845061 130,-51.77005905284262 C130.79496269799995,-51.45514129051149 131.22303965465088,-51.367700714264906 132,-51.01456372912657 C132.82303965465087,-50.640483193314786 133.1808842508366,-50.33614219419446 134,-49.952015250467326 C134.78088425083664,-49.585817089847296 135.21232387248799,-49.49160632377111 136,-49.13875096825867 C136.81232387248798,-48.77485415990502 137.17120981514168,-48.47500807939642 138,-48.160134840802094 C138.77120981514167,-47.8671374856622 139.21203102406392,-47.87293281351563 140,-47.61907448392312 C140.8120310240639,-47.357464134224685 141.19969462815746,-47.16968819390668 142,-46.87146314257472 C142.79969462815745,-46.573465678202986 143.21665843003126,-46.46462920556405 144,-46.12851819466388 C144.81665843003128,-45.77811180618521 145.17040178022313,-45.46411848002875 146,-45.1551696441276 C146.77040178022312,-44.86826602319152 147.2076643587293,-44.87153325906272 148,-44.6388870525708 C148.80766435872928,-44.401740016151045 149.19925019165953,-44.24166612498534 150,-43.9806865368484 C150.79925019165955,-43.72019570230175 151.19812853273604,-43.587451463458756 152,-43.33521099586183 C152.79812853273603,-43.08414792338875 153.20373243994706,-42.97912175460299 154,-42.722427686673385 C154.80373243994708,-42.46332715327568 155.19894816986516,-42.31325629426623 156,-42.045724492543535 C156.79894816986516,-41.77889526211646 157.1976741654222,-41.6429262368278 158,-41.386525106298954 C158.7976741654222,-41.13161052048665 159.19656516755478,-41.003371813017175 160,-40.767435201690674 C160.79656516755477,-40.53351593562947 161.19063779960234,-40.39188562020872 162,-40.21188541282969 C162.79063779960234,-40.03604946716753 163.21378073852853,-40.06857412454716 164,-39.87784481908771 C164.81378073852852,-39.68042936176945 165.18350625619598,-39.419787650227505 166,-39.2415235058854 C166.78350625619598,-39.070461481947845 167.19845697487108,-39.083698813993976 168,-39.00452939838857 C168.79845697487107,-38.92566479585967 169.1994608332113,-38.901890334127735 170,-38.846438460549614 C170.7994608332113,-38.791061281152224 171.20404505852707,-38.68942335500232 172,-38.72745676594979 C172.80404505852707,-38.765876749968804 173.2257400191693,-38.820412711773066 174,-39.03757194796583 C174.82574001916933,-39.269169959352425 175.2054527807555,-39.51179970350799 176,-39.849349884898174 C176.8054527807555,-40.19153311285506 177.224009509064,-40.335293057925014 178,-40.7369054713335 C178.82400950906398,-41.16337003690771 179.22141831408567,-41.41345696131713 180,-41.91954233235491 C180.8214183140857,-42.453471911976465 181.21437666456572,-42.750699098753735 182,-43.33694284798183 C182.8143766645657,-43.944642756558196 183.20536267389903,-44.27069273773538 184,-44.90440147686606 C184.80536267389903,-45.54666348477307 185.19657345335287,-45.88215267715356 186,-46.526869715576055 C186.79657345335286,-47.16608742611207 187.18959734506237,-47.492864351028565 188,-48.114238349262344 C188.78959734506236,-48.7196599335906 189.18537094584602,-49.022904279044454 190,-49.59385867198114 C190.78537094584604,-50.14430674319722 191.18412779840452,-50.413930211753915 192,-50.91774450964426 C192.7841277984045,-51.40195612444977 193.18538783864767,-51.63312481489637 194,-52.06392345372076 C194.7853878386477,-52.479267132456144 195.18815931663906,-52.672092520491695 196,-53.03310030354369 C196.78815931663905,-53.383577501130915 197.19136337585562,-53.54208064423063 198,-53.84263590531882 Q198.7913633758556,-54.13677101983652 200,-54.51982624255842"
                  class="spline"
                  fill="none"/>
         </g>
      </g>
      <text x="100" y="8" text-anchor="middle" font-size="5">Fake independent
                    variable</text>
      <text x="-10"
            y="-50"
            text-anchor="middle"
            font-size="5"
            writing-mode="tb">Fake
                    dependent variable</text>
      <text x="100" y="-106" text-anchor="middle" font-size="8">Smoothing examples (window                     = 25)</text>
   </g>
   <g transform="translate(50, 15)">
      <rect x="0"
            y="0"
            width="100"
            height="51"
            fill="ghostwhite"
            stroke="black"
            stroke-width="0.5"/>
      <rect x="2" y="2" width="5" height="5" fill="black"/>
      <rect x="2" y="9" width="5" height="5" fill="red"/>
      <rect x="2" y="16" width="5" height="5" fill="gray"/>
      <rect x="2" y="23" width="5" height="5" fill="blue"/>
      <rect x="2" y="30" width="5" height="5" fill="green"/>
      <rect x="2" y="37" width="5" height="5" fill="indigo"/>
      <rect x="2" y="44" width="5" height="5" fill="darkgoldenrod"/>
      <text x="10" y="6" fill="black" font-size="5">
         <tspan>Actual data (101 points)</tspan>
         <tspan x="10" dy="7" fill="red">Regression line (52.2–42.6)</tspan>
         <tspan x="10" dy="7" fill="gray">Y intercept of regression line (52.2)</tspan>
         <tspan x="10" dy="7" fill="blue">Rectangular kernel</tspan>
         <tspan x="10" dy="7" fill="green">Gaussian kernel (σ = 5)</tspan>
         <tspan x="10" dy="7" fill="indigo">Exponential kernel (y = 1 - 2<tspan dy="-2" font-size="4">-d</tspan>
            <tspan dy="2">)</tspan>
         </tspan>
         <tspan x="10" dy="7" fill="darkgoldenrod">Parabolic kernel (y = 1 - (d/N)<tspan dy="-2" font-size="4">2</tspan>
            <tspan dy="2" dx="-1">)</tspan>
         </tspan>
      </text>
   </g>
</svg>
