<?xml version="1.0" encoding="UTF-8"?>
<svg xmlns="http://www.w3.org/2000/svg" viewBox="-12 -115 210 195">
   <style type="text/css">
                .regression {
                    stroke: red;
                    stroke-width: 0.5;
                    stroke-opacity: 0.5;
                }
                .spline {
                    stroke: blue;
                    stroke-width: 0.5;
                    stroke-opacity: 0.5;
                    fill: none;
                }</style>
   <g>
      <line x1="2"
            y1="0"
            x2="200"
            y2="0"
            stroke="lightgray"
            stroke-width="0.5"
            stroke-linecap="square"/>
      <text x="0"
            y="0"
            fill="lightgray"
            font-size="3"
            text-anchor="end"
            alignment-baseline="central">0.0</text>
      <line x1="2"
            y1="-100"
            x2="200"
            y2="-100"
            stroke="lightgray"
            stroke-width="0.5"
            stroke-linecap="square"/>
      <text x="0"
            y="-100"
            fill="lightgray"
            font-size="3"
            text-anchor="end"
            alignment-baseline="central">100.0</text>
      <text x="0"
            y="-46.614124913107645"
            fill="lightgray"
            font-size="3"
            text-anchor="end"
            alignment-baseline="central">46.6</text>
      <text x="208"
            y="-100"
            font-size="3"
            fill="lightgray"
            text-anchor="end"
            alignment-baseline="central">100.0</text>
      <text x="208"
            y="0"
            font-size="3"
            fill="lightgray"
            text-anchor="end"
            alignment-baseline="central">0.0</text>
      <text x="208"
            y="-38.526697306202706"
            fill="red"
            fill-opacity="0.5"
            font-size="3"
            text-anchor="end"
            alignment-baseline="central">38.5</text>
      <line x1="2"
            y1="-100"
            x2="2"
            y2="0"
            stroke="lightgray"
            stroke-width="0.5"
            stroke-linecap="square"/>
      <line x1="200"
            y1="-100"
            x2="200"
            y2="0"
            stroke="lightgray"
            stroke-width="0.5"
            stroke-linecap="square"/>
      <line x1="2"
            y1="-46.614124913107645"
            x2="200"
            y2="-46.614124913107645"
            stroke="lightgray"
            stroke-width="0.5"/>
      <circle cx="2" cy="-88.12739557703752" r="0.65" fill="black"/>
      <circle cx="4" cy="-64.48294992869972" r="0.65" fill="black"/>
      <circle cx="6" cy="-10.925586687429114" r="0.65" fill="black"/>
      <circle cx="8" cy="-17.95955580592006" r="0.65" fill="black"/>
      <circle cx="10" cy="0.19515242522831588" r="0.65" fill="black"/>
      <circle cx="12" cy="-65.28288681145507" r="0.65" fill="black"/>
      <circle cx="14" cy="-74.21258426058634" r="0.65" fill="black"/>
      <circle cx="16" cy="-62.22259103107936" r="0.65" fill="black"/>
      <circle cx="18" cy="-4.758385309846537" r="0.65" fill="black"/>
      <circle cx="20" cy="-84.47254535353102" r="0.65" fill="black"/>
      <circle cx="22" cy="-22.937465749402556" r="0.65" fill="black"/>
      <circle cx="24" cy="-89.55586080273886" r="0.65" fill="black"/>
      <circle cx="26" cy="1.6531316966902891" r="0.65" fill="black"/>
      <circle cx="28" cy="-20.11998476000494" r="0.65" fill="black"/>
      <circle cx="30" cy="-17.372224067235855" r="0.65" fill="black"/>
      <circle cx="32" cy="-11.522197833864114" r="0.65" fill="black"/>
      <circle cx="34" cy="-22.472891641240157" r="0.65" fill="black"/>
      <circle cx="36" cy="-52.551156351433285" r="0.65" fill="black"/>
      <circle cx="38" cy="-37.04098194850183" r="0.65" fill="black"/>
      <circle cx="40" cy="-95.44150305778643" r="0.65" fill="black"/>
      <circle cx="42" cy="-53.85489070169009" r="0.65" fill="black"/>
      <circle cx="44" cy="-26.626174531661018" r="0.65" fill="black"/>
      <circle cx="46" cy="-42.094589579499385" r="0.65" fill="black"/>
      <circle cx="48" cy="-71.57509854805424" r="0.65" fill="black"/>
      <circle cx="50" cy="-48.10266582536313" r="0.65" fill="black"/>
      <circle cx="52" cy="-58.464838426376176" r="0.65" fill="black"/>
      <circle cx="54" cy="0.1132249949612123" r="0.65" fill="black"/>
      <circle cx="56" cy="-30.74240390982788" r="0.65" fill="black"/>
      <circle cx="58" cy="-62.596573004939756" r="0.65" fill="black"/>
      <circle cx="60" cy="-88.57710879355997" r="0.65" fill="black"/>
      <circle cx="62" cy="-65.44178695481031" r="0.65" fill="black"/>
      <circle cx="64" cy="-87.84571416568895" r="0.65" fill="black"/>
      <circle cx="66" cy="-31.30259887867608" r="0.65" fill="black"/>
      <circle cx="68" cy="-70.76787130856033" r="0.65" fill="black"/>
      <circle cx="70" cy="-84.6144543680316" r="0.65" fill="black"/>
      <circle cx="72" cy="-24.180412370166028" r="0.65" fill="black"/>
      <circle cx="74" cy="-50.8213200259018" r="0.65" fill="black"/>
      <circle cx="76" cy="-91.65857665381242" r="0.65" fill="black"/>
      <circle cx="78" cy="-5.201707284332082" r="0.65" fill="black"/>
      <circle cx="80" cy="-3.7777366506385768" r="0.65" fill="black"/>
      <circle cx="82" cy="-50.42734370397297" r="0.65" fill="black"/>
      <circle cx="84" cy="-6.488188379189088" r="0.65" fill="black"/>
      <circle cx="86" cy="-19.128884160769612" r="0.65" fill="black"/>
      <circle cx="88" cy="-55.478355988553666" r="0.65" fill="black"/>
      <circle cx="90" cy="-11.4301869151228" r="0.65" fill="black"/>
      <circle cx="92" cy="-10.598890050408462" r="0.65" fill="black"/>
      <circle cx="94" cy="-39.19872320695861" r="0.65" fill="black"/>
      <circle cx="96" cy="-10.737374329707418" r="0.65" fill="black"/>
      <circle cx="98" cy="-25.857804254744767" r="0.65" fill="black"/>
      <circle cx="100" cy="-39.4262201802396" r="0.65" fill="black"/>
      <circle cx="102" cy="-77.18582561778972" r="0.65" fill="black"/>
      <circle cx="104" cy="-69.19202741094524" r="0.65" fill="black"/>
      <circle cx="106" cy="-44.56065564607359" r="0.65" fill="black"/>
      <circle cx="108" cy="-61.19518653715425" r="0.65" fill="black"/>
      <circle cx="110" cy="-46.2201732214386" r="0.65" fill="black"/>
      <circle cx="112" cy="-24.223637193760542" r="0.65" fill="black"/>
      <circle cx="114" cy="-93.78401448710473" r="0.65" fill="black"/>
      <circle cx="116" cy="1.6895352741758334" r="0.65" fill="black"/>
      <circle cx="118" cy="-73.53932997458502" r="0.65" fill="black"/>
      <circle cx="120" cy="-39.75107339321994" r="0.65" fill="black"/>
      <circle cx="122" cy="-55.33284301799825" r="0.65" fill="black"/>
      <circle cx="124" cy="-56.77966327659874" r="0.65" fill="black"/>
      <circle cx="126" cy="-40.91815857175685" r="0.65" fill="black"/>
      <circle cx="128" cy="-62.763314903923586" r="0.65" fill="black"/>
      <circle cx="130" cy="-83.77248208487553" r="0.65" fill="black"/>
      <circle cx="132" cy="-78.00167170901248" r="0.65" fill="black"/>
      <circle cx="134" cy="-49.029474004046314" r="0.65" fill="black"/>
      <circle cx="136" cy="-32.61846262892102" r="0.65" fill="black"/>
      <circle cx="138" cy="-91.57650374333991" r="0.65" fill="black"/>
      <circle cx="140" cy="-36.65018711256387" r="0.65" fill="black"/>
      <circle cx="142" cy="-33.555805590772394" r="0.65" fill="black"/>
      <circle cx="144" cy="-23.705671126955774" r="0.65" fill="black"/>
      <circle cx="146" cy="-79.1375234095021" r="0.65" fill="black"/>
      <circle cx="148" cy="1.3494181442998836" r="0.65" fill="black"/>
      <circle cx="150" cy="-10.830960332322316" r="0.65" fill="black"/>
      <circle cx="152" cy="-16.303379270402875" r="0.65" fill="black"/>
      <circle cx="154" cy="-16.983886878635094" r="0.65" fill="black"/>
      <circle cx="156" cy="-7.6866501107442105" r="0.65" fill="black"/>
      <circle cx="158" cy="-26.859979823310734" r="0.65" fill="black"/>
      <circle cx="160" cy="-32.84077885825874" r="0.65" fill="black"/>
      <circle cx="162" cy="-11.781844604496241" r="0.65" fill="black"/>
      <circle cx="164" cy="-10.710758180784943" r="0.65" fill="black"/>
      <circle cx="166" cy="-49.75093921379437" r="0.65" fill="black"/>
      <circle cx="168" cy="-96.28757739899692" r="0.65" fill="black"/>
      <circle cx="170" cy="-96.81773850842059" r="0.65" fill="black"/>
      <circle cx="172" cy="-85.74576829877697" r="0.65" fill="black"/>
      <circle cx="174" cy="-27.06489228897876" r="0.65" fill="black"/>
      <circle cx="176" cy="-3.4807557193361163" r="0.65" fill="black"/>
      <circle cx="178" cy="0.3412376579521741" r="0.65" fill="black"/>
      <circle cx="180" cy="-8.859822179074785" r="0.65" fill="black"/>
      <circle cx="182" cy="-50.631088878336975" r="0.65" fill="black"/>
      <circle cx="184" cy="-40.60128604000384" r="0.65" fill="black"/>
      <circle cx="186" cy="-20.846059056696976" r="0.65" fill="black"/>
      <circle cx="188" cy="-14.566507842712731" r="0.65" fill="black"/>
      <circle cx="190" cy="-21.75487503548689" r="0.65" fill="black"/>
      <circle cx="192" cy="-35.226778936984154" r="0.65" fill="black"/>
      <circle cx="194" cy="-88.47363501058788" r="0.65" fill="black"/>
      <circle cx="196" cy="-4.753841806647176" r="0.65" fill="black"/>
      <circle cx="198" cy="-33.746773294465406" r="0.65" fill="black"/>
      <circle cx="200" cy="-83.76159499573048" r="0.65" fill="black"/>
      <polyline points="2,-88.12739557703752 4,-64.48294992869972 6,-10.925586687429114 8,-17.95955580592006 10,0.19515242522831588 12,-65.28288681145507 14,-74.21258426058634 16,-62.22259103107936 18,-4.758385309846537 20,-84.47254535353102 22,-22.937465749402556 24,-89.55586080273886 26,1.6531316966902891 28,-20.11998476000494 30,-17.372224067235855 32,-11.522197833864114 34,-22.472891641240157 36,-52.551156351433285 38,-37.04098194850183 40,-95.44150305778643 42,-53.85489070169009 44,-26.626174531661018 46,-42.094589579499385 48,-71.57509854805424 50,-48.10266582536313 52,-58.464838426376176 54,0.1132249949612123 56,-30.74240390982788 58,-62.596573004939756 60,-88.57710879355997 62,-65.44178695481031 64,-87.84571416568895 66,-31.30259887867608 68,-70.76787130856033 70,-84.6144543680316 72,-24.180412370166028 74,-50.8213200259018 76,-91.65857665381242 78,-5.201707284332082 80,-3.7777366506385768 82,-50.42734370397297 84,-6.488188379189088 86,-19.128884160769612 88,-55.478355988553666 90,-11.4301869151228 92,-10.598890050408462 94,-39.19872320695861 96,-10.737374329707418 98,-25.857804254744767 100,-39.4262201802396 102,-77.18582561778972 104,-69.19202741094524 106,-44.56065564607359 108,-61.19518653715425 110,-46.2201732214386 112,-24.223637193760542 114,-93.78401448710473 116,1.6895352741758334 118,-73.53932997458502 120,-39.75107339321994 122,-55.33284301799825 124,-56.77966327659874 126,-40.91815857175685 128,-62.763314903923586 130,-83.77248208487553 132,-78.00167170901248 134,-49.029474004046314 136,-32.61846262892102 138,-91.57650374333991 140,-36.65018711256387 142,-33.555805590772394 144,-23.705671126955774 146,-79.1375234095021 148,1.3494181442998836 150,-10.830960332322316 152,-16.303379270402875 154,-16.983886878635094 156,-7.6866501107442105 158,-26.859979823310734 160,-32.84077885825874 162,-11.781844604496241 164,-10.710758180784943 166,-49.75093921379437 168,-96.28757739899692 170,-96.81773850842059 172,-85.74576829877697 174,-27.06489228897876 176,-3.4807557193361163 178,0.3412376579521741 180,-8.859822179074785 182,-50.631088878336975 184,-40.60128604000384 186,-20.846059056696976 188,-14.566507842712731 190,-21.75487503548689 192,-35.226778936984154 194,-88.47363501058788 196,-4.753841806647176 198,-33.746773294465406 200,-83.76159499573048"
                stroke="black"
                stroke-width="0.5"
                fill="none"/>
      <g>
         <line x1="2"
               y1="-46.614124913107645"
               x2="200"
               y2="-38.526697306202706"
               class="regression"/>
      </g>
      <g>
         <path d="M2,-43.08639342541518 Q3.2,-43.08639342541518 4,-43.08639342541518 C4.8,-43.08639342541518 5.2,-43.08639342541518 6,-43.08639342541518 C6.8,-43.08639342541518 7.2,-43.08639342541518 8,-43.08639342541518 C8.8,-43.08639342541518 9.2,-43.08639342541518 10,-43.08639342541518 C10.8,-43.08639342541518 11.2,-43.08639342541518 12,-43.08639342541518 C12.8,-43.08639342541518 13.309474305505038,-43.38233166965548 14,-43.08639342541518 C14.909474305505038,-42.6966204867707 15.480880033905946,-42.25738257454355 16,-41.372115468203226 C17.080880033905945,-39.52886611850747 17.01688018376172,-38.208652430523195 18,-36.26510228532499 C18.616880183761722,-35.04557893637298 19.197571908025576,-33.46957380736944 20,-33.46443173282769 C20.797571908025574,-33.45932077741063 21.05489459220118,-35.283227876627556 22,-36.23946971042797 C22.654894592201178,-36.90208109813651 23.581055436898897,-36.7105561768262 24,-37.511564786600076 C25.181055436898895,-39.769705020175444 24.788142941977945,-42.186527515333594 26,-43.88734181880106 C26.388142941977947,-44.43209176528693 27.418665384957187,-43.69726069315366 28,-43.12547541148341 C29.01866538495719,-42.12354320412192 29.025703739114128,-41.05261305657598 30,-39.95304809622173 C30.62570373911413,-39.246895425095836 31.47149054387145,-38.199924238221506 32,-38.611181332783055 C33.07149054387145,-39.44495655253157 33.026586389431095,-42.57167284312888 34,-43.06562888199689 C34.6265863894311,-43.38358840872994 35.1944741311015,-40.65228126450839 36,-40.640970246785706 C36.794474131101495,-40.629814415143215 37.472548693274334,-43.485413714148834 38,-43.009461758583946 C39.072548693274335,-42.04163469759613 38.9093063959101,-38.07265428668801 40,-37.031522705403944 C40.5093063959101,-36.54535961492316 41.26530845659467,-38.274426475330834 42,-39.19122507917182 C42.86530845659467,-40.271016444702916 43.35635065832602,-40.803480874859495 44,-42.02299762883414 C44.95635065832602,-43.83498682075973 45.110408669911024,-44.91482915864781 46,-46.76998994392242 C46.710408669911025,-48.25148179457502 47.261208908206015,-48.89575970128152 48,-50.36462921865216 C48.86120890820602,-52.07689067849205 48.94117335521152,-53.944151594974734 50,-54.72281738694874 C50.54117335521152,-55.12079866301985 51.281814787318105,-53.156884331425 52,-53.306246888764946 C52.881814787318106,-53.489639848419706 53.0624506321741,-55.19687732703956 54,-55.554706179435506 C54.66245063217409,-55.807539744914315 55.31124607664963,-55.297829360744956 56,-54.83290293345184 C56.91124607664963,-54.21778864017752 57.163775058690916,-52.93097029102142 58,-52.854604378016916 C58.76377505869092,-52.78485474869387 59.360826861961456,-53.681866473918916 60,-54.46761407763297 C60.96082686196146,-55.64877667574702 61.291163304457186,-57.97046525791492 62,-57.77187988258717 C62.89116330445719,-57.52221447953066 63.07771265889374,-55.04858145870741 64,-53.34698713167234 C64.67771265889374,-52.096626247015486 64.98751845887014,-51.27559164743502 66,-50.39199185335737 C66.58751845887014,-49.87926034351161 67.19559301511318,-49.875412102987156 68,-49.85615887186382 C68.79559301511317,-49.83711660036708 69.21846773350782,-50.3615384777252 70,-50.29625309680717 C70.81846773350782,-50.227882307727654 71.18302877776769,-49.77707327819995 72,-49.522018446869964 C72.78302877776768,-49.2775602977881 73.56576256044458,-49.65732194840204 74,-49.04747064577756 C75.16576256044459,-47.410251577873424 75.08842615707809,-45.909650292789074 76,-43.90434252054842 C76.68842615707808,-42.389921791913366 77.1641775949524,-41.68980217645277 78,-40.2481493935883 C78.76417759495241,-38.93007183343592 79.02223931081484,-38.132899721920275 80,-37.00501666300627 C80.62223931081483,-36.287240641714966 81.35610775098246,-36.33665223916162 82,-35.63400169307503 C82.95610775098247,-34.59064446308738 83.20171107484056,-33.83873849043489 84,-32.63999722282066 C84.80171107484057,-31.436117123992023 85.24631522307355,-29.52925346270281 86,-29.627448276967865 C86.84631522307356,-29.737711570964986 86.98578446510587,-31.954629654040623 88,-33.161142493476106 C88.58578446510586,-33.857992870911744 89.38161598605406,-34.68193048030375 90,-34.38585631914567 C90.98161598605405,-33.9158714503652 91.25149125587042,-31.135021533123766 92,-31.245994918629744 C92.85149125587043,-31.37223641965932 93.12000470304918,-33.53517448588731 94,-34.97889353548455 C94.72000470304918,-36.1601322411839 95.09419534062894,-37.56323735101874 96,-37.80838930687123 C96.69419534062895,-37.996270152634416 97.51769045947283,-35.57038700397374 98,-36.06147553952373 C99.11769045947283,-37.19951019324583 98.85353289709849,-40.61096128277201 100,-41.88119728005144 C100.45353289709848,-42.38369212738455 101.18323884329833,-40.530838889961686 102,-40.493302651055075 C102.78323884329832,-40.457307011323984 103.26543900542391,-41.12952915757685 104,-41.69736758345717 C104.86543900542391,-42.366378769953606 105.30602313528188,-42.74045387481359 106,-43.58542668199698 C106.90602313528188,-44.68858292669857 107.02769476263,-45.557871932065474 108,-46.567690213169634 C108.62769476263001,-47.219602413058276 109.28051552279287,-47.167022563697195 110,-47.739752884478975 C110.88051552279288,-48.44066854534225 111.24444299443216,-48.90701316590464 112,-49.751805167282264 C112.84444299443216,-50.695981029670726 113.2473180505819,-51.19289350123616 114,-52.21217254389419 C114.8473180505819,-53.359607436004566 114.97470736636427,-54.396850393409665 116,-55.16859000420325 C116.57470736636427,-55.60117327329923 117.27418523178969,-55.45701517505077 118,-55.2229797436181 C118.8741852317897,-54.94110297996607 119.15491965652289,-54.33099435207955 120,-53.8788095164915 C120.7549196565229,-53.47486778077151 121.31103152742274,-52.87093039487832 122,-53.082663315348 C122.91103152742275,-53.362640373252546 123.07914265281302,-54.78868000999872 124,-55.10808446242705 C124.67914265281301,-55.34364883926035 125.19909125547073,-54.473259893252646 126,-54.47008538850206 C126.79909125547073,-54.46691808760297 127.53302528572769,-55.56501207657863 128,-55.09222994830285 C129.13302528572768,-53.94511407756165 129.24917454972191,-50.2858335739146 130,-50.420340390959595 C130.84917454972194,-50.57246598254204 131.17343990781833,-55.72700479440748 132,-55.80881096987146 C132.77343990781833,-55.88535974280196 132.94495271974515,-52.641615372847184 134,-50.8162277619458 C134.54495271974514,-49.87337907471965 135.26651239543023,-49.71888976329915 136,-48.88822022455262 C136.86651239543022,-47.906901048406006 137.20492415178373,-47.33079005253927 138,-46.28625597471293 C138.80492415178375,-45.228783648657696 139.15715313824302,-44.65905117928237 140,-43.63320421484868 C140.757153138243,-42.711656916376334 141.21762834663832,-42.31925601489055 142,-41.41777031744784 C142.81762834663832,-40.47566018711387 143.2930944946681,-40.047284089325075 144,-39.02421464540698 C144.8930944946681,-37.73168306779895 145.28247133416667,-37.02976078461306 146,-35.62876776363253 C146.88247133416667,-33.90571997578285 147.04158037161451,-32.883975814411464 148,-31.214112623331445 C148.6415803716145,-30.096281336337395 149.06427047183408,-28.989941395883136 150,-28.659531568447353 C150.66427047183407,-28.42497501619279 151.14848979578534,-29.49169657533745 152,-29.801696674105575 C152.74848979578533,-30.074191248418263 153.50216759020617,-29.577456880257614 154,-30.115768251149383 C155.10216759020616,-31.30755354829798 155.15584080333412,-32.546144530118326 156,-34.12693834420649 C156.75584080333414,-35.54234490622129 156.9343779380608,-36.61969526049649 158,-37.6062691914068 C158.5343779380608,-38.10100683036389 159.56710797235965,-38.35183446070816 160,-37.830217268874996 C161.16710797235964,-36.42389988662435 160.8311052812125,-34.24070507865545 162,-32.786432756197264 C162.4311052812125,-32.250076086553634 163.2006358150935,-32.866474019795454 164,-32.85364478862044 C164.8006358150935,-32.840795148678126 165.3641650705467,-32.37934493959992 166,-32.72223557840394 C166.9641650705467,-33.24218684505823 167.12924961150065,-34.169820786057755 168,-35.01074955226622 C168.72924961150065,-35.7150236865725 169.1388596832904,-36.05740962667237 170,-36.585242829690806 C170.73885968329043,-37.03812450953427 171.19584970317052,-37.45093103495889 172,-37.462536759420985 C172.79584970317052,-37.474022687368354 173.19455484397147,-36.95681871057771 174,-36.642971960714455 C174.79455484397147,-36.33336868915451 175.26956256327455,-35.75345339643086 176,-35.903911705862996 C176.86956256327457,-36.083027543356614 177.49829205456737,-36.62062794469607 178,-37.46690732802885 C179.09829205456737,-39.319502909023825 179.02962543537012,-42.121181134315414 180,-42.65109911668239 C180.62962543537012,-42.9949352522529 181.29904385737441,-40.907615166700516 182,-39.65129262287257 C182.8990438573744,-38.039937793055756 182.912810960135,-36.851708564182 184,-35.48190568257048 C184.512810960135,-34.83578996105609 185.46746087010965,-34.209764494148324 186,-34.6114961150578 C187.06746087010967,-35.416756726977326 186.90218534301783,-37.43234056690516 188,-38.49938626464297 C188.50218534301783,-38.98749662673923 189.2,-38.49938626464297 190,-38.49938626464297 C190.8,-38.49938626464297 191.2,-38.49938626464297 192,-38.49938626464297 C192.8,-38.49938626464297 193.2,-38.49938626464297 194,-38.49938626464297 C194.8,-38.49938626464297 195.2,-38.49938626464297 196,-38.49938626464297 C196.8,-38.49938626464297 197.2,-38.49938626464297 198,-38.49938626464297 Q198.8,-38.49938626464297 200,-38.49938626464297"
               class="spline"/>
      </g>
      <text x="100" y="8" text-anchor="middle" font-size="5">Fake independent
                    variable</text>
      <text x="-10"
            y="-50"
            text-anchor="middle"
            font-size="5"
            writing-mode="tb">Fake
                    dependent variable</text>
      <text x="100" y="-106" text-anchor="middle" font-size="8">Smoothing examples (window                     = 15)</text>
   </g>
   <g transform="translate(50, 15)">
      <rect x="0"
            y="0"
            width="100"
            height="51"
            fill="ghostwhite"
            stroke="black"
            stroke-width="0.5"/>
      <rect x="2" y="2" width="5" height="5" fill="black"/>
      <rect x="2" y="9" width="5" height="5" fill="red"/>
      <rect x="2" y="16" width="5" height="5" fill="gray"/>
      <rect x="2" y="23" width="5" height="5" fill="blue"/>
      <rect x="2" y="30" width="5" height="5" fill="green"/>
      <rect x="2" y="37" width="5" height="5" fill="indigo"/>
      <rect x="2" y="44" width="5" height="5" fill="darkgoldenrod"/>
      <text x="10" y="6" fill="black" font-size="5">
         <tspan>Actual data</tspan>
         <tspan x="10" dy="7" fill="red">Regression line (46.6–38.5)</tspan>
         <tspan x="10" dy="7" fill="gray">Y intercept of regression line (46.6)</tspan>
         <tspan x="10" dy="7" fill="blue">Rectangular kernal</tspan>
      </text>
   </g>
</svg>
