<?xml version="1.0" encoding="UTF-8"?>
<svg xmlns="http://www.w3.org/2000/svg" viewBox="-12 -115 210 195">
   <style type="text/css">
                #linear {
                    stroke: blue;
                    stroke-width: 0.5;
                    stroke-opacity: 0.5;
                    fill: none;
                }
                #gaussian {
                    stroke: green;
                    stroke-width: 0.5;
                    stroke-opacity: 0.5;
                    fill: none;
                }
                #exponential {
                    stroke: indigo;
                    stroke-width: 0.5;
                    stroke-opacity: 0.5;
                    fill: none;
                }
                #parabolic {
                    stroke: darkgoldenrod;
                    stroke-width: 0.5;
                    stroke-opacity: 0.5;
                    fill: none;
                }
                .regression {
                    stroke: red;
                    stroke-width: 0.5;
                    stroke-opacity: 0.5;
                }</style>
   <g>
      <line x1="2"
            y1="0"
            x2="200"
            y2="0"
            stroke="lightgray"
            stroke-width="0.5"
            stroke-linecap="square"/>
      <text x="0"
            y="0"
            fill="lightgray"
            font-size="3"
            text-anchor="end"
            alignment-baseline="central">0.0</text>
      <line x1="2"
            y1="-100"
            x2="200"
            y2="-100"
            stroke="lightgray"
            stroke-width="0.5"
            stroke-linecap="square"/>
      <text x="0"
            y="-100"
            fill="lightgray"
            font-size="3"
            text-anchor="end"
            alignment-baseline="central">100.0</text>
      <text x="0"
            y="-53.422008979353876"
            fill="lightgray"
            font-size="3"
            text-anchor="end"
            alignment-baseline="central">53.4</text>
      <text x="208"
            y="-100"
            font-size="3"
            fill="lightgray"
            text-anchor="end"
            alignment-baseline="central">100.0</text>
      <text x="208"
            y="0"
            font-size="3"
            fill="lightgray"
            text-anchor="end"
            alignment-baseline="central">0.0</text>
      <text x="208"
            y="-36.09016116722801"
            fill="red"
            fill-opacity="0.5"
            font-size="3"
            text-anchor="end"
            alignment-baseline="central">36.1</text>
      <line x1="2"
            y1="-100"
            x2="2"
            y2="0"
            stroke="lightgray"
            stroke-width="0.5"
            stroke-linecap="square"/>
      <line x1="200"
            y1="-100"
            x2="200"
            y2="0"
            stroke="lightgray"
            stroke-width="0.5"
            stroke-linecap="square"/>
      <line x1="2"
            y1="-53.422008979353876"
            x2="200"
            y2="-53.422008979353876"
            stroke="lightgray"
            stroke-width="0.5"/>
      <circle cx="2" cy="-82.73881022565396" r="0.65" fill="black"/>
      <circle cx="4" cy="-25.48431515390337" r="0.65" fill="black"/>
      <circle cx="6" cy="-86.7421672382419" r="0.65" fill="black"/>
      <circle cx="8" cy="-34.02604886396297" r="0.65" fill="black"/>
      <circle cx="10" cy="-53.72755468264967" r="0.65" fill="black"/>
      <circle cx="12" cy="-69.66859841865765" r="0.65" fill="black"/>
      <circle cx="14" cy="-60.68535644675543" r="0.65" fill="black"/>
      <circle cx="16" cy="-65.69383962788598" r="0.65" fill="black"/>
      <circle cx="18" cy="-56.85066920682196" r="0.65" fill="black"/>
      <circle cx="20" cy="-37.595911617612266" r="0.65" fill="black"/>
      <circle cx="22" cy="-79.46850329264281" r="0.65" fill="black"/>
      <circle cx="24" cy="-0.7775719499797402" r="0.65" fill="black"/>
      <circle cx="26" cy="-88.17461497243168" r="0.65" fill="black"/>
      <circle cx="28" cy="-61.291373318611775" r="0.65" fill="black"/>
      <circle cx="30" cy="-9.916831834815856" r="0.65" fill="black"/>
      <circle cx="32" cy="-49.760478718761846" r="0.65" fill="black"/>
      <circle cx="34" cy="-87.14791870530168" r="0.65" fill="black"/>
      <circle cx="36" cy="-23.931787744562573" r="0.65" fill="black"/>
      <circle cx="38" cy="-91.56023479024044" r="0.65" fill="black"/>
      <circle cx="40" cy="-68.0963505478701" r="0.65" fill="black"/>
      <circle cx="42" cy="-76.47352228641726" r="0.65" fill="black"/>
      <circle cx="44" cy="-71.87633062509641" r="0.65" fill="black"/>
      <circle cx="46" cy="-54.901592925626666" r="0.65" fill="black"/>
      <circle cx="48" cy="-33.62607897915101" r="0.65" fill="black"/>
      <circle cx="50" cy="-75.21060443131795" r="0.65" fill="black"/>
      <circle cx="52" cy="-64.84273217002406" r="0.65" fill="black"/>
      <circle cx="54" cy="-48.446360420575374" r="0.65" fill="black"/>
      <circle cx="56" cy="-64.44197827716647" r="0.65" fill="black"/>
      <circle cx="58" cy="-29.38280745648133" r="0.65" fill="black"/>
      <circle cx="60" cy="-77.33284233175493" r="0.65" fill="black"/>
      <circle cx="62" cy="-40.36745033582171" r="0.65" fill="black"/>
      <circle cx="64" cy="-40.78080902164461" r="0.65" fill="black"/>
      <circle cx="66" cy="-3.8858894727077615" r="0.65" fill="black"/>
      <circle cx="68" cy="-58.01471452540786" r="0.65" fill="black"/>
      <circle cx="70" cy="-1.9082872247058864" r="0.65" fill="black"/>
      <circle cx="72" cy="-24.615871152486704" r="0.65" fill="black"/>
      <circle cx="74" cy="-3.4214221180918676" r="0.65" fill="black"/>
      <circle cx="76" cy="-1.2894653798843265" r="0.65" fill="black"/>
      <circle cx="78" cy="-12.977298720920961" r="0.65" fill="black"/>
      <circle cx="80" cy="-26.174138645533" r="0.65" fill="black"/>
      <circle cx="82" cy="-35.85292832631315" r="0.65" fill="black"/>
      <circle cx="84" cy="-39.41339327214578" r="0.65" fill="black"/>
      <circle cx="86" cy="-26.843088257824235" r="0.65" fill="black"/>
      <circle cx="88" cy="-68.49397652074705" r="0.65" fill="black"/>
      <circle cx="90" cy="-69.70595178395193" r="0.65" fill="black"/>
      <circle cx="92" cy="-3.2317514801849097" r="0.65" fill="black"/>
      <circle cx="94" cy="-87.15828494269336" r="0.65" fill="black"/>
      <circle cx="96" cy="-70.19360965007294" r="0.65" fill="black"/>
      <circle cx="98" cy="-83.45299407394432" r="0.65" fill="black"/>
      <circle cx="100" cy="-46.41341761487319" r="0.65" fill="black"/>
      <circle cx="102" cy="-21.80531020214619" r="0.65" fill="black"/>
      <circle cx="104" cy="-26.478999709058826" r="0.65" fill="black"/>
      <circle cx="106" cy="-30.59215393745952" r="0.65" fill="black"/>
      <circle cx="108" cy="-12.732433349027186" r="0.65" fill="black"/>
      <circle cx="110" cy="-39.114749223592064" r="0.65" fill="black"/>
      <circle cx="112" cy="-69.96099040707826" r="0.65" fill="black"/>
      <circle cx="114" cy="-16.653400915411112" r="0.65" fill="black"/>
      <circle cx="116" cy="-58.64341218134389" r="0.65" fill="black"/>
      <circle cx="118" cy="-25.579743332364426" r="0.65" fill="black"/>
      <circle cx="120" cy="-35.95460249564285" r="0.65" fill="black"/>
      <circle cx="122" cy="-14.703273143550557" r="0.65" fill="black"/>
      <circle cx="124" cy="-22.100455726502844" r="0.65" fill="black"/>
      <circle cx="126" cy="-35.73931708965005" r="0.65" fill="black"/>
      <circle cx="128" cy="-31.147366689328287" r="0.65" fill="black"/>
      <circle cx="130" cy="-82.76439270872338" r="0.65" fill="black"/>
      <circle cx="132" cy="-77.89531020450987" r="0.65" fill="black"/>
      <circle cx="134" cy="-36.806295945978654" r="0.65" fill="black"/>
      <circle cx="136" cy="-20.190396762008724" r="0.65" fill="black"/>
      <circle cx="138" cy="-29.636538428143723" r="0.65" fill="black"/>
      <circle cx="140" cy="-7.3089185274236925" r="0.65" fill="black"/>
      <circle cx="142" cy="-69.79886745289744" r="0.65" fill="black"/>
      <circle cx="144" cy="-76.940160071996" r="0.65" fill="black"/>
      <circle cx="146" cy="-1.1326664871237253" r="0.65" fill="black"/>
      <circle cx="148" cy="-87.17328113628714" r="0.65" fill="black"/>
      <circle cx="150" cy="-60.24991961346041" r="0.65" fill="black"/>
      <circle cx="152" cy="-18.671386004996716" r="0.65" fill="black"/>
      <circle cx="154" cy="-69.99276178229901" r="0.65" fill="black"/>
      <circle cx="156" cy="-47.76481785729785" r="0.65" fill="black"/>
      <circle cx="158" cy="-34.00154430498675" r="0.65" fill="black"/>
      <circle cx="160" cy="-3.3519471746743648" r="0.65" fill="black"/>
      <circle cx="162" cy="-38.26380275682507" r="0.65" fill="black"/>
      <circle cx="164" cy="-81.1495184049938" r="0.65" fill="black"/>
      <circle cx="166" cy="-45.33524431170814" r="0.65" fill="black"/>
      <circle cx="168" cy="-36.436502775748274" r="0.65" fill="black"/>
      <circle cx="170" cy="-23.232408755122492" r="0.65" fill="black"/>
      <circle cx="172" cy="-78.72934728371891" r="0.65" fill="black"/>
      <circle cx="174" cy="1.54542587911398" r="0.65" fill="black"/>
      <circle cx="176" cy="-29.909675412244663" r="0.65" fill="black"/>
      <circle cx="178" cy="-63.63175892447005" r="0.65" fill="black"/>
      <circle cx="180" cy="-74.47576154505364" r="0.65" fill="black"/>
      <circle cx="182" cy="-14.071222444202572" r="0.65" fill="black"/>
      <circle cx="184" cy="-13.937703328296404" r="0.65" fill="black"/>
      <circle cx="186" cy="-1.2073873742275216" r="0.65" fill="black"/>
      <circle cx="188" cy="-7.33781094377073" r="0.65" fill="black"/>
      <circle cx="190" cy="-31.41112634333875" r="0.65" fill="black"/>
      <circle cx="192" cy="-77.82178386246309" r="0.65" fill="black"/>
      <circle cx="194" cy="-3.2644051265250846" r="0.65" fill="black"/>
      <circle cx="196" cy="-87.89338274228959" r="0.65" fill="black"/>
      <circle cx="198" cy="-90.47306944326998" r="0.65" fill="black"/>
      <circle cx="200" cy="-30.95215487798194" r="0.65" fill="black"/>
      <polyline points="2,-82.73881022565396 4,-25.48431515390337 6,-86.7421672382419 8,-34.02604886396297 10,-53.72755468264967 12,-69.66859841865765 14,-60.68535644675543 16,-65.69383962788598 18,-56.85066920682196 20,-37.595911617612266 22,-79.46850329264281 24,-0.7775719499797402 26,-88.17461497243168 28,-61.291373318611775 30,-9.916831834815856 32,-49.760478718761846 34,-87.14791870530168 36,-23.931787744562573 38,-91.56023479024044 40,-68.0963505478701 42,-76.47352228641726 44,-71.87633062509641 46,-54.901592925626666 48,-33.62607897915101 50,-75.21060443131795 52,-64.84273217002406 54,-48.446360420575374 56,-64.44197827716647 58,-29.38280745648133 60,-77.33284233175493 62,-40.36745033582171 64,-40.78080902164461 66,-3.8858894727077615 68,-58.01471452540786 70,-1.9082872247058864 72,-24.615871152486704 74,-3.4214221180918676 76,-1.2894653798843265 78,-12.977298720920961 80,-26.174138645533 82,-35.85292832631315 84,-39.41339327214578 86,-26.843088257824235 88,-68.49397652074705 90,-69.70595178395193 92,-3.2317514801849097 94,-87.15828494269336 96,-70.19360965007294 98,-83.45299407394432 100,-46.41341761487319 102,-21.80531020214619 104,-26.478999709058826 106,-30.59215393745952 108,-12.732433349027186 110,-39.114749223592064 112,-69.96099040707826 114,-16.653400915411112 116,-58.64341218134389 118,-25.579743332364426 120,-35.95460249564285 122,-14.703273143550557 124,-22.100455726502844 126,-35.73931708965005 128,-31.147366689328287 130,-82.76439270872338 132,-77.89531020450987 134,-36.806295945978654 136,-20.190396762008724 138,-29.636538428143723 140,-7.3089185274236925 142,-69.79886745289744 144,-76.940160071996 146,-1.1326664871237253 148,-87.17328113628714 150,-60.24991961346041 152,-18.671386004996716 154,-69.99276178229901 156,-47.76481785729785 158,-34.00154430498675 160,-3.3519471746743648 162,-38.26380275682507 164,-81.1495184049938 166,-45.33524431170814 168,-36.436502775748274 170,-23.232408755122492 172,-78.72934728371891 174,1.54542587911398 176,-29.909675412244663 178,-63.63175892447005 180,-74.47576154505364 182,-14.071222444202572 184,-13.937703328296404 186,-1.2073873742275216 188,-7.33781094377073 190,-31.41112634333875 192,-77.82178386246309 194,-3.2644051265250846 196,-87.89338274228959 198,-90.47306944326998 200,-30.95215487798194"
                stroke="black"
                stroke-width="0.5"
                fill="none"/>
      <g>
         <line x1="2"
               y1="-53.422008979353876"
               x2="200"
               y2="-36.09016116722801"
               class="regression"/>
      </g>
      <g id="linear">
         <g>
            <path d="M2,-57.09235259056896 Q3.2,-57.09235259056896 4,-57.09235259056896 C4.8,-57.09235259056896 5.2,-57.09235259056896 6,-57.09235259056896 C6.8,-57.09235259056896 7.2,-57.09235259056896 8,-57.09235259056896 C8.8,-57.09235259056896 9.2,-57.09235259056896 10,-57.09235259056896 C10.8,-57.09235259056896 11.2,-57.09235259056896 12,-57.09235259056896 C12.8,-57.09235259056896 13.2,-57.09235259056896 14,-57.09235259056896 C14.8,-57.09235259056896 15.2,-57.09235259056896 16,-57.09235259056896 C16.8,-57.09235259056896 17.2,-57.09235259056896 18,-57.09235259056896 C18.8,-57.09235259056896 19.2,-57.09235259056896 20,-57.09235259056896 C20.8,-57.09235259056896 21.2,-57.09235259056896 22,-57.09235259056896 C22.8,-57.09235259056896 23.22466714957847,-56.95187583212552 24,-57.09235259056896 C24.824667149578467,-57.24176786157751 25.199433379735556,-57.815304015036276 26,-57.817082664198914 C26.799433379735557,-57.818858795598175 27.21416331082328,-57.06142931296769 28,-57.10123954197372 C28.814163310823282,-57.14248478834436 29.198010987664464,-58.014413337792256 30,-58.01972135264059 C30.798010987664462,-58.025003038681795 31.165454750846852,-57.35256891229726 32,-57.12771379419758 C32.76545475084686,-56.921474026400354 33.23849524170689,-56.79758725349861 34,-56.94198413789832 C34.838495241706894,-57.10097999336459 35.218798317887924,-57.93069180138158 36,-57.88619564386252 C36.818798317887925,-57.83955803444189 37.17039051711895,-57.122364836600596 38,-56.714149720549095 C38.770390517118955,-56.33507370847345 39.35412126593719,-56.44573146848734 40,-55.91796782354466 C40.95412126593719,-55.13833150720271 41.01786418709848,-54.04125532507961 42,-53.445649817337525 C42.61786418709848,-53.07095284769414 43.281951242415495,-53.74010776069783 44,-53.49221163008097 C44.8819512424155,-53.18773049550871 45.275438728505385,-52.72072628831516 46,-52.06470665436472 C46.87543872850539,-51.27208218378617 47.04454884938964,-50.36943077683002 48,-49.87060136875848 C48.644548849389636,-49.53409026527733 49.46703973307574,-50.42532802975591 50,-49.976355375482974 C51.06703973307574,-49.07746723896495 51.05526101186042,-47.7782291743685 52,-46.50094939178108 C52.655261011860425,-45.615041587324676 53.0889342400826,-44.86044464291678 54,-44.56838640787343 C54.6889342400826,-44.3475363583252 55.19480493275225,-45.19975855752989 56,-45.218678680302126 C56.79480493275225,-45.23735466022219 57.31388769092316,-45.08531053441411 58,-44.66237666460416 C58.91388769092316,-44.099037321204435 59.07221000982232,-43.16886104135953 60,-42.75299564727793 C60.67221000982232,-42.451689442641225 61.237884530627944,-43.02305171871404 62,-42.8694476678084 C62.837884530627946,-42.70057239461434 63.16164678701229,-42.12667991066802 64,-41.946797337028656 C64.7616467870123,-41.78337339813343 65.42294636851219,-42.42453742228999 66,-42.011181386471925 C67.0229463685122,-41.27842270916758 66.99343467895932,-39.66491396713605 68,-39.08151055422263 C68.59343467895931,-38.737556903317895 69.20002250785687,-39.44820384013582 70,-39.69278872692652 C70.80002250785687,-39.937387376808516 71.31916022202162,-39.86111380508437 72,-40.30446939590438 C72.91916022202162,-40.903016714192205 73.11962790103863,-42.112406139446136 74,-42.297545999696105 C74.71962790103863,-42.44888179189971 75.2535061092932,-41.681899493026414 76,-41.145658527038314 C76.85350610929319,-40.532545752477255 77.12464359974906,-39.993185173976485 78,-39.4241616483232 C78.72464359974907,-38.95310865110618 79.24012531799198,-38.96960787727635 80,-38.54546721986254 C80.84012531799198,-38.07653291645678 81.14565922382577,-37.62291803365726 82,-37.191474246274254 C82.74565922382578,-36.814914858502675 83.27080334539787,-36.92555830934384 84,-36.52545928197609 C84.87080334539786,-36.04766283389397 85.16806187539815,-35.06848650244011 86,-34.99673555764958 C86.76806187539816,-34.93049365384961 87.18180230078674,-36.135753394526056 88,-36.180477160499834 C88.78180230078674,-36.22321150596642 89.31496526985998,-35.00555391334235 90,-35.21538083625049 C90.91496526985999,-35.49563574698079 91.11295869509908,-37.20767149234484 92,-37.40568174459594 C92.71295869509909,-37.564832316594334 93.20594244790333,-36.095487897533424 94,-36.1082828968742 C94.80594244790333,-36.121269402779724 95.13168885972794,-37.26057975216397 96,-37.47013550771168 C96.73168885972795,-37.646719228355984 97.21841541207819,-37.00511447779864 98,-37.07363158735423 C98.8184154120782,-37.14537744739024 99.25149303347236,-37.42311952384564 100,-37.820792931690676 C100.85149303347237,-38.273181688936475 101.14719158699293,-38.75003989814829 102,-39.1987870000813 C102.74719158699294,-39.59195861299905 103.3386981031791,-39.43119829115322 104,-39.92558971881759 C104.9386981031791,-40.62736344365879 105.14213036827643,-41.34306045063557 106,-42.1891998813452 C106.74213036827642,-42.92118262569776 107.0942157214149,-43.51369654878549 108,-43.87089515647307 C108.6942157214149,-44.14466110161796 109.20296665634348,-43.84041486788976 110,-43.766611263426384 C110.80296665634349,-43.69225824673804 111.29059517286387,-43.82335465972992 112,-43.50050360359377 C112.89059517286387,-43.09519258631522 113.29287892636337,-42.6621977847987 114,-41.946206079889635 C114.89287892636338,-41.04212624321259 115.216150925271,-39.417637594842255 116,-39.4503247496285 C116.816150925271,-39.484358918301204 117.00805134936941,-41.55405633165661 118,-42.113009388537 C118.60805134936942,-42.45564018928886 119.40090314507259,-42.17924279691444 120,-41.7042843937091 C121.00090314507258,-40.9107777083761 120.99247926643825,-39.600167324850034 122,-38.94184666719115 C122.59247926643826,-38.55471682724034 123.21365226520582,-38.952600736601646 124,-39.09065814968486 C124.81365226520582,-39.23350936157653 125.186027820142,-39.55700222379699 126,-39.644118229628354 C126.786027820142,-39.72824346862 127.31125485445021,-39.240647088589924 128,-39.51876126174238 C128.9112548544502,-39.88672449460738 129.1099200709386,-40.71915404724291 130,-41.25931174467198 C130.70992007093864,-41.69013686313217 131.21096201237884,-41.64289809457966 132,-41.946218301465514 C132.81096201237884,-42.25796649259242 133.2493061554243,-42.90578598659055 134,-42.7969827397039 C134.8493061554243,-42.673886929103226 135.1849327137803,-41.916314965072296 136,-41.36647065774719 C136.78493271378034,-40.83695512988557 137.32730355011597,-39.87794591510795 138,-40.098583151737074 C138.92730355011597,-40.402728792537225 139.02082069143407,-42.17720604016271 140,-42.67842785132038 C140.62082069143406,-42.99621323408186 141.19552481794747,-42.16582210893489 142,-42.146101136534945 C142.79552481794747,-42.126599574114856 143.20333242842585,-42.59523282438461 144,-42.5803715142703 C144.80333242842588,-42.56538587563042 145.3785335730935,-41.75264737226539 146,-42.07148376464947 C146.9785335730935,-42.573509458659764 147.04809815161963,-44.248146931140276 148,-44.632526730256224 C148.64809815161962,-44.894230011693104 149.1623604579645,-43.93359010427202 150,-43.68669146603154 C150.7623604579645,-43.46198173174366 151.2675643339522,-43.2582768991544 152,-43.45350579893533 C152.86756433395223,-43.68475290807818 153.13513850641593,-44.54362166775423 154,-44.752881488340996 C154.73513850641592,-44.93075384489779 155.38454737499552,-44.86515586337392 156,-44.42133624179421 C156.98454737499554,-43.71135236059029 157.0465625135005,-42.69493324415688 158,-41.86837273138192 C158.6465625135005,-41.30785035810904 159.18894170255822,-41.29306991735224 160,-40.95362902667462 C160.78894170255822,-40.623444285264824 161.20934837310514,-40.52070337535352 162,-40.194308651163375 C162.80934837310514,-39.860195585399055 163.2055074089805,-39.28803103417386 164,-39.302359551788456 C164.80550740898053,-39.31688671947853 165.16332265914767,-39.9976642293098 166,-40.26644786442506 C166.76332265914766,-40.51166621691749 167.41993421888964,-40.96819417148211 168,-40.58736452080769 C169.01993421888963,-39.91774875490763 169.24692766154365,-37.541795098867816 170,-37.64033432298884 C170.84692766154367,-37.75115447982293 170.93361915793557,-40.150375006278146 172,-41.11076297319548 C172.53361915793556,-41.59134307927253 173.25806088576684,-41.435643661506916 174,-41.24275450547479 C174.85806088576683,-41.01967603865099 175.169038079743,-40.15306599708506 176,-40.07084391605566 C176.769038079743,-39.994749079739016 177.17195654124188,-40.68629729254218 178,-40.84696221210969 C178.77195654124188,-40.996744610963795 179.2,-40.84696221210969 180,-40.84696221210969 C180.8,-40.84696221210969 181.2,-40.84696221210969 182,-40.84696221210969 C182.8,-40.84696221210969 183.2,-40.84696221210969 184,-40.84696221210969 C184.8,-40.84696221210969 185.2,-40.84696221210969 186,-40.84696221210969 C186.8,-40.84696221210969 187.2,-40.84696221210969 188,-40.84696221210969 C188.8,-40.84696221210969 189.2,-40.84696221210969 190,-40.84696221210969 C190.8,-40.84696221210969 191.2,-40.84696221210969 192,-40.84696221210969 C192.8,-40.84696221210969 193.2,-40.84696221210969 194,-40.84696221210969 C194.8,-40.84696221210969 195.2,-40.84696221210969 196,-40.84696221210969 C196.8,-40.84696221210969 197.2,-40.84696221210969 198,-40.84696221210969 Q198.8,-40.84696221210969 200,-40.84696221210969"
                  class="spline"
                  fill="none"/>
         </g>
      </g>
      <g id="gaussian">
         <g>
            <path d="M2,-60.280740935130176 Q3.100601445896257,-60.11428523274796 4,-59.97121943469743 C4.900601445896257,-59.82796229469569 5.10092498767911,-59.79695982456188 6,-59.64446773945846 C6.90092498767911,-59.49166188009161 7.101180995198947,-59.45748444726557 8,-59.29277955809684 C8.901180995198946,-59.12764184389368 9.10121868215547,-59.089229739309225 10,-58.911484176409814 C10.90121868215547,-58.73325659337621 11.10083858746758,-58.69012084260685 12,-58.50172812269015 C12.90083858746758,-58.312984000296204 13.099891869437347,-58.2656426333967 14,-58.07340230460838 C14.899891869437345,-57.88120816372617 15.098459269821427,-57.83157342762702 16,-57.647429301200084 C16.898459269821426,-57.46391457820063 17.097034771779686,-57.41552279075059 18,-57.256382639216405 C18.897034771779687,-57.09828768156913 19.096547919954805,-57.05630506245534 20,-56.94246239190795 C20.896547919954802,-56.829489704439844 21.098005764946205,-56.80039990016099 22,-56.75234851029308 C22.898005764946202,-56.70450959576556 23.101689370920774,-56.695197447758865 24,-56.72937282658476 C24.901689370920774,-56.76367674645052 25.105140297292106,-56.786618704792225 26,-56.904524729607886 C26.905140297292107,-57.023785317643345 27.117932051951467,-57.02828181834207 28,-57.2564097440317 C28.917932051951468,-57.49381314974324 29.09952090709179,-57.6332666256879 30,-57.93903879938826 C30.899520907091787,-58.24448560566786 31.109380704021433,-58.285253686710405 32,-58.61467414398716 C32.90938070402143,-58.95103403278594 33.105000383693096,-59.04482869250994 34,-59.41855067955611 C34.9050003836931,-59.79644865348704 35.08102820719996,-59.94682212297203 36,-60.28494072393629 C36.881028207199954,-60.60909868739329 37.09142274841737,-60.650410076992785 38,-60.89027637827002 C38.89142274841737,-61.125613854708945 39.088859883872715,-61.23651417187022 40,-61.3409491188611 C40.88885988387271,-61.44283030399552 41.100733870047975,-61.372761336383235 42,-61.3487566718818 C42.90073387004797,-61.32471282809027 43.12043221243535,-61.397515785517584 44,-61.234174655987836 C44.920432212435344,-61.06324475227794 45.13779428163627,-60.977379029715 46,-60.60593215357149 C46.93779428163627,-60.20192096580053 47.122462638219865,-60.04096071917415 48,-59.51093451395568 C48.92246263821986,-58.9537737674324 49.180175018259355,-58.88134144521465 50,-58.18996114970093 C50.98017501825935,-57.363353387224 51.12484269644558,-57.08417921225982 52,-56.1376277184209 C52.92484269644558,-55.137337562204266 53.11694821872761,-54.901368919015944 54,-53.86364637179969 C54.91694821872761,-52.786090263105415 55.144223801100175,-52.562742938390656 56,-51.437008483064176 C56.94422380110017,-50.194925251718985 57.12810742381602,-49.89661401219211 58,-48.60182929030707 C58.928107423816016,-47.22356395642322 59.09167428389883,-46.88868236190055 60,-45.4968972480222 C60.89167428389883,-44.13062634678053 61.103622784373385,-43.836034717212776 62,-42.472815923373695 C62.90362278437339,-41.09857800129768 63.062122159413526,-40.763900929875284 64,-39.4136601015442 C64.86212215941353,-38.17248295855809 65.08994640333881,-37.921326845636365 66,-36.7141093204466 C66.88994640333881,-35.533564681612326 67.01012198471632,-35.19732263222482 68,-34.10752195926855 C68.81012198471632,-33.21562268431849 69.02900471472508,-33.02016283660509 70,-32.31033165843254 C70.82900471472507,-31.704300504329378 71.04186933400239,-31.516089771537796 72,-31.183383443100315 C72.8418693340024,-30.89104831065947 73.10015212196757,-30.920181016739054 74,-30.921350634258488 C74.90015212196757,-30.92252064723258 75.14325732700406,-30.92421556190069 76,-31.18858262197482 C76.94325732700406,-31.47964570811881 77.1689530847863,-31.612765185908955 78,-32.155639848076525 C78.96895308478629,-32.788600597860814 79.14648811639186,-33.01044313004894 80,-33.801550204090056 C80.94648811639186,-34.67883552226055 81.1324488278504,-34.905966504806855 82,-35.86317849743566 C82.9324488278504,-36.891995274110094 83.09465025398262,-37.16124827388834 84,-38.214947469208354 C84.89465025398262,-39.256193967438705 85.11164653999732,-39.47207471051343 86,-40.518613371992025 C86.91164653999732,-41.5925928099823 87.03928755921049,-41.900650803996 88,-42.927209912472506 C88.83928755921049,-43.82402174914499 89.07207234230933,-43.98543992218017 90,-44.79277102787867 C90.87207234230934,-45.55150595999379 91.01668664339797,-45.8269005700985 92,-46.40735666316944 C92.81668664339799,-46.88945195365564 93.07867347392725,-46.894235325287525 94,-47.1539963246723 C94.87867347392726,-47.40173162074931 95.09883409714762,-47.528541622426154 96,-47.535126208640065 C96.89883409714761,-47.54169375695269 97.12247039789227,-47.42416064445043 98,-47.183223290286826 C98.92247039789227,-46.929946846473904 99.12621175581506,-46.831119346303 100,-46.43687332424777 C100.92621175581507,-46.01897424773696 101.12622073145226,-45.89890906128576 102,-45.37845640458453 C102.92622073145228,-44.826767828615814 103.08790597672424,-44.63105164276131 104,-44.0543372516479 C104.88790597672424,-43.492916891833026 105.08837912531841,-43.37123967897039 106,-42.849268069188355 C106.88837912531841,-42.34060411137675 107.09218092867393,-42.2373893490649 108,-41.76403599032869 C108.89218092867392,-41.2988366433142 109.08150755750285,-41.17210888057515 110,-40.76359538974237 C110.88150755750286,-40.37153148932319 111.08900316636233,-40.303899042259076 112,-39.98497512087989 C112.88900316636233,-39.67375079444325 113.0896016625407,-39.6035575924835 114,-39.36326595015164 C114.88960166254071,-39.12846340744312 115.09248746696737,-38.976520415176104 116,-38.9292102652346 C116.89248746696738,-38.882683397179086 117.10012517907815,-39.052153143495936 118,-39.154739243491605 C118.90012517907815,-39.25735388442015 119.10061972248685,-39.27637779758596 120,-39.385211911732846 C120.90061972248685,-39.494196011263135 121.12022349638306,-39.436025665737965 122,-39.63877971832978 C122.92022349638307,-39.850855219795 123.11320049295233,-39.971396045926376 124,-40.30705536519292 C124.91320049295233,-40.65270762749371 125.09513029649708,-40.78417390101738 126,-41.15280545514608 C126.89513029649709,-41.51746930792844 127.10995147680609,-41.56033389982029 128,-41.93660071388415 C128.90995147680607,-42.32128147477332 129.0913879595573,-42.45573657445671 130,-42.843800066152816 C130.8913879595573,-43.2245072422025 131.0967188569324,-43.29286703509671 132,-43.64497997554147 C132.8967188569324,-43.9945348354984 133.08172047346233,-44.12192073098445 134,-44.40306184482323 C134.88172047346234,-44.673010012935286 135.09750223809067,-44.67102285545111 136,-44.86962282432111 C136.89750223809068,-45.06712349863688 137.1170917177554,-45.03584603826197 138,-45.28328549634716 C138.9170917177554,-45.5403050330525 139.0821152411537,-45.73756440280947 140,-45.9906428127445 C140.8821152411537,-46.233858881492864 141.09998793641915,-46.208239452303395 142,-46.386162115643586 C142.89998793641914,-46.564080009304526 143.0929727362398,-46.653557513039914 144,-46.78139960608034 C144.8929727362398,-46.90726076614699 145.10354075506137,-46.84408358188513 146,-46.9499471225482 C146.90354075506139,-47.05664692402187 147.0962832808632,-47.221028900107505 148,-47.253762588606435 C148.89628328086317,-47.28622702917869 149.10299290949203,-47.193566514395584 150,-47.094831853817496 C150.902992909492,-46.99543832686931 151.09937124771034,-46.93544410184696 152,-46.81347772743693 C152.89937124771035,-46.691681648805215 153.1050806113991,-46.70106399443389 154,-46.55313751372473 C154.90508061139911,-46.40353142483254 155.10839988677333,-46.36752562062762 156,-46.152294239433935 C156.9083998867733,-45.93300740960298 157.09488118118801,-45.821900640757434 158,-45.58754148922553 C158.89488118118803,-45.355833132282555 159.10450712778476,-45.346109495656286 160,-45.11658866504531 C160.90450712778477,-44.88475742025925 161.10767211584115,-44.836708661206735 162,-44.56231465500989 C162.90767211584117,-44.283202242857044 163.09675504461035,-44.1806907557689 164,-43.886574402045994 C164.89675504461036,-43.59457130551097 165.10593656358014,-43.55957787314436 166,-43.25982698777005 C166.90593656358013,-42.95609542246467 167.12479836375508,-42.92449296639448 168,-42.545502289424455 C168.9247983637551,-42.145034621831755 169.0644440737345,-41.89374120116626 170,-41.52769733318621 C170.86444407373452,-41.189476556086014 171.11683958567704,-41.27704287547018 172,-40.980469744801695 C172.91683958567705,-40.6725868485178 173.1006521126081,-40.544295190316305 174,-40.18446171773648 C174.9006521126081,-39.82410641829172 175.0869384959266,-39.705299447032914 176,-39.38005025141373 C176.88693849592661,-39.06410654874216 177.0915168623711,-39.0076939230731 178,-38.75958861042369 C178.89151686237108,-38.51611676079962 179.09108936526718,-38.449969449174624 180,-38.28765655747266 C180.8910893652672,-38.12852618082798 181.09686837089885,-38.088371641762826 182,-38.04527023632004 C182.89686837089886,-38.0024677410499 183.10793410555507,-37.999969163111466 184,-38.09675900033283 C184.90793410555509,-38.19527055069211 185.1191948604245,-38.2369229273676 186,-38.479273319832586 C186.9191948604245,-38.73218650705926 187.12529645585468,-38.8159130051314 188,-39.19734473298095 C188.92529645585466,-39.60083849757359 189.12475545304875,-39.71870959319885 190,-40.22355219192634 C190.92475545304876,-40.7569527686346 191.11939018209003,-40.899824784622936 192,-41.50455178950483 C192.91939018209004,-42.13590980962399 193.11175468266168,-42.295299654119404 194,-42.97040780303978 C194.9117546826617,-43.66338417349306 195.1037864373725,-43.83153205880861 196,-44.544739610335164 C196.90378643737247,-45.26397366233002 197.09665266636858,-45.43382017318748 198,-46.15361136642067 Q198.8966526663686,-46.868068218854916 200,-47.73195748959613"
                  class="spline"
                  fill="none"/>
         </g>
      </g>
      <g id="exponential">
         <g>
            <path d="M2,-66.41153416353374 Q2.9233365562931595,-56.42688491565227 4,-55.415168001914004 C4.72333655629316,-54.73546457870923 5.104631726058239,-62.670856568702156 6,-62.652822303660315 C6.904631726058239,-62.63460145667724 6.78064918650837,-56.64834005368619 8,-55.33460108630307 C8.580649186508369,-54.70900469988577 9.21617870226629,-56.92373647694783 10,-58.34318818410383 C11.016178702266291,-60.18342472510873 10.746068587148496,-61.376181409800644 12,-62.578352748882835 C12.546068587148497,-63.101880589333206 13.113850412562325,-62.41107142847474 14,-62.17807524973175 C14.913850412562324,-61.937795665914074 15.402960201083038,-62.1815798122122 16,-61.52662883208136 C17.202960201083037,-60.20698487503368 17.14708327558281,-59.49516355034239 18,-57.79008650044616 C18.94708327558281,-55.896759858691965 18.95125349420408,-53.93556425292356 20,-53.5301761839693 C20.751253494204082,-53.23978265071085 21.549633533702018,-57.0532868989642 22,-56.243905162195674 C23.34963353370202,-53.81839434988306 23.17920583982309,-45.934703926106494 24,-46.34152607490009 C24.979205839823088,-46.826864108716265 24.693715167638775,-55.681714102087085 26,-58.22648334577294 C26.493715167638776,-59.188288261992724 27.390488645495104,-56.078537394075646 28,-54.13391309691262 C29.1904886454951,-50.335701417317296 29.071387003291925,-45.595482871966006 30,-45.46462561964328 C30.871387003291925,-45.34183247614352 31.145176541321153,-49.91213165369045 32,-53.570245550640436 C32.94517654132115,-57.615014567884984 32.80875561688057,-61.170668751872846 34,-62.58214320674224 C34.608755616880565,-63.30344188790381 35.49457920896136,-57.34389471211707 36,-58.30974140848701 C37.29457920896136,-60.78365042516009 36.4572873626484,-65.53506575169389 38,-70.22604479128228 C38.2572873626484,-71.00838726784784 39.1067796390775,-70.32154291904801 40,-70.47267811105131 C40.9067796390775,-70.6261075679382 41.38118218528299,-71.35515010202305 42,-70.90285512214938 C43.18118218528299,-70.03952707952664 43.34476082596531,-69.16688243319838 44,-67.54907139439261 C45.144760825965314,-64.72261233268051 44.95154855211559,-63.905984928744054 46,-61.02669934322075 C46.751548552115594,-58.96277648127635 47.21573667404912,-56.260860189020256 48,-56.56416373335327 C49.015736674049116,-56.95698655593597 48.693986384770014,-61.04208259711344 50,-62.57364682525567 C50.49398638477001,-63.15294543844036 51.38118772292666,-62.09513551724081 52,-61.25497004741308 C53.18118772292666,-59.65126376207412 52.773859325557105,-58.63681927496173 54,-57.14282070266302 C54.5738593255571,-56.44359831248161 55.534313488036325,-57.14468254554307 56,-56.38114568634616 C57.33431348803632,-54.19341315884964 56.941712918465484,-51.111662675269095 58,-50.584444287788735 C58.74171291846549,-50.21493709482583 59.413650932447865,-55.10140043428735 60,-54.388422174249996 C61.21365093244786,-52.91266860356242 61.00963649858549,-49.59778507371499 62,-45.72059577506667 C62.80963649858549,-42.550937398493566 63.20690733638728,-41.902211210054546 64,-38.72876067375795 C65.00690733638729,-34.69976031445115 64.69716213580732,-31.706228374961782 66,-29.715149340392443 C66.49716213580732,-28.955354792971104 67.56264340855071,-33.47870525773752 68,-32.61570826933422 C69.36264340855072,-29.926924835317422 68.55654110636638,-26.37792279544604 70,-21.822303957236656 C70.3565411063664,-20.697044770485604 71.40661176806528,-21.025317140349436 72,-19.991534880533255 C73.20661176806529,-17.889413919616477 72.68683832549915,-16.678900687633522 74,-14.853630133385638 C74.48683832549915,-14.176933822894615 75.51402527253401,-13.856907913991055 76,-14.431608514446795 C77.31402527253401,-15.985539347593194 77.24915054750686,-17.21659584184993 78,-19.58392220805706 C79.04915054750685,-22.89175142067315 79.06713308562016,-23.695623493224765 80,-27.043065356276163 C80.86713308562015,-30.154632019106618 80.96675418119482,-30.88105893196603 82,-33.93727448779451 C82.76675418119481,-36.20524016780465 82.99105519396282,-36.70436306958536 84,-38.874579213695306 C84.79105519396283,-40.57612001409157 85.49501090212533,-40.749879750983624 86,-42.54117880891942 C87.29501090212533,-47.13484591729218 86.56151128326898,-48.63151859644897 88,-53.063392916603206 C88.361511283269,-54.17718168264011 89.4955563249,-55.47222377537849 90,-54.86487455601085 C91.29555632489999,-53.3050272203914 91.43269563247628,-47.0744613161249 92,-48.24740057218746 C93.23269563247628,-50.7960802243811 92.47784030924498,-56.75601904049253 94,-63.13513879658018 C94.27784030924498,-64.29952162481224 95.08289776924943,-64.97567414041413 96,-65.01073964845348 C96.88289776924942,-65.04449734501934 97.69550067943224,-64.39428767309127 98,-63.28807925125841 C99.49550067943224,-57.855109997467935 99.06322127402441,-56.23722031768365 100,-50.47923370262385 C100.86322127402443,-45.173373947438634 100.71363084776011,-43.881915870306145 102,-38.70175398404726 C102.51363084776013,-36.63338120276522 102.80757246964275,-36.0739435706768 104,-34.37137888586626 C104.60757246964275,-33.50387842655787 105.07955643529299,-33.57991248313379 106,-32.990498108227406 C106.879556435293,-32.427266177035484 107.57976353050356,-31.16091397113287 108,-31.809942650092243 C109.37976353050355,-33.94090025725111 109.04120508668278,-35.874202183777314 110,-39.16824541071237 C110.84120508668278,-42.058296118912104 111.12750624753681,-45.64851336357003 112,-45.552373617058436 C112.92750624753681,-45.45017206515693 112.82517658292765,-39.78834041469769 114,-38.727486969794356 C114.62517658292765,-38.16295895474641 115.3344119805923,-42.42620927022065 116,-41.94041481716669 C117.1344119805923,-41.112438604283376 116.75062327898473,-38.35443063006839 118,-35.807996601044856 C118.55062327898474,-34.68573633222868 119.30939311514788,-34.84535973126873 120,-33.787760821967325 C121.1093931151479,-32.08883054151096 120.93037030783798,-30.140457995310555 122,-29.682376179360926 C122.73037030783797,-29.369586286389787 123.42773922686426,-30.819134913283964 124,-32.07471257992117 C125.22773922686426,-34.76845296205208 125.122503288409,-35.57900982369556 126,-38.45863850995675 C126.922503288409,-41.48596259833583 127.36580340845153,-42.10713623329617 128,-45.201274301343986 C129.16580340845152,-50.88903225214348 128.4511203059315,-53.271031609509066 130,-57.9739629962841 C130.25112030593152,-58.736450601451 131.73370211979181,-58.18099446492156 132,-57.34664983899271 C133.5337021197918,-52.541368924163315 132.9600054122972,-50.77077246056009 134,-45.441461794599114 C134.7600054122972,-41.54691753654676 134.58046225420827,-40.346035717480085 136,-36.84919445229642 C136.38046225420828,-35.91197660493422 137.05229186259893,-35.71570388307644 138,-35.58799710005273 C138.85229186259895,-35.47314797332867 139.7678597363123,-35.442919147817975 140,-36.31018131952361 C141.56785973631227,-42.16761172924002 140.60028586722487,-44.2999611665924 142,-50.531758392101736 C142.40028586722485,-52.31390825997283 143.43821848859773,-54.85509016805467 144,-54.11895263814679 C145.23821848859774,-52.49643733427462 145.2411517935435,-44.63974156627666 146,-45.29030765036828 C147.0411517935435,-46.18289465196828 146.64570918106003,-54.60494528866607 148,-57.5481817174615 C148.44570918106004,-58.516827063053704 149.38906892352242,-55.7039037151894 150,-53.98337826011856 C151.18906892352243,-50.63468078912148 150.93474851430807,-46.973061783262196 152,-46.283241881755025 C152.73474851430808,-45.807444237179745 153.10631049711492,-51.41169010487196 154,-51.39311704660201 C154.90631049711493,-51.374281693138364 155.21887221408556,-48.576804636125885 156,-46.200112077902595 C157.01887221408558,-43.100048230906225 156.99370703078546,-42.3274621031925 158,-39.222547257224974 C158.79370703078547,-36.77356587841419 159.30545649548887,-33.2459384661161 160,-33.85812046728413 C161.10545649548885,-34.83248789742646 161.15618291343654,-38.73580750564944 162,-42.748212660136886 C162.95618291343655,-47.29492463314347 162.81751350078903,-51.364048595191754 164,-52.878380750604194 C164.61751350078904,-53.66918939938801 165.07891404367626,-50.1155249903201 166,-47.87074778057302 C166.87891404367628,-45.72874767621175 166.8797399380444,-45.12911804348619 168,-43.12998671925233 C168.67973993804438,-41.91697426917431 169.36478372289358,-40.26151140086209 170,-40.73265050432441 C171.1647837228936,-41.5965691076565 171.42267750420396,-47.0485117834704 172,-46.0967816232399 C173.22267750420397,-44.08116805290465 172.74612553469152,-36.35504618282944 174,-34.13855332528941 C174.5461255346915,-33.173158957308445 175.31923728473038,-36.75627202219841 176,-39.025921122082124 C177.1192372847304,-42.75743555268445 176.5502311160668,-44.64131021428952 178,-47.47447228192505 C178.3502311160668,-48.158899657862484 179.78651953427988,-47.701509145895166 180,-46.84278655224427 C181.5865195342799,-40.46103089718252 180.81345086600473,-38.285710095006195 182,-31.384520618119176 C182.6134508660047,-27.81657678860063 182.8417091692087,-26.994430837007954 184,-23.57804587134302 C184.64170916920872,-21.685321263900246 185.12069031828085,-19.53512735034175 186,-19.58649934454649 C186.92069031828086,-19.640288923665658 187.4874871017634,-21.787700053884954 188,-23.81173825650726 C189.28748710176342,-28.89633825061255 189.142914609517,-30.169122022718017 190,-35.383473115052254 C190.942914609517,-41.119993511627996 190.61724457737284,-44.89155480158952 192,-48.147008231862756 C192.41724457737283,-49.12933689855535 193.68104341466375,-43.633014386867046 194,-44.800766663865204 C195.48104341466373,-50.22310907445821 194.58093084877987,-54.83799608797581 196,-62.79166309317644 C196.38093084877988,-64.92672262892808 197.51039367690865,-68.25102582920483 198,-67.22015897709248 Q199.31039367690866,-64.46112311290348 200,-54.369657056951205"
                  class="spline"
                  fill="none"/>
         </g>
      </g>
      <g id="parabolic">
         <g>
            <path d="M2,-58.90863987842319 Q3.0998880296247453,-58.96086201452262 4,-58.99875301122134 C4.899888029624745,-59.03663458093929 5.099922523086223,-59.04390751031533 6,-59.07702335934913 C6.899922523086223,-59.11013350728753 7.099945019311546,-59.116605547069376 8,-59.14592189338179 C8.899945019311545,-59.1752346580621 9.099960146844174,-59.18105150321245 10,-59.20731027266629 C10.899960146844172,-59.233566716679036 11.09997060208373,-59.23884469268716 12,-59.26262236775198 C12.899970602083728,-59.28639848950287 13.099978012567945,-59.29123171756261 14,-59.3129853767012 C14.899978012567946,-59.33473797296108 15.099983392356904,-59.33920370235269 16,-59.359302935304136 C16.899983392356905,-59.37940142648952 17.099987391970473,-59.38356403635227 18,-59.40231365256082 C18.899987391970473,-59.42106274345292 19.099990440545515,-59.42497678494801 20,-59.4426333955278 C20.899990440545512,-59.4602896310281 21.099992829409118,-59.46400217959581 22,-59.48078664384992 C22.899992829409115,-59.497570840651655 23.099994762839074,-59.50112335464685 24,-59.517230420096354 C24.899994762839075,-59.53333729809074 25.1148007078201,-59.660290664605355 26,-59.55237318483635 C26.9148007078201,-59.44084690171458 27.119100657591936,-58.9668880443877 28,-59.0295776136724 C28.919100657591933,-59.094985795492825 29.09056484720422,-59.80781163304481 30,-59.83703485395885 C30.890564847204217,-59.86565170826464 31.076190724179813,-59.341145597256784 32,-59.158111114160924 C32.876190724179814,-58.98451130249931 33.13121242219762,-58.899509296182146 34,-59.044514198942224 C34.931212422197625,-59.19993811403929 35.113022394116214,-59.8611079013921 36,-59.82573070939904 C36.91302239411621,-59.78931471837925 37.077415555426086,-59.251146561271234 38,-58.88497379224699 C38.87741555542609,-58.53672850651198 39.2395499487194,-58.75334988700226 40,-58.23813503215624 C41.039549948719404,-57.53382634674985 40.938739606372025,-56.7300997036631 42,-56.174921480574966 C42.73873960637202,-55.788463883124834 43.17767196456278,-56.41612883497625 44,-56.145610986515656 C44.977671964562774,-55.82399028898813 45.17447348843379,-55.53110471438779 46,-54.859058045045806 C46.974473488433794,-54.0657562514771 46.95044133040837,-53.45045602785997 48,-52.88928106893634 C48.750441330408364,-52.48803729384527 49.37407575979354,-53.2459103464031 50,-52.72034974723535 C51.174075759793546,-51.7345308251532 50.96641136391132,-50.85813501322397 52,-49.530659910603234 C52.766411363911324,-48.54633019911578 52.95190690225701,-48.0658514923765 54,-47.583005715883814 C54.751906902257005,-47.236609892027786 55.14367427688547,-47.8652427279412 56,-47.6879007987172 C56.94367427688547,-47.49246930307877 57.21220777830578,-47.334360585003054 58,-46.75462032730063 C59.01220777830578,-46.009731532916 58.95099104585553,-45.36287757955523 60,-44.74428068296819 C60.750991045855535,-44.30142390038736 61.15879570950726,-44.71384162642305 62,-44.395834373594255 C62.958795709507264,-44.03337308678146 63.03779392495696,-43.570557410977315 64,-43.23212837265355 C64.83779392495696,-42.9374578237028 65.32000908917317,-43.48044745922589 66,-42.9889464018731 C67.12000908917318,-42.17939785819624 66.88220380029833,-40.99174123087082 68,-40.340907037032096 C68.68220380029832,-39.94369548762857 69.10445621225955,-40.49253064710848 70,-40.659955861334744 C70.90445621225955,-40.82904728619729 71.20390609274094,-40.67920304405836 72,-41.088721790562786 C73.00390609274095,-41.60514122419833 73.02566259028592,-42.53563878031119 74,-42.717596261645774 C74.82566259028592,-42.871788725019115 75.14026791982121,-42.306715901217004 76,-41.83572166769151 C76.94026791982121,-41.320606809917784 77.04027337967489,-40.98846563302469 78,-40.526242725425284 C78.84027337967488,-40.12155080951267 79.12901030536388,-40.259566359259594 80,-39.90924428210925 C80.92901030536387,-39.53558564771505 81.06115865672592,-39.25334292598234 82,-38.91739669977075 C82.86115865672592,-38.609247721278166 83.15205036288451,-38.81147325519063 84,-38.47792160498886 C84.9520503628845,-38.10342062554912 85.10248210010992,-37.338210058658824 86,-37.343946411678516 C86.90248210010994,-37.34971449265029 87.05284934391878,-38.36561984193693 88,-38.50348701385879 C88.85284934391878,-38.62762769450612 89.23516625152999,-37.657136881713726 90,-37.92618608405448 C91.03516625152999,-38.29033143567024 90.98543841173753,-39.628002507322556 92,-39.910586022651046 C92.78543841173753,-40.12935238442799 93.13860585537304,-38.95121850479746 94,-39.040296922066545 C94.93860585537305,-39.13735995013291 95.02516452692686,-40.06425533636737 96,-40.32423367895204 C96.82516452692686,-40.54429635824071 97.11962799685868,-40.012874391405894 98,-40.107054748451745 C98.91962799685868,-40.20543462966612 99.13561072527813,-40.378612743159934 100,-40.75214531953033 C100.93561072527812,-41.15645515413045 101.05499710223582,-41.4650436413894 102,-41.83559343949733 C102.85499710223581,-42.170850616344005 103.21287086240731,-41.88359808425065 104,-42.320605263873894 C105.01287086240731,-42.8829422652164 105.05373142459197,-43.336537385768885 106,-44.05635828608789 C106.85373142459197,-44.70578672390264 107.02129437933549,-45.07798570942176 108,-45.36338157083779 C108.82129437933548,-45.60287546145982 109.10451259031453,-45.32547600032229 110,-45.222779957283585 C110.90451259031452,-45.11904889093993 111.1834971557147,-45.254663477578625 112,-44.90465466109921 C112.9834971557147,-44.483060691290206 113.18433080070805,-44.23334635628949 114,-43.508107098864876 C114.98433080070805,-42.63290506894225 115.08775970648256,-41.372968943514664 116,-41.34811846699423 C116.88775970648256,-41.32393486986691 116.94859363768232,-42.965250832948755 118,-43.399142490758756 C118.74859363768232,-43.70807017668602 119.2746014540698,-43.48216474477977 120,-42.998828119743706 C121.07460145406979,-42.28281587656654 120.91886061342527,-41.29457217799386 122,-40.73392278361823 C122.71886061342526,-40.361141278696614 123.11905490862804,-40.744471780483956 124,-40.924537232416505 C124.91905490862804,-41.112392342903824 125.07912747444442,-41.39290941909538 126,-41.55152403344016 C126.87912747444443,-41.70294832013475 127.20720274122505,-41.2902182831664 128,-41.61351256805955 C129.00720274122506,-42.02423912691512 129.0194353002016,-42.622437141092696 130,-43.182681463992864 C130.8194353002016,-43.650864721065375 131.10725538128133,-43.55761733457411 132,-43.898907190221045 C132.90725538128135,-44.245744406172946 133.1273280038719,-44.77967750413467 134,-44.7118527342125 C134.92732800387188,-44.63978005537778 135.08880502348958,-44.07268482013502 136,-43.58802397076129 C136.8888050234896,-43.115272245041936 137.22505500834035,-42.35598629677893 138,-42.58426923400565 C139.02505500834036,-42.8862294642689 138.9318253613474,-44.27320282283164 140,-44.766342120739 C140.7318253613474,-45.10420058678616 141.1049985894585,-44.404699906933295 142,-44.43093093168236 C142.90499858945847,-44.45745495736361 143.09598869541892,-44.86294657480703 144,-44.8835755661397 C144.8959886954189,-44.9040214863824 145.2621202534225,-44.19502299277797 146,-44.52220851296096 C147.0621202534225,-44.993166510147866 146.96246496997136,-46.307992967814656 148,-46.65722782696168 C148.76246496997138,-46.91387395329551 149.07195985295925,-46.11728264762895 150,-45.8686107029184 C150.87195985295924,-45.63496568978367 151.1419948245247,-45.44062708090656 152,-45.58541236508329 C152.9419948245247,-45.74437060013854 153.05893262494075,-46.39147505552066 154,-46.54359630121169 C154.85893262494076,-46.682440664892276 155.25632541414637,-46.67394393616424 156,-46.232002608131346 C157.0563254141464,-45.60426318386837 156.96708603792078,-44.89295194638185 158,-44.16652796277642 C158.76708603792076,-43.62705447718927 159.0966093415459,-43.74596453818261 160,-43.41889712103672 C160.89660934154588,-43.09428484086315 161.1153109714808,-43.07198141385567 162,-42.71835085762207 C162.9153109714808,-42.352480006354426 163.0749471107028,-41.90101109299101 164,-41.820005104367304 C164.8749471107028,-41.74338683041133 165.08381981157413,-42.23240677653245 166,-42.3680747185561 C166.88381981157414,-42.4989507366918 167.3150911550962,-42.844900646939195 168,-42.41232501583254 C169.11509115509622,-41.70805427419108 169.1132463886863,-39.81465374301243 170,-39.84174944578252 C170.9132463886863,-39.869654663633334 170.87250432830103,-41.76074610268069 172,-42.534549283878995 C172.67250432830102,-42.99609073514223 173.1432599991843,-42.77343789491787 174,-42.586959740141495 C174.9432599991843,-42.38164962977571 175.05669527539612,-41.87117602754029 176,-41.66390869467419 C176.85669527539613,-41.47567159569761 177.09999526245187,-41.688409434876085 178,-41.70806100271333 C178.89999526245188,-41.72771236366222 179.09999748640374,-41.731931256060996 180,-41.751248536421144 C180.89999748640372,-41.77056570887972 181.09999963978657,-41.77473217949106 182,-41.79391534231049 C182.89999963978659,-41.8130984897743 183.1000018682281,-41.81725342676177 184,-41.83650700371723 C184.90000186822812,-41.85576066060635 185.10000433628127,-41.85994626865317 186,-41.879486973076226 C186.90000433628128,-41.89902786579795 187.1000072517057,-41.90328913339145 188,-41.923354997372286 C188.90000725170572,-41.94342118471514 189.10001090109452,-41.947807588067235 190,-41.968669309351085 C190.90001090109453,-41.98953153600905 191.100015707153,-41.99409911121857 192,-42.01607488168744 C192.90001570715302,-42.038051419229234 193.1000223267235,-42.04286537492818 194,-42.066341104930345 C194.9000223267235,-42.089817999708366 195.10003182702243,-42.094956099417665 196,-42.120414047865616 C196.90003182702242,-42.14587379693434 197.10004601740224,-42.151430812617875 198,-42.17949154385629 Q198.90004601740222,-42.20755514475688 200,-42.2451347859523"
                  class="spline"
                  fill="none"/>
         </g>
      </g>
      <text x="100" y="8" text-anchor="middle" font-size="5">Fake independent
                    variable</text>
      <text x="-10"
            y="-50"
            text-anchor="middle"
            font-size="5"
            writing-mode="tb">Fake
                    dependent variable</text>
      <text x="100" y="-106" text-anchor="middle" font-size="8">Smoothing examples (window                     = 25)</text>
   </g>
   <g transform="translate(50, 15)">
      <rect x="0"
            y="0"
            width="100"
            height="51"
            fill="ghostwhite"
            stroke="black"
            stroke-width="0.5"/>
      <rect x="2" y="2" width="5" height="5" fill="black"/>
      <rect x="2" y="9" width="5" height="5" fill="red"/>
      <rect x="2" y="16" width="5" height="5" fill="gray"/>
      <rect x="2" y="23" width="5" height="5" fill="blue"/>
      <rect x="2" y="30" width="5" height="5" fill="green"/>
      <rect x="2" y="37" width="5" height="5" fill="indigo"/>
      <rect x="2" y="44" width="5" height="5" fill="darkgoldenrod"/>
      <text x="10" y="6" fill="black" font-size="5">
         <tspan>Actual data (101 points)</tspan>
         <tspan x="10" dy="7" fill="red">Regression line (53.436.1)</tspan>
         <tspan x="10" dy="7" fill="gray">Y intercept of regression line (53.4)</tspan>
         <tspan x="10" dy="7" fill="blue">Rectangular kernel</tspan>
         <tspan x="10" dy="7" fill="green">Gaussian kernel ( = 5)</tspan>
         <tspan x="10" dy="7" fill="indigo">Exponential kernel (y = 1 - 2<tspan dy="-2" font-size="4">-d</tspan>
            <tspan dy="2">)</tspan>
         </tspan>
         <tspan x="10" dy="7" fill="darkgoldenrod">Parabolic kernel (y = 1 - (d/N)<tspan dy="-2" font-size="4">2</tspan>
            <tspan dy="2" dx="-1">)</tspan>
         </tspan>
      </text>
   </g>
</svg>
