<?xml version="1.0" encoding="UTF-8"?>
<svg xmlns="http://www.w3.org/2000/svg" viewBox="-20 -115 234 195">
   <script type="text/javascript">
                window.addEventListener('DOMContentLoaded', init, false);
                function init() {
                    var rects = document.getElementsByClassName('toggle');
                    for (var i = 0; i &lt; rects.length; i++) {
                        rects[i].addEventListener('mouseover', emphasize, false);
                        rects[i].addEventListener('mouseout', deemphasize, false);
                    }
                }
                function emphasize() {
                    var target = this.id.substring(0, this.id.indexOf('-'));
                    document.getElementById(target).classList.add('highlight');
                }
                function deemphasize() {
                    var target = this.id.substring(0, this.id.indexOf('-'));
                    document.getElementById(target).classList.remove('highlight');
                }//</script>
   <style type="text/css">
                .spline {
                    stroke-width: 0.5;
                    stroke-opacity: 0.5;
                    stroke-linecap: square;
                    fill: none;
                    clip-path: url(#clip-rectangular);
                }
                .highlight .spline {
                    stroke-width: 1.5;
                    stroke-opacity: 0.75;
                }
                #rectangular {
                    stroke: blue;
                }
                #gaussian {
                    stroke: green;
                }
                #exponential {
                    stroke: indigo;
                }
                #parabolicUp {
                    stroke: fuchsia;
                }
                #parabolicDown {
                    stroke: darkgoldenrod;
                }
                #regression {
                    stroke: red;
                    stroke-width: 0.5;
                    stroke-opacity: 0.5;
                }
                #regression.highlight {
                    stroke-width: 1.5;
                    stroke-opacity: 0.75;
                }
                #data.highlight &gt; polyline {
                    stroke-width: 1.5;
                }</style>
   <clipPath id="clip-rectangular">
      <rect x="0" y="-100" width="200" height="100"/>
   </clipPath>
   <g>
      <polyline points="0,-49.99991159163257 0.4000000000000057,-54.99162248393219 0.7999999999999972,-59.933457851036025 1.2000000000000028,-64.7760405075099 1.5999999999999943,-69.470984968195 2,-73.97138089998278 2.4000000000000057,-78.23226183435574 2.799999999999997,-82.21105445747753 3.200000000000003,-85.8680039886721 3.5999999999999943,-89.16657139705036 4,-92.07379848742939 4.400000000000006,-94.56063720772356 4.799999999999997,-96.60223988747914 5.200000000000003,-98.17820750758436 5.599999999999994,-99.2727935205246 6,-99.87506118468069 6.400000000000006,-99.97899284063554 6.799999999999997,-99.58355003763812 7.200000000000003,-98.69268390945993 7.599999999999994,-97.31529569597262 8,-95.46514780490124 8.400000000000006,-93.16072630239583 8.799999999999997,-90.42505620636905 9.200000000000003,-87.2854714281279 9.599999999999994,-83.77334166096806 10,-79.92375894456698 10.400000000000006,-75.7751870369242 10.799999999999997,-71.36907709720549 11.200000000000003,-66.74945351946192 11.599999999999994,-61.96247405543809 12,-57.05596862157316 12.400000000000006,-52.07896139828741 12.799999999999997,-47.08118099657623 13.200000000000003,-42.11256358616663 13.599999999999994,-37.22275394981719 14,-32.46060944905783 14.400000000000006,-27.87371185758461 14.799999999999997,-23.507891939904937 15.200000000000003,-19.406771525487766 15.599999999999994,-15.611327653864063 16,-12.15948314559189 16.400000000000006,-9.085727689969945 16.799999999999997,-6.420773235462435 17.200000000000003,-4.191247126061786 17.599999999999994,-2.419426049669928 18,-1.123013456795881 18.400000000000006,-0.31496267353066965 18.799999999999997,-0.003347476194619978 19.200000000000003,-0.1912814208331931 19.599999999999994,-0.8768867335942497 20,-2.053313072823724 20.400000000000006,-3.708805975414855 20.799999999999997,-5.826824303518074 21.200000000000003,-8.386205518122889 21.599999999999994,-11.361377128151748 22,-14.722612202338423 22.400000000000006,-18.436326390898145 22.799999999999997,-22.465413489249364 23.200000000000003,-26.769616190944774 23.599999999999994,-31.30592832536897 24,-36.02902456118055 24.400000000000006,-40.89171328203914 24.799999999999997,-45.84540810963695 25.200000000000003,-50.840613362730764 25.599999999999994,-55.827418601626654 26,-60.75599731679657 26.400000000000006,-65.57710477888986 26.799999999999997,-70.24257007579139 27.200000000000003,-74.70577742045263 27.599999999999994,-78.9221319204256 28,-82.84950515528837 28.400000000000006,-86.44865610989503 28.799999999999997,-89.68362325762817 29.200000000000003,-92.52208387608582 29.599999999999994,-94.93567700503849 30,-96.9002868197697 30.400000000000006,-98.39628358842417 30.799999999999997,-99.40871980580032 31.200000000000003,-99.92747954388108 31.599999999999994,-99.94737952684268 32,-99.46822092063346 32.400000000000006,-98.49479131965784 32.8,-97.03681691071581 33.2,-95.10886529215915 33.599999999999994,-92.73019991926452 34,-89.9245876301555 34.400000000000006,-86.72006117541281 34.8,-83.14863912409677 35.2,-79.2460059447887 35.599999999999994,-75.05115545817752 36,-70.60600122369193 36.4,-65.9549577530705 36.8,-61.144496735241056 37.2,-56.222682706566644 37.6,-51.238692805886544 38,-46.242325412800255 38.4,-41.28350257871999 38.8,-36.41177122223502 39.2,-31.675808072678944 39.6,-27.12293330834103 40,-22.798637748886158 40.4,-18.746128326122324 40.8,-15.00589637462028 41.2,-11.615313055683057 41.6,-8.608255957055775 42,-6.0147705992669325 42.4,-3.8607702307192673 42.8,-2.167776911077452 43.2,-0.9527064699621499 43.6,-0.2276994895721372 44,-0 44.4,-0.27188309927810167 44.8,-1.0406322213510508 45.2,-2.2985662791058075 45.6,-4.033116411254947 46,-6.226951566244104 46.4,-8.858151668390104 46.8,-11.90042663603143 47.2,-15.32337906333387 47.6,-19.09280794112134 48,-23.171050382054567 48.4,-27.517357935751466 48.8,-32.08830373383376 49.2,-36.8382163968409 49.6,-41.71963636755632 50,-46.68379011121562 50.4,-51.68107744454323 50.8,-56.6615671243881 51.2,-61.57549574420031 51.6,-66.37376495353936 52,-71.00843203256257 52.4,-75.43318891983355 52.8,-79.60382490716492 53.2,-83.47866837840023 53.6,-87.01900317842772 54,-90.18945545220474 54.4,-92.95834708862382 54.8,-95.29801223772782 55.2,-97.18507373873733 55.6,-98.60067669691385 56,-99.53067687543542 56.4,-99.96578201993542 56.8,-99.90164470363668 57.2,-99.33890576540261 57.6,-98.28318790668736 58,-96.74503951136127 58.4,-94.73982924974618 58.8,-92.2875925199417 59.2,-89.41283126075038 59.6,-86.14426913640438 60,-82.51456453920714 60.4,-78.55998427767301 60.8,-74.32004121056485 61.2,-69.83709944747025 61.6,-65.15595106062268 62,-60.32336853732155 62.4,-55.38763744470025 62.8,-50.39807397630048 63.2,-45.404532200968006 63.6,-40.45690593747668 64,-35.6046302319834 64.4,-30.89618741938829 64.8,-26.378622703870775 65.2,-22.097074098759627 65.6,-18.094321422425633 66,-14.410358856476297 66.4,-11.08199533711463 66.8,-8.142486772415483 67.2,-5.621203760284772 67.6,-3.543338127154541 68,-1.9296512195798132 68.4,-0.7962664637271795 68.8,-0.15450826542995513 69.2,-0.010788860468418213 69.6,-0.3665442456296336 70,-1.2182198307021967 70.4,-2.5573059547665773 70.8,-4.370422911914063 71.2,-6.6394546368457625 71.6,-9.341729714608148 72,-12.450247905877799 72.4,-15.933949924426967 72.8,-19.75802777124493 73.2,-23.884272524558643 73.6,-28.27145611074787 74,-32.87574324162981 74.4,-37.651129402167506 74.8,-42.549900512377484 75.2,-47.523109670645304 75.6,-52.52106621498559 76,-57.493832215712416 76.4,-62.391721438724254 76.8,-67.16579579393152 77.2,-71.76835430847649 77.6,-76.15340973908505 78,-80.27714806140153 78.4,-84.09836624523578 78.8,-87.57888394162165 79.2,-90.68392496824326 79.6,-93.3824647815525 80,-95.64754046375364 80.4,-97.45652012736448 80.8,-98.79132904555539 81.2,-99.63863024884506 81.6,-99.98995778369067 82,-99.84180130149753 82.4,-99.19564113286167 82.8,-98.05793349659598 83.2,-96.44004599132582 83.6,-94.35814401420146 84,-91.83302924159287 84.4,-88.88993178561607 84.8,-85.55825810319261 85.2,-81.87129717645216 85.6,-77.86588790022769 86,-73.58205099999469 86.4,-69.06258915801222 86.8,-64.35265934307009 87.2,-59.49932161698304 87.6,-54.551068926010345 88,-49.55734257536495 88.4,-44.568038228036244 88.8,-39.63300736381816 89.2,-34.801559179801295 89.6,-30.121967909176252 90,-25.640990481051578 90.4,-21.403399340675048 90.8,-17.45153509796005 91.2,-13.824883474106876 91.6,-10.559680773329678 92,-7.688551821681882 92.4,-5.2401839905794265 92.8,-3.2390405620679426 93.2,-1.7051162997949072 93.6,-0.6537376679411158 94,-0.09540969425641115 94.4,-0.03571100729519992 94.8,-0.4752380966038116 95.2,-1.4095993527942499 95.6,-2.829458947053358 96,-4.720630111658588 96.4,-7.064216889471219 96.8,-9.83680293609405 97.2,-13.010685488244503 97.6,-16.554152160607362 98,-20.431797805506974 98.4,-24.60487826943862 98.8,-29.03169751184352 99.2,-33.668024218163794 99.6,-38.467533744515386 100,-43.38227097821826 100.4,-48.36312948942921 100.8,-53.36034218635699 101.2,-58.323978571593116 101.6,-63.20444363113601 102,-67.95297337137833 102.4,-72.52212205281067 102.8,-76.8662362521677 103.2,-80.94191101634301 103.6,-84.70842355033163 104,-88.12814010593775 104.4,-91.16689200574557 104.8,-93.79431704524997 105.2,-95.98416286196769 105.6,-97.71454924036465 106,-98.96818673173777 106.4,-99.73254940467064 106.8,-99.99999999999999 107.2,-99.76786623978475 107.6,-99.03846752782377 108,-97.81909177493976 108.4,-96.12192258058352 108.8,-93.96391749833559 109.2,-91.36663860163601 109.6,-88.35603704267452 110,-84.96219375705549 110.4,-81.21901890503348 110.8,-77.16391305240097 111.2,-72.83739347639737 111.6,-68.2826893304692 112,-63.54530971285724 112.4,-58.67258895473132 112.8,-53.71321367119946 113.2,-48.71673630074289 113.6,-43.73307999363169 114,-38.81203979630844 114.4,-34.002785115745326 114.8,-29.353368434982503 115.2,-24.91024518860097 115.6,-20.717809595377624 116,-16.817951085924694 116.4,-13.249635757346962 116.8,-10.048517036879456 117.2,-7.246579444627692 117.6,-4.871819014816227 118,-2.9479635686681345 118.4,-1.4942356338593685 118.8,-0.5251603793759801 119.2,-0.0504204848270241 119.6,-0.0747593943107212 120,-0.5979339214888733 120.4,-1.6147166794244434 120.8,-3.114948310903767 121.2,-5.08363899737585 121.6,-7.5011182322639485 122,-10.34323136216562 122.4,-13.581580932164503 122.8,-17.18381042381308 123.2,-21.113927550769812 123.6,-25.332663881825873 124,-29.79786719809046 124.4,-34.46492266402731 124.8,-39.28719860414402 125.2,-44.21651243127977 125.6,-49.20361207108801 126,-54.198668072484075 126.4,-59.15177148704784 126.8,-64.01343254273911 127.2,-68.73507512934124 127.6,-73.26952215489612 128,-77.5714669236136 128.4,-81.5979258253984 128.8,-85.30866781387422 129.2,-88.6666163817002 129.6,-91.63822001677734 130,-94.19378743786524 130.4,-96.30778426005068 130.8,-97.95908812588081 131.2,-99.13119975297667 131.6,-99.8124077894091 132,-99.9959058296554 132.4,-99.67986042195379 132.8,-98.86742938754733 133.2,-97.56673026877792 133.6,-95.79075922128615 134,-93.55726116072066 134.4,-90.8885524614063 134.8,-87.81129797850885 135.2,-84.35624462161657 135.6,-80.5579141417822 136,-76.45425820159944 136.4,-72.08627917473422 136.8,-67.49762046376111 137.2,-62.73413042971158 137.6,-57.84340429040473 138,-52.87430856476572 138.4,-47.87649281472048 138.8,-42.899893563185216 139.2,-37.994235344836625 139.6,-33.20853387499673 140,-28.59060630080995 140.4,-24.186593428113653 140.8,-20.04049869775871 141.2,-16.193748517774395 141.6,-12.684778344392015 142,-9.548648647672962 142.4,-6.816694598880209 142.8,-4.5162129798053465 143.2,-2.6701894423481685 143.6,-1.297068843480433 144,-0.4105709503328467 144.4,-0.019553356816507182 144.8,-0.12792298147258685 145.2,-0.7345970308336968 145.6,-1.8335138183384954 146,-3.4136933306998007 146.4,-5.459346936567991 146.8,-7.950035141316411 147.2,-10.860871811715057 147.6,-14.162772829948395 148,-17.822746692505397 148.4,-21.804224150377912 148.8,-26.067423596908338 149.2,-30.569748552453 149.6,-35.266213274327484 150,-40.109892239475336 150.4,-45.05238900878421 150.8,-50.04431978830738 151.2,-55.0358068558084 151.6,-59.9769769224758 152,-64.81845945033673 152.4,-69.51187994635416 152.8,-74.01034330437041 153.2,-78.26890236550618 153.6,-82.2450070153157 154,-85.89892933046319 154.4,-89.19416052700181 154.8,-92.09777574407441 155.2,-94.58076301823938 155.6,-96.61831316142009 156,-98.19006764611022 156.4,-99.28032202105172 156.8,-99.8781828249203 157.2,-99.9776764301903 157.6,-99.57780872964604 158,-98.68257506917266 158.4,-97.3009203275807 158.8,-95.44664954233382 159.2,-93.13828997417794 159.6,-90.39890598887553 160,-87.25586860568795 160.4,-83.74058201519793 160.8,-79.88816979901846 161.2,-75.7371239865757 161.6,-71.32892045547369 162,-66.7076045182371 162.4,-61.9193508361069 162.8,-57.01200205708867 163.2,-52.03459078802891 163.6,-47.036849677013905 164,-42.06871450119174 164.4,-37.17982522499205 164.8,-32.41903001401073 165.2,-27.83389716028651 165.6,-23.47023979564978 166,-19.371658142054955 166.4,-15.579103872573793 166.8,-12.13047093581519 167.2,-9.06021693211695 167.6,-6.399018824592546 168,-4.173466425057468 168.4,-2.405796717418048 168.8,-1.1136716730791034 169.2,-0.3100017783639643 169.6,-0.002817037202549067 170,-0.19518673798684763 170.4,-0.8851887862555952 170.8,-2.0659289096268423 171.2,-3.725609543088518 171.6,-5.847647706368787 172,-8.41084069559261 172.4,-11.389577933690616 172.8,-14.75409686281934 173.2,-18.470780322000753 173.6,-22.502492438683447 174,-26.808949678104113 174.4,-31.34712334305197 174.8,-36.07166950238761 175.2,-40.935382052613924 175.6,-45.889664385659366 176,-50.88501495011981 176.4,-55.87152185439852 176.8,-60.79936156982797 177.2,-65.6192967508985 177.6,-70.28316819854027 178,-74.74437605091903 178.4,-78.95834539385307 178.8,-82.88297163862084 179.2,-86.47904121709333 179.6,-89.71062339074554 180,-92.5454292587171 180.4,-94.95513437783747 180.8,-96.915661771099 181.2,-98.40742249685235 181.6,-99.4155113750365 182,-99.92985591481045 182.4,-99.94531695555239 182.8,-99.46174001565406 183.2,-98.48395683604964 183.6,-97.02173710305753 184,-95.08969083290422 184.4,-92.70712239327149 184.8,-89.89783762043577 185.2,-86.68990595922135 185.6,-83.11538000238545 186,-79.20997523170776 186.4,-75.01271316070174 186.8,-70.5655314445505 187.2,-65.91286485291933 187.6,-61.10120129242405 188,-56.17861731483694 188.4,-51.194297752072146 188.8,-46.19804427760381 189.2,-41.23977780460736 189.6,-36.36903969269527 190,-31.634496747030173 190.4,-27.083454955693337 190.8,-22.76138682388939 191.2,-18.71147702770582 191.6,-14.974190927103326 192,-11.586870249416895 192.4,-8.583359983158624 192.8,-5.993670210080465 193.2,-3.8436762543575274 193.6,-2.154860144901584 194,-0.9440959740300957 194.4,-0.22348129711299344 194.8,-0.0002162577984843781 195.2,-0.27653164655775725 195.6,-1.049666611364088 196,-2.311896243213573 196.4,-4.050608760862416 196.8,-6.248431523576214 197.2,-8.88340461281334 197.6,-11.92920024847281 198,-15.355385847369128 198.4,-19.127728095544498 198.8,-23.2085349962257 199.2,-27.557032475796248 199.6,-32.129771784863024 200,-36.881063623796194"
                stroke="lightgray"
                stroke-width="0.5"
                fill="none"/>
      <g id="regression">
         <g>
            <line x1="0"
                  y1="-45.12093835913711"
                  x2="200"
                  y2="-40.90112593184372"
                  class="regression"/>
         </g>
      </g>
      <g id="rectangular">
         <g>
            <path d="M0,-48.62307421022744 Q2.4,-48.62307421022744 4,-48.62307421022744 C5.6,-48.62307421022744 6.4,-48.62307421022744 8,-48.62307421022744 C9.6,-48.62307421022744 10.4,-48.62307421022744 12,-48.62307421022744 C13.6,-48.62307421022744 14.4,-48.62307421022744 16,-48.62307421022744 C17.6,-48.62307421022744 18.4,-48.62307421022744 20,-48.62307421022744 C21.6,-48.62307421022744 22.4,-48.62307421022744 24,-48.62307421022744 C25.6,-48.62307421022744 26.404025764059128,-48.54281698317216 28,-48.62307421022744 C29.604025764059127,-48.703736326851605 30.397932097409367,-48.888698378303715 32,-49.02537256942606 C33.59793209740936,-49.1616939304175 34.39844287304128,-49.2241178026201 36,-49.305563090511896 C37.598442873041286,-49.38685000671491 38.40175145368978,-49.348206652359785 40,-49.432203079663076 C41.601751453689786,-49.51638360330466 42.398529906728854,-49.63411075722754 44,-49.72600546787409 C45.59852990672886,-49.81773146629011 46.39941425456423,-49.84577103840481 48,-49.89125485231951 C49.59941425456423,-49.936705376000965 50.40037399171462,-49.968361352844624 52,-49.95334131186447 C53.600373991714626,-49.93831424752904 54.40120520813939,-49.895349809465245 56,-49.81613708903056 C57.60120520813939,-49.73680494386934 58.398750237261794,-49.63497971043604 60,-49.5569791478747 C61.5987502372618,-49.47910034295407 62.40161922164133,-49.50973719141906 64,-49.42643867032562 C65.60161922164133,-49.34297137997535 66.40418122275102,-49.29712737487376 68,-49.14006461926543 C69.60418122275101,-48.98217881986735 70.40178752594079,-48.85283163206555 72,-48.6390672828096 C73.6017875259408,-48.42482476268999 74.39502679227772,-48.25430381553319 76,-48.07004744582651 C77.59502679227772,-47.88693295835973 78.40392834496477,-47.89614596119931 80,-47.72064013987594 C81.60392834496477,-47.544270388155326 82.40647255040038,-47.443278751991926 84,-47.190358513216566 C85.60647255040038,-46.93538366409463 86.4182046719948,-46.824046685559445 88,-46.45090242013269 C89.61820467199479,-46.069169219287346 90.39965580032735,-45.76105688932841 92,-45.30316484753633 C93.59965580032735,-44.845469771235706 94.39275746703075,-44.59130791066884 96,-44.16193462490095 C97.59275746703075,-43.736431010467044 98.39178037972785,-43.527803901163814 100,-43.16597259703185 C101.59178037972785,-42.80783993689734 102.39694891294474,-42.66759596136629 104,-42.36202471423476 C105.59694891294474,-42.05761665458254 106.41699069130688,-42.003744787735016 108,-41.64102433007248 C109.61699069130688,-41.2705175994007 110.38899924570514,-40.92950261746874 112,-40.52895674339896 C113.58899924570514,-40.133881142055884 114.38622948028402,-39.9194538279694 116,-39.65197064154032 C117.58622948028402,-39.38905239473236 118.39596186683103,-39.33251808122611 120,-39.202953160306365 C121.59596186683103,-39.07404059345961 122.39904583191412,-39.04007666186328 124,-39.005776922124056 C125.59904583191413,-38.971518067648965 126.40029386186993,-39.04869006691816 128,-39.03155667477057 C129.60029386186991,-39.014416987903545 130.3997543016723,-38.95257272956142 132,-38.92009422458751 C133.5997543016723,-38.88762569297502 134.39993857450366,-38.88168665951715 136,-38.86918908330457 C137.59993857450368,-38.85669246664242 138.4000791033594,-38.84843861418188 140,-38.857608742400686 C141.6000791033594,-38.86677977739926 142.3999901242675,-38.914332112618915 144,-38.91504199134802 C145.59999012426752,-38.915751861313964 146.40001409498174,-38.860157999411555 148,-38.86115811413831 C149.60001409498173,-38.862158246485976 150.40018643566214,-38.88736194580259 152,-38.92004260903406 C153.60018643566212,-38.952730889204446 154.40149727037556,-38.950461104968255 156,-39.02458047264296 C157.60149727037555,-39.0988386911703 158.3996623354168,-39.18976262734249 160,-39.29098657453917 C161.59966233541678,-39.39216780607315 162.39901692752224,-39.455796368008286 164,-39.5305934194696 C165.59901692752223,-39.60529861371646 166.39964955952559,-39.65050876643337 168,-39.6647421888096 C169.59964955952557,-39.67896937759203 170.3999007959922,-39.614345176852275 172,-39.60174494736625 C173.5999007959922,-39.58914628027493 174.4,-39.60174494736625 176,-39.60174494736625 C177.6,-39.60174494736625 178.4,-39.60174494736625 180,-39.60174494736625 C181.6,-39.60174494736625 182.4,-39.60174494736625 184,-39.60174494736625 C185.6,-39.60174494736625 186.4,-39.60174494736625 188,-39.60174494736625 C189.6,-39.60174494736625 190.4,-39.60174494736625 192,-39.60174494736625 C193.6,-39.60174494736625 194.4,-39.60174494736625 196,-39.60174494736625 Q197.6,-39.60174494736625 200,-39.60174494736625"
                  class="spline"
                  fill="none"/>
         </g>
      </g>
      <g id="gaussian">
         <g>
            <path d="M0,-34.76131524624805 Q2.2119087021320687,-35.148155838209775 4,-35.55898343362174 C5.811908702132069,-35.975283259078374 6.215367972162265,-36.078496857597536 8,-36.59937618151161 C9.815367972162264,-37.12922638437993 10.217458476851556,-37.26209045093948 12,-37.89393793758262 C13.817458476851556,-38.53816224078349 14.217150046336311,-38.69995407645046 16,-39.43509127005385 C17.817150046336312,-40.18437170314628 18.21393314937976,-40.37143132813238 20,-41.19264377468445 C21.813933149379757,-42.02666881633771 22.208096808884115,-42.23258427769208 24,-43.11339679939903 C25.808096808884113,-44.00216931658604 26.20069941245347,-44.218420743862836 28,-45.12505497222659 C29.800699412453472,-46.032394042543324 30.29395049866572,-46.083189284579895 32,-47.14444857424456 C33.89395049866572,-48.3225929125548 34.08799257485505,-48.9615429790813 36,-50.1015074788375 C37.68799257485505,-51.10791131696116 38.13719697350834,-51.287414373238285 40,-51.91415599175536 C41.73719697350834,-52.49863734988915 42.228185161504264,-52.2966523380884 44,-52.79311409361719 C45.82818516150426,-53.30537078940301 46.19561386370831,-53.55575659291451 48,-54.155752550232265 C49.79561386370831,-54.75283154427888 50.195524800756814,-54.88356847441089 52,-55.45328065220467 C53.795524800756816,-56.02016699397923 54.16715680827716,-56.520516021167815 56,-56.6815270381619 C57.767156808277164,-56.83676765894915 58.22880219161058,-56.52983550085314 60,-56.156062069496514 C61.82880219161058,-55.77013246457431 62.30876241278815,-55.761356767972934 64,-54.99329806865338 C65.90876241278815,-54.12645263714129 66.1475128349001,-53.5385058531601 68,-52.52294177875954 C69.74751283490009,-51.564926366770045 70.10725122733416,-51.04925903428379 72,-50.60756587667548 C73.70725122733415,-50.20916055404526 74.27264503657084,-51.00737334923771 76,-50.65605626711835 C77.87264503657084,-50.275189448183056 78.20154646225681,-49.73816589064698 80,-48.98049054099847 C81.80154646225682,-48.2215121648257 82.26379031319165,-48.173832942950284 84,-47.285714654182165 C85.86379031319164,-46.3323354188565 86.15539515594796,-45.88428889609171 88,-44.888273820790076 C89.75539515594797,-43.940428517188394 90.1113712231979,-43.517612300499344 92,-42.966024923285914 C93.7113712231979,-42.46620686690713 94.28727663952075,-43.04871850549113 96,-42.55181730169627 C97.88727663952075,-42.00427409903371 98.12969744054743,-41.299196731839686 100,-40.64503735338053 C101.72969744054743,-40.040056198373144 102.19445239329436,-40.12805183856998 104,-39.75372722732617 C105.79445239329435,-39.38170286639503 106.18870462565583,-39.0648215007251 108,-38.98648408188063 C109.78870462565582,-38.90912369912154 110.2161149324786,-39.50912484432964 112,-39.40773211265158 C113.81611493247861,-39.30450749499099 114.18339624736682,-38.821483886089545 116,-38.53177886112808 C117.78339624736682,-38.247369642215766 118.21948240674897,-38.429095975361044 120,-38.13192268182095 C121.81948240674896,-37.82824605351841 122.17751935178913,-37.35741547672856 124,-37.1965568125889 C125.77751935178912,-37.03966659337483 126.21466155167829,-37.2040784471672 128,-37.425814052145995 C129.81466155167828,-37.65119153022103 130.1859783220612,-38.07909327765911 132,-38.19014144159741 C133.7859783220612,-38.29947288780364 134.20997405191696,-38.12468013413444 136,-37.91554651913383 C137.80997405191695,-37.70408231274058 138.25589768011534,-37.75160945464429 140,-37.25547961627773 C141.85589768011536,-36.72754830997605 142.1352245764241,-35.93766024404263 144,-35.639855086537736 C145.7352245764241,-35.36273923561269 146.27492279355846,-35.5293060778104 148,-35.97787737532232 C149.87492279355845,-36.465412974946915 150.12418395933548,-37.24433775512368 152,-37.720092635729976 C153.72418395933548,-38.15738974585936 154.2125221579513,-37.77921272074069 156,-38.00688179917939 C157.8125221579513,-38.23774074447269 158.19287902122826,-38.454886789192884 160,-38.739043799578866 C161.79287902122826,-39.020961362730745 162.19453598942852,-39.08232937254423 164,-39.2648252959302 C165.7945359894285,-39.44621661723184 166.21749672204626,-39.2959157381094 168,-39.547682121106895 C169.81749672204626,-39.804391088478155 170.20279042824555,-40.000849145171536 172,-40.39477051897189 C173.80279042824554,-40.78991513278303 174.19986739380812,-40.893871975227896 176,-41.30116209357688 C177.7998673938081,-41.708392206133624 178.19701987521304,-41.81184534473397 180,-42.20481547654017 C181.79701987521304,-42.59648653686551 182.1950586570651,-42.69210414910971 184,-43.044809187202524 C185.79505865706508,-43.39558304170878 186.19444688352027,-43.47708645636974 188,-43.768101904538106 C189.79444688352027,-44.057327272241565 190.19518582774484,-44.1200643787573 192,-44.33423322247324 C193.79518582774483,-44.54725951564719 194.19689129599752,-44.58848725844259 196,-44.71742443096009 Q197.7968912959975,-44.84591700742701 200,-44.9062993313275"
                  class="spline"
                  fill="none"/>
         </g>
      </g>
      <g id="exponential">
         <g>
            <path d="M0,-32.3345114434443 Q1.7515601470995805,-39.830683478654265 4,-41.11831194197803 C5.351560147099581,-41.89231855507668 6.66241984233708,-39.1168040383089 8,-36.91592272438299 C10.262419842337078,-33.193291578332676 10.151625240865734,-31.96507142988534 12,-27.954950919808656 C13.751625240865732,-24.154732230578308 13.550400654688081,-21.593446390099285 16,-19.559613392589576 C17.15040065468808,-18.604468292498336 19.067418004632895,-19.728893918485458 20,-21.312777369584325 C22.667418004632893,-25.84308060907385 22.42985770917297,-27.753308275156716 24,-33.14669492723045 C26.02985770917297,-40.11918878222751 26.118136395375238,-41.77389264002467 28,-48.79251182974165 C29.71813639537524,-55.20049221976377 29.23211875028467,-57.41290164047935 32,-62.98358288220622 C32.83211875028467,-64.65831813812689 34.932427032878046,-65.9362156992996 36,-64.89343738006951 C38.53242703287805,-62.41982659537856 37.46279953883378,-57.6686556993164 40,-55.169384873492824 C41.06279953883378,-54.12247355459566 42.27685724918644,-57.186386882448 44,-57.013032614023416 C45.87685724918644,-56.8242141222203 46.618247076337326,-53.68527267088644 48,-54.36455651743127 C50.21824707633733,-55.455069430989674 49.80118407079937,-59.91860033464634 52,-60.945914303141706 C53.40118407079937,-61.60056481264966 54.38325469726582,-59.5862416338832 56,-58.10225535743864 C57.98325469726582,-56.28185560216526 58.511057446370344,-53.03682331813814 60,-53.602834232657386 C62.111057446370346,-54.40533769587692 61.632192694913336,-59.48329242212742 64,-61.14339841908037 C65.23219269491334,-62.007307605369654 66.67469349126263,-60.606984134269354 68,-59.211756862084584 C70.27469349126262,-56.81705467512075 70.51999680343825,-55.80202560877426 72,-52.72133295430571 C74.11999680343824,-48.308465066573106 73.54816542816558,-44.697212498185245 76,-42.559400101637586 C77.14816542816558,-41.558287582132095 78.10024731635937,-44.46094123780052 80,-45.74594425196537 C81.70024731635938,-46.896000754141525 82.23109093719917,-46.917259340207664 84,-47.970643471284276 C85.83109093719918,-49.06105686582574 86.7874661468958,-51.40245220613256 88,-50.50993875333886 C90.38746614689579,-48.752589340999684 89.64802486670337,-45.417197209900436 92,-42.082059326544545 C93.24802486670337,-40.31234035571576 94.25798811680716,-40.55123326121797 96,-39.16581241070624 C97.85798811680715,-37.688155741505035 98.48259566279174,-35.22723874434734 100,-35.719664838293575 C102.08259566279173,-36.39550609058938 102.10367174597044,-39.11216598192482 104,-41.76196206902188 C105.70367174597044,-44.14255346535716 106.75047137962545,-47.903880477096 108,-46.89830369036545 C110.35047137962545,-45.00672680394135 109.95457582023926,-40.43190135107753 112,-35.323842795344866 C113.55457582023925,-31.441584827690885 113.57222032527328,-28.84860617488315 116,-26.919822527284033 C117.17222032527327,-25.988535632386984 118.56452926108109,-27.619119584638586 120,-28.968130478686717 C122.1645292610811,-31.00228796759762 122.59336811882395,-31.756600907502296 124,-34.437974489415225 C126.19336811882394,-38.6190537098772 125.43381992803106,-41.547969038149695 128,-44.21802559507539 C129.03381992803105,-45.293693552936915 130.28717633361873,-42.549257627699724 132,-42.761806744497925 C133.88717633361875,-42.99599177523176 134.31165547360308,-45.43111197187342 136,-45.210768145146574 C137.9116554736031,-44.961280273535465 138.1274519469936,-43.19739866418107 140,-41.71773630374691 C141.7274519469936,-40.35272694053117 142.66381427096417,-40.57639067030444 144,-38.88927542592457 C146.26381427096416,-36.030903656197395 145.60031354614284,-33.464637294283705 148,-31.616654050175704 C149.20031354614284,-30.6923002382923 150.1704856435912,-32.38808909040248 152,-32.72852641261035 C153.77048564359123,-33.057979630290916 154.51962506671464,-32.27053610306308 156,-33.10529969437222 C158.11962506671463,-34.30052787146166 158.10113559984308,-35.48699902414719 160,-37.23961923127387 C161.70113559984307,-38.80973904978283 162.9496663729754,-41.61880102095204 164,-40.489166418006974 C166.5496663729754,-37.746998323248846 165.32355035787617,-32.058189295119824 168,-28.635613236377882 C168.92355035787617,-27.454600414705194 170.56962080323015,-29.041816492774327 172,-30.25896890597446 C174.16962080323015,-32.1051640983712 174.94334283528732,-32.74480010736727 176,-35.44305235992648 C178.54334283528732,-41.937666472736076 177.9275996358583,-43.91300732691672 180,-50.68756082901625 C181.52759963585828,-55.681193160863366 182.03308669062272,-61.07092083073636 184,-61.59457643536347 C185.63308669062272,-62.02935665384563 185.47436039224115,-55.87694216605388 188,-52.81741821370351 C189.07436039224115,-51.51595329233449 190.37762434484455,-52.697737720514795 192,-51.90349004932037 C193.97762434484454,-50.93532738896555 195.14662304031367,-50.88454329785418 196,-48.90095081026073 Q198.74662304031366,-42.51669029422836 200,-33.30826115237411"
                  class="spline"
                  fill="none"/>
         </g>
      </g>
      <g id="parabolicUp">
         <g>
            <path d="M0,-36.234934130730636 Q2.162858983829492,-37.10417707281396 4,-37.493495821625025 C5.762858983829492,-37.86707305269978 6.1961426437772875,-37.78007795574339 8,-37.9302585304769 C9.796142643777289,-38.079796814984434 10.207740954231525,-37.9792610989548 12,-38.15953773104956 C13.807740954231523,-38.341371630394676 14.256306660622133,-38.264308146050276 16,-38.73494860034329 C17.856306660622135,-39.23598452812521 18.282008700462978,-39.44347236168278 20,-40.31881858010496 C21.88200870046298,-41.27773449512261 22.235353592123467,-41.636390468584125 24,-42.81108667465402 C25.835353592123464,-44.03285149498342 26.179310454071864,-44.399624311313374 28,-45.644287527658946 C29.779310454071865,-46.86066309129927 30.22971331287508,-47.0511253113361 32,-48.28006174128935 C33.82971331287508,-49.5502522493672 34.02404574730109,-50.29242328575012 36,-51.19790294550583 C37.62404574730109,-51.94212077781917 38.187714035001136,-51.70017733336472 40,-51.94605616810948 C41.78771403500114,-52.18860124778911 42.22597719145558,-51.97897765327969 44,-52.28328942200448 C45.82597719145558,-52.5965133253876 46.255613644280906,-52.69549057782736 48,-53.3183576616826 C49.85561364428091,-53.98094061275067 50.174981603404056,-54.380374128002074 52,-55.13984505516739 C53.77498160340406,-55.87849345813859 54.14850086882768,-56.42461582561006 56,-56.64751172865264 C57.74850086882768,-56.85800800897296 58.20103996183533,-56.35540698343543 60,-56.10293879597384 C61.80103996183533,-55.85017870955505 62.36171414495102,-56.2010198754913 64,-55.52478223114069 C65.96171414495102,-54.71504261934914 66.16437264100982,-53.970593413705586 68,-52.80076711565793 C69.76437264100981,-51.67635071115167 70.06518041856478,-51.04023677717925 72,-50.426465114354194 C73.66518041856477,-49.898229528869734 74.25629899206533,-50.61919740722697 76,-50.26297323052566 C77.85629899206533,-49.883746185779515 78.19664173993993,-49.44472862758198 80,-48.79212906669318 C81.79664173993993,-48.14196008112498 82.27041194082722,-48.16330080055707 84,-47.36793201617676 C85.87041194082722,-46.507803927423836 86.20656565900458,-46.13933168473446 88,-45.113247126397106 C89.80656565900459,-44.079649696062255 90.07054844991121,-43.39756949044105 92,-42.79086093023853 C93.67054844991121,-42.26556344622162 94.30543391295359,-43.07666008650161 96,-42.59767813924282 C97.90543391295358,-42.05909280286906 98.09833096639751,-41.11992988145193 100,-40.52960029994398 C101.6983309663975,-40.0023923626321 102.20242921852828,-40.3221697870144 104,-40.1142614307543 C105.80242921852829,-39.905791144097435 106.19328307812258,-39.750726424195406 108,-39.604314426795156 C109.79328307812257,-39.45899107580824 110.26527801352,-39.840259212571006 112,-39.46596065656059 C113.86527801352001,-39.06349220774868 114.13753870782055,-38.32841404827661 116,-37.87816552719 C117.73753870782055,-37.45811694050958 118.21117087126905,-37.77139896208337 120,-37.531967083744966 C121.81117087126904,-37.28954479939443 122.2108773881497,-36.7538310063588 124,-36.80737849899236 C125.81087738814969,-36.86157710056384 126.19825570570158,-37.34496179127281 128,-37.77140284864505 C129.7982557057016,-38.19701821870158 130.1775476667801,-38.536370474639305 132,-38.70083722661185 C133.7775476667801,-38.86125156826719 134.22560871880506,-38.75923648435111 136,-38.49336083448481 C137.82560871880506,-38.219810738934854 138.28736950086102,-38.174702905895494 140,-37.50211334790905 C141.887369500861,-36.760899747556024 142.08598344896137,-35.85268964598728 144,-35.351576038174876 C145.6859834489614,-34.91016436471647 146.3258237839804,-34.91979256467624 148,-35.407612722862794 C149.9258237839804,-35.96875775284914 150.07962280198686,-37.02943765507423 152,-37.6826097896702 C153.67962280198685,-38.253894853888255 154.22677477142008,-37.787760186262496 156,-38.12862872022729 C157.82677477142008,-38.47979112654863 158.17466066947318,-38.85709381721241 160,-39.2204563236394 C161.77466066947318,-39.5737304454056 162.21011842987124,-39.785334845162424 164,-39.7211545606566 C165.81011842987124,-39.656248637406044 166.19673000649985,-38.95174660991776 168,-38.93359808418078 C169.79673000649984,-38.91551537838359 170.22113469117102,-39.230544306335304 172,-39.64064071280289 C173.821134691171,-40.06048182659376 174.2499935052952,-40.130187081546154 176,-40.77790368475512 C177.84999350529523,-41.462627720256826 178.17404983935685,-41.84354118826746 180,-42.60161990993772 C181.77404983935688,-43.33815120382873 182.1411071262823,-43.73602720647203 184,-44.09925927489127 C185.7411071262823,-44.43947572940602 186.20138124001778,-44.09809199644117 188,-44.164838849791025 C189.8013812400178,-44.23168821894574 190.19905543159862,-44.37577745500832 192,-44.39613976934586 C193.79905543159862,-44.416480724226766 194.22689605658945,-44.5088759525575 196,-44.25529055916536 Q197.82689605658945,-43.994011937052726 200,-43.25199751266858"
                  class="spline"
                  fill="none"/>
         </g>
      </g>
      <g id="parabolicDown">
         <g>
            <path d="M0,-41.864185906307206 Q2.193887362242844,-42.3763893217115 4,-42.740287713877066 C5.7938873622428435,-43.10172293845804 6.196282994675187,-43.16662177428386 8,-43.476038387966184 C9.796282994675186,-43.78417974261703 10.197662839543387,-43.84171805716444 12,-44.112638754617436 C13.797662839543388,-44.38285682533127 14.19850736437817,-44.43493786668274 16,-44.67856898389246 C17.79850736437817,-44.92179637757099 18.199058422340997,-44.96990538368949 20,-45.19454655659133 C21.799058422340998,-45.418952833356244 22.199446086666743,-45.46429571072573 24,-45.676452205374126 C25.79944608666674,-45.88847816651253 26.199746122058507,-45.93207776362453 28,-46.13717423611755 C29.799746122058508,-46.342212861802544 30.38064925091007,-45.915585414836904 32,-46.58786353465862 C33.98064925091007,-47.41013576640114 34.019054627798,-48.639000295097574 36,-49.458397239593644 C37.619054627798,-50.128101933931184 38.22622020622013,-50.03894208695431 40,-49.89697828762219 C41.82622020622013,-49.75081743958388 42.21179309648329,-48.774797252483836 44,-48.81812024543714 C45.811793096483285,-48.86201466246318 46.30098071213598,-49.29780212141714 48,-50.09079475424296 C49.90098071213598,-50.97804995530837 50.30577716484456,-51.299909580377175 52,-52.55200432075099 C53.90577716484455,-53.960445710461954 53.95172758778667,-55.084878049224805 56,-56.00309726554247 C57.55172758778667,-56.6987206021163 58.21905783069758,-56.29596638756398 60,-56.138321104954315 C61.819057830697574,-55.9773019035751 62.46043734611574,-56.17556569972448 64,-55.294953967789425 C66.06043734611573,-54.11640803766514 66.05815072440295,-53.05424165091766 68,-51.562415189266886 C69.65815072440296,-50.28854024997266 70.17295302149486,-49.21290159800494 72,-49.14895085457833 C73.77295302149487,-49.08689352101276 74.18521886638135,-51.245698945636825 76,-51.282397240395376 C77.78521886638134,-51.318497730395706 78.17954502970971,-50.15377587051738 80,-49.31072593182028 C81.77954502970972,-48.48662132462624 82.3400796991202,-48.59203734430898 84,-47.577609360637304 C85.94007969912019,-46.39196741367293 86.08812050721312,-45.66794151160176 88,-44.42168164151795 C89.68812050721311,-43.32127920928173 90.14975072220838,-42.50381943639682 92,-42.362804244370565 C93.74975072220838,-42.229448465205074 94.28659280460609,-44.02375958079505 96,-43.811968372202955 C97.88659280460608,-43.57876999922845 98.07093785904175,-42.12613743528534 100,-41.373938507555906 C101.67093785904174,-40.72238994455868 102.21320355450324,-41.0629388181067 104,-40.69252950392149 C105.81320355450325,-40.31664590129041 106.23588199050425,-39.59204936051788 108,-39.7155098035197 C109.83588199050425,-39.84399259357494 110.20888170880207,-41.27810369121604 112,-41.252403355159394 C113.80888170880208,-41.22644813599191 114.14464927290945,-40.15730870965753 116,-39.600719680799415 C117.74464927290944,-39.07734012224586 118.3147066431705,-39.498508726775206 120,-38.85247316091124 C121.91470664317049,-38.11849495784562 122.0732172684622,-37.00918286771386 124,-36.534022416511455 C125.6732172684622,-36.121393291686566 126.2559999169257,-36.47681303611771 128,-36.87960743640615 C129.8559999169257,-37.30826932738246 130.15562857414463,-38.20508860881087 132,-38.381703063766466 C133.75562857414462,-38.549819626070736 134.21854915741054,-38.05732967021251 136,-37.645676363650296 C137.81854915741056,-37.22545046917328 138.38944935335218,-37.40325850250808 140,-36.53308261701262 C141.98944935335217,-35.458188849278685 142.03460621078617,-33.74796588289099 144,-33.32329935647387 C145.63460621078616,-32.97010675690221 146.52015841631925,-33.67588995581414 148,-34.80450678148201 C150.12015841631924,-36.421468007688155 149.84321387176948,-37.94998400991688 152,-39.4245839161939 C153.44321387176947,-40.41131274024979 154.2378246520065,-39.761153508743256 156,-40.2741261822218 C157.8378246520065,-40.80912051533287 158.14237065423026,-41.40170174544019 160,-41.75339948639305 C161.74237065423026,-42.083275747440936 162.23641068683295,-42.03708018086553 164,-41.78873507555679 C165.83641068683295,-41.53013541065371 166.16376493190936,-40.87366708978003 168,-40.626855552589014 C169.76376493190935,-40.389784851972884 170.20000281802155,-40.674347914309635 172,-40.71344121376314 C173.80000281802154,-40.75253463562324 174.20001313376548,-40.76078691547814 176,-40.80060382217481 C177.80001313376548,-40.840421309926725 178.20002574951175,-40.84887921800499 180,-40.89040653475999 C181.80002574951175,-40.93193503965213 182.20004307001946,-40.94078131788247 184,-40.985172314724025 C185.80004307001946,-41.02956543597319 186.20006915206503,-41.03900899064735 188,-41.0877045749616 C189.80006915206502,-41.13640390097539 190.20011157698428,-41.146692845044925 192,-41.20160544878632 C193.80011157698428,-41.25652486070832 194.200185740215,-41.26796052308053 196,-41.331775720880245 Q197.800185740215,-41.39560409009306 200,-41.48525781992527"
                  class="spline"
                  fill="none"/>
         </g>
      </g>
      <rect x="0"
            y="-100"
            width="200"
            height="100"
            stroke="lightgray"
            stroke-width="0.5"
            fill="none"/>
      <text x="-1"
            y="0"
            fill="lightgray"
            font-size="3"
            text-anchor="end"
            alignment-baseline="central">0.0</text>
      <text x="-1"
            y="-100"
            fill="lightgray"
            font-size="3"
            text-anchor="end"
            alignment-baseline="central">100.0</text>
      <text x="-1"
            y="-45.12093835913711"
            fill="red"
            fill-opacity="0.5"
            font-size="3"
            text-anchor="end"
            alignment-baseline="central">45.1</text>
      <text x="208"
            y="-100"
            font-size="3"
            fill="lightgray"
            text-anchor="end"
            alignment-baseline="central">100.0</text>
      <text x="208"
            y="0"
            font-size="3"
            fill="lightgray"
            text-anchor="end"
            alignment-baseline="central">0.0</text>
      <text x="208"
            y="-40.90112593184372"
            fill="red"
            fill-opacity="0.5"
            font-size="3"
            text-anchor="end"
            alignment-baseline="central">40.9</text>
      <circle cx="0" cy="-17.69502265276672" r="0.65" fill="black"/>
      <circle cx="4" cy="-60.53416582318624" r="0.65" fill="black"/>
      <circle cx="8" cy="-47.086492905900585" r="0.65" fill="black"/>
      <circle cx="12" cy="-27.966370129801902" r="0.65" fill="black"/>
      <circle cx="16" cy="-0" r="0.65" fill="black"/>
      <circle cx="20" cy="-1.2089107115094604" r="0.65" fill="black"/>
      <circle cx="24" cy="-25.37436488880347" r="0.65" fill="black"/>
      <circle cx="28" cy="-51.60275202011939" r="0.65" fill="black"/>
      <circle cx="32" cy="-87.53653425552244" r="0.65" fill="black"/>
      <circle cx="36" cy="-87.96681463621383" r="0.65" fill="black"/>
      <circle cx="40" cy="-32.009562987048" r="0.65" fill="black"/>
      <circle cx="44" cy="-66.01514606009296" r="0.65" fill="black"/>
      <circle cx="48" cy="-35.9452392319341" r="0.65" fill="black"/>
      <circle cx="52" cy="-79.71363822348063" r="0.65" fill="black"/>
      <circle cx="56" cy="-61.21100759541766" r="0.65" fill="black"/>
      <circle cx="60" cy="-29.508614625457795" r="0.65" fill="black"/>
      <circle cx="64" cy="-79.89150550726913" r="0.65" fill="black"/>
      <circle cx="68" cy="-68.35628482255721" r="0.65" fill="black"/>
      <circle cx="72" cy="-60.247741008564354" r="0.65" fill="black"/>
      <circle cx="76" cy="-15.7891208968841" r="0.65" fill="black"/>
      <circle cx="80" cy="-47.64898927617046" r="0.65" fill="black"/>
      <circle cx="84" cy="-47.2575972385799" r="0.65" fill="black"/>
      <circle cx="88" cy="-72.42233742558636" r="0.65" fill="black"/>
      <circle cx="92" cy="-31.23872601318905" r="0.65" fill="black"/>
      <circle cx="96" cy="-40.09762757829925" r="0.65" fill="black"/>
      <circle cx="100" cy="-16.9212497215838" r="0.65" fill="black"/>
      <circle cx="104" cy="-43.59071090710266" r="0.65" fill="black"/>
      <circle cx="108" cy="-80.3194963153399" r="0.65" fill="black"/>
      <circle cx="112" cy="-28.863327971834035" r="0.65" fill="black"/>
      <circle cx="116" cy="-6.131153935701163" r="0.65" fill="black"/>
      <circle cx="120" cy="-22.11863101598834" r="0.65" fill="black"/>
      <circle cx="124" cy="-25.966383000373447" r="0.65" fill="black"/>
      <circle cx="128" cy="-66.67906160781703" r="0.65" fill="black"/>
      <circle cx="132" cy="-34.85560276255853" r="0.65" fill="black"/>
      <circle cx="136" cy="-56.99141751300764" r="0.65" fill="black"/>
      <circle cx="140" cy="-40.30281354156349" r="0.65" fill="black"/>
      <circle cx="144" cy="-47.959770356266716" r="0.65" fill="black"/>
      <circle cx="148" cy="-15.0589297376958" r="0.65" fill="black"/>
      <circle cx="152" cy="-34.06377368047711" r="0.65" fill="black"/>
      <circle cx="156" cy="-25.642416560554587" r="0.65" fill="black"/>
      <circle cx="160" cy="-38.98371127629803" r="0.65" fill="black"/>
      <circle cx="164" cy="-70.57501142393859" r="0.65" fill="black"/>
      <circle cx="168" cy="-1.7980531134490303" r="0.65" fill="black"/>
      <circle cx="172" cy="-23.186434283461757" r="0.65" fill="black"/>
      <circle cx="176" cy="-15.611008117870975" r="0.65" fill="black"/>
      <circle cx="180" cy="-59.65005899508286" r="0.65" fill="black"/>
      <circle cx="184" cy="-99.99999999999999" r="0.65" fill="black"/>
      <circle cx="188" cy="-37.30574305041893" r="0.65" fill="black"/>
      <circle cx="192" cy="-55.15603975486595" r="0.65" fill="black"/>
      <circle cx="196" cy="-64.18651197242635" r="0.65" fill="black"/>
      <circle cx="200" cy="-7.320762289979598" r="0.65" fill="black"/>
      <g id="data">
         <polyline points="0,-17.69502265276672 4,-60.53416582318624 8,-47.086492905900585 12,-27.966370129801902 16,-0 20,-1.2089107115094604 24,-25.37436488880347 28,-51.60275202011939 32,-87.53653425552244 36,-87.96681463621383 40,-32.009562987048 44,-66.01514606009296 48,-35.9452392319341 52,-79.71363822348063 56,-61.21100759541766 60,-29.508614625457795 64,-79.89150550726913 68,-68.35628482255721 72,-60.247741008564354 76,-15.7891208968841 80,-47.64898927617046 84,-47.2575972385799 88,-72.42233742558636 92,-31.23872601318905 96,-40.09762757829925 100,-16.9212497215838 104,-43.59071090710266 108,-80.3194963153399 112,-28.863327971834035 116,-6.131153935701163 120,-22.11863101598834 124,-25.966383000373447 128,-66.67906160781703 132,-34.85560276255853 136,-56.99141751300764 140,-40.30281354156349 144,-47.959770356266716 148,-15.0589297376958 152,-34.06377368047711 156,-25.642416560554587 160,-38.98371127629803 164,-70.57501142393859 168,-1.7980531134490303 172,-23.186434283461757 176,-15.611008117870975 180,-59.65005899508286 184,-99.99999999999999 188,-37.30574305041893 192,-55.15603975486595 196,-64.18651197242635 200,-7.320762289979598"
                   stroke="black"
                   stroke-width="0.5"
                   fill="none"
                   id="black"/>
      </g>
      <text x="100" y="8" text-anchor="middle" font-size="5">Fake independent
                    variable</text>
      <text x="-10"
            y="-50"
            text-anchor="middle"
            font-size="5"
            writing-mode="tb">Fake
                    dependent variable</text>
      <text x="100" y="-106" text-anchor="middle" font-size="8">Smoothing examples (window                     = 17)</text>
   </g>
   <g transform="translate(50, 15)">
      <rect x="0"
            y="0"
            width="100"
            height="58"
            fill="ghostwhite"
            stroke="black"
            stroke-width="0.5"/>
      <rect x="2"
            y="2"
            width="5"
            height="5"
            fill="black"
            class="toggle"
            id="data-box"/>
      <rect x="2"
            y="9"
            width="5"
            height="5"
            fill="red"
            class="toggle"
            id="regression-box"/>
      <rect x="2" y="16" width="5" height="5" fill="gray"/>
      <rect x="2"
            y="23"
            width="5"
            height="5"
            fill="blue"
            class="toggle"
            id="rectangular-box"/>
      <rect x="2"
            y="30"
            width="5"
            height="5"
            fill="green"
            class="toggle"
            id="gaussian-box"/>
      <rect x="2"
            y="37"
            width="5"
            height="5"
            fill="indigo"
            class="toggle"
            id="exponential-box"/>
      <rect x="2"
            y="44"
            width="5"
            height="5"
            fill="fuchsia"
            class="toggle"
            id="parabolicUp-box"/>
      <rect x="2"
            y="51"
            width="5"
            height="5"
            fill="darkgoldenrod"
            class="toggle"
            id="parabolicDown-box"/>
      <text x="10"
            y="6"
            fill="black"
            font-size="5"
            alignment-baseline="central">
         <tspan>Actual data (51 points)</tspan>
         <tspan x="10" dy="7" fill="red">Regression line (45.1–40.9)</tspan>
         <tspan x="10" dy="7" fill="gray">Sine without jitter</tspan>
         <tspan x="10" dy="7" fill="blue">Rectangular </tspan>
         <tspan x="10" dy="7" fill="green">Gaussian (σ = 5)</tspan>
         <tspan x="10" dy="7" fill="indigo">Exponential: y = 1 - 2<tspan dy="-2" font-size="4">-d</tspan>
            <tspan dy="2"> </tspan>
         </tspan>
         <tspan x="10" dy="7" fill="fuchsia">Parabolic (upward): y = ((N - d)/N)<tspan dy="-2" font-size="4">2</tspan>
            <tspan dy="2"> </tspan>
         </tspan>
         <tspan x="10" dy="7" fill="darkgoldenrod">Parabolic (downward): y = 1 - (d/N)<tspan dy="-2" font-size="4">2</tspan>
            <tspan dy="2" dx="-1">)</tspan>
         </tspan>
      </text>
   </g>
</svg>
