<?xml version="1.0" encoding="UTF-8"?>
<svg xmlns="http://www.w3.org/2000/svg"
     viewBox="-10 -110 220 110"
     width="50%">
   <style type="text/css">
                .regression {
                    stroke: red;
                    stroke-width: 0.5;
                }</style>
   <g>
      <line x1="0"
            y1="-100"
            x2="0"
            y2="0"
            stroke="lightgray"
            stroke-width="0.5"/>
      <line x1="0"
            y1="-51.15540235272535"
            x2="200"
            y2="-51.15540235272535"
            stroke="lightgray"
            stroke-width="0.5"/>
      <polyline points="2,-10.903572927530204 4,-93.49129906185078 6,-34.757159958636855 8,-46.986004021367755 10,-41.609558353159706 12,-15.698283276541027 14,-3.786710802802297 16,-76.86395211363161 18,-73.20833445849809 20,-80.74653963061812 22,-76.56150367787849 24,-17.023826626456763 26,-88.39026329086552 28,-53.19031359546308 30,-37.404045488238346 32,-15.844290795219308 34,-84.32455786832838 36,-7.441609808662255 38,-70.21998550101806 40,-28.21350079457037 42,-18.965213025937512 44,-8.262502159901732 46,-27.804383413997147 48,-13.157394433586923 50,-9.095263533817334 52,-51.73974895825566 54,-89.72871839293015 56,-93.04870486007022 58,-47.44648571529956 60,-93.48239046217417 62,-59.267724599314576 64,-50.64754853351542 66,-43.77890437930736 68,-79.0063030218917 70,-65.80020585242109 72,-19.11287198838302 74,-75.35594827886666 76,-36.98477361127506 78,-59.91232586617964 80,-38.35985653622999 82,-58.131035547599595 84,-32.434556086356096 86,-9.642370184392314 88,-93.53906657543502 90,-52.414002180143186 92,-92.69156487632867 94,-13.396601823277056 96,-76.7394334064457 98,-15.710656146112779 100,1.1992572726687505 102,-69.76088152942589 104,-95.45281219550256 106,-84.1892809910776 108,-57.91443550507155 110,-27.434829607881795 112,-44.096688420759904 114,-69.48141411400522 116,-96.15750524067428 118,-61.31934175672589 120,-44.86306819167923 122,-47.25840858742485 124,-94.52987587294118 126,-92.15251483620567 128,-56.551990392285035 130,-46.15211366579798 132,-26.544718027690298 134,-44.586215599067295 136,-14.016761384772714 138,-51.90082190276983 140,-36.41537448438543 142,-34.26317717529272 144,-43.45972267430825 146,-4.3528827113379265 148,-82.100089319848 150,-76.44946989885695 152,-67.30275877891707 154,-83.63077057351961 156,-8.3110703535648 158,-12.475486450362796 160,-89.45724240041172 162,-34.28524419613755 164,-48.03821302330239 166,-35.38399013859771 168,-52.22792752540509 170,-9.36794761357991 172,-17.698945120229627 174,-58.87987249384251 176,-74.9023003835701 178,-13.903670245262946 180,-92.30793450888983 182,-90.8283473586556 184,-12.354150668933997 186,-9.609073483927324 188,1.3443571972767003 190,-25.99175739974341 192,-21.7754867829008 194,-73.06060964050668 196,-97.0227899344956 198,-11.04030638917083 200,-18.312018658902453"
                stroke="black"
                stroke-width="0.5"
                fill="none"/>
      <g>
         <line x1="2"
               y1="-51.15540235272535"
               x2="200"
               y2="-45.6862998768228"
               class="regression"/>
      </g>
      <polyline points="2,-40.51206756444003 4,-40.51206756444003 6,-40.51206756444003 8,-40.51206756444003 10,-44.14498610822426 12,-51.905315741900694 14,-50.024227365903776 16,-48.05385699566154 18,-52.65433024782796 20,-53.941080830306106 22,-56.35283218716136 24,-57.69256329742992 26,-58.52151949239624 28,-51.21410564241447 30,-50.04448851690336 32,-44.672488196535795 34,-44.88819779647809 36,-35.985113226371 38,-33.16445431731923 40,-30.470381977913526 42,-29.720490059979973 44,-26.099955736638556 46,-35.24296780155721 48,-37.779492174785226 50,-39.91649049931069 52,-48.196176881114766 54,-53.86342381882731 56,-56.40155327655156 58,-59.8039432705205 60,-67.5718365469732 62,-69.1341095352138 64,-61.28790437915302 66,-59.322042536797056 68,-58.15963008079434 70,-54.429622903461606 72,-52.10652645200776 74,-52.93802500912823 76,-51.67754186546698 78,-43.97043821685594 80,-47.05253385274638 82,-50.75265942960861 84,-52.678839051548835 86,-50.05793107510462 88,-51.92760969068974 90,-49.411031869565605 92,-42.81877711175801 94,-46.96614660543243 96,-56.50064016222245 98,-55.46177509729385 100,-56.07293435561922 102,-48.822185992458465 104,-52.23330672551211 106,-51.42686013746317 108,-60.365398925747776 110,-67.31190992901385 112,-64.54548622481977 114,-59.19055249058892 116,-60.339507477462654 118,-64.14373851425533 120,-67.37897860141125 122,-67.60735918419326 124,-62.83661517460272 126,-57.10647188109082 128,-51.85062961754048 130,-52.6326022521061 132,-51.42782068510172 134,-44.731520829807444 136,-39.32121058959661 138,-33.52130973615805 140,-37.51552925327472 142,-43.06050168340435 144,-45.58456203672099 146,-53.31945194658175 148,-48.476146218892296 150,-45.81615865955645 152,-51.94883257345856 154,-50.929446075884044 156,-55.78337166610231 158,-50.59269397929673 160,-47.90141149335764 162,-41.46421025276462 164,-34.13845186906573 166,-39.75720766242992 168,-46.69352032167518 170,-38.2986789711031 172,-44.74564456140891 174,-49.500103932003704 176,-46.94123287981884 178,-42.205804652987986 180,-41.0155485628928 182,-41.93697214950545 184,-37.814262626067475 186,-37.60963032128266 188,-46.84508806453073 190,-37.815351606784176 192,-29.757981751256043 194,-35.865018311996 196,-35.865018311996 198,-35.865018311996 200,-35.865018311996"
                stroke="blue"
                stroke-width="0.5"
                fill="none"/>
   </g>
</svg>
