<?xml version="1.0" encoding="UTF-8"?>
<svg xmlns="http://www.w3.org/2000/svg" viewBox="-12 -115 210 195">
   <style type="text/css">
                #linear {
                    stroke: blue;
                    stroke-width: 0.5;
                    stroke-opacity: 0.5;
                    fill: none;
                }
                #gaussian {
                    stroke: green;
                    stroke-width: 0.5;
                    stroke-opacity: 0.5;
                    fill: none;
                }
                #exponential {
                    stroke: indigo;
                    stroke-width: 0.5;
                    stroke-opacity: 0.5;
                    fill: none;
                }
                .regression {
                    stroke: red;
                    stroke-width: 0.5;
                    stroke-opacity: 0.5;
                }</style>
   <g>
      <line x1="2"
            y1="0"
            x2="200"
            y2="0"
            stroke="lightgray"
            stroke-width="0.5"
            stroke-linecap="square"/>
      <text x="0"
            y="0"
            fill="lightgray"
            font-size="3"
            text-anchor="end"
            alignment-baseline="central">0.0</text>
      <line x1="2"
            y1="-100"
            x2="200"
            y2="-100"
            stroke="lightgray"
            stroke-width="0.5"
            stroke-linecap="square"/>
      <text x="0"
            y="-100"
            fill="lightgray"
            font-size="3"
            text-anchor="end"
            alignment-baseline="central">100.0</text>
      <text x="0"
            y="-62.1481629014455"
            fill="lightgray"
            font-size="3"
            text-anchor="end"
            alignment-baseline="central">62.1</text>
      <text x="208"
            y="-100"
            font-size="3"
            fill="lightgray"
            text-anchor="end"
            alignment-baseline="central">100.0</text>
      <text x="208"
            y="0"
            font-size="3"
            fill="lightgray"
            text-anchor="end"
            alignment-baseline="central">0.0</text>
      <text x="208"
            y="-35.21980348653932"
            fill="red"
            fill-opacity="0.5"
            font-size="3"
            text-anchor="end"
            alignment-baseline="central">35.2</text>
      <line x1="2"
            y1="-100"
            x2="2"
            y2="0"
            stroke="lightgray"
            stroke-width="0.5"
            stroke-linecap="square"/>
      <line x1="200"
            y1="-100"
            x2="200"
            y2="0"
            stroke="lightgray"
            stroke-width="0.5"
            stroke-linecap="square"/>
      <line x1="2"
            y1="-62.1481629014455"
            x2="200"
            y2="-62.1481629014455"
            stroke="lightgray"
            stroke-width="0.5"/>
      <circle cx="2" cy="-9.240956771515155" r="0.65" fill="black"/>
      <circle cx="4" cy="-79.24232864111241" r="0.65" fill="black"/>
      <circle cx="6" cy="-54.36561710022722" r="0.65" fill="black"/>
      <circle cx="8" cy="-0.6548461652719735" r="0.65" fill="black"/>
      <circle cx="10" cy="-53.762591204867654" r="0.65" fill="black"/>
      <circle cx="12" cy="-86.7266978364028" r="0.65" fill="black"/>
      <circle cx="14" cy="-43.73898357694459" r="0.65" fill="black"/>
      <circle cx="16" cy="-80.39569380624054" r="0.65" fill="black"/>
      <circle cx="18" cy="-12.83544199484641" r="0.65" fill="black"/>
      <circle cx="20" cy="-91.55489071424182" r="0.65" fill="black"/>
      <circle cx="22" cy="-97.81094606430466" r="0.65" fill="black"/>
      <circle cx="24" cy="-67.09429959583886" r="0.65" fill="black"/>
      <circle cx="26" cy="-93.3986774830334" r="0.65" fill="black"/>
      <circle cx="28" cy="-92.08359288689596" r="0.65" fill="black"/>
      <circle cx="30" cy="-72.02949803334043" r="0.65" fill="black"/>
      <circle cx="32" cy="-28.61824324142365" r="0.65" fill="black"/>
      <circle cx="34" cy="-60.62611690153022" r="0.65" fill="black"/>
      <circle cx="36" cy="-9.490814111546987" r="0.65" fill="black"/>
      <circle cx="38" cy="-91.50267319076404" r="0.65" fill="black"/>
      <circle cx="40" cy="-49.69859552024919" r="0.65" fill="black"/>
      <circle cx="42" cy="-93.06016033909475" r="0.65" fill="black"/>
      <circle cx="44" cy="-86.09516983726769" r="0.65" fill="black"/>
      <circle cx="46" cy="-43.34244490911995" r="0.65" fill="black"/>
      <circle cx="48" cy="-2.0625850625479405" r="0.65" fill="black"/>
      <circle cx="50" cy="-91.70813754454532" r="0.65" fill="black"/>
      <circle cx="52" cy="-63.658097171955376" r="0.65" fill="black"/>
      <circle cx="54" cy="-22.6934050212139" r="0.65" fill="black"/>
      <circle cx="56" cy="-33.716903477000336" r="0.65" fill="black"/>
      <circle cx="58" cy="-69.77079720944594" r="0.65" fill="black"/>
      <circle cx="60" cy="-70.81997214874954" r="0.65" fill="black"/>
      <circle cx="62" cy="-37.057704689248716" r="0.65" fill="black"/>
      <circle cx="64" cy="-80.03159827503669" r="0.65" fill="black"/>
      <circle cx="66" cy="-88.91435388123507" r="0.65" fill="black"/>
      <circle cx="68" cy="-86.76631396492314" r="0.65" fill="black"/>
      <circle cx="70" cy="-79.3005898030773" r="0.65" fill="black"/>
      <circle cx="72" cy="-94.02036896786623" r="0.65" fill="black"/>
      <circle cx="74" cy="-20.566119968956233" r="0.65" fill="black"/>
      <circle cx="76" cy="-39.22992510735089" r="0.65" fill="black"/>
      <circle cx="78" cy="-28.729563595178288" r="0.65" fill="black"/>
      <circle cx="80" cy="-10.226926984168362" r="0.65" fill="black"/>
      <circle cx="82" cy="-24.90434077682966" r="0.65" fill="black"/>
      <circle cx="84" cy="-5.4752357827381655" r="0.65" fill="black"/>
      <circle cx="86" cy="-6.315987584114005" r="0.65" fill="black"/>
      <circle cx="88" cy="-93.16621906537218" r="0.65" fill="black"/>
      <circle cx="90" cy="-79.24307741397271" r="0.65" fill="black"/>
      <circle cx="92" cy="-36.826690253882724" r="0.65" fill="black"/>
      <circle cx="94" cy="-0.6054066689095046" r="0.65" fill="black"/>
      <circle cx="96" cy="-86.04930641522427" r="0.65" fill="black"/>
      <circle cx="98" cy="-69.88283849185284" r="0.65" fill="black"/>
      <circle cx="100" cy="-50.143112489219256" r="0.65" fill="black"/>
      <circle cx="102" cy="-55.792646452218975" r="0.65" fill="black"/>
      <circle cx="104" cy="-69.47546157227994" r="0.65" fill="black"/>
      <circle cx="106" cy="-9.942948932778396" r="0.65" fill="black"/>
      <circle cx="108" cy="-44.79791118119909" r="0.65" fill="black"/>
      <circle cx="110" cy="-7.303616195768427" r="0.65" fill="black"/>
      <circle cx="112" cy="-82.27377424503051" r="0.65" fill="black"/>
      <circle cx="114" cy="-89.05305787611971" r="0.65" fill="black"/>
      <circle cx="116" cy="0.39432872050939416" r="0.65" fill="black"/>
      <circle cx="118" cy="-54.684274668502354" r="0.65" fill="black"/>
      <circle cx="120" cy="-63.540203570216576" r="0.65" fill="black"/>
      <circle cx="122" cy="-63.49038125237938" r="0.65" fill="black"/>
      <circle cx="124" cy="-74.6635805198837" r="0.65" fill="black"/>
      <circle cx="126" cy="-48.22610679588282" r="0.65" fill="black"/>
      <circle cx="128" cy="-30.565010691974614" r="0.65" fill="black"/>
      <circle cx="130" cy="-79.88798138677059" r="0.65" fill="black"/>
      <circle cx="132" cy="0.9395594136971979" r="0.65" fill="black"/>
      <circle cx="134" cy="-32.45706354956114" r="0.65" fill="black"/>
      <circle cx="136" cy="-45.58291838304489" r="0.65" fill="black"/>
      <circle cx="138" cy="-11.72587691599605" r="0.65" fill="black"/>
      <circle cx="140" cy="-85.19489559491564" r="0.65" fill="black"/>
      <circle cx="142" cy="-75.70021463546108" r="0.65" fill="black"/>
      <circle cx="144" cy="-1.3063557904317364" r="0.65" fill="black"/>
      <circle cx="146" cy="-63.60858619660742" r="0.65" fill="black"/>
      <circle cx="148" cy="-9.162206673291152" r="0.65" fill="black"/>
      <circle cx="150" cy="-4.206497354002794" r="0.65" fill="black"/>
      <circle cx="152" cy="-13.46543570196789" r="0.65" fill="black"/>
      <circle cx="154" cy="-86.63392555484609" r="0.65" fill="black"/>
      <circle cx="156" cy="-7.47163289612466" r="0.65" fill="black"/>
      <circle cx="158" cy="-43.11586862877527" r="0.65" fill="black"/>
      <circle cx="160" cy="-2.2047796918594837" r="0.65" fill="black"/>
      <circle cx="162" cy="-64.04459445451353" r="0.65" fill="black"/>
      <circle cx="164" cy="-47.8057542697382" r="0.65" fill="black"/>
      <circle cx="166" cy="-80.85670224917347" r="0.65" fill="black"/>
      <circle cx="168" cy="-44.51539436574106" r="0.65" fill="black"/>
      <circle cx="170" cy="-62.580345558037294" r="0.65" fill="black"/>
      <circle cx="172" cy="-9.83623505926551" r="0.65" fill="black"/>
      <circle cx="174" cy="-13.885387186534384" r="0.65" fill="black"/>
      <circle cx="176" cy="-0.9308893522108526" r="0.65" fill="black"/>
      <circle cx="178" cy="-60.075401648869374" r="0.65" fill="black"/>
      <circle cx="180" cy="-75.06877241164958" r="0.65" fill="black"/>
      <circle cx="182" cy="-28.061158133282007" r="0.65" fill="black"/>
      <circle cx="184" cy="-17.59630411153077" r="0.65" fill="black"/>
      <circle cx="186" cy="-80.21069937724438" r="0.65" fill="black"/>
      <circle cx="188" cy="-24.632110652182273" r="0.65" fill="black"/>
      <circle cx="190" cy="-18.252282757218765" r="0.65" fill="black"/>
      <circle cx="192" cy="-89.83636056162227" r="0.65" fill="black"/>
      <circle cx="194" cy="-6.165595975791916" r="0.65" fill="black"/>
      <circle cx="196" cy="-61.22317980589624" r="0.65" fill="black"/>
      <circle cx="198" cy="-33.20073446175558" r="0.65" fill="black"/>
      <circle cx="200" cy="-12.702054785152253" r="0.65" fill="black"/>
      <polyline points="2,-9.240956771515155 4,-79.24232864111241 6,-54.36561710022722 8,-0.6548461652719735 10,-53.762591204867654 12,-86.7266978364028 14,-43.73898357694459 16,-80.39569380624054 18,-12.83544199484641 20,-91.55489071424182 22,-97.81094606430466 24,-67.09429959583886 26,-93.3986774830334 28,-92.08359288689596 30,-72.02949803334043 32,-28.61824324142365 34,-60.62611690153022 36,-9.490814111546987 38,-91.50267319076404 40,-49.69859552024919 42,-93.06016033909475 44,-86.09516983726769 46,-43.34244490911995 48,-2.0625850625479405 50,-91.70813754454532 52,-63.658097171955376 54,-22.6934050212139 56,-33.716903477000336 58,-69.77079720944594 60,-70.81997214874954 62,-37.057704689248716 64,-80.03159827503669 66,-88.91435388123507 68,-86.76631396492314 70,-79.3005898030773 72,-94.02036896786623 74,-20.566119968956233 76,-39.22992510735089 78,-28.729563595178288 80,-10.226926984168362 82,-24.90434077682966 84,-5.4752357827381655 86,-6.315987584114005 88,-93.16621906537218 90,-79.24307741397271 92,-36.826690253882724 94,-0.6054066689095046 96,-86.04930641522427 98,-69.88283849185284 100,-50.143112489219256 102,-55.792646452218975 104,-69.47546157227994 106,-9.942948932778396 108,-44.79791118119909 110,-7.303616195768427 112,-82.27377424503051 114,-89.05305787611971 116,0.39432872050939416 118,-54.684274668502354 120,-63.540203570216576 122,-63.49038125237938 124,-74.6635805198837 126,-48.22610679588282 128,-30.565010691974614 130,-79.88798138677059 132,0.9395594136971979 134,-32.45706354956114 136,-45.58291838304489 138,-11.72587691599605 140,-85.19489559491564 142,-75.70021463546108 144,-1.3063557904317364 146,-63.60858619660742 148,-9.162206673291152 150,-4.206497354002794 152,-13.46543570196789 154,-86.63392555484609 156,-7.47163289612466 158,-43.11586862877527 160,-2.2047796918594837 162,-64.04459445451353 164,-47.8057542697382 166,-80.85670224917347 168,-44.51539436574106 170,-62.580345558037294 172,-9.83623505926551 174,-13.885387186534384 176,-0.9308893522108526 178,-60.075401648869374 180,-75.06877241164958 182,-28.061158133282007 184,-17.59630411153077 186,-80.21069937724438 188,-24.632110652182273 190,-18.252282757218765 192,-89.83636056162227 194,-6.165595975791916 196,-61.22317980589624 198,-33.20073446175558 200,-12.702054785152253"
                stroke="black"
                stroke-width="0.5"
                fill="none"/>
      <g>
         <line x1="2"
               y1="-62.1481629014455"
               x2="200"
               y2="-35.21980348653932"
               class="regression"/>
      </g>
      <g id="linear">
         <g>
            <path d="M2,-58.30966104119286 Q3.2,-58.30966104119286 4,-58.30966104119286 C4.8,-58.30966104119286 5.2,-58.30966104119286 6,-58.30966104119286 C6.8,-58.30966104119286 7.2,-58.30966104119286 8,-58.30966104119286 C8.8,-58.30966104119286 9.2,-58.30966104119286 10,-58.30966104119286 C10.8,-58.30966104119286 11.2,-58.30966104119286 12,-58.30966104119286 C12.8,-58.30966104119286 13.2,-58.30966104119286 14,-58.30966104119286 C14.8,-58.30966104119286 15.2,-58.30966104119286 16,-58.30966104119286 C16.8,-58.30966104119286 17.2,-58.30966104119286 18,-58.30966104119286 C18.8,-58.30966104119286 19.2,-58.30966104119286 20,-58.30966104119286 C20.8,-58.30966104119286 21.2,-58.30966104119286 22,-58.30966104119286 C22.8,-58.30966104119286 23.27357705956546,-58.067046846116874 24,-58.30966104119286 C24.873577059565463,-58.60142247017051 25.282199788333234,-59.01525941731506 26,-59.645600101326956 C26.88219978833323,-60.42030928777574 27.208480403238973,-61.83915919928703 28,-61.822285717344556 C28.808480403238974,-61.8050506677757 29.067956236514128,-60.279844536031625 30,-59.56032877254863 C30.66795623651413,-59.04468234014162 31.379105829710944,-58.43344997597273 32,-58.73438022761954 C32.979105829710946,-59.20892577470787 33.01191755785873,-60.64755470620441 34,-61.4990182693865 C34.61191755785873,-62.0263280180133 35.314495362144775,-62.40486762127456 36,-62.18131350714177 C36.91449536214478,-61.883081826022206 37.14741338954861,-60.308598992875616 38,-60.19455378125561 C38.747413389548605,-60.09457693769062 39.12133489369992,-61.252517334059924 40,-61.646258369179286 C40.72133489369992,-61.96949773042931 41.420219989261504,-61.508978866434326 42,-61.98700477217908 C43.020219989261506,-62.828171379155464 42.985284482588156,-64.31839791383982 44,-64.94423965098214 C44.58528448258816,-65.30522305078242 45.18948034148789,-64.58411450497148 46,-64.45406761453557 C46.78948034148789,-64.32739645684984 47.32263338841665,-64.64328698808566 48,-64.30244453067803 C48.92263338841664,-63.838186880512524 49.23051756719313,-63.21616254773794 50,-62.44131734560272 C50.830517567193134,-61.6050116356969 51.23621333855248,-61.17219058111312 52,-60.27456725057543 C52.83621333855248,-59.291826074434724 53.19394741826924,-58.74923408716091 54,-57.740406078906716 C54.79394741826924,-56.74672848170667 55.018825035977855,-55.91113447236711 56,-55.268303236939836 C56.618825035977856,-54.86287089614685 57.35607227191521,-55.4987938019266 58,-55.119747138356075 C58.956072271915204,-54.55695726459243 59.04364332975461,-53.47151368914689 60,-52.913711893604386 C60.6436433297546,-52.53830236680729 61.19941652776351,-52.798817895632695 62,-52.78671883250707 C62.79941652776351,-52.7746374051875 63.25956333904735,-52.62218498873438 64,-52.8532606674914 C64.85956333904734,-53.121513433027694 65.30303400012583,-54.221053116645436 66,-54.035039943240335 C66.90303400012584,-53.794029305581624 67.30920132645362,-52.764723355254574 68,-51.785701139831865 C68.90920132645361,-50.49715162319746 69.03843260248561,-48.777497047192426 70,-48.366110613097554 C70.63843260248562,-48.09297062059637 71.29867189757715,-49.29922735550248 72,-50.074385073341716 C72.89867189757715,-51.06766119446903 73.09689857062654,-52.55008386778325 74,-52.78719521051392 C74.69689857062654,-52.97016752176691 75.10033822889717,-51.56930130212336 76,-51.12459420830087 C76.70033822889717,-50.778413689722356 77.31996643191263,-50.54533019629813 78,-50.809976179511416 C78.91996643191263,-51.1679958895994 79.11531593624063,-52.477709429726005 80,-52.68125844155406 C80.71531593624063,-52.84583906183551 81.20377746839549,-52.11843358786851 82,-51.73030025978518 C82.80377746839548,-51.338484138709006 83.3459610214386,-51.31013895304606 84,-50.7313848186553 C84.94596102143859,-49.8943110813464 85.1275682430496,-48.350388090678095 86,-48.19073058053605 C86.72756824304959,-48.0575835083229 87.0876300007155,-49.50452641838691 88,-49.99937336276732 C88.6876300007155,-50.372326884896744 89.4692359504457,-50.78636746288364 90,-50.36023174681063 C91.0692359504457,-49.50177189487305 90.98761148606796,-48.01683016821707 92,-46.78788444274086 C92.58761148606796,-46.07457861784643 93.15005061226204,-45.911239273749146 94,-45.50460287088403 C94.75005061226204,-45.145760465280645 95.2443846416031,-45.22396459658267 96,-44.874187421569594 C96.8443846416031,-44.483318613409104 97.29122830276927,-43.48594833573998 98,-43.652987912950124 C98.89122830276928,-43.86302790110703 99.05305669411786,-45.21942531336343 100,-45.816886334987224 C100.65305669411785,-46.22892358919478 101.19389753320618,-46.08941957569601 102,-46.17673360252849 C102.79389753320619,-46.262725636261266 103.41042060120746,-45.8286228427025 104,-46.25015148640035 C105.01042060120747,-46.97256686669287 105.03404563535709,-48.61333994893058 106,-49.03659366250444 C106.63404563535708,-49.314414416323785 107.20375946676883,-47.99377701428209 108,-48.00283765488337 C108.80375946676882,-48.01198385550283 109.24492154087466,-48.58188066018831 110,-49.08211076555628 C110.84492154087465,-49.641860797240376 111.36080615590379,-50.92235784671094 112,-50.65278799751352 C112.96080615590378,-50.24758326510382 112.9521265316214,-48.18619852587431 114,-47.395174311538476 C114.5521265316214,-46.978382142379374 115.29134337531083,-47.31558927916727 116,-47.63324703877619 C116.89134337531084,-48.03279476016761 117.10591915531685,-48.83436022706388 118,-49.18818801403931 C118.70591915531686,-49.467551803113494 119.23663827982698,-49.382179069508666 120,-49.21622597890021 C120.83663827982699,-49.03434273195516 121.34297640234179,-48.864986877171425 122,-48.31859717015554 C122.94297640234178,-47.53440524457657 123.14126900819079,-46.80567073201566 124,-45.88977189741308 C124.74126900819078,-45.09915478075521 125.18568005774472,-44.77105722798724 126,-44.05230729200441 C126.78568005774473,-43.35883601381976 127.11452036606015,-42.58208298874011 128,-42.35921886199437 C128.71452036606016,-42.17938304045716 129.17822711581945,-42.92486242201804 130,-43.04555742129702 C130.77822711581948,-43.15985678915263 131.1997382170012,-42.97994252133015 132,-42.94670477983086 C132.7997382170012,-42.9134887839049 133.2018428939908,-42.9335451457719 134,-42.8794230777339 C134.80184289399082,-42.82505108087059 135.22288452993402,-42.85675524106106 136,-42.67546961757756 C136.82288452993402,-42.48350698035025 137.27860820972188,-42.37536089432824 138,-41.94630242595687 C138.87860820972188,-41.42373715997786 139.35271553025623,-40.03747236716033 140,-40.29641028170162 C140.95271553025626,-40.67753200497316 140.9575336058197,-42.80544398752567 142,-43.54645152048894 C142.55753360581969,-43.94275839819642 143.19196798161477,-43.22962007720551 144,-43.13969630837848 C144.79196798161476,-43.05156026416646 145.35131577976028,-43.4555744152121 146,-43.10130198789131 C146.9513157797603,-42.58175034792741 147.22821230190456,-41.838310859274806 148,-40.95513614016676 C148.82821230190456,-40.0073934268514 149.14643834095318,-39.446481604849616 150,-38.524008406832785 C150.74643834095318,-37.71730703241727 151.13212340539337,-36.786550055556035 152,-36.632199709085896 C152.7321234053934,-36.501992831767595 153.1421748035983,-37.60080816703264 154,-37.81261534736169 C154.74217480359832,-37.99586707874102 155.2560569555337,-37.43995033728948 156,-37.61984698835685 C156.8560569555337,-37.826854474439216 157.15896780468051,-38.66095409013507 158,-38.77987569023602 C158.7589678046805,-38.88719341987825 159.26130826577935,-38.03942795837777 160,-38.185445312714805 C160.86130826577934,-38.35570030327648 161.13468735456632,-39.15923871213845 162,-39.570556552482785 C162.73468735456632,-39.91978294782463 163.38885817584304,-40.41704481487958 164,-40.086805901930234 C164.98885817584303,-39.552462749255405 165.0134845090983,-37.93004536470253 166,-37.40910138842236 C166.61348450909833,-37.08514189411795 167.18650173228343,-37.82002008850551 168,-37.974547225468804 C168.78650173228343,-38.12394626628985 169.19857458493624,-38.14909090012646 170,-38.16891683288321 C170.79857458493626,-38.188672240840845 171.2410972614458,-37.90917444598475 172,-38.07350057725477 C172.84109726144578,-38.25562438834881 173.16412808687977,-38.763098408251984 174,-39.03504168879334 C174.76412808687977,-39.28364377176581 175.26946348231724,-39.55983714520059 176,-39.37486398603932 C176.86946348231723,-39.15471426975996 177.1248908328658,-38.31815911589207 178,-38.022234500191765 C178.72489083286578,-37.77710732155305 179.2,-38.022234500191765 180,-38.022234500191765 C180.8,-38.022234500191765 181.2,-38.022234500191765 182,-38.022234500191765 C182.8,-38.022234500191765 183.2,-38.022234500191765 184,-38.022234500191765 C184.8,-38.022234500191765 185.2,-38.022234500191765 186,-38.022234500191765 C186.8,-38.022234500191765 187.2,-38.022234500191765 188,-38.022234500191765 C188.8,-38.022234500191765 189.2,-38.022234500191765 190,-38.022234500191765 C190.8,-38.022234500191765 191.2,-38.022234500191765 192,-38.022234500191765 C192.8,-38.022234500191765 193.2,-38.022234500191765 194,-38.022234500191765 C194.8,-38.022234500191765 195.2,-38.022234500191765 196,-38.022234500191765 C196.8,-38.022234500191765 197.2,-38.022234500191765 198,-38.022234500191765 Q198.8,-38.022234500191765 200,-38.022234500191765"
                  class="spline"
                  fill="none"/>
         </g>
      </g>
      <g id="gaussian">
         <g>
            <path d="M2,-51.121572836499816 Q3.114034007391223,-51.92752548026126 4,-52.61962606901444 C4.914034007391223,-53.333652882609336 5.113054631842326,-53.49879916117344 6,-54.246300397273316 C6.913054631842327,-55.01580604038473 7.110256459222237,-55.19428802975746 8,-55.99075246726175 C8.910256459222238,-56.80557928594857 9.105303373644073,-56.99495630459918 10,-57.82694763325355 C10.905303373644072,-58.66880232956687 11.098113298619351,-58.86486453641156 12,-59.710410300523286 C12.89811329861935,-60.55241838665815 13.089022208156054,-60.74915483067338 14,-61.57706730046818 C14.889022208156055,-62.38502615374283 15.079048872442435,-62.574869275370695 16,-63.34567990734428 C16.879048872442436,-64.0814195102698 17.070305199802263,-64.25566247354993 18,-64.92495671135508 C18.87030519980226,-65.55149593179132 19.066306774197013,-65.70044160276403 20,-66.22530981454737 C20.866306774197014,-66.71229726916613 21.070990331635212,-66.82476249670883 22,-67.1735248589153 C22.870990331635213,-67.5005060043912 23.08476824940061,-67.56459496629694 24,-67.72696205384153 C24.88476824940061,-67.88392475068092 25.098806459388175,-67.86050705598561 26,-67.88314660199082 C26.898806459388176,-67.90572618037227 27.132033120693528,-68.0098236038302 28,-67.827448996923 C28.93203312069353,-67.63161298282671 29.110925784241427,-67.4214926386071 30,-67.04267855531639 C30.910925784241428,-66.65455402106828 31.091300299124427,-66.51684120947833 32,-66.12314095794783 C32.891300299124424,-65.73697911414357 33.122235936905014,-65.72309025979426 34,-65.30965167679469 C34.92223593690501,-64.87526624798039 35.119839940739794,-64.75476868257338 36,-64.23908759836146 C36.9198399407398,-63.70015828323118 37.06711102615293,-63.47873332413539 38,-62.966073011589785 C38.867111026152934,-62.48956034808801 39.09814980450536,-62.4531943865735 40,-62.04092542936729 C40.898149804505366,-61.63034805724032 41.07378250763864,-61.47060209865148 42,-61.13752561307161 C42.87378250763864,-60.823305239125254 43.105988058869826,-60.863756463410645 44,-60.60248796375345 C44.90598805886983,-60.33771953062824 45.082761700111355,-60.177627068393896 46,-59.96855465133293 C46.88276170011135,-59.76734072213532 47.096706455646284,-59.783718773600306 48,-59.69074052762328 C48.89670645564629,-59.59844030703228 49.09949467659614,-59.56571075556253 50,-59.5568247256262 C50.899494676596134,-59.54794866857682 51.10525710619145,-59.55811383408618 52,-59.65126922321059 C52.90525710619145,-59.74551929054105 53.10663393755354,-59.79507240526419 54,-59.97328129552591 C54.90663393755354,-60.15413686490199 55.11104589628552,-60.19614797090408 56,-60.449190244627935 C56.91104589628552,-60.708520984088615 57.0822172348403,-60.886633048920835 58,-61.11188799149154 C58.8822172348403,-61.32841394960785 59.09532984805836,-61.328829865534416 60,-61.43092557948797 C60.89532984805836,-61.53196720207854 61.103242193218996,-61.59536402230001 62,-61.563304294922936 C62.903242193219,-61.5310127461334 63.115961010766526,-61.484215302302104 64,-61.28792274356216 C64.91596101076652,-61.08454219960529 65.17242900167685,-61.097520489489945 66,-60.675141844485566 C66.97242900167684,-60.178830053807225 67.17069525100204,-59.971373509997626 68,-59.246388442045 C68.97069525100204,-58.39779862827711 69.09966821784215,-58.10862353533436 70,-57.178308773995525 C70.89966821784215,-56.248679675087175 71.11743593792119,-56.05877304808687 72,-55.11317986371792 C72.91743593792118,-54.13022439649663 73.13862835498401,-53.924241294747624 74,-52.89264510379499 C74.938628354984,-51.768524706607245 75.05353864766903,-51.43962254349366 76,-50.32269855673929 C76.85353864766904,-49.31543313923911 77.02751018624424,-49.059307804748705 78,-48.172224205451535 C78.82751018624424,-47.41738780091005 79.06835428728469,-47.300984319206464 80,-46.67398743709783 C80.86835428728469,-46.089585637934995 81.04990959801482,-45.902536309386434 82,-45.48022713595939 C82.84990959801482,-45.10244769615515 83.08264526276258,-45.0616094860455 84,-44.896012741028315 C84.8826452627626,-44.73668159399735 85.12425454226482,-44.637203975700515 86,-44.75816515363018 C86.92425454226482,-44.88582658441662 87.12015272649724,-45.088436229792975 88,-45.4485074270641 C88.92015272649724,-45.82507334239976 89.08722924345189,-45.99858623811961 90,-46.395136514978596 C90.88722924345188,-46.78059036481355 91.11444241717875,-46.79733893003316 92,-47.18629437527285 C92.91444241717876,-47.587936644979 93.0949252665531,-47.728284907424154 94,-48.152020325969346 C94.8949252665531,-48.571003994804464 95.08273445110072,-48.69441737536074 96,-49.059003458340214 C96.88273445110072,-49.40986444535106 97.10542689335685,-49.41953366377723 98,-49.74190270372561 C98.90542689335685,-50.068183022446746 99.07803160617435,-50.23642959796505 100,-50.5004464776058 C100.87803160617435,-50.75188152292899 101.09394409911185,-50.75469673854029 102,-50.88735142586769 C102.89394409911185,-51.01823283709145 103.10498305757747,-50.9609535385859 104,-51.08608225216395 C104.90498305757747,-51.21260428815815 105.09280959672853,-51.36310815248741 106,-51.44657531380603 C106.89280959672853,-51.528719351450405 107.10142679630256,-51.41654041511769 108,-51.45410713874836 C108.90142679630256,-51.491793162759144 109.1007710791643,-51.53332387867647 110,-51.61380364189815 C110.9007710791643,-51.69442142618906 111.10017386968164,-51.8138390569678 112,-51.812101688776345 C112.90017386968165,-51.81036364917595 113.09843044327573,-51.62552213782367 114,-51.60608051347182 C114.89843044327573,-51.58670658158363 115.10134276699992,-51.654929039103806 116,-51.72584489713179 C116.90134276699992,-51.796972679062314 117.09903334702362,-51.910297761522735 118,-51.921733046712944 C118.89903334702362,-51.933143793919584 119.10876321449628,-51.90367840357599 120,-51.77661385801369 C120.90876321449628,-51.64705055143581 121.1166487706934,-51.601792164295155 122,-51.35144893084589 C122.9166487706934,-51.091669117811826 123.11422383204355,-50.99741979963715 124,-50.64300708805073 C124.91422383204355,-50.27721202713935 125.11901196719586,-50.19058338882439 126,-49.75098721418411 C126.91901196719587,-49.292417823698685 127.08961771119787,-49.12400969732084 128,-48.647083609993594 C128.88961771119787,-48.181035555854834 129.1132037031547,-48.12658575235368 130,-47.65548912203744 C130.91320370315472,-47.170363971110525 131.10696195518915,-47.0440657386455 132,-46.52214631834214 C132.90696195518913,-45.99208932845234 133.10563242415978,-45.86887771657373 134,-45.317763766052636 C134.90563242415976,-44.75970835742516 135.1024512573136,-44.62837559709138 136,-44.057325520234215 C136.9024512573136,-43.4831563020742 137.0946752383668,-43.34238920308233 138,-42.772831999347794 C138.89467523836677,-42.209974615335184 139.05443466221914,-42.00014312180369 140,-41.540848658573886 C140.85443466221915,-41.125819581397806 141.11484649280814,-41.186721921347264 142,-40.82989079844584 C142.91484649280815,-40.46108956944003 143.08046152652096,-40.28322326521367 144,-39.928332321002244 C144.88046152652097,-39.58852291497853 145.09561455894996,-39.56066123134301 146,-39.28611224236775 C146.89561455894994,-39.01422587565917 147.08922638512541,-38.924775417337216 148,-38.71403153059371 C148.88922638512543,-38.50827345686864 149.09356344345554,-38.46168763520444 150,-38.360552330215356 C150.89356344345552,-38.26085333779443 151.1067960709452,-38.20747064020039 152,-38.267733091904795 C152.9067960709452,-38.328912574723354 153.1056985245148,-38.44037280621609 154,-38.63042329582194 C154.9056985245148,-38.82289580396126 155.11556249134253,-38.84738905978388 156,-39.117784198005175 C156.9155624913425,-39.39769503848115 157.08773321861884,-39.56064280189285 158,-39.85332547070477 C158.88773321861882,-40.13813703341999 159.10866176831283,-40.126462595764956 160,-40.40110471250992 C160.90866176831284,-40.68108461529305 161.088801343404,-40.81552182997617 162,-41.08581884743388 C162.88880134340397,-41.349471949307365 163.08642606342977,-41.46073748062088 164,-41.5876605332459 C164.88642606342975,-41.71081192515105 165.10329250450778,-41.573682361616505 166,-41.64153983527871 C166.9032925045078,-41.709895623138216 167.096873112305,-41.81690860281201 168,-41.89035666996081 C168.89687311230497,-41.96329614001097 169.09988013651895,-41.96335280045745 170,-41.9668454734986 C170.89988013651893,-41.97033721634375 171.09980726479407,-41.91577273034395 172,-41.905877594152585 C172.89980726479408,-41.89598669514518 173.10034838201668,-41.93716907818933 174,-41.922876506390224 C174.9003483820167,-41.90857286525075 175.1000728584915,-41.88030289265215 176,-41.84233045428907 C176.9000728584915,-41.804351867395845 177.09957539630574,-41.7773661976509 178,-41.7540964502651 C178.89957539630575,-41.73084864901597 179.10004612614878,-41.73507597295502 180,-41.738958123989214 C180.9000461261488,-41.74284067297419 181.1000421934228,-41.75451852799237 182,-41.77135133919658 C182.90004219342282,-41.78818572877239 183.09990692383994,-41.80152208089553 184,-41.813774125722595 C184.89990692383995,-41.826023636648856 185.10015374366597,-41.83516436066778 186,-41.82579924087063 C186.90015374366595,-41.81643092090936 187.10100547025405,-41.81662213753736 188,-41.77214425959278 C188.90100547025406,-41.72756689009012 189.10225350151165,-41.71583144409607 190,-41.62789869098786 C190.90225350151167,-41.539524484546476 191.10345648376693,-41.51481002756785 192,-41.38035101614924 C192.90345648376694,-41.24485523321454 193.10423913268414,-41.207700506892955 194,-41.027999147980516 C194.90423913268415,-40.846596938022344 195.10445579850327,-40.79853715237841 196,-40.577898640881216 C196.90445579850328,-40.35506454652469 197.10417081917637,-40.29805667893868 198,-40.04250446830558 Q198.9041708191764,-39.78457264762295 200,-39.43682301573516"
                  class="spline"
                  fill="none"/>
         </g>
      </g>
      <g id="exponential">
         <g>
            <path d="M2,-37.157701705326296 Q2.615271148453858,-48.79767093732119 4,-52.70774940709704 C4.415271148453858,-53.88035643039658 5.337878341840874,-50.45281310260369 6,-48.45255835660494 C7.1378783418408736,-45.015053291501935 7.283684530624495,-39.86621109374692 8,-40.6238387157598 C9.083684530624494,-41.77002272134182 9.023914517106967,-47.27033755963294 10,-52.68325086237138 C10.823914517106966,-57.25229520134588 10.671241519012694,-60.46130325005329 12,-62.805966808455224 C12.471241519012693,-63.6374970170256 13.18808169673843,-59.55583060601078 14,-59.741459233420954 C14.98808169673843,-59.96736404231351 15.21403570101076,-63.9970116709478 16,-63.720485555794625 C17.014035701010762,-63.36371699342133 17.535288942347943,-57.05600471218692 18,-58.33413772780658 C19.335288942347944,-62.006692650923135 18.74843160024437,-67.41901950733347 20,-74.72201430854177 C20.54843160024437,-77.92215353080482 20.71699577740874,-80.12470799950452 22,-81.67443555774291 C22.51699577740874,-82.29890942122329 23.2064921287756,-79.35734817469832 24,-79.55357302347238 C25.0064921287756,-79.80246628959277 25.114912934688718,-82.6961488495179 26,-82.66358692417505 C26.91491293468872,-82.62992771951357 27.529273008069836,-81.03791284358579 28,-79.40641495679611 C29.329273008069837,-74.79927293857455 29.196018551855396,-73.58916507460411 30,-68.79994269081674 C30.996018551855396,-62.86677799625603 30.447387272080157,-60.995725292188666 32,-55.578888116022604 C32.247387272080154,-54.715790352996095 33.46538606840226,-55.5614021899362 34,-54.84453171483325 C35.26538606840226,-53.14775978572699 35.54411708731301,-49.06369708006014 36,-50.21523832889102 C37.344117087313016,-53.61042210574406 36.41829007631642,-58.94105585975737 38,-64.94836510524196 C38.218290076316414,-65.77742735870449 39.61660958347085,-64.66223470262086 40,-65.40717499321795 C41.416609583470844,-68.15969438148792 40.8555151126225,-71.73088891645715 42,-72.72049772494655 C42.6555151126225,-73.28730602159047 43.56492461970045,-70.75091408563819 44,-68.86587967129199 C45.364924619700446,-62.95212311868672 44.90058630882858,-61.41573345228976 46,-55.38985113172108 C46.700586308828576,-51.54994019891794 47.2841364227188,-46.12819897547268 48,-46.941894663799054 C49.0841364227188,-48.17419249360937 48.64966324376095,-56.86450346257471 50,-59.93650339424706 C50.449663243760945,-60.95948188292907 51.407838907488426,-57.90686155555375 52,-56.04184670903096 C53.20783890748842,-52.23775096015373 52.6853980112858,-49.33727188457265 54,-47.33847984891368 C54.485398011285795,-46.600454433303504 55.551960271744164,-48.57466571506986 56,-49.96003015065508 C57.35196027174416,-54.140368546291725 56.735464918805775,-55.453151469200215 58,-59.706708362740045 C58.53546491880577,-61.507868750069164 58.82369698481625,-62.61711048257222 60,-63.41495744147496 C60.623696984816256,-63.83799022825629 61.69320536336281,-61.67640895893487 62,-62.41977446426018 C63.493205363362804,-66.03782128430059 62.87604374829905,-68.35442477644173 64,-73.10698483117658 C64.67604374829905,-75.96558231533749 64.62885380358725,-77.0521134861768 66,-79.33345788402852 C66.42885380358724,-80.04699464974381 67.44106198788394,-80.27214276726596 68,-79.76227630576997 C69.24106198788394,-78.63017243996924 69.30165524516623,-77.59766167016029 70,-75.68463493448026 C71.10165524516623,-72.66679034852528 71.5352938717234,-71.98447991745546 72,-68.80478447991439 C73.3352938717234,-59.66819777846197 72.69813645215477,-57.46358508603695 74,-48.31511907005029 C74.49813645215477,-44.814610578661245 75.11430569971611,-44.128269831556544 76,-40.69595224130171 C76.91430569971611,-37.15275733195204 77.04036482750047,-36.344581657914496 78,-32.81398018204027 C78.84036482750047,-29.722187191045702 78.59474987750936,-28.366688469639055 80,-25.97952009270439 C80.39474987750935,-25.308938813751 81.10882787259922,-26.099774334178562 82,-26.018980946733482 C82.90882787259923,-25.93658689492897 83.66427276236384,-24.92295445753971 84,-25.6168813388164 C85.46427276236383,-28.643440156265367 85.47755455982143,-30.32460491707687 86,-34.286726943901606 C87.27755455982143,-43.97544594240354 86.40958017752865,-46.52100468556644 88,-55.952083617320106 C88.20958017752866,-57.19487949352614 89.59186856037391,-58.77340879992788 90,-58.0064487393676 C91.39186856037391,-55.39085118497597 90.82214154823555,-52.65580452329752 92,-48.43528891742697 C92.62214154823555,-46.20602434878958 93.55878705053817,-42.45834234161112 94,-43.67360390712775 C95.35878705053817,-47.41619958627739 94.44343648261182,-52.73687100912373 96,-59.4527494611298 C96.24343648261183,-60.50306948324372 97.35596990182934,-61.33639284732799 98,-60.9318227385055 C99.15596990182934,-60.205659675153306 98.8558061893062,-58.538532560319176 100,-56.94000907851938 C100.6558061893062,-56.023799269204005 101.23467598698275,-56.18911719433804 102,-55.34352653602734 C103.03467598698275,-54.20033445778362 103.60883396530656,-53.99929785093477 104,-52.520491886176224 C105.40883396530656,-47.19438510166835 104.52202286850661,-44.087528263715384 106,-40.2214982043242 C106.32202286850661,-39.37916440704821 106.97867883757044,-41.72488350019302 108,-42.057461093582496 C108.77867883757044,-42.311025930334175 109.7904066574225,-40.73568587684945 110,-41.524036937971196 C111.59040665742249,-47.50609133232995 110.47365594892226,-50.401705633461376 112,-57.10280655020582 C112.27365594892227,-58.30423694127703 113.70106177112577,-59.98319301334306 114,-59.085217622005985 C115.50106177112576,-54.576204049456734 114.85063337357938,-46.88241507753807 116,-45.08727551934732 C116.6506333735794,-44.07108305304194 116.98257308525984,-49.38532956633705 118,-52.8378131231257 C118.78257308525984,-55.49335591416244 118.80389422895368,-56.20792087959202 120,-58.66066740340376 C120.60389422895368,-59.89901898289691 120.90594536080744,-60.34791993829817 122,-61.04025335269214 C122.70594536080745,-61.48698566798501 123.63352614904898,-61.87310288396615 124,-61.19192458048563 C125.43352614904897,-58.5273772801255 124.99654817355285,-56.988150229308644 126,-53.60530756637958 C126.79654817355285,-50.919979707529215 126.73171503614603,-49.04502708941839 128,-47.70710119875356 C128.53171503614604,-47.1461899417488 129.72871209388384,-50.2604501437048 130,-49.38566946044717 C131.52871209388383,-44.45626501652312 130.50887565314537,-39.3855496154698 132,-34.80891202723871 C132.30887565314538,-33.860894561588424 133.23674567518714,-35.97819809786315 134,-37.108658229599676 C135.03674567518712,-38.64418788786483 134.78827463999738,-39.57516125162608 136,-40.73333378279801 C136.5882746399974,-41.29560932090226 137.77331173052315,-40.13826960158352 138,-40.93187616132453 C139.57331173052313,-46.43983876010444 138.53063608506878,-50.55434340988039 140,-54.7368208017334 C140.3306360850688,-55.6779613433505 141.69275818793218,-53.664764857637785 142,-52.31769379125812 C143.49275818793217,-45.77284447361093 142.47184838214403,-42.274774928350354 144,-37.19921994834039 C144.27184838214401,-36.29631123583017 145.6596013613012,-39.85143260754153 146,-39.03221891899105 C147.4596013613012,-35.51949801159949 146.6447876962772,-32.55706151515873 148,-27.57269862402475 C148.4447876962772,-25.936804910791107 149.31006670358465,-23.879673512248353 150,-24.320537575951885 C151.11006670358464,-25.029864869571423 151.4312273223571,-27.43350134154007 152,-30.12867941807601 C153.23122732235709,-35.96295560061145 152.96124279351648,-42.33773186966045 154,-43.274880373888294 C154.7612427935165,-43.96166024972978 154.653357736798,-36.07278744752628 156,-33.737409151563405 C156.453357736798,-32.95118563269993 157.01030230092908,-36.13816760550415 158,-36.33798745205196 C158.81030230092907,-36.501587389266106 159.70188682182854,-33.6811827565258 160,-34.5450086710344 C161.50188682182855,-38.89694227327274 160.6685858882334,-42.0351073428082 162,-47.92856415593407 C162.46858588823338,-50.00274278385875 163.19517186933712,-50.26671498747776 164,-52.25086520670228 C164.99517186933713,-54.70427160178566 165.1945256617652,-58.08213534440541 166,-57.789801076618296 C166.9945256617652,-57.42885359843449 166.9543647260146,-53.89424721930003 168,-50.79912799343358 C168.75436472601461,-48.56618040177085 169.51711441468973,-48.245428408819386 170,-45.94965259322012 C171.31711441468974,-39.68771495911369 170.64102411312774,-38.01908858483698 172,-31.781986994087596 C172.44102411312775,-29.757880294241115 172.84613216022552,-28.32094795745651 174,-27.59141194745154 C174.64613216022553,-27.182893170986677 175.73344718953484,-28.15440331196217 176,-29.25297635748796 C177.53344718953483,-35.57293879277588 176.72493805364547,-37.49499678067948 178,-44.07704634925978 C178.52493805364549,-46.78685060575655 179.2181122602862,-50.28094117425444 180,-49.90154041321478 C181.0181122602862,-49.40751480473322 180.64618237308682,-45.34904151189537 182,-42.13609886143484 C182.4461823730868,-41.07719820312171 183.58892034122357,-39.691748964673735 184,-40.40855528260664 C185.38892034122358,-42.83043837616073 185.05889305045392,-48.92217370867234 186,-49.110964220294825 C186.85889305045393,-49.283262234354126 186.56698600693338,-44.2547553329402 188,-41.21097422856617 C188.3669860069334,-40.43148074219546 189.68906223257127,-39.89995103240456 190,-40.6147984630843 C191.48906223257129,-44.03815973527134 191.16985592930254,-50.762218316357995 192,-50.40699356827013 C192.96985592930253,-49.99198508922557 192.73239802215912,-41.12972694249417 194,-38.903169069456695 C194.53239802215913,-37.96800564390958 195.26129326569878,-43.80166195914427 196,-43.38094623808213 C197.06129326569877,-42.77650777718302 197.18213684908318,-39.687336964164324 198,-36.625048665098376 Q198.9821368490832,-32.947677728826875 200,-28.403925715110027"
                  class="spline"
                  fill="none"/>
         </g>
      </g>
      <text x="100" y="8" text-anchor="middle" font-size="5">Fake independent
                    variable</text>
      <text x="-10"
            y="-50"
            text-anchor="middle"
            font-size="5"
            writing-mode="tb">Fake
                    dependent variable</text>
      <text x="100" y="-106" text-anchor="middle" font-size="8">Smoothing examples (window                     = 25)</text>
   </g>
   <g transform="translate(50, 15)">
      <rect x="0"
            y="0"
            width="100"
            height="51"
            fill="ghostwhite"
            stroke="black"
            stroke-width="0.5"/>
      <rect x="2" y="2" width="5" height="5" fill="black"/>
      <rect x="2" y="9" width="5" height="5" fill="red"/>
      <rect x="2" y="16" width="5" height="5" fill="gray"/>
      <rect x="2" y="23" width="5" height="5" fill="blue"/>
      <rect x="2" y="30" width="5" height="5" fill="green"/>
      <rect x="2" y="37" width="5" height="5" fill="indigo"/>
      <rect x="2" y="44" width="5" height="5" fill="darkgoldenrod"/>
      <text x="10" y="6" fill="black" font-size="5">
         <tspan>Actual data (101 points)</tspan>
         <tspan x="10" dy="7" fill="red">Regression line (62.1–35.2)</tspan>
         <tspan x="10" dy="7" fill="gray">Y intercept of regression line (62.1)</tspan>
         <tspan x="10" dy="7" fill="blue">Rectangular kernel</tspan>
         <tspan x="10" dy="7" fill="green">Gaussian kernel (σ = 5)</tspan>
         <tspan x="10" dy="7" fill="indigo">Exponential kernel (y = 1 - 2<tspan dy="-2" font-size="4">-d</tspan>
            <tspan dy="2">)</tspan>
         </tspan>
         <tspan x="10" dy="7" fill="darkgoldenrod">Parabolic kernel (y = 1 - (d/N)<tspan dy="-2" font-size="4">2</tspan>
            <tspan dy="2" dx="-1">)</tspan>
         </tspan>
      </text>
   </g>
</svg>
