<?xml version="1.0" encoding="UTF-8"?>
<svg xmlns="http://www.w3.org/2000/svg" viewBox="-20 -115 234 195">
   <script type="text/javascript">
                window.addEventListener('DOMContentLoaded', init, false);
                function init() {
                    var rects = document.getElementsByClassName('toggle');
                    for (var i = 0; i &lt; rects.length; i++) {
                        rects[i].addEventListener('mouseover', emphasize, false);
                        rects[i].addEventListener('mouseout', deemphasize, false);
                    }
                }
                function emphasize() {
                    var target = this.id.substring(0, this.id.indexOf('-'));
                    document.getElementById(target).classList.add('highlight');
                }
                function deemphasize() {
                    var target = this.id.substring(0, this.id.indexOf('-'));
                    document.getElementById(target).classList.remove('highlight');
                }//</script>
   <style type="text/css">
                .spline {
                    stroke-width: 0.5;
                    stroke-opacity: 0.5;
                    fill: none;
                }
                .highlight .spline {
                    stroke-width: 1.5;
                    stroke-opacity: 0.75;
                }
                #rectangular {
                    stroke: blue;
                }
                #gaussian {
                    stroke: green;
                }
                #exponential {
                    stroke: indigo;
                }
                #parabolic {
                    stroke: darkgoldenrod;
                }
                #regression {
                    stroke: red;
                    stroke-width: 0.5;
                    stroke-opacity: 0.5;
                }
                #regression.highlight {
                    stroke-width: 1.5;
                    stroke-opacity: 0.75;
                }
                #data.highlight &gt; polyline {
                    stroke-width: 1.5;
                }</style>
   <g>
      <rect x="0"
            y="-100"
            width="200"
            height="100"
            stroke="lightgray"
            stroke-width="0.5"
            fill="none"/>
      <text x="-1"
            y="0"
            fill="lightgray"
            font-size="3"
            text-anchor="end"
            alignment-baseline="central">0.0</text>
      <text x="-1"
            y="-100"
            fill="lightgray"
            font-size="3"
            text-anchor="end"
            alignment-baseline="central">100.0</text>
      <text x="-1"
            y="-53.760007892915326"
            fill="lightgray"
            font-size="3"
            text-anchor="end"
            alignment-baseline="central">53.8</text>
      <text x="208"
            y="-100"
            font-size="3"
            fill="lightgray"
            text-anchor="end"
            alignment-baseline="central">100.0</text>
      <text x="208"
            y="0"
            font-size="3"
            fill="lightgray"
            text-anchor="end"
            alignment-baseline="central">0.0</text>
      <text x="208"
            y="-55.64937927987682"
            fill="red"
            fill-opacity="0.5"
            font-size="3"
            text-anchor="end"
            alignment-baseline="central">55.6</text>
      <line x1="0"
            y1="-53.760007892915326"
            x2="200"
            y2="-53.760007892915326"
            stroke="lightgray"
            stroke-width="0.5"/>
      <polyline points="0,-49.99991159163257 0.4000000000000057,-54.99162248393219 0.7999999999999972,-59.933457851036025 1.2000000000000028,-64.7760405075099 1.5999999999999943,-69.470984968195 2,-73.97138089998278 2.4000000000000057,-78.23226183435574 2.799999999999997,-82.21105445747753 3.200000000000003,-85.8680039886721 3.5999999999999943,-89.16657139705036 4,-92.07379848742939 4.400000000000006,-94.56063720772356 4.799999999999997,-96.60223988747914 5.200000000000003,-98.17820750758436 5.599999999999994,-99.2727935205246 6,-99.87506118468069 6.400000000000006,-99.97899284063554 6.799999999999997,-99.58355003763812 7.200000000000003,-98.69268390945993 7.599999999999994,-97.31529569597262 8,-95.46514780490124 8.400000000000006,-93.16072630239583 8.799999999999997,-90.42505620636905 9.200000000000003,-87.2854714281279 9.599999999999994,-83.77334166096806 10,-79.92375894456698 10.400000000000006,-75.7751870369242 10.799999999999997,-71.36907709720549 11.200000000000003,-66.74945351946192 11.599999999999994,-61.96247405543809 12,-57.05596862157316 12.400000000000006,-52.07896139828741 12.799999999999997,-47.08118099657623 13.200000000000003,-42.11256358616663 13.599999999999994,-37.22275394981719 14,-32.46060944905783 14.400000000000006,-27.87371185758461 14.799999999999997,-23.507891939904937 15.200000000000003,-19.406771525487766 15.599999999999994,-15.611327653864063 16,-12.15948314559189 16.400000000000006,-9.085727689969945 16.799999999999997,-6.420773235462435 17.200000000000003,-4.191247126061786 17.599999999999994,-2.419426049669928 18,-1.123013456795881 18.400000000000006,-0.31496267353066965 18.799999999999997,-0.003347476194619978 19.200000000000003,-0.1912814208331931 19.599999999999994,-0.8768867335942497 20,-2.053313072823724 20.400000000000006,-3.708805975414855 20.799999999999997,-5.826824303518074 21.200000000000003,-8.386205518122889 21.599999999999994,-11.361377128151748 22,-14.722612202338423 22.400000000000006,-18.436326390898145 22.799999999999997,-22.465413489249364 23.200000000000003,-26.769616190944774 23.599999999999994,-31.30592832536897 24,-36.02902456118055 24.400000000000006,-40.89171328203914 24.799999999999997,-45.84540810963695 25.200000000000003,-50.840613362730764 25.599999999999994,-55.827418601626654 26,-60.75599731679657 26.400000000000006,-65.57710477888986 26.799999999999997,-70.24257007579139 27.200000000000003,-74.70577742045263 27.599999999999994,-78.9221319204256 28,-82.84950515528837 28.400000000000006,-86.44865610989503 28.799999999999997,-89.68362325762817 29.200000000000003,-92.52208387608582 29.599999999999994,-94.93567700503849 30,-96.9002868197697 30.400000000000006,-98.39628358842417 30.799999999999997,-99.40871980580032 31.200000000000003,-99.92747954388108 31.599999999999994,-99.94737952684268 32,-99.46822092063346 32.400000000000006,-98.49479131965784 32.8,-97.03681691071581 33.2,-95.10886529215915 33.599999999999994,-92.73019991926452 34,-89.9245876301555 34.400000000000006,-86.72006117541281 34.8,-83.14863912409677 35.2,-79.2460059447887 35.599999999999994,-75.05115545817752 36,-70.60600122369193 36.4,-65.9549577530705 36.8,-61.144496735241056 37.2,-56.222682706566644 37.6,-51.238692805886544 38,-46.242325412800255 38.4,-41.28350257871999 38.8,-36.41177122223502 39.2,-31.675808072678944 39.6,-27.12293330834103 40,-22.798637748886158 40.4,-18.746128326122324 40.8,-15.00589637462028 41.2,-11.615313055683057 41.6,-8.608255957055775 42,-6.0147705992669325 42.4,-3.8607702307192673 42.8,-2.167776911077452 43.2,-0.9527064699621499 43.6,-0.2276994895721372 44,-0 44.4,-0.27188309927810167 44.8,-1.0406322213510508 45.2,-2.2985662791058075 45.6,-4.033116411254947 46,-6.226951566244104 46.4,-8.858151668390104 46.8,-11.90042663603143 47.2,-15.32337906333387 47.6,-19.09280794112134 48,-23.171050382054567 48.4,-27.517357935751466 48.8,-32.08830373383376 49.2,-36.8382163968409 49.6,-41.71963636755632 50,-46.68379011121562 50.4,-51.68107744454323 50.8,-56.6615671243881 51.2,-61.57549574420031 51.6,-66.37376495353936 52,-71.00843203256257 52.4,-75.43318891983355 52.8,-79.60382490716492 53.2,-83.47866837840023 53.6,-87.01900317842772 54,-90.18945545220474 54.4,-92.95834708862382 54.8,-95.29801223772782 55.2,-97.18507373873733 55.6,-98.60067669691385 56,-99.53067687543542 56.4,-99.96578201993542 56.8,-99.90164470363668 57.2,-99.33890576540261 57.6,-98.28318790668736 58,-96.74503951136127 58.4,-94.73982924974618 58.8,-92.2875925199417 59.2,-89.41283126075038 59.6,-86.14426913640438 60,-82.51456453920714 60.4,-78.55998427767301 60.8,-74.32004121056485 61.2,-69.83709944747025 61.6,-65.15595106062268 62,-60.32336853732155 62.4,-55.38763744470025 62.8,-50.39807397630048 63.2,-45.404532200968006 63.6,-40.45690593747668 64,-35.6046302319834 64.4,-30.89618741938829 64.8,-26.378622703870775 65.2,-22.097074098759627 65.6,-18.094321422425633 66,-14.410358856476297 66.4,-11.08199533711463 66.8,-8.142486772415483 67.2,-5.621203760284772 67.6,-3.543338127154541 68,-1.9296512195798132 68.4,-0.7962664637271795 68.8,-0.15450826542995513 69.2,-0.010788860468418213 69.6,-0.3665442456296336 70,-1.2182198307021967 70.4,-2.5573059547665773 70.8,-4.370422911914063 71.2,-6.6394546368457625 71.6,-9.341729714608148 72,-12.450247905877799 72.4,-15.933949924426967 72.8,-19.75802777124493 73.2,-23.884272524558643 73.6,-28.27145611074787 74,-32.87574324162981 74.4,-37.651129402167506 74.8,-42.549900512377484 75.2,-47.523109670645304 75.6,-52.52106621498559 76,-57.493832215712416 76.4,-62.391721438724254 76.8,-67.16579579393152 77.2,-71.76835430847649 77.6,-76.15340973908505 78,-80.27714806140153 78.4,-84.09836624523578 78.8,-87.57888394162165 79.2,-90.68392496824326 79.6,-93.3824647815525 80,-95.64754046375364 80.4,-97.45652012736448 80.8,-98.79132904555539 81.2,-99.63863024884506 81.6,-99.98995778369067 82,-99.84180130149753 82.4,-99.19564113286167 82.8,-98.05793349659598 83.2,-96.44004599132582 83.6,-94.35814401420146 84,-91.83302924159287 84.4,-88.88993178561607 84.8,-85.55825810319261 85.2,-81.87129717645216 85.6,-77.86588790022769 86,-73.58205099999469 86.4,-69.06258915801222 86.8,-64.35265934307009 87.2,-59.49932161698304 87.6,-54.551068926010345 88,-49.55734257536495 88.4,-44.568038228036244 88.8,-39.63300736381816 89.2,-34.801559179801295 89.6,-30.121967909176252 90,-25.640990481051578 90.4,-21.403399340675048 90.8,-17.45153509796005 91.2,-13.824883474106876 91.6,-10.559680773329678 92,-7.688551821681882 92.4,-5.2401839905794265 92.8,-3.2390405620679426 93.2,-1.7051162997949072 93.6,-0.6537376679411158 94,-0.09540969425641115 94.4,-0.03571100729519992 94.8,-0.4752380966038116 95.2,-1.4095993527942499 95.6,-2.829458947053358 96,-4.720630111658588 96.4,-7.064216889471219 96.8,-9.83680293609405 97.2,-13.010685488244503 97.6,-16.554152160607362 98,-20.431797805506974 98.4,-24.60487826943862 98.8,-29.03169751184352 99.2,-33.668024218163794 99.6,-38.467533744515386 100,-43.38227097821826 100.4,-48.36312948942921 100.8,-53.36034218635699 101.2,-58.323978571593116 101.6,-63.20444363113601 102,-67.95297337137833 102.4,-72.52212205281067 102.8,-76.8662362521677 103.2,-80.94191101634301 103.6,-84.70842355033163 104,-88.12814010593775 104.4,-91.16689200574557 104.8,-93.79431704524997 105.2,-95.98416286196769 105.6,-97.71454924036465 106,-98.96818673173777 106.4,-99.73254940467064 106.8,-99.99999999999999 107.2,-99.76786623978475 107.6,-99.03846752782377 108,-97.81909177493976 108.4,-96.12192258058352 108.8,-93.96391749833559 109.2,-91.36663860163601 109.6,-88.35603704267452 110,-84.96219375705549 110.4,-81.21901890503348 110.8,-77.16391305240097 111.2,-72.83739347639737 111.6,-68.2826893304692 112,-63.54530971285724 112.4,-58.67258895473132 112.8,-53.71321367119946 113.2,-48.71673630074289 113.6,-43.73307999363169 114,-38.81203979630844 114.4,-34.002785115745326 114.8,-29.353368434982503 115.2,-24.91024518860097 115.6,-20.717809595377624 116,-16.817951085924694 116.4,-13.249635757346962 116.8,-10.048517036879456 117.2,-7.246579444627692 117.6,-4.871819014816227 118,-2.9479635686681345 118.4,-1.4942356338593685 118.8,-0.5251603793759801 119.2,-0.0504204848270241 119.6,-0.0747593943107212 120,-0.5979339214888733 120.4,-1.6147166794244434 120.8,-3.114948310903767 121.2,-5.08363899737585 121.6,-7.5011182322639485 122,-10.34323136216562 122.4,-13.581580932164503 122.8,-17.18381042381308 123.2,-21.113927550769812 123.6,-25.332663881825873 124,-29.79786719809046 124.4,-34.46492266402731 124.8,-39.28719860414402 125.2,-44.21651243127977 125.6,-49.20361207108801 126,-54.198668072484075 126.4,-59.15177148704784 126.8,-64.01343254273911 127.2,-68.73507512934124 127.6,-73.26952215489612 128,-77.5714669236136 128.4,-81.5979258253984 128.8,-85.30866781387422 129.2,-88.6666163817002 129.6,-91.63822001677734 130,-94.19378743786524 130.4,-96.30778426005068 130.8,-97.95908812588081 131.2,-99.13119975297667 131.6,-99.8124077894091 132,-99.9959058296554 132.4,-99.67986042195379 132.8,-98.86742938754733 133.2,-97.56673026877792 133.6,-95.79075922128615 134,-93.55726116072066 134.4,-90.8885524614063 134.8,-87.81129797850885 135.2,-84.35624462161657 135.6,-80.5579141417822 136,-76.45425820159944 136.4,-72.08627917473422 136.8,-67.49762046376111 137.2,-62.73413042971158 137.6,-57.84340429040473 138,-52.87430856476572 138.4,-47.87649281472048 138.8,-42.899893563185216 139.2,-37.994235344836625 139.6,-33.20853387499673 140,-28.59060630080995 140.4,-24.186593428113653 140.8,-20.04049869775871 141.2,-16.193748517774395 141.6,-12.684778344392015 142,-9.548648647672962 142.4,-6.816694598880209 142.8,-4.5162129798053465 143.2,-2.6701894423481685 143.6,-1.297068843480433 144,-0.4105709503328467 144.4,-0.019553356816507182 144.8,-0.12792298147258685 145.2,-0.7345970308336968 145.6,-1.8335138183384954 146,-3.4136933306998007 146.4,-5.459346936567991 146.8,-7.950035141316411 147.2,-10.860871811715057 147.6,-14.162772829948395 148,-17.822746692505397 148.4,-21.804224150377912 148.8,-26.067423596908338 149.2,-30.569748552453 149.6,-35.266213274327484 150,-40.109892239475336 150.4,-45.05238900878421 150.8,-50.04431978830738 151.2,-55.0358068558084 151.6,-59.9769769224758 152,-64.81845945033673 152.4,-69.51187994635416 152.8,-74.01034330437041 153.2,-78.26890236550618 153.6,-82.2450070153157 154,-85.89892933046319 154.4,-89.19416052700181 154.8,-92.09777574407441 155.2,-94.58076301823938 155.6,-96.61831316142009 156,-98.19006764611022 156.4,-99.28032202105172 156.8,-99.8781828249203 157.2,-99.9776764301903 157.6,-99.57780872964604 158,-98.68257506917266 158.4,-97.3009203275807 158.8,-95.44664954233382 159.2,-93.13828997417794 159.6,-90.39890598887553 160,-87.25586860568795 160.4,-83.74058201519793 160.8,-79.88816979901846 161.2,-75.7371239865757 161.6,-71.32892045547369 162,-66.7076045182371 162.4,-61.9193508361069 162.8,-57.01200205708867 163.2,-52.03459078802891 163.6,-47.036849677013905 164,-42.06871450119174 164.4,-37.17982522499205 164.8,-32.41903001401073 165.2,-27.83389716028651 165.6,-23.47023979564978 166,-19.371658142054955 166.4,-15.579103872573793 166.8,-12.13047093581519 167.2,-9.06021693211695 167.6,-6.399018824592546 168,-4.173466425057468 168.4,-2.405796717418048 168.8,-1.1136716730791034 169.2,-0.3100017783639643 169.6,-0.002817037202549067 170,-0.19518673798684763 170.4,-0.8851887862555952 170.8,-2.0659289096268423 171.2,-3.725609543088518 171.6,-5.847647706368787 172,-8.41084069559261 172.4,-11.389577933690616 172.8,-14.75409686281934 173.2,-18.470780322000753 173.6,-22.502492438683447 174,-26.808949678104113 174.4,-31.34712334305197 174.8,-36.07166950238761 175.2,-40.935382052613924 175.6,-45.889664385659366 176,-50.88501495011981 176.4,-55.87152185439852 176.8,-60.79936156982797 177.2,-65.6192967508985 177.6,-70.28316819854027 178,-74.74437605091903 178.4,-78.95834539385307 178.8,-82.88297163862084 179.2,-86.47904121709333 179.6,-89.71062339074554 180,-92.5454292587171 180.4,-94.95513437783747 180.8,-96.915661771099 181.2,-98.40742249685235 181.6,-99.4155113750365 182,-99.92985591481045 182.4,-99.94531695555239 182.8,-99.46174001565406 183.2,-98.48395683604964 183.6,-97.02173710305753 184,-95.08969083290422 184.4,-92.70712239327149 184.8,-89.89783762043577 185.2,-86.68990595922135 185.6,-83.11538000238545 186,-79.20997523170776 186.4,-75.01271316070174 186.8,-70.5655314445505 187.2,-65.91286485291933 187.6,-61.10120129242405 188,-56.17861731483694 188.4,-51.194297752072146 188.8,-46.19804427760381 189.2,-41.23977780460736 189.6,-36.36903969269527 190,-31.634496747030173 190.4,-27.083454955693337 190.8,-22.76138682388939 191.2,-18.71147702770582 191.6,-14.974190927103326 192,-11.586870249416895 192.4,-8.583359983158624 192.8,-5.993670210080465 193.2,-3.8436762543575274 193.6,-2.154860144901584 194,-0.9440959740300957 194.4,-0.22348129711299344 194.8,-0.0002162577984843781 195.2,-0.27653164655775725 195.6,-1.049666611364088 196,-2.311896243213573 196.4,-4.050608760862416 196.8,-6.248431523576214 197.2,-8.88340461281334 197.6,-11.92920024847281 198,-15.355385847369128 198.4,-19.127728095544498 198.8,-23.2085349962257 199.2,-27.557032475796248 199.6,-32.129771784863024 200,-36.881063623796194"
                stroke="lightgray"
                stroke-width="0.5"
                fill="none"/>
      <circle cx="0" cy="-39.0915935648554" r="0.65" fill="black"/>
      <circle cx="4" cy="-28.81036812159911" r="0.65" fill="black"/>
      <circle cx="8" cy="-64.32060567229696" r="0.65" fill="black"/>
      <circle cx="12" cy="-94.46979784293812" r="0.65" fill="black"/>
      <circle cx="16" cy="-18.01521201801134" r="0.65" fill="black"/>
      <circle cx="20" cy="-2.915026453272909" r="0.65" fill="black"/>
      <circle cx="24" cy="-86.0911283628085" r="0.65" fill="black"/>
      <circle cx="28" cy="-98.9695193371897" r="0.65" fill="black"/>
      <circle cx="32" cy="-43.511062045325545" r="0.65" fill="black"/>
      <circle cx="36" cy="-64.16403019382456" r="0.65" fill="black"/>
      <circle cx="40" cy="-54.468406817805906" r="0.65" fill="black"/>
      <circle cx="44" cy="-45.09304297166098" r="0.65" fill="black"/>
      <circle cx="48" cy="-53.99977128376882" r="0.65" fill="black"/>
      <circle cx="52" cy="-59.87047596676256" r="0.65" fill="black"/>
      <circle cx="56" cy="-96.41439845933623" r="0.65" fill="black"/>
      <circle cx="60" cy="-80.38010178909671" r="0.65" fill="black"/>
      <circle cx="64" cy="-35.56666465907327" r="0.65" fill="black"/>
      <circle cx="68" cy="-9.573545949562797" r="0.65" fill="black"/>
      <circle cx="72" cy="-51.3891129147977" r="0.65" fill="black"/>
      <circle cx="76" cy="-68.60741259305678" r="0.65" fill="black"/>
      <circle cx="80" cy="-93.11662344172343" r="0.65" fill="black"/>
      <circle cx="84" cy="-94.47261583268255" r="0.65" fill="black"/>
      <circle cx="88" cy="-63.26415629545515" r="0.65" fill="black"/>
      <circle cx="92" cy="-32.87342700832838" r="0.65" fill="black"/>
      <circle cx="96" cy="-28.636166612341373" r="0.65" fill="black"/>
      <circle cx="100" cy="-17.099250719174304" r="0.65" fill="black"/>
      <circle cx="104" cy="-58.75744445589059" r="0.65" fill="black"/>
      <circle cx="108" cy="-91.86920118828922" r="0.65" fill="black"/>
      <circle cx="112" cy="-77.11165189106056" r="0.65" fill="black"/>
      <circle cx="116" cy="-56.52270936374719" r="0.65" fill="black"/>
      <circle cx="120" cy="-0" r="0.65" fill="black"/>
      <circle cx="124" cy="-24.38384801711569" r="0.65" fill="black"/>
      <circle cx="128" cy="-40.220885762513426" r="0.65" fill="black"/>
      <circle cx="132" cy="-31.608444926096055" r="0.65" fill="black"/>
      <circle cx="136" cy="-29.539162617080017" r="0.65" fill="black"/>
      <circle cx="140" cy="-50.37484717792983" r="0.65" fill="black"/>
      <circle cx="144" cy="-51.314590312656335" r="0.65" fill="black"/>
      <circle cx="148" cy="-46.014803458235185" r="0.65" fill="black"/>
      <circle cx="152" cy="-52.78883682361537" r="0.65" fill="black"/>
      <circle cx="156" cy="-79.28617374457664" r="0.65" fill="black"/>
      <circle cx="160" cy="-99.99999999999999" r="0.65" fill="black"/>
      <circle cx="164" cy="-26.452144347285973" r="0.65" fill="black"/>
      <circle cx="168" cy="-81.76727204424125" r="0.65" fill="black"/>
      <circle cx="172" cy="-24.04460207796514" r="0.65" fill="black"/>
      <circle cx="176" cy="-74.10081469963994" r="0.65" fill="black"/>
      <circle cx="180" cy="-78.42662916952217" r="0.65" fill="black"/>
      <circle cx="184" cy="-96.21128390818448" r="0.65" fill="black"/>
      <circle cx="188" cy="-74.66449022800204" r="0.65" fill="black"/>
      <circle cx="192" cy="-63.61248729141552" r="0.65" fill="black"/>
      <circle cx="196" cy="-10.947901764759436" r="0.65" fill="black"/>
      <circle cx="200" cy="-44.73563070962781" r="0.65" fill="black"/>
      <g id="data">
         <polyline points="0,-39.0915935648554 4,-28.81036812159911 8,-64.32060567229696 12,-94.46979784293812 16,-18.01521201801134 20,-2.915026453272909 24,-86.0911283628085 28,-98.9695193371897 32,-43.511062045325545 36,-64.16403019382456 40,-54.468406817805906 44,-45.09304297166098 48,-53.99977128376882 52,-59.87047596676256 56,-96.41439845933623 60,-80.38010178909671 64,-35.56666465907327 68,-9.573545949562797 72,-51.3891129147977 76,-68.60741259305678 80,-93.11662344172343 84,-94.47261583268255 88,-63.26415629545515 92,-32.87342700832838 96,-28.636166612341373 100,-17.099250719174304 104,-58.75744445589059 108,-91.86920118828922 112,-77.11165189106056 116,-56.52270936374719 120,-0 124,-24.38384801711569 128,-40.220885762513426 132,-31.608444926096055 136,-29.539162617080017 140,-50.37484717792983 144,-51.314590312656335 148,-46.014803458235185 152,-52.78883682361537 156,-79.28617374457664 160,-99.99999999999999 164,-26.452144347285973 168,-81.76727204424125 172,-24.04460207796514 176,-74.10081469963994 180,-78.42662916952217 184,-96.21128390818448 188,-74.66449022800204 192,-63.61248729141552 196,-10.947901764759436 200,-44.73563070962781"
                   stroke="black"
                   stroke-width="0.5"
                   fill="none"
                   id="black"/>
      </g>
      <g id="regression">
         <g>
            <line x1="0"
                  y1="-53.760007892915326"
                  x2="200"
                  y2="-55.64937927987682"
                  class="regression"/>
         </g>
      </g>
      <g id="rectangular">
         <g>
            <path d="M0,-55.93354968928904 Q2.4,-55.93354968928904 4,-55.93354968928904 C5.6,-55.93354968928904 6.4,-55.93354968928904 8,-55.93354968928904 C9.6,-55.93354968928904 10.4,-55.93354968928904 12,-55.93354968928904 C13.6,-55.93354968928904 14.4,-55.93354968928904 16,-55.93354968928904 C17.6,-55.93354968928904 18.4,-55.93354968928904 20,-55.93354968928904 C21.6,-55.93354968928904 22.4,-55.93354968928904 24,-55.93354968928904 C25.6,-55.93354968928904 26.4,-55.93354968928904 28,-55.93354968928904 C29.6,-55.93354968928904 30.4,-55.93354968928904 32,-55.93354968928904 C33.6,-55.93354968928904 34.4,-55.93354968928904 36,-55.93354968928904 C37.6,-55.93354968928904 38.4,-55.93354968928904 40,-55.93354968928904 C41.6,-55.93354968928904 42.40065714496371,-55.96597548059686 44,-55.93354968928904 C45.60065714496371,-55.901097251480266 46.40024969564953,-55.84189509266287 48,-55.77135411649754 C49.600249695649524,-55.7007911196771 50.40011090309286,-55.65927618460024 52,-55.58078975682462 C53.600110903092855,-55.50229244781029 54.40029456507851,-55.46511792247398 56,-55.37889477452268 C57.600294565078514,-55.29263987281497 58.39966568703471,-55.235054174653165 60,-55.14959463267711 C61.599665687034715,-55.06417079603169 62.40014923068462,-55.03375864082084 64,-54.95168632796899 C65.60014923068462,-54.8695987040548 66.39910784011603,-54.80112392573155 68,-54.73919479076202 C69.59910784011602,-54.67733468066656 70.40025977020082,-54.68974837006786 72,-54.642213215306526 C73.60025977020082,-54.59466262276789 74.39994015281212,-54.5560176908183 76,-54.5014804225121 C77.59994015281212,-54.446947233930985 78.40016865160091,-54.427009152412396 80,-54.369537073088225 C81.60016865160091,-54.31205287653908 82.39997860350441,-54.275713119215226 84,-54.21408973282882 C85.59997860350441,-54.152467994576014 86.39986925199862,-54.11884703522938 88,-54.06142426149021 C89.59986925199863,-54.00401087187532 90.39973011892296,-53.970940210480265 92,-53.92699932444368 C93.59973011892296,-53.88307325942421 94.40014055870685,-53.88151061219901 96,-53.841756883850074 C97.60014055870685,-53.80199617022168 98.39970695920701,-53.75775490351598 100,-53.72821321950035 C101.59970695920701,-53.69868235465132 102.4001391485728,-53.71731163826825 104,-53.694075511688425 C105.60013914857281,-53.67083534316477 106.4002292446681,-53.65365327865685 108,-53.612022481741654 C109.6002292446681,-53.5703797535692 110.39984425632366,-53.5307937757073 112,-53.4858916989693 C113.59984425632366,-53.44099836289861 114.40039746382436,-53.43918661409109 116,-53.38753394971994 C117.60039746382435,-53.33585561639033 118.39996329556743,-53.29062074075417 120,-53.2275642047174 C121.59996329556743,-53.164510561682235 122.39947746512419,-53.11464829272069 124,-53.072258502040086 C125.59947746512418,-53.02989639000009 126.39995500432428,-53.01951461453174 128,-53.0156844479159 C129.59995500432427,-53.011854496720176 130.4000446958715,-53.03433039076638 132,-53.053108207511194 C133.6000446958715,-53.07188707339892 134.4002330296808,-53.075913921479554 136,-53.109576154497255 C137.60023302968082,-53.14324819431752 138.40003767619817,-53.17538794101149 140,-53.2214438896061 C141.60003767619816,-53.26750200726809 142.39994358358024,-53.29448364310243 144,-53.33986132013875 C145.59994358358026,-53.385235797230315 146.40007330585615,-53.402386008118235 148,-53.44832427492581 C149.60007330585617,-53.49426675135623 150.39978212579828,-53.56077805931292 152,-53.56956317823372 C153.59978212579827,-53.57834590491681 154.39985057110272,-53.50770919101217 156,-53.492243888935505 C157.5998505711027,-53.47678147529288 158.4,-53.492243888935505 160,-53.492243888935505 C161.6,-53.492243888935505 162.4,-53.492243888935505 164,-53.492243888935505 C165.6,-53.492243888935505 166.4,-53.492243888935505 168,-53.492243888935505 C169.6,-53.492243888935505 170.4,-53.492243888935505 172,-53.492243888935505 C173.6,-53.492243888935505 174.4,-53.492243888935505 176,-53.492243888935505 C177.6,-53.492243888935505 178.4,-53.492243888935505 180,-53.492243888935505 C181.6,-53.492243888935505 182.4,-53.492243888935505 184,-53.492243888935505 C185.6,-53.492243888935505 186.4,-53.492243888935505 188,-53.492243888935505 C189.6,-53.492243888935505 190.4,-53.492243888935505 192,-53.492243888935505 C193.6,-53.492243888935505 194.4,-53.492243888935505 196,-53.492243888935505 Q197.6,-53.492243888935505 200,-53.492243888935505"
                  class="spline"
                  fill="none"/>
         </g>
      </g>
      <g id="gaussian">
         <g>
            <path d="M0,-50.836403913856 Q2.2013490371422346,-51.258417287757005 4,-51.61603747266231 C5.801349037142234,-51.97419410729824 6.200993514702303,-52.057243732032305 8,-52.42701906839208 C9.800993514702302,-52.797202827107434 10.200400910928465,-52.88345955280669 12,-53.26039101727371 C13.800400910928467,-53.63749042575038 14.199590366635107,-53.72558569269559 16,-54.10264323048916 C17.79959036663511,-54.47952919027614 18.198652059871947,-54.56748317334788 20,-54.93582101189715 C21.798652059871948,-55.303607599527915 22.19774741232253,-55.3888945098825 24,-55.73847528866701 C25.797747412322533,-56.087182203976504 26.19707458497273,-56.166928758128904 28,-56.487571443217156 C29.79707458497273,-56.80717358284355 30.196799981487658,-56.87850107229224 32,-57.161241565810656 C33.79679998148766,-57.44297853802899 34.19698178339982,-57.503460293284974 36,-57.74196581152104 C37.79698178339982,-57.97967282277837 38.19753160530597,-58.02782176566634 40,-58.21949163135154 C41.79753160530596,-58.41063653151628 42.198250001596755,-58.44627965570798 44,-58.592665291187586 C45.798250001596756,-58.738766564654064 46.197951787807234,-58.79358021075763 48,-58.86946254012061 C49.79795178780723,-58.945172373419204 50.200073906733536,-58.898251310304644 52,-58.92953676376886 C53.80007390673354,-58.96082478645598 54.19982734362176,-58.988522114630875 56,-59.0085147093458 C57.799827343621764,-59.028503469040814 58.2004145772509,-59.043571617510025 60,-59.018384218013175 C61.800414577250905,-58.993185213484736 62.199612180056086,-58.91667639215994 64,-58.89654492262293 C65.79961218005609,-58.87642212608992 66.20224898377336,-58.98569486032413 68,-58.928930293413124 C69.80224898377335,-58.87202370172924 70.20933306626927,-58.852486903254785 72,-58.64394234796761 C73.80933306626926,-58.43322389856542 74.2029226274206,-58.3053034826962 76,-57.99723472743676 C77.80292262742061,-57.688163933861894 78.19984089679996,-57.59776163454136 80,-57.272521128335804 C81.79984089679995,-56.94733811349891 82.21341323787072,-56.93824745911795 84,-56.551849125120214 C85.81341323787072,-56.159648830784896 86.20422153839925,-56.012715072684436 88,-55.54230195426234 C89.80422153839925,-55.06967712979143 90.2073226617375,-54.97048221135977 92,-54.45620925202465 C93.80732266173752,-53.93773492656347 94.21147482209024,-53.826747449481545 96,-53.24730798804835 C97.81147482209023,-52.66043338976147 98.20450867147011,-52.499456778811826 100,-51.864400230424486 C101.80450867147012,-51.2261542917058 102.19885641182641,-51.065561327965526 104,-50.417746905590505 C105.7988564118264,-49.770755108259905 106.17983691120762,-49.56755815558024 108,-48.98705307552311 C109.77983691120762,-48.41940923361073 110.19528802238656,-48.3531735570307 112,-47.866304856769375 C113.79528802238656,-47.381978517222414 114.17880375232924,-47.18773981122458 116,-46.82884187594913 C117.77880375232925,-46.47829810847339 118.20041775322716,-46.53541156259654 120,-46.289767739544494 C121.80041775322715,-46.04400986946848 122.19148483365117,-45.86389711636012 124,-45.73683811344232 C125.79148483365117,-45.610975593214945 126.20552096602057,-45.63005576677008 128,-45.727719910332986 C129.80552096602057,-45.82598500872215 130.22405276109754,-45.84211050238764 132,-46.17223642889137 C133.82405276109753,-46.51130455803305 134.23235687494576,-46.64494435000465 136,-47.21481781176724 C137.83235687494576,-47.805554448993036 138.230598316361,-47.988793040769764 140,-48.751369982198895 C141.830598316361,-49.54032145544768 142.1962699074032,-49.810474077795796 144,-50.66265873327372 C145.79626990740323,-51.51131877308156 146.2110697701581,-51.667327295795786 148,-52.531024860611716 C149.8110697701581,-53.405411420860936 150.1830969649044,-53.6634075214971 152,-54.52506790008517 C153.7830969649044,-55.370695859398865 154.18658080724356,-55.54629114154184 156,-56.32499894483787 C157.78658080724358,-57.09218196648925 158.18143371466388,-57.27366861436266 160,-57.96038084441273 C161.7814337146639,-58.633071374720856 162.180609740124,-58.78544424362824 164,-59.34589396785609 C165.780609740124,-59.89439763956308 166.1836682431236,-60.011084030007446 168,-60.42472172426793 C169.7836682431236,-60.83092087627753 170.18925479563782,-60.90860195501362 172,-61.16775362623406 C173.78925479563782,-61.42382961605951 174.19563348566723,-61.462331850112925 176,-61.56967208214768 C177.79563348566722,-61.67649279372145 178.2013000888992,-61.67819393105275 180,-61.643666834253004 C181.80130008889918,-61.609089825519646 182.205363373944,-61.57802161607521 184,-61.41610740318522 C185.805363373944,-61.25322541056983 186.20757704557792,-61.19420579506549 188,-60.92189748868548 C189.80757704557791,-60.64728694393745 190.20814469572608,-60.565307646288495 192,-60.20073217845625 C193.80814469572607,-59.832842429333986 194.2074821176425,-59.73273055738849 196,-59.29419700656435 Q197.8074821176425,-58.85200250524175 200,-58.243558729241265"
                  class="spline"
                  fill="none"/>
         </g>
      </g>
      <g id="exponential">
         <g>
            <path d="M0,-42.5607485269977 Q2.947162005862559,-43.032600443265096 4,-44.6422416035364 C6.5471620058625595,-48.53649392853405 5.614566909968003,-50.61613480442806 8,-54.79162293870649 C9.214566909968003,-56.91761412330543 11.037479118254913,-59.94871375467466 12,-58.645528978819435 C14.637479118254914,-55.07456994953145 13.171550142565376,-49.54563177965356 16,-43.96019226061048 C16.771550142565378,-42.43658502893884 19.365179837387124,-41.43015297936045 20,-42.8476473105645 C22.965179837387122,-49.46861787519971 21.42981880116919,-53.58683657211205 24,-61.823447584697725 C25.02981880116919,-65.12368839360899 26.38110318022586,-68.88271633762685 28,-68.4850958027799 C29.98110318022586,-67.99851302833333 29.47029950200633,-62.72253344969306 32,-59.858551341823244 C33.07029950200633,-58.64681950786138 34.37362163051287,-60.084530532243114 36,-59.42795370982062 C37.973621630512866,-58.63119310162643 38.0968899589194,-57.70329623567924 40,-56.62891260711951 C41.69688995891939,-55.67094866810565 42.34541572334302,-54.606389849308776 44,-54.911625781879316 C45.94541572334302,-55.27051398777461 46.42691889548776,-56.445858579047616 48,-58.104744025932476 C50.02691889548775,-60.24222202887572 50.37860201514201,-60.869992416236215 52,-63.347989003719555 C53.97860201514201,-66.3719036053767 54.10765726544297,-70.11316287977644 56,-70.33121333513355 C57.70765726544297,-70.52798289358824 58.808221075952964,-67.2761575481295 60,-64.26981125663465 C62.408221075952966,-58.19490394395491 61.66062840424049,-56.27419086564277 64,-50.150649770301115 C65.26062840424049,-46.85082777822663 66.47995774632686,-42.71477305820262 68,-43.32900439570989 C70.07995774632685,-44.16949105020763 70.27394495102575,-48.83080825640599 72,-53.38335641920115 C73.87394495102576,-58.32597087929125 74.0381228767277,-59.524017701491786 76,-64.42936577989936 C77.6381228767277,-68.52522010748785 77.4615246986491,-70.8324272160185 80,-73.38602843252573 C81.06152469864911,-74.45387839757376 83.11404475892357,-73.89693542256722 84,-72.47703507224438 C86.71404475892358,-68.12729715624614 86.28758964997826,-65.95310919296179 88,-60.56461006292333 C89.88758964997825,-54.62486834935082 89.63667245539872,-53.006457325298236 92,-47.303166530886664 C93.23667245539872,-44.31877164804878 93.68204715143253,-42.93249730185686 96,-41.25864189125787 C97.28204715143252,-40.332841540144344 99.15690397441685,-40.18231492653116 100,-41.526153727081066 C102.75690397441684,-45.92047467960723 102.03218572446477,-48.452333350316316 104,-54.010108009204686 C105.63218572446476,-58.619953852284716 105.60793572014616,-62.22235639489004 108,-64.12086595367751 C109.20793572014615,-65.07956824709514 110.91827764836039,-62.50965948806329 112,-60.35946768077157 C114.51827764836038,-55.353765469124625 114.44302450146498,-53.75190471334372 116,-48.21887924492492 C118.04302450146498,-40.95858092305306 117.0950723244694,-37.963318902943364 120,-31.929859257903438 C120.6950723244694,-30.486212018285276 122.42799845396324,-31.021341129531994 124,-31.603086167906945 C126.02799845396325,-32.35358036519293 125.97970518273968,-33.902655951916216 128,-34.890390892705526 C129.57970518273967,-35.66271876872011 130.3456726822112,-34.851233095090834 132,-35.514336871915596 C133.9456726822112,-36.29422056854915 134.65117549826851,-36.50386709811297 136,-38.097029722612895 C138.25117549826854,-40.75600326618915 137.91482905086554,-42.08881051320249 140,-44.963528356529324 C141.51482905086553,-47.05194518581643 142.0777509506975,-47.38974730448098 144,-49.12621788397721 C145.6777509506975,-50.641820228358725 146.53449631087307,-50.50188791031207 148,-52.19035707625764 C150.1344963108731,-54.649601111242546 150.4569770548896,-55.43451406233213 152,-58.34335833048937 C154.05697705488961,-62.22108803943968 153.60994544390698,-63.73171235974348 156,-67.27163258094109 C157.20994544390697,-69.06368805202362 158.98660120507,-71.3412994648051 160,-70.19219320222302 C162.58660120507002,-67.25921197270254 161.5025269960362,-60.72914539217695 164,-58.20032704293541 C165.1025269960362,-57.0839624241045 166.42579144598372,-62.49969240804741 168,-62.09178660650646 C170.0257914459837,-61.566867540719045 170.57003049502504,-55.381440670502165 172,-56.12738289331683 C174.17003049502503,-57.2593772228483 173.859101413404,-61.87719535452663 176,-66.26497894505341 C177.459101413404,-69.2554154275343 177.88475522714813,-69.9845102842029 180,-72.52342750000055 C181.48475522714816,-74.30557141820515 182.60102973532344,-76.53488663389402 184,-75.86733702061395 C186.20102973532343,-74.817066985766 186.50958832303579,-72.07082236124835 188,-68.70605050416054 C190.10958832303578,-63.943417783884094 190.51362848496998,-62.80766847396164 192,-57.8064379598045 C194.11362848496998,-50.6946606095705 193.1231194048834,-47.151090398371636 196,-41.788255249958006 Q196.7231194048834,-40.440277802582756 200,-42.89352108027365"
                  class="spline"
                  fill="none"/>
         </g>
      </g>
      <g id="parabolic">
         <g>
            <path d="M0,-55.957291800438966 Q2.1999497945046977,-56.01160466558014 4,-56.05197200176371 C5.799949794504698,-56.092337086163305 6.199965214645485,-56.10029073471877 8,-56.13669717951267 C9.799965214645486,-56.173102217210335 10.199975478734338,-56.18041316789193 12,-56.213775296189404 C13.79997547873434,-56.24713651551969 14.199982574205459,-56.253944031909164 16,-56.28497128535216 C17.79998257420546,-56.31599793805147 18.199987669599967,-56.322415769520816 20,-56.35167286539452 C21.799987669599968,-56.380929560435746 22.19999148061655,-56.38705252052826 24,-56.41500193182977 C25.79999148061655,-56.44295107856392 26.19999446412448,-56.44886002974192 28,-56.47589188325155 C29.799994464124477,-56.50292357048949 30.1999969256699,-56.50868925776238 32,-56.53514313349104 C33.7999969256699,-56.56159691885547 34.199999081839664,-56.56728298935828 36,-56.59346446345843 C37.79999908183966,-56.61964591084883 38.20000109848457,-56.625311372046404 40,-56.65150518124781 C41.80000109848457,-56.67769902241979 42.20000311604308,-56.68340033073378 44,-56.709881464288166 C45.80000311604308,-56.736362689527546 46.21380304649208,-56.91415234672878 48,-56.76919931190063 C49.81380304649208,-56.62200599391113 50.20939636047615,-56.01287141000432 52,-56.060667346915615 C53.80939636047615,-56.10896491114699 54.19697287594279,-56.58140802136848 56,-56.98274042555101 C57.79697287594279,-57.38272522607363 58.18743142311089,-57.76591247307287 60,-57.841372246260384 C61.78743142311089,-57.915785524464546 62.23861630993838,-57.14150991141516 64,-57.31579165086583 C65.83861630993839,-57.49771524337237 66.15454016395672,-58.36934927676725 68,-58.632939650609735 C69.75454016395673,-58.88354380286839 70.31813547445569,-58.9581577265502 72,-58.4584461533128 C73.91813547445568,-57.88853431971104 74.18884291468362,-57.2262701166339 76,-56.25599874652273 C77.78884291468361,-55.29768150291349 78.10057063071,-54.798265430782784 80,-54.17269367837856 C81.70057063070999,-53.61261549556196 82.23890409667949,-54.03604227950504 84,-53.62122111269868 C85.8389040966795,-53.18807244567191 86.15590134808882,-52.67438061467701 88,-52.28831626986047 C89.75590134808883,-51.920716140219994 90.19672652155126,-52.02554131694874 92,-51.946411169460866 C93.79672652155125,-51.867568311544474 94.20652356033516,-52.04769761849892 96,-51.93726514673988 C97.80652356033515,-51.82602930463647 98.19909096793138,-51.66356234568704 100,-51.453814916433195 C101.79909096793138,-51.24427923262135 102.20811896517465,-51.26366890134314 104,-51.00552489548279 C105.80811896517464,-50.745041602412094 106.19735190456143,-50.3176343372431 108,-50.301309807697535 C109.79735190456144,-50.285033239717336 110.19104647240832,-50.852586095954884 112,-50.9330780120922 C113.79104647240833,-51.012773128774974 114.33000519665144,-50.22655392056403 116,-50.65728099174219 C117.93000519665144,-51.15507025674195 118.09290216742103,-52.667395044303746 120,-52.99644764804313 C121.69290216742102,-53.28854271340883 122.17527257170542,-52.22867433458172 124,-52.037609145309055 C125.77527257170541,-51.851722319329525 126.20524167387917,-52.23250210944257 128,-52.158776503038254 C129.80524167387918,-52.08462025861467 130.19571169668743,-51.76068339956611 132,-51.70898281013594 C133.79571169668745,-51.657527977227616 134.21000959877657,-51.736988027936206 136,-51.929542231174935 C137.81000959877656,-52.124249954696054 138.23328968677527,-52.14285828757272 140,-52.56956486960228 C141.83328968677526,-53.01235210543725 142.1590094281385,-53.64770452542182 144,-53.86175071531833 C145.75900942813848,-54.06626521519671 146.22478975215904,-53.35323197956903 148,-53.499699735768694 C149.82478975215903,-53.650258161656524 150.17170593248423,-54.270631014397736 152,-54.52180889773498 C153.77170593248422,-54.7652124912401 154.20000248024442,-54.56400889730126 156,-54.59876968430728 C157.80000248024442,-54.63353056710815 158.20000618034726,-54.64109618969421 160,-54.676301497305865 C161.80000618034725,-54.711507046675045 162.20001032549388,-54.719200976527446 164,-54.755238255375794 C165.8000103254939,-54.79127594767396 166.20001523701725,-54.79917915943884 168,-54.83646809985368 C169.80001523701725,-54.87375767157634 170.20002134278602,-54.88195840925438 172,-54.92096828234801 C173.800021342786,-54.95997908054079 174.2000292483,-54.96857616653381 176,-55.00984736937904 C177.8000292483,-55.0511199134822 178.2000398506779,-55.06022680203175 180,-55.10439883112221 C181.8000398506779,-55.148572816128535 182.20005453015568,-55.15832271970072 184,-55.20617184514967 C185.80005453015568,-55.254023869820074 186.2000754847745,-55.2645764019769 188,-55.31706805360966 C189.80007548477448,-55.36956410800536 190.20010633834826,-55.38111404520246 192,-55.43947785854625 C193.80010633834826,-55.497848568199124 194.20015329119232,-55.51063753583573 196,-55.57647810471335 Q197.80015329119234,-55.64232988874531 200,-55.73212753167866"
                  class="spline"
                  fill="none"/>
         </g>
      </g>
      <text x="100" y="8" text-anchor="middle" font-size="5">Fake independent
                    variable</text>
      <text x="-10"
            y="-50"
            text-anchor="middle"
            font-size="5"
            writing-mode="tb">Fake
                    dependent variable</text>
      <text x="100" y="-106" text-anchor="middle" font-size="8">Smoothing examples (window                     = 25)</text>
   </g>
   <g transform="translate(50, 15)">
      <rect x="0"
            y="0"
            width="100"
            height="51"
            fill="ghostwhite"
            stroke="black"
            stroke-width="0.5"/>
      <rect x="2"
            y="1"
            width="5"
            height="5"
            fill="black"
            class="toggle"
            id="data-box"/>
      <rect x="2"
            y="8"
            width="5"
            height="5"
            fill="red"
            class="toggle"
            id="regression-box"/>
      <rect x="2" y="15" width="5" height="5" fill="gray"/>
      <rect x="2"
            y="22"
            width="5"
            height="5"
            fill="blue"
            class="toggle"
            id="rectangular-box"/>
      <rect x="2"
            y="29"
            width="5"
            height="5"
            fill="green"
            class="toggle"
            id="gaussian-box"/>
      <rect x="2"
            y="36"
            width="5"
            height="5"
            fill="indigo"
            class="toggle"
            id="exponential-box"/>
      <rect x="2"
            y="43"
            width="5"
            height="5"
            fill="darkgoldenrod"
            class="toggle"
            id="parabolic-box"/>
      <text x="10" y="6" fill="black" font-size="5">
         <tspan>Actual data (101 points)</tspan>
         <tspan x="10" dy="7" fill="red">Regression line (53.8–55.6)</tspan>
         <tspan x="10" dy="7" fill="gray">Y intercept of regression line (53.8)</tspan>
         <tspan x="10" dy="7" fill="blue">Rectangular kernel</tspan>
         <tspan x="10" dy="7" fill="green">Gaussian kernel (σ = 5)</tspan>
         <tspan x="10" dy="7" fill="indigo">Exponential kernel (y = 1 - 2<tspan dy="-2" font-size="4">-d</tspan>
            <tspan dy="2">)</tspan>
         </tspan>
         <tspan x="10" dy="7" fill="darkgoldenrod">Parabolic kernel (y = 1 - (d/N)<tspan dy="-2" font-size="4">2</tspan>
            <tspan dy="2" dx="-1">)</tspan>
         </tspan>
      </text>
   </g>
</svg>
