<?xml version="1.0" encoding="UTF-8"?>
<svg xmlns="http://www.w3.org/2000/svg" viewBox="-12 -115 210 195">
   <style type="text/css">
                #linear {
                    stroke: blue;
                    stroke-width: 0.5;
                    stroke-opacity: 0.5;
                    fill: none;
                }
                #gaussian {
                    stroke: green;
                    stroke-width: 0.5;
                    stroke-opacity: 0.5;
                    fill: none;
                }
                .regression {
                    stroke: red;
                    stroke-width: 0.5;
                    stroke-opacity: 0.5;
                }</style>
   <g>
      <line x1="2"
            y1="0"
            x2="200"
            y2="0"
            stroke="lightgray"
            stroke-width="0.5"
            stroke-linecap="square"/>
      <text x="0"
            y="0"
            fill="lightgray"
            font-size="3"
            text-anchor="end"
            alignment-baseline="central">0.0</text>
      <line x1="2"
            y1="-100"
            x2="200"
            y2="-100"
            stroke="lightgray"
            stroke-width="0.5"
            stroke-linecap="square"/>
      <text x="0"
            y="-100"
            fill="lightgray"
            font-size="3"
            text-anchor="end"
            alignment-baseline="central">100.0</text>
      <text x="0"
            y="-53.636189284484644"
            fill="lightgray"
            font-size="3"
            text-anchor="end"
            alignment-baseline="central">53.6</text>
      <text x="208"
            y="-100"
            font-size="3"
            fill="lightgray"
            text-anchor="end"
            alignment-baseline="central">100.0</text>
      <text x="208"
            y="0"
            font-size="3"
            fill="lightgray"
            text-anchor="end"
            alignment-baseline="central">0.0</text>
      <text x="208"
            y="-52.160196550311504"
            fill="red"
            fill-opacity="0.5"
            font-size="3"
            text-anchor="end"
            alignment-baseline="central">52.2</text>
      <line x1="2"
            y1="-100"
            x2="2"
            y2="0"
            stroke="lightgray"
            stroke-width="0.5"
            stroke-linecap="square"/>
      <line x1="200"
            y1="-100"
            x2="200"
            y2="0"
            stroke="lightgray"
            stroke-width="0.5"
            stroke-linecap="square"/>
      <line x1="2"
            y1="-53.636189284484644"
            x2="200"
            y2="-53.636189284484644"
            stroke="lightgray"
            stroke-width="0.5"/>
      <circle cx="2" cy="-59.1229983102619" r="0.65" fill="black"/>
      <circle cx="4" cy="-13.140873468469485" r="0.65" fill="black"/>
      <circle cx="6" cy="-6.997677719491515" r="0.65" fill="black"/>
      <circle cx="8" cy="-7.299877535541157" r="0.65" fill="black"/>
      <circle cx="10" cy="-50.37710210273683" r="0.65" fill="black"/>
      <circle cx="12" cy="-83.79922339821222" r="0.65" fill="black"/>
      <circle cx="14" cy="-16.883315618853437" r="0.65" fill="black"/>
      <circle cx="16" cy="-55.33657772706779" r="0.65" fill="black"/>
      <circle cx="18" cy="-72.14819509914699" r="0.65" fill="black"/>
      <circle cx="20" cy="-70.11931917118069" r="0.65" fill="black"/>
      <circle cx="22" cy="-76.50967999490132" r="0.65" fill="black"/>
      <circle cx="24" cy="-79.51220377023282" r="0.65" fill="black"/>
      <circle cx="26" cy="-74.12235138917332" r="0.65" fill="black"/>
      <circle cx="28" cy="-3.715512722199067" r="0.65" fill="black"/>
      <circle cx="30" cy="-92.88730711196641" r="0.65" fill="black"/>
      <circle cx="32" cy="-85.39159719880261" r="0.65" fill="black"/>
      <circle cx="34" cy="-90.12182686623147" r="0.65" fill="black"/>
      <circle cx="36" cy="-53.161799076608574" r="0.65" fill="black"/>
      <circle cx="38" cy="-4.848865690297257" r="0.65" fill="black"/>
      <circle cx="40" cy="-69.74872986758429" r="0.65" fill="black"/>
      <circle cx="42" cy="-94.09713950888133" r="0.65" fill="black"/>
      <circle cx="44" cy="-68.70065770192858" r="0.65" fill="black"/>
      <circle cx="46" cy="-49.7150042813243" r="0.65" fill="black"/>
      <circle cx="48" cy="-26.2507586432016" r="0.65" fill="black"/>
      <circle cx="50" cy="-29.11260627663607" r="0.65" fill="black"/>
      <circle cx="52" cy="-42.819630680605535" r="0.65" fill="black"/>
      <circle cx="54" cy="-72.7897702116029" r="0.65" fill="black"/>
      <circle cx="56" cy="-88.66764035314132" r="0.65" fill="black"/>
      <circle cx="58" cy="-57.481718514763735" r="0.65" fill="black"/>
      <circle cx="60" cy="-66.71783082672668" r="0.65" fill="black"/>
      <circle cx="62" cy="-5.5529806127396455" r="0.65" fill="black"/>
      <circle cx="64" cy="-31.428170609786143" r="0.65" fill="black"/>
      <circle cx="66" cy="-84.37830812916205" r="0.65" fill="black"/>
      <circle cx="68" cy="-2.6347389362982767" r="0.65" fill="black"/>
      <circle cx="70" cy="-54.06011515942253" r="0.65" fill="black"/>
      <circle cx="72" cy="-74.72650886609723" r="0.65" fill="black"/>
      <circle cx="74" cy="-64.90577580031363" r="0.65" fill="black"/>
      <circle cx="76" cy="-66.11377151077544" r="0.65" fill="black"/>
      <circle cx="78" cy="-50.034478021163636" r="0.65" fill="black"/>
      <circle cx="80" cy="-5.727562282184897" r="0.65" fill="black"/>
      <circle cx="82" cy="-28.441190160394083" r="0.65" fill="black"/>
      <circle cx="84" cy="-82.28940019693933" r="0.65" fill="black"/>
      <circle cx="86" cy="-91.37512008139328" r="0.65" fill="black"/>
      <circle cx="88" cy="-2.130434698942631" r="0.65" fill="black"/>
      <circle cx="90" cy="-42.45506182311153" r="0.65" fill="black"/>
      <circle cx="92" cy="-40.79367348776193" r="0.65" fill="black"/>
      <circle cx="94" cy="-32.70874950703574" r="0.65" fill="black"/>
      <circle cx="96" cy="-32.337617495712955" r="0.65" fill="black"/>
      <circle cx="98" cy="-28.470533831817548" r="0.65" fill="black"/>
      <circle cx="100" cy="-92.58230574632017" r="0.65" fill="black"/>
      <circle cx="102" cy="-85.24045830653723" r="0.65" fill="black"/>
      <circle cx="104" cy="-54.41584629369865" r="0.65" fill="black"/>
      <circle cx="106" cy="-23.94402326556935" r="0.65" fill="black"/>
      <circle cx="108" cy="-76.15020703598779" r="0.65" fill="black"/>
      <circle cx="110" cy="-63.15083654784718" r="0.65" fill="black"/>
      <circle cx="112" cy="-15.894039866906585" r="0.65" fill="black"/>
      <circle cx="114" cy="-84.36212300176516" r="0.65" fill="black"/>
      <circle cx="116" cy="-89.04192728026653" r="0.65" fill="black"/>
      <circle cx="118" cy="-14.13142446118463" r="0.65" fill="black"/>
      <circle cx="120" cy="-95.5883436274501" r="0.65" fill="black"/>
      <circle cx="122" cy="-43.34325292833179" r="0.65" fill="black"/>
      <circle cx="124" cy="-90.80656127004276" r="0.65" fill="black"/>
      <circle cx="126" cy="-70.67917332435145" r="0.65" fill="black"/>
      <circle cx="128" cy="-89.0804839782353" r="0.65" fill="black"/>
      <circle cx="130" cy="-76.2814701939835" r="0.65" fill="black"/>
      <circle cx="132" cy="-90.25024534814463" r="0.65" fill="black"/>
      <circle cx="134" cy="-4.720171048411672" r="0.65" fill="black"/>
      <circle cx="136" cy="-38.007567647665255" r="0.65" fill="black"/>
      <circle cx="138" cy="-38.60140545387688" r="0.65" fill="black"/>
      <circle cx="140" cy="-66.7284028116138" r="0.65" fill="black"/>
      <circle cx="142" cy="-31.093398361630477" r="0.65" fill="black"/>
      <circle cx="144" cy="-53.22327361817073" r="0.65" fill="black"/>
      <circle cx="146" cy="-88.88142255874189" r="0.65" fill="black"/>
      <circle cx="148" cy="-74.72907869387184" r="0.65" fill="black"/>
      <circle cx="150" cy="-28.03897481676766" r="0.65" fill="black"/>
      <circle cx="152" cy="-29.19317846397569" r="0.65" fill="black"/>
      <circle cx="154" cy="-2.035748709551756" r="0.65" fill="black"/>
      <circle cx="156" cy="-81.12801160739512" r="0.65" fill="black"/>
      <circle cx="158" cy="-85.9164316574364" r="0.65" fill="black"/>
      <circle cx="160" cy="-52.94537188401426" r="0.65" fill="black"/>
      <circle cx="162" cy="-84.57000172235324" r="0.65" fill="black"/>
      <circle cx="164" cy="-42.66020758232146" r="0.65" fill="black"/>
      <circle cx="166" cy="-4.071867763252636" r="0.65" fill="black"/>
      <circle cx="168" cy="-97.38842012645529" r="0.65" fill="black"/>
      <circle cx="170" cy="-42.792991162185935" r="0.65" fill="black"/>
      <circle cx="172" cy="-29.19721410857729" r="0.65" fill="black"/>
      <circle cx="174" cy="-27.143967100661584" r="0.65" fill="black"/>
      <circle cx="176" cy="1.0791991441963726" r="0.65" fill="black"/>
      <circle cx="178" cy="-87.54385533250215" r="0.65" fill="black"/>
      <circle cx="180" cy="-94.51826990147828" r="0.65" fill="black"/>
      <circle cx="182" cy="-65.57206179601968" r="0.65" fill="black"/>
      <circle cx="184" cy="-60.19394490611887" r="0.65" fill="black"/>
      <circle cx="186" cy="-68.00673794707401" r="0.65" fill="black"/>
      <circle cx="188" cy="-36.827813548015236" r="0.65" fill="black"/>
      <circle cx="190" cy="-6.118952975899507" r="0.65" fill="black"/>
      <circle cx="192" cy="-45.70807527162455" r="0.65" fill="black"/>
      <circle cx="194" cy="-69.24501757515482" r="0.65" fill="black"/>
      <circle cx="196" cy="-4.4829358810532085" r="0.65" fill="black"/>
      <circle cx="198" cy="-75.296277136075" r="0.65" fill="black"/>
      <circle cx="200" cy="-36.47474082152355" r="0.65" fill="black"/>
      <polyline points="2,-59.1229983102619 4,-13.140873468469485 6,-6.997677719491515 8,-7.299877535541157 10,-50.37710210273683 12,-83.79922339821222 14,-16.883315618853437 16,-55.33657772706779 18,-72.14819509914699 20,-70.11931917118069 22,-76.50967999490132 24,-79.51220377023282 26,-74.12235138917332 28,-3.715512722199067 30,-92.88730711196641 32,-85.39159719880261 34,-90.12182686623147 36,-53.161799076608574 38,-4.848865690297257 40,-69.74872986758429 42,-94.09713950888133 44,-68.70065770192858 46,-49.7150042813243 48,-26.2507586432016 50,-29.11260627663607 52,-42.819630680605535 54,-72.7897702116029 56,-88.66764035314132 58,-57.481718514763735 60,-66.71783082672668 62,-5.5529806127396455 64,-31.428170609786143 66,-84.37830812916205 68,-2.6347389362982767 70,-54.06011515942253 72,-74.72650886609723 74,-64.90577580031363 76,-66.11377151077544 78,-50.034478021163636 80,-5.727562282184897 82,-28.441190160394083 84,-82.28940019693933 86,-91.37512008139328 88,-2.130434698942631 90,-42.45506182311153 92,-40.79367348776193 94,-32.70874950703574 96,-32.337617495712955 98,-28.470533831817548 100,-92.58230574632017 102,-85.24045830653723 104,-54.41584629369865 106,-23.94402326556935 108,-76.15020703598779 110,-63.15083654784718 112,-15.894039866906585 114,-84.36212300176516 116,-89.04192728026653 118,-14.13142446118463 120,-95.5883436274501 122,-43.34325292833179 124,-90.80656127004276 126,-70.67917332435145 128,-89.0804839782353 130,-76.2814701939835 132,-90.25024534814463 134,-4.720171048411672 136,-38.007567647665255 138,-38.60140545387688 140,-66.7284028116138 142,-31.093398361630477 144,-53.22327361817073 146,-88.88142255874189 148,-74.72907869387184 150,-28.03897481676766 152,-29.19317846397569 154,-2.035748709551756 156,-81.12801160739512 158,-85.9164316574364 160,-52.94537188401426 162,-84.57000172235324 164,-42.66020758232146 166,-4.071867763252636 168,-97.38842012645529 170,-42.792991162185935 172,-29.19721410857729 174,-27.143967100661584 176,1.0791991441963726 178,-87.54385533250215 180,-94.51826990147828 182,-65.57206179601968 184,-60.19394490611887 186,-68.00673794707401 188,-36.827813548015236 190,-6.118952975899507 192,-45.70807527162455 194,-69.24501757515482 196,-4.4829358810532085 198,-75.296277136075 200,-36.47474082152355"
                stroke="black"
                stroke-width="0.5"
                fill="none"/>
      <g>
         <line x1="2"
               y1="-53.636189284484644"
               x2="200"
               y2="-52.160196550311504"
               class="regression"/>
      </g>
      <g id="linear">
         <g>
            <path d="M2,-54.33369141559562 Q3.2,-54.33369141559562 4,-54.33369141559562 C4.8,-54.33369141559562 5.2,-54.33369141559562 6,-54.33369141559562 C6.8,-54.33369141559562 7.2,-54.33369141559562 8,-54.33369141559562 C8.8,-54.33369141559562 9.2,-54.33369141559562 10,-54.33369141559562 C10.8,-54.33369141559562 11.2,-54.33369141559562 12,-54.33369141559562 C12.8,-54.33369141559562 13.2,-54.33369141559562 14,-54.33369141559562 C14.8,-54.33369141559562 15.2,-54.33369141559562 16,-54.33369141559562 C16.8,-54.33369141559562 17.2,-54.33369141559562 18,-54.33369141559562 C18.8,-54.33369141559562 19.2,-54.33369141559562 20,-54.33369141559562 C20.8,-54.33369141559562 21.2,-54.33369141559562 22,-54.33369141559562 C22.8,-54.33369141559562 23.245289575207416,-54.524037574385154 24,-54.33369141559562 C24.845289575207417,-54.12050021216181 25.174878034747657,-53.667475390781924 26,-53.32484801003724 C26.774878034747655,-53.00308414648408 27.354831814369128,-52.393061741117464 28,-52.67271330485099 C28.954831814369125,-53.086590206933096 29.282615856929525,-54.04487008623921 30,-55.058669174576316 C30.882615856929526,-56.30597183626774 31.080332577947367,-57.112869596705906 32,-58.32546767992231 C32.68033257794737,-59.222498454511864 33.081810512938944,-59.72193807755345 34,-60.33274131909121 C34.681810512938945,-60.786299192804854 35.421393563595224,-61.34455975690001 36,-60.98637046805081 C37.021393563595225,-60.35407153191629 36.974872011343855,-58.509541512076126 38,-57.85652075663191 C38.57487201134386,-57.49031930736349 39.24185642452949,-58.107866059345014 40,-58.43831495626922 C40.84185642452948,-58.80525142563344 41.35506696007363,-59.86099970361248 42,-59.599984172352976 C42.95506696007363,-59.2134520914404 43.00824513387894,-57.66811694718993 44,-56.81944592583903 C44.60824513387893,-56.298954384396225 45.18062239017123,-56.323274192332136 46,-56.177077765368715 C46.78062239017123,-56.03779619008314 47.216122096274965,-56.234225366060556 48,-56.10575092021654 C48.81612209627497,-55.97199178048098 49.18868853523398,-55.70497195285091 50,-55.52149380141978 C50.78868853523397,-55.343131827277844 51.31798629086085,-54.939868525691566 52,-55.201150606283875 C52.91798629086085,-55.55283469242064 53.35334601516075,-57.3180077465179 54,-57.05390921824246 C54.953346015160754,-56.66455527402483 55.08790669420064,-54.88193847321824 56,-53.567519425051195 C56.68790669420064,-52.5761760433272 57.04065694545625,-51.91099275922631 58,-51.28950314351486 C58.64065694545625,-50.8744674199031 59.286811999155596,-50.7595331837932 60,-50.97620607674315 C60.8868119991556,-51.24562749316108 61.1089824245135,-52.18847320851528 62,-52.50473891693455 C62.7089824245135,-52.75639144873017 63.251499856377635,-52.62064228166762 64,-52.39600167728037 C64.85149985637763,-52.140448697094385 65.29916010589463,-51.86911182453872 66,-51.30425495550146 C66.89916010589462,-50.57955767948925 67.13183228816332,-49.94734992176383 68,-49.17211631465668 C68.73183228816332,-48.51862393430763 69.139422103963,-48.19172434273396 70,-47.73243998686096 C70.73942210396301,-47.33781562304589 71.1775930095041,-47.16200177280242 72,-47.03734451543651 C72.77759300950409,-46.91947998725049 73.38800032657907,-46.72411615260043 74,-47.12613552298115 C74.98800032657908,-47.77514774713324 75.11677076844337,-48.729667413010645 76,-49.66492350176852 C76.71677076844337,-50.423915846540496 77.11718851299898,-51.149467778603245 78,-51.361756606805784 C78.71718851299899,-51.53421823793168 79.36892544111623,-51.15120709043318 80,-50.626799650089616 C80.96892544111623,-49.82164643434556 81.0318080649998,-48.48375700702009 82,-48.03785496658673 C82.6318080649998,-47.74687494995852 83.1749222767218,-48.65999544255997 84,-48.78459450743569 C84.77492227672181,-48.90161935043748 85.20736158404686,-48.58822089496475 86,-48.641914736280505 C86.80736158404687,-48.69660593456935 87.34050953973957,-48.63826444091218 88,-49.05555710644719 C88.94050953973957,-49.650664627250514 89.0530603015642,-50.62750093184992 90,-51.17291520212634 C90.65306030156421,-51.549062076539265 91.20857111037151,-51.23156264831276 92,-51.35945996817053 C92.80857111037152,-51.49012752312861 93.29418382007722,-51.445068966813864 94,-51.819327389165984 C94.89418382007723,-52.29346759070049 95.1615334373227,-53.395394325428036 96,-53.48045652788708 C96.76153343732271,-53.55771388591223 97.18111511833753,-52.270021412180824 98,-52.225126290376465 C98.78111511833754,-52.182301884692244 99.15416892225413,-53.00346522891918 100,-53.26115770916564 C100.75416892225414,-53.49092422545207 101.29314166225284,-53.13550290967294 102,-53.44377378170868 C102.89314166225284,-53.83328543400331 103.32292320454171,-54.26353843534315 104,-55.005614019991555 C104.9229232045417,-56.01713705724509 105.16638584603298,-56.724373941455504 106,-57.8277703364635 C106.76638584603297,-58.842181351048296 107.25954693888116,-60.41682923450375 108,-60.300132543973525 C108.85954693888115,-60.16466645113132 109.10735316715291,-58.366166411858345 110,-57.19736337803241 C110.7073531671529,-56.27117790654225 111.13338632617085,-55.20908936792142 112,-55.06266128068328 C112.73338632617084,-54.93874406106072 113.15704363051623,-56.00945206594027 114,-56.521500110880645 C114.75704363051624,-56.98136105383525 115.16508764322613,-57.370761422775 116,-57.49243375042073 C116.76508764322614,-57.603930476572934 117.22372011713053,-57.020473906021486 118,-57.10442274537549 C118.82372011713053,-57.193501889781544 119.33239154407336,-57.41055578825838 120,-57.92500370982088 C120.93239154407335,-58.643489055044995 121.1589775164401,-59.322165035844165 122,-60.18675591234203 C122.75897751644011,-60.96700263464549 123.27226518284591,-62.17016246127952 124,-62.0370977068242 C124.87226518284592,-61.87760588419955 125.16664293028781,-60.460314849920636 126,-59.455364469642106 C126.7666429302878,-58.530865077566816 127.18538330888627,-58.09674079019448 128,-57.21347327593965 C128.78538330888628,-56.361902751367154 129.21912656270933,-55.0807570656906 130,-55.11826937257378 C130.81912656270933,-55.15761931781346 131.04230331367864,-56.76444893521244 132,-57.40562890624681 C132.64230331367864,-57.835652342624826 133.20067485874992,-57.79978884719396 134,-57.796277891104744 C134.80067485874994,-57.79276100651581 135.3995492500028,-57.036972765637294 136,-57.38805930455144 C136.9995492500028,-57.97250072070312 137.09421993905028,-59.890772244520676 138,-60.135097778769314 C138.69421993905027,-60.322356987496725 139.3636267112728,-59.27312777479042 140,-58.46702116199156 C140.96362671127278,-57.246376175807086 141.19398067158707,-55.0820264070641 142,-55.06821878131099 C142.79398067158706,-55.0546173854362 143.085048621004,-58.119789383398526 144,-58.39849860792182 C144.685048621004,-58.60717567459863 145.06684558337207,-56.91135105863957 146,-56.28668450931124 C146.6668455833721,-55.84028879807927 147.37447573350454,-56.20755483729652 148,-55.720842956521075 C148.97447573350453,-54.962616709470346 149.2309241406486,-54.21582915265845 150,-53.174339189745815 C150.8309241406486,-52.049093686451585 150.9821619850602,-51.05002867539561 152,-50.30400429100391 C152.5821619850602,-49.87730865756712 153.22478276468345,-50.11307654077647 154,-50.24253914517459 C154.82478276468348,-50.38027927776465 155.21862003017193,-51.02234281661605 156,-50.97201113347437 C156.81862003017193,-50.919280675101966 157.3160567333437,-49.77425942506728 158,-49.98488379138937 C158.91605673334368,-50.2669888699566 159.10151191999756,-51.435870530818846 160,-52.20383474569766 C160.70151191999759,-52.803437637332706 161.13887683558823,-53.16074456383798 162,-53.40380155767402 C162.73887683558823,-53.61235381813474 163.37753979787624,-53.72116748915513 164,-53.33285788143956 C164.97753979787623,-52.72303882128992 165.0378767834202,-51.35100627674252 166,-50.90847988801099 C166.63787678342018,-50.61508990993099 167.20315216973285,-51.24894130946072 168,-51.493066964410744 C168.80315216973284,-51.73912404333237 169.44219212176867,-52.515347580464166 170,-52.1339367226901 C171.04219212176866,-51.42131969693288 170.94020797489304,-49.64643456284664 172,-48.75799725558255 C172.54020797489304,-48.30513395107888 173.20558762617,-48.70916452969253 174,-48.78068519327069 C174.80558762617,-48.85321196084388 175.2248066031762,-49.20984166825573 176,-49.11811583346093 C176.8248066031762,-49.020519447151926 177.16958665364808,-48.47569117926019 178,-48.307379640511186 C178.76958665364808,-48.15139670208029 179.2,-48.307379640511186 180,-48.307379640511186 C180.8,-48.307379640511186 181.2,-48.307379640511186 182,-48.307379640511186 C182.8,-48.307379640511186 183.2,-48.307379640511186 184,-48.307379640511186 C184.8,-48.307379640511186 185.2,-48.307379640511186 186,-48.307379640511186 C186.8,-48.307379640511186 187.2,-48.307379640511186 188,-48.307379640511186 C188.8,-48.307379640511186 189.2,-48.307379640511186 190,-48.307379640511186 C190.8,-48.307379640511186 191.2,-48.307379640511186 192,-48.307379640511186 C192.8,-48.307379640511186 193.2,-48.307379640511186 194,-48.307379640511186 C194.8,-48.307379640511186 195.2,-48.307379640511186 196,-48.307379640511186 C196.8,-48.307379640511186 197.2,-48.307379640511186 198,-48.307379640511186 Q198.8,-48.307379640511186 200,-48.307379640511186"
                  class="spline"
                  fill="none"/>
         </g>
      </g>
      <g id="gaussian">
         <g>
            <path d="M2,-40.45413693438151 Q3.1277386374468,-41.31516129590726 4,-42.077471011710294 C4.927738637446801,-42.8882648946142 5.12527447664152,-43.08181181517738 6,-43.94992270928583 C6.925274476641521,-44.868200308102175 7.120473834617735,-45.08471156964394 8,-46.04722321820984 C8.920473834617736,-47.05454605053811 9.113552503373946,-47.289700983752866 10,-48.327332666828404 C10.913552503373944,-49.39669213285627 11.10483521134371,-49.64449420270507 12,-50.72942577177297 C12.90483521134371,-51.826077805042296 13.0947664050399,-52.078976157690654 14,-53.1752962275778 C14.894766405039901,-54.258939580152735 15.0839828280338,-54.50824429407608 16,-55.573788932799815 C16.8839828280338,-56.60207005237037 17.073454717410364,-56.83863263065372 18,-57.828242357120686 C18.87345471741036,-58.76114795841182 19.064688852762174,-58.976126070971894 20,-59.84604521670669 C20.86468885276217,-60.65027960474185 21.05987869907397,-60.835637519885516 22,-61.548583543276145 C22.85987869907397,-62.20067715981184 23.06156377120657,-62.34909769773603 24,-62.879466638765194 C24.861563771206566,-63.36639015145974 25.06694867210317,-63.488131958210566 26,-63.80923344043994 C26.86694867210317,-64.10758626981386 27.093130737965527,-64.0933330080354 28,-64.2560317756614 C28.893130737965528,-64.41626575477973 29.095959691717248,-64.47226546115878 30,-64.52686176653845 C30.89595969171725,-64.5809700717641 31.110401752796065,-64.6010901472144 32,-64.49759757700656 C32.91040175279607,-64.3916848038927 33.11852481472107,-64.32101629152825 34,-64.06151655915686 C34.918524814721074,-63.79110969169503 35.137597000131734,-63.732964730316624 36,-63.32002735515494 C36.93759700013173,-62.871085451830155 37.081657045963304,-62.64027910431145 38,-62.14622927363137 C38.8816570459633,-61.671915715323536 39.098099315133254,-61.60433317807948 40,-61.16810871295956 C40.89809931513326,-60.73372286544637 41.128422440638865,-60.693604252317826 42,-60.21153969000223 C42.92842244063886,-59.69803454902705 43.07836185441477,-59.48292869570928 44,-58.9557315945356 C44.87836185441477,-58.453289474873806 45.08644764357343,-58.35955362936652 46,-57.92345253259006 C46.886447643573426,-57.5002903712998 47.0933680122817,-57.4251189219304 48,-57.04625768772066 C48.8933680122817,-56.67293917224633 49.08991219480469,-56.58149553424902 50,-56.25194197773658 C50.88991219480469,-55.92969424833343 51.08674820657694,-55.8425615646629 52,-55.59781038568603 C52.88674820657694,-55.3601621592294 53.128665304130884,-55.45861375022139 54,-55.17994329899547 C54.92866530413088,-54.88293736021338 55.08877422446697,-54.67764848683232 56,-54.31852951900158 C56.888774224466964,-53.96825882792237 57.0848128859841,-53.87363472691576 58,-53.60352183475114 C58.8848128859841,-53.34237374383349 59.090022042971526,-53.28571230664695 60,-53.13794955659654 C60.89002204297153,-52.99342725948023 61.1033308463055,-53.063962773685695 62,-52.95399950771399 C62.903330846305494,-52.84321928325387 63.10288139650891,-52.80209165450784 64,-52.64740846674805 C64.90288139650892,-52.49173164538069 65.09965994066297,-52.43490996489731 66,-52.264310598542544 C66.89965994066297,-52.09384010328891 67.09625033480468,-52.03481981183882 68,-51.889475440951614 C68.89625033480468,-51.74533714017395 69.09937787697095,-51.73699130988634 70,-51.6210157726206 C70.89937787697095,-51.50520046027205 71.1014983412575,-51.496403577003434 72,-51.37438466403097 C72.9014983412575,-51.25195879360946 73.0969563176959,-51.185792459469916 74,-51.077805142856214 C74.8969563176959,-50.97054576242342 75.10216898855089,-50.997122415850534 76,-50.89605867059432 C76.90216898855088,-50.794506623856925 77.10728361091469,-50.78878785878887 78,-50.62754782731486 C78.90728361091469,-50.46367670344131 79.10679890805844,-50.404225429552596 80,-50.17358943648863 C80.90679890805843,-49.93944231267046 81.08460210817029,-49.77749136104792 82,-49.59469645646566 C82.8846021081703,-49.41805113162988 83.09861280977626,-49.45889246183539 84,-49.37483337111521 C84.89861280977627,-49.291033005946325 85.09868617885888,-49.254911614675294 86,-49.22167544337884 C86.89868617885888,-49.188536167045 87.10511768175787,-49.15818785220518 88,-49.22733237638121 C88.90511768175787,-49.29726775241077 89.10604029650466,-49.3621388951729 90,-49.53074188828014 C90.90604029650466,-49.70162331086459 91.1149122331994,-49.72682833784175 92,-49.98174218902941 C92.91491223319942,-50.24524577546652 93.12229314738198,-50.314031854237136 94,-50.682780638557404 C94.92229314738199,-51.070261351359854 95.09597981043078,-51.22989678032234 96,-51.66225218263545 C96.89597981043079,-52.09076220472668 97.13160625420036,-52.117966033812365 98,-52.59581491501149 C98.93160625420036,-53.108447587046484 99.10128103821432,-53.290932582967216 100,-53.86332230093348 C100.90128103821432,-54.43734379286553 101.11568312956807,-54.54419453429981 102,-55.1433953814522 C102.91568312956808,-55.763849570788594 103.1091883795073,-55.91756559243193 104,-56.573666826464105 C104.9091883795073,-57.243302924646706 105.09502202152204,-57.414033349592955 106,-58.08947834192949 C106.89502202152204,-58.75749254431342 107.05198122315537,-58.976786141798264 108,-59.55913170362069 C108.85198122315538,-60.08248366265251 109.10508725986895,-60.09220927069179 110,-60.54658394382781 C110.90508725986895,-61.006124533005604 111.11900414425946,-61.087141009400504 112,-61.590054508762506 C112.91900414425946,-62.11466491085028 113.08019458510782,-62.306905144705354 114,-62.829970391493994 C114.88019458510782,-63.330510169176655 115.07500386593688,-63.45591545309408 116,-63.86473234092095 C116.87500386593689,-64.25145434346328 117.08867876951898,-64.30298938305675 118,-64.59783459231446 C118.88867876951898,-64.885354150729 119.09135178123526,-64.94284589296828 120,-65.1588762690815 C120.89135178123526,-65.37079443121824 121.0917285307565,-65.44964957152503 122,-65.54883134398106 C122.8917285307565,-65.64620665436455 123.12266928667027,-65.72864143366557 124,-65.59566978650264 C124.92266928667028,-65.45582644923982 125.12174582464985,-65.2914476910201 126,-64.94257582303496 C126.92174582464985,-64.57642762052298 127.13158509005083,-64.48546512414441 128,-64.00673629650905 C128.93158509005082,-63.493183808069254 129.09021386386556,-63.292613911680796 130,-62.737506231756825 C130.89021386386557,-62.194340609662156 131.12396577406733,-62.13053700328196 132,-61.566128958689845 C132.92396577406734,-60.97083975608343 133.1009353717474,-60.79430535203895 134,-60.160401237982306 C134.90093537174738,-59.52517811752677 135.06129401865303,-59.31851180128893 136,-58.74584621532946 C136.861294018653,-58.22040645711298 137.11576370008046,-58.21020438964491 138,-57.720167139813526 C138.91576370008048,-57.21265763684053 139.0915311044506,-57.0503006844223 140,-56.52907565354195 C140.89153110445062,-56.01756851254397 141.04544034884168,-55.761652120183285 142,-55.42520675786168 C142.8454403488417,-55.12722172974721 143.1096310294378,-55.30356868944328 144,-55.11923034146179 C144.90963102943778,-54.9309040556374 145.08733572903816,-54.76114577231339 146,-54.59706312718193 C146.88733572903814,-54.437534154510764 147.10142608078763,-54.50138349625571 148,-54.400093413011504 C148.90142608078764,-54.298481825128434 149.09995840279512,-54.26010722777016 150,-54.14617052467686 C150.89995840279514,-54.03224435320431 151.09646016481568,-53.954616685309155 152,-53.893731469531836 C152.8964601648157,-53.833323318783904 153.1003089163232,-53.8633636829225 154,-53.8766297101763 C154.9003089163232,-53.889904847428944 155.10013092324706,-53.95586795809469 156,-53.95271183510173 C156.90013092324708,-53.94955479373102 157.09990333890434,-53.86487783867343 158,-53.862600456034805 C158.89990333890435,-53.86032356253098 159.1003986492373,-53.950735473839366 160,-53.94259122145185 C160.9003986492373,-53.93443975097823 161.10313889824224,-53.911716165855694 162,-53.82638773856561 C162.90313889824222,-53.74046203428378 163.10907425288164,-53.72942788084826 164,-53.56202648462537 C164.90907425288162,-53.39121505651828 165.08949802722168,-53.23353128329461 166,-53.07480368449898 C166.8894980272217,-52.919737698685104 167.098153668886,-52.93581952897319 168,-52.86470740771536 C168.898153668886,-52.79388645917183 169.1052519997132,-52.85571896651771 170,-52.75939686271818 C170.9052519997132,-52.66194397424772 171.09450947148147,-52.489013270511464 172,-52.43409631378204 C172.89450947148146,-52.379845345503256 173.10086901952656,-52.46460916061954 174,-52.51680147381105 C174.90086901952654,-52.569094675839196 175.09897959180435,-52.61811165751703 176,-52.66628634760351 C176.89897959180433,-52.7143519217407 177.0997937753636,-52.72109332192545 178,-52.73066872764144 C178.89979377536358,-52.74023974617478 179.10143006089308,-52.7499504005393 180,-52.708833957046465 C180.90143006089306,-52.6675866411188 181.10455542544346,-52.657403188269704 182,-52.547638151151446 C182.90455542544348,-52.43675629126805 183.1073824803125,-52.40249234160178 184,-52.218507519265 C184.90738248031252,-52.031479368069576 185.10802600363968,-51.9745752073015 186,-51.72316487663543 C186.90802600363966,-51.46723015347091 187.1060302111103,-51.39335648217342 188,-51.09107406630813 C188.9060302111103,-50.78471360036721 189.10237262903632,-50.701268717114864 190,-50.370625139288315 C190.90237262903634,-50.038233632245685 191.09851664538033,-49.952502129837114 192,-49.61766276659883 C192.89851664538034,-49.28392533278335 193.09561702403715,-49.20214527619835 194,-48.88489892361328 C194.89561702403714,-48.570727558449775 195.09420256937833,-48.49762947414446 196,-48.21451228271311 C196.89420256937834,-47.93501919578821 197.09420228821094,-47.87359794285789 198,-47.634653860599386 Q198.89420228821095,-47.39876858254099 200,-47.15933592645332"
                  class="spline"
                  fill="none"/>
         </g>
      </g>
      <text x="100" y="8" text-anchor="middle" font-size="5">Fake independent
                    variable</text>
      <text x="-10"
            y="-50"
            text-anchor="middle"
            font-size="5"
            writing-mode="tb">Fake
                    dependent variable</text>
      <text x="100" y="-106" text-anchor="middle" font-size="8">Smoothing examples (window                     = 25)</text>
   </g>
   <g transform="translate(50, 15)">
      <rect x="0"
            y="0"
            width="100"
            height="51"
            fill="ghostwhite"
            stroke="black"
            stroke-width="0.5"/>
      <rect x="2" y="2" width="5" height="5" fill="black"/>
      <rect x="2" y="9" width="5" height="5" fill="red"/>
      <rect x="2" y="16" width="5" height="5" fill="gray"/>
      <rect x="2" y="23" width="5" height="5" fill="blue"/>
      <rect x="2" y="30" width="5" height="5" fill="green"/>
      <rect x="2" y="37" width="5" height="5" fill="indigo"/>
      <rect x="2" y="44" width="5" height="5" fill="darkgoldenrod"/>
      <text x="10" y="6" fill="black" font-size="5">
         <tspan>Actual data (101 points)</tspan>
         <tspan x="10" dy="7" fill="red">Regression line (53.6–52.2)</tspan>
         <tspan x="10" dy="7" fill="gray">Y intercept of regression line (53.6)</tspan>
         <tspan x="10" dy="7" fill="blue">Rectangular kernel</tspan>
         <tspan x="10" dy="7" fill="green">Gaussian kernel (σ = 5)</tspan>
         <tspan x="10" dy="7" fill="indigo">Exponential kernel (y = 1 - 2<tspan dy="-2" font-size="4">-d</tspan>
            <tspan dy="2">)</tspan>
         </tspan>
         <tspan x="10" dy="7" fill="darkgoldenrod">Parabolic kernel (y = 1 - (d/N)<tspan dy="-2" font-size="4">2</tspan>
            <tspan dy="2" dx="-1">)</tspan>
         </tspan>
      </text>
   </g>
</svg>
