<?xml version="1.0" encoding="UTF-8"?>
<svg xmlns="http://www.w3.org/2000/svg" viewBox="-20 -115 234 195">
   <script type="text/javascript">
                window.addEventListener('DOMContentLoaded', init, false);
                function init() {
                    var rects = document.getElementsByClassName('toggle');
                    for (var i = 0; i &lt; rects.length; i++) {
                        rects[i].addEventListener('mouseover', emphasize, false);
                        rects[i].addEventListener('mouseout', deemphasize, false);
                    }
                }
                function emphasize() {
                    var target = this.id.substring(0, this.id.indexOf('-'));
                    document.getElementById(target).classList.add('highlight');
                }
                function deemphasize() {
                    var target = this.id.substring(0, this.id.indexOf('-'));
                    document.getElementById(target).classList.remove('highlight');
                }//</script>
   <style type="text/css">
                .spline {
                    stroke-width: 0.5;
                    stroke-opacity: 0.5;
                    fill: none;
                }
                .highlight .spline {
                    stroke-width: 1.5;
                    stroke-opacity: 0.75;
                }
                #rectangular {
                    stroke: blue;
                }
                #gaussian {
                    stroke: green;
                }
                #exponential {
                    stroke: indigo;
                }
                #parabolicUp {
                    stroke: fuchsia;
                }
                #parabolicDown {
                    stroke: darkgoldenrod;
                }
                #regression {
                    stroke: red;
                    stroke-width: 0.5;
                    stroke-opacity: 0.5;
                }
                #regression.highlight {
                    stroke-width: 1.5;
                    stroke-opacity: 0.75;
                }
                #data.highlight &gt; polyline {
                    stroke-width: 1.5;
                }</style>
   <g>
      <rect x="0"
            y="-100"
            width="200"
            height="100"
            stroke="lightgray"
            stroke-width="0.5"
            fill="none"/>
      <text x="-1"
            y="0"
            fill="lightgray"
            font-size="3"
            text-anchor="end"
            alignment-baseline="central">0.0</text>
      <text x="-1"
            y="-100"
            fill="lightgray"
            font-size="3"
            text-anchor="end"
            alignment-baseline="central">100.0</text>
      <text x="-1"
            y="-58.863146383205454"
            fill="red"
            fill-opacity="0.5"
            font-size="3"
            text-anchor="end"
            alignment-baseline="central">58.9</text>
      <text x="208"
            y="-100"
            font-size="3"
            fill="lightgray"
            text-anchor="end"
            alignment-baseline="central">100.0</text>
      <text x="208"
            y="0"
            font-size="3"
            fill="lightgray"
            text-anchor="end"
            alignment-baseline="central">0.0</text>
      <text x="208"
            y="-39.74101293054663"
            fill="red"
            fill-opacity="0.5"
            font-size="3"
            text-anchor="end"
            alignment-baseline="central">39.7</text>
      <polyline points="0,-49.99991159163257 0.4000000000000057,-54.99162248393219 0.7999999999999972,-59.933457851036025 1.2000000000000028,-64.7760405075099 1.5999999999999943,-69.470984968195 2,-73.97138089998278 2.4000000000000057,-78.23226183435574 2.799999999999997,-82.21105445747753 3.200000000000003,-85.8680039886721 3.5999999999999943,-89.16657139705036 4,-92.07379848742939 4.400000000000006,-94.56063720772356 4.799999999999997,-96.60223988747914 5.200000000000003,-98.17820750758436 5.599999999999994,-99.2727935205246 6,-99.87506118468069 6.400000000000006,-99.97899284063554 6.799999999999997,-99.58355003763812 7.200000000000003,-98.69268390945993 7.599999999999994,-97.31529569597262 8,-95.46514780490124 8.400000000000006,-93.16072630239583 8.799999999999997,-90.42505620636905 9.200000000000003,-87.2854714281279 9.599999999999994,-83.77334166096806 10,-79.92375894456698 10.400000000000006,-75.7751870369242 10.799999999999997,-71.36907709720549 11.200000000000003,-66.74945351946192 11.599999999999994,-61.96247405543809 12,-57.05596862157316 12.400000000000006,-52.07896139828741 12.799999999999997,-47.08118099657623 13.200000000000003,-42.11256358616663 13.599999999999994,-37.22275394981719 14,-32.46060944905783 14.400000000000006,-27.87371185758461 14.799999999999997,-23.507891939904937 15.200000000000003,-19.406771525487766 15.599999999999994,-15.611327653864063 16,-12.15948314559189 16.400000000000006,-9.085727689969945 16.799999999999997,-6.420773235462435 17.200000000000003,-4.191247126061786 17.599999999999994,-2.419426049669928 18,-1.123013456795881 18.400000000000006,-0.31496267353066965 18.799999999999997,-0.003347476194619978 19.200000000000003,-0.1912814208331931 19.599999999999994,-0.8768867335942497 20,-2.053313072823724 20.400000000000006,-3.708805975414855 20.799999999999997,-5.826824303518074 21.200000000000003,-8.386205518122889 21.599999999999994,-11.361377128151748 22,-14.722612202338423 22.400000000000006,-18.436326390898145 22.799999999999997,-22.465413489249364 23.200000000000003,-26.769616190944774 23.599999999999994,-31.30592832536897 24,-36.02902456118055 24.400000000000006,-40.89171328203914 24.799999999999997,-45.84540810963695 25.200000000000003,-50.840613362730764 25.599999999999994,-55.827418601626654 26,-60.75599731679657 26.400000000000006,-65.57710477888986 26.799999999999997,-70.24257007579139 27.200000000000003,-74.70577742045263 27.599999999999994,-78.9221319204256 28,-82.84950515528837 28.400000000000006,-86.44865610989503 28.799999999999997,-89.68362325762817 29.200000000000003,-92.52208387608582 29.599999999999994,-94.93567700503849 30,-96.9002868197697 30.400000000000006,-98.39628358842417 30.799999999999997,-99.40871980580032 31.200000000000003,-99.92747954388108 31.599999999999994,-99.94737952684268 32,-99.46822092063346 32.400000000000006,-98.49479131965784 32.8,-97.03681691071581 33.2,-95.10886529215915 33.599999999999994,-92.73019991926452 34,-89.9245876301555 34.400000000000006,-86.72006117541281 34.8,-83.14863912409677 35.2,-79.2460059447887 35.599999999999994,-75.05115545817752 36,-70.60600122369193 36.4,-65.9549577530705 36.8,-61.144496735241056 37.2,-56.222682706566644 37.6,-51.238692805886544 38,-46.242325412800255 38.4,-41.28350257871999 38.8,-36.41177122223502 39.2,-31.675808072678944 39.6,-27.12293330834103 40,-22.798637748886158 40.4,-18.746128326122324 40.8,-15.00589637462028 41.2,-11.615313055683057 41.6,-8.608255957055775 42,-6.0147705992669325 42.4,-3.8607702307192673 42.8,-2.167776911077452 43.2,-0.9527064699621499 43.6,-0.2276994895721372 44,-0 44.4,-0.27188309927810167 44.8,-1.0406322213510508 45.2,-2.2985662791058075 45.6,-4.033116411254947 46,-6.226951566244104 46.4,-8.858151668390104 46.8,-11.90042663603143 47.2,-15.32337906333387 47.6,-19.09280794112134 48,-23.171050382054567 48.4,-27.517357935751466 48.8,-32.08830373383376 49.2,-36.8382163968409 49.6,-41.71963636755632 50,-46.68379011121562 50.4,-51.68107744454323 50.8,-56.6615671243881 51.2,-61.57549574420031 51.6,-66.37376495353936 52,-71.00843203256257 52.4,-75.43318891983355 52.8,-79.60382490716492 53.2,-83.47866837840023 53.6,-87.01900317842772 54,-90.18945545220474 54.4,-92.95834708862382 54.8,-95.29801223772782 55.2,-97.18507373873733 55.6,-98.60067669691385 56,-99.53067687543542 56.4,-99.96578201993542 56.8,-99.90164470363668 57.2,-99.33890576540261 57.6,-98.28318790668736 58,-96.74503951136127 58.4,-94.73982924974618 58.8,-92.2875925199417 59.2,-89.41283126075038 59.6,-86.14426913640438 60,-82.51456453920714 60.4,-78.55998427767301 60.8,-74.32004121056485 61.2,-69.83709944747025 61.6,-65.15595106062268 62,-60.32336853732155 62.4,-55.38763744470025 62.8,-50.39807397630048 63.2,-45.404532200968006 63.6,-40.45690593747668 64,-35.6046302319834 64.4,-30.89618741938829 64.8,-26.378622703870775 65.2,-22.097074098759627 65.6,-18.094321422425633 66,-14.410358856476297 66.4,-11.08199533711463 66.8,-8.142486772415483 67.2,-5.621203760284772 67.6,-3.543338127154541 68,-1.9296512195798132 68.4,-0.7962664637271795 68.8,-0.15450826542995513 69.2,-0.010788860468418213 69.6,-0.3665442456296336 70,-1.2182198307021967 70.4,-2.5573059547665773 70.8,-4.370422911914063 71.2,-6.6394546368457625 71.6,-9.341729714608148 72,-12.450247905877799 72.4,-15.933949924426967 72.8,-19.75802777124493 73.2,-23.884272524558643 73.6,-28.27145611074787 74,-32.87574324162981 74.4,-37.651129402167506 74.8,-42.549900512377484 75.2,-47.523109670645304 75.6,-52.52106621498559 76,-57.493832215712416 76.4,-62.391721438724254 76.8,-67.16579579393152 77.2,-71.76835430847649 77.6,-76.15340973908505 78,-80.27714806140153 78.4,-84.09836624523578 78.8,-87.57888394162165 79.2,-90.68392496824326 79.6,-93.3824647815525 80,-95.64754046375364 80.4,-97.45652012736448 80.8,-98.79132904555539 81.2,-99.63863024884506 81.6,-99.98995778369067 82,-99.84180130149753 82.4,-99.19564113286167 82.8,-98.05793349659598 83.2,-96.44004599132582 83.6,-94.35814401420146 84,-91.83302924159287 84.4,-88.88993178561607 84.8,-85.55825810319261 85.2,-81.87129717645216 85.6,-77.86588790022769 86,-73.58205099999469 86.4,-69.06258915801222 86.8,-64.35265934307009 87.2,-59.49932161698304 87.6,-54.551068926010345 88,-49.55734257536495 88.4,-44.568038228036244 88.8,-39.63300736381816 89.2,-34.801559179801295 89.6,-30.121967909176252 90,-25.640990481051578 90.4,-21.403399340675048 90.8,-17.45153509796005 91.2,-13.824883474106876 91.6,-10.559680773329678 92,-7.688551821681882 92.4,-5.2401839905794265 92.8,-3.2390405620679426 93.2,-1.7051162997949072 93.6,-0.6537376679411158 94,-0.09540969425641115 94.4,-0.03571100729519992 94.8,-0.4752380966038116 95.2,-1.4095993527942499 95.6,-2.829458947053358 96,-4.720630111658588 96.4,-7.064216889471219 96.8,-9.83680293609405 97.2,-13.010685488244503 97.6,-16.554152160607362 98,-20.431797805506974 98.4,-24.60487826943862 98.8,-29.03169751184352 99.2,-33.668024218163794 99.6,-38.467533744515386 100,-43.38227097821826 100.4,-48.36312948942921 100.8,-53.36034218635699 101.2,-58.323978571593116 101.6,-63.20444363113601 102,-67.95297337137833 102.4,-72.52212205281067 102.8,-76.8662362521677 103.2,-80.94191101634301 103.6,-84.70842355033163 104,-88.12814010593775 104.4,-91.16689200574557 104.8,-93.79431704524997 105.2,-95.98416286196769 105.6,-97.71454924036465 106,-98.96818673173777 106.4,-99.73254940467064 106.8,-99.99999999999999 107.2,-99.76786623978475 107.6,-99.03846752782377 108,-97.81909177493976 108.4,-96.12192258058352 108.8,-93.96391749833559 109.2,-91.36663860163601 109.6,-88.35603704267452 110,-84.96219375705549 110.4,-81.21901890503348 110.8,-77.16391305240097 111.2,-72.83739347639737 111.6,-68.2826893304692 112,-63.54530971285724 112.4,-58.67258895473132 112.8,-53.71321367119946 113.2,-48.71673630074289 113.6,-43.73307999363169 114,-38.81203979630844 114.4,-34.002785115745326 114.8,-29.353368434982503 115.2,-24.91024518860097 115.6,-20.717809595377624 116,-16.817951085924694 116.4,-13.249635757346962 116.8,-10.048517036879456 117.2,-7.246579444627692 117.6,-4.871819014816227 118,-2.9479635686681345 118.4,-1.4942356338593685 118.8,-0.5251603793759801 119.2,-0.0504204848270241 119.6,-0.0747593943107212 120,-0.5979339214888733 120.4,-1.6147166794244434 120.8,-3.114948310903767 121.2,-5.08363899737585 121.6,-7.5011182322639485 122,-10.34323136216562 122.4,-13.581580932164503 122.8,-17.18381042381308 123.2,-21.113927550769812 123.6,-25.332663881825873 124,-29.79786719809046 124.4,-34.46492266402731 124.8,-39.28719860414402 125.2,-44.21651243127977 125.6,-49.20361207108801 126,-54.198668072484075 126.4,-59.15177148704784 126.8,-64.01343254273911 127.2,-68.73507512934124 127.6,-73.26952215489612 128,-77.5714669236136 128.4,-81.5979258253984 128.8,-85.30866781387422 129.2,-88.6666163817002 129.6,-91.63822001677734 130,-94.19378743786524 130.4,-96.30778426005068 130.8,-97.95908812588081 131.2,-99.13119975297667 131.6,-99.8124077894091 132,-99.9959058296554 132.4,-99.67986042195379 132.8,-98.86742938754733 133.2,-97.56673026877792 133.6,-95.79075922128615 134,-93.55726116072066 134.4,-90.8885524614063 134.8,-87.81129797850885 135.2,-84.35624462161657 135.6,-80.5579141417822 136,-76.45425820159944 136.4,-72.08627917473422 136.8,-67.49762046376111 137.2,-62.73413042971158 137.6,-57.84340429040473 138,-52.87430856476572 138.4,-47.87649281472048 138.8,-42.899893563185216 139.2,-37.994235344836625 139.6,-33.20853387499673 140,-28.59060630080995 140.4,-24.186593428113653 140.8,-20.04049869775871 141.2,-16.193748517774395 141.6,-12.684778344392015 142,-9.548648647672962 142.4,-6.816694598880209 142.8,-4.5162129798053465 143.2,-2.6701894423481685 143.6,-1.297068843480433 144,-0.4105709503328467 144.4,-0.019553356816507182 144.8,-0.12792298147258685 145.2,-0.7345970308336968 145.6,-1.8335138183384954 146,-3.4136933306998007 146.4,-5.459346936567991 146.8,-7.950035141316411 147.2,-10.860871811715057 147.6,-14.162772829948395 148,-17.822746692505397 148.4,-21.804224150377912 148.8,-26.067423596908338 149.2,-30.569748552453 149.6,-35.266213274327484 150,-40.109892239475336 150.4,-45.05238900878421 150.8,-50.04431978830738 151.2,-55.0358068558084 151.6,-59.9769769224758 152,-64.81845945033673 152.4,-69.51187994635416 152.8,-74.01034330437041 153.2,-78.26890236550618 153.6,-82.2450070153157 154,-85.89892933046319 154.4,-89.19416052700181 154.8,-92.09777574407441 155.2,-94.58076301823938 155.6,-96.61831316142009 156,-98.19006764611022 156.4,-99.28032202105172 156.8,-99.8781828249203 157.2,-99.9776764301903 157.6,-99.57780872964604 158,-98.68257506917266 158.4,-97.3009203275807 158.8,-95.44664954233382 159.2,-93.13828997417794 159.6,-90.39890598887553 160,-87.25586860568795 160.4,-83.74058201519793 160.8,-79.88816979901846 161.2,-75.7371239865757 161.6,-71.32892045547369 162,-66.7076045182371 162.4,-61.9193508361069 162.8,-57.01200205708867 163.2,-52.03459078802891 163.6,-47.036849677013905 164,-42.06871450119174 164.4,-37.17982522499205 164.8,-32.41903001401073 165.2,-27.83389716028651 165.6,-23.47023979564978 166,-19.371658142054955 166.4,-15.579103872573793 166.8,-12.13047093581519 167.2,-9.06021693211695 167.6,-6.399018824592546 168,-4.173466425057468 168.4,-2.405796717418048 168.8,-1.1136716730791034 169.2,-0.3100017783639643 169.6,-0.002817037202549067 170,-0.19518673798684763 170.4,-0.8851887862555952 170.8,-2.0659289096268423 171.2,-3.725609543088518 171.6,-5.847647706368787 172,-8.41084069559261 172.4,-11.389577933690616 172.8,-14.75409686281934 173.2,-18.470780322000753 173.6,-22.502492438683447 174,-26.808949678104113 174.4,-31.34712334305197 174.8,-36.07166950238761 175.2,-40.935382052613924 175.6,-45.889664385659366 176,-50.88501495011981 176.4,-55.87152185439852 176.8,-60.79936156982797 177.2,-65.6192967508985 177.6,-70.28316819854027 178,-74.74437605091903 178.4,-78.95834539385307 178.8,-82.88297163862084 179.2,-86.47904121709333 179.6,-89.71062339074554 180,-92.5454292587171 180.4,-94.95513437783747 180.8,-96.915661771099 181.2,-98.40742249685235 181.6,-99.4155113750365 182,-99.92985591481045 182.4,-99.94531695555239 182.8,-99.46174001565406 183.2,-98.48395683604964 183.6,-97.02173710305753 184,-95.08969083290422 184.4,-92.70712239327149 184.8,-89.89783762043577 185.2,-86.68990595922135 185.6,-83.11538000238545 186,-79.20997523170776 186.4,-75.01271316070174 186.8,-70.5655314445505 187.2,-65.91286485291933 187.6,-61.10120129242405 188,-56.17861731483694 188.4,-51.194297752072146 188.8,-46.19804427760381 189.2,-41.23977780460736 189.6,-36.36903969269527 190,-31.634496747030173 190.4,-27.083454955693337 190.8,-22.76138682388939 191.2,-18.71147702770582 191.6,-14.974190927103326 192,-11.586870249416895 192.4,-8.583359983158624 192.8,-5.993670210080465 193.2,-3.8436762543575274 193.6,-2.154860144901584 194,-0.9440959740300957 194.4,-0.22348129711299344 194.8,-0.0002162577984843781 195.2,-0.27653164655775725 195.6,-1.049666611364088 196,-2.311896243213573 196.4,-4.050608760862416 196.8,-6.248431523576214 197.2,-8.88340461281334 197.6,-11.92920024847281 198,-15.355385847369128 198.4,-19.127728095544498 198.8,-23.2085349962257 199.2,-27.557032475796248 199.6,-32.129771784863024 200,-36.881063623796194"
                stroke="lightgray"
                stroke-width="0.5"
                fill="none"/>
      <circle cx="0" cy="-70.42952722394915" r="0.65" fill="black"/>
      <circle cx="4" cy="-100" r="0.65" fill="black"/>
      <circle cx="8" cy="-57.57252530674713" r="0.65" fill="black"/>
      <circle cx="12" cy="-81.68983919378148" r="0.65" fill="black"/>
      <circle cx="16" cy="-61.037837947474074" r="0.65" fill="black"/>
      <circle cx="20" cy="-67.91921122760728" r="0.65" fill="black"/>
      <circle cx="24" cy="-56.102188238411394" r="0.65" fill="black"/>
      <circle cx="28" cy="-76.0232232318335" r="0.65" fill="black"/>
      <circle cx="32" cy="-46.27493726021951" r="0.65" fill="black"/>
      <circle cx="36" cy="-47.85934876490787" r="0.65" fill="black"/>
      <circle cx="40" cy="-20.25281826183215" r="0.65" fill="black"/>
      <circle cx="44" cy="-3.029371152164903" r="0.65" fill="black"/>
      <circle cx="48" cy="-53.96655452156905" r="0.65" fill="black"/>
      <circle cx="52" cy="-90.74179720259693" r="0.65" fill="black"/>
      <circle cx="56" cy="-48.80734355888582" r="0.65" fill="black"/>
      <circle cx="60" cy="-20.893571321655987" r="0.65" fill="black"/>
      <circle cx="64" cy="-20.288725748425453" r="0.65" fill="black"/>
      <circle cx="68" cy="-19.94085694959213" r="0.65" fill="black"/>
      <circle cx="72" cy="-31.783799438269263" r="0.65" fill="black"/>
      <circle cx="76" cy="-59.271871460831605" r="0.65" fill="black"/>
      <circle cx="80" cy="-88.63804263986223" r="0.65" fill="black"/>
      <circle cx="84" cy="-26.73891111528426" r="0.65" fill="black"/>
      <circle cx="88" cy="-22.08673983466655" r="0.65" fill="black"/>
      <circle cx="92" cy="-43.71791632632813" r="0.65" fill="black"/>
      <circle cx="96" cy="-64.32885080561597" r="0.65" fill="black"/>
      <circle cx="100" cy="-68.07948606401683" r="0.65" fill="black"/>
      <circle cx="104" cy="-91.40832681947772" r="0.65" fill="black"/>
      <circle cx="108" cy="-82.99910824229882" r="0.65" fill="black"/>
      <circle cx="112" cy="-68.14109085741978" r="0.65" fill="black"/>
      <circle cx="116" cy="-17.125416103375755" r="0.65" fill="black"/>
      <circle cx="120" cy="-0" r="0.65" fill="black"/>
      <circle cx="124" cy="-52.91752438908456" r="0.65" fill="black"/>
      <circle cx="128" cy="-46.69777788630131" r="0.65" fill="black"/>
      <circle cx="132" cy="-98.26193980930131" r="0.65" fill="black"/>
      <circle cx="136" cy="-26.630452753953417" r="0.65" fill="black"/>
      <circle cx="140" cy="-79.5743648663263" r="0.65" fill="black"/>
      <circle cx="144" cy="-8.455560735520304" r="0.65" fill="black"/>
      <circle cx="148" cy="-6.234111087111041" r="0.65" fill="black"/>
      <circle cx="152" cy="-83.00628799503018" r="0.65" fill="black"/>
      <circle cx="156" cy="-37.24280893220006" r="0.65" fill="black"/>
      <circle cx="160" cy="-53.80292914287013" r="0.65" fill="black"/>
      <circle cx="164" cy="-48.31385283088248" r="0.65" fill="black"/>
      <circle cx="168" cy="-1.6524048031534297" r="0.65" fill="black"/>
      <circle cx="172" cy="-38.94396122748825" r="0.65" fill="black"/>
      <circle cx="176" cy="-56.414390709452356" r="0.65" fill="black"/>
      <circle cx="180" cy="-25.868550147565394" r="0.65" fill="black"/>
      <circle cx="184" cy="-39.863480467543795" r="0.65" fill="black"/>
      <circle cx="188" cy="-70.323566741922" r="0.65" fill="black"/>
      <circle cx="192" cy="-49.69987313142557" r="0.65" fill="black"/>
      <circle cx="196" cy="-20.147545149613652" r="0.65" fill="black"/>
      <circle cx="200" cy="-63.205442874832556" r="0.65" fill="black"/>
      <g id="data">
         <polyline points="0,-70.42952722394915 4,-100 8,-57.57252530674713 12,-81.68983919378148 16,-61.037837947474074 20,-67.91921122760728 24,-56.102188238411394 28,-76.0232232318335 32,-46.27493726021951 36,-47.85934876490787 40,-20.25281826183215 44,-3.029371152164903 48,-53.96655452156905 52,-90.74179720259693 56,-48.80734355888582 60,-20.893571321655987 64,-20.288725748425453 68,-19.94085694959213 72,-31.783799438269263 76,-59.271871460831605 80,-88.63804263986223 84,-26.73891111528426 88,-22.08673983466655 92,-43.71791632632813 96,-64.32885080561597 100,-68.07948606401683 104,-91.40832681947772 108,-82.99910824229882 112,-68.14109085741978 116,-17.125416103375755 120,-0 124,-52.91752438908456 128,-46.69777788630131 132,-98.26193980930131 136,-26.630452753953417 140,-79.5743648663263 144,-8.455560735520304 148,-6.234111087111041 152,-83.00628799503018 156,-37.24280893220006 160,-53.80292914287013 164,-48.31385283088248 168,-1.6524048031534297 172,-38.94396122748825 176,-56.414390709452356 180,-25.868550147565394 184,-39.863480467543795 188,-70.323566741922 192,-49.69987313142557 196,-20.147545149613652 200,-63.205442874832556"
                   stroke="black"
                   stroke-width="0.5"
                   fill="none"
                   id="black"/>
      </g>
      <g id="regression">
         <g>
            <line x1="0"
                  y1="-58.863146383205454"
                  x2="200"
                  y2="-39.74101293054663"
                  class="regression"/>
         </g>
      </g>
      <g id="rectangular">
         <g>
            <path d="M0,-50.85605432596438 Q2.4,-50.85605432596438 4,-50.85605432596438 C5.6,-50.85605432596438 6.4,-50.85605432596438 8,-50.85605432596438 C9.6,-50.85605432596438 10.4,-50.85605432596438 12,-50.85605432596438 C13.6,-50.85605432596438 14.4,-50.85605432596438 16,-50.85605432596438 C17.6,-50.85605432596438 18.4,-50.85605432596438 20,-50.85605432596438 C21.6,-50.85605432596438 22.4,-50.85605432596438 24,-50.85605432596438 C25.6,-50.85605432596438 26.40721252863182,-50.963478931204115 28,-50.85605432596438 C29.60721252863182,-50.74765683130282 30.40372414007641,-50.557041196613454 32,-50.31649907621114 C33.60372414007641,-50.07483457768716 34.39564646647279,-49.88742741437447 36,-49.650537778648655 C37.595646466472786,-49.41493377847614 38.395633128391424,-49.29839508355158 40,-49.13526498646531 C41.59563312839142,-48.97302292590244 42.39791638710939,-48.91140704315467 44,-48.8371073845258 C45.59791638710939,-48.76300098887677 46.40086941813663,-48.81885877191929 48,-48.76424985077057 C49.60086941813663,-48.70958154987262 50.405556955612404,-48.70634921513719 52,-48.563914329409116 C53.60555695561241,-48.420486615068654 54.39964502963526,-48.252522337448035 56,-48.04959335059924 C57.599645029635255,-47.84675438599902 58.39799293723776,-47.731904959978365 60,-47.549494450786575 C61.59799293723776,-47.367541004923595 62.39629973023311,-47.249302390968474 64,-47.13868346296232 C65.59629973023311,-47.02857500425353 66.3995839957586,-47.01451361796544 68,-46.99767598399922 C69.5995839957586,-46.98084710341603 70.40513486202222,-46.95182981503092 72,-47.05451717658879 C73.60513486202223,-47.15786576701231 74.39669157706787,-47.36550553282256 76,-47.5127658639527 C77.59669157706786,-47.65941845243079 78.39811942276836,-47.74046408667438 80,-47.78929947560936 C81.59811942276836,-47.83802020091482 82.40193882546033,-47.70709796304827 84,-47.7566561495538 C85.60193882546034,-47.80633458761827 86.4040351821703,-47.88328012831067 88,-48.037391037034354 C89.6040351821703,-48.192281243126224 90.40202696805602,-48.31717099740018 92,-48.529158936592665 C93.60202696805602,-48.74168467307261 94.39958800242486,-48.87380087275038 96,-49.09867522621543 C97.59958800242487,-49.32343379988317 98.39393473511434,-49.491865362766106 100,-49.653241254424636 C101.59393473511435,-49.81339828212979 102.39862168815759,-49.8692175842947 104,-49.902507524624646 C105.59862168815759,-49.935740159421414 106.40365247826469,-49.91433551501516 108,-49.81954769224141 C109.60365247826469,-49.72432611621816 110.41049444142186,-49.65710780839715 112,-49.427484027632154 C113.61049444142186,-49.1948281425712 114.39337601860159,-48.92916532526421 116,-48.66384852767652 C117.59337601860159,-48.40071948970435 118.39230498133016,-48.21843353453532 120,-48.10636943873251 C121.59230498133016,-47.99537810274969 122.4000162748102,-48.11134485626354 124,-48.10620994821244 C125.6000162748102,-48.10107493569821 126.40105014005894,-48.12710172883928 128,-48.08069463731916 C129.60105014005893,-48.03422658835811 130.40776871272104,-48.034131172490696 132,-47.87402209700951 C133.60776871272103,-47.71235063367502 134.4006892451252,-47.51987929272673 136,-47.27624329027997 C137.60068924512518,-47.03239729121249 138.40564075188263,-46.935768406989034 140,-46.65531709322392 C141.60564075188262,-46.37288133802509 142.39404440677436,-46.14941501881006 144,-45.869025617870115 C145.59404440677437,-45.590715832610485 146.39342759204808,-45.446493571099076 148,-45.25856912772498 C149.59342759204807,-45.07218226348505 150.40406683575014,-45.10188568900201 152,-44.933247348835046 C153.60406683575013,-44.763749543565154 154.40140604741316,-44.63153281725685 156,-44.41322876413284 C157.60140604741315,-44.1945406912286 158.40100735343336,-44.07658241160765 160,-43.840767033764436 C161.60100735343337,-43.60465453206512 162.39842703313988,-43.46549715179204 164,-43.2334090652765 C165.59842703313987,-43.00177686416396 166.3979014430958,-42.69821267558969 168,-42.68146631469422 C169.5979014430958,-42.66476382524615 170.39455415645676,-43.05580401436667 172,-43.149786939417645 C173.59455415645675,-43.24313226425604 174.4,-43.149786939417645 176,-43.149786939417645 C177.6,-43.149786939417645 178.4,-43.149786939417645 180,-43.149786939417645 C181.6,-43.149786939417645 182.4,-43.149786939417645 184,-43.149786939417645 C185.6,-43.149786939417645 186.4,-43.149786939417645 188,-43.149786939417645 C189.6,-43.149786939417645 190.4,-43.149786939417645 192,-43.149786939417645 C193.6,-43.149786939417645 194.4,-43.149786939417645 196,-43.149786939417645 Q197.6,-43.149786939417645 200,-43.149786939417645"
                  class="spline"
                  fill="none"/>
         </g>
      </g>
      <g id="gaussian">
         <g>
            <path d="M0,-68.62895370462489 Q2.213434723864367,-67.85741031285254 4,-67.16325317671718 C5.813434723864367,-66.45865610920396 6.213918396526201,-66.29203748605778 8,-65.52061102985026 C9.8139183965262,-64.73716158512148 10.21308657649541,-64.5513942523496 12,-63.70797339685873 C13.813086576495412,-62.85219884655758 14.21065492397815,-62.649209595337474 16,-61.74462123920134 C17.81065492397815,-60.82925986863069 18.206638975563074,-60.61262878603371 20,-59.663640670843655 C21.80663897556307,-58.7076262973369 22.201442733994515,-58.48251531254093 24,-57.511282375430646 C25.801442733994516,-56.5384912663328 26.195830922144843,-56.311276997000114 28,-55.34358723482558 C29.79583092214484,-54.380369751893234 30.301689603415483,-54.332756156984814 32,-53.22037738630424 C33.901689603415484,-51.974786976260454 34.22053198718444,-51.531772327529225 36,-50.103655722104776 C37.82053198718444,-48.642583119012166 38.030950497568156,-47.999547687129855 40,-46.79995692293299 C41.63095049756815,-45.80634393792235 42.160515235007956,-45.810687846990206 44,-45.22986961275477 C45.76051523500796,-44.67398604709429 46.222402508103904,-44.78257195384215 48,-44.27395292316427 C49.822402508103906,-43.75251395770532 50.20340713908472,-43.55078362229757 52,-42.9408518435618 C53.80340713908471,-42.32860666099643 54.156253519839325,-41.99253624018901 56,-41.55800412027285 C57.756253519839326,-41.14409224393966 58.19351336724402,-41.200838106345984 60,-41.05542074078547 C61.793513367244024,-40.911047688567365 62.22306903707996,-40.73912481219571 64,-40.91402541409814 C65.82306903707996,-41.09346731620276 66.25635489707743,-41.255840037065035 68,-41.842848527467815 C69.85635489707744,-42.467801440167065 70.27233047743476,-42.67784976556895 72,-43.6072729765471 C73.87233047743476,-44.61451850679518 74.22301941267904,-44.969119711893924 76,-46.14655684130387 C77.82301941267903,-47.35449955009818 78.03887772345482,-48.057846806447664 80,-48.90811706144545 C81.63887772345481,-49.61867396883368 82.19203308654635,-49.55891446371645 84,-49.61506164660614 C85.79203308654634,-49.670713997711665 86.23978471943877,-48.969813606204234 88,-49.15656047032371 C89.83978471943877,-49.351749110488555 90.2035349541351,-49.86494168316164 92,-50.46380721168241 C93.80353495413509,-51.065029548849445 94.25759133758656,-51.07637363928577 96,-51.823422394074385 C97.85759133758656,-52.6198551285903 98.09474159762593,-53.34690639029485 100,-53.89376607680359 C101.69474159762594,-54.380201857711945 102.21277526067597,-53.909128043513284 104,-54.11963454389015 C105.81277526067596,-54.33315048718388 106.24608370541829,-55.011059388338936 108,-54.83603817384937 C109.8460837054183,-54.651819683394685 110.28079103320161,-54.168600692502686 112,-53.321324088458475 C113.8807910332016,-52.39441510281291 114.0615991774866,-51.40974674322233 116,-50.89340353009431 C117.6615991774866,-50.450793597066195 118.21033922810851,-51.2759643746036 120,-51.19031709700041 C121.81033922810852,-51.103680216502724 122.2070962314031,-50.85355389845893 124,-50.51054984542568 C125.80709623140311,-50.16483060357398 126.21892578662553,-50.11658025158636 128,-49.659820886144985 C129.81892578662553,-49.193354423464605 130.27486638091483,-49.18046252296086 132,-48.45893689404399 C133.87486638091482,-47.67478653626357 134.16667371161705,-47.210921070312736 136,-46.313874249039905 C137.76667371161705,-45.449440543335406 138.14499063289384,-45.17825088154547 140,-44.544535722983255 C141.74499063289383,-43.9484055711776 142.21124328772953,-44.05681027945652 144,-43.58088467044464 C145.81124328772952,-43.09897617004986 146.1633739179345,-42.68326981846999 148,-42.416015479857336 C149.76337391793453,-42.159420337946685 150.21799672208627,-42.236621901687805 152,-42.41677471372619 C153.81799672208626,-42.60056630705247 154.1915594414781,-43.17460143157328 156,-43.22478082511213 C157.79155944147809,-43.27449181275755 158.21336722050094,-42.97385137242324 160,-42.63875333858013 C161.81336722050094,-42.298641035034585 162.19273027585504,-42.10091068376797 164,-41.72431340869289 C165.79273027585504,-41.350745851060616 166.1871420450458,-41.070700125431706 168,-40.97172037700823 C169.78714204504578,-40.87414468469751 170.2010993763579,-41.13264251467746 172,-41.28752354039468 C173.80109937635788,-41.44259387344297 174.2011357427419,-41.481262316930916 176,-41.66050117426493 C177.8011357427419,-41.839966362441274 178.2009906433494,-41.884858828335936 180,-42.08464364152881 C181.8009906433494,-42.2846484819225 182.20068577723166,-42.33424909260995 184,-42.54892262667952 C185.80068577723165,-42.763759798895265 186.20029369373762,-42.81615600614864 188,-43.03911187771838 C189.80029369373761,-43.26214051754261 190.19990413650729,-43.31536817855001 192,-43.539999318666126 C193.79990413650728,-43.764606533472374 194.1995894837542,-43.81693245519836 196,-44.03741933310142 Q197.7995894837542,-44.25780566344096 200,-44.519717559205226"
                  class="spline"
                  fill="none"/>
         </g>
      </g>
      <g id="exponential">
         <g>
            <path d="M0,-76.38329743914751 Q2.678395696928657,-80.74248074601844 4,-79.9556031755143 C6.278395696928658,-78.59905608613218 5.487313771428831,-74.2127306288519 8,-71.62013152828918 C9.087313771428832,-70.49823708966727 10.618236022562655,-72.55512128193686 12,-71.70117308843734 C14.218236022562655,-70.33027424091053 13.87928126335571,-68.54304399224891 16,-66.67602699267509 C17.47928126335571,-65.37371225469794 18.367419429321902,-65.80999725747516 20,-64.65821367165739 C21.9674194293219,-63.270201682656 21.9657584078904,-62.240562897564274 24,-61.032036826410284 C25.565758407890403,-60.10183273246009 26.94575585652102,-61.26673552051893 28,-59.90547997142587 C30.545755856521023,-56.618362553927504 30.006738620234174,-54.74711461554312 32,-50.702319122873796 C33.606738620234175,-47.441869091084975 34.387452067230214,-46.929480444439285 36,-43.671601028185556 C37.98745206723021,-39.65629143704759 37.50468450000183,-37.969880597277296 40,-34.53967688422559 C41.10468450000183,-33.021114252101626 43.12045490393237,-31.444438742213304 44,-32.67434248335074 C46.720454903932364,-36.47846540882814 45.90103940585796,-39.96542643725483 48,-45.72640281003635 C49.50103940585795,-49.846276511284344 50.226259746190834,-54.70184272127567 52,-54.63178709230524 C53.826259746190836,-54.559657153940236 54.3287530292383,-49.61156803344255 56,-45.41043488262428 C57.9287530292383,-40.56199031839502 57.58235622174828,-39.0280525259747 60,-34.52161439219961 C61.18235622174828,-32.317726783394946 61.92469635554917,-31.23835499409169 64,-30.49859989911372 C65.52469635554917,-29.955112250774768 66.78300850028549,-30.409569265826285 68,-31.669963851495336 C70.38300850028548,-34.137960556540314 70.49766931353655,-35.44415545006016 72,-38.783913878478224 C74.09766931353656,-43.44714071198541 73.76979790074977,-44.87854742042597 76,-49.45437554466257 C77.36979790074976,-52.2648651235569 78.66263211985239,-56.10101051529725 80,-55.197953218769186 C82.26263211985238,-53.6701114965903 81.42747768435859,-48.447944304452506 84,-44.052377725313804 C85.02747768435859,-42.29676746579643 86.69775942433591,-40.74726102147253 88,-41.52867135508901 C90.29775942433591,-42.90744344366803 90.42153760794486,-45.4521664904588 92,-48.85278310797046 C94.02153760794485,-53.207954581870155 93.96273784962071,-54.417448506125545 96,-58.7637560026698 C97.5627378496207,-62.097710461930426 98.08176058465573,-62.772190368408076 100,-65.92003189864796 C101.68176058465572,-68.67981035484743 101.96489407564937,-71.3428998277287 104,-71.89180041697948 C105.56489407564938,-72.31387735654373 106.87130687998116,-70.22724410785705 108,-68.07775974045911 C110.47130687998116,-63.37140031348415 110.53758980000687,-61.89410481246945 112,-56.65659198503972 C114.13758980000688,-49.000973884611014 113.43399859756948,-46.845244719337416 116,-39.42635767855147 C117.03399859756948,-36.43683522995384 118.62917479435163,-32.673592212617656 120,-33.526793119742884 C122.22917479435164,-34.9142303720233 121.83890594129795,-39.68391995982006 124,-44.40555358834178 C125.43890594129795,-47.549325444710014 126.3964223559689,-47.93146232867343 128,-51.0054719750539 C129.9964223559689,-54.83255300436447 130.3511391798837,-60.13430711846072 132,-59.741310645432975 C133.95113917988368,-59.27626786757957 133.34559357124547,-52.418997419488434 136,-49.09871808420691 C136.94559357124547,-47.915917002891504 139.2275000891477,-51.05147677830382 140,-49.734465275217566 C142.8275000891477,-44.913946735252416 141.1746818991354,-40.75635840492178 144,-35.45976243298155 C144.7746818991354,-34.007473918905916 147.19918276444923,-33.44456774845145 148,-34.73694419518231 C150.79918276444923,-39.25432683166014 149.3983429472326,-45.141489131311886 152,-48.370338173445305 C152.9983429472326,-49.609355693246314 153.92355976441638,-45.642091982406065 156,-44.665536555036596 C157.52355976441638,-43.949002300226034 158.58346722652126,-45.44907548940392 160,-44.60791665748968 C162.18346722652126,-43.31134041430598 162.6050856469247,-42.283249402975095 164,-39.91501416593007 C166.2050856469247,-36.17129935058228 165.92124832076982,-31.80085360889036 168,-31.025805429950083 C169.5212483207698,-30.458618520369217 170.09328496817855,-34.35370306267833 172,-36.932269524771975 C173.69328496817855,-39.222201558056184 173.92804161443965,-41.19760185027069 176,-41.84469097523421 C177.52804161443964,-42.32191055555323 178.42420843130694,-39.02494560095166 180,-39.43073331428872 C182.02420843130693,-39.95199445502379 182.43765621510371,-41.71711476227883 184,-43.90479953983893 C186.03765621510374,-46.758044470165906 185.86177624291193,-49.784557396771056 188,-50.63279933181555 C189.46177624291192,-51.21269182659275 190.4315537227026,-48.88501725155623 192,-47.078431606109376 C194.03155372270263,-44.73842427113531 194.44324011680058,-40.92971203477607 196,-41.41814826421349 Q198.04324011680058,-42.05921854695634 200,-49.5884460776211"
                  class="spline"
                  fill="none"/>
         </g>
      </g>
      <g id="parabolicUp">
         <g>
            <path d="M0,-67.598030022597 Q2.270078251895161,-67.27758371116055 4,-66.65598200239104 C5.870078251895162,-65.98401875423592 6.169064349036113,-65.52202610828637 8,-64.72344122943117 C9.769064349036114,-63.951842272297796 10.232796567926949,-63.94212195009632 12,-63.1666845890831 C13.832796567926948,-62.36246538708654 14.190142545285271,-62.07142069553714 16,-61.213093311631646 C17.79014254528527,-60.364115750603325 18.211798742522188,-60.225604702623 20,-59.372673600341294 C21.811798742522186,-58.50848703738601 22.192258002472332,-58.27017001261686 24,-57.39727627777167 C25.79225800247233,-56.53185920845323 26.24225122813325,-56.439246315738636 28,-55.50976070219988 C29.842251228133247,-54.53559076365091 30.32001328462001,-54.38843197638046 32,-53.166930606465606 C33.92001328462001,-51.77090834274932 34.235317686211346,-51.29522452983162 36,-49.6930415163529 C37.83531768621134,-48.02672752985876 37.95267839877594,-47.182798272724476 40,-45.903603939859245 C41.55267839877594,-44.933469395638674 42.162592939562515,-44.91198122587001 44,-44.69453290060667 C45.762592939562516,-44.48593846822346 46.212670051033044,-45.060529846450635 48,-44.95684225620025 C49.812670051033045,-44.85168462169673 50.29460265128183,-44.83236384599295 52,-44.23043240115353 C53.89460265128182,-43.56171967438645 54.13837322687827,-42.93228085420956 56,-42.13318854151914 C57.73837322687827,-41.38700208661773 58.162437908896706,-41.24174937537906 60,-40.79647958428279 C61.76243790889671,-40.36941354754093 62.217749548870074,-40.10368650388712 64,-40.194664479656645 C65.81774954887007,-40.28745456665442 66.30507184864705,-40.493838937362135 68,-41.20485305709902 C69.90507184864705,-42.004021436254256 70.30427906148735,-42.34666060104042 72,-43.5506255883058 C73.90427906148734,-44.90266722672792 74.17313263752257,-45.417937570852764 76,-46.88486778084904 C77.77313263752256,-48.30865030920125 77.99821475865257,-49.334584878372006 80,-49.97443167352465 C81.59821475865257,-50.48528197363036 82.24725134919089,-49.87512523300542 84,-49.44197243697871 C85.8472513491909,-48.98546540358474 86.20663000844723,-47.97721021953188 88,-47.99740983036757 C89.80663000844724,-48.01775879531436 90.24682907824432,-48.7377130340753 92,-49.532080383162004 C93.84682907824431,-50.368884542354884 94.29152963782464,-50.53634446047165 96,-51.622235404322204 C97.89152963782463,-52.82447745031437 98.01350967172142,-53.7026381087453 100,-54.61682036059026 C101.61350967172142,-55.35935702642247 102.19852787626422,-55.00350792812602 104,-55.30383299916037 C105.79852787626422,-55.60366723199668 106.34913576721948,-56.358604000312404 108,-55.950507702525066 C109.94913576721947,-55.46867820092673 110.34337990532478,-54.684812470016254 112,-53.32622011163665 C113.94337990532478,-51.73245634087885 113.9009350250689,-50.33805517961613 116,-49.38971630444193 C117.5009350250689,-48.71160721759477 118.20120549010777,-49.553243562336185 120,-49.71189130714474 C121.80120549010776,-49.87075169245885 122.19604705732628,-49.9916995437786 124,-50.09528992693675 C125.79604705732628,-50.19842632170476 126.20549991001037,-50.25520299817903 128,-50.171284146980646 C129.80549991001038,-50.086850894994726 130.38415222696025,-50.398548854598246 132,-49.72117414208275 C133.98415222696025,-48.889403620905625 134.11281690752108,-47.98165697123884 136,-46.817628072108164 C137.7128169075211,-45.76114956336142 138.19194564042203,-45.68440078751898 140,-44.78671323568849 C141.79194564042203,-43.89702356101561 142.15291193242106,-43.603881926404476 144,-42.84567867987844 C145.75291193242106,-42.12613339053124 146.1831030826519,-41.56455820300032 148,-41.50282760041462 C149.7831030826519,-41.44224517181698 150.2060178877456,-42.07045336389042 152,-42.57387194391547 C153.80601788774558,-43.08066794502285 154.1701616657531,-43.596542516583895 156,-43.74774889182002 C157.7701616657531,-43.89402396107121 158.24031494984447,-43.64181884221517 160,-43.23494182055396 C161.84031494984447,-42.809421432320214 162.21165758724692,-42.532480243876094 164,-41.897976869831226 C165.8116575872469,-41.25520127857712 166.1493703373836,-40.614791946877084 168,-40.39654411988956 C169.7493703373836,-40.1902379731532 170.2023412855904,-40.68766011210372 172,-40.954523594889274 C173.80234128559042,-41.2220822080929 174.19138057006046,-41.37575595019171 176,-41.58414877764328 C177.79138057006045,-41.79055530842415 178.21241421490657,-41.64753731758549 180,-41.87629994651694 C181.8124142149066,-42.10823994289204 182.20631656014888,-42.24727336614994 184,-42.607932389435625 C185.8063165601489,-42.97113157601123 186.1797383478616,-43.24547319005906 188,-43.484873746208685 C189.7797383478616,-43.71894468308655 190.19915257692813,-43.62588541163813 192,-43.66009126283004 C193.79915257692812,-43.69426492159175 194.21890953438177,-43.45743997958933 196,-43.63682821277229 Q197.81890953438176,-43.82002551464496 200,-44.465836896286994"
                  class="spline"
                  fill="none"/>
         </g>
      </g>
      <g id="parabolicDown">
         <g>
            <path d="M0,-60.120624742466994 Q2.1905274789275877,-59.475606694137355 4,-59.0156500775461 C5.790527478927588,-58.56050917237606 6.1942052611708585,-58.478171631420544 8,-58.08707469410856 C9.794205261170859,-57.698487792472136 10.196344173720973,-57.625594034766124 12,-57.283019324327405 C13.796344173720973,-56.94183334183856 14.197662309255355,-56.875873740610224 16,-56.56760648760286 C17.797662309255355,-56.260138899950036 18.19852722878661,-56.199191890445235 20,-55.91471967841588 C21.79852722878661,-55.630712599683655 22.199138951149042,-55.57323307395204 24,-55.30431917479936 C25.799138951149043,-55.035662428194925 26.19961509860993,-54.98034571462375 28,-54.72011824340007 C29.79961509860993,-54.46000203940079 30.394330850173077,-54.871217998596684 32,-54.147999896526116 C33.99433085017308,-53.249722581726594 34.29090915529432,-52.58714697116379 36,-51.11679509479987 C37.890909155294324,-49.49002268938129 37.911349016502164,-48.37001002069321 40,-47.26550149256501 C41.511349016502166,-46.46627850562572 42.19606511527917,-46.95891876336665 44,-46.88628061687213 C45.79606511527917,-46.81395935845956 46.28274883229815,-47.317286470154244 48,-46.94336948166038 C49.88274883229815,-46.53341676961455 50.251843752233356,-46.053937732786345 52,-45.144347949006146 C53.85184375223336,-44.180808127928614 54.079894989942055,-43.52169674943097 56,-42.78085924864321 C57.679894989942056,-42.13270240335848 58.19415798797951,-42.346584733934606 60,-42.05769384662283 C61.79415798797951,-41.77067211954219 62.23134416026044,-41.354567675083686 64,-41.50105343888229 C65.83134416026044,-41.652731250962084 66.30012311573827,-41.94732459965701 68,-42.720279570797054 C69.90012311573828,-43.58428897152839 70.31047292924157,-43.89832219184602 72,-45.1387520430409 C73.91047292924156,-46.54139760720292 74.2079486273318,-47.02990889260821 76,-48.59378049381238 C77.8079486273318,-50.171525171137404 78.0016399244035,-51.61525817734974 80,-52.120121550883546 C81.6016399244035,-52.52475800519192 82.46986578303422,-51.70118523923029 84,-50.614891222350565 C86.06986578303422,-49.145423517541744 85.8765937001951,-47.44149093179008 88,-46.44065105824234 C89.4765937001951,-45.7446778701057 90.2488446775231,-46.44502736907767 92,-46.844195529718604 C93.8488446775231,-47.2656315495651 94.4480658886241,-47.228034973524615 96,-48.264215903769944 C98.0480658886241,-49.63164948366387 97.90446180441282,-51.04954691920429 100,-52.18556110780584 C101.50446180441283,-53.001146316236344 102.32295082010629,-52.03306853956979 104,-52.60110345273007 C105.92295082010628,-53.252427942915745 106.22270369786355,-54.94600065589083 108,-54.89524867079685 C109.82270369786356,-54.84320004458101 110.37497820182573,-53.72339035696864 112,-52.37265764981936 C113.97497820182572,-50.73103803824859 114.02945939058826,-48.62996389702108 116,-48.24557685141896 C117.62945939058827,-47.927723426787516 118.05295048331608,-50.058922478852324 120,-50.81212327152255 C121.65295048331609,-51.451554166119784 122.19325737593346,-51.17765192875895 124,-51.34031393423554 C125.79325737593345,-51.50176185560493 126.22942276281914,-51.72414755478655 128,-51.53236755340251 C129.82942276281915,-51.33421370130393 130.4267103097397,-51.374793318186704 132,-50.47379425982973 C134.0267103097397,-49.31312811427347 134.12435493725025,-48.44051049457469 136,-46.95088932248421 C137.72435493725024,-45.58142146647044 138.0702995027485,-45.1433678326361 140,-44.12026308626473 C141.67029950274852,-43.234689728348435 142.2517598314904,-43.464714417528974 144,-42.709382424067165 C145.8517598314904,-41.90932447429213 146.12611002033304,-40.89440273999798 148,-40.663840990182855 C149.72611002033304,-40.45146195460461 150.39952116881526,-40.85740372457086 152,-41.72506956763745 C153.99952116881525,-42.80906779795789 153.97240543474933,-44.24052999205553 156,-45.000872264376255 C157.57240543474933,-45.59051989006861 158.2512406111023,-45.095674833784656 160,-44.72504711877764 C161.8512406111023,-44.33269978844906 162.22362489249304,-44.004343814735726 164,-43.30537216363049 C165.82362489249306,-42.587808572069356 166.12333260114016,-41.958298955049976 168,-41.577191023963486 C169.72333260114016,-41.227221859159194 170.20000716523745,-41.63387686060877 172,-41.68075639498429 C173.80000716523745,-41.727636302586845 174.20002231617366,-41.73755332882149 176,-41.78554533947031 C177.80002231617365,-41.833538540131705 178.2000412289906,-41.84375147774332 180,-41.89405686456254 C181.80004122899064,-41.944364555923805 182.20006756829244,-41.95509627433227 184,-42.009129957649165 C185.80006756829243,-42.063167697744696 186.2001075857929,-42.07467477022298 188,-42.13421558325682 C189.8001075857929,-42.193763514211184 190.20017302086373,-42.206352393916134 192,-42.2737716109563 C193.80017302086372,-42.34120379027706 194.2002877567073,-42.35524838352481 196,-42.43388535294777 Q197.8002877567073,-42.51254746896344 200,-42.62332513415326"
                  class="spline"
                  fill="none"/>
         </g>
      </g>
      <text x="100" y="8" text-anchor="middle" font-size="5">Fake independent
                    variable</text>
      <text x="-10"
            y="-50"
            text-anchor="middle"
            font-size="5"
            writing-mode="tb">Fake
                    dependent variable</text>
      <text x="100" y="-106" text-anchor="middle" font-size="8">Smoothing examples (window                     = 17)</text>
   </g>
   <g transform="translate(50, 15)">
      <rect x="0"
            y="0"
            width="100"
            height="58"
            fill="ghostwhite"
            stroke="black"
            stroke-width="0.5"/>
      <rect x="2"
            y="2"
            width="5"
            height="5"
            fill="black"
            class="toggle"
            id="data-box"/>
      <rect x="2"
            y="9"
            width="5"
            height="5"
            fill="red"
            class="toggle"
            id="regression-box"/>
      <rect x="2" y="16" width="5" height="5" fill="gray"/>
      <rect x="2"
            y="23"
            width="5"
            height="5"
            fill="blue"
            class="toggle"
            id="rectangular-box"/>
      <rect x="2"
            y="30"
            width="5"
            height="5"
            fill="green"
            class="toggle"
            id="gaussian-box"/>
      <rect x="2"
            y="37"
            width="5"
            height="5"
            fill="indigo"
            class="toggle"
            id="exponential-box"/>
      <rect x="2"
            y="44"
            width="5"
            height="5"
            fill="fuchsia"
            class="toggle"
            id="parabolicUp-box"/>
      <rect x="2"
            y="51"
            width="5"
            height="5"
            fill="darkgoldenrod"
            class="toggle"
            id="parabolicDown-box"/>
      <text x="10"
            y="6"
            fill="black"
            font-size="5"
            alignment-baseline="central">
         <tspan>Actual data (51 points)</tspan>
         <tspan x="10" dy="7" fill="red">Regression line (58.9–39.7)</tspan>
         <tspan x="10" dy="7" fill="gray">Sine without jitter</tspan>
         <tspan x="10" dy="7" fill="blue">Rectangular </tspan>
         <tspan x="10" dy="7" fill="green">Gaussian (σ = 5)</tspan>
         <tspan x="10" dy="7" fill="indigo">Exponential: y = 1 - 2<tspan dy="-2" font-size="4">-d</tspan>
            <tspan dy="2"> </tspan>
         </tspan>
         <tspan x="10" dy="7" fill="fuchsia">Parabolic (upward): y = ((N - d)/N)<tspan dy="-2" font-size="4">2</tspan>
            <tspan dy="2"> </tspan>
         </tspan>
         <tspan x="10" dy="7" fill="darkgoldenrod">Parabolic (downward): y = 1 - (d/N)<tspan dy="-2" font-size="4">2</tspan>
            <tspan dy="2" dx="-1">)</tspan>
         </tspan>
      </text>
   </g>
</svg>
