<?xml version="1.0" encoding="UTF-8"?>
<svg xmlns="http://www.w3.org/2000/svg" viewBox="-12 -115 210 195">
   <style type="text/css">
                #linear {
                    stroke: blue;
                    stroke-width: 0.5;
                    stroke-opacity: 0.5;
                    fill: none;
                }
                #gaussian {
                    stroke: green;
                    stroke-width: 0.5;
                    stroke-opacity: 0.5;
                    fill: none;
                }
                .regression {
                    stroke: red;
                    stroke-width: 0.5;
                    stroke-opacity: 0.5;
                }</style>
   <g>
      <line x1="2"
            y1="0"
            x2="200"
            y2="0"
            stroke="lightgray"
            stroke-width="0.5"
            stroke-linecap="square"/>
      <text x="0"
            y="0"
            fill="lightgray"
            font-size="3"
            text-anchor="end"
            alignment-baseline="central">0.0</text>
      <line x1="2"
            y1="-100"
            x2="200"
            y2="-100"
            stroke="lightgray"
            stroke-width="0.5"
            stroke-linecap="square"/>
      <text x="0"
            y="-100"
            fill="lightgray"
            font-size="3"
            text-anchor="end"
            alignment-baseline="central">100.0</text>
      <text x="0"
            y="-30.98890741695091"
            fill="lightgray"
            font-size="3"
            text-anchor="end"
            alignment-baseline="central">31.0</text>
      <text x="208"
            y="-100"
            font-size="3"
            fill="lightgray"
            text-anchor="end"
            alignment-baseline="central">100.0</text>
      <text x="208"
            y="0"
            font-size="3"
            fill="lightgray"
            text-anchor="end"
            alignment-baseline="central">0.0</text>
      <text x="208"
            y="-53.375601516559925"
            fill="red"
            fill-opacity="0.5"
            font-size="3"
            text-anchor="end"
            alignment-baseline="central">53.4</text>
      <line x1="2"
            y1="-100"
            x2="2"
            y2="0"
            stroke="lightgray"
            stroke-width="0.5"
            stroke-linecap="square"/>
      <line x1="200"
            y1="-100"
            x2="200"
            y2="0"
            stroke="lightgray"
            stroke-width="0.5"
            stroke-linecap="square"/>
      <line x1="2"
            y1="-30.98890741695091"
            x2="200"
            y2="-30.98890741695091"
            stroke="lightgray"
            stroke-width="0.5"/>
      <circle cx="2" cy="-61.02871512293743" r="0.65" fill="black"/>
      <circle cx="4" cy="-59.95345213136253" r="0.65" fill="black"/>
      <circle cx="6" cy="0.2913865241110907" r="0.65" fill="black"/>
      <circle cx="8" cy="-5.065582727874375" r="0.65" fill="black"/>
      <circle cx="10" cy="-70.23024014562284" r="0.65" fill="black"/>
      <circle cx="12" cy="-54.90040570088526" r="0.65" fill="black"/>
      <circle cx="14" cy="-51.786548498248465" r="0.65" fill="black"/>
      <circle cx="16" cy="-61.43439689197577" r="0.65" fill="black"/>
      <circle cx="18" cy="-34.73683465940572" r="0.65" fill="black"/>
      <circle cx="20" cy="-0.19193410561403512" r="0.65" fill="black"/>
      <circle cx="22" cy="-4.133952743620597" r="0.65" fill="black"/>
      <circle cx="24" cy="-14.478534495299868" r="0.65" fill="black"/>
      <circle cx="26" cy="-21.32867397081112" r="0.65" fill="black"/>
      <circle cx="28" cy="-73.4944229493962" r="0.65" fill="black"/>
      <circle cx="30" cy="-44.08715111121127" r="0.65" fill="black"/>
      <circle cx="32" cy="-14.912075544450012" r="0.65" fill="black"/>
      <circle cx="34" cy="-75.0178450940622" r="0.65" fill="black"/>
      <circle cx="36" cy="1.101542516219232" r="0.65" fill="black"/>
      <circle cx="38" cy="-33.67008686417375" r="0.65" fill="black"/>
      <circle cx="40" cy="-35.735582581085716" r="0.65" fill="black"/>
      <circle cx="42" cy="0.4538049244174762" r="0.65" fill="black"/>
      <circle cx="44" cy="-32.55144126986603" r="0.65" fill="black"/>
      <circle cx="46" cy="-33.86720497179834" r="0.65" fill="black"/>
      <circle cx="48" cy="-66.58681527584845" r="0.65" fill="black"/>
      <circle cx="50" cy="-23.153119886186516" r="0.65" fill="black"/>
      <circle cx="52" cy="-52.15553287106674" r="0.65" fill="black"/>
      <circle cx="54" cy="-77.1965403495751" r="0.65" fill="black"/>
      <circle cx="56" cy="-51.33108721510368" r="0.65" fill="black"/>
      <circle cx="58" cy="-5.385879705626419" r="0.65" fill="black"/>
      <circle cx="60" cy="-43.87619992807633" r="0.65" fill="black"/>
      <circle cx="62" cy="-9.536814040832866" r="0.65" fill="black"/>
      <circle cx="64" cy="-4.926462273949252" r="0.65" fill="black"/>
      <circle cx="66" cy="-6.93761503233973" r="0.65" fill="black"/>
      <circle cx="68" cy="-24.99630189155313" r="0.65" fill="black"/>
      <circle cx="70" cy="-66.60277311556345" r="0.65" fill="black"/>
      <circle cx="72" cy="-79.24323699884073" r="0.65" fill="black"/>
      <circle cx="74" cy="-33.89888914862266" r="0.65" fill="black"/>
      <circle cx="76" cy="-93.59127984586954" r="0.65" fill="black"/>
      <circle cx="78" cy="-48.04242373361225" r="0.65" fill="black"/>
      <circle cx="80" cy="-11.415267406756415" r="0.65" fill="black"/>
      <circle cx="82" cy="-35.17630994690836" r="0.65" fill="black"/>
      <circle cx="84" cy="-88.27610050078353" r="0.65" fill="black"/>
      <circle cx="86" cy="-7.700863136945371" r="0.65" fill="black"/>
      <circle cx="88" cy="-17.27924776093237" r="0.65" fill="black"/>
      <circle cx="90" cy="-16.738802198247974" r="0.65" fill="black"/>
      <circle cx="92" cy="-40.55622235641094" r="0.65" fill="black"/>
      <circle cx="94" cy="-28.5857222340461" r="0.65" fill="black"/>
      <circle cx="96" cy="-0.9825828225838347" r="0.65" fill="black"/>
      <circle cx="98" cy="-78.30317984216691" r="0.65" fill="black"/>
      <circle cx="100" cy="-1.3059795513993961" r="0.65" fill="black"/>
      <circle cx="102" cy="-63.041255536774685" r="0.65" fill="black"/>
      <circle cx="104" cy="-69.95691228314207" r="0.65" fill="black"/>
      <circle cx="106" cy="-7.738243272892522" r="0.65" fill="black"/>
      <circle cx="108" cy="-21.467402515592394" r="0.65" fill="black"/>
      <circle cx="110" cy="-13.349368945309793" r="0.65" fill="black"/>
      <circle cx="112" cy="-2.7848204089085966" r="0.65" fill="black"/>
      <circle cx="114" cy="-6.65223978529267" r="0.65" fill="black"/>
      <circle cx="116" cy="-53.62156529853951" r="0.65" fill="black"/>
      <circle cx="118" cy="-51.447858672595" r="0.65" fill="black"/>
      <circle cx="120" cy="-77.96609645361977" r="0.65" fill="black"/>
      <circle cx="122" cy="-10.26934534859475" r="0.65" fill="black"/>
      <circle cx="124" cy="-87.85442253439793" r="0.65" fill="black"/>
      <circle cx="126" cy="-94.62683813784727" r="0.65" fill="black"/>
      <circle cx="128" cy="-15.81023105302334" r="0.65" fill="black"/>
      <circle cx="130" cy="-39.755576615318155" r="0.65" fill="black"/>
      <circle cx="132" cy="-72.32497271650604" r="0.65" fill="black"/>
      <circle cx="134" cy="-36.16523425716605" r="0.65" fill="black"/>
      <circle cx="136" cy="-37.11976790717051" r="0.65" fill="black"/>
      <circle cx="138" cy="-29.534317099912112" r="0.65" fill="black"/>
      <circle cx="140" cy="-63.62028645326704" r="0.65" fill="black"/>
      <circle cx="142" cy="-31.02840586787412" r="0.65" fill="black"/>
      <circle cx="144" cy="-89.21456906877609" r="0.65" fill="black"/>
      <circle cx="146" cy="-16.127538769778585" r="0.65" fill="black"/>
      <circle cx="148" cy="-24.58645722411904" r="0.65" fill="black"/>
      <circle cx="150" cy="-3.373825855203485" r="0.65" fill="black"/>
      <circle cx="152" cy="-70.55566851897018" r="0.65" fill="black"/>
      <circle cx="154" cy="-57.03900381365512" r="0.65" fill="black"/>
      <circle cx="156" cy="-80.51545633280415" r="0.65" fill="black"/>
      <circle cx="158" cy="-32.626324110016796" r="0.65" fill="black"/>
      <circle cx="160" cy="-94.29583629678095" r="0.65" fill="black"/>
      <circle cx="162" cy="-68.09352056099536" r="0.65" fill="black"/>
      <circle cx="164" cy="-79.43865189839036" r="0.65" fill="black"/>
      <circle cx="166" cy="-16.638320472034287" r="0.65" fill="black"/>
      <circle cx="168" cy="-94.83519422597526" r="0.65" fill="black"/>
      <circle cx="170" cy="-66.93588474682304" r="0.65" fill="black"/>
      <circle cx="172" cy="-69.65848471393862" r="0.65" fill="black"/>
      <circle cx="174" cy="-76.26295768960071" r="0.65" fill="black"/>
      <circle cx="176" cy="-54.369005366722035" r="0.65" fill="black"/>
      <circle cx="178" cy="-86.64529518213172" r="0.65" fill="black"/>
      <circle cx="180" cy="-24.07269119608171" r="0.65" fill="black"/>
      <circle cx="182" cy="-34.81928099267524" r="0.65" fill="black"/>
      <circle cx="184" cy="-61.72491965794415" r="0.65" fill="black"/>
      <circle cx="186" cy="-30.96610377535142" r="0.65" fill="black"/>
      <circle cx="188" cy="-31.18849380680824" r="0.65" fill="black"/>
      <circle cx="190" cy="-41.499105398193784" r="0.65" fill="black"/>
      <circle cx="192" cy="-62.69028549612527" r="0.65" fill="black"/>
      <circle cx="194" cy="-26.123233173149497" r="0.65" fill="black"/>
      <circle cx="196" cy="-93.36977378254775" r="0.65" fill="black"/>
      <circle cx="198" cy="-23.02360196670225" r="0.65" fill="black"/>
      <circle cx="200" cy="-38.05455178450429" r="0.65" fill="black"/>
      <polyline points="2,-61.02871512293743 4,-59.95345213136253 6,0.2913865241110907 8,-5.065582727874375 10,-70.23024014562284 12,-54.90040570088526 14,-51.786548498248465 16,-61.43439689197577 18,-34.73683465940572 20,-0.19193410561403512 22,-4.133952743620597 24,-14.478534495299868 26,-21.32867397081112 28,-73.4944229493962 30,-44.08715111121127 32,-14.912075544450012 34,-75.0178450940622 36,1.101542516219232 38,-33.67008686417375 40,-35.735582581085716 42,0.4538049244174762 44,-32.55144126986603 46,-33.86720497179834 48,-66.58681527584845 50,-23.153119886186516 52,-52.15553287106674 54,-77.1965403495751 56,-51.33108721510368 58,-5.385879705626419 60,-43.87619992807633 62,-9.536814040832866 64,-4.926462273949252 66,-6.93761503233973 68,-24.99630189155313 70,-66.60277311556345 72,-79.24323699884073 74,-33.89888914862266 76,-93.59127984586954 78,-48.04242373361225 80,-11.415267406756415 82,-35.17630994690836 84,-88.27610050078353 86,-7.700863136945371 88,-17.27924776093237 90,-16.738802198247974 92,-40.55622235641094 94,-28.5857222340461 96,-0.9825828225838347 98,-78.30317984216691 100,-1.3059795513993961 102,-63.041255536774685 104,-69.95691228314207 106,-7.738243272892522 108,-21.467402515592394 110,-13.349368945309793 112,-2.7848204089085966 114,-6.65223978529267 116,-53.62156529853951 118,-51.447858672595 120,-77.96609645361977 122,-10.26934534859475 124,-87.85442253439793 126,-94.62683813784727 128,-15.81023105302334 130,-39.755576615318155 132,-72.32497271650604 134,-36.16523425716605 136,-37.11976790717051 138,-29.534317099912112 140,-63.62028645326704 142,-31.02840586787412 144,-89.21456906877609 146,-16.127538769778585 148,-24.58645722411904 150,-3.373825855203485 152,-70.55566851897018 154,-57.03900381365512 156,-80.51545633280415 158,-32.626324110016796 160,-94.29583629678095 162,-68.09352056099536 164,-79.43865189839036 166,-16.638320472034287 168,-94.83519422597526 170,-66.93588474682304 172,-69.65848471393862 174,-76.26295768960071 176,-54.369005366722035 178,-86.64529518213172 180,-24.07269119608171 182,-34.81928099267524 184,-61.72491965794415 186,-30.96610377535142 188,-31.18849380680824 190,-41.499105398193784 192,-62.69028549612527 194,-26.123233173149497 196,-93.36977378254775 198,-23.02360196670225 200,-38.05455178450429"
                stroke="black"
                stroke-width="0.5"
                fill="none"/>
      <g>
         <line x1="2"
               y1="-30.98890741695091"
               x2="200"
               y2="-53.375601516559925"
               class="regression"/>
      </g>
      <g id="linear">
         <g>
            <path d="M2,-35.306048453783426 Q3.2,-35.306048453783426 4,-35.306048453783426 C4.8,-35.306048453783426 5.2,-35.306048453783426 6,-35.306048453783426 C6.8,-35.306048453783426 7.2,-35.306048453783426 8,-35.306048453783426 C8.8,-35.306048453783426 9.2,-35.306048453783426 10,-35.306048453783426 C10.8,-35.306048453783426 11.2,-35.306048453783426 12,-35.306048453783426 C12.8,-35.306048453783426 13.2,-35.306048453783426 14,-35.306048453783426 C14.8,-35.306048453783426 15.2,-35.306048453783426 16,-35.306048453783426 C16.8,-35.306048453783426 17.2,-35.306048453783426 18,-35.306048453783426 C18.8,-35.306048453783426 19.2,-35.306048453783426 20,-35.306048453783426 C20.8,-35.306048453783426 21.2,-35.306048453783426 22,-35.306048453783426 C22.8,-35.306048453783426 23.211478855545526,-35.401876865209374 24,-35.306048453783426 C24.811478855545527,-35.20743000812782 25.194721953586477,-34.98924996552329 26,-34.81993131107954 C26.79472195358648,-34.652832192411815 27.21627074489569,-34.39940661932178 28,-34.465004021004724 C28.816270744895693,-34.53332511478325 29.32169185390148,-34.68760683311947 30,-35.154727549733224 C30.92169185390148,-35.78945582443831 31.056460760861135,-36.72952607569131 32,-37.219626499301825 C32.65646076086114,-37.560610407162784 33.24896071532687,-37.4279620174137 34,-37.2324383784119 C34.84896071532687,-37.01142212557698 35.27089563792176,-36.70117315210882 36,-36.17827676971003 C36.87089563792176,-35.553691042067236 37.20596602713288,-35.096020436737234 38,-34.36373310330794 C38.80596602713288,-33.62044159058761 39.23050066659205,-33.269270078605025 40,-32.48932965433597 C40.83050066659205,-31.64756018926206 41.05256006609623,-30.918068351198766 42,-30.309458379950527 C42.65256006609622,-29.89027131715895 43.3920737904393,-29.575323424552398 44,-29.919837069236422 C44.99207379043929,-30.48204832442595 45.23276870749806,-31.4904839587567 46,-32.5762706296344 C46.832768707498055,-33.75480593099941 46.99653318774564,-34.632068445652095 48,-35.58064199984321 C48.59653318774564,-36.144542668188784 49.393537556554826,-35.80143346333282 50,-36.35745618597612 C50.99353755655483,-37.26836083178692 51.023480729794464,-38.79084582645052 52,-39.24796042097845 C52.623480729794466,-39.53981553299891 53.22502112862835,-38.68032826419974 54,-38.22988045234709 C54.82502112862835,-37.750346137475915 55.159339287078346,-37.02731133724788 56,-36.9230051041689 C56.75933928707835,-36.82878894841594 57.18317622357178,-37.45975481305513 58,-37.73357448026724 C58.78317622357177,-37.996114650002006 59.192514550711905,-38.08576806846075 60,-38.263904696536095 C60.7925145507119,-38.43873864541893 61.21430851779569,-38.67562259791267 62,-38.61600092266268 C62.814308517795695,-38.55420766271145 63.20655288285724,-38.241149405170766 64,-37.96036735853302 C64.80655288285723,-37.674947493393496 65.27569660530996,-37.041053448655866 66,-37.20049614321951 C66.87569660530995,-37.39326539902371 67.09890626209642,-38.50709329260717 68,-38.84089723445265 C68.69890626209641,-39.09980222452731 69.27045529970309,-38.9511081841766 70,-38.682268473019846 C70.8704552997031,-38.36150272521604 71.13891755075461,-37.54915973790864 72,-37.36688358705126 C72.7389175507546,-37.2104676165823 73.22424667550644,-37.91412799952489 74,-37.835538169704 C74.82424667550643,-37.752035587229386 75.17432586236464,-37.0521581471243 76,-36.96165255631252 C76.77432586236465,-36.87677546441903 77.19488759794204,-37.36772630313131 78,-37.39708146294084 C78.79488759794205,-37.42606381671971 79.30826019543296,-37.4591247828127 80,-37.10749634028352 C80.90826019543297,-36.6458052306744 81.10703152764397,-35.60945000663464 82,-35.36378258259507 C82.70703152764398,-35.16926886851872 83.24363295634825,-36.11630304536671 84,-36.00704349499372 C84.84363295634824,-35.885178114601906 85.1403612195156,-35.106433488979704 86,-34.785970255683054 C86.7403612195156,-34.50997229514464 87.19662384492356,-34.55626993222143 88,-34.515890510406074 C88.79662384492357,-34.47585047429213 89.3241266161905,-34.257733145636756 90,-34.58492161085981 C90.92412661619049,-35.03228879007745 91.12420487938343,-35.81176241934987 92,-36.452279621507806 C92.72420487938342,-36.981930532105736 93.16075129836508,-37.192981002325155 94,-37.51034189274949 C94.7607512983651,-37.79801908423073 95.39882184004028,-38.31121698079329 96,-37.96487482627174 C96.99882184004029,-37.389447887798255 97.14139506814605,-35.33486752500414 98,-35.2059191602619 C98.74139506814605,-35.09457379277261 99.04753689250134,-36.84037063505155 100,-37.36414049569291 C100.64753689250135,-37.72022810189559 101.26924635622055,-37.63353336990335 102,-37.405562827372016 C102.86924635622056,-37.134387219685564 103.18621408287895,-36.14794671975458 104,-36.11627512014846 C104.78621408287896,-36.08567658420214 105.23217414815291,-36.74704623153373 106,-37.249887488490934 C106.83217414815292,-37.79486978318428 107.25905278599572,-38.84669602906924 108,-38.73583399927484 C108.85905278599573,-38.60730077348492 109.1127336466292,-36.85273748860341 110,-36.65139934953014 C110.7127336466292,-36.48966610502914 111.15226913608556,-37.474872399595704 112,-37.82815554033915 C112.75226913608556,-38.141655985342986 113.31372057451634,-37.9125163136426 114,-38.31835831389834 C114.91372057451633,-38.85870117114658 115.08184039562431,-39.850651395914554 116,-40.193617684099095 C116.68184039562432,-40.44831008017827 117.37105697770248,-39.4911086598731 118,-39.812505024557616 C118.97105697770247,-40.30872514541219 119.0389161301238,-41.509409101817944 120,-42.23765889794682 C120.6389161301238,-42.72178994632874 121.33463427666614,-43.100100450146776 122,-42.843457135834605 C122.93463427666613,-42.482952183413126 123.04870198154974,-41.18612296804192 124,-40.694788231112696 C124.64870198154973,-40.359740947014025 125.2041252288962,-40.701239299105836 126,-40.77750208326486 C126.8041252288962,-40.854555447681825 127.2084557633499,-41.12084965965998 128,-41.07807860255268 C128.8084557633499,-41.03439373186332 129.40955399214738,-40.2079253894907 130,-40.56136226377319 C131.0095539921474,-41.165674262937486 130.9874672616099,-42.62256994345532 132,-43.47245078616966 C132.5874672616099,-43.965548097924696 133.44000823082186,-43.40302505288011 134,-43.918807649946636 C135.04000823082185,-44.87671127601444 135.14185739156034,-45.901588434612634 136,-47.15666634400548 C136.74185739156033,-48.24167111466956 137.22839883236898,-48.70347085140941 138,-49.769014350088945 C138.82839883236898,-50.912992647652366 139.06118414428843,-52.344345023279395 140,-52.68047083461286 C140.66118414428843,-52.91719569986488 141.22497883425086,-51.151507982945596 142,-51.20114104155265 C142.82497883425089,-51.2539734345756 143.0978013396273,-52.64470892580886 144,-52.93663446368787 C144.69780133962732,-53.1624229073542 145.3641275358094,-52.18792489045745 146,-52.49542599541601 C146.96412753580938,-52.96166773299421 147.03679826747202,-54.41060354093977 148,-54.87099157002976 C148.63679826747202,-55.17536633326851 149.28910482809002,-54.77592712965869 150,-54.40733297623786 C150.88910482809,-53.946338367803925 151.31934785892975,-52.58889508547474 152,-52.79701966539285 C152.91934785892974,-53.07813078720247 153.00272714422474,-55.08040452291497 154,-55.63042223055719 C154.60272714422473,-55.96283938227292 155.2703297656002,-55.39120802930146 156,-55.003106813787724 C156.8703297656002,-54.540190795012386 157.15719324810482,-53.603560892707016 158,-53.50287914483451 C158.75719324810484,-53.41242479153818 159.15661769095553,-54.36159961059382 160,-54.52526656086563 C160.75661769095552,-54.672095950897166 161.1972121032216,-54.31524133605721 162,-54.279119995592865 C162.7972121032216,-54.24324953725844 163.23551068957437,-54.50175512427487 164,-54.34528706386871 C164.83551068957436,-54.17428305470404 165.23166642617414,-53.38713543135053 166,-53.46043982166578 C166.83166642617414,-53.539786608521375 167.3221044342068,-54.93997389718527 168,-54.726915006795814 C168.9221044342068,-54.43710259690726 169.25338071730624,-52.097608229487626 170,-52.20326157097075 C170.85338071730624,-52.324022615361905 170.96350756646373,-54.5085399265701 172,-55.29295097148152 C172.56350756646373,-55.71941000265574 173.278112193413,-54.99136289100326 174,-55.23043676118485 C174.878112193413,-55.5212488217534 175.26471411654367,-56.739100276810944 176,-56.61766579835688 C176.86471411654367,-56.474855892554324 177.0581037760956,-55.05203899081854 178,-54.56982580054329 C178.65810377609563,-54.2329029916931 179.2,-54.56982580054329 180,-54.56982580054329 C180.8,-54.56982580054329 181.2,-54.56982580054329 182,-54.56982580054329 C182.8,-54.56982580054329 183.2,-54.56982580054329 184,-54.56982580054329 C184.8,-54.56982580054329 185.2,-54.56982580054329 186,-54.56982580054329 C186.8,-54.56982580054329 187.2,-54.56982580054329 188,-54.56982580054329 C188.8,-54.56982580054329 189.2,-54.56982580054329 190,-54.56982580054329 C190.8,-54.56982580054329 191.2,-54.56982580054329 192,-54.56982580054329 C192.8,-54.56982580054329 193.2,-54.56982580054329 194,-54.56982580054329 C194.8,-54.56982580054329 195.2,-54.56982580054329 196,-54.56982580054329 C196.8,-54.56982580054329 197.2,-54.56982580054329 198,-54.56982580054329 Q198.8,-54.56982580054329 200,-54.56982580054329"
                  class="spline"
                  fill="none"/>
         </g>
      </g>
      <g id="gaussian">
         <g>
            <path d="M2,-42.36497177637909 Q3.2025732972224032,-42.06469480685083 4,-41.84867570752886 C4.802573297222404,-41.63126242026126 5.203538926690104,-41.52011459656604 6,-41.28139080990517 C6.803538926690105,-41.04054557372596 7.204186446993516,-40.914973409728525 8,-40.64975315042866 C8.804186446993516,-40.381742462257684 9.204111465320853,-40.24010618325921 10,-39.94831344122807 C10.804111465320853,-39.653505966134546 11.202972256253528,-39.49683232355441 12,-39.18325260761699 C12.802972256253529,-38.86733410415559 13.2007312529168,-38.699838654116405 14,-38.37456789273104 C14.8007312529168,-38.0487019493274 15.197820347037535,-37.877647318208524 16,-37.555410845644495 C16.797820347037536,-37.234925511193836 17.195090370669597,-37.069731529422846 18,-36.76776337519432 C18.795090370669598,-36.46947899279017 19.193484901781563,-36.32015959599828 20,-36.05477950406281 C20.793484901781564,-35.793686938468745 21.193526134115647,-35.668801999649745 22,-35.451581731370496 C22.793526134115645,-35.237848878973374 23.19494270470448,-35.14236643839531 24,-34.97739670237189 C24.794942704704482,-34.814499615524554 25.19660546872307,-34.74622929164366 26,-34.631914674193624 C26.79660546872307,-34.51856606915527 27.197706336619238,-34.44065827943945 28,-34.408238646150906 C28.797706336619235,-34.37600438071228 29.205048878974733,-34.39318102603186 30,-34.4702799273757 C30.805048878974734,-34.54835816697487 31.19685503232831,-34.689524058841876 32,-34.79618149850842 C32.79685503232831,-34.90200363642198 33.20058571973856,-34.914006743410425 34,-35.00147887132597 C34.800585719738564,-35.089079178467635 35.20236579303323,-35.12376188123231 36,-35.233862586151446 C36.80236579303323,-35.34461641120605 37.2023707440392,-35.412326519102145 38,-35.55361519626031 C38.802370744039195,-35.6957437605883 39.199989668712035,-35.78694265707048 40,-35.94240568986684 C40.79998966871204,-36.09786470738165 41.204762825169105,-36.154080249792074 42,-36.33092032203823 C42.80476282516911,-36.50987865126145 43.20826861946628,-36.60288422273191 44,-36.83190169354028 C44.80826861946628,-37.06570275222657 45.1947155380995,-37.24291534558619 46,-37.4879666457749 C46.7947155380995,-37.72980177994828 47.186959133617464,-37.89315780346721 48,-38.04911777944551 C48.786959133617465,-38.200074677984894 49.20101431710379,-38.163927815027805 50,-38.2552588320691 C50.80101431710379,-38.34682173965532 51.19768055605697,-38.48151793673845 52,-38.50635259101429 C52.797680556056974,-38.5310436551307 53.200942624750276,-38.441964079839224 54,-38.37907312804973 C54.80094262475028,-38.31603379500613 55.19827111180348,-38.233331299381604 56,-38.19152687893155 C56.79827111180348,-38.14990275675973 57.20093094415557,-38.147088882697794 58,-38.17050177149504 C58.800930944155574,-38.193969214005335 59.205700616990875,-38.20823377011394 60,-38.308727707200404 C60.80570061699087,-38.41066411662787 61.20452877593346,-38.50804584260939 62,-38.67657763777987 C62.80452877593346,-38.84702840302721 63.211125322289085,-38.92610196431406 64,-39.15618410824494 C64.81112532228909,-39.392755845710816 65.22398265495106,-39.51189709052969 66,-39.84321234127176 C66.82398265495107,-40.19500605010311 67.18925023845665,-40.4782785116404 68,-40.86395650717848 C68.78925023845665,-41.23940706465562 69.18407909989178,-41.43511400705618 70,-41.74603372380983 C70.78407909989178,-42.04481961300384 71.19619507927038,-42.14386541951131 72,-42.38822052204764 C72.79619507927038,-42.63026224786519 73.18485505443347,-42.82142337750302 74,-42.962025794694526 C74.78485505443346,-43.09740358044724 75.20106601797609,-43.092307128984466 76,-43.07817102940821 C76.80106601797608,-43.063997206223746 77.21228997726887,-43.03423420277866 78,-42.89125098779273 C78.81228997726886,-42.74380607900757 79.22467865107149,-42.635765422269 80,-42.35210071998047 C80.8246786510715,-42.05037779649436 81.20311156927511,-41.80409904205833 82,-41.42778192335612 C82.80311156927512,-41.04852603245166 83.22315579154414,-40.891192530787094 84,-40.463168195963796 C84.82315579154415,-40.00962718182409 85.19367692056231,-39.70907822389754 86,-39.2238685509486 C86.79367692056232,-38.74626877875589 87.19501606263701,-38.514479378383754 88,-38.05614458310968 C88.795016062637,-37.6034852101761 89.17882119580341,-37.34668151289219 90,-36.94638313042949 C90.7788211958034,-36.56673272626107 91.19236386264518,-36.422820749158376 92,-36.106272616531875 C92.79236386264519,-35.7957103602384 93.1893433262961,-35.63605174423618 94,-35.37860715812956 C94.7893433262961,-35.1279311660282 95.20404215429977,-35.06695895452324 96,-34.83597117101192 C96.80404215429976,-34.60263731285014 97.18189410092646,-34.3550282723075 98,-34.217803053946824 C98.78189410092645,-34.08665183152432 99.19986144657692,-34.176306351828806 100,-34.165030069053984 C100.79986144657691,-34.15375769152175 101.2005183070386,-34.14177508863126 102,-34.16143140317918 C102.80051830703862,-34.18111320425486 103.21003081299293,-34.15131374480022 104,-34.26337535811298 C104.81003081299293,-34.37828282694851 105.2163198815665,-34.489064314071705 106,-34.728854108549896 C106.8163198815665,-34.97863099075608 107.20469285095469,-35.172073642558175 108,-35.48729204982391 C108.80469285095468,-35.80623046138042 109.251427904473,-35.8909238722363 110,-36.31424615560553 C110.851427904473,-36.79573405343059 111.21598938892303,-37.1542013592741 112,-37.749317502809646 C112.81598938892304,-38.368707663402944 113.22992674696012,-38.67576864270468 114,-39.35051191592764 C114.82992674696013,-40.077699216056025 115.18921967052209,-40.50435294354443 116,-41.25414393618801 C116.78921967052209,-41.98399612754006 117.22233272511113,-42.30797368486922 118,-43.04961987591671 C118.82233272511112,-43.833862640201126 119.16552342201057,-44.298673661432254 120,-45.06886632451777 C120.76552342201056,-45.77541763896355 121.14853214490847,-46.14711761274335 122,-46.74147981974497 C122.74853214490847,-47.26398835015992 123.18166347277413,-47.44980150856132 124,-47.8610431680592 C124.78166347277413,-48.25385538286063 125.1746856460544,-48.47041034804296 126,-48.75161450549324 C126.77468564605441,-49.015568262441846 127.18949550310177,-49.111286663668714 128,-49.22393795405642 C128.78949550310176,-49.333669223309165 129.2000400850042,-49.27318517360072 130,-49.307570904594364 C130.8000400850042,-49.341960081641105 131.20631722778487,-49.451638427707834 132,-49.39587522415738 C132.80631722778486,-49.339224338849995 133.19596286867616,-49.1473792620444 134,-49.026535682449754 C134.79596286867616,-48.906905632383676 135.2002622873425,-48.889638222274606 136,-48.79469115000556 C136.8002622873425,-48.699681798779636 137.19727010819648,-48.61318117764183 138,-48.55164462371233 C138.79727010819647,-48.49052661189994 139.2017761120897,-48.540535878970914 140,-48.488054735650834 C140.80177611208973,-48.435340042835314 141.2065169325293,-48.24556645638027 142,-48.28865503337333 C142.8065169325293,-48.33245138942447 143.21152116367665,-48.49523464854596 144,-48.705267068261335 C144.81152116367664,-48.921437427952945 145.24634436196615,-48.99541438167393 146,-49.35416198189079 C146.84634436196617,-49.7570303391216 147.2097685857293,-50.09231021698207 148,-50.609306961880506 C148.8097685857293,-51.139085600621954 149.22278678097868,-51.39554186187568 150,-51.97110044099049 C150.8227867809787,-52.580408130289534 151.2567022263728,-52.87054178167831 152,-53.57147263291515 C152.8567022263728,-54.379344043396685 153.17227158922657,-54.90179828867988 154,-55.74310609528641 C154.77227158922656,-56.528047276935176 155.18338223308143,-56.897874785465575 156,-57.63709510355339 C156.78338223308143,-58.346229887269836 157.20283251536253,-58.669980731528796 158,-59.36399384979706 C158.80283251536252,-60.06293893746243 159.15842811732105,-60.471696029381064 160,-61.11949061838745 C160.75842811732105,-61.703285824314385 161.16564497975875,-61.97535597824752 162,-62.442968337130345 C162.76564497975875,-62.872072311297444 163.1686340023085,-63.09266234171361 164,-63.36128145101225 C164.7686340023085,-63.609631493773286 165.19357311540952,-63.64080495765561 166,-63.73539121727953 C166.79357311540952,-63.828469851138316 167.2220326497664,-63.946149524587774 168,-63.830443684719015 C168.82203264976638,-63.70818408332032 169.19562076888593,-63.40304397035573 170,-63.1404776141109 C170.79562076888593,-62.88077020477146 171.24989443230552,-62.879033174984414 172,-62.524759270758345 C172.84989443230552,-62.123355212875765 173.21955515221427,-61.78910313465496 174,-61.251282708839284 C174.81955515221426,-60.6865105763896 175.22791492980878,-60.3959243232077 176,-59.768277875094945 C176.82791492980877,-59.09524599674858 177.20043622136865,-58.70755594425292 178,-57.99958689269148 C178.80043622136867,-57.29084534183258 179.19187982023848,-56.926356988062665 180,-56.2265013690441 C180.7918798202385,-55.54071037451048 181.18474501566155,-55.192949548861776 182,-54.535470358811025 C182.78474501566154,-53.90259656201702 183.18033067747294,-53.58701636709769 184,-53.00061890193219 C184.78033067747293,-52.4423645929259 185.17939890808364,-52.17042435106073 186,-51.673840923381555 C186.77939890808364,-51.20219083039701 187.1817551957316,-50.98014481196453 188,-50.580035100272895 C188.7817551957316,-50.19776827212326 189.18616154196107,-50.026127462322094 190,-49.71789957377839 C190.78616154196106,-49.420153860560525 191.19092475410426,-49.29410110256075 192,-49.06510109586897 C192.79092475410425,-48.84123838977165 193.1947845146081,-48.75223614535277 194,-48.58574279180562 C194.7947845146081,-48.4214062364548 195.19733061338314,-48.35945957364425 196,-48.23802632362406 C196.79733061338314,-48.11740075930324 197.19877842290302,-48.07297064459682 198,-47.98059575595309 Q198.798778422903,-47.888502544816625 200,-47.77685607417358"
                  class="spline"
                  fill="none"/>
         </g>
      </g>
      <text x="100" y="8" text-anchor="middle" font-size="5">Fake independent
                    variable</text>
      <text x="-10"
            y="-50"
            text-anchor="middle"
            font-size="5"
            writing-mode="tb">Fake
                    dependent variable</text>
      <text x="100" y="-106" text-anchor="middle" font-size="8">Smoothing examples (window                     = 25)</text>
   </g>
   <g transform="translate(50, 15)">
      <rect x="0"
            y="0"
            width="100"
            height="51"
            fill="ghostwhite"
            stroke="black"
            stroke-width="0.5"/>
      <rect x="2" y="2" width="5" height="5" fill="black"/>
      <rect x="2" y="9" width="5" height="5" fill="red"/>
      <rect x="2" y="16" width="5" height="5" fill="gray"/>
      <rect x="2" y="23" width="5" height="5" fill="blue"/>
      <rect x="2" y="30" width="5" height="5" fill="green"/>
      <rect x="2" y="37" width="5" height="5" fill="indigo"/>
      <rect x="2" y="44" width="5" height="5" fill="darkgoldenrod"/>
      <text x="10" y="6" fill="black" font-size="5">
         <tspan>Actual data (101 points)</tspan>
         <tspan x="10" dy="7" fill="red">Regression line (31.0–53.4)</tspan>
         <tspan x="10" dy="7" fill="gray">Y intercept of regression line (31.0)</tspan>
         <tspan x="10" dy="7" fill="blue">Rectangular kernal</tspan>
         <tspan x="10" dy="7" fill="green">Gaussian kernal (σ = 5)</tspan>
      </text>
   </g>
</svg>
