<?xml version="1.0" encoding="UTF-8"?>
<svg xmlns="http://www.w3.org/2000/svg" viewBox="-12 -115 210 195">
   <style type="text/css">
                #linear {
                    stroke: blue;
                    stroke-width: 0.5;
                    stroke-opacity: 0.5;
                    fill: none;
                }
                #gaussian {
                    stroke: green;
                    stroke-width: 0.5;
                    stroke-opacity: 0.5;
                    fill: none;
                }
                .regression {
                    stroke: red;
                    stroke-width: 0.5;
                    stroke-opacity: 0.5;
                }</style>
   <g>
      <line x1="2"
            y1="0"
            x2="200"
            y2="0"
            stroke="lightgray"
            stroke-width="0.5"
            stroke-linecap="square"/>
      <text x="0"
            y="0"
            fill="lightgray"
            font-size="3"
            text-anchor="end"
            alignment-baseline="central">0.0</text>
      <line x1="2"
            y1="-100"
            x2="200"
            y2="-100"
            stroke="lightgray"
            stroke-width="0.5"
            stroke-linecap="square"/>
      <text x="0"
            y="-100"
            fill="lightgray"
            font-size="3"
            text-anchor="end"
            alignment-baseline="central">100.0</text>
      <text x="0"
            y="-51.37236193587831"
            fill="lightgray"
            font-size="3"
            text-anchor="end"
            alignment-baseline="central">51.4</text>
      <text x="208"
            y="-100"
            font-size="3"
            fill="lightgray"
            text-anchor="end"
            alignment-baseline="central">100.0</text>
      <text x="208"
            y="0"
            font-size="3"
            fill="lightgray"
            text-anchor="end"
            alignment-baseline="central">0.0</text>
      <text x="208"
            y="-41.279170977377504"
            fill="red"
            fill-opacity="0.5"
            font-size="3"
            text-anchor="end"
            alignment-baseline="central">41.3</text>
      <line x1="2"
            y1="-100"
            x2="2"
            y2="0"
            stroke="lightgray"
            stroke-width="0.5"
            stroke-linecap="square"/>
      <line x1="200"
            y1="-100"
            x2="200"
            y2="0"
            stroke="lightgray"
            stroke-width="0.5"
            stroke-linecap="square"/>
      <line x1="2"
            y1="-51.37236193587831"
            x2="200"
            y2="-51.37236193587831"
            stroke="lightgray"
            stroke-width="0.5"/>
      <circle cx="2" cy="-57.43562113962058" r="0.65" fill="black"/>
      <circle cx="4" cy="-79.98360541453553" r="0.65" fill="black"/>
      <circle cx="6" cy="-31.184179302267005" r="0.65" fill="black"/>
      <circle cx="8" cy="-97.298225965427" r="0.65" fill="black"/>
      <circle cx="10" cy="-21.792694559201045" r="0.65" fill="black"/>
      <circle cx="12" cy="-71.68534415207048" r="0.65" fill="black"/>
      <circle cx="14" cy="-63.7514953931574" r="0.65" fill="black"/>
      <circle cx="16" cy="-1.8028571283986068" r="0.65" fill="black"/>
      <circle cx="18" cy="-69.19684695735084" r="0.65" fill="black"/>
      <circle cx="20" cy="-96.32760264751283" r="0.65" fill="black"/>
      <circle cx="22" cy="0.7170698315711026" r="0.65" fill="black"/>
      <circle cx="24" cy="-2.483979765816237" r="0.65" fill="black"/>
      <circle cx="26" cy="-70.39396563572124" r="0.65" fill="black"/>
      <circle cx="28" cy="-38.785528866176755" r="0.65" fill="black"/>
      <circle cx="30" cy="-21.79530450301045" r="0.65" fill="black"/>
      <circle cx="32" cy="-73.46364931498199" r="0.65" fill="black"/>
      <circle cx="34" cy="-35.96654615429309" r="0.65" fill="black"/>
      <circle cx="36" cy="-83.54804181069258" r="0.65" fill="black"/>
      <circle cx="38" cy="-4.348999668702959" r="0.65" fill="black"/>
      <circle cx="40" cy="-92.49557949963258" r="0.65" fill="black"/>
      <circle cx="42" cy="-49.01356290151333" r="0.65" fill="black"/>
      <circle cx="44" cy="-72.67212261957187" r="0.65" fill="black"/>
      <circle cx="46" cy="-73.86813741247073" r="0.65" fill="black"/>
      <circle cx="48" cy="-79.95694410197572" r="0.65" fill="black"/>
      <circle cx="50" cy="-18.17352309924394" r="0.65" fill="black"/>
      <circle cx="52" cy="-87.71032667647654" r="0.65" fill="black"/>
      <circle cx="54" cy="-94.51224433915611" r="0.65" fill="black"/>
      <circle cx="56" cy="-0.3462791578623521" r="0.65" fill="black"/>
      <circle cx="58" cy="-12.856107762853332" r="0.65" fill="black"/>
      <circle cx="60" cy="-6.907099801685547" r="0.65" fill="black"/>
      <circle cx="62" cy="-34.229521230631214" r="0.65" fill="black"/>
      <circle cx="64" cy="-24.869195868822292" r="0.65" fill="black"/>
      <circle cx="66" cy="-7.039068901676028" r="0.65" fill="black"/>
      <circle cx="68" cy="-69.84734008231028" r="0.65" fill="black"/>
      <circle cx="70" cy="-48.431226155089036" r="0.65" fill="black"/>
      <circle cx="72" cy="-49.79824461883771" r="0.65" fill="black"/>
      <circle cx="74" cy="-78.74938066893668" r="0.65" fill="black"/>
      <circle cx="76" cy="-35.90250792054293" r="0.65" fill="black"/>
      <circle cx="78" cy="-51.1778212872689" r="0.65" fill="black"/>
      <circle cx="80" cy="-24.72777178918555" r="0.65" fill="black"/>
      <circle cx="82" cy="-93.2121426945013" r="0.65" fill="black"/>
      <circle cx="84" cy="-73.10274444087773" r="0.65" fill="black"/>
      <circle cx="86" cy="-94.23627737438308" r="0.65" fill="black"/>
      <circle cx="88" cy="-3.652612024777759" r="0.65" fill="black"/>
      <circle cx="90" cy="-56.75702616663685" r="0.65" fill="black"/>
      <circle cx="92" cy="-17.037081416934377" r="0.65" fill="black"/>
      <circle cx="94" cy="-46.735186544370634" r="0.65" fill="black"/>
      <circle cx="96" cy="-20.340041833172307" r="0.65" fill="black"/>
      <circle cx="98" cy="-85.03229149145369" r="0.65" fill="black"/>
      <circle cx="100" cy="-49.901761162194795" r="0.65" fill="black"/>
      <circle cx="102" cy="-27.927011932630343" r="0.65" fill="black"/>
      <circle cx="104" cy="-20.687069434376063" r="0.65" fill="black"/>
      <circle cx="106" cy="-5.34395568423718" r="0.65" fill="black"/>
      <circle cx="108" cy="-48.14556151370137" r="0.65" fill="black"/>
      <circle cx="110" cy="-76.02237266283565" r="0.65" fill="black"/>
      <circle cx="112" cy="-95.04709208878639" r="0.65" fill="black"/>
      <circle cx="114" cy="-0.5569507666060809" r="0.65" fill="black"/>
      <circle cx="116" cy="-71.67787019462754" r="0.65" fill="black"/>
      <circle cx="118" cy="-79.20023866143417" r="0.65" fill="black"/>
      <circle cx="120" cy="-50.112977836284756" r="0.65" fill="black"/>
      <circle cx="122" cy="-20.98257904583395" r="0.65" fill="black"/>
      <circle cx="124" cy="-8.360222059157632" r="0.65" fill="black"/>
      <circle cx="126" cy="-87.16795168531982" r="0.65" fill="black"/>
      <circle cx="128" cy="-7.765649663844888" r="0.65" fill="black"/>
      <circle cx="130" cy="-27.051198835398516" r="0.65" fill="black"/>
      <circle cx="132" cy="-32.370084722269375" r="0.65" fill="black"/>
      <circle cx="134" cy="-36.058231643435946" r="0.65" fill="black"/>
      <circle cx="136" cy="-49.56468022415916" r="0.65" fill="black"/>
      <circle cx="138" cy="-51.58304324714387" r="0.65" fill="black"/>
      <circle cx="140" cy="-82.29778591980545" r="0.65" fill="black"/>
      <circle cx="142" cy="-21.018380037934485" r="0.65" fill="black"/>
      <circle cx="144" cy="-47.23515903709066" r="0.65" fill="black"/>
      <circle cx="146" cy="-92.44090715414374" r="0.65" fill="black"/>
      <circle cx="148" cy="-24.864272747865137" r="0.65" fill="black"/>
      <circle cx="150" cy="-7.787858893638546" r="0.65" fill="black"/>
      <circle cx="152" cy="-62.9666712982559" r="0.65" fill="black"/>
      <circle cx="154" cy="1.4700244804701539" r="0.65" fill="black"/>
      <circle cx="156" cy="-5.552954748316987" r="0.65" fill="black"/>
      <circle cx="158" cy="-83.2017397138774" r="0.65" fill="black"/>
      <circle cx="160" cy="-40.679539390426356" r="0.65" fill="black"/>
      <circle cx="162" cy="-31.264626280642652" r="0.65" fill="black"/>
      <circle cx="164" cy="-7.136652924205691" r="0.65" fill="black"/>
      <circle cx="166" cy="-78.1294696767215" r="0.65" fill="black"/>
      <circle cx="168" cy="-38.44958159579918" r="0.65" fill="black"/>
      <circle cx="170" cy="-86.87609314909129" r="0.65" fill="black"/>
      <circle cx="172" cy="-62.39902340227705" r="0.65" fill="black"/>
      <circle cx="174" cy="-20.981381980341244" r="0.65" fill="black"/>
      <circle cx="176" cy="-22.26819990947273" r="0.65" fill="black"/>
      <circle cx="178" cy="-11.779772698729442" r="0.65" fill="black"/>
      <circle cx="180" cy="-68.84975413160842" r="0.65" fill="black"/>
      <circle cx="182" cy="-59.36947132908021" r="0.65" fill="black"/>
      <circle cx="184" cy="-27.189087157876592" r="0.65" fill="black"/>
      <circle cx="186" cy="-63.90063020176967" r="0.65" fill="black"/>
      <circle cx="188" cy="-39.134563594353594" r="0.65" fill="black"/>
      <circle cx="190" cy="-47.411190942666906" r="0.65" fill="black"/>
      <circle cx="192" cy="-3.1102795937340133" r="0.65" fill="black"/>
      <circle cx="194" cy="-90.3144178676775" r="0.65" fill="black"/>
      <circle cx="196" cy="-58.73857828026075" r="0.65" fill="black"/>
      <circle cx="198" cy="-70.96862594544824" r="0.65" fill="black"/>
      <circle cx="200" cy="-3.240073566405812" r="0.65" fill="black"/>
      <polyline points="2,-57.43562113962058 4,-79.98360541453553 6,-31.184179302267005 8,-97.298225965427 10,-21.792694559201045 12,-71.68534415207048 14,-63.7514953931574 16,-1.8028571283986068 18,-69.19684695735084 20,-96.32760264751283 22,0.7170698315711026 24,-2.483979765816237 26,-70.39396563572124 28,-38.785528866176755 30,-21.79530450301045 32,-73.46364931498199 34,-35.96654615429309 36,-83.54804181069258 38,-4.348999668702959 40,-92.49557949963258 42,-49.01356290151333 44,-72.67212261957187 46,-73.86813741247073 48,-79.95694410197572 50,-18.17352309924394 52,-87.71032667647654 54,-94.51224433915611 56,-0.3462791578623521 58,-12.856107762853332 60,-6.907099801685547 62,-34.229521230631214 64,-24.869195868822292 66,-7.039068901676028 68,-69.84734008231028 70,-48.431226155089036 72,-49.79824461883771 74,-78.74938066893668 76,-35.90250792054293 78,-51.1778212872689 80,-24.72777178918555 82,-93.2121426945013 84,-73.10274444087773 86,-94.23627737438308 88,-3.652612024777759 90,-56.75702616663685 92,-17.037081416934377 94,-46.735186544370634 96,-20.340041833172307 98,-85.03229149145369 100,-49.901761162194795 102,-27.927011932630343 104,-20.687069434376063 106,-5.34395568423718 108,-48.14556151370137 110,-76.02237266283565 112,-95.04709208878639 114,-0.5569507666060809 116,-71.67787019462754 118,-79.20023866143417 120,-50.112977836284756 122,-20.98257904583395 124,-8.360222059157632 126,-87.16795168531982 128,-7.765649663844888 130,-27.051198835398516 132,-32.370084722269375 134,-36.058231643435946 136,-49.56468022415916 138,-51.58304324714387 140,-82.29778591980545 142,-21.018380037934485 144,-47.23515903709066 146,-92.44090715414374 148,-24.864272747865137 150,-7.787858893638546 152,-62.9666712982559 154,1.4700244804701539 156,-5.552954748316987 158,-83.2017397138774 160,-40.679539390426356 162,-31.264626280642652 164,-7.136652924205691 166,-78.1294696767215 168,-38.44958159579918 170,-86.87609314909129 172,-62.39902340227705 174,-20.981381980341244 176,-22.26819990947273 178,-11.779772698729442 180,-68.84975413160842 182,-59.36947132908021 184,-27.189087157876592 186,-63.90063020176967 188,-39.134563594353594 190,-47.411190942666906 192,-3.1102795937340133 194,-90.3144178676775 196,-58.73857828026075 198,-70.96862594544824 200,-3.240073566405812"
                stroke="black"
                stroke-width="0.5"
                fill="none"/>
      <g>
         <line x1="2"
               y1="-51.37236193587831"
               x2="200"
               y2="-41.279170977377504"
               class="regression"/>
      </g>
      <g id="linear">
         <g>
            <path d="M2,-53.688906878438736 Q3.2,-53.688906878438736 4,-53.688906878438736 C4.8,-53.688906878438736 5.2,-53.688906878438736 6,-53.688906878438736 C6.8,-53.688906878438736 7.2,-53.688906878438736 8,-53.688906878438736 C8.8,-53.688906878438736 9.2,-53.688906878438736 10,-53.688906878438736 C10.8,-53.688906878438736 11.2,-53.688906878438736 12,-53.688906878438736 C12.8,-53.688906878438736 13.2,-53.688906878438736 14,-53.688906878438736 C14.8,-53.688906878438736 15.2,-53.688906878438736 16,-53.688906878438736 C16.8,-53.688906878438736 17.2,-53.688906878438736 18,-53.688906878438736 C18.8,-53.688906878438736 19.2,-53.688906878438736 20,-53.688906878438736 C20.8,-53.688906878438736 21.2,-53.688906878438736 22,-53.688906878438736 C22.8,-53.688906878438736 23.281414221244894,-53.944115375546325 24,-53.688906878438736 C24.881414221244896,-53.375869235079215 25.180775224786867,-52.31122446182139 26,-52.26829152727095 C26.78077522478687,-52.22737360994397 27.15379428718878,-53.10015128838168 28,-53.479279748745185 C28.75379428718878,-53.81700479976531 29.248203444532024,-54.18303776980262 30,-54.06042530573001 C30.84820344453202,-53.92208959028608 31.4008667128328,-53.51759026332303 32,-52.82690929995383 C33.0008667128328,-51.67310996977138 32.955342392298746,-50.48685908184412 34,-49.449224571850884 C34.55534239229875,-48.897615674482694 35.27190876153168,-49.23489405776084 36,-48.85380078155026 C36.87190876153168,-48.397431374897565 37.20550361783635,-47.96207148573603 38,-47.355567864692695 C38.80550361783635,-46.74066152660364 39.10799881071472,-46.10039938660669 40,-45.80027588371929 C40.70799881071472,-45.56206198258977 41.1978523611483,-45.962504290303016 42,-46.00972435465039 C42.7978523611483,-46.0566915686748 43.32904657124617,-46.3527419540478 44,-46.03574407964876 C44.92904657124617,-45.596807820168365 45.2104725552922,-44.09921178601365 46,-44.119889019951806 C46.8104725552922,-44.14111479334141 47.29918443054144,-45.25200260569969 48,-46.14050159796816 C48.89918443054144,-47.28049405135616 49.03966093301466,-48.78994613783891 50,-49.19111763409298 C50.63966093301466,-49.45832922884599 51.134223029272555,-48.002788809325054 52,-47.81145932548586 C52.734223029272556,-47.64920216461967 53.188764555242855,-48.182831139760324 54,-48.307151022329535 C54.78876455524286,-48.428027295076596 55.2282947852275,-48.24941955755887 56,-48.42444971377654 C56.8282947852275,-48.61231492820998 57.25876295547302,-48.79273904166319 58,-49.214389448957306 C58.85876295547301,-49.702894108320855 59.12132914693102,-50.279618019533075 60,-50.699837380420696 C60.72132914693102,-51.04480896113748 61.19110274504889,-51.04654301942645 62,-51.12736680296832 C62.79110274504889,-51.20641258614269 63.282210761428345,-51.36103738262358 64,-51.0995112972113 C64.88221076142834,-50.77807832699283 65.1860364093494,-50.2211448927029 66,-49.669969163891466 C66.7860364093494,-49.137704335621706 67.17908898050611,-48.86632753102205 68,-48.390909904508305 C68.7790889805061,-47.93971285006557 69.30447070113959,-47.906135039006 70,-47.35343246150026 C70.90447070113959,-46.63469453253401 71.0510763967319,-45.6720882023336 72,-45.21230863832833 C72.6510763967319,-44.89684423129647 73.26547886309368,-45.14499241961998 74,-45.41532253390745 C74.86547886309367,-45.73384978685884 75.30918531989582,-46.87826064465159 76,-46.68445205642548 C76.90918531989581,-46.42937941775727 77.25375226690224,-45.29016979190068 78,-44.29311946667164 C78.85375226690223,-43.15243395752266 78.97669480130932,-42.04442783951539 80,-41.34011247048043 C80.57669480130932,-40.94318786546091 81.2786019989662,-41.249388979041655 82,-41.54001953153543 C82.8786019989662,-41.89398306347722 83.33163122364523,-42.25378908785619 84,-42.951597681569346 C84.93163122364523,-43.92426471364816 85.16794600517343,-44.635097179257095 86,-45.71620859601534 C86.76794600517343,-46.71402267876598 87.06222103827476,-47.80657216549309 88,-48.148911430341556 C88.66222103827477,-48.39065737758812 89.35218771431654,-46.91518124085629 90,-47.176421626252925 C90.95218771431654,-47.56040613990807 91.01384133883862,-49.03229812114198 92,-49.761973677970985 C92.61384133883861,-50.21616531909518 93.19334780324733,-50.04707837240711 94,-50.136089621135945 C94.79334780324734,-50.22363277657222 95.25703383140085,-50.404955488816725 96,-50.20335968838376 C96.85703383140086,-49.97081286654779 97.35900718321582,-49.68662886237862 98,-49.050733065463604 C98.95900718321582,-48.09935167545409 99.12539903950612,-46.40242291478894 100,-46.235166721072446 C100.72539903950613,-46.09644347726891 101.16868761691177,-48.220499247874834 102,-48.28578447166352 C102.76868761691176,-48.34615160213648 103.08879381179938,-46.92370078996806 104,-46.54929760672656 C104.68879381179939,-46.26628087673268 105.37823677000834,-47.006082018367586 106,-46.64223468857507 C106.97823677000834,-46.069783923551284 107.1062359430942,-45.0834273557628 108,-44.208552369685805 C108.7062359430942,-43.51724222344802 109.2298343133494,-43.356121297070715 110,-42.72677185778812 C110.82983431334941,-42.04866353790806 111.21299292862597,-40.91426071718706 112,-40.93990797177917 C112.81299292862596,-40.96640206234134 113.11632381502959,-42.20787780320888 114,-42.85712522067381 C114.71632381502958,-43.383416858817434 115.15494154116415,-43.62927695928719 116,-43.87875561080056 C116.75494154116414,-44.10162989327389 117.19875594172917,-44.002101637106875 118,-44.03800755564057 C118.79875594172917,-44.073801974926404 119.41918254915328,-43.636328119866526 120,-44.05800645534937 C121.01918254915329,-44.79794152488559 121.15416289772989,-46.84110862447975 122,-46.942041068188225 C122.75416289772988,-47.032034169717875 123.1283641600701,-45.42684619975533 124,-44.53532031844468 C124.7283641600701,-43.79033546356101 125.17268266683263,-42.909290665428735 126,-42.85076422770243 C126.77268266683264,-42.79610277898185 127.15599932543554,-44.14362166302167 128,-44.25235060232745 C128.75599932543554,-44.34974271023414 129.16416829986628,-43.549515980071725 130,-43.366066845733606 C130.76416829986627,-43.19834646245947 131.27969769081926,-43.120410922125686 132,-43.3744268082968 C132.87969769081926,-43.68465375835378 133.20107944003735,-44.77896408261209 134,-44.776673936303844 C134.80107944003734,-44.77437760145636 135.31141521358524,-44.04552233436429 136,-43.36296060540747 C136.91141521358523,-42.45951754907544 137.01372420057004,-41.375838987572166 138,-40.81166197308172 C138.61372420057003,-40.46059476916346 139.19986868260744,-40.970582533902615 140,-41.074850059385696 C140.79986868260744,-41.17908336013772 141.2980762213005,-41.573667279718165 142,-41.33291403866946 C142.8980762213005,-41.02488235838151 143.18456320610827,-39.73540363866842 144,-39.70288775604406 C144.78456320610826,-39.67160297062317 145.21804820676996,-40.56208589978329 146,-41.17341236855633 C146.81804820676996,-41.812958854491285 147.10827210030985,-42.34820174914629 148,-42.830070142814044 C148.70827210030984,-43.21280341758832 149.38192933615733,-43.65803517938511 150,-43.33491653966139 C150.98192933615732,-42.821577709710496 151.00760765541548,-41.34315078720497 152,-40.73892646862751 C152.60760765541548,-40.368980727349566 153.30411132422014,-40.580686149445356 154,-40.89949139002289 C154.90411132422014,-41.31368900274286 155.14526988686328,-41.98339687520786 156,-42.57143360187128 C156.7452698868633,-43.08416394565619 157.15506899635784,-43.49822102942587 158,-43.651409066143714 C158.75506899635783,-43.78830490336589 159.20960421431084,-43.25343388650034 160,-43.296643286721334 C160.80960421431084,-43.340902774373156 161.1962275093615,-43.854910318585894 162,-43.87008128582576 C162.79622750936153,-43.88510984378301 163.2671427988282,-43.719040602819625 164,-43.37214209971414 C164.86714279882818,-42.96167940874076 165.14489702343997,-42.42812731264227 166,-41.9766783006286 C166.74489702343996,-41.58341218590085 167.28656542255345,-41.08077453538826 168,-41.26035428286058 C168.88656542255345,-41.48351306957045 169.16389027749472,-42.90512321304356 170,-42.98352463608407 C170.76389027749474,-43.055154092350826 171.2480952235191,-41.54218006785852 172,-41.63543148112874 C172.8480952235191,-41.74061245703772 173.07950793971133,-43.09708070125701 174,-43.47960560903206 C174.67950793971133,-43.76198578718262 175.2746862331229,-43.57833156674283 176,-43.297694195942746 C176.8746862331229,-42.95926184301012 177.1236806632791,-42.23114240853859 178,-41.93193129970028 C178.72368066327908,-41.6848372500416 179.2,-41.93193129970028 180,-41.93193129970028 C180.8,-41.93193129970028 181.2,-41.93193129970028 182,-41.93193129970028 C182.8,-41.93193129970028 183.2,-41.93193129970028 184,-41.93193129970028 C184.8,-41.93193129970028 185.2,-41.93193129970028 186,-41.93193129970028 C186.8,-41.93193129970028 187.2,-41.93193129970028 188,-41.93193129970028 C188.8,-41.93193129970028 189.2,-41.93193129970028 190,-41.93193129970028 C190.8,-41.93193129970028 191.2,-41.93193129970028 192,-41.93193129970028 C192.8,-41.93193129970028 193.2,-41.93193129970028 194,-41.93193129970028 C194.8,-41.93193129970028 195.2,-41.93193129970028 196,-41.93193129970028 C196.8,-41.93193129970028 197.2,-41.93193129970028 198,-41.93193129970028 Q198.8,-41.93193129970028 200,-41.93193129970028"
                  class="spline"
                  fill="none"/>
         </g>
      </g>
      <g id="gaussian">
         <g>
            <path d="M2,-58.51797638445766 Q3.207091590007241,-58.0187213091574 4,-57.65976454176911 C4.807091590007241,-57.29438692124681 5.206893764721128,-57.10204048777344 6,-56.70714041468119 C6.806893764721128,-56.30537531374989 7.205738408719277,-56.094410884036954 8,-55.66810160671023 C8.805738408719277,-55.23563230124926 9.203366057953986,-55.00932787096418 10,-54.56019395771195 C10.803366057953985,-54.1072645476793 11.19968294759015,-53.87128995803662 12,-53.412943298498035 C12.79968294759015,-52.95495979481753 13.194911749772166,-52.71765885633222 14,-52.26936854966423 C14.794911749772165,-51.82674473546931 15.189787097952275,-51.59911304805857 16,-51.18565799634076 C16.789787097952274,-50.78262631836498 17.18576630450899,-50.57795503411438 18,-50.22815172543025 C18.78576630450899,-49.89057830554864 19.18503176107646,-49.7238762307774 20,-49.467216174926406 C20.785031761076457,-49.21998409149108 21.189654598564847,-49.107150673553534 22,-48.968421377214455 C22.789654598564848,-48.833234299437734 23.199449581084032,-48.78896547376696 24,-48.7824252396369 C24.799449581084033,-48.77589399899057 25.218563547052852,-48.779952620922664 26,-48.93574269027348 C26.81856354705285,-49.09893455479741 27.22698652904047,-49.25709471536818 28,-49.57988007432375 C28.82698652904047,-49.925202832148926 29.2107638123107,-50.175797816559644 30,-50.606012982225344 C30.8107638123107,-51.04796292480238 31.194533308772776,-51.30832517336193 32,-51.760292844930575 C32.79453330877278,-52.20612551990144 33.21858031547176,-52.38328669803698 34,-52.85051384857413 C34.81858031547176,-53.339960116509616 35.17708231608854,-53.67070480745255 36,-54.15197639111216 C36.77708231608854,-54.60644181846836 37.17852459897901,-54.8230032311152 38,-55.189856376113646 C38.77852459897901,-55.537528621976556 39.18157846342983,-55.70361573232646 40,-55.938289868265535 C40.78157846342983,-56.162399623908875 41.1936376513852,-56.29057096280691 42,-56.33681610506967 C42.793637651385204,-56.38233148181865 43.229783017742065,-56.35855192818792 44,-56.167691165794885 C44.829783017742066,-55.962069862921545 45.21611779147077,-55.70926595140657 46,-55.34561094190372 C46.816117791470774,-54.967001349820244 47.23660814754018,-54.78500092693748 48,-54.31202966182905 C48.83660814754018,-53.793696105258995 49.265550041567806,-53.520122376709566 50,-52.86734888770751 C50.86555004156781,-52.09805465049875 51.193105242482595,-51.5944124259716 52,-50.75686034630203 C52.793105242482596,-49.933621703282576 53.198053228339965,-49.5300510181221 54,-48.71537208098496 C54.79805322833997,-47.90464850328785 55.16313462289335,-47.46182726645699 56,-46.69335405921641 C56.763134622893354,-45.99258601783949 57.145370403935395,-45.620768997936295 58,-45.042268959441216 C58.74537040393539,-44.53772662981059 59.162104343507885,-44.30807189737684 60,-43.98574813890215 C60.762104343507886,-43.69257996880118 61.18926154766209,-43.57977575311742 62,-43.503539138002054 C62.78926154766209,-43.429322072484865 63.21400390205513,-43.480746775502034 64,-43.60961393732077 C64.81400390205513,-43.7430730891429 65.23490275762879,-43.851500273382875 66,-44.159354922104214 C66.83490275762878,-44.49529744147559 67.22876529298254,-44.747899545855766 68,-45.21910685755257 C68.82876529298255,-45.72546408211804 69.20372144557581,-46.04430073973221 70,-46.60326626275989 C70.80372144557582,-47.16745648953262 71.21802640211897,-47.43371160703137 72,-48.026996232053584 C72.81802640211896,-48.64763417757313 73.19132979433647,-49.00471564564447 74,-49.63807268911429 C74.79132979433648,-50.257848582229194 75.14411157267334,-50.64599022711076 76,-51.1598285735154 C76.74411157267333,-51.60656093702835 77.17486769347724,-51.763525032211206 78,-52.03949946390826 C78.77486769347723,-52.29866235167465 79.19203555499666,-52.36200942185342 80,-52.49767187217401 C80.79203555499666,-52.63065975895092 81.2002846699691,-52.71374360693802 82,-52.711125306652015 C82.80028466996909,-52.708505142324064 83.21004447892413,-52.63001653093689 84,-52.48457571063913 C84.81004447892413,-52.335436258671066 85.21445982213625,-52.224301285508346 86,-51.97467462598745 C86.81445982213624,-51.715857966517845 87.23454217170242,-51.5890395362492 88,-51.213467413162874 C88.83454217170242,-50.803999035357606 89.1804357554542,-50.456453493017975 90,-50.01207337375846 C90.78043575545419,-49.58890931262336 91.20328771259335,-49.438248281743626 92,-49.044606962176324 C92.80328771259335,-48.6477168423983 93.18216980384545,-48.39902834275016 94,-48.03574477539516 C94.78216980384546,-47.688301702304415 95.19020301267165,-47.5464625029917 96,-47.26779036106198 C96.79020301267164,-46.9958610138968 97.1935669067614,-46.87903542346891 98,-46.65924105265789 C98.79356690676141,-46.44295337742422 99.19149389046943,-46.22720682750892 100,-46.17758524595024 C100.79149389046944,-46.12900777921727 101.19833322993568,-46.33661195497449 102,-46.413743431928765 C102.79833322993568,-46.49055417602594 103.20733008914009,-46.450725477115846 104,-46.562440798578855 C104.80733008914008,-46.676222259435875 105.19475601556601,-46.84289064912151 106,-46.977485387728834 C106.79475601556602,-47.11032708569805 107.20164468027352,-47.11799478760172 108,-47.23103189002021 C108.80164468027351,-47.34453472464573 109.19639722722061,-47.44942627879812 110,-47.543835230338885 C110.79639722722061,-47.637397659164044 111.20131035179853,-47.624430937232425 112,-47.70096034093502 C112.80131035179852,-47.77774085704907 113.1981170987482,-47.90479119086355 114,-47.92711002988049 C114.79811709874821,-47.94932405516501 115.20830754498157,-47.919778191686 116,-47.81229250168866 C116.80830754498156,-47.702551031182445 117.21120724998721,-47.59697856699429 118,-47.38404212862161 C118.8112072499872,-47.16505484382269 119.18958309349661,-46.95509138961292 120,-46.73248319375966 C120.78958309349662,-46.51559770370014 121.22076010522744,-46.53062208907147 122,-46.28530791383966 C122.82076010522744,-46.02692267249391 123.18767627792872,-45.763503140538354 124,-45.473234652315774 C124.78767627792871,-45.19177346117861 125.1833336103128,-45.01776135451128 126,-44.8559837154403 C126.78333361031281,-44.70080913781395 127.20032630580535,-44.75445150387508 128,-44.68085411057244 C128.80032630580536,-44.607196654629576 129.1981737887715,-44.531259759567945 130,-44.48784659232654 C130.7981737887715,-44.444631177696294 131.20238631536958,-44.42503374204305 132,-44.46428265589332 C132.80238631536957,-44.50376642099594 133.19809960202738,-44.62016145123735 134,-44.68467828970876 C134.79809960202738,-44.74888933541754 135.19948954828737,-44.76419605690614 136,-44.78610236634379 C136.7994895482874,-44.807980738324424 137.20015360222428,-44.781331575260054 138,-44.79413999325447 C138.8001536022243,-44.80695333069717 139.20137199252605,-44.87395175299859 140,-44.85015675493658 C140.80137199252607,-44.82628000026399 141.20990030615067,-44.80537106054961 142,-44.674960611417966 C142.8099003061507,-44.5412819585857 143.19426039692698,-44.35607365255244 144,-44.1899340000268 C144.79426039692697,-44.02616130490664 145.2013049591513,-43.99336138349065 146,-43.85017974230347 C146.80130495915128,-43.70653022243066 147.20474977271277,-43.6456611609817 148,-43.47285609737681 C148.80474977271277,-43.29798681612677 149.20821848996647,-43.20662022301007 150,-42.98099388016613 C150.80821848996646,-42.750683649630105 151.1830793156771,-42.51590439227553 152,-42.333014663926896 C152.7830793156771,-42.15770123868497 153.19720998221572,-42.120960908093224 154,-42.08548599618973 C154.79720998221575,-42.050257663423785 155.20376128326984,-42.0855010629544 156,-42.1562565522533 C156.80376128326984,-42.227680513035835 157.20261231643704,-42.31102262263219 158,-42.44093462139332 C158.80261231643703,-42.571697827808464 159.21065604971173,-42.61695731347357 160,-42.807944565194 C160.81065604971172,-43.00408842740823 161.19986650555293,-43.16888054489341 162,-43.40876240622996 C162.79986650555296,-43.648564223682186 163.19666453114218,-43.779573864890544 164,-44.007153762165935 C164.79666453114217,-44.232843824647624 165.19694044163685,-44.34020652760119 166,-44.54193730562267 C166.79694044163685,-44.7421309446298 167.20248546725097,-44.81394219178208 168,-45.01196480473747 C168.80248546725096,-45.21122169919931 169.1889625677752,-45.38641594984115 170,-45.53513607416571 C170.78896256777523,-45.67980832541445 171.20698242206976,-45.617808143747816 172,-45.745445743670714 C172.80698242206975,-45.87533101027701 173.19182520896166,-46.06265006028666 174,-46.17894324048869 C174.79182520896165,-46.292883780004885 175.199385096401,-46.27486000342276 176,-46.321030042966285 C176.79938509640098,-46.367129161712924 177.2003122348766,-46.36815856291274 178,-46.409616136214105 C178.8003122348766,-46.4511060834015 179.20067480871091,-46.47141820293132 180,-46.52839884418818 C180.8006748087109,-46.58547569418085 181.20092706688288,-46.61849994268748 182,-46.69475986433794 C182.8009270668829,-46.771196736163844 183.20083458145103,-46.816839332760104 184,-46.910140827879104 C184.80083458145103,-47.00363719553731 185.20034517427277,-47.05843742977979 186,-47.16175452128096 C186.80034517427276,-47.2651608072715 187.19965395674245,-47.32354989347131 188,-47.42694927160837 C188.79965395674245,-47.530259236777276 189.19907398253898,-47.58590465214309 190,-47.67852787954587 C190.79907398253897,-47.770936928050716 191.19886496540727,-47.81781126567017 192,-47.889529961377434 C192.79886496540726,-47.961045437409965 193.19913386256977,-47.994105014552936 194,-48.03661330889535 C194.79913386256976,-48.07902965772251 195.19982853919436,-48.09453310810124 196,-48.10184156930137 C196.79982853919435,-48.109146898386186 197.2007919715245,-48.10469898945235 198,-48.07314778460771 Q198.8007919715245,-48.04153404872007 200,-47.94392921747065"
                  class="spline"
                  fill="none"/>
         </g>
      </g>
      <text x="100" y="8" text-anchor="middle" font-size="5">Fake independent
                    variable</text>
      <text x="-10"
            y="-50"
            text-anchor="middle"
            font-size="5"
            writing-mode="tb">Fake
                    dependent variable</text>
      <text x="100" y="-106" text-anchor="middle" font-size="8">Smoothing examples (window                     = 25)</text>
   </g>
   <g transform="translate(50, 15)">
      <rect x="0"
            y="0"
            width="100"
            height="51"
            fill="ghostwhite"
            stroke="black"
            stroke-width="0.5"/>
      <rect x="2" y="2" width="5" height="5" fill="black"/>
      <rect x="2" y="9" width="5" height="5" fill="red"/>
      <rect x="2" y="16" width="5" height="5" fill="gray"/>
      <rect x="2" y="23" width="5" height="5" fill="blue"/>
      <rect x="2" y="30" width="5" height="5" fill="green"/>
      <rect x="2" y="37" width="5" height="5" fill="indigo"/>
      <rect x="2" y="44" width="5" height="5" fill="darkgoldenrod"/>
      <text x="10" y="6" fill="black" font-size="5">
         <tspan>Actual data (101 points)</tspan>
         <tspan x="10" dy="7" fill="red">Regression line (51.4–41.3)</tspan>
         <tspan x="10" dy="7" fill="gray">Y intercept of regression line (51.4)</tspan>
         <tspan x="10" dy="7" fill="blue">Rectangular kernal</tspan>
         <tspan x="10" dy="7" fill="green">Gaussian kernal (σ = 5)</tspan>
         <tspan x="10" dy="7" fill="indigo">Exponential kernel (y = 2<tspan dy="-2" font-size="4">-d</tspan>
            <tspan dy="2">)</tspan>
         </tspan>
         <tspan x="10" dy="7" fill="darkgoldenrod">Parabolic kernel (y = 1 - (d/N)<tspan dy="-2" font-size="4">2</tspan>
            <tspan dy="2">)</tspan>
         </tspan>
      </text>
   </g>
</svg>
