<?xml version="1.0" encoding="UTF-8"?>
<svg xmlns="http://www.w3.org/2000/svg" viewBox="-20 -115 434 195">
   <script type="text/javascript">
                window.addEventListener('DOMContentLoaded', init, false);
                function init() {
                    var rects = document.getElementsByClassName('toggle');
                    for (var i = 0; i &lt; rects.length; i++) {
                        rects[i].addEventListener('mouseover', emphasize, false);
                        rects[i].addEventListener('mouseout', deemphasize, false);
                    }
                }
                function emphasize() {
                    var target = this.id.substring(0, this.id.indexOf('-'));
                    document.getElementById(target).classList.add('highlight');
                }
                function deemphasize() {
                    var target = this.id.substring(0, this.id.indexOf('-'));
                    document.getElementById(target).classList.remove('highlight');
                }//</script>
   <style type="text/css">
                .spline {
                    stroke-width: 0.5;
                    stroke-opacity: 0.5;
                    fill: none;
                }
                .highlight .spline {
                    stroke-width: 1.5;
                    stroke-opacity: 0.75;
                }
                #rectangular {
                    stroke: blue;
                }
                #gaussian {
                    stroke: green;
                }
                #exponential {
                    stroke: indigo;
                }
                #parabolic {
                    stroke: darkgoldenrod;
                }
                #regression {
                    stroke: red;
                    stroke-width: 0.5;
                    stroke-opacity: 0.5;
                }
                #regression.highlight {
                    stroke-width: 1.5;
                    stroke-opacity: 0.75;
                }
                #data.highlight &gt; polyline {
                    stroke-width: 1.5;
                }</style>
   <g>
      <rect x="0"
            y="-100"
            width="400"
            height="100"
            stroke="lightgray"
            stroke-width="0.5"
            fill="none"/>
      <text x="-1"
            y="0"
            fill="lightgray"
            font-size="3"
            text-anchor="end"
            alignment-baseline="central">0.0</text>
      <text x="-1"
            y="-100"
            fill="lightgray"
            font-size="3"
            text-anchor="end"
            alignment-baseline="central">100.0</text>
      <text x="-1"
            y="-46.95139190112258"
            fill="lightgray"
            font-size="3"
            text-anchor="end"
            alignment-baseline="central">47.0</text>
      <text x="408"
            y="-100"
            font-size="3"
            fill="lightgray"
            text-anchor="end"
            alignment-baseline="central">100.0</text>
      <text x="408"
            y="0"
            font-size="3"
            fill="lightgray"
            text-anchor="end"
            alignment-baseline="central">0.0</text>
      <text x="408"
            y="-50.19269656398298"
            fill="red"
            fill-opacity="0.5"
            font-size="3"
            text-anchor="end"
            alignment-baseline="central">50.2</text>
      <line x1="0"
            y1="-46.95139190112258"
            x2="400"
            y2="-46.95139190112258"
            stroke="lightgray"
            stroke-width="0.5"/>
      <polyline points="0,-49.99984290408249 0.4000000000000057,-54.991546939002156 0.8000000000000114,-59.93337551724288 1.1999999999999886,-64.77595152120186 1.5999999999999943,-69.47088953219108 2,-73.97127928154451 2.4000000000000057,-78.23215436251768 2.8000000000000114,-82.21094151975959 3.1999999999999886,-85.86788602720695 3.5999999999999943,-89.16644890416701 4,-92.07367200073286 4.400000000000006,-94.5605073047238 4.800000000000011,-96.60210717982078 5.199999999999989,-98.17807263493496 5.599999999999994,-99.27265714418395 6,-99.87492398097277 6.400000000000006,-99.97885549415115 6.800000000000011,-99.58341323439461 7.199999999999989,-98.69254833004689 7.599999999999994,-97.31516200875132 8,-95.46501665932695 8.400000000000006,-93.16059832252849 8.800000000000011,-90.42493198463777 9.199999999999989,-87.28535151941222 9.599999999999994,-83.77322657705257 10,-79.92364914902896 10.400000000000006,-75.77508294050106 10.800000000000011,-71.36897905369085 11.199999999999989,-66.74936182217134 11.599999999999994,-61.9623889342768 12,-57.05589024074054 12.400000000000006,-52.078889854635534 12.800000000000011,-47.08111631864215 13.199999999999989,-42.112505733888106 13.599999999999994,-37.22270281493126 14,-32.46056485618424 14.400000000000006,-27.873673565977324 14.800000000000011,-23.50785964585759 15.199999999999989,-19.40674486536895 15.599999999999994,-15.611306207749143 16,-12.159466441460207 16.400000000000006,-9.085715208420362 16.80000000000001,-6.420764414903093 17.19999999999999,-4.1912413683217355 17.599999999999994,-2.4194227259750924 18,-1.123011914052292 18.400000000000006,-0.31496224084961644 18.80000000000001,-0.003347471596007521 19.19999999999999,-0.1912811580596684 19.599999999999994,-0.8768855289680912 20,-2.053310252077847 20.400000000000006,-3.7088008804299233 20.80000000000001,-5.826816298898281 21.19999999999999,-8.386193997544195 21.599999999999994,-11.361361520420944 22,-14.722591977099405 22.400000000000006,-18.43630106393152 22.80000000000001,-22.465382627310667 23.19999999999999,-26.769579416092544 23.599999999999994,-31.305885318742536 24,-36.02897506618446 24.400000000000006,-40.89165710690774 24.80000000000001,-45.84534512935046 25.19999999999999,-50.84054352026357 25.599999999999994,-55.82734190851884 26,-60.75591385303683 26.400000000000006,-65.57701469211722 26.80000000000001,-70.24247357981996 27.19999999999999,-74.70567479313448 27.599999999999994,-78.92202350087612 28,-82.84939134049645 28.400000000000006,-86.44853735075714 28.80000000000001,-89.68350005444316 29.19999999999999,-92.5219567735556 29.599999999999994,-94.93554658682653 30,-96.90015370266826 30.400000000000006,-98.39614841619205 30.80000000000001,-99.40858324273049 31.19999999999999,-99.92734226816323 31.599999999999994,-99.94724222378719 32,-99.46808427582374 32.400000000000006,-98.49465601210038 32.80000000000001,-97.03668360605565 33.19999999999999,-95.10873463602925 33.599999999999994,-92.73007253083428 34,-89.92446409594477 34.400000000000006,-86.71994204343127 34.80000000000001,-83.14852489836841 35.19999999999999,-79.24589708031633 35.599999999999994,-75.05105235639525 36,-70.60590422845554 36.400000000000006,-65.95486714722097 36.80000000000001,-61.14441273777874 37.19999999999999,-56.22260547046358 37.599999999999994,-51.23862241655662 38,-46.24226188724708 38.400000000000006,-41.283445865366616 38.80000000000001,-36.41172120143922 39.19999999999999,-31.675764557929107 39.599999999999994,-27.122896048118438 40,-22.79860642917934 40.400000000000006,-18.746102573564162 40.80000000000001,-15.00587576021853 41.19999999999999,-11.615297099107016 41.599999999999994,-8.608244131434674 42,-6.014762336455188 42.400000000000006,-3.8607649269728794 42.80000000000001,-2.167773933086434 43.19999999999999,-0.9527051611784019 43.599999999999994,-0.22769917676919338 44,-0 44.400000000000006,-0.2718827257777669 44.80000000000001,-1.0406307917790056 45.19999999999999,-2.2985631214424407 45.599999999999994,-4.033110870747408 46,-6.226943011948028 46.400000000000006,-8.858139499473918 46.80000000000001,-11.90041028777963 47.19999999999999,-15.323358012789189 47.599999999999994,-19.092781712310863 48,-23.171018550744616 48.400000000000006,-27.517320133686685 48.80000000000001,-32.0882596524166 49.19999999999999,-36.83816579021459 49.599999999999994,-41.71957905506265 50,-46.68372597919881 50.400000000000006,-51.68100644748588 50.80000000000001,-56.66148928536606 51.19999999999999,-61.575411154651626 51.599999999999994,-66.37367377235198 52,-71.00833448448547 52.400000000000006,-75.43308529323158 52.80000000000001,-79.60371555113751 53.19999999999999,-83.47855369929303 53.599999999999994,-87.01888363577353 54,-90.18933155413093 54.400000000000006,-92.95821938677568 54.80000000000001,-95.29788132175666 55.19999999999999,-97.18494023040886 55.599999999999994,-98.60054124389598 56,-99.53054014482663 56.400000000000006,-99.96564469159944 56.80000000000001,-99.90150746340953 57.19999999999999,-99.33876929824007 57.599999999999994,-98.28305288982087 58,-96.74490660753136 58.400000000000006,-94.7396991005807 58.80000000000001,-92.2874657395448 59.19999999999999,-89.4127084295668 59.599999999999994,-86.1441507954192 60,-82.51445118454103 60.400000000000006,-78.55987635562505 60.80000000000001,-74.31993911315313 61.19999999999999,-69.83700350851548 61.599999999999994,-65.1558615524115 62,-60.323285667887085 62.400000000000006,-55.387561355743216 62.80000000000001,-50.39800474177329 63.19999999999999,-45.40446982633632 63.599999999999994,-40.45685035966344 64,-35.60458132000048 64.4,-30.896144975644837 64.80000000000001,-26.37858646614719 65.19999999999999,-22.097043742828433 65.6,-18.094296565289504 66,-14.410339060196383 66.4,-11.08198011318552 66.80000000000001,-8.142475586646247 67.19999999999999,-5.621196038136906 67.6,-3.543333259481633 68,-1.9296485687148308 68.4,-0.7962653698533934 68.80000000000001,-0.15450805317367883 69.19999999999999,-0.010788845647178582 69.6,-0.36654374208821877 70,-1.2182181571685253 70.4,-2.557302441658749 70.80000000000001,-4.370416908030673 71.19999999999999,-6.63944551587209 71.6,-9.341716881374905 72,-12.450230802307027 72.4,-15.933928035108597 72.8,-19.7580006285865 73.2,-23.88423971345733 73.6,-28.271417272738056 74,-32.87569807846475 74.4,-37.65107767879933 74.8,-42.54984205930569 75.2,-47.52304438561037 75.6,-52.5209940639907 76,-57.49375323336318 76.4,-62.39163572788289 76.8,-67.16570352468914 77.2,-71.76825571645357 77.6,-76.15330512307717 78,-80.277037780394 78.4,-84.09825071481666 78.8,-87.5787636298294 79.2,-90.68380039089024 79.6,-93.38233649707115 80,-95.64740906761682 80.4,-97.45638624613564 80.8,-98.79119333062822 81.2,-99.63849336993495 81.6,-99.98982042214314 82,-99.84166414348049 82.4,-99.19550486250937 82.8,-98.05779878917345 83.2,-96.43991350648182 83.6,-94.35801438937743 84,-91.83290308565392 84.4,-88.88980967276734 84.8,-85.55814056724203 85.2,-81.87118470547681 85.6,-77.86578093169706 86,-73.58194991639972 86.4,-69.06249428304345 86.8,-64.35257093838355 87.2,-59.49923987958586 87.6,-54.55099398629227 88,-49.55727449579558 88.4,-44.56797700254084 88.8,-39.63295291783833 89.2,-34.801511371039986 89.6,-30.121926529019504 90,-25.640955256652944 90.4,-21.403369937681777 90.8,-17.45151112385384 91.2,-13.82486448212578 91.6,-10.55966626693199 92,-7.688541259507441 92.4,-5.240176791858693 92.8,-3.239036112424859 93.2,-1.705113957385541 93.6,-0.6537367698667518 94,-0.09540956318701636 94.4,-0.03571095823708115 94.8,-0.4752374437438461 95.2,-1.4095974163523035 95.6,-2.8294550600744235 96,-4.720623626676778 96.4,-7.0642071849790335 96.8,-9.836789422752272 97.2,-13.01066761477068 97.6,-16.554129419284042 98,-20.431769737254648 98.4,-24.60484446840269 98.8,-29.031657629449473 99.2,-33.66797796660003 99.6,-38.467480899608944 100,-43.38221138167468 100.4,-48.36306305041417 100.8,-53.36026888240386 101.2,-58.32389844882748 101.6,-63.204356803814754 102,-67.95288002074805 102.4,-72.52202242529671 102.8,-76.86613065691195 103.2,-80.94179982211507 103.6,-84.70830718184419 104,-88.12801903960296 104.4,-91.16676676491493 104.8,-93.79418819498517 105.2,-95.98403100339469 105.6,-97.71441500466743 106,-98.96805077385174 106.4,-99.73241239673877 106.8,-99.99986262465694 107.2,-99.76772918333624 107.6,-99.03833147338925 108,-97.81895739562687 108.4,-96.12179053276263 108.8,-93.96378841508158 109.2,-91.3665130864028 109.6,-88.35591566326552 110,-84.96207703995036 110.4,-81.21890733012765 110.8,-77.16380704821071 111.2,-72.8372934157782 111.6,-68.28259552689049 112,-63.54522241727003 112.4,-58.67250835306096 112.8,-53.71313988248792 113.2,-48.71666937595927 113.6,-43.73301991516302 114,-38.81198647813562 114.4,-34.00273840430263 114.8,-29.35332811069192 115.2,-24.91021096806619 115.6,-20.71778113421562 116,-16.817927982206694 116.4,-13.249617555614387 116.8,-10.048503232694706 117.2,-7.246569489614321 117.6,-4.871812322138143 118,-2.9479595188930694 118.4,-1.4942335811480405 118.8,-0.5251596579351074 119.2,-0.0504204155617101 119.6,-0.0747592916097468 120,-0.5979331000750975 120.4,-1.6147144612018658 120.8,-3.114944031732839 121.2,-5.083632013709338 121.6,-7.501107927577045 122,-10.343217153116054 122.4,-13.581562274421106 122.8,-17.183786817494564 123.2,-21.11389854543941 123.6,-25.33262908099196 124,-29.79782626316818 124.4,-34.46487531772157 124.8,-39.28714463322016 125.2,-44.216451688694136 125.6,-49.203544477457136 126,-54.198593616877886 126.4,-59.15169022709884 126.8,-64.01334460406656 127.2,-68.73498070429599 127.6,-73.26942150063871 128,-77.57136035954481 128.4,-81.59781372996788 128.8,-85.30855062079917 129.2,-88.66649457563177 129.6,-91.63809412845822 130,-94.19365803882663 130.4,-96.30765195690167 130.8,-97.95895355424744 131.2,-99.13106357115093 131.6,-99.8122706717715 132,-99.99576845993673 132.4,-99.67972348640359 132.8,-98.86729356807706 133.2,-97.5665962361475 133.6,-95.79062762840206 134,-93.55713263611219 134.4,-90.88842760294557 134.8,-87.81117734743702 135.2,-84.35612873693613 135.6,-80.55780347507131 136,-76.45415317229995 136.4,-72.08618014596091 136.8,-67.49752773867344 137.2,-62.734044248484686 137.6,-57.843324827829655 138,-52.87423592850294 138.4,-47.876427044224236 138.8,-42.89983462930927 139.2,-37.99418315012548 139.6,-33.2084882546594 140,-28.590567024366464 140.4,-24.186560201697958 140.8,-20.04047116705488 141.2,-16.193726271556816 141.6,-12.68476091863425 142,-9.548635530184127 142.4,-6.816685234422619 142.8,-4.516206775642273 143.2,-2.6701857741662622 143.6,-1.2970670616276598 144,-0.4105703863095952 144.4,-0.01955332995501618 144.8,-0.1279228057379522 145.2,-0.7345960216785057 145.6,-1.8335112995425977 146,-3.413688641126877 146.4,-5.459339436771408 146.8,-7.950024219928363 147.2,-10.860856891555148 147.6,-14.162753373790634 148,-17.822722208445988 148.4,-21.80419419675019 148.8,-26.06738778669575 149.2,-30.569706557156056 149.6,-35.266164827246016 150,-40.10983713837328 150.4,-45.05232711791026 150.8,-50.04425103975139 151.2,-55.035731250179936 151.6,-59.97689452889801 152,-64.81837040575572 152.4,-69.51178445417062 152.8,-74.0102416324074 153.2,-78.26879484333305 153.6,-82.24489403095517 154,-85.89881132651435 154.4,-89.19403799621782 154.8,-92.09764922443904 155.2,-94.58063308759172 155.6,-96.61818043168094 156,-98.18993275716795 156.4,-99.28018563436876 156.8,-99.87804561692401 157.2,-99.97753908551432 157.6,-99.5776719342897 158,-98.68243950364663 158.4,-97.3007866601076 158.8,-95.44651842217158 159.2,-93.13816202513257 159.6,-90.39878180306832 160,-87.25574873763912 160.4,-83.74046697628611 160.8,-79.88806005237115 161.2,-75.7370199424418 161.6,-71.32882246712452 162,-66.70751287843656 162.4,-61.91926577418628 162.8,-57.01192373665527 163.2,-52.03451930533131 163.6,-47.0367850599803 164,-42.06865670915088 164.4,-37.179774149079606 164.8,-32.418985478257035 165.2,-27.833858923374805 165.6,-23.470207553327345 166,-19.37163153017313 166.4,-15.579082470726405 166.8,-12.13045427153913 167.2,-9.060204485612857 167.6,-6.3990100339184846 168,-4.173460691743649 168.4,-2.4057934124465548 168.8,-1.113670143168822 169.2,-0.3100013524979578 169.6,-0.0028170333326345462 170,-0.19518646984839674 170.4,-0.8851875702244634 170.8,-2.0659260715499155 171.2,-3.7256044250196276 171.6,-5.84763967314269 172,-8.410829141171352 172.4,-11.389562287218856 172.8,-14.754076594328161 173.2,-18.470754947702922 173.6,-22.502461525807266 174,-26.808912849217528 174.4,-31.34708027983374 174.8,-36.071619948807886 175.2,-40.935325817492405 175.6,-45.889601344575496 176,-50.884945046655965 176.4,-55.87144510070371 176.8,-60.79927804649645 177.2,-65.61920660616448 177.6,-70.28307164679686 178,-74.74427337057602 178.4,-78.95823692455521 178.8,-82.88285777785423 179.2,-86.47892241621379 179.6,-89.7105001504689 180,-92.54530212411619 180.4,-94.95500393289588 180.8,-96.91552863287617 181.2,-98.40728730931811 181.6,-99.4153748026367 182,-99.92971863582807 182.4,-99.94517965533036 182.8,-99.4616033797475 183.2,-98.4838215433761 183.6,-97.02160381911337 184,-95.08956020311524 184.4,-92.70699503654407 184.8,-89.89771412297294 185.2,-86.68978686866565 185.6,-83.11526582234704 186,-79.20986641673255 186.4,-75.0126101117297 186.8,-70.5654345049096 187.2,-65.91277430489512 187.6,-61.10111735443917 188,-56.17854013926869 188.4,-51.194227423729984 188.8,-46.197980812882 189.2,-41.23972115132113 189.6,-36.36898973060223 190,-31.634453289031747 190.4,-27.083417749704182 190.8,-22.761355555356158 191.2,-18.711451322750065 191.6,-14.97417035625717 192,-11.586854331914141 192.4,-8.583348191738402 192.8,-5.993661976255453 193.2,-3.843670974094087 193.6,-2.1548571846550675 194,-0.9440946770750127 194.4,-0.22348099010479489 194.8,-0.00021625750139948554 195.2,-0.2765312666714591 195.6,-1.04966516938098 196,-2.311893067238178 196.4,-4.050603196324736 196.8,-6.248422939771973 197.2,-8.88339240920578 197.6,-11.929183860693048 198,-15.355364752855143 198.4,-19.127701818762407 198.8,-23.208503113421134 199.2,-27.55699461922835 199.6,-32.12972764647881 200,-36.88101295830852 200.4,-41.76337728244778 200.8,-46.72803764846486 201.2,-51.72538881108069 201.6,-56.70549888938379 202,-61.61860826967692 202.4,-66.41562678709025 202.8,-71.04862421828123 203.2,-75.47130918438248 203.6,-79.63949167915862 204,-83.51152460093944 204.4,-87.04871987669446 204.8,-90.21573502046961 205.2,-92.98092626382412 205.6,-95.31666472990551 206,-97.19961249205294 206.4,-98.61095575864684 206.8,-99.53659285429544 207.2,-99.96727511911394 207.6,-99.898699318277 208,-99.33155063851837 208.4,-98.27149584197174 208.8,-96.72912664575671 209.2,-94.71985389304255 209.6,-92.26375357299683 210,-89.38536622813872 210.4,-86.11345175334972 210.8,-82.48070203651076 211.2,-78.52341431196541 211.6,-74.28112849055137 212,-69.79623208988322 212.4,-65.11353671228677 212.8,-60.2798303020817 213.2,-55.343409655908204 213.6,-50.35359785709844 214,-45.360251455734 214.4,-40.41326231847642 214.8,-35.562059125527995 215.2,-30.85511349559841 215.6,-26.339455673511914 216,-22.060204619549097 216.4,-18.060117195708838 216.8,-14.37916095327704 217.2,-11.054114790265944 217.6,-8.118201468821752 218,-5.600755664368678 218.4,-3.5269308632278658 218.8,-1.9174480372969762 219.2,-0.7883886069484908 219.6,-0.15103376079286218 220,-0.011751737771474174 220.4,-0.371934197817838 220.8,-1.2279823168516706 221.2,-2.571342745039345 221.6,-4.388593069038531 222,-6.6615759243148425 222.4,-9.367580417526584 222.8,-12.479569046263757 223.2,-15.966447848834425 223.6,-19.793377084852686 224,-23.92211934240663 224.4,-28.311421593639505 224.8,-32.917427381367425 225.2,-37.69411501830215 225.6,-42.59375742053911 226,-47.56739898080126 226.4,-52.565344716685786 226.8,-57.53765680650092 227.2,-62.43465355147274 227.6,-67.2074057788581 228,-71.80822572606273 228.4,-76.19114352100306 228.8,-80.312366497872 229.2,-84.13071675897966 229.6,-87.60804261069637 230,-90.70959976256256 230.4,-93.40439848075529 230.8,-95.66551322726441 231.2,-97.47035169096785 231.6,-98.80088052253681 232,-99.64380551770046 232.4,-99.9907044485411 232.8,-99.83811121561128 233.2,-99.18755048005393 233.6,-98.04552242969181 234,-96.42343783129992 234.4,-94.33750401799549 234.8,-91.808562950923 235.2,-88.86188297326814 235.6,-85.52690633732429 236,-81.83695502724126 236.4,-77.82889781677372 236.8,-73.54278188868106 237.2,-69.02143269651557 237.6,-64.31002606684538 238,-59.455636817330515 238.4,-54.50676840070436 238.8,-49.512868274307465 239.2,-44.52383383743922 239.6,-39.589513873036594 240,-34.759210475114905 240.4,-30.081186438540197 240.8,-25.602183033136754 241.2,-21.36695298036999 241.6,-17.417813298945617 242,-13.79422248714873 242.4,-10.53238626657092 242.8,-7.664895826508516 243.2,-5.220402183572447 243.6,-3.2233299102004254 244,-1.6936330924038472 244.4,-0.6465959551355925 244.8,-0.09268014736679137 245.2,-0.03742021274843229 245.6,-0.4813682902806993 246,-1.420088597522645 246.4,-2.844201751463985 246.8,-4.739478484219749 247.2,-7.086981817171265 247.6,-9.863256272997434 248,-13.040562235049821 248.4,-16.587153112433313 248.8,-20.46759254144816 249.2,-24.643108454022077 249.6,-29.07198047539927 250,-33.709956780332305 250.4,-38.51069624269341 250.8,-43.42623146068817 251.2,-48.40744803127794 251.6,-53.40457528506135 252,-58.36768357834891 252.4,-63.24718317365958 252.8,-67.99431972398511 253.2,-72.56166141010908 253.6,-76.90357286366678 254,-80.97667114065906 254.4,-84.74025918948948 254.8,-88.15673248245096 255.2,-91.1919547477359 255.6,-93.81559904778115 256,-96.00145079600188 256.4,-97.7276696842763 256.8,-98.97700790408518 257.2,-99.73698248091216 257.6,-100 258,-99.76343247723992 258.4,-99.02964361712058 258.8,-97.80596519537374 259.2,-96.10462380229555 259.6,-93.94261867869645 260,-91.34155186510817 260.4,-88.32741236133346 260.8,-84.93031645295147 261.2,-81.18420679934908 261.6,-77.12651328988483 262,-72.79777905681127 262.4,-68.24125538169544 262.8,-63.5024695429119 263.2,-58.628769922128825 263.6,-53.66885291492477 264,-48.67227637250654 264.4,-43.68896443603667 264.8,-38.768708711119736 265.2,-33.96067076654022 265.6,-29.31289092811294 266,-24.871808275633033 266.4,-20.681796638936657 266.8,-16.784721229263443 267.2,-13.219520335906086 267.6,-10.021816267691278 268,-7.223559426649092 268.4,-4.852709070154009 268.8,-2.932953951268947 269.2,-1.483475628555683 269.6,-0.5187568102805203 270,-0.04843664798230008 270.4,-0.07721442525535988 270.8,-0.6048026040619547 271.2,-1.6259296977167765 271.6,-3.1303929418400496 272,-5.103160237005499 272.4,-7.5245203445101865 272.8,-10.370279834555587 273.2,-13.612004818999386 273.6,-17.21730505336975 274,-21.150157569477646 274.4,-25.371266605010803 274.8,-29.838456233799974 275.2,-34.5070917737296 275.6,-39.330525761731735 276,-44.260564039812216 276.4,-49.247947295151114 276.8,-54.242843242871515 277.2,-59.19534453375547 277.6,-64.05596741198514 278,-68.77614614046819 278.4,-73.30871825363394 278.8,-77.60839578919737 279.2,-81.63221779050642 279.6,-85.33997955822377 280,-88.69463436238846 280.4,-91.6626636010993 280.8,-94.21441170730341 281.2,-96.3243824574187 281.6,-97.97149372117417 282,-99.13928810728454 282.4,-99.81609740026555 282.8,-99.99515914538512 283.2,-99.67468421687595 283.6,-98.85787469428863 284,-97.5528918683718 284.4,-95.77277469615193 284.8,-93.53530951998502 285.2,-90.8628523523043 285.6,-87.78210550173156 286,-84.32385077243914 286.4,-80.52264190253463 286.8,-76.41645931453294 287.2,-72.04633062753103 287.6,-67.45592072279572 288,-62.691095458708645 288.4,-57.79946339426609 288.8,-52.82990010009669 289.2,-47.832059809917936 289.6,-42.85587929184155 290,-37.95107889669897 290.4,-33.166665768726304 290.8,-28.55044418238089 291.2,-24.148537897834807 291.6,-20.004929307605245 292,-16.16101997903205 292.4,-12.655216983498228 292.8,-9.52254914567034 293.2,-6.794317047062525 293.6,-4.497780280969678 294,-2.6558850836251247 294.4,-1.2870350629907679 294.8,-0.4049073159910346 295.2,-0.01831577148153133 295.6,-0.13112312438471102 296,-0.7422022409194896 296.4,-1.845447420549334 296.8,-3.4298354021240054 297.2,-5.479535504660208 297.6,-7.974067802274742 298,-10.888507752831885 298.4,-14.193735235731765 298.8,-17.856725510528744 299.2,-21.8408791892196 299.6,-26.106387925234106 300,-30.61063216527051 300.4,-35.30860698978816 300.8,-40.153371787285174 301.2,-45.09651926936993 301.6,-50.088659140390135 302,-55.079911588935204 302.4,-60.020405670428666 302.8,-64.86077760111915 303.2,-69.55266398468807 303.6,-74.04918504332353 304,-78.30541302495867 304.4,-82.27882110652354 304.8,-85.92970830790173 305.2,-89.2215961709989 305.6,-92.12159324044134 306,-94.60072370412199 306.4,-96.63421690993974 306.8,-98.20175486596574 307.2,-99.2876752511021 307.6,-99.88112790781838 308,-99.97618325333791 308.4,-99.57189152606945 308.8,-98.67229227531065 309.2,-97.2863739994074 309.6,-95.4279843356484 310,-93.11569169925254 310.4,-90.37259975390013 310.8,-87.226116567563 311.2,-83.70768076015088 311.6,-79.85244737921018 312,-75.69893664231363 312.4,-71.28864905577564 312.8,-66.665650755313 313.2,-61.87613321178517 313.6,-56.96795170128171 314,-51.990147151027855 314.4,-46.99245613864566 314.8,-42.02481394071309 315.2,-37.136855595989125 315.6,-32.37741996850867 316,-27.79406176580257 316.4,-23.432576387974816 316.8,-19.336542355204696 317.2,-15.546885885579975 317.6,-12.101471973850193 318,-9.034726056919906 318.4,-6.377290046259149 318.8,-4.155716164054599 319.2,-2.392201642183184 319.6,-1.1043669348065397 320,-0.3050796606195922 320.4,-0.0023260338565531747 320.8,-0.19913106867905137 321.2,-0.8935283542341854 321.6,-2.0785797023821053 322,-3.742444471777682 322.4,-5.868497875645812 322.8,-8.435497091155268 323.2,-11.417793510681074 323.6,-14.7855890142163 324,-18.505233702333854 324.4,-22.539562114861578 324.8,-26.848264575873813 325.2,-31.388289954646567 325.6,-36.11427581832928 326,-40.97900167837395 326.4,-45.93386080205223 326.8,-50.92934587485971 327.2,-55.915543661235304 327.6,-60.84263372111682 328,-65.66138619930395 328.4,-70.32365371390317 328.8,-74.78285242904994 329.2,-78.99442750519638 329.6,-82.91629827634448 330,-86.50927870614589 330.4,-89.7374689218281 330.8,-92.56861391385414 331.2,-94.97442581731505 331.6,-96.93086655492776 332,-98.41838801755483 332.4,-99.42212738245127 332.8,-99.93205561767513 333.2,-99.9430776888598 333.6,-99.45508346711343 334,-98.47294882939039 334.4,-97.00648694034022 334.8,-95.07035020241017 335.2,-92.68388385388444 335.6,-89.87093267765597 336,-86.65960275204036 336.4,-83.08198062412946 336.8,-79.17381271162013 337.2,-74.97414813642672 337.6,-70.52494855875885 338,-65.87066891008796 338.4,-61.057813214162664 338.8,-56.13446993417735 339.2,-51.14983148874613 339.6,-46.15370273751193 340,-41.19600334745789 340.4,-36.326269012091196 340.8,-31.593156507170008 341.2,-27.04395752828586 341.6,-22.724126167869215 342,-18.676824752928187 342.4,-14.942492581340252 342.8,-11.558441865757368 343.2,-8.558484922312147 343.6,-5.97259632912873 344,-3.8266134302498074 344.4,-2.1419781774329474 344.8,-0.9355228892577785 345.2,-0.21930206816299436 345.6,-0.00047195584164649005 346,-0.28121903044048957 346.4,-1.0587381599927135 346.8,-2.325260630369697 347.2,-4.068131767703744 347.6,-6.269937379707706 348,-8.908677752525989 348.4,-11.957987464605269 348.8,-15.38739882127075 349.2,-19.162646277858336 349.6,-23.246008809713764 350,-27.596686808197767 350.4,-32.171209736893005 350.8,-36.92387047483289 351.2,-41.80718200694333 351.6,-46.77235189860506 352,-51.769769813526125 352.4,-56.74950320382808 352.8,-61.66179621955674 353.2,-66.45756685268573 353.6,-71.08889734832118 354,-75.50951298306371 354.4,-79.67524442675293 354.8,-83.54446906781173 355.2,-87.07852689262118 355.6,-90.242106763601 356,-93.00359923641993 356.4,-95.33541239111808 356.8,-97.2142475214489 357.2,-98.62133192784991 357.6,-99.54260648805304 358,-99.96886613118531 358.4,-99.89585181179545 358.8,-99.32429306482736 359.2,-98.2599007163487 359.6,-96.71330982286383 360,-94.6999734093459 360.4,-92.2400080677181 360.8,-89.35799295851706 361.2,-86.08272422404723 361.6,-82.44692726684256 362,-78.48692976826584 362.4,-74.24229871432117 362.8,-69.75544505541043 363.2,-65.07119995013812 363.6,-60.23636682718923 364,-55.29925374094627 364.4,-50.30919069337368 364.8,-45.31603674494659 365.2,-40.36968183940181 365.6,-35.51954831990662 366,-30.814097117348176 366.4,-26.3003435447264 366.8,-22.02338753568976 367.2,-18.025963020908065 367.6,-14.348010944759038 368,-11.026280188619273 368.4,-8.093960388185364 368.8,-5.580350313606867 369.2,-3.5105651258606527 369.6,-1.905285434362089 370,-0.7805506631541559 370.4,-0.147598790282627 370.8,-0.012754061635168852 371.2,-0.37736380116672635 371.6,-1.2377849488839556 372,-2.585420461096049 372.4,-4.406805209234139 372.8,-6.683740518964944 373.2,-9.393476005327722 373.6,-12.50893688706298 374,-15.99899450887397 374.4,-19.828777368663662 374.8,-23.960019542055527 375.2,-28.351443022858987 375.6,-32.95917015926668 376,-37.737162064842416 376.4,-42.63767862386046 376.8,-47.61175549475924 377.2,-52.60969334565453 377.6,-57.581554433640186 378,-62.47766156620242 378.4,-67.24909445931124 378.8,-71.84817853272537 379.2,-76.228961258637 379.6,-80.34767130414434 380,-84.16315587993599 380.4,-87.6372919253628 380.8,-90.735367021456 381.2,-93.42642622594195 381.6,-95.68358136479617 382,-97.48427968998682 382.4,-98.8105292190807 382.8,-99.64907850518301 383.2,-99.99154904101431 383.6,-99.83451897418637 384,-99.17955729721974 384.4,-98.03320817068915 384.8,-96.40692553613398 385.2,-94.31695867206159 385.6,-91.78418983652604 386,-88.83392561851062 386.4,-85.49564408285372 386.8,-81.80270023516991 387.2,-77.79199274966136 387.6,-73.50359528975851 388,-68.98035610532618 388.4,-64.26746990711054 388.8,-59.41202629613043 389.2,-54.46253925995184 389.6,-49.468462436955974 390,-44.47969499193732 390.4,-39.54608304013852 390.8,-34.71692160134597 391.2,-30.04046206034892 391.6,-25.563430055047696 392,-21.330558609330502 392.4,-17.384141175481023 392.8,-13.763609051985622 393.2,-10.505137399034483 393.6,-7.641283788275453 394,-5.200662898323903 394.4,-3.2076606063497937 394.8,-1.6821903324553649 395.2,-0.6394940713643807 395.6,-0.08999009944780573 396,-0.039168878751316576 396.4,-0.48753819811274357 396.8,-1.4306180995043905 397.2,-2.8589856402920444 397.6,-4.758369044164105 398,-7.109790300001211 398.4,-9.889754783891814 398.8,-13.070486009647437 399.2,-16.620203162269394 399.6,-20.503438641350165 400,-24.68139244160867"
                stroke="lightgray"
                stroke-width="0.5"
                fill="none"/>
      <circle cx="0" cy="-71.77454952504951" r="0.65" fill="black"/>
      <circle cx="4" cy="-55.30281431085042" r="0.65" fill="black"/>
      <circle cx="8" cy="-100.00000000000001" r="0.65" fill="black"/>
      <circle cx="12" cy="-70.96644675716477" r="0.65" fill="black"/>
      <circle cx="16" cy="-73.00743464518646" r="0.65" fill="black"/>
      <circle cx="20" cy="-48.99627500160572" r="0.65" fill="black"/>
      <circle cx="24" cy="-15.990117892945467" r="0.65" fill="black"/>
      <circle cx="28" cy="-35.6474634536706" r="0.65" fill="black"/>
      <circle cx="32" cy="-53.29354028531949" r="0.65" fill="black"/>
      <circle cx="36" cy="-40.2298374317026" r="0.65" fill="black"/>
      <circle cx="40" cy="-22.253746480220627" r="0.65" fill="black"/>
      <circle cx="44" cy="-33.17504963754524" r="0.65" fill="black"/>
      <circle cx="48" cy="-76.44562080861854" r="0.65" fill="black"/>
      <circle cx="52" cy="-48.827663306787265" r="0.65" fill="black"/>
      <circle cx="56" cy="-46.04845290703884" r="0.65" fill="black"/>
      <circle cx="60" cy="-66.17580230833529" r="0.65" fill="black"/>
      <circle cx="64" cy="-33.35554781888519" r="0.65" fill="black"/>
      <circle cx="68" cy="-12.640500795355585" r="0.65" fill="black"/>
      <circle cx="72" cy="-37.920747634833184" r="0.65" fill="black"/>
      <circle cx="76" cy="-55.5630850816495" r="0.65" fill="black"/>
      <circle cx="80" cy="-77.771082578184" r="0.65" fill="black"/>
      <circle cx="84" cy="-79.40959698476367" r="0.65" fill="black"/>
      <circle cx="88" cy="-86.96028413270892" r="0.65" fill="black"/>
      <circle cx="92" cy="-16.17038498325023" r="0.65" fill="black"/>
      <circle cx="96" cy="-0" r="0.65" fill="black"/>
      <circle cx="100" cy="-18.155461913122352" r="0.65" fill="black"/>
      <circle cx="104" cy="-92.55239389350014" r="0.65" fill="black"/>
      <circle cx="108" cy="-28.79344385551431" r="0.65" fill="black"/>
      <circle cx="112" cy="-43.68481543456473" r="0.65" fill="black"/>
      <circle cx="116" cy="-8.927851013751743" r="0.65" fill="black"/>
      <circle cx="120" cy="-12.067040328132954" r="0.65" fill="black"/>
      <circle cx="124" cy="-11.616113685256222" r="0.65" fill="black"/>
      <circle cx="128" cy="-27.915087337507302" r="0.65" fill="black"/>
      <circle cx="132" cy="-73.04408008387789" r="0.65" fill="black"/>
      <circle cx="136" cy="-95.01108542591892" r="0.65" fill="black"/>
      <circle cx="140" cy="-68.746854665259" r="0.65" fill="black"/>
      <circle cx="144" cy="-39.990838278507546" r="0.65" fill="black"/>
      <circle cx="148" cy="-56.2768104156856" r="0.65" fill="black"/>
      <circle cx="152" cy="-34.93602647301256" r="0.65" fill="black"/>
      <circle cx="156" cy="-48.07812473572809" r="0.65" fill="black"/>
      <circle cx="160" cy="-86.09415818839808" r="0.65" fill="black"/>
      <circle cx="164" cy="-12.69405947960891" r="0.65" fill="black"/>
      <circle cx="168" cy="-4.316640996952979" r="0.65" fill="black"/>
      <circle cx="172" cy="-29.96594227654535" r="0.65" fill="black"/>
      <circle cx="176" cy="-18.608180782264185" r="0.65" fill="black"/>
      <circle cx="180" cy="-92.46492759481202" r="0.65" fill="black"/>
      <circle cx="184" cy="-59.5744623753604" r="0.65" fill="black"/>
      <circle cx="188" cy="-33.54598127453659" r="0.65" fill="black"/>
      <circle cx="192" cy="-55.59442244591477" r="0.65" fill="black"/>
      <circle cx="196" cy="-4.733305091102233" r="0.65" fill="black"/>
      <circle cx="200" cy="-66.89304223060704" r="0.65" fill="black"/>
      <circle cx="204" cy="-39.923633911787476" r="0.65" fill="black"/>
      <circle cx="208" cy="-32.11797394629185" r="0.65" fill="black"/>
      <circle cx="212" cy="-31.486026949219976" r="0.65" fill="black"/>
      <circle cx="216" cy="-36.468781971045395" r="0.65" fill="black"/>
      <circle cx="220" cy="-40.98986971018973" r="0.65" fill="black"/>
      <circle cx="224" cy="-63.906855156150236" r="0.65" fill="black"/>
      <circle cx="228" cy="-84.74275592365876" r="0.65" fill="black"/>
      <circle cx="232" cy="-86.69540269324719" r="0.65" fill="black"/>
      <circle cx="236" cy="-70.97830197782653" r="0.65" fill="black"/>
      <circle cx="240" cy="-69.09860415642854" r="0.65" fill="black"/>
      <circle cx="244" cy="-58.33398236190782" r="0.65" fill="black"/>
      <circle cx="248" cy="-38.32974428571099" r="0.65" fill="black"/>
      <circle cx="252" cy="-39.078329101712505" r="0.65" fill="black"/>
      <circle cx="256" cy="-47.226308941895304" r="0.65" fill="black"/>
      <circle cx="260" cy="-46.537959951958285" r="0.65" fill="black"/>
      <circle cx="264" cy="-16.147209546826222" r="0.65" fill="black"/>
      <circle cx="268" cy="-48.2306628837482" r="0.65" fill="black"/>
      <circle cx="272" cy="-6.951889813308496" r="0.65" fill="black"/>
      <circle cx="276" cy="-8.928980338156833" r="0.65" fill="black"/>
      <circle cx="280" cy="-33.312784559835464" r="0.65" fill="black"/>
      <circle cx="284" cy="-88.16488218592184" r="0.65" fill="black"/>
      <circle cx="288" cy="-19.95776202506361" r="0.65" fill="black"/>
      <circle cx="292" cy="-31.52319855870552" r="0.65" fill="black"/>
      <circle cx="296" cy="-35.48515273337565" r="0.65" fill="black"/>
      <circle cx="300" cy="-35.03479509271895" r="0.65" fill="black"/>
      <circle cx="304" cy="-81.61291144754134" r="0.65" fill="black"/>
      <circle cx="308" cy="-87.14589201971637" r="0.65" fill="black"/>
      <circle cx="312" cy="-29.874793556754085" r="0.65" fill="black"/>
      <circle cx="316" cy="-39.35232560264" r="0.65" fill="black"/>
      <circle cx="320" cy="-62.68610025585386" r="0.65" fill="black"/>
      <circle cx="324" cy="-63.77594145736381" r="0.65" fill="black"/>
      <circle cx="328" cy="-77.67253942439807" r="0.65" fill="black"/>
      <circle cx="332" cy="-75.70506014459326" r="0.65" fill="black"/>
      <circle cx="336" cy="-78.91765961460861" r="0.65" fill="black"/>
      <circle cx="340" cy="-74.53989515659974" r="0.65" fill="black"/>
      <circle cx="344" cy="-60.6243710128325" r="0.65" fill="black"/>
      <circle cx="348" cy="-7.589889015281127" r="0.65" fill="black"/>
      <circle cx="352" cy="-72.60002820855864" r="0.65" fill="black"/>
      <circle cx="356" cy="-49.58805184978467" r="0.65" fill="black"/>
      <circle cx="360" cy="-62.412707823703975" r="0.65" fill="black"/>
      <circle cx="364" cy="-81.38683334227491" r="0.65" fill="black"/>
      <circle cx="368" cy="-69.19291792315923" r="0.65" fill="black"/>
      <circle cx="372" cy="-38.10964665282533" r="0.65" fill="black"/>
      <circle cx="376" cy="-9.528328448014616" r="0.65" fill="black"/>
      <circle cx="380" cy="-47.873536921787796" r="0.65" fill="black"/>
      <circle cx="384" cy="-97.5974658057045" r="0.65" fill="black"/>
      <circle cx="388" cy="-72.27363702850212" r="0.65" fill="black"/>
      <circle cx="392" cy="-32.6403645775716" r="0.65" fill="black"/>
      <circle cx="396" cy="-8.992579209591353" r="0.65" fill="black"/>
      <circle cx="400" cy="-32.22394717436467" r="0.65" fill="black"/>
      <g id="data">
         <polyline points="0,-71.77454952504951 4,-55.30281431085042 8,-100.00000000000001 12,-70.96644675716477 16,-73.00743464518646 20,-48.99627500160572 24,-15.990117892945467 28,-35.6474634536706 32,-53.29354028531949 36,-40.2298374317026 40,-22.253746480220627 44,-33.17504963754524 48,-76.44562080861854 52,-48.827663306787265 56,-46.04845290703884 60,-66.17580230833529 64,-33.35554781888519 68,-12.640500795355585 72,-37.920747634833184 76,-55.5630850816495 80,-77.771082578184 84,-79.40959698476367 88,-86.96028413270892 92,-16.17038498325023 96,-0 100,-18.155461913122352 104,-92.55239389350014 108,-28.79344385551431 112,-43.68481543456473 116,-8.927851013751743 120,-12.067040328132954 124,-11.616113685256222 128,-27.915087337507302 132,-73.04408008387789 136,-95.01108542591892 140,-68.746854665259 144,-39.990838278507546 148,-56.2768104156856 152,-34.93602647301256 156,-48.07812473572809 160,-86.09415818839808 164,-12.69405947960891 168,-4.316640996952979 172,-29.96594227654535 176,-18.608180782264185 180,-92.46492759481202 184,-59.5744623753604 188,-33.54598127453659 192,-55.59442244591477 196,-4.733305091102233 200,-66.89304223060704 204,-39.923633911787476 208,-32.11797394629185 212,-31.486026949219976 216,-36.468781971045395 220,-40.98986971018973 224,-63.906855156150236 228,-84.74275592365876 232,-86.69540269324719 236,-70.97830197782653 240,-69.09860415642854 244,-58.33398236190782 248,-38.32974428571099 252,-39.078329101712505 256,-47.226308941895304 260,-46.537959951958285 264,-16.147209546826222 268,-48.2306628837482 272,-6.951889813308496 276,-8.928980338156833 280,-33.312784559835464 284,-88.16488218592184 288,-19.95776202506361 292,-31.52319855870552 296,-35.48515273337565 300,-35.03479509271895 304,-81.61291144754134 308,-87.14589201971637 312,-29.874793556754085 316,-39.35232560264 320,-62.68610025585386 324,-63.77594145736381 328,-77.67253942439807 332,-75.70506014459326 336,-78.91765961460861 340,-74.53989515659974 344,-60.6243710128325 348,-7.589889015281127 352,-72.60002820855864 356,-49.58805184978467 360,-62.412707823703975 364,-81.38683334227491 368,-69.19291792315923 372,-38.10964665282533 376,-9.528328448014616 380,-47.873536921787796 384,-97.5974658057045 388,-72.27363702850212 392,-32.6403645775716 396,-8.992579209591353 400,-32.22394717436467"
                   stroke="black"
                   stroke-width="0.5"
                   fill="none"
                   id="black"/>
      </g>
      <g id="regression">
         <g>
            <line x1="0"
                  y1="-46.95139190112258"
                  x2="400"
                  y2="-50.19269656398298"
                  class="regression"/>
         </g>
      </g>
      <g id="rectangular">
         <g>
            <path d="M0,-45.222327564263466 Q2.4,-45.222327564263466 4,-45.222327564263466 C5.6,-45.222327564263466 6.4,-45.222327564263466 8,-45.222327564263466 C9.6,-45.222327564263466 10.4,-45.222327564263466 12,-45.222327564263466 C13.6,-45.222327564263466 14.4,-45.222327564263466 16,-45.222327564263466 C17.6,-45.222327564263466 18.4,-45.222327564263466 20,-45.222327564263466 C21.6,-45.222327564263466 22.4,-45.222327564263466 24,-45.222327564263466 C25.6,-45.222327564263466 26.4,-45.222327564263466 28,-45.222327564263466 C29.6,-45.222327564263466 30.4,-45.222327564263466 32,-45.222327564263466 C33.6,-45.222327564263466 34.4,-45.222327564263466 36,-45.222327564263466 C37.6,-45.222327564263466 38.4,-45.222327564263466 40,-45.222327564263466 C41.6,-45.222327564263466 42.4,-45.222327564263466 44,-45.222327564263466 C45.6,-45.222327564263466 46.4,-45.222327564263466 48,-45.222327564263466 C49.6,-45.222327564263466 50.4,-45.222327564263466 52,-45.222327564263466 C53.6,-45.222327564263466 54.4,-45.222327564263466 56,-45.222327564263466 C57.6,-45.222327564263466 58.40003354370446,-45.22965354045347 60,-45.222327564263466 C61.60003354370446,-45.21500128089155 62.400094081250415,-45.207312767972944 64,-45.18569691535866 C65.60009408125042,-45.16407852053685 66.39988407810087,-45.132861546661076 68,-45.11424194567322 C69.59988407810087,-45.095625042514285 70.39999809494662,-45.10089234159427 72,-45.09260565499169 C73.59999809494661,-45.084318988122305 74.40003289592542,-45.08503295338908 76,-45.07280856199331 C77.60003289592541,-45.06058366792138 78.40013294780266,-45.056511279065695 80,-45.03148244132243 C81.60013294780265,-45.0064494438223 82.40020400303709,-44.989066363777305 84,-44.94765397388482 C85.60020400303708,-44.90623102232906 86.40030430553584,-44.882129743294215 88,-44.82439408770181 C89.60030430553584,-44.7666364663322 90.39968577484407,-44.716354352676156 92,-44.65892078147978 C93.59968577484406,-44.601509764695 94.39967827924872,-44.57038112931894 96,-44.53728261774893 C97.59967827924872,-44.50419741410053 98.39996113227897,-44.49840237892536 100,-44.49346149343375 C101.59996113227898,-44.4885208479875 102.39999087535608,-44.50889403460893 104,-44.51257879040426 C105.59999087535608,-44.51626350417223 106.40003296071214,-44.50476053004387 108,-44.511885167342015 C109.60003296071214,-44.51901009818761 110.40002894751389,-44.53098561611195 112,-44.54820271076362 C113.60002894751389,-44.565420428416665 114.40008538757196,-44.5726659570197 116,-44.59797219810381 C117.60008538757197,-44.62328114038018 118.40011053198006,-44.639074993861605 120,-44.67474066916482 C121.60011053198006,-44.71041127255562 122.40019263156107,-44.72914970268913 124,-44.77631289483884 C125.60019263156106,-44.82348744475512 126.40012196363328,-44.85346034869824 128,-44.9105850243298 C129.60012196363328,-44.9677184095415 130.39966739883997,-45.012081006465536 132,-45.06195804694698 C133.59966739883996,-45.11181435528622 134.3997687594194,-45.13661494675951 136,-45.15991839638152 C137.59976875941942,-45.18321511109787 138.39999366569091,-45.17665157566497 140,-45.17845845779289 C141.5999936656909,-45.18026532561419 142.4000000377994,-45.17277088590122 144,-45.168952771254574 C145.60000003779942,-45.165134656427526 146.40000356223862,-45.16434662156946 148,-45.15936788410865 C149.6000035622386,-45.15438912447848 150.40004814935068,-45.137824796162796 152,-45.144059028527124 C153.60004814935067,-45.150293636120544 154.39994793065577,-45.183004908404556 156,-45.19053998400301 C157.59994793065576,-45.19807456918437 158.40027486084975,-45.20453897231597 160,-45.181733180476655 C161.60027486084974,-45.15891955176691 162.3997784962197,-45.10695036920921 164,-45.07649143263034 C165.5997784962197,-45.0460409283461 166.39994971227168,-45.036035364080945 168,-45.0294595783189 C169.5999497122717,-45.02288420589552 170.4000692358586,-45.029883718873094 172,-45.04361353716679 C173.6000692358586,-45.057344543756614 174.40035331417,-45.061058034073504 176,-45.0981116405277 C177.60035331417,-45.13518161505158 178.39965835723044,-45.19102705557755 180,-45.228922489611975 C181.59965835723045,-45.26680174372495 182.39993686651246,-45.26978490301473 184,-45.28754836089618 C185.59993686651245,-45.30531041699663 186.4000942578378,-45.29801441230593 188,-45.31773627456673 C189.60009425783778,-45.33746046063954 190.40006634469606,-45.355347981585936 192,-45.38616348173021 C193.60006634469607,-45.41698153753669 194.40061610628368,-45.41892562155933 196,-45.47182016444361 C197.6006161062837,-45.52475545884524 198.39967076729377,-45.587503268605204 200,-45.650738074944975 C201.59967076729376,-45.71394686293053 202.40026145771506,-45.7262692000068 204,-45.78792915025693 C205.60026145771505,-45.849609255637766 206.40060750188744,-45.87855838441208 208,-45.959088214022394 C209.60060750188742,-46.039679219389804 210.40091795699266,-46.08428327090867 212,-46.190731237701236 C213.60091795699267,-46.297301417929816 214.4001972761163,-46.36870526417151 216,-46.491633581575265 C217.6001972761163,-46.61459221624336 218.4012351679029,-46.66578246702013 220,-46.805448617880856 C221.60123516790293,-46.945330574272454 222.39899214384442,-47.04778866026961 224,-47.190503849706076 C225.5989921438444,-47.33303935684852 226.39863568480524,-47.40691605185854 228,-47.518575359328125 C229.59863568480523,-47.63004440592032 230.39933759957086,-47.669955181181265 232,-47.74832473486053 C233.59933759957084,-47.826629425360686 234.40015510151056,-47.84185881746964 236,-47.91026096977669 C237.60015510151055,-47.978676384965844 238.3995182759244,-48.03140133357134 240,-48.09036865360104 C241.5995182759244,-48.149300476845866 242.3997510107832,-48.170801213649334 244,-48.205008827963006 C245.5997510107832,-48.239205797274366 246.39995692227234,-48.24247812398078 248,-48.26138011266361 C249.59995692227233,-48.28028108355544 250.400076082837,-48.27847621646614 252,-48.299516226899655 C253.60007608283698,-48.32055823840793 254.39996983229733,-48.341697042527336 256,-48.3665851675181 C257.59996983229735,-48.39147235400462 258.3999366423846,-48.40697863590944 260,-48.423954505592874 C261.5999366423846,-48.44092903089127 262.4001149587682,-48.431324544475494 264,-48.451461154972684 C265.6001149587682,-48.47160065927771 266.4001233072045,-48.48972229233592 268,-48.52464479259842 C269.6001233072045,-48.55957267602064 270.4003679086451,-48.57417318800427 272,-48.626087114184486 C273.6003679086451,-48.67802492033353 274.40024548072734,-48.7153052458262 276,-48.78427412342156 C277.6002454807273,-48.853264167427184 278.40020747126647,-48.89209307946337 280,-48.97098441818695 C281.6002074712665,-49.049896219171316 282.3995528410778,-49.1054181843996 284,-49.17878197269141 C285.5995528410778,-49.25210476584968 286.40022144038204,-49.268978387092595 288,-49.33770087181213 C289.60022144038203,-49.40644238158133 290.40052419418413,-49.43855080280732 292,-49.52244195891324 C293.6005241941841,-49.60638810210427 294.399765933479,-49.66752581723002 296,-49.75729412005449 C297.599765933479,-49.84703616202777 298.3997188823607,-49.891275831613356 300,-49.971217820907604 C301.59971888236066,-50.05113172375746 302.3996164844069,-50.092117116074746 304,-50.15693385041475 C305.5996164844069,-50.22171951941564 306.3996641115108,-50.25248614246031 308,-50.29522382925983 C309.5996641115108,-50.337943575954206 310.4002989131158,-50.32894879662624 312,-50.37057743414949 C313.60029891311586,-50.41222162876131 314.40013178118704,-50.44656531032895 316,-50.50340590959751 C317.60013178118703,-50.56025587278937 318.3998155623601,-50.599590024719504 320,-50.654803840300545 C321.5998155623601,-50.71000492796648 322.3999546325816,-50.73108864037077 324,-50.77944316771495 C325.5999546325816,-50.82779495298679 326.3997200480968,-50.86310882190333 328,-50.89656962184061 C329.5997200480968,-50.930018714558024 330.3999813498435,-50.928276742156115 332,-50.946717899351675 C333.5999813498435,-50.965158626639166 334.40001618514805,-50.99019407299968 336,-50.988774333048234 C337.60001618514804,-50.98735456437312 338.39993959870554,-50.94945053996763 340,-50.939619127785285 C341.59993959870553,-50.92978845786245 342.4,-50.939619127785285 344,-50.939619127785285 C345.6,-50.939619127785285 346.4,-50.939619127785285 348,-50.939619127785285 C349.6,-50.939619127785285 350.4,-50.939619127785285 352,-50.939619127785285 C353.6,-50.939619127785285 354.4,-50.939619127785285 356,-50.939619127785285 C357.6,-50.939619127785285 358.4,-50.939619127785285 360,-50.939619127785285 C361.6,-50.939619127785285 362.4,-50.939619127785285 364,-50.939619127785285 C365.6,-50.939619127785285 366.4,-50.939619127785285 368,-50.939619127785285 C369.6,-50.939619127785285 370.4,-50.939619127785285 372,-50.939619127785285 C373.6,-50.939619127785285 374.4,-50.939619127785285 376,-50.939619127785285 C377.6,-50.939619127785285 378.4,-50.939619127785285 380,-50.939619127785285 C381.6,-50.939619127785285 382.4,-50.939619127785285 384,-50.939619127785285 C385.6,-50.939619127785285 386.4,-50.939619127785285 388,-50.939619127785285 C389.6,-50.939619127785285 390.4,-50.939619127785285 392,-50.939619127785285 C393.6,-50.939619127785285 394.4,-50.939619127785285 396,-50.939619127785285 Q397.6,-50.939619127785285 400,-50.939619127785285"
                  class="spline"
                  fill="none"/>
         </g>
      </g>
      <g id="gaussian">
         <g>
            <path d="M0,-61.80213893739054 Q2.20962924433218,-60.921371631043 4,-60.15958885057092 C5.80962924433218,-59.389611798048776 6.206361340204902,-59.20498452997292 8,-58.39822819740337 C9.806361340204901,-57.58574936162404 10.201616132449644,-57.39141256222817 12,-56.561288476462316 C13.801616132449645,-55.72967239502586 14.195883625273318,-55.531599858288416 16,-54.70547227028712 C17.79588362527332,-53.883114561847805 18.190060875836913,-53.68859791066916 20,-52.8979878177054 C21.790060875836915,-52.11606085863675 22.18534626089023,-51.93328364392789 24,-51.210945487992866 C25.785346260890233,-50.500273419816594 26.1829361322804,-50.337639598782246 28,-49.71352065301363 C29.782936132280398,-49.10112378627712 30.183532596149423,-48.966287318102985 32,-48.46313257131482 C33.78353259614942,-47.969100644343996 34.18687913191361,-47.867707504492266 36,-47.497550266882534 C37.78687913191361,-47.13275040436168 38.19172330461706,-47.06718899799443 40,-46.82989457102463 C41.79172330461706,-46.594772393128345 42.19639816703887,-46.56356990495148 44,-46.44773558940235 C45.79639816703887,-46.332363921260374 46.19963836233642,-46.33069737773857 48,-46.31610349615551 C49.799638362336424,-46.30151547750257 50.20101656760458,-46.32252748334251 52,-46.38288692221123 C53.801016567604584,-46.443314576772295 54.2008416106591,-46.47938177455592 56,-46.58451925933282 C57.8008416106591,-46.689755106575625 58.199845827136336,-46.733111027125155 60,-46.850383215588366 C61.79984582713634,-46.96763531667306 62.19902559050966,-47.00894013292537 64,-47.10568434721706 C65.79902559050966,-47.202323875423204 66.19919166706934,-47.23168693998579 68,-47.28012486558356 C69.79919166706935,-47.32851930629774 70.20091191794738,-47.353244973008486 72,-47.32086738346583 C73.80091191794739,-47.28845697095548 74.20422010422585,-47.274215459873034 76,-47.136151527687986 C77.80422010422585,-46.99743869172022 78.20784381353276,-46.95575897537676 80,-46.705807898681805 C81.80784381353277,-46.45366887692635 82.21009726485568,-46.37923746578608 84,-46.02039575335373 C85.81009726485567,-45.65750541890349 86.20823678836173,-45.54833033366426 88,-45.10195890560937 C89.80823678836174,-44.65148351229866 90.20312242806708,-44.52229069650659 92,-44.02740281698573 C93.80312242806707,-43.530795007482766 94.19768295358006,-43.398221385344655 96,-42.8986351522231 C97.79768295358005,-42.40033344836371 98.18980067980513,-42.258653701241215 100,-41.80987406813919 C101.78980067980513,-41.36615160981773 102.18724754135641,-41.24833760231356 104,-40.915297171282006 C105.78724754135641,-40.58694252545308 106.19188950490134,-40.51482346323251 108,-40.340107230671464 C109.79188950490133,-40.16695841907466 110.20046998423376,-40.13358257512565 112,-40.142263739820116 C113.80046998423377,-40.1509494390436 114.20961833889201,-40.183753264511495 116,-40.37870026160024 C117.80961833889202,-40.57574185820898 118.21257373856258,-40.663442000040334 120,-41.0133495035923 C121.81257373856258,-41.36817989047174 122.20940704918063,-41.48869072651037 124,-41.94478446255891 C125.80940704918063,-42.405670461644135 126.20043753679514,-42.55167163538214 128,-43.05108224833399 C129.80043753679513,-43.550735709782096 130.19351943462706,-43.68826193444361 132,-44.16492685011436 C133.79351943462706,-44.638171791935186 134.18713414099213,-44.77340601133481 136,-45.16199304275972 C137.78713414099212,-45.545064491292756 138.18963115603577,-45.632951615932235 140,-45.87972347224314 C141.78963115603577,-46.12366856882342 142.19611331994813,-46.16565673303539 144,-46.25247516029569 C145.79611331994815,-46.33891946710474 146.20253092624506,-46.32954575705639 148,-46.264751770175025 C149.80253092624505,-46.199775316953286 150.20541348202946,-46.15132360496965 152,-45.96409640451102 C153.80541348202945,-45.7757396390245 154.20321260513018,-45.69241995412745 156,-45.430120734741365 C157.80321260513017,-45.16688354815866 158.20040898530922,-45.08404239626289 160,-44.796237724580365 C161.80040898530925,-44.50830223663827 162.1976677698899,-44.4259166889323 164,-44.150698157797784 C165.79766776988993,-43.87619189594908 166.19664553442888,-43.807924013518864 168,-43.57462707350654 C169.79664553442888,-43.34219805665415 170.19604488289824,-43.27833494822962 172,-43.1157515869873 C173.79604488289823,-42.953881143961645 174.19830731469426,-42.93327577910217 176,-42.85361861957771 C177.79830731469426,-42.77411113541634 178.19997314225714,-42.763261729297064 180,-42.76205237879658 C181.79997314225716,-42.76084306438492 182.20158670298227,-42.772009939452886 184,-42.84824380866184 C185.80158670298226,-42.92461219701367 186.2034542492251,-42.94706283820267 188,-43.10116850670943 C189.8034542492251,-43.255866778422416 190.20563604463032,-43.296895400517606 192,-43.534474786927944 C193.80563604463035,-43.77354663312722 194.2076676305462,-43.83630130425752 196,-44.16039346806412 C197.8076676305462,-44.48725857623902 198.21170276835522,-44.561794530357204 200,-44.9810465024424 C201.81170276835522,-45.40578571526696 202.2121706772114,-45.519105564193374 204,-46.03592943453025 C205.81217067721138,-46.55978987868415 206.21010879773883,-46.69734046296936 208,-47.29367831242191 C209.81010879773882,-47.896752055873506 210.20318480182712,-48.0589547655578 212,-48.701288529872805 C213.80318480182711,-49.345899329409114 214.19590682538234,-49.51153765850969 216,-50.153555120980386 C217.79590682538233,-50.7926593308337 218.18312424710226,-50.97407862796403 220,-51.54822557948171 C221.78312424710228,-52.111706791126586 222.18040239094182,-52.255460297691876 224,-52.68161770578607 C225.78040239094182,-53.09859542905379 226.18669495778184,-53.19591284486687 228,-53.4218592047304 C229.78669495778183,-53.64448982257918 230.20115256792866,-53.69432539358281 232,-53.67845543403566 C233.80115256792868,-53.66256513790401 234.21938053617703,-53.62515314933581 236,-53.35128085877752 C237.81938053617702,-53.07144683193263 238.2301942855883,-52.959360146703474 240,-52.44799695091749 C241.8301942855883,-51.91918523380832 242.23347312299404,-51.75621644884672 244,-51.03978105234385 C245.83347312299404,-50.29619483186363 246.21841956347447,-50.06781747098563 248,-49.20350446873284 C249.81841956347446,-48.32131939303288 250.20211444366285,-48.08296078680964 252,-47.15867421244884 C253.80211444366284,-46.23221358214446 254.18706315258393,-45.99537380749984 256,-45.090732902810196 C257.7870631525839,-44.19900276372938 258.1720484958648,-43.96873182295426 260,-43.166738559625614 C261.7720484958648,-42.389272115488424 262.1704503891807,-42.20807319297691 264,-41.58082244177501 C265.7704503891807,-40.97383352493335 266.17417903977037,-40.82708422648576 268,-40.42398374175103 C269.77417903977033,-40.03228463953037 270.18971768318585,-39.96127686851495 272,-39.814601137429705 C273.7897176831858,-39.669591628592734 274.2073667812495,-39.66900388013316 276,-39.77579431970167 C277.80736678124947,-39.88346246453594 278.2198638679202,-39.954007999414344 280,-40.291175769435874 C281.8198638679202,-40.63586819549911 282.2280114019496,-40.74922861369636 284,-41.29103919989003 C285.8280114019496,-41.849979551057466 286.2250316028648,-42.02409226948478 288,-42.737288963571665 C289.82503160286484,-43.470601459652215 290.22013473625896,-43.66703657370651 292,-44.50550406692876 C293.8201347362589,-45.36294189704295 294.21284859056664,-45.58092976523311 296,-46.505967459874874 C297.81284859056666,-47.4443061323011 298.2033606111888,-47.676944082914645 300,-48.64634043819097 C301.8033606111888,-49.61936330222382 302.19330196065977,-49.855721778734335 304,-50.82245461389525 C305.7933019606598,-51.782019439327506 306.18560710370446,-52.00839269733286 308,-52.92700190617579 C309.7856071037044,-53.83103715244862 310.1819940293117,-54.036335963244504 312,-54.872775625263614 C313.7819940293117,-55.692646685991335 314.179322594632,-55.878669448640316 316,-56.60769240116875 C317.77932259463205,-57.32015634871637 318.17809628656335,-57.482657622060714 320,-58.076079847654846 C321.77809628656337,-58.65523331658475 322.1816304054179,-58.77858007013266 324,-59.21341616677771 C325.7816304054179,-59.63946663169109 326.1882151184291,-59.71937619867996 328,-59.98916109556247 C329.78821511842915,-60.2554363229564 330.19529570661945,-60.29587745746709 332,-60.40466088739201 C333.7952957066194,-60.51287718931575 334.2013443232225,-60.50781585885053 336,-60.471382721892816 C337.8013443232225,-60.434895124359116 338.2048546661492,-60.40072964865169 340,-60.24261481074442 C341.80485466614914,-60.08364478330258 342.20600368497963,-60.022951834182706 344,-59.76674968778367 C345.80600368497966,-59.508832758622596 346.2054471272766,-59.429769935015976 348,-59.100127976166405 C349.80544712727664,-58.76848484840967 350.2041405893858,-58.67806038451857 352,-58.297227273103 C353.8041405893858,-57.914638040323396 354.2028555808892,-57.818132484183835 356,-57.403633877954924 C357.80285558088923,-56.987818032793 358.2019894955226,-56.8884786677558 360,-56.45208404779004 C361.8019894955226,-56.014723688035396 362.2016096624826,-55.913918745571934 364,-55.461956145242915 C365.8016096624826,-55.0091844800228 366.2015934176717,-54.906898416241546 368,-54.44156345768086 C369.8015934176717,-53.97540391033862 370.20175708542604,-53.87088379133705 372,-53.39196835434751 C373.80175708542606,-52.91211700894668 374.2019334873657,-52.80446445600128 376,-52.31097060792449 C377.80193348736566,-51.81641543746213 378.2020042867576,-51.70498836978641 380,-51.196303868704966 C381.8020042867576,-50.68648527191705 382.20190592140403,-50.57108054545971 384,-50.04763039043702 C385.80190592140406,-49.52307055504078 386.20162258987386,-49.40393830683638 388,-48.867392778885126 C389.8016225898739,-48.32987905222805 390.20117369740836,-48.20764545275493 392,-47.660832046862964 C393.80117369740833,-47.11330507182157 394.2006003616146,-46.98886562711891 396,-46.43552526569988 Q397.8006003616146,-45.881815665223854 400,-45.200721020429505"
                  class="spline"
                  fill="none"/>
         </g>
      </g>
      <g id="exponential">
         <g>
            <path d="M0,-70.13716599146652 Q2.768805847902737,-68.25309102120727 4,-69.15473587113372 C6.3688058479027365,-70.8894919935527 6.173678015351749,-75.93511683425459 8,-75.9958348189008 C9.773678015351749,-76.05480259972408 10.236443744475508,-72.4010894686491 12,-69.42070423884371 C13.836443744475512,-66.31714017942812 14.606719192719916,-65.78348778790362 16,-62.475947509520836 C18.206719192719916,-57.237367766755305 18.136909311355332,-55.828505273166584 20,-50.429326414069685 C21.736909311355333,-45.395817261136095 21.317848505615682,-42.814385757693 24,-39.292196371675296 C24.917848505615684,-38.08688180565603 26.36474426988302,-39.228451711652646 28,-39.92376207620972 C29.96474426988302,-40.75917089294327 30.176030280213027,-42.64105320771936 32,-42.693794552321116 C33.77603028021303,-42.74514969490693 34.20356372630148,-41.30308249189703 36,-40.155087603293204 C37.80356372630148,-39.00253798637713 38.475538792546196,-37.101431939312924 40,-37.58147342894357 C42.0755387925462,-38.235045149160825 42.63660183064725,-40.129062897791776 44,-42.67422806962187 C46.23660183064725,-46.84947284446064 45.47611481001592,-50.08132428070995 48,-52.51571775487438 C49.07611481001592,-53.55367577346832 50.1362477738319,-51.19866690109852 52,-50.39056472019602 C53.73624777383189,-49.63774704791059 54.15258845109455,-49.32129700390354 56,-49.04700697001231 C57.75258845109455,-48.78679556994127 58.91192248307498,-50.31466892804237 60,-49.20278375583541 C62.511922483074976,-46.63589921018514 61.82790728558587,-44.3753556765032 64,-40.87196315255179 C65.42790728558587,-38.56887559278959 66.47718876081247,-35.78839780404339 68,-36.29949468091628 C70.07718876081246,-36.996655734766364 70.44031962339338,-40.17773225680781 72,-43.55698077638062 C74.04031962339337,-47.977596160289124 74.12288251676235,-49.130755800138964 76,-53.63252557754143 C77.72288251676234,-57.76440358370553 77.48751680341692,-59.380366499261534 80,-62.742864739861886 C81.08751680341692,-64.19830664812453 82.64796618815883,-65.07304501332439 84,-64.33905924168141 C86.24796618815884,-63.11869390555405 87.07179227664095,-61.434948718515805 88,-58.39986227815002 C90.67179227664096,-49.6635414027308 89.57959527130174,-47.085575442498865 92,-38.18037631771474 C93.17959527130174,-33.840386954346855 93.8294164163348,-30.036638116543504 96,-28.966110082256648 C97.4294164163348,-28.261124401045358 98.8389880684632,-31.53876229278228 100,-34.234790283274414 C102.43898806846319,-39.89845309537761 101.90899843857508,-46.46841468999067 104,-47.543200754690716 C105.50899843857508,-48.31883407957901 105.74210608637578,-42.18980810026601 108,-38.34683337124851 C109.3421060863758,-36.062545459189785 110.66571408585517,-36.215069263817135 112,-33.927061552299094 C114.26571408585517,-30.041858804090367 113.46524381226257,-28.033491592711574 116,-24.62858790518901 C117.06524381226257,-23.197660306696402 118.46681181808712,-22.67073223332094 120,-23.180769805598718 C122.06681181808713,-23.868325119739588 122.87390277640878,-25.029916783253483 124,-27.28990543056378 C126.47390277640878,-32.25483392173183 126.520456681386,-33.770524927316515 128,-39.236141224439486 C130.120456681386,-47.069370876669865 129.70878036277813,-49.07766301923273 132,-56.84289642912678 C133.30878036277815,-61.278518765002374 133.76078157588745,-65.03891257174125 136,-66.34915399281647 C137.36078157588744,-67.14539270118203 138.55406713690306,-63.920969996837385 140,-61.523963383439614 C142.15406713690305,-57.953041589878254 141.5572666121159,-56.23994482010472 144,-53.087090866240615 C145.1572666121159,-51.59339833647784 146.46741363776462,-52.40843717846331 148,-51.198304530935445 C150.06741363776462,-49.5658714096109 149.90122003108536,-47.54126654390416 152,-46.7702780465686 C153.50122003108535,-46.21880366951178 154.20685204321595,-47.5714887123206 156,-48.259498143396826 C157.80685204321594,-48.95276566858277 159.2739293640444,-51.19814316146751 160,-49.839782393817856 C162.8739293640444,-44.463125215034985 161.49262850345735,-40.43707680323155 164,-33.292791595768975 C165.09262850345735,-30.179551429616552 166.0805111114258,-27.31658313797466 168,-27.045281563562312 C169.6805111114258,-26.807757234528072 170.31620481723021,-29.77696092247703 172,-32.162067365887665 C173.9162048172302,-34.87638351504792 174.89042348251974,-35.28228374923206 176,-38.3773317692754 C178.49042348251976,-45.32410844236714 177.22567758325934,-49.897613620183364 180,-54.47723335063229 C180.82567758325933,-55.84019294338436 182.62261895778892,-53.26763950691125 184,-51.583063598610956 C186.2226189577889,-48.86473785222762 185.6448537641828,-47.10897450581867 188,-44.69300745133533 C189.24485376418284,-43.416005778922525 190.80117012710033,-44.68652345653688 192,-43.376466427730634 C194.40117012710033,-40.752516296459014 194.26913070038106,-35.78693522196638 196,-35.95076931782896 C197.86913070038105,-36.1276904397261 197.69552594505927,-42.69738356526922 200,-44.13370024497445 C201.29552594505927,-44.94116671216685 202.14567064531096,-42.30146562760842 204,-40.93695408871257 C205.74567064531095,-39.65239925350206 206.0364691598175,-38.81522213237489 208,-38.246886080293656 C209.6364691598175,-37.77321670744239 210.49870156225478,-37.811299459763795 212,-38.62138647775145 C214.09870156225477,-39.753826802385646 214.52095663146545,-40.54245536697424 216,-42.563613508342215 C218.12095663146545,-45.46196581793147 218.55136177324687,-46.24681780773916 220,-49.553631924323085 C222.15136177324686,-54.46455678483636 222.08473284477964,-55.79713883874184 224,-60.82525567966932 C225.68473284477963,-65.24815489047187 225.52645836035637,-66.73182222859218 228,-70.55588981705648 C229.12645836035637,-72.29738178814539 230.36188629553945,-73.49557508948075 232,-73.19316581200977 C233.96188629553944,-72.83098544840084 234.30556591655804,-71.0229659925682 236,-69.07902394799 C237.90556591655803,-66.8928605910846 238.4560316424464,-66.4603125882246 240,-64.01515380871288 C242.0560316424464,-60.759048334215045 242.2860334353414,-59.87474604240888 244,-56.40954782796877 C245.8860334353414,-52.59647479184379 245.72779475049748,-51.3576471890998 248,-47.84121769634602 C249.32779475049747,-45.786343198544735 249.95830430762703,-45.343005007155355 252,-44.02887229340197 C253.55830430762705,-43.025873327255624 254.4187117930123,-43.66865057399628 256,-42.69203618545773 C258.0187117930123,-41.44526600488204 258.5886307675091,-41.016784516209725 260,-39.08801769537033 C262.1886307675091,-36.09705097294179 261.5716410060608,-33.839015493300195 264,-31.759294978195648 C265.17164100606084,-30.75586597831381 266.8440489469995,-33.25414118050905 268,-32.23657432873392 C270.44404894699954,-30.085113688486917 269.5938408595595,-26.568641337299066 272,-24.71701166259091 C273.19384085955954,-23.79830635948494 274.9816836996002,-24.64160613221107 276,-26.080274378035867 C278.5816836996002,-29.72765423233062 278.3004069391658,-31.50879217559528 280,-36.01934077396769 C281.90040693916575,-41.06282915558293 282.0353759687365,-46.78162592696644 284,-47.311467666897315 C285.6353759687365,-47.7525141139161 285.4306467671476,-41.11866041235706 288,-38.17687007830026 C289.03064676714763,-36.996827311640324 290.4311563096096,-37.51167237869305 292,-38.15183855419346 C294.0311563096096,-38.98065124887482 294.5220007983497,-39.67557568513615 296,-41.44126756759309 C298.12200079834975,-43.976316016895154 298.7043826331664,-44.652533339044474 300,-47.70903929143569 C302.30438263316637,-53.14533507996264 301.30675722669383,-55.41223811802413 304,-60.314160325189015 C304.90675722669386,-61.96453266818483 306.97727038545156,-63.3598367666802 308,-62.26969384734836 C310.5772703854515,-59.52254247719459 309.3509778978325,-55.10123611149603 312,-51.786839681887656 C312.95097789783244,-50.59699768448291 314.79438352758757,-51.144911743196026 316,-52.26027512065254 C318.39438352758754,-54.47541381472857 318.01977743407,-56.19134217670056 320,-59.187955396404405 C321.61977743407004,-61.63911748061824 322.2318698681001,-62.01217623701666 324,-64.36644246269184 C325.83186986810006,-66.80557818154637 325.7956725396419,-67.90276699782434 328,-69.83995971758152 C329.39567253964185,-71.06649558014344 330.14645642505747,-71.17460814175811 332,-71.39695042340094 C333.7464564250575,-71.60644703928119 334.5701918544415,-71.73859178655175 336,-70.79960171207725 C338.17019185444144,-69.37438349846165 338.60619118092507,-68.49719443903646 340,-66.14315422764516 C342.20619118092503,-62.41706017310955 342.33228517131573,-61.327884451707206 344,-57.28819223223966 C345.93228517131575,-52.60763339921947 346.08522857052327,-47.113860924273745 348,-46.7648185554502 C349.68522857052324,-46.457619396736355 349.44587979470634,-52.718710539093635 352,-55.829877726601005 C353.04587979470637,-57.1038611877644 354.5118753648354,-55.612722525145216 356,-56.509597774718564 C358.11187536483544,-57.78240026729685 358.1017292825243,-58.89444896458484 360,-60.65138382027131 C361.70172928252424,-62.22641074550618 362.44472208811186,-64.34544807078399 364,-63.913957287877096 C366.0447220881119,-63.3466768501608 366.6711848529363,-61.15088492604913 368,-58.43189221888645 C370.27118485293624,-53.78464307712468 369.7985060287362,-52.2434362763395 372,-47.54453095693387 C373.39850602873616,-44.559536447102516 374.5259123053934,-40.682747016021374 376,-41.3565592650265 C378.1259123053934,-42.328323534496946 378.33619012713683,-46.72030494523293 380,-51.20136766465736 C381.9361901271368,-56.41601961374082 381.72786027865817,-61.28870900833054 384,-62.9025918617107 C385.3278602786582,-63.84576050371016 386.8478450527401,-59.88545141364208 388,-56.88370432105652 C390.44784505274015,-50.506253278002035 389.9849855299573,-48.66398243208525 392,-42.05992933806615 C393.58498552995735,-36.865262625390464 393.3028112794664,-34.30915433622457 396,-30.66432697284589 Q396.9028112794664,-29.444319180912395 400,-31.24918454848352"
                  class="spline"
                  fill="none"/>
         </g>
      </g>
      <g id="parabolic">
         <g>
            <path d="M0,-49.998539220496 Q2.1989784670697405,-49.74410237349874 4,-49.55347511863853 C5.798978467069741,-49.363064109963815 6.199231762581181,-49.32453862686841 8,-49.15178752375172 C9.79923176258118,-48.979183817572405 10.199413624239874,-48.9439290300186 12,-48.78601998686962 C13.799413624239875,-48.628213792477524 14.199546736788642,-48.59570954715627 16,-48.45019810699377 C17.799546736788642,-48.304759931696296 18.199645935404504,-48.27457714195537 20,-48.139465285847464 C21.799645935404502,-48.00440657298024 22.199721135529035,-47.97618705217352 24,-47.84981906482682 C25.799721135529033,-47.723490226461564 26.199779099848648,-47.696931453972624 28,-47.57791678426534 C29.799779099848646,-47.458931322483096 30.19982452969274,-47.43377476488512 32,-47.32092988373897 C33.79982452969274,-47.208107001477146 34.19986075430926,-47.18412903091599 36,-47.07643286558095 C37.799860754309265,-46.96875336143139 38.199890175417366,-46.94575809171426 40,-46.842317284884295 C41.79989017541737,-46.73888909988805 42.199914559814175,-46.71670264953628 44,-46.61672399485603 C45.79991455981418,-46.51675483105287 46.19993523597236,-46.49522065272395 48,-46.3979887993656 C49.79993523597236,-46.30076394256267 50.1999532291076,-46.27973894904986 52,-46.18459797227541 C53.7999532291076,-46.08946193962627 54.19996935646104,-46.0688132204355 56,-45.97515100064652 C57.799969356461034,-45.88149196984978 58.199984296874796,-45.8610939371639 60,-45.768328526529366 C61.79998429687479,-45.67556473444389 62.19941982638278,-45.642145895506694 64,-45.56286388349095 C65.79941982638277,-45.483632963153724 66.21984158317315,-45.25682949227417 68,-45.416077565744985 C69.81984158317314,-45.57887558608015 70.1985261091039,-46.27123744506224 72,-46.27852186972647 C73.7985261091039,-46.285794374765054 74.19760421112709,-45.810026967241654 76,-45.4484262984179 C77.7976042111271,-45.08778692662352 78.18770971473124,-44.93774640058174 80,-44.67354400168617 C81.78770971473124,-44.41292504952373 82.19835987060824,-44.43949863146125 84,-44.282156629400106 C85.79835987060824,-44.1251011010225 86.21599071429947,-43.859970074195296 88,-43.974882822933395 C89.81599071429946,-44.09185557993397 90.22527445659091,-44.330869609115226 92,-44.797457753263814 C93.8252744565909,-45.27733557123145 94.1820460156011,-46.00862388449288 96,-46.078140516524996 C97.78204601560111,-46.146284065918415 98.19596590904872,-45.524743452968806 100,-45.103369267542796 C101.79596590904873,-44.68387959394176 102.17868607275234,-44.379467491664464 104,-44.20955416313155 C105.77868607275234,-44.043617656242155 106.20483582399963,-44.42299524310985 108,-44.35703629993767 C109.80483582399962,-44.290721995573854 110.19777717582022,-43.93864268266826 112,-43.915613613051555 C113.79777717582022,-43.89264135058666 114.1986509760268,-44.12023064808848 116,-44.2548111175341 C117.7986509760268,-44.38919001329557 118.20087400198236,-44.52558998802394 120,-44.513301091289534 C121.80087400198236,-44.501000254846495 122.19905426576709,-44.32772414886693 124,-44.20016726602867 C125.79905426576708,-44.07274435159207 126.21210572199426,-44.161719820718176 128,-43.94667931956763 C129.81210572199427,-43.72872676645019 130.23244896816615,-43.103409721907916 132,-43.23796047876648 C133.83244896816618,-43.37745144176043 134.1536522227468,-44.248809479853605 136,-44.55566091923988 C137.7536522227468,-44.847106937894786 138.21087766459777,-44.70481389791582 140,-44.567510385524656 C141.81087766459777,-44.42853729299765 142.22676724128036,-44.342341323726046 144,-43.94171290831063 C145.82676724128035,-43.528989388734225 146.19354116532497,-43.268869401773806 148,-42.760061641098396 C149.793541165325,-42.25489227521448 150.20205280147798,-42.17820044309329 152,-41.688430404845455 C153.80205280147797,-41.19754197929548 154.2079676470735,-40.55144178974321 156,-40.580820610436604 C157.80796764707353,-40.61046067649684 158.27345578542563,-41.08707371972767 160,-41.819583486520195 C161.87345578542562,-42.6144224769694 162.1649725708982,-43.07672511921539 164,-43.97492895986268 C165.76497257089818,-44.83884255411005 166.1255571760171,-45.42387444246828 168,-45.73540000850833 C169.7255571760171,-46.02218132246219 170.23009696730983,-45.147063958254385 172,-45.304499804293584 C173.83009696730986,-45.4672900018697 174.17205819186358,-46.068689563068446 176,-46.44701343876458 C177.7720581918636,-46.81377124260759 178.2129481449357,-46.653671100957375 180,-46.96023686993612 C181.8129481449357,-47.2712451043059 182.19537344275807,-47.45573932151254 184,-47.81940011287241 C185.7953734427581,-48.181196255326256 186.207688909824,-48.196818213556966 188,-48.572363389522145 C189.807688909824,-48.95113069919911 190.18278625593982,-49.179389903816336 192,-49.49565008096606 C193.7827862559398,-49.80591864401569 194.2473897219988,-50.173400919041875 196,-49.96464947885404 C197.8473897219988,-49.744608965628665 198.1823400453958,-49.12768398679013 200,-48.54277907338114 C201.78234004539578,-47.96923975582238 202.22404928146443,-47.98132923136541 204,-47.39032896559236 C205.82404928146443,-46.78332247668622 206.15673279401517,-46.407394186484346 208,-45.88054184076074 C209.75673279401516,-45.37842321665058 210.19322118982728,-45.41377046448469 212,-45.103726810406215 C213.79322118982728,-44.79600964705745 214.23603181059664,-44.350074216318504 216,-44.50774002425577 C217.83603181059667,-44.671846973890815 218.1676775861696,-45.67892727626125 220,-45.81877738278913 C221.76767758616958,-45.953693539938556 222.2351089623674,-45.57120738306965 224,-45.11833172131645 C225.8351089623674,-44.64743795620552 226.160095987966,-43.947749881613134 228,-43.76595643420218 C229.760095987966,-43.592048493715225 230.20535077813298,-44.04147644635856 232,-44.327884192654444 C233.80535077813298,-44.61599979838863 234.2258659753364,-44.61365289616839 236,-45.04267499426901 C237.82586597533643,-45.484206942081066 238.2310768852637,-45.62683633999979 240,-46.26244873912706 C241.83107688526368,-46.92039433457621 242.19395162638403,-47.899774595819345 244,-47.91724831554994 C245.79395162638403,-47.934604997899996 246.1422133432048,-46.824439602898785 248,-46.33984963263963 C249.7422133432048,-45.88540611024663 250.20711903691776,-45.78324972880339 252,-45.830507220767366 C253.80711903691775,-45.87814000572274 254.18694647194616,-46.33867391442651 256,-46.55071691468263 C257.7869464719461,-46.75970660271202 258.2839506346083,-46.32790048360391 260,-46.766135416957404 C261.88395063460825,-47.247248022136084 262.11653731521784,-48.10394864142383 264,-48.593711444754135 C265.71653731521786,-49.04006811235087 266.22725098063637,-48.56153344960707 268,-48.846400907906386 C269.82725098063634,-49.14002642220263 270.2054815199545,-49.39418677566379 272,-49.87925138385537 C273.8054815199545,-50.36727933999638 274.18295755694675,-50.57143351838696 276,-51.00882882864546 C277.7829575569467,-51.43801928414633 278.19530060340173,-51.77857200929982 280,-51.8049975299873 C281.7953006034017,-51.8312854277529 282.20466261812385,-51.099873018704656 284,-51.125969758541196 C285.8046626181238,-51.152202048534896 286.18569701046135,-51.816872704190764 288,-51.921284262943395 C289.7856970104613,-52.02404957248499 290.2040488384915,-51.77553400812831 292,-51.586362799195044 C293.8040488384915,-51.396338645383736 294.1928351679789,-51.20042722635229 296,-51.07862790128878 C297.7928351679789,-50.957794367158016 298.2002948099576,-51.030154930705415 300,-51.04717866765221 C301.8002948099576,-51.06420798192045 302.20955110420886,-51.263664946177094 304,-51.15430134843329 C305.8095511042089,-51.04377095601452 306.2201556653642,-50.924856237599386 308,-50.55852535617982 C309.82015566536415,-50.18389752146522 310.1738947219106,-49.66214572301176 312,-49.5077264236907 C313.7738947219106,-49.357722158704746 314.2629148560438,-49.45312813744077 316,-49.88202854660867 C317.86291485604374,-50.34199733212392 318.1506855739911,-50.92857568460818 320,-51.48299130076435 C321.7506855739911,-52.00783845901353 322.1832960363241,-52.13839835272966 324,-52.280390267509446 C325.78329603632415,-52.419771049342785 326.19925490521587,-52.159557448874125 328,-52.10826395990463 C329.79925490521583,-52.05701291837671 330.202869981867,-52.138001874219846 332,-52.052513533070744 C333.802869981867,-51.96675214546817 334.19715243521256,-51.786822534974334 336,-51.727709007123124 C337.7971524352126,-51.66878221674619 338.2000087184139,-51.761532610198515 340,-51.79020171478598 C341.8000087184139,-51.818871097096036 342.2000106314708,-51.825270173621156 344,-51.8551278668954 C345.8000106314708,-51.884985912873056 346.20001291045713,-51.8916605777848 348,-51.922903357567975 C349.80001291045716,-51.95414658553055 350.20001566357314,-51.961140234744896 352,-51.993985661885965 C353.8000156635731,-52.02683166067284 354.2000190319913,-52.034192443339194 356,-52.06888430407452 C357.8000190319913,-52.10357689843449 358.2000232027548,-52.11135881825572 360,-52.14817333987551 C361.8000232027548,-52.18498881061679 362.2000284272363,-52.19325304847924 364,-52.23250650932134 C365.80002842723627,-52.27176121003569 366.20003504799627,-52.28057773503278 368,-52.32263592111205 C369.8000350479963,-52.36469574506227 370.2000435385108,-52.374145301539436 372,-52.41943542049798 C373.80004353851075,-52.464727730469896 374.20005456294365,-52.4749043171237 376,-52.52393020762419 C377.80005456294367,-52.572959070433555 378.20006906771727,-52.58397306698541 380,-52.63733487229764 C381.8000690677173,-52.69070077285377 382.2000884245549,-52.70268292507684 384,-52.76110288733167 C385.8000884245549,-52.819528589600864 386.2001146587068,-52.832635141392366 388,-52.89699190457324 C389.80011465870683,-52.96135686723558 390.20015082162644,-52.97577623909489 392,-53.047151166983255 C393.80015082162646,-53.1185380568547 394.2002016152559,-53.13449962836706 396,-53.21424038848392 Q397.80020161525584,-53.29399901388379 400,-53.40159424590932"
                  class="spline"
                  fill="none"/>
         </g>
      </g>
      <text x="200" y="8" text-anchor="middle" font-size="5">Fake independent
                    variable</text>
      <text x="-10"
            y="-50"
            text-anchor="middle"
            font-size="5"
            writing-mode="tb">Fake
                    dependent variable</text>
      <text x="200" y="-106" text-anchor="middle" font-size="8">Smoothing examples (window                     = 33)</text>
   </g>
   <g transform="translate(150, 15)">
      <rect x="0"
            y="0"
            width="100"
            height="51"
            fill="ghostwhite"
            stroke="black"
            stroke-width="0.5"/>
      <rect x="2"
            y="1"
            width="5"
            height="5"
            fill="black"
            class="toggle"
            id="data-box"/>
      <rect x="2"
            y="8"
            width="5"
            height="5"
            fill="red"
            class="toggle"
            id="regression-box"/>
      <rect x="2" y="15" width="5" height="5" fill="gray"/>
      <rect x="2"
            y="22"
            width="5"
            height="5"
            fill="blue"
            class="toggle"
            id="rectangular-box"/>
      <rect x="2"
            y="29"
            width="5"
            height="5"
            fill="green"
            class="toggle"
            id="gaussian-box"/>
      <rect x="2"
            y="36"
            width="5"
            height="5"
            fill="indigo"
            class="toggle"
            id="exponential-box"/>
      <rect x="2"
            y="43"
            width="5"
            height="5"
            fill="darkgoldenrod"
            class="toggle"
            id="parabolic-box"/>
      <text x="10" y="6" fill="black" font-size="5">
         <tspan>Actual data (101 points)</tspan>
         <tspan x="10" dy="7" fill="red">Regression line (47.048.6)</tspan>
         <tspan x="10" dy="7" fill="gray">Y intercept of regression line (47.0)</tspan>
         <tspan x="10" dy="7" fill="blue">Rectangular kernel</tspan>
         <tspan x="10" dy="7" fill="green">Gaussian kernel ( = 5)</tspan>
         <tspan x="10" dy="7" fill="indigo">Exponential kernel (y = 1 - 2<tspan dy="-2" font-size="4">-d</tspan>
            <tspan dy="2">)</tspan>
         </tspan>
         <tspan x="10" dy="7" fill="darkgoldenrod">Parabolic kernel (y = 1 - (d/N)<tspan dy="-2" font-size="4">2</tspan>
            <tspan dy="2" dx="-1">)</tspan>
         </tspan>
      </text>
   </g>
</svg>
