<?xml version="1.0" encoding="UTF-8"?>
<svg xmlns="http://www.w3.org/2000/svg" viewBox="-10 -110 145 120">
   <style type="text/css">
                #small .spline {
                    stroke: fuchsia;
                    stroke-width: 0.5;
                    stroke-opacity: 0.5;
                    fill: none;
                }
                #default .spline {
                    stroke: green;
                    stroke-width: 0.5;
                    stroke-opacity: 0.5;
                    fill: none;
                }
                .regression {
                    stroke: red;
                    stroke-width: 0.5;
                    stroke-opacity: 0.5;
                    fill: none;
                }</style>
   <circle cx="5" cy="-10.754234159010812" r="0.5" fill="black"/>
   <circle cx="10" cy="-89.09387402732641" r="0.5" fill="black"/>
   <circle cx="15" cy="-27.44700523250373" r="0.5" fill="black"/>
   <circle cx="20" cy="-74.84065414297987" r="0.5" fill="black"/>
   <circle cx="25" cy="-95.84410732346296" r="0.5" fill="black"/>
   <circle cx="30" cy="-73.2218656617754" r="0.5" fill="black"/>
   <circle cx="35" cy="-26.003984681583592" r="0.5" fill="black"/>
   <circle cx="40" cy="-81.03109470934086" r="0.5" fill="black"/>
   <circle cx="45" cy="-61.02551450784759" r="0.5" fill="black"/>
   <circle cx="50" cy="-40.03466249566495" r="0.5" fill="black"/>
   <circle cx="55" cy="-13.282456546708598" r="0.5" fill="black"/>
   <circle cx="60" cy="-29.523625467778214" r="0.5" fill="black"/>
   <circle cx="65" cy="-55.13124260517201" r="0.5" fill="black"/>
   <circle cx="70" cy="-27.504952693186635" r="0.5" fill="black"/>
   <circle cx="75" cy="-65.67179301551049" r="0.5" fill="black"/>
   <circle cx="80" cy="-53.33626072491794" r="0.5" fill="black"/>
   <circle cx="85" cy="-24.133353153183634" r="0.5" fill="black"/>
   <circle cx="90" cy="-82.92613086401805" r="0.5" fill="black"/>
   <circle cx="95" cy="-97.80571525020572" r="0.5" fill="black"/>
   <circle cx="100" cy="-58.78193876268091" r="0.5" fill="black"/>
   <circle cx="105" cy="-75.08868433448278" r="0.5" fill="black"/>
   <circle cx="110" cy="-76.54350456387606" r="0.5" fill="black"/>
   <circle cx="115" cy="-70.14618377930837" r="0.5" fill="black"/>
   <circle cx="120" cy="-85.20004273337477" r="0.5" fill="black"/>
   <circle cx="125" cy="-73.24137709351679" r="0.5" fill="black"/>
   <polyline points="5,-10.754234159010812 10,-89.09387402732641 15,-27.44700523250373 20,-74.84065414297987 25,-95.84410732346296 30,-73.2218656617754 35,-26.003984681583592 40,-81.03109470934086 45,-61.02551450784759 50,-40.03466249566495 55,-13.282456546708598 60,-29.523625467778214 65,-55.13124260517201 70,-27.504952693186635 75,-65.67179301551049 80,-53.33626072491794 85,-24.133353153183634 90,-82.92613086401805 95,-97.80571525020572 100,-58.78193876268091 105,-75.08868433448278 110,-76.54350456387606 115,-70.14618377930837 120,-85.20004273337477 125,-73.24137709351679"
             stroke="black"
             stroke-width="0.5"
             fill="none"/>
   <circle cx="5" cy="-42.5102717523478" r="0.5" fill="blue"/>
   <circle cx="10" cy="-42.743815569999136" r="0.5" fill="blue"/>
   <circle cx="15" cy="-63.55072992800129" r="0.5" fill="blue"/>
   <circle cx="20" cy="-66.10276128125454" r="0.5" fill="blue"/>
   <circle cx="25" cy="-81.39947601229873" r="0.5" fill="blue"/>
   <circle cx="30" cy="-65.0781571637564" r="0.5" fill="blue"/>
   <circle cx="35" cy="-59.85768498059852" r="0.5" fill="blue"/>
   <circle cx="40" cy="-56.1874893394466" r="0.5" fill="blue"/>
   <circle cx="45" cy="-60.699287313113395" r="0.5" fill="blue"/>
   <circle cx="50" cy="-38.127056581973555" r="0.5" fill="blue"/>
   <circle cx="55" cy="-27.517724341684506" r="0.5" fill="blue"/>
   <circle cx="60" cy="-32.62489162913989" r="0.5" fill="blue"/>
   <circle cx="65" cy="-37.50529616780384" r="0.5" fill="blue"/>
   <circle cx="70" cy="-49.289305068093654" r="0.5" fill="blue"/>
   <circle cx="75" cy="-48.95026788286187" r="0.5" fill="blue"/>
   <circle cx="80" cy="-47.751409457686755" r="0.5" fill="blue"/>
   <circle cx="85" cy="-53.2690548417966" r="0.5" fill="blue"/>
   <circle cx="90" cy="-68.38630772618124" r="0.5" fill="blue"/>
   <circle cx="95" cy="-79.95811013880775" r="0.5" fill="blue"/>
   <circle cx="100" cy="-77.10208229948117" r="0.5" fill="blue"/>
   <circle cx="105" cy="-70.17115610695176" r="0.5" fill="blue"/>
   <circle cx="110" cy="-73.9436312011646" r="0.5" fill="blue"/>
   <circle cx="115" cy="-77.24874990771227" r="0.5" fill="blue"/>
   <circle cx="120" cy="-76.25609444889216" r="0.5" fill="blue"/>
   <circle cx="125" cy="-76.29466087120055" r="0.5" fill="blue"/>
   <polyline points="5,-42.5102717523478 10,-42.743815569999136 15,-63.55072992800129 20,-66.10276128125454 25,-81.39947601229873 30,-65.0781571637564 35,-59.85768498059852 40,-56.1874893394466 45,-60.699287313113395 50,-38.127056581973555 55,-27.517724341684506 60,-32.62489162913989 65,-37.50529616780384 70,-49.289305068093654 75,-48.95026788286187 80,-47.751409457686755 85,-53.2690548417966 90,-68.38630772618124 95,-79.95811013880775 100,-77.10208229948117 105,-70.17115610695176 110,-73.9436312011646 115,-77.24874990771227 120,-76.25609444889216 125,-76.29466087120055"
             stroke="blue"
             stroke-width="0.5"
             fill="none"
             stroke-opacity="0.5"/>
   <g id="small">
      <g>
         <path d="M5,-42.5102717523478 Q9.241733175116854,-41.148387428505195 10,-42.743815569999136 C13.241733175116854,-49.564570698766595 11.831252738133383,-56.14887040173814 15,-63.55072992800129 C15.831252738133383,-65.4924486862403 18.96555243439015,-64.25640208764557 20,-66.10276128125454 C22.965552434390155,-71.39590052136454 23.058912706270352,-81.5983606156566 25,-81.39947601229873 C27.058912706270355,-81.18851896865735 27.18996614839492,-71.13147336608444 30,-65.0781571637564 C31.189966148394916,-62.51475695340435 32.84719031554739,-61.771676559941056 35,-59.85768498059852 C36.84719031554739,-58.215409430217136 38.082284573668595,-56.026093961856574 40,-56.1874893394466 C42.082284573668595,-56.36273489486252 44.097649834121185,-62.32897076256829 45,-60.699287313113395 C48.097649834121185,-55.10479765957908 47.34625201092924,-46.93260718293898 50,-38.127056581973555 C51.34625201092924,-33.65998199436742 52.51458784842332,-28.885239105059718 55,-27.517724341684506 C56.51458784842332,-26.684373123926253 57.97732666501848,-30.60473210774946 60,-32.62489162913989 C61.97732666501848,-34.59976083819719 63.587619561026266,-35.15164701098891 65,-37.50529616780384 C67.58761956102626,-41.81741238657041 67.12539322825518,-45.999325748640274 70,-49.289305068093654 C71.12539322825518,-50.57731443466349 73.02565424325988,-49.253901650133486 75,-48.95026788286187 C77.02565424325988,-48.63874340597072 78.36612899531357,-47.04577537892462 80,-47.751409457686755 C82.36612899531357,-48.77329016249851 83.725461186364,-50.63905696593395 85,-53.2690548417966 C87.725461186364,-58.893016273331746 87.7674709401221,-62.42789857305467 90,-68.38630772618124 C91.7674709401221,-73.10352069185913 92.25423577958732,-77.5649639411528 95,-79.95811013880775 C96.25423577958732,-81.05127377047278 98.38981106520461,-78.67796680822573 100,-77.10208229948117 C102.38981106520461,-74.76318519548333 102.69172940299755,-70.90021208718318 105,-70.17115610695176 C106.69172940299755,-69.63683164785655 107.95596639706226,-72.49694724549477 110,-73.9436312011646 C111.95596639706226,-75.32798476579897 112.83841952781316,-76.7488923678185 115,-77.24874990771227 C116.83841952781316,-77.67387766690952 117.98070151314019,-76.44875350366792 120,-76.25609444889216 Q121.98070151314019,-76.06711788906324 125,-76.29466087120055"
               class="spline"/>
      </g>
   </g>
   <g id="default">
      <g>
         <path d="M5,-55.97033474610039 Q7.998908559269347,-56.1600965245034 10,-56.204410449960065 C11.998908559269347,-56.24867603577348 13.001562739218365,-56.25027001306289 15,-56.191783524275586 C17.001562739218365,-56.13320556488616 18.00453463311536,-56.078174524378966 20,-55.911749329518244 C22.00453463311536,-55.744567742477166 23.00703897006148,-55.630778148929785 25,-55.35776656952108 C27.00703897006148,-55.08282648242455 28.008229269951816,-54.912477981076194 30,-54.541870163255155 C32.00822926995181,-54.168199912862846 33.00757561202538,-53.94844082821728 35,-53.49707139898772 C37.00757561202538,-53.04226956881327 38.005148803488375,-52.7848965821902 40,-52.276442014745115 C42.005148803488375,-51.765362757643864 42.96621538629942,-51.19322453028844 45,-50.94823683762188 C46.96621538629942,-50.71138846757815 48.010059431648266,-51.191254086516444 50,-51.071851857969406 C52.010059431648266,-50.95124243904109 52.991465574368846,-50.432733103132016 55,-50.34820771893348 C56.991465574368846,-50.26440064515689 57.998750430358214,-50.556301258678936 60,-50.65102071303159 C61.99875043035822,-50.74562188273206 63.00565223309843,-50.67582220518694 65,-50.821509279066305 C67.00565223309843,-50.96802214402851 68.04020995097105,-50.966035103796116 70,-51.38152056013551 C72.04020995097105,-51.814055444638775 73.12246243504372,-52.0532071094174 75,-52.941560131172956 C77.12246243504372,-53.945798849442035 77.90950680319742,-55.01902402211786 80,-56.11299991019711 C81.90950680319742,-57.112263817879914 83.02181322360893,-57.30059211861381 85,-58.1746596205781 C87.02181322360893,-59.068003593396604 87.99303171671266,-59.60385756661966 90,-60.5315285971541 C91.99303171671266,-61.452757797399485 92.98866011387086,-61.91667439535521 95,-62.79691019752766 C96.98866011387086,-63.667220502938214 97.9861650966703,-64.09790944524374 100,-64.9078938661116 C101.9861650966703,-65.70674921563133 102.98562649218977,-66.09454700020417 105,-66.81900962349665 C106.98562649218977,-67.53313347978914 107.98668035460884,-67.87269490633366 110,-68.50436006507402 C111.98668035460884,-69.12766732998503 112.98871558384509,-69.41776149404731 115,-69.95644068262507 C116.98871558384509,-70.48907529581699 117.99111007656936,-70.73179056990666 120,-71.18264456949822 Q121.99111007656936,-71.6295082483778 125,-72.20073487880292"
               class="spline"/>
      </g>
   </g>
   <g>
      <line x1="5"
            y1="-45.52867182469227"
            x2="125"
            y2="-70.86693820254693"
            class="regression"/>
   </g>
</svg>
