<?xml version="1.0" encoding="UTF-8"?>
<svg xmlns="http://www.w3.org/2000/svg"
     viewBox="-10 -110 120 120"
     width="50%">
   <circle cx="1" cy="-62.5740240687531" r="0.5"/>
   <circle cx="2" cy="-83.37090618482547" r="0.5"/>
   <circle cx="3" cy="-15.764478663145976" r="0.5"/>
   <circle cx="4" cy="-75.88755139016715" r="0.5"/>
   <circle cx="5" cy="-73.07608183498272" r="0.5"/>
   <circle cx="6" cy="-57.00574397724291" r="0.5"/>
   <circle cx="7" cy="-59.054748658808265" r="0.5"/>
   <circle cx="8" cy="-6.2850749846187774" r="0.5"/>
   <circle cx="9" cy="-4.7349891281476815" r="0.5"/>
   <circle cx="10" cy="-59.898021891277686" r="0.5"/>
   <circle cx="11" cy="-65.70732292741857" r="0.5"/>
   <circle cx="12" cy="-55.355781233158055" r="0.5"/>
   <circle cx="13" cy="-65.5290062148499" r="0.5"/>
   <circle cx="14" cy="-98.55008794208703" r="0.5"/>
   <circle cx="15" cy="-16.883233199387917" r="0.5"/>
   <circle cx="16" cy="-92.14573484366882" r="0.5"/>
   <circle cx="17" cy="-37.570505666657574" r="0.5"/>
   <circle cx="18" cy="-21.969604803629405" r="0.5"/>
   <circle cx="19" cy="-11.328741483137906" r="0.5"/>
   <circle cx="20" cy="-40.73282444667654" r="0.5"/>
   <circle cx="21" cy="-49.908135457132055" r="0.5"/>
   <circle cx="22" cy="-43.810383811369334" r="0.5"/>
   <circle cx="23" cy="-72.17122328577668" r="0.5"/>
   <circle cx="24" cy="-93.91364190710088" r="0.5"/>
   <circle cx="25" cy="-27.73588429973266" r="0.5"/>
   <circle cx="26" cy="-93.87064387329012" r="0.5"/>
   <circle cx="27" cy="-31.20856316422901" r="0.5"/>
   <circle cx="28" cy="-82.18956591147929" r="0.5"/>
   <circle cx="29" cy="-3.012501580064242" r="0.5"/>
   <circle cx="30" cy="-0.7542776280639152" r="0.5"/>
   <circle cx="31" cy="-22.64656513528408" r="0.5"/>
   <circle cx="32" cy="-92.99701804982182" r="0.5"/>
   <circle cx="33" cy="-21.79270017393916" r="0.5"/>
   <circle cx="34" cy="-72.99163933150314" r="0.5"/>
   <circle cx="35" cy="-26.231505306575365" r="0.5"/>
   <circle cx="36" cy="-22.135074970285572" r="0.5"/>
   <circle cx="37" cy="-48.11865144719752" r="0.5"/>
   <circle cx="38" cy="-52.79443008697038" r="0.5"/>
   <circle cx="39" cy="-73.33420393802373" r="0.5"/>
   <circle cx="40" cy="-94.76548476318196" r="0.5"/>
   <circle cx="41" cy="-68.96004552469384" r="0.5"/>
   <circle cx="42" cy="-57.4281626248011" r="0.5"/>
   <circle cx="43" cy="-66.66158621781291" r="0.5"/>
   <circle cx="44" cy="-71.74204319679656" r="0.5"/>
   <circle cx="45" cy="-94.17765769787523" r="0.5"/>
   <circle cx="46" cy="-53.74835664505307" r="0.5"/>
   <circle cx="47" cy="-26.725837414351826" r="0.5"/>
   <circle cx="48" cy="-55.41971909786054" r="0.5"/>
   <circle cx="49" cy="-67.02103725900744" r="0.5"/>
   <circle cx="50" cy="-66.44833479861227" r="0.5"/>
   <circle cx="51" cy="-27.144495523669875" r="0.5"/>
   <circle cx="52" cy="-78.63836601810554" r="0.5"/>
   <circle cx="53" cy="-29.639114113703634" r="0.5"/>
   <circle cx="54" cy="-82.76282897124653" r="0.5"/>
   <circle cx="55" cy="-16.442758620676024" r="0.5"/>
   <circle cx="56" cy="-60.4761518735343" r="0.5"/>
   <circle cx="57" cy="-25.49010215536184" r="0.5"/>
   <circle cx="58" cy="-50.01487295679292" r="0.5"/>
   <circle cx="59" cy="-0.12854958442063413" r="0.5"/>
   <circle cx="60" cy="-75.55861497886535" r="0.5"/>
   <circle cx="61" cy="-61.82877220202512" r="0.5"/>
   <circle cx="62" cy="-29.564125704833156" r="0.5"/>
   <circle cx="63" cy="-92.62119501184898" r="0.5"/>
   <circle cx="64" cy="-90.95337483433048" r="0.5"/>
   <circle cx="65" cy="-42.95773342060576" r="0.5"/>
   <circle cx="66" cy="-1.7039529436179146" r="0.5"/>
   <circle cx="67" cy="-46.317262866001585" r="0.5"/>
   <circle cx="68" cy="-70.2064642927408" r="0.5"/>
   <circle cx="69" cy="-72.16597664987735" r="0.5"/>
   <circle cx="70" cy="-21.09397447325182" r="0.5"/>
   <circle cx="71" cy="-28.283706457095537" r="0.5"/>
   <circle cx="72" cy="-42.529166904355975" r="0.5"/>
   <circle cx="73" cy="-71.57382339228583" r="0.5"/>
   <circle cx="74" cy="-69.73201252625044" r="0.5"/>
   <circle cx="75" cy="-14.648868108235892" r="0.5"/>
   <circle cx="76" cy="-25.618579847510546" r="0.5"/>
   <circle cx="77" cy="-73.41401934007048" r="0.5"/>
   <circle cx="78" cy="-6.441223965878806" r="0.5"/>
   <circle cx="79" cy="-17.682642807125013" r="0.5"/>
   <circle cx="80" cy="-95.72213766807879" r="0.5"/>
   <circle cx="81" cy="-24.58218638649803" r="0.5"/>
   <circle cx="82" cy="-92.02297792518198" r="0.5"/>
   <circle cx="83" cy="-9.819595892427401" r="0.5"/>
   <circle cx="84" cy="-60.50696113247472" r="0.5"/>
   <circle cx="85" cy="-74.63149363568073" r="0.5"/>
   <circle cx="86" cy="-21.224772559632587" r="0.5"/>
   <circle cx="87" cy="-22.29905438035239" r="0.5"/>
   <circle cx="88" cy="-29.815839441184465" r="0.5"/>
   <circle cx="89" cy="-56.2071032010384" r="0.5"/>
   <circle cx="90" cy="-53.31232383739084" r="0.5"/>
   <circle cx="91" cy="-5.078910958008509" r="0.5"/>
   <circle cx="92" cy="-51.37845761131111" r="0.5"/>
   <circle cx="93" cy="-92.49704266597553" r="0.5"/>
   <circle cx="94" cy="-14.382394585232184" r="0.5"/>
   <circle cx="95" cy="-91.76610844695628" r="0.5"/>
   <circle cx="96" cy="-22.252492967730852" r="0.5"/>
   <circle cx="97" cy="-11.286611821906423" r="0.5"/>
   <circle cx="98" cy="-84.96246153095373" r="0.5"/>
   <circle cx="99" cy="-76.74464841166207" r="0.5"/>
   <circle cx="100" cy="-91.79843263151281" r="0.5"/>
   <polyline points="1,-62.5740240687531 2,-83.37090618482547 3,-15.764478663145976 4,-75.88755139016715 5,-73.07608183498272 6,-57.00574397724291 7,-59.054748658808265 8,-6.2850749846187774 9,-4.7349891281476815 10,-59.898021891277686 11,-65.70732292741857 12,-55.355781233158055 13,-65.5290062148499 14,-98.55008794208703 15,-16.883233199387917 16,-92.14573484366882 17,-37.570505666657574 18,-21.969604803629405 19,-11.328741483137906 20,-40.73282444667654 21,-49.908135457132055 22,-43.810383811369334 23,-72.17122328577668 24,-93.91364190710088 25,-27.73588429973266 26,-93.87064387329012 27,-31.20856316422901 28,-82.18956591147929 29,-3.012501580064242 30,-0.7542776280639152 31,-22.64656513528408 32,-92.99701804982182 33,-21.79270017393916 34,-72.99163933150314 35,-26.231505306575365 36,-22.135074970285572 37,-48.11865144719752 38,-52.79443008697038 39,-73.33420393802373 40,-94.76548476318196 41,-68.96004552469384 42,-57.4281626248011 43,-66.66158621781291 44,-71.74204319679656 45,-94.17765769787523 46,-53.74835664505307 47,-26.725837414351826 48,-55.41971909786054 49,-67.02103725900744 50,-66.44833479861227 51,-27.144495523669875 52,-78.63836601810554 53,-29.639114113703634 54,-82.76282897124653 55,-16.442758620676024 56,-60.4761518735343 57,-25.49010215536184 58,-50.01487295679292 59,-0.12854958442063413 60,-75.55861497886535 61,-61.82877220202512 62,-29.564125704833156 63,-92.62119501184898 64,-90.95337483433048 65,-42.95773342060576 66,-1.7039529436179146 67,-46.317262866001585 68,-70.2064642927408 69,-72.16597664987735 70,-21.09397447325182 71,-28.283706457095537 72,-42.529166904355975 73,-71.57382339228583 74,-69.73201252625044 75,-14.648868108235892 76,-25.618579847510546 77,-73.41401934007048 78,-6.441223965878806 79,-17.682642807125013 80,-95.72213766807879 81,-24.58218638649803 82,-92.02297792518198 83,-9.819595892427401 84,-60.50696113247472 85,-74.63149363568073 86,-21.224772559632587 87,-22.29905438035239 88,-29.815839441184465 89,-56.2071032010384 90,-53.31232383739084 91,-5.078910958008509 92,-51.37845761131111 93,-92.49704266597553 94,-14.382394585232184 95,-91.76610844695628 96,-22.252492967730852 97,-11.286611821906423 98,-84.96246153095373 99,-76.74464841166207 100,-91.79843263151281"
             stroke="black"
             stroke-width="0.5"
             fill="none"/>
</svg>
