<?xml version="1.0" encoding="UTF-8"?>
<svg xmlns="http://www.w3.org/2000/svg" viewBox="-10 -110 145 120">
   <style type="text/css">
                #small .spline {
                    stroke: fuchsia;
                    stroke-width: 0.5;
                    stroke-opacity: 0.5;
                    fill: none;
                }
                #default .spline {
                    stroke: green;
                    stroke-width: 0.5;
                    stroke-opacity: 0.5;
                    fill: none;
                }
                .regression {
                    stroke: red;
                    stroke-width: 0.5;
                    stroke-opacity: 0.5;
                    fill: none;
                }</style>
   <circle cx="5" cy="-13.3163264130983" r="0.5" fill="black"/>
   <circle cx="10" cy="-41.505645992046695" r="0.5" fill="black"/>
   <circle cx="15" cy="-35.15917537623777" r="0.5" fill="black"/>
   <circle cx="20" cy="-75.73563820958886" r="0.5" fill="black"/>
   <circle cx="25" cy="-73.363043911973" r="0.5" fill="black"/>
   <circle cx="30" cy="-20.894760141806845" r="0.5" fill="black"/>
   <circle cx="35" cy="-36.81126876497903" r="0.5" fill="black"/>
   <circle cx="40" cy="-16.35800770918776" r="0.5" fill="black"/>
   <circle cx="45" cy="-48.556645413812895" r="0.5" fill="black"/>
   <circle cx="50" cy="-29.745746810555328" r="0.5" fill="black"/>
   <circle cx="55" cy="-56.465497080734785" r="0.5" fill="black"/>
   <circle cx="60" cy="-50.35921217689365" r="0.5" fill="black"/>
   <circle cx="65" cy="-57.588367606078215" r="0.5" fill="black"/>
   <circle cx="70" cy="-50.02127029820832" r="0.5" fill="black"/>
   <circle cx="75" cy="-35.624664660543225" r="0.5" fill="black"/>
   <circle cx="80" cy="-6.033330376532831" r="0.5" fill="black"/>
   <circle cx="85" cy="-13.577923775659062" r="0.5" fill="black"/>
   <circle cx="90" cy="-92.7123864945595" r="0.5" fill="black"/>
   <circle cx="95" cy="-40.67434442257524" r="0.5" fill="black"/>
   <circle cx="100" cy="-22.946601239720543" r="0.5" fill="black"/>
   <circle cx="105" cy="-2.007230617621103" r="0.5" fill="black"/>
   <circle cx="110" cy="-35.1939952074003" r="0.5" fill="black"/>
   <circle cx="115" cy="-6.223255724875143" r="0.5" fill="black"/>
   <circle cx="120" cy="-36.1050973936053" r="0.5" fill="black"/>
   <circle cx="125" cy="-68.17075621164349" r="0.5" fill="black"/>
   <polyline points="5,-13.3163264130983 10,-41.505645992046695 15,-35.15917537623777 20,-75.73563820958886 25,-73.363043911973 30,-20.894760141806845 35,-36.81126876497903 40,-16.35800770918776 45,-48.556645413812895 50,-29.745746810555328 55,-56.465497080734785 60,-50.35921217689365 65,-57.588367606078215 70,-50.02127029820832 75,-35.624664660543225 80,-6.033330376532831 85,-13.577923775659062 90,-92.7123864945595 95,-40.67434442257524 100,-22.946601239720543 105,-2.007230617621103 110,-35.1939952074003 115,-6.223255724875143 120,-36.1050973936053 125,-68.17075621164349"
             stroke="black"
             stroke-width="0.5"
             fill="none"/>
   <circle cx="5" cy="-18.24083027604882" r="0.5" fill="blue"/>
   <circle cx="10" cy="-30.070716228572255" r="0.5" fill="blue"/>
   <circle cx="15" cy="-50.69553476635192" r="0.5" fill="blue"/>
   <circle cx="20" cy="-61.51504418436189" r="0.5" fill="blue"/>
   <circle cx="25" cy="-56.776173093583616" r="0.5" fill="blue"/>
   <circle cx="30" cy="-43.53722158536494" r="0.5" fill="blue"/>
   <circle cx="35" cy="-24.76910151044716" r="0.5" fill="blue"/>
   <circle cx="40" cy="-33.7912490175139" r="0.5" fill="blue"/>
   <circle cx="45" cy="-31.667196478123454" r="0.5" fill="blue"/>
   <circle cx="50" cy="-44.821115551711394" r="0.5" fill="blue"/>
   <circle cx="55" cy="-45.59667362218689" r="0.5" fill="blue"/>
   <circle cx="60" cy="-54.774626525695815" r="0.5" fill="blue"/>
   <circle cx="65" cy="-52.6892727871469" r="0.5" fill="blue"/>
   <circle cx="70" cy="-47.75999445567303" r="0.5" fill="blue"/>
   <circle cx="75" cy="-30.593632972367526" r="0.5" fill="blue"/>
   <circle cx="80" cy="-18.32917542201832" r="0.5" fill="blue"/>
   <circle cx="85" cy="-37.28159821980721" r="0.5" fill="blue"/>
   <circle cx="90" cy="-49.28067780267386" r="0.5" fill="blue"/>
   <circle cx="95" cy="-52.034613168375344" r="0.5" fill="blue"/>
   <circle cx="100" cy="-21.883219339752145" r="0.5" fill="blue"/>
   <circle cx="105" cy="-19.928597148568713" r="0.5" fill="blue"/>
   <circle cx="110" cy="-14.613412301045551" r="0.5" fill="blue"/>
   <circle cx="115" cy="-25.709566247051765" r="0.5" fill="blue"/>
   <circle cx="120" cy="-36.828167448692646" r="0.5" fill="blue"/>
   <circle cx="125" cy="-34.98210295821711" r="0.5" fill="blue"/>
   <polyline points="5,-18.24083027604882 10,-30.070716228572255 15,-50.69553476635192 20,-61.51504418436189 25,-56.776173093583616 30,-43.53722158536494 35,-24.76910151044716 40,-33.7912490175139 45,-31.667196478123454 50,-44.821115551711394 55,-45.59667362218689 60,-54.774626525695815 65,-52.6892727871469 70,-47.75999445567303 75,-30.593632972367526 80,-18.32917542201832 85,-37.28159821980721 90,-49.28067780267386 95,-52.034613168375344 100,-21.883219339752145 105,-19.928597148568713 110,-14.613412301045551 115,-25.709566247051765 120,-36.828167448692646 125,-34.98210295821711"
             stroke="blue"
             stroke-width="0.5"
             fill="none"
             stroke-opacity="0.5"/>
   <g id="small">
      <g>
         <path d="M5,-18.24083027604882 Q8.491942037764503,-25.17635867671208 10,-30.070716228572255 C12.4919420377645,-38.15824047283332 12.438568011642648,-42.641284018516025 15,-50.69553476635192 C16.438568011642648,-55.21901520083188 17.46510985586547,-59.97366916778726 20,-61.51504418436189 C21.46510985586547,-62.40592449867994 23.69035924312441,-59.13062201313616 25,-56.776173093583616 C27.69035924312441,-51.939492973537384 28.31399248411195,-48.93363791043842 30,-43.53722158536494 C32.31399248411195,-36.130809277183836 32.38746279091331,-27.315273107672063 35,-24.76910151044716 C36.38746279091331,-23.416884080531645 37.37989490950343,-31.983875643560154 40,-33.7912490175139 C41.37989490950343,-34.743113630630674 43.88591328643567,-30.438373702309725 45,-31.667196478123454 C47.88591328643567,-34.850320315988725 47.05787273440585,-40.72288610160943 50,-44.821115551711394 C51.05787273440585,-46.29467695923481 53.695201769492854,-44.29794127156806 55,-45.59667362218689 C57.695201769492854,-48.27934566116183 57.365542218032864,-52.90611121924557 60,-54.774626525695815 C61.365542218032864,-55.74315088522957 63.257872021726506,-53.91131146579502 65,-52.6892727871469 C67.2578720217265,-51.10545863778591 68.87213312673872,-50.2520884747333 70,-47.75999445567303 C72.87213312673872,-41.413832548821546 72.70214810401748,-37.35639930404768 75,-30.593632972367526 C76.7021481040175,-25.584071690585795 78.3870480606534,-17.250438770404273 80,-18.32917542201832 C82.3870480606534,-19.925624869380144 82.59498649924143,-29.837720110383433 85,-37.28159821980721 C86.59498649924143,-42.21832106264565 87.22053357147182,-45.1801268257619 90,-49.28067780267386 C91.22053357147182,-51.081332805189156 94.37049553811046,-53.75929540305959 95,-52.034613168375344 C98.37049553811046,-42.8003120178909 96.59763240891613,-32.80686617821314 100,-21.883219339752145 C100.59763240891613,-19.964459770290485 103.30457787553429,-21.16113631797068 105,-19.928597148568713 C107.30457787553429,-18.253213502488045 108.50064805251365,-13.746641573428658 110,-14.613412301045551 C112.50064805251365,-16.05902921282188 113.00168041828621,-21.270348225599726 115,-25.709566247051765 C117.00168041828621,-30.156250284658565 117.21680341973426,-34.247438202202254 120,-36.828167448692646 Q121.21680341973426,-37.956452886668394 125,-34.98210295821711"
               class="spline"/>
      </g>
   </g>
   <g id="default">
      <g>
         <path d="M5,-22.16803659629386 Q8.029620560963242,-24.17234923790065 10,-25.57781326064212 C12.029620560963242,-27.025533746217576 12.961767912528334,-27.866091298204175 15,-29.30099786708617 C16.961767912528334,-30.682073987716105 17.982041390098814,-31.318971323094246 20,-32.61776998442194 C21.982041390098814,-33.89345160223395 22.95535592864855,-34.56763253514638 25,-35.73719856493544 C26.95535592864855,-36.85569048357163 27.946538377084025,-37.4174028820059 30,-38.337914855485074 C31.946538377084025,-39.21049599503329 32.944009354910115,-39.68508355662413 35,-40.219931347503916 C36.944009354910115,-40.72564819568435 37.99101573894774,-40.74433246880159 40,-40.939326453135635 C41.99101573894774,-41.13257639507688 43.03483376555156,-40.87232281249435 45,-41.19054116319215 C47.03483376555156,-41.52004074112468 47.964625037504064,-42.318777225252816 50,-42.558621274711456 C51.964625037504064,-42.7901283106853 53.00391008097224,-42.503041484467175 55,-42.36891887677334 C57.00391008097225,-42.23427081153244 58.059804325773406,-42.34008168556732 60,-41.88669459237461 C62.059804325773406,-41.405357215833746 62.960755685247946,-40.64213257642518 65,-40.03210770243941 C66.96075568524795,-39.44556212221761 67.99019418195724,-39.30145538182528 70,-38.89526845685568 C71.99019418195724,-38.49304509397935 73.00166498780108,-38.37392654765798 75,-38.01108198282458 C77.00166498780108,-37.64763278286198 77.98310767442038,-37.24890416943074 80,-37.079534044865696 C81.98310767442038,-36.91300101304113 83.07376885907887,-37.538220968459555 85,-37.17132409185056 C87.07376885907887,-36.77632512156022 87.98654756602419,-35.93789924597134 90,-35.17479442761735 C91.98654756602419,-34.421886639014154 93.0499017163842,-34.21578025065591 95,-33.3812925744576 C97.0499017163842,-32.50409693046749 97.99643054669102,-31.882623015106564 100,-30.895586127146306 C101.99643054669102,-29.91206614455711 103.01910672542289,-29.46853056651551 105,-28.454900398083968 C107.01910672542289,-27.421716270277493 107.99481586302034,-26.839290185031075 110,-25.77855038655126 C111.99481586302034,-24.723295391500404 112.98817008039796,-24.187080578018012 115,-23.164913414257285 C116.98817008039796,-22.1547673018283 117.97221630843042,-21.62371228466838 120,-20.697767196076978 Q121.97221630843042,-19.797195792912426 125,-18.598622184867406"
               class="spline"/>
      </g>
   </g>
   <g>
      <line x1="5"
            y1="-43.205926420241205"
            x2="125"
            y2="-34.359928845157135"
            class="regression"/>
   </g>
</svg>
