<?xml version="1.0" encoding="UTF-8"?>
<svg xmlns="http://www.w3.org/2000/svg"
     viewBox="-10 -110 520 120"
     width="90%">
   <style type="text/css">
                .spline {
                    stroke: red;
                    stroke-width: 0.5;
                    stroke-opacity: 0.5;
                    fill: none;
                }</style>
   <circle cx="5" cy="-58.5345885646682" r="0.5" fill="black"/>
   <circle cx="10" cy="-91.69735579365381" r="0.5" fill="black"/>
   <circle cx="15" cy="-34.113147793779405" r="0.5" fill="black"/>
   <circle cx="20" cy="-82.71766671784137" r="0.5" fill="black"/>
   <circle cx="25" cy="-38.7997981197489" r="0.5" fill="black"/>
   <circle cx="30" cy="-59.70291058177084" r="0.5" fill="black"/>
   <circle cx="35" cy="-26.53596545293545" r="0.5" fill="black"/>
   <circle cx="40" cy="-81.79508762867871" r="0.5" fill="black"/>
   <circle cx="45" cy="-98.36371631026132" r="0.5" fill="black"/>
   <circle cx="50" cy="-85.8248158823264" r="0.5" fill="black"/>
   <circle cx="55" cy="-88.93428149279137" r="0.5" fill="black"/>
   <circle cx="60" cy="-15.359238094408923" r="0.5" fill="black"/>
   <circle cx="65" cy="-48.52793611163341" r="0.5" fill="black"/>
   <circle cx="70" cy="-95.42609626238186" r="0.5" fill="black"/>
   <circle cx="75" cy="-64.79628339259502" r="0.5" fill="black"/>
   <circle cx="80" cy="-8.250241231209932" r="0.5" fill="black"/>
   <circle cx="85" cy="-68.29627715913117" r="0.5" fill="black"/>
   <circle cx="90" cy="-71.94534610858096" r="0.5" fill="black"/>
   <circle cx="95" cy="-79.38482096936347" r="0.5" fill="black"/>
   <circle cx="100" cy="-22.99521315623939" r="0.5" fill="black"/>
   <circle cx="105" cy="-27.399827244284424" r="0.5" fill="black"/>
   <circle cx="110" cy="-0.12304146335531119" r="0.5" fill="black"/>
   <circle cx="115" cy="-16.006198534568217" r="0.5" fill="black"/>
   <circle cx="120" cy="-28.068958656719666" r="0.5" fill="black"/>
   <circle cx="125" cy="-38.56607214231804" r="0.5" fill="black"/>
   <circle cx="130" cy="-47.33076330617082" r="0.5" fill="black"/>
   <circle cx="135" cy="-46.492793600707095" r="0.5" fill="black"/>
   <circle cx="140" cy="-95.05813554565307" r="0.5" fill="black"/>
   <circle cx="145" cy="-29.87738480703087" r="0.5" fill="black"/>
   <circle cx="150" cy="-8.915577549196453" r="0.5" fill="black"/>
   <circle cx="155" cy="-95.01251222462479" r="0.5" fill="black"/>
   <circle cx="160" cy="-95.39352104625726" r="0.5" fill="black"/>
   <circle cx="165" cy="-17.893645819517168" r="0.5" fill="black"/>
   <circle cx="170" cy="-52.15777615152043" r="0.5" fill="black"/>
   <circle cx="175" cy="-52.813254323822036" r="0.5" fill="black"/>
   <circle cx="180" cy="-5.87928067746295" r="0.5" fill="black"/>
   <circle cx="185" cy="-24.734273710784915" r="0.5" fill="black"/>
   <circle cx="190" cy="-79.55677922133769" r="0.5" fill="black"/>
   <circle cx="195" cy="-5.196191846425869" r="0.5" fill="black"/>
   <circle cx="200" cy="-6.317073969775322" r="0.5" fill="black"/>
   <circle cx="205" cy="-76.55036386594973" r="0.5" fill="black"/>
   <circle cx="210" cy="-61.25336201205794" r="0.5" fill="black"/>
   <circle cx="215" cy="-11.675763414609431" r="0.5" fill="black"/>
   <circle cx="220" cy="-13.240536012190384" r="0.5" fill="black"/>
   <circle cx="225" cy="-33.89711884149696" r="0.5" fill="black"/>
   <circle cx="230" cy="-45.916794468592705" r="0.5" fill="black"/>
   <circle cx="235" cy="-0.6415597953636554" r="0.5" fill="black"/>
   <circle cx="240" cy="-68.67994081695825" r="0.5" fill="black"/>
   <circle cx="245" cy="-93.23341829323272" r="0.5" fill="black"/>
   <circle cx="250" cy="-51.57826852758466" r="0.5" fill="black"/>
   <circle cx="255" cy="-13.794534441526462" r="0.5" fill="black"/>
   <circle cx="260" cy="-57.27013130026057" r="0.5" fill="black"/>
   <circle cx="265" cy="-97.76309669674546" r="0.5" fill="black"/>
   <circle cx="270" cy="-2.807646250715734" r="0.5" fill="black"/>
   <circle cx="275" cy="-92.45789283641308" r="0.5" fill="black"/>
   <circle cx="280" cy="-33.29482997792255" r="0.5" fill="black"/>
   <circle cx="285" cy="-84.20780730653779" r="0.5" fill="black"/>
   <circle cx="290" cy="-98.99102342675515" r="0.5" fill="black"/>
   <circle cx="295" cy="-51.79959852876884" r="0.5" fill="black"/>
   <circle cx="300" cy="-83.90558671648323" r="0.5" fill="black"/>
   <circle cx="305" cy="-91.0899095805322" r="0.5" fill="black"/>
   <circle cx="310" cy="-36.48474190316237" r="0.5" fill="black"/>
   <circle cx="315" cy="-22.921412342741455" r="0.5" fill="black"/>
   <circle cx="320" cy="-66.66796858863705" r="0.5" fill="black"/>
   <circle cx="325" cy="-31.405146248682712" r="0.5" fill="black"/>
   <circle cx="330" cy="-91.47919428214713" r="0.5" fill="black"/>
   <circle cx="335" cy="-26.921059353131582" r="0.5" fill="black"/>
   <circle cx="340" cy="-29.296048650580943" r="0.5" fill="black"/>
   <circle cx="345" cy="-45.27768016333723" r="0.5" fill="black"/>
   <circle cx="350" cy="-28.04188027368507" r="0.5" fill="black"/>
   <circle cx="355" cy="-86.83579927567271" r="0.5" fill="black"/>
   <circle cx="360" cy="-11.456458949637206" r="0.5" fill="black"/>
   <circle cx="365" cy="-94.7296660969382" r="0.5" fill="black"/>
   <circle cx="370" cy="-13.799824145112483" r="0.5" fill="black"/>
   <circle cx="375" cy="-43.25928469649069" r="0.5" fill="black"/>
   <circle cx="380" cy="-34.774083405904754" r="0.5" fill="black"/>
   <circle cx="385" cy="-29.866647753974117" r="0.5" fill="black"/>
   <circle cx="390" cy="-82.15420086565274" r="0.5" fill="black"/>
   <circle cx="395" cy="-49.01869641626833" r="0.5" fill="black"/>
   <circle cx="400" cy="-25.178220030988463" r="0.5" fill="black"/>
   <circle cx="405" cy="-7.699613451353904" r="0.5" fill="black"/>
   <circle cx="410" cy="-97.66620652977008" r="0.5" fill="black"/>
   <circle cx="415" cy="-25.27984868861255" r="0.5" fill="black"/>
   <circle cx="420" cy="-23.002388676655826" r="0.5" fill="black"/>
   <circle cx="425" cy="-30.04343501386717" r="0.5" fill="black"/>
   <circle cx="430" cy="-73.4438825746259" r="0.5" fill="black"/>
   <circle cx="435" cy="-7.565147237716808" r="0.5" fill="black"/>
   <circle cx="440" cy="-69.39743029374317" r="0.5" fill="black"/>
   <circle cx="445" cy="-67.31241866282994" r="0.5" fill="black"/>
   <circle cx="450" cy="-94.70346335205116" r="0.5" fill="black"/>
   <circle cx="455" cy="-44.55854815760827" r="0.5" fill="black"/>
   <circle cx="460" cy="-48.19785920756927" r="0.5" fill="black"/>
   <circle cx="465" cy="-59.96372709252078" r="0.5" fill="black"/>
   <circle cx="470" cy="-3.7489666860271553" r="0.5" fill="black"/>
   <circle cx="475" cy="-86.69965116756431" r="0.5" fill="black"/>
   <circle cx="480" cy="-69.69899524619045" r="0.5" fill="black"/>
   <circle cx="485" cy="-92.50213083972422" r="0.5" fill="black"/>
   <circle cx="490" cy="-94.81357485773762" r="0.5" fill="black"/>
   <circle cx="495" cy="-70.24887864135867" r="0.5" fill="black"/>
   <circle cx="500" cy="-1.2273824916854026" r="0.5" fill="black"/>
   <polyline points="5,-58.5345885646682 10,-91.69735579365381 15,-34.113147793779405 20,-82.71766671784137 25,-38.7997981197489 30,-59.70291058177084 35,-26.53596545293545 40,-81.79508762867871 45,-98.36371631026132 50,-85.8248158823264 55,-88.93428149279137 60,-15.359238094408923 65,-48.52793611163341 70,-95.42609626238186 75,-64.79628339259502 80,-8.250241231209932 85,-68.29627715913117 90,-71.94534610858096 95,-79.38482096936347 100,-22.99521315623939 105,-27.399827244284424 110,-0.12304146335531119 115,-16.006198534568217 120,-28.068958656719666 125,-38.56607214231804 130,-47.33076330617082 135,-46.492793600707095 140,-95.05813554565307 145,-29.87738480703087 150,-8.915577549196453 155,-95.01251222462479 160,-95.39352104625726 165,-17.893645819517168 170,-52.15777615152043 175,-52.813254323822036 180,-5.87928067746295 185,-24.734273710784915 190,-79.55677922133769 195,-5.196191846425869 200,-6.317073969775322 205,-76.55036386594973 210,-61.25336201205794 215,-11.675763414609431 220,-13.240536012190384 225,-33.89711884149696 230,-45.916794468592705 235,-0.6415597953636554 240,-68.67994081695825 245,-93.23341829323272 250,-51.57826852758466 255,-13.794534441526462 260,-57.27013130026057 265,-97.76309669674546 270,-2.807646250715734 275,-92.45789283641308 280,-33.29482997792255 285,-84.20780730653779 290,-98.99102342675515 295,-51.79959852876884 300,-83.90558671648323 305,-91.0899095805322 310,-36.48474190316237 315,-22.921412342741455 320,-66.66796858863705 325,-31.405146248682712 330,-91.47919428214713 335,-26.921059353131582 340,-29.296048650580943 345,-45.27768016333723 350,-28.04188027368507 355,-86.83579927567271 360,-11.456458949637206 365,-94.7296660969382 370,-13.799824145112483 375,-43.25928469649069 380,-34.774083405904754 385,-29.866647753974117 390,-82.15420086565274 395,-49.01869641626833 400,-25.178220030988463 405,-7.699613451353904 410,-97.66620652977008 415,-25.27984868861255 420,-23.002388676655826 425,-30.04343501386717 430,-73.4438825746259 435,-7.565147237716808 440,-69.39743029374317 445,-67.31241866282994 450,-94.70346335205116 455,-44.55854815760827 460,-48.19785920756927 465,-59.96372709252078 470,-3.7489666860271553 475,-86.69965116756431 480,-69.69899524619045 485,-92.50213083972422 490,-94.81357485773762 495,-70.24887864135867 500,-1.2273824916854026"
             stroke="black"
             stroke-width="0.5"
             fill="none"/>
   <circle cx="5" cy="-50.13388328736446" r="0.5" fill="blue"/>
   <circle cx="10" cy="-61.65069167686479" r="0.5" fill="blue"/>
   <circle cx="15" cy="-69.27263385737928" r="0.5" fill="blue"/>
   <circle cx="20" cy="-52.08315692673758" r="0.5" fill="blue"/>
   <circle cx="25" cy="-60.26226825412085" r="0.5" fill="blue"/>
   <circle cx="30" cy="-41.80011156163057" r="0.5" fill="blue"/>
   <circle cx="35" cy="-55.81416824447361" r="0.5" fill="blue"/>
   <circle cx="40" cy="-68.98452000810481" r="0.5" fill="blue"/>
   <circle cx="45" cy="-88.72610416707232" r="0.5" fill="blue"/>
   <circle cx="50" cy="-91.00604861373802" r="0.5" fill="blue"/>
   <circle cx="55" cy="-63.54375272487549" r="0.5" fill="blue"/>
   <circle cx="60" cy="-50.70249153944622" r="0.5" fill="blue"/>
   <circle cx="65" cy="-53.07381255754026" r="0.5" fill="blue"/>
   <circle cx="70" cy="-69.75629339425635" r="0.5" fill="blue"/>
   <circle cx="75" cy="-56.21532259765389" r="0.5" fill="blue"/>
   <circle cx="80" cy="-46.854315914612805" r="0.5" fill="blue"/>
   <circle cx="85" cy="-49.623029706704095" r="0.5" fill="blue"/>
   <circle cx="90" cy="-73.20036373310103" r="0.5" fill="blue"/>
   <circle cx="95" cy="-58.25077211375269" r="0.5" fill="blue"/>
   <circle cx="100" cy="-43.1244082186555" r="0.5" fill="blue"/>
   <circle cx="105" cy="-16.90999683162277" r="0.5" fill="blue"/>
   <circle cx="110" cy="-14.413460542422293" r="0.5" fill="blue"/>
   <circle cx="115" cy="-14.741250764884885" r="0.5" fill="blue"/>
   <circle cx="120" cy="-27.55056717870674" r="0.5" fill="blue"/>
   <circle cx="125" cy="-37.99246060894582" r="0.5" fill="blue"/>
   <circle cx="130" cy="-44.15128624877986" r="0.5" fill="blue"/>
   <circle cx="135" cy="-62.850415523347536" r="0.5" fill="blue"/>
   <circle cx="140" cy="-57.39637731248822" r="0.5" fill="blue"/>
   <circle cx="145" cy="-44.51844296919832" r="0.5" fill="blue"/>
   <circle cx="150" cy="-44.36312884798315" r="0.5" fill="blue"/>
   <circle cx="155" cy="-66.63164743994903" r="0.5" fill="blue"/>
   <circle cx="160" cy="-69.6068680121643" r="0.5" fill="blue"/>
   <circle cx="165" cy="-54.89912756589413" r="0.5" fill="blue"/>
   <circle cx="170" cy="-41.029825271462904" r="0.5" fill="blue"/>
   <circle cx="175" cy="-37.056208199791406" r="0.5" fill="blue"/>
   <circle cx="180" cy="-27.66225448380469" r="0.5" fill="blue"/>
   <circle cx="185" cy="-36.64325209595184" r="0.5" fill="blue"/>
   <circle cx="190" cy="-36.78377227858858" r="0.5" fill="blue"/>
   <circle cx="195" cy="-30.18838971678129" r="0.5" fill="blue"/>
   <circle cx="200" cy="-29.2004515965837" r="0.5" fill="blue"/>
   <circle cx="205" cy="-48.23096322979595" r="0.5" fill="blue"/>
   <circle cx="210" cy="-49.90292775814392" r="0.5" fill="blue"/>
   <circle cx="215" cy="-28.60919448002853" r="0.5" fill="blue"/>
   <circle cx="220" cy="-19.561906040970147" r="0.5" fill="blue"/>
   <circle cx="225" cy="-31.037406448238333" r="0.5" fill="blue"/>
   <circle cx="230" cy="-26.94623461187228" r="0.5" fill="blue"/>
   <circle cx="235" cy="-38.16012327425403" r="0.5" fill="blue"/>
   <circle cx="240" cy="-54.28192603264095" r="0.5" fill="blue"/>
   <circle cx="245" cy="-71.31149329953809" r="0.5" fill="blue"/>
   <circle cx="250" cy="-52.860108790444606" r="0.5" fill="blue"/>
   <circle cx="255" cy="-40.699803924014816" r="0.5" fill="blue"/>
   <circle cx="260" cy="-56.28257082781114" r="0.5" fill="blue"/>
   <circle cx="265" cy="-52.915617806045184" r="0.5" fill="blue"/>
   <circle cx="270" cy="-63.93128545487941" r="0.5" fill="blue"/>
   <circle cx="275" cy="-43.18524750910866" r="0.5" fill="blue"/>
   <circle cx="280" cy="-69.74142005397708" r="0.5" fill="blue"/>
   <circle cx="285" cy="-72.24510775748129" r="0.5" fill="blue"/>
   <circle cx="290" cy="-78.4709871639891" r="0.5" fill="blue"/>
   <circle cx="295" cy="-78.05526964405885" r="0.5" fill="blue"/>
   <circle cx="300" cy="-75.65392978441768" r="0.5" fill="blue"/>
   <circle cx="305" cy="-70.63117733559139" r="0.5" fill="blue"/>
   <circle cx="310" cy="-50.0738485541068" r="0.5" fill="blue"/>
   <circle cx="315" cy="-41.89693064570625" r="0.5" fill="blue"/>
   <circle cx="320" cy="-40.507666777384294" r="0.5" fill="blue"/>
   <circle cx="325" cy="-62.97154187599349" r="0.5" fill="blue"/>
   <circle cx="330" cy="-50.21301069672569" r="0.5" fill="blue"/>
   <circle cx="335" cy="-49.08286801780555" r="0.5" fill="blue"/>
   <circle cx="340" cy="-33.801258960561924" r="0.5" fill="blue"/>
   <circle cx="345" cy="-34.279263944465484" r="0.5" fill="blue"/>
   <circle cx="350" cy="-53.21560557604066" r="0.5" fill="blue"/>
   <circle cx="355" cy="-42.41052949321691" r="0.5" fill="blue"/>
   <circle cx="360" cy="-63.98691291994469" r="0.5" fill="blue"/>
   <circle cx="365" cy="-40.3614202045395" r="0.5" fill="blue"/>
   <circle cx="370" cy="-50.35013654985633" r="0.5" fill="blue"/>
   <circle cx="375" cy="-30.69566473543604" r="0.5" fill="blue"/>
   <circle cx="380" cy="-35.95869503799667" r="0.5" fill="blue"/>
   <circle cx="385" cy="-48.80412321483282" r="0.5" fill="blue"/>
   <circle cx="390" cy="-53.870305871981124" r="0.5" fill="blue"/>
   <circle cx="395" cy="-52.09631509715475" r="0.5" fill="blue"/>
   <circle cx="400" cy="-27.284659002897847" r="0.5" fill="blue"/>
   <circle cx="405" cy="-43.27512235338587" r="0.5" fill="blue"/>
   <circle cx="410" cy="-43.910535088959634" r="0.5" fill="blue"/>
   <circle cx="415" cy="-48.493167913409565" r="0.5" fill="blue"/>
   <circle cx="420" cy="-26.087781105852454" r="0.5" fill="blue"/>
   <circle cx="425" cy="-42.0821692338928" r="0.5" fill="blue"/>
   <circle cx="430" cy="-37.26113493810584" r="0.5" fill="blue"/>
   <circle cx="435" cy="-49.850744790562096" r="0.5" fill="blue"/>
   <circle cx="440" cy="-48.23417410951363" r="0.5" fill="blue"/>
   <circle cx="445" cy="-77.07205154872003" r="0.5" fill="blue"/>
   <circle cx="450" cy="-69.03101600356503" r="0.5" fill="blue"/>
   <circle cx="455" cy="-62.36670734607067" r="0.5" fill="blue"/>
   <circle cx="460" cy="-50.888592678642596" r="0.5" fill="blue"/>
   <circle cx="465" cy="-37.455085900128324" r="0.5" fill="blue"/>
   <circle cx="470" cy="-49.82716784555578" r="0.5" fill="blue"/>
   <circle cx="475" cy="-53.605387193088504" r="0.5" fill="blue"/>
   <circle cx="480" cy="-82.87818002019462" r="0.5" fill="blue"/>
   <circle cx="485" cy="-85.71725484356337" r="0.5" fill="blue"/>
   <circle cx="490" cy="-85.91478394661436" r="0.5" fill="blue"/>
   <circle cx="495" cy="-55.5290653149728" r="0.5" fill="blue"/>
   <circle cx="500" cy="-23.674267988858013" r="0.5" fill="blue"/>
   <polyline points="5,-50.13388328736446 10,-61.65069167686479 15,-69.27263385737928 20,-52.08315692673758 25,-60.26226825412085 30,-41.80011156163057 35,-55.81416824447361 40,-68.98452000810481 45,-88.72610416707232 50,-91.00604861373802 55,-63.54375272487549 60,-50.70249153944622 65,-53.07381255754026 70,-69.75629339425635 75,-56.21532259765389 80,-46.854315914612805 85,-49.623029706704095 90,-73.20036373310103 95,-58.25077211375269 100,-43.1244082186555 105,-16.90999683162277 110,-14.413460542422293 115,-14.741250764884885 120,-27.55056717870674 125,-37.99246060894582 130,-44.15128624877986 135,-62.850415523347536 140,-57.39637731248822 145,-44.51844296919832 150,-44.36312884798315 155,-66.63164743994903 160,-69.6068680121643 165,-54.89912756589413 170,-41.029825271462904 175,-37.056208199791406 180,-27.66225448380469 185,-36.64325209595184 190,-36.78377227858858 195,-30.18838971678129 200,-29.2004515965837 205,-48.23096322979595 210,-49.90292775814392 215,-28.60919448002853 220,-19.561906040970147 225,-31.037406448238333 230,-26.94623461187228 235,-38.16012327425403 240,-54.28192603264095 245,-71.31149329953809 250,-52.860108790444606 255,-40.699803924014816 260,-56.28257082781114 265,-52.915617806045184 270,-63.93128545487941 275,-43.18524750910866 280,-69.74142005397708 285,-72.24510775748129 290,-78.4709871639891 295,-78.05526964405885 300,-75.65392978441768 305,-70.63117733559139 310,-50.0738485541068 315,-41.89693064570625 320,-40.507666777384294 325,-62.97154187599349 330,-50.21301069672569 335,-49.08286801780555 340,-33.801258960561924 345,-34.279263944465484 350,-53.21560557604066 355,-42.41052949321691 360,-63.98691291994469 365,-40.3614202045395 370,-50.35013654985633 375,-30.69566473543604 380,-35.95869503799667 385,-48.80412321483282 390,-53.870305871981124 395,-52.09631509715475 400,-27.284659002897847 405,-43.27512235338587 410,-43.910535088959634 415,-48.493167913409565 420,-26.087781105852454 425,-42.0821692338928 430,-37.26113493810584 435,-49.850744790562096 440,-48.23417410951363 445,-77.07205154872003 450,-69.03101600356503 455,-62.36670734607067 460,-50.888592678642596 465,-37.455085900128324 470,-49.82716784555578 475,-53.605387193088504 480,-82.87818002019462 485,-85.71725484356337 490,-85.91478394661436 495,-55.5290653149728 500,-23.674267988858013"
             stroke="blue"
             stroke-width="0.5"
             fill="none"
             stroke-opacity="0.5"/>
   <g>
      <path d="M5,-50.13388328736446 Q7.682546239118348,-57.21537472815912 10,-61.65069167686479 C11.682546239118347,-64.87087495616504 13.650416466970848,-70.56385259242487 15,-69.27263385737928 C17.65041646697085,-66.73683869237398 17.394972876534624,-54.43038160562035 20,-52.08315692673758 C21.394972876534624,-50.82623536431698 23.66455678784594,-61.63551056743129 25,-60.26226825412085 C27.66455678784594,-57.522292421388485 27.75016982085361,-42.80085852578714 30,-41.80011156163057 C31.75016982085361,-41.02161852192825 32.94533131061939,-50.22867295704316 35,-55.81416824447361 C36.94533131061938,-61.10243633563285 38.36440994350735,-63.60147649461222 40,-68.98452000810481 C42.36440994350735,-76.7662508636517 41.84999841458152,-81.78931916496401 45,-88.72610416707232 C45.84999841458151,-90.5979306072173 49.34206020109603,-92.6628957381188 50,-91.00604861373802 C53.34206020109604,-82.58995516124007 52.322042887626836,-74.33687245697924 55,-63.54375272487549 C56.322042887626836,-58.215449627262515 57.14606438038027,-53.690545057330766 60,-50.70249153944622 C61.14606438038027,-49.502568990396675 64.03547787712937,-51.236031216164484 65,-53.07381255754026 C68.03547787712938,-58.857551958088536 67.81280838985691,-69.06918495396467 70,-69.75629339425635 C71.81280838985691,-70.32578897001012 72.6948207496172,-61.49463892553475 75,-56.21532259765389 C76.6948207496172,-52.33384793367734 77.4001419767044,-48.56821847105784 80,-46.854315914612805 C81.4001419767044,-45.931301314677924 84.23327170907227,-47.603003685047135 85,-49.623029706704095 C88.23327170907227,-58.14142281244243 87.58168583795799,-71.11390456815943 90,-73.20036373310103 C91.58168583795799,-74.56500153097886 93.01058485751207,-64.23412824627582 95,-58.25077211375269 C97.01058485751207,-52.203746040497606 98.50474417437133,-49.30591172631657 100,-43.1244082186555 C102.50474417437133,-32.76960161346461 101.69261237262204,-26.40582014308973 105,-16.90999683162277 C105.69261237262204,-14.921441072596448 107.89095776753231,-14.870858247047131 110,-14.413460542422293 C111.89095776753231,-14.003359820351978 113.93168846699736,-13.337798511902063 115,-14.741250764884885 C117.93168846699736,-18.59264116641584 117.82838523414966,-22.501300116581994 120,-27.55056717870674 C121.82838523414966,-31.801784054206372 122.62641522363059,-34.05213920279472 125,-37.99246060894582 C126.62641522363059,-40.69242683082397 128.8371990005879,-41.26080076699917 130,-44.15128624877986 C132.8371990005879,-51.203982732759854 132.10619261060512,-59.01754128401082 135,-62.850415523347536 C136.10619261060512,-64.31557770949416 138.6048414967616,-59.95397805149366 140,-57.39637731248822 C142.6048414967616,-52.62118902983397 142.0633847304319,-48.345806614492375 145,-44.51844296919832 C146.0633847304319,-43.13250722869034 149.28088450759782,-42.77293405582575 150,-44.36312884798315 C153.28088450759782,-51.618215844126034 151.81256986654037,-58.585381950638435 155,-66.63164743994903 C155.81256986654037,-68.68287761631089 158.91006622186825,-70.88563498349775 160,-69.6068680121643 C162.91006622186825,-66.1926270338758 162.94772673146963,-60.7639176569333 165,-54.89912756589413 C166.94772673146963,-49.333100560652746 167.20904092968732,-46.009711036031135 170,-41.029825271462904 C171.20904092968732,-38.87254328959004 173.4997592819962,-39.061665599435706 175,-37.056208199791406 C177.4997592819962,-33.71463728437242 177.96532587188102,-27.74627759385781 180,-27.66225448380469 C181.96532587188102,-27.581095152321982 182.30933186312356,-34.18895436691418 185,-36.64325209595184 C186.30933186312356,-37.83756148482774 188.4931986742942,-37.75639179760684 190,-36.78377227858858 C192.4931986742942,-35.17444684593862 192.52445542244462,-32.06567455620136 195,-30.18838971678129 C196.52445542244462,-29.032346283399406 199.17706283833024,-27.715661172981886 200,-29.2004515965837 C203.17706283833024,-34.932690578187746 201.84528268767497,-41.6999172343089 205,-48.23096322979595 C205.84528268767497,-49.98090769893299 209.22311502865804,-51.427313483428094 210,-49.90292775814392 C213.22311502865804,-43.57860598352112 212.28370474196507,-36.85071182145792 215,-28.60919448002853 C216.28370474196507,-24.714303134588413 218.1908142635638,-19.122597395177262 220,-19.561906040970147 C222.1908142635638,-20.093882182461183 222.3616799281847,-29.089184219689322 225,-31.037406448238333 C226.3616799281847,-32.042915648050176 228.62092423999846,-25.963957999860952 230,-26.94623461187228 C232.62092423999846,-28.813044730267233 233.3156155608975,-33.55574194812901 235,-38.16012327425403 C237.3156155608975,-44.490018516436486 238.05019445626792,-47.818053526879694 240,-54.28192603264095 C242.05019445626792,-61.07860153699332 243.07423942273556,-71.58530125884775 245,-71.31149329953809 C247.07423942273556,-71.0165743619692 247.63001829657506,-60.11502316353639 250,-52.860108790444606 C251.63001829657506,-47.87034741332708 253.218014074695,-40.08992600596703 255,-40.699803924014816 C257.21801407469496,-41.458910820913644 257.0767467977501,-52.71157912293773 260,-56.28257082781114 C261.0767467977501,-57.597904675749874 263.6697106111991,-51.89811741540965 265,-52.915617806045184 C267.6697106111991,-54.95760326623696 268.5528393838373,-65.33942632232002 270,-63.93128545487941 C272.5528393838373,-61.44727820354541 273.235003416328,-42.1597607373005 275,-43.18524750910866 C277.235003416328,-44.48381457693957 276.6858058861591,-60.11041827555751 280,-69.74142005397708 C280.6858058861591,-71.73436237490657 283.35254934124487,-70.80695464887762 285,-72.24510775748129 C287.3525493412448,-74.29878149288243 287.5434924982069,-77.04371653788809 290,-78.4709871639891 C291.5434924982069,-79.36778129251911 293.1002456138447,-78.59044135534805 295,-78.05526964405885 C297.1002456138447,-77.46361840351949 298.24385530126307,-76.95770781946254 300,-75.65392978441768 C302.2438553012631,-73.98807089607556 303.99628679277913,-73.19868387285601 305,-70.63117733559139 C307.99628679277913,-62.966651380731655 307.24712017120066,-57.98404136493966 310,-50.0738485541068 C311.24712017120066,-46.4903426889856 312.4050246284274,-44.379331256764395 315,-41.89693064570625 C316.4050246284274,-40.55285854607539 319.26399110872467,-38.956556652818115 320,-40.507666777384294 C323.26399110872467,-47.38640114493301 322.4928595448848,-60.538275838894805 325,-62.97154187599349 C326.4928595448848,-64.42041340663135 327.08896213679765,-54.256056243811045 330,-50.21301069672569 C331.08896213679765,-48.70058670053587 334.03303000337513,-50.66983516989821 335,-49.08286801780555 C338.03303000337513,-44.1051344754327 336.9521172565893,-38.31322390010369 340,-33.801258960561924 C340.9521172565893,-32.391782270767656 344.1835546794157,-32.69418869982457 345,-34.279263944465484 C348.1835546794157,-40.459927346016066 347.5122788925476,-51.192773482447706 350,-53.21560557604066 C351.5122788925476,-54.44527970194828 353.60153135032493,-40.90419592957046 355,-42.41052949321691 C357.60153135032493,-45.212718867132075 358.086426546473,-64.37902503376357 360,-63.98691291994469 C362.086426546473,-63.5593813182926 362.2650683658859,-44.09098531272891 365,-40.3614202045395 C366.2650683658859,-38.63627476469357 368.5793340038429,-51.72331756206878 370,-50.35013654985633 C372.5793340038429,-47.8570153744274 372.05438772522,-34.93482541234722 375,-30.69566473543604 C376.05438772522,-29.178248807603357 378.6201189249341,-33.45994312256309 380,-35.95869503799667 C382.6201189249341,-40.7033265143218 382.3621537503181,-44.079315668414054 385,-48.80412321483282 C386.3621537503181,-51.24396000200783 387.70818916615855,-53.11579776968209 390,-53.870305871981124 C391.70818916615855,-54.43267452261086 394.30684472808656,-53.93911322560821 395,-52.09631509715475 C398.30684472808656,-43.3048544779749 397.5931720050235,-29.407768367376484 400,-27.284659002897847 C401.5931720050235,-25.87929126986893 401.9250573443864,-38.16276079698813 405,-43.27512235338587 C405.9250573443864,-44.81311123141285 408.2947165666208,-43.02071042414701 410,-43.910535088959634 C412.2947165666208,-45.10792864815649 414.0877438728344,-50.11905956581511 415,-48.493167913409565 C418.0877438728344,-42.989957972572235 417.68782901072893,-27.570113621755816 420,-26.087781105852454 C421.68782901072893,-25.00571414994911 422.1720987415289,-38.92245509753553 425,-42.0821692338928 C426.1720987415289,-43.39179663043689 428.6442061868516,-36.20787627043504 430,-37.26113493810584 C432.6442061868516,-39.31530649310275 432.1179913570127,-46.68830541737856 435,-49.850744790562096 C436.1179913570127,-51.077521085941676 439.39114888075864,-46.576801800822004 440,-48.23417410951363 C443.39114888075864,-57.465324504085174 441.9777547409423,-70.78673586695314 445,-77.07205154872003 C445.9777547409423,-79.1054726245737 447.8722088670132,-72.16000610375657 450,-69.03101600356503 C451.8722088670132,-66.27786842269683 453.40174172548484,-65.26633516595207 455,-62.36670734607067 C457.40174172548484,-58.0093658359831 458.13510055878913,-55.534359570062094 460,-50.888592678642596 C462.13510055878913,-45.569710991685156 462.92849089703066,-37.67496102051403 465,-37.455085900128324 C466.92849089703066,-37.250391087279304 467.2782435128443,-45.431449114192446 470,-49.82716784555578 C471.2782435128443,-51.89156963137652 474.3029671547062,-51.30162308749567 475,-53.605387193088504 C478.3029671547062,-64.52202795735121 476.6488430782948,-72.11698926561766 480,-82.87818002019462 C480.6488430782948,-84.9617363258076 482.86127350972384,-85.0678083177723 485,-85.71725484356337 C486.86127350972384,-86.28244988834021 489.4408776480409,-87.60267309967571 490,-85.91478394661436 C493.4408776480409,-75.52739728823948 493.04601795908786,-67.69075035482882 495,-55.5290653149728 Q497.04601795908786,-42.794543971726284 500,-23.674267988858013"
            class="spline"/>
   </g>
</svg>
