<?xml version="1.0" encoding="UTF-8"?>
<svg xmlns="http://www.w3.org/2000/svg" viewBox="-10 -110 220 120">
   <style type="text/css">
                #small .spline {
                    stroke: fuchsia;
                    stroke-width: 0.5;
                    stroke-opacity: 0.5;
                    fill: none;
                }
                #mid .spline {
                    stroke: orange;
                    stroke-width: 0.5;
                    stroke-opacity: 0.5;
                    fill: none;
                }
                #default .spline {
                    stroke: green;
                    stroke-width: 0.5;
                    stroke-opacity: 0.5;
                    fill: none;
                }
                .regression {
                    stroke: red;
                    stroke-width: 0.5;
                    stroke-opacity: 0.5;
                    fill: none;
                }</style>
   <circle cx="5" cy="-51.27707837741593" r="0.5" fill="black"/>
   <circle cx="10" cy="-39.31430291307554" r="0.5" fill="black"/>
   <circle cx="15" cy="-53.8873831128374" r="0.5" fill="black"/>
   <circle cx="20" cy="-82.74923978140686" r="0.5" fill="black"/>
   <circle cx="25" cy="-50.21300678589429" r="0.5" fill="black"/>
   <circle cx="30" cy="-39.44755143616666" r="0.5" fill="black"/>
   <circle cx="35" cy="-31.431326171186523" r="0.5" fill="black"/>
   <circle cx="40" cy="-52.00955443783598" r="0.5" fill="black"/>
   <circle cx="45" cy="-61.72316527965527" r="0.5" fill="black"/>
   <circle cx="50" cy="-27.586599102242204" r="0.5" fill="black"/>
   <circle cx="55" cy="-57.16058220438055" r="0.5" fill="black"/>
   <circle cx="60" cy="-68.70722686792075" r="0.5" fill="black"/>
   <circle cx="65" cy="-72.86273557439135" r="0.5" fill="black"/>
   <circle cx="70" cy="-30.354536590181013" r="0.5" fill="black"/>
   <circle cx="75" cy="-5.364468982828963" r="0.5" fill="black"/>
   <circle cx="80" cy="-15.905245969392345" r="0.5" fill="black"/>
   <circle cx="85" cy="-35.12858081862083" r="0.5" fill="black"/>
   <circle cx="90" cy="-56.80892412648802" r="0.5" fill="black"/>
   <circle cx="95" cy="-1.6392276867948419" r="0.5" fill="black"/>
   <circle cx="100" cy="-13.098497298133038" r="0.5" fill="black"/>
   <circle cx="105" cy="-41.4468500827189" r="0.5" fill="black"/>
   <circle cx="110" cy="-44.03049713509141" r="0.5" fill="black"/>
   <circle cx="115" cy="-3.813585257836094" r="0.5" fill="black"/>
   <circle cx="120" cy="-48.58879469638825" r="0.5" fill="black"/>
   <circle cx="125" cy="-1.2392326474341409" r="0.5" fill="black"/>
   <circle cx="130" cy="-20.1423757780274" r="0.5" fill="black"/>
   <circle cx="135" cy="-86.20262620908095" r="0.5" fill="black"/>
   <circle cx="140" cy="-62.1446316558115" r="0.5" fill="black"/>
   <circle cx="145" cy="-86.14769817788414" r="0.5" fill="black"/>
   <circle cx="150" cy="-49.77084871031509" r="0.5" fill="black"/>
   <circle cx="155" cy="-32.43584705843736" r="0.5" fill="black"/>
   <circle cx="160" cy="-62.46137025783061" r="0.5" fill="black"/>
   <circle cx="165" cy="-94.72993292579119" r="0.5" fill="black"/>
   <circle cx="170" cy="-1.0658927265968288" r="0.5" fill="black"/>
   <circle cx="175" cy="-70.5396562384071" r="0.5" fill="black"/>
   <circle cx="180" cy="-62.16549706164399" r="0.5" fill="black"/>
   <circle cx="185" cy="-54.2407104907271" r="0.5" fill="black"/>
   <circle cx="190" cy="-63.97568410698945" r="0.5" fill="black"/>
   <circle cx="195" cy="-97.21131547026742" r="0.5" fill="black"/>
   <circle cx="200" cy="-63.83639803347791" r="0.5" fill="black"/>
   <polyline points="5,-51.27707837741593 10,-39.31430291307554 15,-53.8873831128374 20,-82.74923978140686 25,-50.21300678589429 30,-39.44755143616666 35,-31.431326171186523 40,-52.00955443783598 45,-61.72316527965527 50,-27.586599102242204 55,-57.16058220438055 60,-68.70722686792075 65,-72.86273557439135 70,-30.354536590181013 75,-5.364468982828963 80,-15.905245969392345 85,-35.12858081862083 90,-56.80892412648802 95,-1.6392276867948419 100,-13.098497298133038 105,-41.4468500827189 110,-44.03049713509141 115,-3.813585257836094 120,-48.58879469638825 125,-1.2392326474341409 130,-20.1423757780274 135,-86.20262620908095 140,-62.1446316558115 145,-86.14769817788414 150,-49.77084871031509 155,-32.43584705843736 160,-62.46137025783061 165,-94.72993292579119 170,-1.0658927265968288 175,-70.5396562384071 180,-62.16549706164399 185,-54.2407104907271 190,-63.97568410698945 195,-97.21131547026742 200,-63.83639803347791"
             stroke="black"
             stroke-width="0.5"
             fill="none"/>
   <circle cx="5" cy="-48.068235518235284" r="0.5" fill="blue"/>
   <circle cx="10" cy="-48.10042432571856" r="0.5" fill="blue"/>
   <circle cx="15" cy="-58.61845063454143" r="0.5" fill="blue"/>
   <circle cx="20" cy="-62.42010183607434" r="0.5" fill="blue"/>
   <circle cx="25" cy="-57.42139298096566" r="0.5" fill="blue"/>
   <circle cx="30" cy="-40.357831836453855" r="0.5" fill="blue"/>
   <circle cx="35" cy="-40.8990570647091" r="0.5" fill="blue"/>
   <circle cx="40" cy="-48.4122388281641" r="0.5" fill="blue"/>
   <circle cx="45" cy="-47.20420707707269" r="0.5" fill="blue"/>
   <circle cx="50" cy="-48.68140110606722" r="0.5" fill="blue"/>
   <circle cx="55" cy="-51.191662781797135" r="0.5" fill="blue"/>
   <circle cx="60" cy="-66.2599940099272" r="0.5" fill="blue"/>
   <circle cx="65" cy="-57.41220680591277" r="0.5" fill="blue"/>
   <circle cx="70" cy="-36.154855643315095" r="0.5" fill="blue"/>
   <circle cx="75" cy="-17.128864992798505" r="0.5" fill="blue"/>
   <circle cx="80" cy="-18.780073467677006" r="0.5" fill="blue"/>
   <circle cx="85" cy="-35.94210554165036" r="0.5" fill="blue"/>
   <circle cx="90" cy="-31.36358750966513" r="0.5" fill="blue"/>
   <circle cx="95" cy="-23.700328437925926" r="0.5" fill="blue"/>
   <circle cx="100" cy="-18.690536129921004" r="0.5" fill="blue"/>
   <circle cx="105" cy="-32.91605930703336" r="0.5" fill="blue"/>
   <circle cx="110" cy="-29.859071421715406" r="0.5" fill="blue"/>
   <circle cx="115" cy="-31.95479564318561" r="0.5" fill="blue"/>
   <circle cx="120" cy="-18.085937066807126" r="0.5" fill="blue"/>
   <circle cx="125" cy="-23.175752011722757" r="0.5" fill="blue"/>
   <circle cx="130" cy="-35.75627100927795" r="0.5" fill="blue"/>
   <circle cx="135" cy="-56.364137036195324" r="0.5" fill="blue"/>
   <circle cx="140" cy="-78.05782937491334" r="0.5" fill="blue"/>
   <circle cx="145" cy="-66.1556813578708" r="0.5" fill="blue"/>
   <circle cx="150" cy="-56.07567599561211" r="0.5" fill="blue"/>
   <circle cx="155" cy="-48.11709460428852" r="0.5" fill="blue"/>
   <circle cx="160" cy="-63.20404904511552" r="0.5" fill="blue"/>
   <circle cx="165" cy="-53.03317542880944" r="0.5" fill="blue"/>
   <circle cx="170" cy="-55.08143187259277" r="0.5" fill="blue"/>
   <circle cx="175" cy="-44.76391683426402" r="0.5" fill="blue"/>
   <circle cx="180" cy="-62.31428601815846" r="0.5" fill="blue"/>
   <circle cx="185" cy="-60.08792337456178" r="0.5" fill="blue"/>
   <circle cx="190" cy="-71.75684009667835" r="0.5" fill="blue"/>
   <circle cx="195" cy="-75.15631274005958" r="0.5" fill="blue"/>
   <circle cx="200" cy="-75.14851084995571" r="0.5" fill="blue"/>
   <polyline points="5,-48.068235518235284 10,-48.10042432571856 15,-58.61845063454143 20,-62.42010183607434 25,-57.42139298096566 30,-40.357831836453855 35,-40.8990570647091 40,-48.4122388281641 45,-47.20420707707269 50,-48.68140110606722 55,-51.191662781797135 60,-66.2599940099272 65,-57.41220680591277 70,-36.154855643315095 75,-17.128864992798505 80,-18.780073467677006 85,-35.94210554165036 90,-31.36358750966513 95,-23.700328437925926 100,-18.690536129921004 105,-32.91605930703336 110,-29.859071421715406 115,-31.95479564318561 120,-18.085937066807126 125,-23.175752011722757 130,-35.75627100927795 135,-56.364137036195324 140,-78.05782937491334 145,-66.1556813578708 150,-56.07567599561211 155,-48.11709460428852 160,-63.20404904511552 165,-53.03317542880944 170,-55.08143187259277 175,-44.76391683426402 180,-62.31428601815846 185,-60.08792337456178 190,-71.75684009667835 195,-75.15631274005958 200,-75.14851084995571"
             stroke="blue"
             stroke-width="0.5"
             fill="none"
             stroke-opacity="0.5"/>
   <g id="small">
      <g>
         <path d="M5,-48.068235518235284 Q8.798491374659678,-46.8328068795748 10,-48.10042432571856 C12.798491374659678,-51.05289292609726 12.4014813110417,-54.8974556714899 15,-58.61845063454143 C16.4014813110417,-60.62532667563221 18.118195133902862,-62.64536472782411 20,-62.42010183607434 C22.118195133902866,-62.1665416663938 23.86200127756944,-59.93207648831427 25,-57.42139298096566 C27.862001277569444,-51.10716848846608 26.881920966805822,-45.50962675644093 30,-40.357831836453855 C30.881920966805822,-38.9006923899383 33.56861048687183,-39.74615769446907 35,-40.8990570647091 C37.56861048687183,-42.96792049115317 37.45217543025052,-46.80579721641848 40,-48.4122388281641 C41.45217543025052,-49.327857221363914 43.01347454981081,-47.15073730554414 45,-47.20420707707269 C47.01347454981081,-47.25840221670539 48.07052300571134,-47.91203070126613 50,-48.68140110606722 C52.07052300571134,-49.50701298315591 53.95770702627548,-49.35945839463143 55,-51.191662781797135 C57.95770702627547,-56.39089555617542 57.56116812829906,-64.742907907394 60,-66.2599940099272 C61.56116812829906,-67.23112551704025 63.729657109193134,-61.23659165599103 65,-57.41220680591277 C67.72965710919314,-49.19453630934619 67.89566488032742,-44.63182073482623 70,-36.154855643315095 C71.89566488032742,-28.518484009580522 71.84460285014293,-22.61129880843807 75,-17.128864992798505 C75.84460285014293,-15.661385938182837 79.08982990376451,-17.06774857159201 80,-18.780073467677006 C83.08982990376451,-24.593044791132755 82.09990677076162,-32.292769154330784 85,-35.94210554165036 C86.09990677076162,-37.326174771126034 88.29762881499953,-33.44759236912303 90,-31.36358750966513 C92.29762881499953,-28.55088152763326 92.74462040073256,-26.55858259216023 95,-23.700328437925926 C96.74462040073256,-21.48936204026258 98.72218972819418,-17.51294057324666 100,-18.690536129921004 C102.72218972819418,-21.19923292088963 102.11952664847237,-29.6989924786724 105,-32.91605930703336 C106.11952664847237,-34.166406595390164 107.92217083709386,-30.05880558911389 110,-29.859071421715406 C111.92217083709386,-29.674300123574792 113.92453411286687,-33.2209560815195 115,-31.95479564318561 C117.92453411286687,-28.511702339556194 117.30451132822166,-20.452318332572705 120,-18.085937066807126 C121.30451132822168,-16.940700879987567 123.61945346928692,-20.736280189640794 125,-23.175752011722757 C127.61945346928692,-27.804413766629125 128.44140979120846,-30.583561814803232 130,-35.75627100927795 C132.44140979120846,-43.85891582459226 133.04861871108014,-48.10949008751011 135,-56.364137036195324 C137.04861871108014,-65.03011343376427 137.46817549627596,-75.57878219062155 140,-78.05782937491334 C141.46817549627596,-79.49539991929174 142.86277661032938,-70.85375859362775 145,-66.1556813578708 C146.8627766103294,-62.06089724190725 147.82053302199202,-60.0071264115486 150,-56.07567599561211 C151.82053302199202,-52.791691710115686 153.51358675142907,-47.057523790134745 155,-48.11709460428852 C157.51358675142907,-49.90887300993611 157.66500778368402,-62.05614799911186 160,-63.20404904511552 C161.66500778368402,-64.02258032892023 162.29135880974553,-55.23330097342577 165,-53.03317542880944 C166.29135880974553,-51.98425410441668 168.71872968242806,-56.140947431144546 170,-55.08143187259277 C172.71872968242806,-52.83324399332638 173.45658713501788,-43.6475888203835 175,-44.76391683426402 C177.45658713501788,-46.54073047860977 176.92290275368663,-57.59894018539464 180,-62.31428601815846 C180.92290275368663,-63.72854280151375 183.79498414290418,-58.95008063495166 185,-60.08792337456178 C187.79498414290418,-62.727102266359616 187.29045861296532,-67.67399763450139 190,-71.75684009667835 C191.29045861296532,-73.70135338070051 192.81058022870585,-74.41373363956502 195,-75.15631274005958 Q196.81058022870585,-75.77040194087597 200,-75.14851084995571"
               class="spline"/>
      </g>
   </g>
   <g id="mid">
      <g>
         <path d="M5,-51.48825946388005 Q7.9999848459889815,-51.459387994310546 10,-51.44327539810085 C11.999984845988982,-51.42716304605977 12.999976379466133,-51.41665413327715 15,-51.40769709325309 C16.999976379466133,-51.3987402647966 18.000024132882714,-51.39314475773163 20,-51.39849072689949 C22.000024132882714,-51.40383682508255 23.000173617788235,-51.407268049306474 25,-51.43442726163038 C27.000173617788235,-51.46159118968603 28.000451882685137,-51.47823288780422 30,-51.534298577848396 C32.00045188268514,-51.590389608732686 33.01020531360375,-51.826301600818105 35,-51.71481906395155 C37.01020531360375,-51.60219297769486 38.04252746041618,-51.44759138060132 40,-50.97402702004029 C42.04252746041618,-50.4798856253794 43.045034897434505,-50.079642710862295 45,-49.295554675896774 C47.045034897434505,-48.475341879227884 48.04084031596348,-47.97539817654792 50,-46.96327494095426 C52.04084031596348,-45.90895460108938 52.86435929559493,-44.823242302103765 55,-44.12944573725043 C56.86435929559493,-43.523779216534585 58.111942043608565,-44.2741455404744 60,-43.71461722703131 C62.111942043608565,-43.088740587095764 62.9770256277172,-42.13753834757109 65,-41.16593335380385 C66.9770256277172,-40.21639686979579 67.9856326202799,-39.78009066497533 70,-38.911763532593056 C71.9856326202799,-38.05582300432063 72.99769289882636,-37.67220924781632 75,-36.855264202167106 C76.99769289882636,-36.0402017597135 78.01175092978137,-35.669062098019 80,-34.83174481233599 C82.01175092978137,-33.984530118148015 82.94876983039032,-33.37433787525737 85,-32.64393425248964 C86.94876983039032,-31.95001478643168 88.15718866407094,-32.15806870549067 90,-31.270937090271776 C92.15718866407094,-30.2324638474727 92.91677919445003,-29.065014804152938 95,-27.829922107444713 C96.91677919445003,-26.69350873351889 98.01472012358786,-25.306292311895 100,-25.34217191368666 C102.01472012358786,-25.37858358370601 103.04164325583471,-26.87154260237582 105,-28.010650286972233 C107.04164325583471,-29.19820282501455 108.0906431190477,-29.773839757646222 110,-31.158822470283486 C112.0906431190477,-32.675304070481225 112.83247834481718,-33.8938702311889 115,-35.26431106905974 C116.83247834481718,-36.422916867643835 117.92452335655054,-36.844892489858786 120,-37.481439061420815 C121.92452335655054,-38.07168841371767 123.27705786320908,-37.415741899958945 125,-38.331300878706955 C127.27705786320908,-39.541312943112594 128.08684858524478,-40.92076268979294 130,-42.79536666930495 C132.08684858524478,-44.84016805426978 132.62462612935352,-46.88089158508232 135,-48.129814289899066 C136.62462612935352,-48.98400927994328 138.10323959099588,-47.613014498627244 140,-48.05316090645735 C142.10323959099588,-48.54122115190973 143.0888725542305,-49.337614351205914 145,-50.45033092310527 C147.0888725542305,-51.66653610754923 147.82032027911362,-52.95751002448632 150,-53.87546529731562 C151.82032027911362,-54.642079117886894 153.1242138813495,-53.98859659599979 155,-54.6617536566067 C157.1242138813495,-55.42406315354357 158.03139312564613,-56.29047439066216 160,-57.46413169117507 C162.03139312564613,-58.675221321708264 162.84359456289278,-60.10501559823066 165,-60.623620984221965 C166.84359456289278,-61.066996823221466 167.99368238569235,-59.92049806830316 170,-59.86908475365209 C171.99368238569235,-59.81799522571348 173.00253787512267,-60.14522841705605 175,-60.36736387774777 C177.00253787512267,-60.59006380677411 178.00249765078323,-60.71677805668865 180,-60.98117322794723 C182.00249765078323,-61.2462295917264 183.0021092119766,-61.392926483988795 185,-61.690992715342134 C187.0021092119766,-61.98968829527525 188.0014639826172,-62.15115496434628 190,-62.47307775616337 C192.0014639826172,-62.795472182584184 193.00069623962017,-62.966155140524215 195,-63.3017857609369 Q197.00069623962017,-63.63765014206199 200,-64.15181526000782"
               class="spline"/>
      </g>
   </g>
   <g id="default">
      <g>
         <path d="M5,-51.15958985185431 Q8.000631526538726,-51.04546793983981 10,-50.9478319834999 C12.000631526538726,-50.85013434798641 13.000929803506375,-50.796703959245654 15,-50.67125587222082 C17.000929803506374,-50.54569108887247 18.001379896596532,-50.4781546232597 20,-50.320299807566954 C22.001379896596532,-50.16222701816069 23.002074039150003,-50.07805920252153 25,-49.881436859473304 C27.002074039150003,-49.68440629064971 28.0031225039193,-49.579865516150896 30,-49.33616752788742 C32.0031225039193,-49.09170740181131 33.00460840261536,-48.96168551504413 35,-48.66104157362435 C37.00460840261536,-48.35900894406161 38.00649385246946,-48.19730775015291 40,-47.829476100431116 C42.00649385246946,-47.459248025225655 43.00849688425967,-47.25948685200207 45,-46.815892261306224 C47.00849688425967,-46.368512417285324 48.01002525041651,-46.12569341472978 50,-45.60204001363925 C52.01002525041651,-45.073110408437586 53.01028867732535,-44.785543845476894 55,-44.184434745575736 C57.01028867732535,-43.57710904782369 58.00862301235202,-43.24808980495046 60,-42.58095301950623 C62.00862301235202,-41.90803859499411 63.004876359472874,-41.54662411165969 65,-40.83430672068487 C67.00487635947287,-40.118507324297845 67.99670185408705,-39.73094610828818 70,-39.01066105110163 C71.99670185408705,-38.29274768803596 72.9855806368012,-37.903851196365004 75,-37.23881067005432 C76.9855806368012,-36.58329096256218 77.9903007314077,-36.287351214507105 80,-35.709260466594564 C81.9903007314077,-35.13674971517439 82.98695234578452,-34.846837957155735 85,-34.36230692172253 C86.98695234578452,-33.884056903426455 87.98251808474174,-33.61206599906616 90,-33.30230783227136 C91.98251808474174,-32.99791790791929 92.99589885601324,-32.8939253526761 95,-32.82693669385533 C96.99589885601324,-32.76022220296878 98.00435995734222,-32.84231880695819 100,-32.96804995800304 C102.00435995734222,-33.09433048913992 103.01850661269535,-33.143864153766366 105,-33.45696589930966 C107.01850661269535,-33.77591621621446 108.02280885226827,-34.02527767133421 110,-34.54818011412327 C112.02280885226827,-35.08314694894845 113.02810708421177,-35.40100943955478 115,-36.10163909334526 C117.02810708421177,-36.82224210017402 118.01724670220965,-37.26071006883278 120,-38.10126176567138 C122.01724670220965,-38.95643630522405 123.01875283868242,-39.40534724460096 125,-40.34095468432344 C127.01875283868243,-41.294273488614415 128.00019525740376,-41.83013524485287 130,-42.82357737570501 C132.00019525740376,-43.81721350242796 132.99534421261575,-44.32410113202214 135,-45.30865032826117 C136.99534421261575,-46.28862631871008 137.98595202760913,-46.794489034181375 140,-47.73489034242484 C141.98595202760913,-48.66217306382664 142.98345796669264,-49.11955430669438 145,-49.97786040237435 C146.98345796669264,-50.822084839662736 147.983938270298,-51.22834268503255 150,-51.99121667484572 C151.983938270298,-52.741935207670096 152.98649737406953,-53.094340854791845 155,-53.76184170896821 C156.98649737406953,-54.42038999042266 157.98989819850976,-54.72338410458344 160,-55.306339513922765 C161.98989819850976,-55.88343561820756 162.9931385223617,-56.146433250220795 165,-56.66197049302851 C166.9931385223617,-57.17398248279545 167.99570386874774,-57.40836166706041 170,-57.8752125953594 C171.99570386874774,-58.34006216983454 172.99747960097199,-58.55642660911141 175,-58.991221749963834 C176.99747960097199,-59.42492241282649 177.99854972784712,-59.63135270868822 180,-60.046452104647095 C181.99854972784712,-60.460949929732074 182.99905952701224,-60.66238123365706 185,-61.06521480257348 C186.99905952701224,-61.46766969546705 187.99916476843265,-61.66613641300887 190,-62.059673259172094 C191.99916476843265,-62.45288154814915 192.999018223627,-62.64823393451064 195,-63.03207764042418 Q196.999018223627,-63.41554468255612 200,-63.97795012928579"
               class="spline"/>
      </g>
   </g>
   <g>
      <line x1="5"
            y1="-38.82121230416898"
            x2="200"
            y2="-55.407075039332184"
            class="regression"/>
   </g>
</svg>
