<?xml version="1.0" encoding="UTF-8"?>
<svg xmlns="http://www.w3.org/2000/svg" viewBox="-10 -110 220 120">
   <style type="text/css">
                #small .spline {
                    stroke: fuchsia;
                    stroke-width: 0.5;
                    stroke-opacity: 0.5;
                    fill: none;
                }
                #mid .spline {
                    stroke: orange;
                    stroke-width: 0.5;
                    stroke-opacity: 0.5;
                    fill: none;
                }
                #default .spline {
                    stroke: green;
                    stroke-width: 0.5;
                    stroke-opacity: 0.5;
                    fill: none;
                }
                .regression {
                    stroke: red;
                    stroke-width: 0.5;
                    stroke-opacity: 0.5;
                    fill: none;
                }</style>
   <circle cx="5" cy="-38.2280753255964" r="0.5" fill="black"/>
   <circle cx="10" cy="-77.81502101713694" r="0.5" fill="black"/>
   <circle cx="15" cy="-78.22398498869234" r="0.5" fill="black"/>
   <circle cx="20" cy="-32.667767794776736" r="0.5" fill="black"/>
   <circle cx="25" cy="-70.98744806078521" r="0.5" fill="black"/>
   <circle cx="30" cy="-74.8121742427014" r="0.5" fill="black"/>
   <circle cx="35" cy="-92.64338348171212" r="0.5" fill="black"/>
   <circle cx="40" cy="-57.24313855789448" r="0.5" fill="black"/>
   <circle cx="45" cy="-1.4951286841236033" r="0.5" fill="black"/>
   <circle cx="50" cy="-75.810101009011" r="0.5" fill="black"/>
   <circle cx="55" cy="-4.2347072517947115" r="0.5" fill="black"/>
   <circle cx="60" cy="-96.24208188920932" r="0.5" fill="black"/>
   <circle cx="65" cy="-21.71313772935185" r="0.5" fill="black"/>
   <circle cx="70" cy="-66.83617274005191" r="0.5" fill="black"/>
   <circle cx="75" cy="-99.01077824251963" r="0.5" fill="black"/>
   <circle cx="80" cy="-41.9860747092186" r="0.5" fill="black"/>
   <circle cx="85" cy="-97.95836935885286" r="0.5" fill="black"/>
   <circle cx="90" cy="-42.51077876238095" r="0.5" fill="black"/>
   <circle cx="95" cy="-62.76664856322534" r="0.5" fill="black"/>
   <circle cx="100" cy="-53.59937428866779" r="0.5" fill="black"/>
   <circle cx="105" cy="-25.11847242459987" r="0.5" fill="black"/>
   <circle cx="110" cy="-21.991606353788196" r="0.5" fill="black"/>
   <circle cx="115" cy="-61.9270214315414" r="0.5" fill="black"/>
   <circle cx="120" cy="-83.14730713476919" r="0.5" fill="black"/>
   <circle cx="125" cy="-40.03871659845514" r="0.5" fill="black"/>
   <circle cx="130" cy="-81.82098330823378" r="0.5" fill="black"/>
   <circle cx="135" cy="-7.870711148585285" r="0.5" fill="black"/>
   <circle cx="140" cy="-31.33404088132995" r="0.5" fill="black"/>
   <circle cx="145" cy="-56.237172003640936" r="0.5" fill="black"/>
   <circle cx="150" cy="-37.860898558261944" r="0.5" fill="black"/>
   <circle cx="155" cy="-54.192352493672324" r="0.5" fill="black"/>
   <circle cx="160" cy="-9.916828929264742" r="0.5" fill="black"/>
   <circle cx="165" cy="-27.42124233395453" r="0.5" fill="black"/>
   <circle cx="170" cy="-13.91457908212137" r="0.5" fill="black"/>
   <circle cx="175" cy="-82.65714086691668" r="0.5" fill="black"/>
   <circle cx="180" cy="-17.583660600511074" r="0.5" fill="black"/>
   <circle cx="185" cy="-81.86925643315703" r="0.5" fill="black"/>
   <circle cx="190" cy="-80.21273781981425" r="0.5" fill="black"/>
   <circle cx="195" cy="-72.74448648117598" r="0.5" fill="black"/>
   <circle cx="200" cy="-93.1861736375996" r="0.5" fill="black"/>
   <polyline points="5,-38.2280753255964 10,-77.81502101713694 15,-78.22398498869234 20,-32.667767794776736 25,-70.98744806078521 30,-74.8121742427014 35,-92.64338348171212 40,-57.24313855789448 45,-1.4951286841236033 50,-75.810101009011 55,-4.2347072517947115 60,-96.24208188920932 65,-21.71313772935185 70,-66.83617274005191 75,-99.01077824251963 80,-41.9860747092186 85,-97.95836935885286 90,-42.51077876238095 95,-62.76664856322534 100,-53.59937428866779 105,-25.11847242459987 110,-21.991606353788196 115,-61.9270214315414 120,-83.14730713476919 125,-40.03871659845514 130,-81.82098330823378 135,-7.870711148585285 140,-31.33404088132995 145,-56.237172003640936 150,-37.860898558261944 155,-54.192352493672324 160,-9.916828929264742 165,-27.42124233395453 170,-13.91457908212137 175,-82.65714086691668 180,-17.583660600511074 185,-81.86925643315703 190,-80.21273781981425 195,-72.74448648117598 200,-93.1861736375996"
             stroke="black"
             stroke-width="0.5"
             fill="none"/>
   <circle cx="5" cy="-64.30996762184422" r="0.5" fill="blue"/>
   <circle cx="10" cy="-64.84304421520689" r="0.5" fill="blue"/>
   <circle cx="15" cy="-63.0047409746281" r="0.5" fill="blue"/>
   <circle cx="20" cy="-60.439392271700186" r="0.5" fill="blue"/>
   <circle cx="25" cy="-59.5660392868302" r="0.5" fill="blue"/>
   <circle cx="30" cy="-79.44977335619971" r="0.5" fill="blue"/>
   <circle cx="35" cy="-75.01824920428783" r="0.5" fill="blue"/>
   <circle cx="40" cy="-50.505917207687084" r="0.5" fill="blue"/>
   <circle cx="45" cy="-44.55947028113318" r="0.5" fill="blue"/>
   <circle cx="50" cy="-27.50525320015225" r="0.5" fill="blue"/>
   <circle cx="55" cy="-58.397575874712985" r="0.5" fill="blue"/>
   <circle cx="60" cy="-41.10128164183351" r="0.5" fill="blue"/>
   <circle cx="65" cy="-61.330357146087" r="0.5" fill="blue"/>
   <circle cx="70" cy="-62.54889912798284" r="0.5" fill="blue"/>
   <circle cx="75" cy="-69.47655221142378" r="0.5" fill="blue"/>
   <circle cx="80" cy="-79.39980494149981" r="0.5" fill="blue"/>
   <circle cx="85" cy="-61.06682713964468" r="0.5" fill="blue"/>
   <circle cx="90" cy="-67.5764786526557" r="0.5" fill="blue"/>
   <circle cx="95" cy="-53.02453512017214" r="0.5" fill="blue"/>
   <circle cx="100" cy="-47.204559700134666" r="0.5" fill="blue"/>
   <circle cx="105" cy="-33.51328884204826" r="0.5" fill="blue"/>
   <circle cx="110" cy="-36.249689276227855" r="0.5" fill="blue"/>
   <circle cx="115" cy="-55.73037184845114" r="0.5" fill="blue"/>
   <circle cx="120" cy="-61.847774753602856" r="0.5" fill="blue"/>
   <circle cx="125" cy="-68.14639807022769" r="0.5" fill="blue"/>
   <circle cx="130" cy="-43.50150528681091" r="0.5" fill="blue"/>
   <circle cx="135" cy="-40.12472037683435" r="0.5" fill="blue"/>
   <circle cx="140" cy="-31.810764525705775" r="0.5" fill="blue"/>
   <circle cx="145" cy="-41.90719870215681" r="0.5" fill="blue"/>
   <circle cx="150" cy="-49.35275736939733" r="0.5" fill="blue"/>
   <circle cx="155" cy="-34.1251547553649" r="0.5" fill="blue"/>
   <circle cx="160" cy="-30.37239795055061" r="0.5" fill="blue"/>
   <circle cx="165" cy="-17.15335845299174" r="0.5" fill="blue"/>
   <circle cx="170" cy="-41.147606213981334" r="0.5" fill="blue"/>
   <circle cx="175" cy="-38.35014706563075" r="0.5" fill="blue"/>
   <circle cx="180" cy="-60.41493624583131" r="0.5" fill="blue"/>
   <circle cx="185" cy="-60.035574826551105" r="0.5" fill="blue"/>
   <circle cx="190" cy="-78.28845130014666" r="0.5" fill="blue"/>
   <circle cx="195" cy="-81.98557187676573" r="0.5" fill="blue"/>
   <circle cx="200" cy="-82.15984508354056" r="0.5" fill="blue"/>
   <polyline points="5,-64.30996762184422 10,-64.84304421520689 15,-63.0047409746281 20,-60.439392271700186 25,-59.5660392868302 30,-79.44977335619971 35,-75.01824920428783 40,-50.505917207687084 45,-44.55947028113318 50,-27.50525320015225 55,-58.397575874712985 60,-41.10128164183351 65,-61.330357146087 70,-62.54889912798284 75,-69.47655221142378 80,-79.39980494149981 85,-61.06682713964468 90,-67.5764786526557 95,-53.02453512017214 100,-47.204559700134666 105,-33.51328884204826 110,-36.249689276227855 115,-55.73037184845114 120,-61.847774753602856 125,-68.14639807022769 130,-43.50150528681091 135,-40.12472037683435 140,-31.810764525705775 145,-41.90719870215681 150,-49.35275736939733 155,-34.1251547553649 160,-30.37239795055061 165,-17.15335845299174 170,-41.147606213981334 175,-38.35014706563075 180,-60.41493624583131 185,-60.035574826551105 190,-78.28845130014666 195,-81.98557187676573 200,-82.15984508354056"
             stroke="blue"
             stroke-width="0.5"
             fill="none"
             stroke-opacity="0.5"/>
   <g id="small">
      <g>
         <path d="M5,-64.30996762184422 Q8.057725734300437,-65.09655502798621 10,-64.84304421520689 C12.057725734300437,-64.57446436909976 13.053434299623929,-63.86194075759056 15,-63.0047409746281 C17.05343429962393,-62.10047998018788 17.898274536681438,-61.16211296150032 20,-60.439392271700186 C21.898274536681438,-59.78663228638116 24.206253610357855,-58.05709715167592 25,-59.5660392868302 C28.206253610357855,-65.66124958547573 26.983109184871104,-74.78801033885756 30,-79.44977335619971 C30.983109184871104,-80.9688943058406 34.15690089713871,-77.45850311950355 35,-75.01824920428783 C38.15690089713871,-65.8809606600985 36.94785840000326,-59.8023678313335 40,-50.505917207687084 C40.94785840000326,-47.618856262071645 43.78327261565061,-47.358024056751894 45,-44.55947028113318 C47.7832726156506,-38.157758453737955 48.551182534397526,-25.500364292669275 50,-27.50525320015225 C52.551182534397526,-31.035606530101198 52.46084546335159,-54.945334144903406 55,-58.397575874712985 C56.46084546335159,-60.38374552157591 58.145889508913335,-40.55751158950181 60,-41.10128164183351 C62.145889508913335,-41.730624098051415 61.79222706325841,-54.45044845312145 65,-61.330357146087 C65.79222706325841,-63.02949544758119 68.49630964331891,-61.32396363164384 70,-62.54889912798284 C72.49630964331891,-64.58244165777855 73.2613228656765,-66.5467237483637 75,-69.47655221142378 C77.2613228656765,-73.2870860737705 78.5240583477635,-80.64103129322945 80,-79.39980494149981 C82.5240583477635,-77.27714126451781 82.20661634492473,-64.36953578003258 85,-61.06682713964468 C86.20661634492473,-59.64020526449493 88.60848844665601,-68.69557287870191 90,-67.5764786526557 C92.60848844665601,-65.4786560709129 92.33094280199944,-58.461916811903144 95,-53.02453512017214 C96.33094280199946,-50.31314923089474 98.6205249941953,-49.89608735741183 100,-47.204559700134666 C102.6205249941953,-42.09158884616228 102.12447275390997,-36.663391680181256 105,-33.51328884204826 C106.12447275390997,-32.28144351061853 109.11671607430497,-34.28729004668909 110,-36.249689276227855 C113.11671607430497,-43.174123249250236 112.12816537961375,-48.37902503949795 115,-55.73037184845114 C116.12816537961375,-58.61825923044795 118.01770493612399,-59.386552004364574 120,-61.847774753602856 C122.01770493612399,-64.3529624930752 124.03076899286104,-69.92457539348183 125,-68.14639807022769 C128.03076899286106,-62.586067606765056 126.77400600233197,-52.541281691158375 130,-43.50150528681091 C130.774006002332,-41.33261061380104 133.4662414540013,-41.91779773197436 135,-40.12472037683435 C137.4662414540013,-37.241501427532306 138.14927602210875,-31.480876988031202 140,-31.810764525705775 C142.14927602210875,-32.19386831816019 142.77286782079625,-38.00036502720205 145,-41.90719870215681 C146.77286782079625,-45.01716216467867 148.56479535028276,-50.469639935071285 150,-49.35275736939733 C152.56479535028276,-47.35682235635453 152.12242358899013,-39.58689820898116 155,-34.1251547553649 C156.1224235889901,-31.994754441442474 158.77326540913884,-32.45438690986769 160,-30.37239795055061 C162.77326540913884,-25.66566838891842 163.5370545545191,-15.577004267682328 165,-17.15335845299174 C167.5370545545191,-19.887087573054618 166.75787814156376,-34.27534904501241 170,-41.147606213981334 C170.75787814156376,-42.75406449006802 174.1917244218398,-36.79281583352107 175,-38.35014706563075 C178.1917244218398,-44.49974784626106 176.72570595550363,-53.31448954883754 180,-60.41493624583131 C180.72570595550363,-61.988660653205685 184.16216592752752,-58.538070835815596 185,-60.035574826551105 C188.16216592752752,-65.68747685754174 186.98925915133677,-71.67987602543477 190,-78.28845130014666 C190.98925915133677,-80.45987484552063 192.78338275624245,-81.12743205500107 195,-81.98557187676573 Q196.78338275624245,-82.67598956835863 200,-82.15984508354056"
               class="spline"/>
      </g>
   </g>
   <g id="mid">
      <g>
         <path d="M5,-60.28241328561066 Q8.001730295716138,-60.17314369806876 10,-60.05251539467589 C12.001730295716138,-59.931678187914116 13.002649506175826,-59.8578156547845 15,-59.67874951022404 C17.00264950617583,-59.49920829946226 18.00343956407419,-59.393962481787234 20,-59.15599700637028 C22.00343956407419,-58.917211623390884 23.003890565960816,-58.78093614829366 25,-58.486872364233164 C27.003890565960816,-58.191662275737585 28.003838818457083,-58.02672097903041 30,-57.68281232498009 C32.00383881845708,-57.33758092915829 32.98402527661894,-56.91346675020579 35,-56.76402223955287 C36.984025276618944,-56.61694614621274 38.00025939832473,-56.863837005599564 40,-56.941510814997464 C42.00025939832473,-57.01920477546498 43.05393960729907,-57.442687945001474 45,-57.15244166421641 C47.05393960729907,-56.84610567679709 48.08938964471533,-55.22277697246111 50,-55.4500551444865 C52.08938964471533,-55.698600148854446 52.86861096474938,-57.89662644968315 55,-58.34199960519975 C56.86861096474939,-58.73246288902044 57.98776096571616,-57.67013818331375 60,-57.53964624282973 C61.98776096571616,-57.41074168367182 63.008101351620404,-57.79384658288671 65,-57.69350835609494 C67.00810135162041,-57.592353947960945 67.99597192198986,-57.26346580405407 70,-57.03591465551532 C71.99597192198986,-56.809278258409115 73.00980554900303,-56.48333582998946 75,-56.55803949198256 C77.00980554900303,-56.6334792734217 78.0136219229279,-57.48003693910521 80,-57.41127326409592 C82.0136219229279,-57.34156647207177 83.08824367124366,-55.95205947901462 85,-56.21186332439895 C87.08824367124366,-56.49565144515884 88.05744516511433,-58.899339519756325 90,-58.77025317945647 C92.05744516511433,-58.63353216547908 92.88901877081214,-55.84208968703984 95,-55.54734493870583 C96.88901877081214,-55.283591592867005 98.1217591418704,-57.65839715762908 100,-57.37400794402439 C102.1217591418704,-57.05274700924951 103.02997739400234,-55.41238442123775 105,-54.03321956775689 C107.02997739400234,-52.61208182718213 107.78629594048402,-51.187745139357006 110,-50.373251458885335 C111.78629594048402,-49.716015118407846 113.14979190328893,-50.90483426621709 115,-50.353894515383985 C117.14979190328893,-49.713747162420596 117.85165567587688,-47.97294108649419 120,-47.395533699394115 C121.85165567587688,-46.89786688983671 123.12007054939076,-48.10871443234171 125,-47.66620902374031 C127.12007054939076,-47.167178230633716 127.93587346570665,-45.94382231049958 130,-45.041693195124125 C131.93587346570666,-44.195617245766385 132.98663804796905,-43.95315743405718 135,-43.29569636190733 C136.98663804796905,-42.64696195045496 137.9907505780293,-41.81131738837996 140,-41.776204486118566 C141.9907505780293,-41.741414862834965 143.11207662584346,-43.41916910000724 145,-43.120940048044844 C147.11207662584346,-42.78730224344981 147.85841531762662,-40.9332594924258 150,-40.196537344724995 C151.85841531762662,-39.55722770855192 153.0751194305042,-39.37801549619719 155,-39.680860588360154 C157.0751194305042,-40.007343044019635 157.93210856380824,-41.17318241597598 160,-41.769856214281106 C161.93210856380824,-42.3273509334567 163.37160902791513,-41.55404287366149 165,-42.566281882061965 C167.37160902791513,-44.040519464979056 167.6910104182707,-46.2634912455421 170,-47.986047692575035 C171.6910104182707,-49.247578243011965 173.01180318772845,-49.182507515471 175,-50.026499375736634 C177.01180318772845,-50.880512169851976 178.0084013820328,-51.33065054325836 180,-52.23105932852747 C182.0084013820328,-53.13906470291095 183.004328389333,-53.61171391073316 185,-54.54753477486811 C187.004328389333,-55.48741502134261 188.0001871548731,-55.97080699422862 190,-56.92031210505112 C192.0001871548731,-57.86999493701281 192.99649209678356,-58.35288367336638 195,-59.29550463182861 Q196.99649209678356,-60.23482475670115 200,-61.62516481338804"
               class="spline"/>
      </g>
   </g>
   <g id="default">
      <g>
         <path d="M5,-60.42140805404802 Q8.000934759284725,-60.347912842486174 10,-60.26246402512531 C12.000934759284725,-60.17693529634008 13.001268471491208,-60.12127986673294 15,-59.993964188682796 C17.00126847149121,-59.86648691183293 18.001270326570804,-59.7884550774979 20,-59.62548163787528 C22.001270326570804,-59.462301037180865 23.000825849685555,-59.366142718508414 25,-59.178579087890206 C27.000825849685555,-58.99086049391842 28.000004768527127,-58.88384579829298 30,-58.687276076400295 C32.00000476852713,-58.49070541715732 32.99910571546203,-58.382780976747995 35,-58.19572813505104 C36.99910571546203,-58.00884249705436 37.99854607930084,-57.911448134041166 40,-57.7524298771662 C41.99854607930084,-57.593642652275356 42.998600690735735,-57.51764310656145 45,-57.40121443063653 C46.998600690735735,-57.28494856052861 47.99916147147519,-57.237953645677074 50,-57.17069351208411 C51.99916147147519,-57.10348975439534 52.99977745722148,-57.08727908832331 55,-57.065054702432185 C56.99977745722148,-57.042835261867374 58.00003775159131,-57.05192020042672 60,-57.05958394594428 C62.00003775159131,-57.06724798078589 62.99997528340092,-57.089394107744155 65,-57.10337415333013 C66.99997528340091,-57.11735385338119 68.00018526091714,-57.14420674639242 70,-57.129483310036875 C72.00018526091714,-57.11475714575131 73.00149231481457,-57.10784625091211 75,-57.029750151727356 C77.00149231481457,-56.95153742155175 78.0034008919641,-56.89782232978172 80,-56.73871123663597 C82.0034008919641,-56.57905810214011 83.00177854633314,-56.45144649968934 85,-56.23283958262333 C87.00177854633314,-56.01384351696717 88.01113451781298,-55.95209580596836 90,-55.64470377983055 C92.01113451781298,-55.33386993017953 93.00525903414578,-55.09592193595695 95,-54.68727489315125 C97.00525903414578,-54.27647309562954 98.00834039848559,-54.06778586641144 100,-53.596081679012016 C102.00834039848559,-53.12042681561632 102.99368339623253,-52.80360976353145 105,-52.31887726616345 C106.99368339623253,-51.837196992072016 108.00450655953415,-51.65453531311702 110,-51.18004975036342 C112.00450655953415,-50.7034210611096 113.00257873630676,-50.44685932999536 115,-49.94109163614489 C117.00257873630676,-49.43401801696097 117.99173629207488,-49.13082555217567 120,-48.647946467777444 C121.99173629207488,-48.169041335306815 123.00473762343749,-48.00149405875031 125,-47.53663109397274 C127.00473762343749,-47.06956055418846 127.98545605153453,-46.73517804137346 130,-46.31811270637283 C131.98545605153453,-45.9070693563913 132.99783638892774,-45.79383181806753 135,-45.46635938151733 C136.99783638892774,-45.139594702300904 137.99284498411973,-44.940300687176936 140,-44.68251991695625 C141.99284498411973,-44.42657699731509 142.995437749861,-44.31150391039575 145,-44.182050156862715 C146.995437749861,-44.05318565956755 148.0009989558256,-44.012450091732795 150,-44.036724289885754 C152.0009989558256,-44.06102274900819 153.00854644083978,-44.109065524856604 155,-44.30348180005119 C157.00854644083978,-44.49956677315399 158.01580938886008,-44.64400327835853 160,-45.01297741062922 C162.01580938886008,-45.38783127592921 163.0204136398943,-45.62745663264722 165,-46.16305179397787 C167.0204136398943,-46.709693148566735 168.0211508218806,-47.03506284342395 170,-47.71856870042802 C172.0211508218806,-48.41668578783377 173.01831272855208,-48.812560081780845 175,-49.617109155002424 C177.01831272855208,-50.436527868854995 178.0131357856957,-50.88472771262977 180,-51.77848816811339 C182.0131357856957,-52.684066487869785 183.00705537010785,-53.165860609411475 185,-54.11545609310246 C187.00705537010785,-55.07177504265365 188.0012324888506,-55.569616874598175 190,-56.543274251218826 C192.0012324888506,-57.51813238966324 192.99639539923814,-58.01680276217514 195,-58.98674488076514 Q196.99639539923814,-59.95319703521921 200,-61.38425993382901"
               class="spline"/>
      </g>
   </g>
   <g>
      <line x1="5"
            y1="-57.92255124754384"
            x2="200"
            y2="-50.65073101912154"
            class="regression"/>
   </g>
</svg>
