<?xml version="1.0" encoding="UTF-8"?>
<svg xmlns="http://www.w3.org/2000/svg" viewBox="-10 -110 220 120">
   <style type="text/css">
                #small .spline {
                    stroke: fuchsia;
                    stroke-width: 0.5;
                    stroke-opacity: 0.5;
                    fill: none;
                }
                #mid .spline {
                    stroke: orange;
                    stroke-width: 0.5;
                    stroke-opacity: 0.5;
                    fill: none;
                }
                #default .spline {
                    stroke: green;
                    stroke-width: 0.5;
                    stroke-opacity: 0.5;
                    fill: none;
                }
                .regression {
                    stroke: red;
                    stroke-width: 0.5;
                    stroke-opacity: 0.5;
                    fill: none;
                }</style>
   <circle cx="5" cy="-25.224161692656544" r="0.5" fill="black"/>
   <circle cx="10" cy="-5.2113899917830775" r="0.5" fill="black"/>
   <circle cx="15" cy="-28.492952989317743" r="0.5" fill="black"/>
   <circle cx="20" cy="-88.01239118559216" r="0.5" fill="black"/>
   <circle cx="25" cy="-45.77752748699648" r="0.5" fill="black"/>
   <circle cx="30" cy="-28.894790817544724" r="0.5" fill="black"/>
   <circle cx="35" cy="-79.5182678008198" r="0.5" fill="black"/>
   <circle cx="40" cy="-12.581059368149837" r="0.5" fill="black"/>
   <circle cx="45" cy="-95.89596660952078" r="0.5" fill="black"/>
   <circle cx="50" cy="-59.48116100931976" r="0.5" fill="black"/>
   <circle cx="55" cy="-55.605279209776604" r="0.5" fill="black"/>
   <circle cx="60" cy="-56.520501023542124" r="0.5" fill="black"/>
   <circle cx="65" cy="-85.51081318716317" r="0.5" fill="black"/>
   <circle cx="70" cy="-41.39313585477468" r="0.5" fill="black"/>
   <circle cx="75" cy="-28.4255146816354" r="0.5" fill="black"/>
   <circle cx="80" cy="-96.35084924037874" r="0.5" fill="black"/>
   <circle cx="85" cy="-78.60414903953645" r="0.5" fill="black"/>
   <circle cx="90" cy="-13.958411737747678" r="0.5" fill="black"/>
   <circle cx="95" cy="-55.148785021582455" r="0.5" fill="black"/>
   <circle cx="100" cy="-21.36848149805384" r="0.5" fill="black"/>
   <circle cx="105" cy="-64.87714702524814" r="0.5" fill="black"/>
   <circle cx="110" cy="-17.154531280086072" r="0.5" fill="black"/>
   <circle cx="115" cy="-59.04422387673838" r="0.5" fill="black"/>
   <circle cx="120" cy="-9.67854268492948" r="0.5" fill="black"/>
   <circle cx="125" cy="-99.58238393959263" r="0.5" fill="black"/>
   <circle cx="130" cy="-40.72488226171124" r="0.5" fill="black"/>
   <circle cx="135" cy="-80.02158961247612" r="0.5" fill="black"/>
   <circle cx="140" cy="-50.26453571021591" r="0.5" fill="black"/>
   <circle cx="145" cy="-80.4974686698139" r="0.5" fill="black"/>
   <circle cx="150" cy="-94.25015797129971" r="0.5" fill="black"/>
   <circle cx="155" cy="-33.20479492984975" r="0.5" fill="black"/>
   <circle cx="160" cy="-82.87355005916184" r="0.5" fill="black"/>
   <circle cx="165" cy="-69.3138399909285" r="0.5" fill="black"/>
   <circle cx="170" cy="-74.34381698557824" r="0.5" fill="black"/>
   <circle cx="175" cy="-38.1268290946985" r="0.5" fill="black"/>
   <circle cx="180" cy="-13.588092469595047" r="0.5" fill="black"/>
   <circle cx="185" cy="-64.22687571298842" r="0.5" fill="black"/>
   <circle cx="190" cy="-53.255370831623026" r="0.5" fill="black"/>
   <circle cx="195" cy="-32.1683373277722" r="0.5" fill="black"/>
   <circle cx="200" cy="-67.41150697946048" r="0.5" fill="black"/>
   <polyline points="5,-25.224161692656544 10,-5.2113899917830775 15,-28.492952989317743 20,-88.01239118559216 25,-45.77752748699648 30,-28.894790817544724 35,-79.5182678008198 40,-12.581059368149837 45,-95.89596660952078 50,-59.48116100931976 55,-55.605279209776604 60,-56.520501023542124 65,-85.51081318716317 70,-41.39313585477468 75,-28.4255146816354 80,-96.35084924037874 85,-78.60414903953645 90,-13.958411737747678 95,-55.148785021582455 100,-21.36848149805384 105,-64.87714702524814 110,-17.154531280086072 115,-59.04422387673838 120,-9.67854268492948 125,-99.58238393959263 130,-40.72488226171124 135,-80.02158961247612 140,-50.26453571021591 145,-80.4974686698139 150,-94.25015797129971 155,-33.20479492984975 160,-82.87355005916184 165,-69.3138399909285 170,-74.34381698557824 175,-38.1268290946985 180,-13.588092469595047 185,-64.22687571298842 190,-53.255370831623026 195,-32.1683373277722 200,-67.41150697946048"
             stroke="black"
             stroke-width="0.5"
             fill="none"/>
   <circle cx="5" cy="-19.506897985852245" r="0.5" fill="blue"/>
   <circle cx="10" cy="-19.54630671558818" r="0.5" fill="blue"/>
   <circle cx="15" cy="-40.49144948638198" r="0.5" fill="blue"/>
   <circle cx="20" cy="-54.32115989371786" r="0.5" fill="blue"/>
   <circle cx="25" cy="-54.171711905482745" r="0.5" fill="blue"/>
   <circle cx="30" cy="-51.246351542343554" r="0.5" fill="blue"/>
   <circle cx="35" cy="-40.593483595902" r="0.5" fill="blue"/>
   <circle cx="40" cy="-62.33009883871369" r="0.5" fill="blue"/>
   <circle cx="45" cy="-56.25300928253963" r="0.5" fill="blue"/>
   <circle cx="50" cy="-70.25492081447554" r="0.5" fill="blue"/>
   <circle cx="55" cy="-57.19163159953689" r="0.5" fill="blue"/>
   <circle cx="60" cy="-65.81626881815107" r="0.5" fill="blue"/>
   <circle cx="65" cy="-61.30448345440373" r="0.5" fill="blue"/>
   <circle cx="70" cy="-51.7070363707493" r="0.5" fill="blue"/>
   <circle cx="75" cy="-55.20947595594102" r="0.5" fill="blue"/>
   <circle cx="80" cy="-67.9845169617411" r="0.5" fill="blue"/>
   <circle cx="85" cy="-63.07570182001068" r="0.5" fill="blue"/>
   <circle cx="90" cy="-49.001145208187744" r="0.5" fill="blue"/>
   <circle cx="95" cy="-30.325712528442235" r="0.5" fill="blue"/>
   <circle cx="100" cy="-46.95914925467374" r="0.5" fill="blue"/>
   <circle cx="105" cy="-34.670127359616124" r="0.5" fill="blue"/>
   <circle cx="110" cy="-46.825502931605335" r="0.5" fill="blue"/>
   <circle cx="115" cy="-28.829227088592862" r="0.5" fill="blue"/>
   <circle cx="120" cy="-55.79120431471283" r="0.5" fill="blue"/>
   <circle cx="125" cy="-50.32694491934947" r="0.5" fill="blue"/>
   <circle cx="130" cy="-73.22410929264048" r="0.5" fill="blue"/>
   <circle cx="135" cy="-57.15763006850302" r="0.5" fill="blue"/>
   <circle cx="140" cy="-70.12744553242224" r="0.5" fill="blue"/>
   <circle cx="145" cy="-75.04079813606525" r="0.5" fill="blue"/>
   <circle cx="150" cy="-69.48424208627691" r="0.5" fill="blue"/>
   <circle cx="155" cy="-69.86265502131677" r="0.5" fill="blue"/>
   <circle cx="160" cy="-61.93836790439023" r="0.5" fill="blue"/>
   <circle cx="165" cy="-75.46895515378661" r="0.5" fill="blue"/>
   <circle cx="170" cy="-60.68679209161402" r="0.5" fill="blue"/>
   <circle cx="175" cy="-41.993541923079945" r="0.5" fill="blue"/>
   <circle cx="180" cy="-38.47965147666139" r="0.5" fill="blue"/>
   <circle cx="185" cy="-43.82747806083952" r="0.5" fill="blue"/>
   <circle cx="190" cy="-49.90608133611018" r="0.5" fill="blue"/>
   <circle cx="195" cy="-50.81947902782855" r="0.5" fill="blue"/>
   <circle cx="200" cy="-51.01195388498385" r="0.5" fill="blue"/>
   <polyline points="5,-19.506897985852245 10,-19.54630671558818 15,-40.49144948638198 20,-54.32115989371786 25,-54.171711905482745 30,-51.246351542343554 35,-40.593483595902 40,-62.33009883871369 45,-56.25300928253963 50,-70.25492081447554 55,-57.19163159953689 60,-65.81626881815107 65,-61.30448345440373 70,-51.7070363707493 75,-55.20947595594102 80,-67.9845169617411 85,-63.07570182001068 90,-49.001145208187744 95,-30.325712528442235 100,-46.95914925467374 105,-34.670127359616124 110,-46.825502931605335 115,-28.829227088592862 120,-55.79120431471283 125,-50.32694491934947 130,-73.22410929264048 135,-57.15763006850302 140,-70.12744553242224 145,-75.04079813606525 150,-69.48424208627691 155,-69.86265502131677 160,-61.93836790439023 165,-75.46895515378661 170,-60.68679209161402 175,-41.993541923079945 180,-38.47965147666139 185,-43.82747806083952 190,-49.90608133611018 195,-50.81947902782855 200,-51.01195388498385"
             stroke="blue"
             stroke-width="0.5"
             fill="none"
             stroke-opacity="0.5"/>
   <g id="small">
      <g>
         <path d="M5,-19.506897985852245 Q9.246221760484291,-17.964536886878577 10,-19.54630671558818 C13.24622176048429,-26.358357487090473 12.623181156913663,-32.22609685644804 15,-40.49144948638198 C16.623181156913663,-46.13603812769991 17.015267241826805,-50.237967155448295 20,-54.32115989371786 C21.015267241826805,-55.7100721230886 23.146486468990254,-54.74163179393615 25,-54.171711905482745 C27.146486468990254,-53.511708453386426 28.68049275088266,-53.03800861080976 30,-51.246351542343554 C32.680492750882664,-47.606717286977464 33.61847324449328,-39.06223425178094 35,-40.593483595902 C37.61847324449328,-43.495733170329 37.04323635205979,-57.69994720929008 40,-62.33009883871369 C41.04323635205979,-63.96375748394513 43.61556847946927,-55.155871948755696 45,-56.25300928253963 C47.61556847946927,-58.32580073906043 47.93897896906675,-70.06146878093207 50,-70.25492081447554 C51.93897896906675,-70.43691770773098 52.66453515889685,-58.2282631674677 55,-57.19163159953689 C56.66453515889685,-56.45280236893792 57.612728232588964,-64.8344193064843 60,-65.81626881815107 C61.612728232588964,-66.47956004843104 63.465592226190225,-63.46941504938197 65,-61.30448345440373 C67.46559222619022,-57.825722070421264 67.44263526789247,-53.26575209259924 70,-51.7070363707493 C71.44263526789247,-50.827749093214166 73.76818385402748,-53.20438961516724 75,-55.20947595594102 C77.76818385402748,-59.715381851563954 77.35231876530293,-65.9017911009225 80,-67.9845169617411 C81.35231876530293,-69.04828144655036 83.72272225331228,-65.50040564980208 85,-63.07570182001068 C87.72272225331228,-57.907056948380735 88.25660589676247,-54.71075902938901 90,-49.001145208187744 C92.25660589676247,-41.610763312761634 92.8929485739169,-30.755971577032994 95,-30.325712528442235 C96.8929485739169,-29.939173195627394 97.73224717108427,-45.97394335233594 100,-46.95914925467374 C101.73224717108427,-47.711709284805494 102.99063295182448,-34.69698181138447 105,-34.670127359616124 C106.99063295182448,-34.64352328215711 108.34783977655582,-47.790513241294235 110,-46.825502931605335 C112.34783977655582,-45.454153132884926 113.37934019094537,-27.376191899434083 115,-28.829227088592862 C117.37934019094537,-30.962472452677083 116.85064469166251,-49.02080913796934 120,-55.79120431471283 C120.85064469166251,-57.61989627027198 124.03945238178453,-48.652431383836976 125,-50.32694491934947 C128.03945238178454,-55.62559337500804 127.67165057154787,-71.63368710634367 130,-73.22410929264048 C131.67165057154787,-74.36596116600509 132.80952749570727,-57.8359457506828 135,-57.15763006850302 C136.80952749570727,-56.5972802465955 137.34097954221505,-65.3722745582568 140,-70.12744553242224 C141.34097954221505,-72.5255417852817 143.0641920877573,-75.16530996808824 145,-75.04079813606525 C147.0641920877573,-74.9080285896301 147.6059532033795,-70.72391377990752 150,-69.48424208627691 C151.6059532033795,-68.65265653400812 153.60560545957838,-70.91484759750989 155,-69.86265502131677 C157.60560545957838,-67.89649792475522 158.42488437571728,-61.05531081108309 160,-61.93836790439023 C162.42488437571728,-63.297830864071024 163.07858973169272,-75.70943421560993 165,-75.46895515378661 C167.07858973169272,-75.20880389049945 168.21430290172324,-66.66448691858284 170,-60.68679209161402 C172.21430290172324,-53.274321626300164 171.96007217512468,-48.74435238971127 175,-41.993541923079945 C175.96007217512468,-39.861496143730214 178.1801459636717,-38.145901868394375 180,-38.47965147666139 C182.1801459636717,-38.8794763234982 183.07235997718146,-41.62487370933928 185,-43.82747806083952 C187.07235997718146,-46.1954456531188 187.56953074478153,-48.2066969978377 190,-49.90608133611018 C191.5695307447815,-51.00349738463331 192.9843271731951,-50.596571303161134 195,-50.81947902782855 Q196.9843271731951,-51.03892032271061 200,-51.01195388498385"
               class="spline"
               fill="none"/>
      </g>
   </g>
   <g id="mid">
      <g>
         <path d="M5,-41.87486952046087 Q8.002313552226482,-42.86452464731458 10,-43.535770441018535 C12.002313552226482,-44.20857099543308 13.00131296829773,-44.55146016192093 15,-45.23498539075712 C17.001312968297732,-45.919408656096195 18.00015191826516,-46.266938024008645 20,-46.95564167645671 C22.00015191826516,-47.64444996351681 22.998918077440006,-47.99267139090721 25,-48.678765239527536 C26.99891807744001,-49.36411718907344 27.99772393802054,-49.7088069563542 30,-50.38425617187227 C31.99772393802054,-51.058169770691244 33.02681334087925,-51.31329529287968 35,-52.05217227537013 C37.02681334087925,-52.811130237333835 37.97140431112031,-53.3752854802419 40,-54.12884353300766 C41.97140431112031,-54.861156828380125 43.11067355525388,-54.873531566978 45,-55.766850645715685 C47.11067355525388,-56.76482797310591 47.83894307835792,-58.160557632342844 50,-58.85708454832742 C51.83894307835792,-59.449791449387 53.01548991485486,-59.141606737848214 55,-58.98993518832608 C57.01548991485486,-58.83589592154659 58.002985378063045,-58.07636240351941 60,-58.092807507573355 C62.002985378063045,-58.109301779873086 63.1301282027322,-59.44030332734061 65,-59.07228362921027 C67.1301282027322,-58.65304144410759 67.88671736864883,-56.459958851614836 70,-56.12465279949081 C71.88671736864883,-55.825294945993015 73.25192693773927,-58.020881310273836 75,-57.485623865155716 C77.25192693773927,-56.796087091602246 77.73480012440614,-54.30609456680037 80,-53.06266725281182 C81.73480012440614,-52.11039020113142 83.14510803790466,-52.77941596733857 85,-51.996362950983354 C87.14510803790466,-51.09079359502388 87.84371427389308,-49.36070079598902 90,-48.84111132202509 C91.84371427389308,-48.39684064021639 93.09280099853702,-49.90271493207343 95,-49.586712561551785 C97.09280099853702,-49.23995793549522 97.94267269078662,-47.35727641152189 100,-47.18421883057957 C101.94267269078662,-47.020805729064485 102.9753610424137,-48.215316183205644 105,-48.745535855408285 C106.9753610424137,-49.262850451408696 107.9781304405936,-49.59390153533373 110,-49.8030545010872 C111.9781304405936,-50.007682859218704 113.09395274954262,-49.35087794267837 115,-49.779989165120725 C117.09395274954262,-50.251403829094635 118.02149278388633,-51.10003163705145 120,-52.05436921712786 C122.02149278388633,-53.029440986289984 123.01327309971765,-53.55861317467734 125,-54.60351253821707 C127.01327309971765,-55.66237361279539 128.07086274417046,-56.11510257985332 130,-57.31377031242298 C132.07086274417046,-58.60049905218307 132.85699874276068,-59.6958379086446 135,-60.81700371904144 C136.85699874276068,-61.788540013432275 138.00380941906857,-61.84328776987372 140,-62.54552557439217 C142.00380941906857,-63.25044360204037 143.00619104029175,-64.35395955635339 145,-64.33489329945806 C147.00619104029175,-64.3157086360684 147.98079105872654,-62.512723653691076 150,-62.4498982736797 C151.98079105872654,-62.3882682222056 153.1032671648954,-64.28747392373496 155,-64.02375472074438 C157.1032671648954,-63.73131926007398 157.8963451786908,-62.01274103631436 160,-61.05951161452725 C161.8963451786908,-60.200220441906446 163.01926888766482,-60.17522486657546 165,-59.492453234724586 C167.01926888766482,-58.79639736677227 167.95973850589925,-58.231003061452725 170,-57.61244286501926 C171.95973850589925,-57.01829538016387 172.99723779368475,-56.90904880905686 175,-56.46068403150246 C176.99723779368475,-56.013556021864076 177.99610075573497,-55.789715725553634 180,-55.373710897037306 C181.99610075573497,-54.95932501662574 182.99557598377274,-54.75645113330751 185,-54.38470725918273 C186.99557598377274,-54.01460435614811 187.99566589820137,-53.83810292661531 190,-53.51909395413882 C191.99566589820137,-53.2014646093004 192.9962373051205,-53.054673258266966 195,-52.793111465895464 Q196.9962373051205,-52.532532002638426 200,-52.21374081506745"
               class="spline"
               fill="none"/>
      </g>
   </g>
   <g id="default">
      <g>
         <path d="M5,-41.94366107296557 Q8.001904489691315,-42.94257672672392 10,-43.61791184802699 C12.001904489691315,-44.29453436402173 13.000310652833573,-44.64038853032496 15,-45.32355516621008 C17.000310652833573,-46.00693406271612 17.99825148863707,-46.35514124871965 20,-47.03427567900489 C21.998251488637067,-47.71222367227113 22.995826179329875,-48.056139571401566 25,-48.71626122508877 C26.995826179329875,-49.373633387315174 27.99328375014388,-49.70494451416521 30,-50.32801021878891 C31.993283750143885,-50.94690526405872 32.99105243710883,-51.25569899301481 35,-51.82116309982253 C36.99105243710883,-52.381590215369926 37.98971039064281,-52.65668596197252 40,-53.1427382746767 C41.98971039064281,-53.623814897906485 42.989851726959564,-53.853435204135295 45,-54.238985439657434 C46.989851726959564,-54.62064275930529 47.9918308783459,-54.793487232620045 50,-55.06075716260169 C51.9918308783459,-55.325852613801686 52.99546045253814,-55.4325846334839 55,-55.56989889261153 C56.99546045253814,-55.70659121878974 57.99986196630731,-55.74159687584366 60,-55.745773625866285 C61.99986196630731,-55.74994979939646 63.0036812953303,-55.71297523101296 65,-55.590781201493535 C67.00368129533031,-55.46813651015422 68.00470647024356,-55.35833704690029 70,-55.13367682371943 C72.00470647024356,-54.907956749805294 73.0021673753732,-54.747678672041104 75,-54.464830458756055 C77.0021673753732,-54.18136854215645 78.00138749374625,-54.02568310783523 80,-53.7179014990078 C82.00138749374625,-53.40969254865607 83.00420412942736,-53.266627014967064 85,-52.924854060808144 C87.00420412942736,-52.58164122218485 87.98844119941485,-52.29190063440358 90,-52.00543701705227 C91.98844119941485,-51.7222655488809 92.99559786553492,-51.63850996692986 95,-51.500766347001424 C96.99559786553492,-51.36362776128863 97.99968015435118,-51.32842623202951 100,-51.3182315029492 C101.99968015435118,-51.30804003408725 103.006917487849,-51.30302844720478 105,-51.44980085214578 C107.006917487849,-51.59759207725258 108.00362021674907,-51.78581492621252 110,-52.0546405780687 C112.00362021674906,-52.32444120185717 113.0181410509245,-52.407107911601315 115,-52.79636654125741 C117.0181410509245,-53.19275136990631 118.00804625973406,-53.49895355388701 120,-54.018749223831186 C122.00804625973406,-54.54274419909502 122.99862449866272,-54.856012419768255 125,-55.40584315427742 C126.99862449866272,-55.95491811565947 127.99508899081486,-56.24069010039662 130,-56.766013463559226 C131.99508899081488,-57.28876327822034 132.99124442396314,-57.55975536711696 135,-58.02602609883671 C136.99124442396314,-58.48823215599471 137.98796782866512,-58.73072640352813 140,-59.08720543575359 C141.98796782866512,-59.439420901169186 142.9919271351106,-59.59272986633184 145,-59.79776234293934 C146.9919271351106,-60.00114627430675 147.99824964996282,-60.06476528683634 150,-60.108246455690875 C151.99824964996282,-60.15165158382882 153.00400353833103,-60.12500793388913 155,-60.014978085420545 C157.00400353833103,-59.9045068446706 158.00697239601007,-59.797915452979176 160,-59.556993732644564 C162.00697239601007,-59.314386334060195 163.0066874530287,-59.14575847151569 165,-58.80615528812309 C167.0066874530287,-58.4642734050446 168.0041278728809,-58.254944469360915 170,-57.853281066466835 C172.0041278728809,-57.449956218988675 173.00077993386407,-57.221170745808614 175,-56.79368466219249 C177.00077993386407,-56.3658650376334 177.99787301853434,-56.13637715271551 180,-55.7150167960288 C181.99787301853434,-55.294551712895995 182.99605987351725,-55.0792376723862 185,-54.68912106264371 C186.99605987351725,-54.300538539439124 187.99544100758862,-54.10985059917425 190,-53.768268963661114 C191.99544100758862,-53.42824105451878 192.9957578263224,-53.268341278952036 195,-52.98509720100501 Q196.9957578263224,-52.7030521503887 200,-52.35504614225279"
               class="spline"
               fill="none"/>
      </g>
   </g>
   <g>
      <line x1="5"
            y1="-46.67650111270076"
            x2="200"
            y2="-59.33620952009732"
            class="regression"/>
   </g>
</svg>
