<?xml version="1.0" encoding="UTF-8"?>
<svg xmlns="http://www.w3.org/2000/svg"
     viewBox="-10 -110 520 120"
     width="90%">
   <style type="text/css">
                .spline {
                    stroke: red;
                    stroke-width: 0.5;
                    stroke-opacity: 0.5;
                    fill: none;
                }</style>
   <circle cx="5" cy="-31.19419982549165" r="0.5" fill="black"/>
   <circle cx="10" cy="-29.768545737640462" r="0.5" fill="black"/>
   <circle cx="15" cy="-57.95785884249127" r="0.5" fill="black"/>
   <circle cx="20" cy="-77.2728036476843" r="0.5" fill="black"/>
   <circle cx="25" cy="-56.23249857535343" r="0.5" fill="black"/>
   <circle cx="30" cy="-53.40252543414255" r="0.5" fill="black"/>
   <circle cx="35" cy="-93.98467307938043" r="0.5" fill="black"/>
   <circle cx="40" cy="-87.6046405736665" r="0.5" fill="black"/>
   <circle cx="45" cy="-1.4383973767034486" r="0.5" fill="black"/>
   <circle cx="50" cy="-23.361538363774446" r="0.5" fill="black"/>
   <circle cx="55" cy="-36.8176494834469" r="0.5" fill="black"/>
   <circle cx="60" cy="-88.59385161616052" r="0.5" fill="black"/>
   <circle cx="65" cy="-58.313658158026826" r="0.5" fill="black"/>
   <circle cx="70" cy="-34.525065899658145" r="0.5" fill="black"/>
   <circle cx="75" cy="-45.204196455760204" r="0.5" fill="black"/>
   <circle cx="80" cy="-43.46322816436129" r="0.5" fill="black"/>
   <circle cx="85" cy="-13.909164376240724" r="0.5" fill="black"/>
   <circle cx="90" cy="-95.37802552666304" r="0.5" fill="black"/>
   <circle cx="95" cy="-92.42344396637822" r="0.5" fill="black"/>
   <circle cx="100" cy="-73.20902685428258" r="0.5" fill="black"/>
   <circle cx="105" cy="-41.917975098726934" r="0.5" fill="black"/>
   <circle cx="110" cy="-84.65216849267539" r="0.5" fill="black"/>
   <circle cx="115" cy="-79.19793708745918" r="0.5" fill="black"/>
   <circle cx="120" cy="-63.575723906569706" r="0.5" fill="black"/>
   <circle cx="125" cy="-97.55635149782688" r="0.5" fill="black"/>
   <circle cx="130" cy="-20.30945789229297" r="0.5" fill="black"/>
   <circle cx="135" cy="-67.83984092150708" r="0.5" fill="black"/>
   <circle cx="140" cy="-41.54038315181532" r="0.5" fill="black"/>
   <circle cx="145" cy="-8.497961143021604" r="0.5" fill="black"/>
   <circle cx="150" cy="-73.75251677515675" r="0.5" fill="black"/>
   <circle cx="155" cy="-70.64100466715524" r="0.5" fill="black"/>
   <circle cx="160" cy="-77.85972093665266" r="0.5" fill="black"/>
   <circle cx="165" cy="-82.08738388851361" r="0.5" fill="black"/>
   <circle cx="170" cy="-49.81986219428713" r="0.5" fill="black"/>
   <circle cx="175" cy="-49.87463365035405" r="0.5" fill="black"/>
   <circle cx="180" cy="-76.2837424364194" r="0.5" fill="black"/>
   <circle cx="185" cy="-10.007329652033881" r="0.5" fill="black"/>
   <circle cx="190" cy="-28.776763786307036" r="0.5" fill="black"/>
   <circle cx="195" cy="-83.83069149135198" r="0.5" fill="black"/>
   <circle cx="200" cy="-96.0455758165028" r="0.5" fill="black"/>
   <circle cx="205" cy="-85.99272636771941" r="0.5" fill="black"/>
   <circle cx="210" cy="-0.6645026847852065" r="0.5" fill="black"/>
   <circle cx="215" cy="-91.418089955838" r="0.5" fill="black"/>
   <circle cx="220" cy="-92.59718241422847" r="0.5" fill="black"/>
   <circle cx="225" cy="-34.051246525626496" r="0.5" fill="black"/>
   <circle cx="230" cy="-58.00353222882022" r="0.5" fill="black"/>
   <circle cx="235" cy="-72.34482865511801" r="0.5" fill="black"/>
   <circle cx="240" cy="-36.02859865997867" r="0.5" fill="black"/>
   <circle cx="245" cy="-21.265306334531065" r="0.5" fill="black"/>
   <circle cx="250" cy="-95.15061338730446" r="0.5" fill="black"/>
   <circle cx="255" cy="-92.05543025262398" r="0.5" fill="black"/>
   <circle cx="260" cy="-34.85491291573376" r="0.5" fill="black"/>
   <circle cx="265" cy="-61.602888797107056" r="0.5" fill="black"/>
   <circle cx="270" cy="-45.61800618463307" r="0.5" fill="black"/>
   <circle cx="275" cy="-30.436108055625066" r="0.5" fill="black"/>
   <circle cx="280" cy="-43.87723318943889" r="0.5" fill="black"/>
   <circle cx="285" cy="-63.11169261544383" r="0.5" fill="black"/>
   <circle cx="290" cy="-16.724529455997793" r="0.5" fill="black"/>
   <circle cx="295" cy="-52.18481978605725" r="0.5" fill="black"/>
   <circle cx="300" cy="-4.233707859717251" r="0.5" fill="black"/>
   <circle cx="305" cy="-26.66052462411472" r="0.5" fill="black"/>
   <circle cx="310" cy="-24.987891479423418" r="0.5" fill="black"/>
   <circle cx="315" cy="-80.69506702795232" r="0.5" fill="black"/>
   <circle cx="320" cy="-40.04586230101168" r="0.5" fill="black"/>
   <circle cx="325" cy="-3.238188963691846" r="0.5" fill="black"/>
   <circle cx="330" cy="-42.99210039196376" r="0.5" fill="black"/>
   <circle cx="335" cy="-11.58749693377784" r="0.5" fill="black"/>
   <circle cx="340" cy="-60.84720705724298" r="0.5" fill="black"/>
   <circle cx="345" cy="-62.80546429067206" r="0.5" fill="black"/>
   <circle cx="350" cy="-31.874146955814908" r="0.5" fill="black"/>
   <circle cx="355" cy="-48.156282816781825" r="0.5" fill="black"/>
   <circle cx="360" cy="-95.3766462567976" r="0.5" fill="black"/>
   <circle cx="365" cy="-85.93123547057009" r="0.5" fill="black"/>
   <circle cx="370" cy="-57.21666776428407" r="0.5" fill="black"/>
   <circle cx="375" cy="-2.0561972573429066" r="0.5" fill="black"/>
   <circle cx="380" cy="-5.535300645513896" r="0.5" fill="black"/>
   <circle cx="385" cy="-85.99567110984474" r="0.5" fill="black"/>
   <circle cx="390" cy="-86.22591902922939" r="0.5" fill="black"/>
   <circle cx="395" cy="-31.314396822363243" r="0.5" fill="black"/>
   <circle cx="400" cy="-70.93679069368149" r="0.5" fill="black"/>
   <circle cx="405" cy="-79.522429989887" r="0.5" fill="black"/>
   <circle cx="410" cy="-36.059279757721065" r="0.5" fill="black"/>
   <circle cx="415" cy="-26.91525502264216" r="0.5" fill="black"/>
   <circle cx="420" cy="-49.830285499014416" r="0.5" fill="black"/>
   <circle cx="425" cy="-8.057915445833963" r="0.5" fill="black"/>
   <circle cx="430" cy="-2.5837073049940096" r="0.5" fill="black"/>
   <circle cx="435" cy="-7.041103597323417" r="0.5" fill="black"/>
   <circle cx="440" cy="-69.03247179801109" r="0.5" fill="black"/>
   <circle cx="445" cy="-27.01559424447956" r="0.5" fill="black"/>
   <circle cx="450" cy="-74.35013328850359" r="0.5" fill="black"/>
   <circle cx="455" cy="-1.125268763123588" r="0.5" fill="black"/>
   <circle cx="460" cy="-57.51111562841594" r="0.5" fill="black"/>
   <circle cx="465" cy="-5.704073661433762" r="0.5" fill="black"/>
   <circle cx="470" cy="-40.707254909925695" r="0.5" fill="black"/>
   <circle cx="475" cy="-79.00173171915944" r="0.5" fill="black"/>
   <circle cx="480" cy="-34.611972862826015" r="0.5" fill="black"/>
   <circle cx="485" cy="-93.96901050385806" r="0.5" fill="black"/>
   <circle cx="490" cy="-70.91540112651506" r="0.5" fill="black"/>
   <circle cx="495" cy="-29.133504854812564" r="0.5" fill="black"/>
   <circle cx="500" cy="-1.7742446145074697" r="0.5" fill="black"/>
   <polyline points="5,-31.19419982549165 10,-29.768545737640462 15,-57.95785884249127 20,-77.2728036476843 25,-56.23249857535343 30,-53.40252543414255 35,-93.98467307938043 40,-87.6046405736665 45,-1.4383973767034486 50,-23.361538363774446 55,-36.8176494834469 60,-88.59385161616052 65,-58.313658158026826 70,-34.525065899658145 75,-45.204196455760204 80,-43.46322816436129 85,-13.909164376240724 90,-95.37802552666304 95,-92.42344396637822 100,-73.20902685428258 105,-41.917975098726934 110,-84.65216849267539 115,-79.19793708745918 120,-63.575723906569706 125,-97.55635149782688 130,-20.30945789229297 135,-67.83984092150708 140,-41.54038315181532 145,-8.497961143021604 150,-73.75251677515675 155,-70.64100466715524 160,-77.85972093665266 165,-82.08738388851361 170,-49.81986219428713 175,-49.87463365035405 180,-76.2837424364194 185,-10.007329652033881 190,-28.776763786307036 195,-83.83069149135198 200,-96.0455758165028 205,-85.99272636771941 210,-0.6645026847852065 215,-91.418089955838 220,-92.59718241422847 225,-34.051246525626496 230,-58.00353222882022 235,-72.34482865511801 240,-36.02859865997867 245,-21.265306334531065 250,-95.15061338730446 255,-92.05543025262398 260,-34.85491291573376 265,-61.602888797107056 270,-45.61800618463307 275,-30.436108055625066 280,-43.87723318943889 285,-63.11169261544383 290,-16.724529455997793 295,-52.18481978605725 300,-4.233707859717251 305,-26.66052462411472 310,-24.987891479423418 315,-80.69506702795232 320,-40.04586230101168 325,-3.238188963691846 330,-42.99210039196376 335,-11.58749693377784 340,-60.84720705724298 345,-62.80546429067206 350,-31.874146955814908 355,-48.156282816781825 360,-95.3766462567976 365,-85.93123547057009 370,-57.21666776428407 375,-2.0561972573429066 380,-5.535300645513896 385,-85.99567110984474 390,-86.22591902922939 395,-31.314396822363243 400,-70.93679069368149 405,-79.522429989887 410,-36.059279757721065 415,-26.91525502264216 420,-49.830285499014416 425,-8.057915445833963 430,-2.5837073049940096 435,-7.041103597323417 440,-69.03247179801109 445,-27.01559424447956 450,-74.35013328850359 455,-1.125268763123588 460,-57.51111562841594 465,-5.704073661433762 470,-40.707254909925695 475,-79.00173171915944 480,-34.611972862826015 485,-93.96901050385806 490,-70.91540112651506 495,-29.133504854812564 500,-1.7742446145074697"
             stroke="black"
             stroke-width="0.5"
             fill="none"/>
   <circle cx="5" cy="-20.39364375625493" r="0.5" fill="blue"/>
   <circle cx="10" cy="-39.57417253483923" r="0.5" fill="blue"/>
   <circle cx="15" cy="-55.019522188558405" r="0.5" fill="blue"/>
   <circle cx="20" cy="-63.911028939920485" r="0.5" fill="blue"/>
   <circle cx="25" cy="-62.262007830176366" r="0.5" fill="blue"/>
   <circle cx="30" cy="-67.77644157380765" r="0.5" fill="blue"/>
   <circle cx="35" cy="-78.43531895899063" r="0.5" fill="blue"/>
   <circle cx="40" cy="-61.18712673647897" r="0.5" fill="blue"/>
   <circle cx="45" cy="-37.22719819323328" r="0.5" fill="blue"/>
   <circle cx="50" cy="-20.558072993706258" r="0.5" fill="blue"/>
   <circle cx="55" cy="-49.50557545221747" r="0.5" fill="blue"/>
   <circle cx="60" cy="-61.424671037583465" r="0.5" fill="blue"/>
   <circle cx="65" cy="-60.46305168147566" r="0.5" fill="blue"/>
   <circle cx="70" cy="-45.93745829802897" r="0.5" fill="blue"/>
   <circle cx="75" cy="-41.09185510854692" r="0.5" fill="blue"/>
   <circle cx="80" cy="-34.254207849021896" r="0.5" fill="blue"/>
   <circle cx="85" cy="-50.669271547625314" r="0.5" fill="blue"/>
   <circle cx="90" cy="-67.42510676199576" r="0.5" fill="blue"/>
   <circle cx="95" cy="-87.03975138392715" r="0.5" fill="blue"/>
   <circle cx="100" cy="-69.21040779421918" r="0.5" fill="blue"/>
   <circle cx="105" cy="-66.4280116212749" r="0.5" fill="blue"/>
   <circle cx="110" cy="-68.69680016655651" r="0.5" fill="blue"/>
   <circle cx="115" cy="-75.83128015604308" r="0.5" fill="blue"/>
   <circle cx="120" cy="-79.99941067034923" r="0.5" fill="blue"/>
   <circle cx="125" cy="-60.72850173738484" r="0.5" fill="blue"/>
   <circle cx="130" cy="-61.623682537211046" r="0.5" fill="blue"/>
   <circle cx="135" cy="-43.39450351289185" r="0.5" fill="blue"/>
   <circle cx="140" cy="-39.30776238255156" r="0.5" fill="blue"/>
   <circle cx="145" cy="-41.04445939735919" r="0.5" fill="blue"/>
   <circle cx="150" cy="-51.11625513455666" r="0.5" fill="blue"/>
   <circle cx="155" cy="-74.06138205742796" r="0.5" fill="blue"/>
   <circle cx="160" cy="-76.86937195627311" r="0.5" fill="blue"/>
   <circle cx="165" cy="-70.00369126762227" r="0.5" fill="blue"/>
   <circle cx="170" cy="-60.5218947779847" r="0.5" fill="blue"/>
   <circle cx="175" cy="-58.60065366124675" r="0.5" fill="blue"/>
   <circle cx="180" cy="-45.59521834960148" r="0.5" fill="blue"/>
   <circle cx="185" cy="-38.16632878614632" r="0.5" fill="blue"/>
   <circle cx="190" cy="-40.79069580133301" r="0.5" fill="blue"/>
   <circle cx="195" cy="-69.64652343204153" r="0.5" fill="blue"/>
   <circle cx="200" cy="-88.67264558207779" r="0.5" fill="blue"/>
   <circle cx="205" cy="-61.06876741288895" r="0.5" fill="blue"/>
   <circle cx="210" cy="-58.96585121422699" r="0.5" fill="blue"/>
   <circle cx="215" cy="-61.75963850575395" r="0.5" fill="blue"/>
   <circle cx="220" cy="-72.82200135081521" r="0.5" fill="blue"/>
   <circle cx="225" cy="-61.36671735151019" r="0.5" fill="blue"/>
   <circle cx="230" cy="-54.82129760441905" r="0.5" fill="blue"/>
   <circle cx="235" cy="-55.57193151409881" r="0.5" fill="blue"/>
   <circle cx="240" cy="-43.16485722130385" r="0.5" fill="blue"/>
   <circle cx="245" cy="-50.61719033092571" r="0.5" fill="blue"/>
   <circle cx="250" cy="-69.66208414018747" r="0.5" fill="blue"/>
   <circle cx="255" cy="-74.14095101405427" r="0.5" fill="blue"/>
   <circle cx="260" cy="-62.65057412073138" r="0.5" fill="blue"/>
   <circle cx="265" cy="-47.45387895213138" r="0.5" fill="blue"/>
   <circle cx="270" cy="-45.883877361108624" r="0.5" fill="blue"/>
   <circle cx="275" cy="-39.91329849438179" r="0.5" fill="blue"/>
   <circle cx="280" cy="-45.79542791884715" r="0.5" fill="blue"/>
   <circle cx="285" cy="-41.38412706682724" r="0.5" fill="blue"/>
   <circle cx="290" cy="-43.824528520556974" r="0.5" fill="blue"/>
   <circle cx="295" cy="-24.56699141450222" r="0.5" fill="blue"/>
   <circle cx="300" cy="-27.536104212575626" r="0.5" fill="blue"/>
   <circle cx="305" cy="-18.681106301998724" r="0.5" fill="blue"/>
   <circle cx="310" cy="-43.986561512697385" r="0.5" fill="blue"/>
   <circle cx="315" cy="-48.791107845345" r="0.5" fill="blue"/>
   <circle cx="320" cy="-41.31780776329227" r="0.5" fill="blue"/>
   <circle cx="325" cy="-28.58801705326997" r="0.5" fill="blue"/>
   <circle cx="330" cy="-19.4312490197743" r="0.5" fill="blue"/>
   <circle cx="335" cy="-38.295753933934144" r="0.5" fill="blue"/>
   <circle cx="340" cy="-45.185518459483134" r="0.5" fill="blue"/>
   <circle cx="345" cy="-51.915602700187875" r="0.5" fill="blue"/>
   <circle cx="350" cy="-47.50669852451457" r="0.5" fill="blue"/>
   <circle cx="355" cy="-58.40004609475414" r="0.5" fill="blue"/>
   <circle cx="360" cy="-76.61439571566603" r="0.5" fill="blue"/>
   <circle cx="365" cy="-79.55114528761301" r="0.5" fill="blue"/>
   <circle cx="370" cy="-48.46033008236619" r="0.5" fill="blue"/>
   <circle cx="375" cy="-21.4719802774884" r="0.5" fill="blue"/>
   <circle cx="380" cy="-31.02408712339748" r="0.5" fill="blue"/>
   <circle cx="385" cy="-59.43117639167624" r="0.5" fill="blue"/>
   <circle cx="390" cy="-67.9682719659504" r="0.5" fill="blue"/>
   <circle cx="395" cy="-62.61493126863526" r="0.5" fill="blue"/>
   <circle cx="400" cy="-60.66040475749162" r="0.5" fill="blue"/>
   <circle cx="405" cy="-62.288880412059726" r="0.5" fill="blue"/>
   <circle cx="410" cy="-47.42247102654653" r="0.5" fill="blue"/>
   <circle cx="415" cy="-37.5301285367262" r="0.5" fill="blue"/>
   <circle cx="420" cy="-28.412044379705574" r="0.5" fill="blue"/>
   <circle cx="425" cy="-20.076373100057417" r="0.5" fill="blue"/>
   <circle cx="430" cy="-5.872098811065382" r="0.5" fill="blue"/>
   <circle cx="435" cy="-26.09081764978078" r="0.5" fill="blue"/>
   <circle cx="440" cy="-34.59495123413444" r="0.5" fill="blue"/>
   <circle cx="445" cy="-56.6001836602183" r="0.5" fill="blue"/>
   <circle cx="450" cy="-34.432462247295454" r="0.5" fill="blue"/>
   <circle cx="455" cy="-44.03986179801182" r="0.5" fill="blue"/>
   <circle cx="460" cy="-21.688044034349282" r="0.5" fill="blue"/>
   <circle cx="465" cy="-34.447264410003214" r="0.5" fill="blue"/>
   <circle cx="470" cy="-41.79701522395583" r="0.5" fill="blue"/>
   <circle cx="475" cy="-51.62467093524671" r="0.5" fill="blue"/>
   <circle cx="480" cy="-68.96292659640935" r="0.5" fill="blue"/>
   <circle cx="485" cy="-66.68253594794484" r="0.5" fill="blue"/>
   <circle cx="490" cy="-64.71439503922103" r="0.5" fill="blue"/>
   <circle cx="495" cy="-33.90889378013157" r="0.5" fill="blue"/>
   <circle cx="500" cy="-10.245539321492457" r="0.5" fill="blue"/>
   <polyline points="5,-20.39364375625493 10,-39.57417253483923 15,-55.019522188558405 20,-63.911028939920485 25,-62.262007830176366 30,-67.77644157380765 35,-78.43531895899063 40,-61.18712673647897 45,-37.22719819323328 50,-20.558072993706258 55,-49.50557545221747 60,-61.424671037583465 65,-60.46305168147566 70,-45.93745829802897 75,-41.09185510854692 80,-34.254207849021896 85,-50.669271547625314 90,-67.42510676199576 95,-87.03975138392715 100,-69.21040779421918 105,-66.4280116212749 110,-68.69680016655651 115,-75.83128015604308 120,-79.99941067034923 125,-60.72850173738484 130,-61.623682537211046 135,-43.39450351289185 140,-39.30776238255156 145,-41.04445939735919 150,-51.11625513455666 155,-74.06138205742796 160,-76.86937195627311 165,-70.00369126762227 170,-60.5218947779847 175,-58.60065366124675 180,-45.59521834960148 185,-38.16632878614632 190,-40.79069580133301 195,-69.64652343204153 200,-88.67264558207779 205,-61.06876741288895 210,-58.96585121422699 215,-61.75963850575395 220,-72.82200135081521 225,-61.36671735151019 230,-54.82129760441905 235,-55.57193151409881 240,-43.16485722130385 245,-50.61719033092571 250,-69.66208414018747 255,-74.14095101405427 260,-62.65057412073138 265,-47.45387895213138 270,-45.883877361108624 275,-39.91329849438179 280,-45.79542791884715 285,-41.38412706682724 290,-43.824528520556974 295,-24.56699141450222 300,-27.536104212575626 305,-18.681106301998724 310,-43.986561512697385 315,-48.791107845345 320,-41.31780776329227 325,-28.58801705326997 330,-19.4312490197743 335,-38.295753933934144 340,-45.185518459483134 345,-51.915602700187875 350,-47.50669852451457 355,-58.40004609475414 360,-76.61439571566603 365,-79.55114528761301 370,-48.46033008236619 375,-21.4719802774884 380,-31.02408712339748 385,-59.43117639167624 390,-67.9682719659504 395,-62.61493126863526 400,-60.66040475749162 405,-62.288880412059726 410,-47.42247102654653 415,-37.5301285367262 420,-28.412044379705574 425,-20.076373100057417 430,-5.872098811065382 435,-26.09081764978078 440,-34.59495123413444 445,-56.6001836602183 450,-34.432462247295454 455,-44.03986179801182 460,-21.688044034349282 465,-34.447264410003214 470,-41.79701522395583 475,-51.62467093524671 480,-68.96292659640935 485,-66.68253594794484 490,-64.71439503922103 495,-33.90889378013157 500,-10.245539321492457"
             stroke="blue"
             stroke-width="0.5"
             fill="none"
             stroke-opacity="0.5"/>
   <g>
      <path d="M5,-20.39364375625493 Q7.801030384061718,-31.96004707505843 10,-39.57417253483923 C11.801030384061717,-45.81039844797982 12.543523903809486,-49.04123158700809 15,-55.019522188558405 C16.543523903809486,-58.77597414904059 17.361687674312172,-62.000235026230705 20,-63.911028939920485 C21.361687674312172,-64.89722928287789 23.342886906930545,-61.62146524160332 25,-62.262007830176366 C27.342886906930545,-63.16763029515818 28.45060205471878,-65.27055207066977 30,-67.77644157380765 C32.45060205471878,-71.73987652219547 33.416051338069366,-79.47903260095327 35,-78.43531895899063 C37.416051338069366,-76.8433066660218 38.30719371905879,-68.16286330228478 40,-61.18712673647897 C42.30719371905879,-51.67961499598184 42.6622069252745,-46.725430240483675 45,-37.22719819323328 C46.6622069252745,-30.473808743374587 48.51190818929292,-18.730937728919614 50,-20.558072993706258 C52.51190818929292,-23.642288632513292 52.22221254512058,-38.15370311522925 55,-49.50557545221747 C56.22221254512057,-54.50034233278013 57.130406823559404,-58.28032113573453 60,-61.424671037583465 C61.130406823559404,-62.663311627437814 64.00426155730234,-62.00517299097678 65,-60.46305168147566 C68.00426155730234,-55.810287895154985 67.2475357043932,-51.26931099104569 70,-45.93745829802897 C71.2475357043932,-43.52083236187419 73.19541795220015,-43.2001935105697 75,-41.09185510854692 C77.19541795220015,-38.526893330966864 78.67801740792953,-32.988090068074776 80,-34.254207849021896 C82.67801740792953,-36.81905664370613 83.01883450139502,-44.09756749921556 85,-50.669271547625314 C87.018834501395,-57.365927064405106 88.14609674259917,-60.68237165782065 90,-67.42510676199576 C92.14609674259917,-75.23056359234138 92.9110026572367,-86.66680247269242 95,-87.03975138392715 C96.9110026572367,-87.3809228855818 96.94426174755952,-75.50881595842766 100,-69.21040779421918 C100.94426174755952,-67.26412005336677 102.95873004327557,-66.53285280326413 105,-66.4280116212749 C106.95873004327557,-66.32740975219907 108.45363565837602,-67.24271225086848 110,-68.69680016655651 C112.45363565837602,-71.00401966477574 112.71059149180148,-73.24365089081937 115,-75.83128015604308 C116.71059149180148,-77.76469509233647 119.01440489689436,-81.48793311562115 120,-79.99941067034923 C123.01440489689436,-75.44682174815784 121.813094665893,-66.58467233794465 125,-60.72850173738484 C125.813094665893,-59.234381084689375 129.15277944737358,-63.09225449270911 130,-61.623682537211046 C133.15277944737358,-56.158655202911916 132.01855429952346,-50.04787393262061 135,-43.39450351289185 C136.01855429952346,-41.12150587075681 137.80177490767838,-39.82435497683423 140,-39.30776238255156 C141.80177490767838,-38.884337330621165 143.71976184921434,-39.532691104919905 145,-41.04445939735919 C147.71976184921434,-44.256088205721944 148.7048444227374,-46.840049981833076 150,-51.11625513455666 C152.7048444227374,-60.04681904586059 151.7850647105785,-65.78192164915485 155,-74.06138205742796 C155.7850647105785,-76.08316837784143 158.38780903430217,-77.52354919956511 160,-76.86937195627311 C162.38780903430217,-75.90047288364283 163.2317177805093,-72.89438659041197 165,-70.00369126762227 C167.2317177805093,-66.3553957190966 167.3327923394791,-63.56332170367796 170,-60.5218947779847 C171.3327923394791,-59.00210666112775 173.88927976119083,-60.25858982196284 175,-58.60065366124675 C177.88927976119083,-54.287919250609555 177.56495915012906,-50.57105993064184 180,-45.59521834960148 C181.56495915012906,-42.39732998060166 182.54691338521184,-39.34491978150686 185,-38.16632878614632 C186.54691338521184,-37.42311076219947 189.35339840518952,-38.755181395034974 190,-40.79069580133301 C193.35339840518952,-51.347259253393055 192.60726849847276,-58.189658472548246 195,-69.64652343204153 C196.60726849847276,-77.34243838484616 198.3512153670003,-90.08693281307774 200,-88.67264558207779 C202.3512153670003,-86.65583040541671 201.64810850846683,-71.0261625411214 205,-61.06876741288895 C205.64810850846683,-59.143444793981075 208.0544051105707,-58.83143568747373 210,-58.96585121422699 C212.0544051105707,-59.10778412461973 213.71775950440502,-59.9829468239362 215,-61.75963850575395 C217.71775950440502,-65.52540687857149 218.02914873694115,-72.8994402661276 220,-72.82200135081521 C222.02914873694115,-72.74227180443009 222.5888920986615,-65.70688125476914 225,-61.36671735151019 C226.5888920986615,-58.506599756210676 227.5214473051061,-56.25756580978394 230,-54.82129760441905 C231.5214473051061,-53.93965147481939 233.90281317796402,-56.850860792119015 235,-55.57193151409881 C237.90281317796402,-52.18828463887293 237.60606375758482,-44.35099067032236 240,-43.16485722130385 C241.60606375758482,-42.369094197053116 243.7476861112074,-47.29890580242499 245,-50.61719033092571 C247.7476861112074,-57.897796569978446 247.01695934815885,-62.644850699991935 250,-69.66208414018747 C251.01695934815882,-72.05435497324336 253.6047056388137,-75.1192630534091 255,-74.14095101405427 C257.6047056388137,-72.31465904562667 258.24304895988564,-67.33936202241162 260,-62.65057412073138 C262.24304895988564,-56.664533197642456 261.9870039948109,-52.505677987827426 265,-47.45387895213138 C265.9870039948109,-45.79899928397832 268.3909888964022,-47.097165129517805 270,-45.883877361108624 C272.3909888964022,-44.08093294641797 272.99128141986245,-39.931065498189135 275,-39.91329849438179 C276.99128141986245,-39.89568572128454 277.8537286663499,-45.47974819867184 280,-45.79542791884715 C281.8537286663499,-46.06807962765002 282.8194787693646,-41.81388586496906 285,-41.38412706682724 C286.8194787693646,-41.02552610565299 289.1258741066148,-45.29455789318382 290,-43.824528520556974 C293.1258741066148,-38.56770363225382 291.904684007346,-29.608773440065104 295,-24.56699141450222 C295.904684007346,-23.093403716872565 298.5447864145002,-28.39262621041622 300,-27.536104212575626 C302.5447864145002,-26.038272165414824 303.86896084146593,-16.820495163775654 305,-18.681106301998724 C307.86896084146593,-23.400678083824356 306.84747515996935,-34.49430873282132 310,-43.986561512697385 C310.84747515996935,-46.53830935015983 313.25837589724756,-49.255904430772496 315,-48.791107845345 C317.25837589724756,-48.18840293101045 318.41334178954537,-44.5233477514729 320,-41.31780776329227 C322.41334178954537,-36.44211143464288 322.73092861706596,-33.55423346485212 325,-28.58801705326997 C326.73092861706596,-24.799609967444926 328.6065634170053,-18.078537449013844 330,-19.4312490197743 C332.6065634170053,-21.961632201279514 332.2148763108758,-31.12287134267211 335,-38.295753933934144 C336.2148763108758,-41.42457911855564 337.9847653158619,-42.44079929683616 340,-45.185518459483134 C341.9847653158619,-47.88873880333765 342.77170823781836,-51.39837605844289 345,-51.915602700187875 C346.77170823781836,-52.32684808445547 348.57042107832103,-46.579696164945325 350,-47.50669852451457 C352.57042107832103,-49.17347352277183 353.44711284284836,-53.87994918051434 355,-58.40004609475414 C357.44711284284836,-65.52302805697492 356.93955608770193,-70.1412204393463 360,-76.61439571566603 C360.93955608770193,-78.60166011648985 364.37797531122015,-81.30239767895712 365,-79.55114528761301 C368.37797531122015,-70.04077142563717 367.86281521587216,-60.87292085581494 370,-48.46033008236619 C371.86281521587216,-37.6412548517651 372.12810034821064,-26.479494285726098 375,-21.4719802774884 C376.12810034821064,-19.504997102138613 378.9116471129415,-26.89278705526793 380,-31.02408712339748 C382.9116471129415,-42.076465500943065 382.02160284605895,-48.42773089270304 385,-59.43117639167624 C386.02160284605895,-63.2054048297242 387.7016787879353,-67.23654282917747 390,-67.9682719659504 C391.7016787879353,-68.51004477996106 392.6916975757951,-64.30180802794054 395,-62.61493126863526 C396.6916975757951,-61.37866114455703 397.9793107428491,-60.726289503808324 400,-60.66040475749162 C401.9793107428491,-60.59586916117811 403.99566343810557,-63.61841449705207 405,-62.288880412059726 C407.99566343810557,-58.32324100467404 407.65627547064355,-53.22524043519346 410,-47.42247102654653 C411.65627547064355,-43.32173968506005 412.93621607831557,-41.453469822537336 415,-37.5301285367262 C416.93621607831557,-33.84929916380095 417.9325269383948,-32.020561298621395 420,-28.412044379705574 C421.9325269383948,-25.039059123953876 423.43087872086363,-23.613163922290344 425,-20.076373100057417 C427.43087872086363,-14.597185694834266 428.3215250163346,-4.8625893393300395 430,-5.872098811065382 C432.3215250163346,-7.268367159219386 432.2856534506419,-18.294440113552845 435,-26.09081764978078 C436.2856534506419,-29.78358108278047 438.7832588568782,-30.882751146588365 440,-34.59495123413444 C442.7832588568782,-43.086497550763376 443.0069982835177,-56.63256774318626 445,-56.6001836602183 C447.0069982835177,-56.56757214845066 447.29107907540026,-37.834954118519285 450,-34.432462247295454 C451.29107907540026,-32.810825373636696 453.71579525805913,-45.67650602824611 455,-44.03986179801182 C457.71579525805913,-40.57873874306764 457.497363442325,-24.088722524978063 460,-21.688044034349282 C461.497363442325,-20.25168356977462 462.5737939210922,-29.568413595922706 465,-34.447264410003214 C466.5737939210922,-37.612002071765325 468.21462507871667,-38.73020414166999 470,-41.79701522395583 C472.21462507871667,-45.60116675176739 473.4828374513879,-47.50316060192657 475,-51.62467093524671 C477.4828374513879,-58.369525150907975 476.9337985360152,-64.34588182176728 480,-68.96292659640935 C480.93379853601516,-70.36902782684653 482.97754044833465,-67.54178427078355 485,-66.68253594794484 C486.97754044833465,-65.84237164790822 489.4124534656307,-66.63999902665685 490,-64.71439503922103 C493.4124534656307,-53.53054215953154 492.74644377214616,-46.1837566828075 495,-33.90889378013157 Q496.74644377214616,-24.396214395716065 500,-10.245539321492457"
            class="spline"/>
   </g>
</svg>
