<?xml version="1.0" encoding="UTF-8"?>
<svg xmlns="http://www.w3.org/2000/svg" viewBox="0 -115 205 155">
   <style type="text/css">
                .highlight {stroke-width: 2;}
            </style>
   <script type="text/javascript">
                window.addEventListener('DOMContentLoaded', init, false);
                function init() {
                    var rects = document.getElementsByClassName('toggle');
                    for (var i = 0; i &lt; rects.length; i++) {
                        rects[i].addEventListener('mouseover', emphasize, false);
                        rects[i].addEventListener('mouseout', deemphasize, false);
                    }
                }
                function emphasize() {
                    var target = 'smooth' + this.id.substring(this.id.indexOf('-'));
                    console.log(target);
                    document.getElementById(target).classList.add('highlight');
                }
                function deemphasize() {
                    var target = 'smooth' + this.id.substring(this.id.indexOf('-'));
                    document.getElementById(target).classList.remove('highlight');
                }//
            </script>
   <g stroke-width="0.5" fill="0" stroke-opacity="0.5">
      <g id="smooth-3" stroke="green">
         <g>
            <path d="M0,-63.59642198410103 Q3.755848245772931,-64.90780350391715 5,-63.689619824764804 C7.755848245772931,-60.99129195293148 7.782920545729322,-54.36209926187718 10,-53.80514310663684 C11.782920545729322,-53.357252720780075 13.128855400966327,-61.44755650601092 15,-61.17750347202206 C17.128855400966327,-60.87025631418539 17.910692708104115,-52.57323459931567 20,-52.36189262707302 C21.910692708104115,-52.16861825003586 23.72211031321918,-61.60940570864681 25,-60.16596259882255 C27.722110313219183,-57.09119689999607 27.63613038439238,-42.5750174600645 30,-41.06637060544618 C31.63613038439238,-40.02217470654312 33.09240671910493,-54.05339436804318 35,-53.78385571501909 C37.09240671910493,-53.48820333759958 37.72976294876787,-40.53028939351919 40,-39.653393029337174 C41.72976294876787,-38.98525890658198 43.19329046674965,-50.40246922813592 45,-49.921279497676075 C47.19329046674965,-49.33712978844378 47.71859956639553,-37.848266406396746 50,-36.99004443010683 C51.71859956639553,-36.343538058582794 53.6042559104418,-42.25079967299819 55,-46.159458628141195 C57.6042559104418,-53.45244898502996 57.341534899604916,-57.73591637116138 60,-64.99416771018625 C61.341534899604916,-68.6568817627269 62.68301340891408,-70.31796417678004 65,-73.461872107055 C66.68301340891408,-75.74554488418755 68.0483666234759,-78.657770628159 70,-78.56311947870502 C72.0483666234759,-78.46377691890494 73.39632794181064,-75.48041291513039 75,-72.97688783391985 C77.39632794181064,-69.23593152399816 78.04579211315144,-66.98411230471964 80,-62.951916000874434 C82.04579211315144,-58.73075025254266 82.2931228682097,-54.53088927403094 85,-52.34348270347738 C86.2931228682097,-51.29852006914305 88.21563750449187,-53.55692909355547 90,-54.870992988654706 C92.21563750449187,-56.502662145908225 92.7070430043581,-58.90828624454105 95,-59.707815334359275 C96.7070430043581,-60.303042607329964 98.17968629500366,-57.93581786867379 100,-58.35788389562698 C102.17968629500366,-58.86327564871406 102.85798761542335,-61.665589541059234 105,-62.02645978445995 C106.85798761542335,-62.33947965672641 108.46724717565264,-61.43022969949146 110,-60.042609184794934 C112.46724717565264,-57.80897911647623 114.07212042942076,-56.24859204798519 115,-52.97333332692186 C118.07212042942076,-42.12926525207894 117.07091497075803,-35.71113354208252 120,-24.7442921950293 C121.07091497075803,-20.73465967728473 123.88605838009234,-13.584998291795607 125,-15.53214866492738 C127.88605838009234,-20.576927988409988 127.26301487146792,-31.773527719268927 130,-42.22411643656525 C131.2630148714679,-47.046666923940045 132.28253146221874,-49.73391244269161 135,-53.714996676605175 C136.28253146221874,-55.593901882958 139.33443634408945,-58.607663844237074 140,-56.87409003723123 C143.33443634408945,-48.18898312685836 142.07152331096236,-33.40394263359588 145,-27.66829488315841 C146.07152331096236,-25.569633729027004 148.22898454604533,-33.336054853555126 150,-37.288317775809034 C152.22898454604533,-42.262601289789835 152.23719470354624,-45.50646820165773 155,-49.984660973745186 C156.23719470354624,-51.99001270308967 158.05272891254543,-53.60397748475336 160,-53.497179029388874 C162.05272891254543,-53.38459671942995 163.579113543981,-51.51496296493937 165,-49.43620906043667 C167.579113543981,-45.662971355907075 168.42669760873372,-37.80394952381073 170,-38.867200006808126 C172.42669760873372,-40.50718188117498 172.62556023997297,-54.760465742832366 175,-56.194289953847296 C176.62556023997297,-57.17589734931558 178.4538868053712,-43.721763064402836 180,-44.905779023016166 C182.4538868053712,-46.784969465400145 182.8532294760576,-63.25409543938611 185,-63.852305956340565 C186.8532294760576,-64.36871949497615 187.22919730346302,-53.72046161039964 190,-47.692339161991235 C191.22919730346305,-45.01811343390544 192.62189022730814,-43.68702504707717 195,-42.096435515105064 Q196.62189022730814,-41.011640503878944 200,-41.003877803995664"
                  class="spline"
                  fill="none"/>
         </g>
      </g>
      <g id="smooth-7" stroke="blue">
         <g>
            <path d="M0,-59.13639429933831 Q2.999927866109247,-59.06924702032859 5,-59.030724049064034 C6.999927866109248,-58.992203856511054 7.999939763872031,-58.97465909576177 10,-58.943786389794475 C11.99993976387203,-58.91291554342344 13.662991258979455,-60.03703254836657 15,-58.8763651682182 C17.662991258979456,-56.564602355389894 17.762660239100388,-50.83690391693709 20,-50.26271090735278 C21.762660239100388,-49.8103401028592 23.12752374462183,-56.55975898339667 25,-56.30995563302348 C27.12752374462183,-56.0261269020163 27.457173865284155,-51.0724739118986 30,-48.92863070390187 C31.457173865284155,-47.70009515783754 33.021346319147995,-48.38284558919158 35,-47.87900874787083 C37.021346319147995,-47.36430081564879 37.96634219694355,-46.82558950295812 40,-46.38226877004488 C41.96634219694355,-45.95362228753583 43.23031627749383,-45.124398872988245 45,-45.699090709315094 C47.23031627749383,-46.42336959644156 48.5349639802371,-47.61762731061086 50,-49.62969557867816 C52.5349639802371,-53.111193996822266 52.34111299272017,-57.46731835805664 55,-59.433007424843616 C56.34111299272017,-60.42447909697495 58.51429274263453,-56.19924046149093 60,-57.02259742597395 C62.51429274263453,-58.41598123704058 62.444524097374284,-62.48593556214962 65,-64.97485936371774 C66.44452409737428,-66.38176380926521 68.08037205157656,-66.96587946725055 70,-66.76216804376293 C72.08037205157656,-66.54139841371114 73.07416409679547,-63.75696317072856 75,-63.913656729869196 C77.07416409679547,-64.08241885234692 78.08172578739276,-67.73623352904869 80,-67.57580724780881 C82.08172578739276,-67.4017114254088 83.17911636942027,-65.04501217167748 85,-63.07735147076947 C87.17911636942027,-60.722581747539834 87.75606418019898,-57.32544869879865 90,-56.769731187464686 C91.75606418019898,-56.33483656732825 92.87850499316126,-60.312402632460774 95,-60.60082114209349 C96.87850499316126,-60.85620501465443 98.20680492128436,-59.41571027550869 100,-58.12923714294881 C102.20680492128436,-56.54603224029726 102.88406595307853,-55.16539674567918 105,-53.42662605406491 C106.88406595307853,-51.878393175517715 108.47990670797618,-51.75736366491664 110,-49.91172821754513 C112.47990670797618,-46.90072635967789 112.45165020923153,-42.79672757200838 115,-41.285032790968025 C116.45165020923153,-40.423906091195114 117.93428389200112,-43.048554002922536 120,-43.97967451551198 C121.93428389200112,-44.851552021835104 123.48786931909126,-46.6042885930875 125,-45.792527838249455 C127.48786931909126,-44.45695896057133 127.87843368602597,-41.39047123821848 130,-38.611350434221535 C131.87843368602597,-36.15071835245324 133.23459738037033,-32.24860175076153 135,-32.69314562383635 C137.23459738037033,-33.25583685539296 137.93179373140714,-37.79732439111084 140,-41.12943819580009 C141.93179373140714,-44.241776001745045 142.47273926915068,-47.33693998960509 145,-48.80427465042187 C146.47273926915068,-49.65935119618235 148.09386267653898,-47.87550458887947 150,-46.935466212243234 C152.09386267653898,-45.902848442722295 152.84268312706973,-44.595788347851375 155,-43.87263428502892 C156.84268312706973,-43.254948581757674 158.2355941407783,-42.94493429833702 160,-43.58336679700899 C162.2355941407783,-44.392294032119786 162.95701863171055,-45.986403655603326 165,-47.491033619485854 C166.95701863171055,-48.93235311405056 167.93070861759017,-49.67880872122928 170,-50.948240443127055 C171.93070861759017,-52.132656898800946 173.37557672030735,-54.26576388181005 175,-53.62565406341502 C177.37557672030735,-52.689549538178774 177.5046768969603,-48.62832870887992 180,-47.007704584048845 C181.5046768969603,-46.0304701424171 183.01509320016496,-47.28204313710681 185,-47.131007647257974 C187.01509320016496,-46.977675214418674 188.0015568397479,-46.60906213792137 190,-46.246784777328486 C192.0015568397479,-45.883942969563975 193.00146055619908,-45.697339030237764 195,-45.31820972636448 Q197.00146055619908,-44.9385262781567 200,-44.349752897125825"
                  class="spline"
                  fill="none"/>
         </g>
      </g>
      <g id="smooth-11" stroke="magenta">
         <g>
            <path d="M0,-55.79401969476034 Q3.0012834050205592,-55.38604676123628 5,-55.09916209634764 C7.001283405020559,-54.811909005820105 8.001234942602085,-54.662981592028856 10,-54.358675306219915 C12.001234942602085,-54.05399298742497 13.001098219330922,-53.896351926028956 15,-53.576690584837934 C17.00109821933092,-53.25667799250728 18.000873857172756,-53.09163024026032 20,-52.75949047241572 C22.000873857172756,-52.42706033498185 23.05051340803782,-52.441776774912675 25,-51.91526582164176 C27.05051340803782,-51.36146987679551 27.935556249963938,-50.45751369308493 30,-50.05872322712281 C31.935556249963938,-49.6848300760958 33.00816808009501,-49.8698274300182 35,-49.98355677916895 C37.00816808009501,-50.09821888818135 38.11816245058633,-50.0030765139153 40,-50.62970187253068 C42.11816245058633,-51.33502008962006 42.89334260501354,-52.536223510688146 45,-53.313415718430846 C46.89334260501354,-54.01191141246525 48.10628000871983,-53.62114708371106 50,-54.318921626973456 C52.10628000871983,-55.0950176590345 52.875741308128966,-56.36546768218119 55,-56.998092156739446 C56.875741308128966,-57.55670578699232 58.10816978781558,-56.77109253034343 60,-57.29701688900128 C62.10816978781558,-57.88308314191228 62.890148323300245,-59.239906911113046 65,-59.778068685661566 C66.89014832330025,-60.260190527239686 68.1434623683192,-59.29893219046003 70,-59.84772592931788 C72.1434623683192,-60.48133480809188 72.86648663408138,-62.270606436093686 75,-62.734075229741194 C76.86648663408138,-63.13953709488608 78.06760389339533,-61.76179415074462 80,-62.020052576298866 C82.06760389339533,-62.29638108076699 82.92324558096948,-63.689546297228894 85,-64.07054255479711 C86.92324558096948,-64.42337645851697 88.42225594391212,-64.80915408293703 90,-63.85462797951904 C92.42225594391212,-62.389177028395494 92.91227102376932,-60.27258859492108 95,-58.02059991844326 C96.91227102376934,-55.957873989496164 97.87271219503786,-54.89970146328919 100,-53.067841465956754 C101.87271219503786,-51.45520280530897 102.78912916624668,-50.30002118354782 105,-49.40935327349273 C106.78912916624668,-48.6885875412793 108.00874177994848,-49.264644801978775 110,-49.03925736028544 C112.00874177994848,-48.81189098145719 112.99598414530367,-48.55296576354873 115,-48.27746872218877 C116.99598414530367,-48.003075819885176 118.42613716582339,-48.69608742978114 120,-47.66453250112656 C122.42613716582339,-46.07437248422363 122.56891210802117,-43.08560067168718 125,-41.723181358295 C126.56891210802117,-40.843938709752585 128.11801173518023,-41.505873791376686 130,-42.06037759629006 C132.11801173518023,-42.68442270218294 133.19864268929967,-45.05182500553835 135,-44.66955363531064 C137.19864268929967,-44.20297315819644 137.71990871354703,-40.697666266581344 140,-39.938247977935305 C141.71990871354703,-39.36540682037745 143.07735090943086,-40.58036063431678 145,-41.338905019800904 C147.07735090943086,-42.15848404582205 148.07609991703885,-42.73726005224683 150,-43.88355650669847 C152.07609991703885,-45.12053653235868 152.81032333524962,-46.499416480045426 155,-47.29709622008052 C156.81032333524962,-47.95658091509872 158.0145594136226,-47.30413918459716 160,-47.52646759433171 C162.0145594136226,-47.7520567123439 163.00950972821335,-48.46556347529347 165,-48.41689003944737 C167.00950972821335,-48.36775152105083 167.99894613583376,-47.73122486975624 170,-47.281937708725096 C171.99894613583376,-46.833123785968894 172.97709486593976,-46.444999245940096 175,-46.171637329979006 C176.97709486593976,-45.90446590829926 178.00158707355803,-46.05294623266703 180,-45.93060436462301 C182.00158707355803,-45.808068176835306 183.002151346434,-45.73271595640501 185,-45.559442190399686 C187.002151346434,-45.38579525108322 188.00254782957435,-45.2847435618903 190,-45.06330260131855 C192.00254782957435,-44.84129672726684 193.00273909464923,-44.7164164618483 195,-44.450825103841034 Q197.00273909464923,-44.18450526828169 200,-43.73352461740202"
                  class="spline"
                  fill="none"/>
         </g>
      </g>
      <g id="smooth-15" stroke="orange">
         <g>
            <path d="M0,-55.954973789842235 Q2.9997098157278286,-55.60200303893189 5,-55.37087485990371 C6.999709815727829,-55.13981374090805 7.999153526944635,-55.02038242677546 10,-54.79950054478263 C11.999153526944635,-54.57880555425203 12.998609809214914,-54.465981055115705 15,-54.26693267859512 C16.998609809214916,-54.06816082508349 17.998277516736792,-53.96868235495768 20,-53.804949969702086 C21.998277516736795,-53.64149936805596 22.99838907551699,-53.563107691382214 25,-53.44897521134082 C26.998389075516986,-53.335026442133696 27.999115956682473,-53.2857381137912 30,-53.2347468465808 C31.99911595668247,-53.18380063794256 33.0000007177891,-53.19404362706542 35,-53.194131521719235 C37.0000007177891,-53.19421941643614 38.06012703413607,-52.88034240033523 40,-53.23518632000759 C42.06012703413607,-53.612027259945265 42.939840370210014,-54.65647116117428 45,-55.0233436707443 C46.939840370210014,-55.368789768460886 48.009925287852596,-54.876547860197384 50,-55.01598283822412 C52.009925287852596,-55.15680865076092 53.041563220686136,-55.262814834635556 55,-55.723995647153146 C57.041563220686136,-56.20475141872925 57.98056183051557,-56.778436332361665 60,-57.37082429845837 C61.98056183051557,-57.951808164286476 62.969489215738925,-58.45263559158 65,-58.65742522696517 C66.96948921573892,-58.856060457820625 68.16858646588568,-57.846518856747686 70,-58.379386464059955 C72.16858646588568,-59.010357820228904 72.84351650083788,-61.05950525832353 75,-61.56702263566822 C76.84351650083788,-62.00088482842807 77.99086062825396,-60.99688304432478 80,-60.73283538932131 C81.99086062825396,-60.471189986457915 83.05057527729936,-60.67929822023673 85,-60.252789991001045 C87.05057527729936,-59.80415136430722 88.05017201842175,-59.350126200920535 90,-58.54496824949752 C92.05017201842175,-57.698374438139304 92.90030485586223,-56.74306610707573 95,-56.12341058404797 C96.90030485586223,-55.5625985048949 98.13854984481907,-56.23083293833875 100,-55.59379924404544 C102.13854984481907,-54.86193526999073 102.9654207550678,-53.79374024243418 105,-52.70116641317792 C106.9654207550678,-51.64573085527921 108.05956394061974,-51.320506571840866 110,-50.223775776158014 C112.05956394061974,-49.05971412700632 112.85858492651056,-47.98453335025373 115,-47.04918530109156 C116.85858492651056,-46.23737454719549 117.97245663752621,-46.080094141062624 120,-45.855878768512426 C121.97245663752621,-45.63775514757913 123.0290174016962,-46.16765663626009 125,-45.943337817382826 C127.0290174016962,-45.71241401956665 127.9895891672234,-45.1607189257205 130,-44.71777222677881 C131.98958916722341,-44.2794130916688 132.98684082728792,-44.04374515016425 135,-43.74007323225358 C136.98684082728792,-43.440371264925815 138.028262076092,-43.053001828231224 140,-43.209337513682726 C142.028262076092,-43.37015490127583 143.00671462184786,-44.558912664237575 145,-44.5329559148651 C147.00671462184786,-44.50682428862015 148.05438679517465,-42.9170277635704 150,-43.079116574639166 C152.05438679517465,-43.25026730093942 152.92748857798492,-44.670079794175486 155,-45.366054758287646 C156.92748857798492,-46.01332925802736 157.97958610075634,-46.156492497362365 160,-46.43724023426884 C161.97958610075634,-46.71231472173248 162.99824857802173,-46.715213751591946 165,-46.755610319212934 C166.99824857802173,-46.795936197301145 168.0005460835213,-46.70279965904899 170,-46.63904634854183 C172.0005460835213,-46.575258213893925 173.00101560768667,-46.53777232181631 175,-46.43675670632526 C177.00101560768667,-46.33563844647544 178.00156600079995,-46.276803258462834 180,-46.133711660189654 C182.00156600079995,-45.990395804765676 183.0020954578259,-45.90825627852627 185,-45.720738072082355 C187.0020954578259,-45.532826517022535 188.00250067025632,-45.42692992536307 190,-45.19513725643032 C192.00250067025632,-44.962764224816894 193.0027105504231,-44.83403056135992 195,-44.5603238207169 Q197.0027105504231,-44.28587417731453 200,-43.82474629631685"
                  class="spline"
                  fill="none"/>
         </g>
      </g>
   </g>
   <polyline points="0,-72.44360614621964 5,-39.13798033211783 10,-79.98324901356226 15,-41.76536715554822 20,-62.17604541333057 25,-52.94600627483055 30,-65.52168890098585 35,-4.23738644017142 40,-92.59339687684643 45,-21.059936752252394 50,-36.69354266235847 55,-53.22264360873845 60,-48.41950381186173 65,-93.6751861311978 70,-77.88259034843617 75,-64.1453295568398 80,-77.08115290820497 85,-47.34383601849497 90,-32.70645874642917 95,-85.01043749380185 100,-60.89540288903541 105,-29.116550020033493 110,-96.73225072171199 115,-53.53784688849229 120,-8.63849844015433 125,-12.381889872484308 130,-25.639697131181926 135,-88.98578979956385 140,-45.80698581417953 145,-36.05306483347175 150,-0.9754504130115471 155,-75.57000666188618 160,-72.89166757838963 165,-11.638068190067441 170,-64.54246450895447 175,-39.90239257291772 180,-64.4671309383429 185,-29.95264803636336 190,-97.8219574107476 195,-14.289726575208162 200,-14.739355341679328"
             stroke="black"
             stroke-width="0.5"
             fill="none"/>
   <rect x="0"
         y="-100"
         width="200"
         height="100"
         stroke="lightgray"
         stroke-width="0.5"
         fill="none"/>
   <g fill="lightgray" font-size="3">
      <text x="-1" y="0" text-anchor="end" alignment-baseline="central">0.0</text>
      <text x="-1" y="-100" text-anchor="end" alignment-baseline="central">100.0</text>
      <text x="207" y="0" text-anchor="end" alignment-baseline="central">0.0</text>
      <text x="207" y="-100" text-anchor="end" alignment-baseline="central">100.0</text>
   </g>
   <g transform="translate(25, 10)">
      <rect x="0"
            y="-5"
            width="27"
            height="27"
            stroke="black"
            stroke-width="0.5"
            fill="none"/>
      <rect x="3"
            y="2"
            width="3"
            height="3"
            fill="green"
            class="toggle"
            id="rect-3"/>
      <rect x="3"
            y="7"
            width="3"
            height="3"
            fill="blue"
            class="toggle"
            id="rect-7"/>
      <rect x="3"
            y="12"
            width="3"
            height="3"
            fill="magenta"
            class="toggle"
            id="rect-11"/>
      <rect x="3"
            y="17"
            width="3"
            height="3"
            fill="orange"
            class="toggle"
            id="rect-15"/>
      <text x="8" y="0" font-size="4">
         <tspan x="3">Window size</tspan>
         <tspan x="8" dy="5">3</tspan>
         <tspan x="8" dy="5">7</tspan>
         <tspan x="8" dy="5">11</tspan>
         <tspan x="8" dy="5">15</tspan>
      </text>
   </g>
   <text x="100"
         y="-105"
         font-size="5"
         fill="black"
         text-anchor="middle">Window size effects</text>
   <text x="100"
         y="5"
         font-size="4"
         fill="black"
         text-anchor="middle">Fake independent variable</text>
   <text x="-5"
         y="-50"
         font-size="4"
         fill="black"
         text-anchor="middle"
         writing-mode="tb">Fake dependent variable</text>
</svg>
